<svg xmlns="http://www.w3.org/2000/svg" width="520" height="369" viewBox="0 0 520 369" font-family="DejaVu Sans, Bitstream Vera Sans, Verdana, Arial, sans-serif" font-size="11" style="background:#fff" data-plotlet-version="0.4.3" data-plotlet-schema="2" data-plotlet-kind="layout"><g transform="translate(33.00,27.00)" data-plotlet-kind="panel" data-plotlet-title="sin" data-plotlet-xscale="linear" data-plotlet-yscale="linear" data-plotlet-xlim="-0.315,6.615" data-plotlet-ylim="-1.09989810059,1.09954844607" data-plotlet-panel-bbox="0,0,260,369" data-plotlet-data-area="33,27,220,320"><svg x="0" y="0" width="220.0" height="320" overflow="hidden"><g class="plotlet-artist" data-plotlet-type="line" data-plotlet-index="0" data-plotlet-color="#1f77b4" data-plotlet-n="64" data-plotlet-x-min="0.0" data-plotlet-x-max="6.300000000000001" data-plotlet-y-min="-0.9999232575641008" data-plotlet-y-max="0.9995736030415051"><path d="M10.00,159.97L13.17,145.45L16.35,131.07L19.52,116.98L22.70,103.32L25.87,90.22L29.05,77.82L32.22,66.25L35.40,55.61L38.57,46.01L41.75,37.55L44.92,30.31L48.10,24.37L51.27,19.79L54.44,16.60L57.62,14.85L60.79,14.55L63.97,15.70L67.14,18.29L70.32,22.30L73.49,27.68L76.67,34.39L79.84,42.35L83.02,51.48L86.19,61.70L89.37,72.90L92.54,84.97L95.71,97.79L98.89,111.24L102.06,125.17L105.24,139.44L108.41,153.92L111.59,168.47L114.76,182.93L117.94,197.15L121.11,211.01L124.29,224.36L127.46,237.06L130.63,248.99L133.81,260.04L136.98,270.08L140.16,279.03L143.33,286.78L146.51,293.27L149.68,298.42L152.86,302.20L156.03,304.55L159.21,305.45L162.38,304.91L165.56,302.91L168.73,299.49L171.90,294.67L175.08,288.51L178.25,281.06L181.43,272.40L184.60,262.62L187.78,251.82L190.95,240.09L194.13,227.57L197.30,214.37L200.48,200.63L203.65,186.48L206.83,172.06L210.00,157.53" fill="none" stroke="#1f77b4" stroke-width="1.5"/></g></svg><line x1="0" y1="0" x2="220.0" y2="0" stroke="#000000" stroke-width="0.8"/><line x1="0" y1="320" x2="220.0" y2="320" stroke="#000000" stroke-width="0.8"/><line x1="0" y1="0" x2="0" y2="320" stroke="#000000" stroke-width="0.8"/><line x1="220.0" y1="0" x2="220.0" y2="320" stroke="#000000" stroke-width="0.8"/><line x1="10.00" x2="10.00" y1="320" y2="323.5" stroke="#000000" stroke-width="0.8"/><path d="M9.997314453125 328.21435546875Q9.159423828125 328.21435546875 8.73779296875 329.038818359375Q8.316162109375 329.86328125 8.316162109375 331.517578125Q8.316162109375 333.16650390625 8.73779296875 333.990966796875Q9.159423828125 334.8154296875 9.997314453125 334.8154296875Q10.840576171875 334.8154296875 11.26220703125 333.990966796875Q11.683837890625 333.16650390625 11.683837890625 331.517578125Q11.683837890625 329.86328125 11.26220703125 329.038818359375Q10.840576171875 328.21435546875 9.997314453125 328.21435546875ZM9.997314453125 327.35498046875Q11.345458984375 327.35498046875 12.05712890625 328.421142578125Q12.768798828125 329.4873046875 12.768798828125 331.517578125Q12.768798828125 333.54248046875 12.05712890625 334.608642578125Q11.345458984375 335.6748046875 9.997314453125 335.6748046875Q8.649169921875 335.6748046875 7.9375 334.608642578125Q7.225830078125 333.54248046875 7.225830078125 331.517578125Q7.225830078125 329.4873046875 7.9375 328.421142578125Q8.649169921875 327.35498046875 9.997314453125 327.35498046875Z" fill="#000"/><line x1="73.49" x2="73.49" y1="320" y2="323.5" stroke="#000000" stroke-width="0.8"/><path d="M72.10363575768848 334.60595703125H75.89025685143848V335.51904296875H70.79845997643848V334.60595703125Q71.41613575768848 333.966796875 72.48229786706348 332.889892578125Q73.54845997643848 331.81298828125 73.82238575768848 331.50146484375Q74.34338185143848 330.916015625 74.55016896081348 330.510498046875Q74.75695607018848 330.10498046875 74.75695607018848 329.712890625Q74.75695607018848 329.07373046875 74.30846974206348 328.6708984375Q73.85998341393848 328.26806640625 73.14025685143848 328.26806640625Q72.63000294518848 328.26806640625 72.06335255456348 328.4453125Q71.49670216393848 328.62255859375 70.85217091393848 328.982421875V327.88671875Q71.50744435143848 327.62353515625 72.07678028893848 327.4892578125Q72.64611622643848 327.35498046875 73.11877247643848 327.35498046875Q74.36486622643848 327.35498046875 75.10607716393848 327.97802734375Q75.84728810143848 328.60107421875 75.84728810143848 329.64306640625Q75.84728810143848 330.13720703125 75.66198536706348 330.580322265625Q75.47668263268848 331.0234375 74.98791310143848 331.625Q74.85363575768848 331.78076171875 74.13390919518848 332.524658203125Q73.41418263268848 333.2685546875 72.10363575768848 334.60595703125Z" fill="#000"/><line x1="136.98" x2="136.98" y1="320" y2="323.5" stroke="#000000" stroke-width="0.8"/><path d="M137.64208596850196 328.4453125 134.90282815600196 332.72607421875H137.64208596850196ZM137.35741799975196 327.5H138.72167581225196V332.72607421875H139.86571878100196V333.62841796875H138.72167581225196V335.51904296875H137.64208596850196V333.62841796875H134.02196878100196V332.5810546875Z" fill="#000"/><line x1="200.48" x2="200.48" y1="320" y2="323.5" stroke="#000000" stroke-width="0.8"/><path d="M200.60778227306545 331.0771484375Q199.87731352306545 331.0771484375 199.45031156994045 331.57666015625Q199.02330961681545 332.076171875 199.02330961681545 332.9462890625Q199.02330961681545 333.81103515625 199.45031156994045 334.313232421875Q199.87731352306545 334.8154296875 200.60778227306545 334.8154296875Q201.33825102306545 334.8154296875 201.76525297619045 334.313232421875Q202.19225492931545 333.81103515625 202.19225492931545 332.9462890625Q202.19225492931545 332.076171875 201.76525297619045 331.57666015625Q201.33825102306545 331.0771484375 200.60778227306545 331.0771484375ZM202.76159086681545 327.67724609375V328.66552734375Q202.35338774181545 328.47216796875 201.93712797619045 328.3701171875Q201.52086821056545 328.26806640625 201.11266508556545 328.26806640625Q200.03844633556545 328.26806640625 199.47179594494045 328.9931640625Q198.90514555431545 329.71826171875 198.82457914806545 331.1845703125Q199.14147367931545 330.71728515625 199.61950102306545 330.467529296875Q200.09752836681545 330.2177734375 200.67223539806545 330.2177734375Q201.88073149181545 330.2177734375 202.58165922619045 330.950927734375Q203.28258696056545 331.68408203125 203.28258696056545 332.9462890625Q203.28258696056545 334.181640625 202.55211821056545 334.92822265625Q201.82164946056545 335.6748046875 200.60778227306545 335.6748046875Q199.21666899181545 335.6748046875 198.48082914806545 334.608642578125Q197.74498930431545 333.54248046875 197.74498930431545 331.517578125Q197.74498930431545 329.6162109375 198.64733305431545 328.485595703125Q199.54967680431545 327.35498046875 201.06969633556545 327.35498046875Q201.47789946056545 327.35498046875 201.89415922619045 327.435546875Q202.31041899181545 327.51611328125 202.76159086681545 327.67724609375Z" fill="#000"/><line x1="0" x2="-3.5" y1="305.47" y2="305.47" stroke="#000000" stroke-width="0.8"/><path d="M-17.9306640625 306.0216190026637H-15.03564453125V306.9024783776637H-17.9306640625ZM-13.13427734375 308.5621463464137H-11.36181640625V302.4444705651637L-13.2900390625 302.8311893151637V301.8429080651637L-11.37255859375 301.4561893151637H-10.28759765625V308.5621463464137H-8.51513671875V309.4752322839137H-13.13427734375Z" fill="#000"/><line x1="0" x2="-3.5" y1="276.37" y2="276.37" stroke="#000000" stroke-width="0.8"/><path d="M-28.42578125 276.9233896790147H-25.53076171875V277.8042490540147H-28.42578125ZM-21.4970703125 273.0723154602647Q-22.3349609375 273.0723154602647 -22.756591796875 273.8967783508897Q-23.17822265625 274.7212412415147 -23.17822265625 276.3755381165147Q-23.17822265625 278.0244638977647 -22.756591796875 278.8489267883897Q-22.3349609375 279.6733896790147 -21.4970703125 279.6733896790147Q-20.65380859375 279.6733896790147 -20.232177734375 278.8489267883897Q-19.810546875 278.0244638977647 -19.810546875 276.3755381165147Q-19.810546875 274.7212412415147 -20.232177734375 273.8967783508897Q-20.65380859375 273.0723154602647 -21.4970703125 273.0723154602647ZM-21.4970703125 272.2129404602647Q-20.14892578125 272.2129404602647 -19.437255859375 273.2791025696397Q-18.7255859375 274.3452646790147 -18.7255859375 276.3755381165147Q-18.7255859375 278.4004404602647 -19.437255859375 279.4666025696397Q-20.14892578125 280.5327646790147 -21.4970703125 280.5327646790147Q-22.84521484375 280.5327646790147 -23.556884765625 279.4666025696397Q-24.2685546875 278.4004404602647 -24.2685546875 276.3755381165147Q-24.2685546875 274.3452646790147 -23.556884765625 273.2791025696397Q-22.84521484375 272.2129404602647 -21.4970703125 272.2129404602647ZM-16.81884765625 279.0127451477647H-15.685546875V280.3770029602647H-16.81884765625ZM-11.001953125 276.5688974915147Q-11.775390625 276.5688974915147 -12.218505859375 276.9824717102647Q-12.66162109375 277.3960459290147 -12.66162109375 278.1211435852647Q-12.66162109375 278.8462412415147 -12.218505859375 279.2598154602647Q-11.775390625 279.6733896790147 -11.001953125 279.6733896790147Q-10.228515625 279.6733896790147 -9.78271484375 279.2571299133897Q-9.3369140625 278.8408701477647 -9.3369140625 278.1211435852647Q-9.3369140625 277.3960459290147 -9.780029296875 276.9824717102647Q-10.22314453125 276.5688974915147 -11.001953125 276.5688974915147ZM-12.0869140625 276.1069834290147Q-12.78515625 275.9351084290147 -13.174560546875 275.4570810852647Q-13.56396484375 274.9790537415147 -13.56396484375 274.2915537415147Q-13.56396484375 273.3301279602647 -12.879150390625 272.7715342102647Q-12.1943359375 272.2129404602647 -11.001953125 272.2129404602647Q-9.80419921875 272.2129404602647 -9.1220703125 272.7715342102647Q-8.43994140625 273.3301279602647 -8.43994140625 274.2915537415147Q-8.43994140625 274.9790537415147 -8.829345703125 275.4570810852647Q-9.21875 275.9351084290147 -9.91162109375 276.1069834290147Q-9.12744140625 276.2896006165147 -8.689697265625 276.8213388977647Q-8.251953125 277.3530771790147 -8.251953125 278.1211435852647Q-8.251953125 279.2866709290147 -8.963623046875 279.9097178040147Q-9.67529296875 280.5327646790147 -11.001953125 280.5327646790147Q-12.32861328125 280.5327646790147 -13.040283203125 279.9097178040147Q-13.751953125 279.2866709290147 -13.751953125 278.1211435852647Q-13.751953125 277.3530771790147 -13.3115234375 276.8213388977647Q-12.87109375 276.2896006165147 -12.0869140625 276.1069834290147ZM-12.484375 274.3936045227647Q-12.484375 275.0166513977647 -12.094970703125 275.3657724915147Q-11.70556640625 275.7148935852647 -11.001953125 275.7148935852647Q-10.3037109375 275.7148935852647 -9.908935546875 275.3657724915147Q-9.51416015625 275.0166513977647 -9.51416015625 274.3936045227647Q-9.51416015625 273.7705576477647 -9.908935546875 273.4214365540147Q-10.3037109375 273.0723154602647 -11.001953125 273.0723154602647Q-11.70556640625 273.0723154602647 -12.094970703125 273.4214365540147Q-12.484375 273.7705576477647 -12.484375 274.3936045227647Z" fill="#000"/><line x1="0" x2="-3.5" y1="247.27" y2="247.27" stroke="#000000" stroke-width="0.8"/><path d="M-28.42578125 247.82516035536568H-25.53076171875V248.70601973036568H-28.42578125ZM-21.4970703125 243.97408613661568Q-22.3349609375 243.97408613661568 -22.756591796875 244.79854902724068Q-23.17822265625 245.62301191786568 -23.17822265625 247.27730879286568Q-23.17822265625 248.92623457411568 -22.756591796875 249.75069746474068Q-22.3349609375 250.57516035536568 -21.4970703125 250.57516035536568Q-20.65380859375 250.57516035536568 -20.232177734375 249.75069746474068Q-19.810546875 248.92623457411568 -19.810546875 247.27730879286568Q-19.810546875 245.62301191786568 -20.232177734375 244.79854902724068Q-20.65380859375 243.97408613661568 -21.4970703125 243.97408613661568ZM-21.4970703125 243.11471113661568Q-20.14892578125 243.11471113661568 -19.437255859375 244.18087324599068Q-18.7255859375 245.24703535536568 -18.7255859375 247.27730879286568Q-18.7255859375 249.30221113661568 -19.437255859375 250.36837324599068Q-20.14892578125 251.43453535536568 -21.4970703125 251.43453535536568Q-22.84521484375 251.43453535536568 -23.556884765625 250.36837324599068Q-24.2685546875 249.30221113661568 -24.2685546875 247.27730879286568Q-24.2685546875 245.24703535536568 -23.556884765625 244.18087324599068Q-22.84521484375 243.11471113661568 -21.4970703125 243.11471113661568ZM-16.81884765625 249.91451582411568H-15.685546875V251.27877363661568H-16.81884765625ZM-10.86767578125 246.83687910536568Q-11.59814453125 246.83687910536568 -12.025146484375 247.33639082411568Q-12.4521484375 247.83590254286568 -12.4521484375 248.70601973036568Q-12.4521484375 249.57076582411568 -12.025146484375 250.07296308974068Q-11.59814453125 250.57516035536568 -10.86767578125 250.57516035536568Q-10.13720703125 250.57516035536568 -9.710205078125 250.07296308974068Q-9.283203125 249.57076582411568 -9.283203125 248.70601973036568Q-9.283203125 247.83590254286568 -9.710205078125 247.33639082411568Q-10.13720703125 246.83687910536568 -10.86767578125 246.83687910536568ZM-8.7138671875 243.43697676161568V244.42525801161568Q-9.1220703125 244.23189863661568 -9.538330078125 244.12984785536568Q-9.95458984375 244.02779707411568 -10.36279296875 244.02779707411568Q-11.43701171875 244.02779707411568 -12.003662109375 244.75289473036568Q-12.5703125 245.47799238661568 -12.65087890625 246.94430098036568Q-12.333984375 246.47701582411568 -11.85595703125 246.22725996474068Q-11.3779296875 245.97750410536568 -10.80322265625 245.97750410536568Q-9.5947265625 245.97750410536568 -8.893798828125 246.71065840224068Q-8.19287109375 247.44381269911568 -8.19287109375 248.70601973036568Q-8.19287109375 249.94137129286568 -8.92333984375 250.68795332411568Q-9.65380859375 251.43453535536568 -10.86767578125 251.43453535536568Q-12.2587890625 251.43453535536568 -12.99462890625 250.36837324599068Q-13.73046875 249.30221113661568 -13.73046875 247.27730879286568Q-13.73046875 245.37594160536568 -12.828125 244.24532637099068Q-11.92578125 243.11471113661568 -10.40576171875 243.11471113661568Q-9.99755859375 243.11471113661568 -9.581298828125 243.19527754286568Q-9.1650390625 243.27584394911568 -8.7138671875 243.43697676161568Z" fill="#000"/><line x1="0" x2="-3.5" y1="218.17" y2="218.17" stroke="#000000" stroke-width="0.8"/><path d="M-28.42578125 218.72693103171667H-25.53076171875V219.60779040671667H-28.42578125ZM-21.4970703125 214.87585681296667Q-22.3349609375 214.87585681296667 -22.756591796875 215.70031970359167Q-23.17822265625 216.52478259421667 -23.17822265625 218.17907946921667Q-23.17822265625 219.82800525046667 -22.756591796875 220.65246814109167Q-22.3349609375 221.47693103171667 -21.4970703125 221.47693103171667Q-20.65380859375 221.47693103171667 -20.232177734375 220.65246814109167Q-19.810546875 219.82800525046667 -19.810546875 218.17907946921667Q-19.810546875 216.52478259421667 -20.232177734375 215.70031970359167Q-20.65380859375 214.87585681296667 -21.4970703125 214.87585681296667ZM-21.4970703125 214.01648181296667Q-20.14892578125 214.01648181296667 -19.437255859375 215.08264392234167Q-18.7255859375 216.14880603171667 -18.7255859375 218.17907946921667Q-18.7255859375 220.20398181296667 -19.437255859375 221.27014392234167Q-20.14892578125 222.33630603171667 -21.4970703125 222.33630603171667Q-22.84521484375 222.33630603171667 -23.556884765625 221.27014392234167Q-24.2685546875 220.20398181296667 -24.2685546875 218.17907946921667Q-24.2685546875 216.14880603171667 -23.556884765625 215.08264392234167Q-22.84521484375 214.01648181296667 -21.4970703125 214.01648181296667ZM-16.81884765625 220.81628650046667H-15.685546875V222.18054431296667H-16.81884765625ZM-10.34130859375 215.10681384421667 -13.08056640625 219.38757556296667H-10.34130859375ZM-10.6259765625 214.16150134421667H-9.26171875V219.38757556296667H-8.11767578125V220.28991931296667H-9.26171875V222.18054431296667H-10.34130859375V220.28991931296667H-13.96142578125V219.24255603171667Z" fill="#000"/><line x1="0" x2="-3.5" y1="189.07" y2="189.07" stroke="#000000" stroke-width="0.8"/><path d="M-28.42578125 189.62870170806767H-25.53076171875V190.50956108306767H-28.42578125ZM-21.4970703125 185.77762748931767Q-22.3349609375 185.77762748931767 -22.756591796875 186.60209037994267Q-23.17822265625 187.42655327056767 -23.17822265625 189.08085014556767Q-23.17822265625 190.72977592681767 -22.756591796875 191.55423881744267Q-22.3349609375 192.37870170806767 -21.4970703125 192.37870170806767Q-20.65380859375 192.37870170806767 -20.232177734375 191.55423881744267Q-19.810546875 190.72977592681767 -19.810546875 189.08085014556767Q-19.810546875 187.42655327056767 -20.232177734375 186.60209037994267Q-20.65380859375 185.77762748931767 -21.4970703125 185.77762748931767ZM-21.4970703125 184.91825248931767Q-20.14892578125 184.91825248931767 -19.437255859375 185.98441459869267Q-18.7255859375 187.05057670806767 -18.7255859375 189.08085014556767Q-18.7255859375 191.10575248931767 -19.437255859375 192.17191459869267Q-20.14892578125 193.23807670806767 -21.4970703125 193.23807670806767Q-22.84521484375 193.23807670806767 -23.556884765625 192.17191459869267Q-24.2685546875 191.10575248931767 -24.2685546875 189.08085014556767Q-24.2685546875 187.05057670806767 -23.556884765625 185.98441459869267Q-22.84521484375 184.91825248931767 -21.4970703125 184.91825248931767ZM-16.81884765625 191.71805717681767H-15.685546875V193.08231498931767H-16.81884765625ZM-12.3876953125 192.16922905181767H-8.60107421875V193.08231498931767H-13.69287109375V192.16922905181767Q-13.0751953125 191.53006889556767 -12.009033203125 190.45316459869267Q-10.94287109375 189.37626030181767 -10.6689453125 189.06473686431767Q-10.14794921875 188.47928764556767 -9.941162109375 188.07377006744267Q-9.734375 187.66825248931767 -9.734375 187.27616264556767Q-9.734375 186.63700248931767 -10.182861328125 186.23417045806767Q-10.63134765625 185.83133842681767 -11.35107421875 185.83133842681767Q-11.861328125 185.83133842681767 -12.427978515625 186.00858452056767Q-12.99462890625 186.18583061431767 -13.63916015625 186.54569389556767V185.44999077056767Q-12.98388671875 185.18680717681767 -12.41455078125 185.05252983306767Q-11.84521484375 184.91825248931767 -11.37255859375 184.91825248931767Q-10.12646484375 184.91825248931767 -9.38525390625 185.54129936431767Q-8.64404296875 186.16434623931767 -8.64404296875 187.20633842681767Q-8.64404296875 187.70047905181767 -8.829345703125 188.14359428619267Q-9.0146484375 188.58670952056767 -9.50341796875 189.18827202056767Q-9.6376953125 189.34403373931767 -10.357421875 190.08793022369267Q-11.0771484375 190.83182670806767 -12.3876953125 192.16922905181767Z" fill="#000"/><line x1="0" x2="-3.5" y1="159.97" y2="159.97" stroke="#000000" stroke-width="0.8"/><path d="M-11.001953125 156.67939816566866Q-11.83984375 156.67939816566866 -12.261474609375 157.50386105629366Q-12.68310546875 158.32832394691866 -12.68310546875 159.98262082191866Q-12.68310546875 161.63154660316866 -12.261474609375 162.45600949379366Q-11.83984375 163.28047238441866 -11.001953125 163.28047238441866Q-10.15869140625 163.28047238441866 -9.737060546875 162.45600949379366Q-9.3154296875 161.63154660316866 -9.3154296875 159.98262082191866Q-9.3154296875 158.32832394691866 -9.737060546875 157.50386105629366Q-10.15869140625 156.67939816566866 -11.001953125 156.67939816566866ZM-11.001953125 155.82002316566866Q-9.65380859375 155.82002316566866 -8.942138671875 156.88618527504366Q-8.23046875 157.95234738441866 -8.23046875 159.98262082191866Q-8.23046875 162.00752316566866 -8.942138671875 163.07368527504366Q-9.65380859375 164.13984738441866 -11.001953125 164.13984738441866Q-12.35009765625 164.13984738441866 -13.061767578125 163.07368527504366Q-13.7734375 162.00752316566866 -13.7734375 159.98262082191866Q-13.7734375 157.95234738441866 -13.061767578125 156.88618527504366Q-12.35009765625 155.82002316566866 -11.001953125 155.82002316566866Z" fill="#000"/><line x1="0" x2="-3.5" y1="130.88" y2="130.88" stroke="#000000" stroke-width="0.8"/><path d="M-21.4970703125 127.58116884201965Q-22.3349609375 127.58116884201965 -22.756591796875 128.40563173264465Q-23.17822265625 129.23009462326965 -23.17822265625 130.88439149826965Q-23.17822265625 132.53331727951965 -22.756591796875 133.35778017014465Q-22.3349609375 134.18224306076965 -21.4970703125 134.18224306076965Q-20.65380859375 134.18224306076965 -20.232177734375 133.35778017014465Q-19.810546875 132.53331727951965 -19.810546875 130.88439149826965Q-19.810546875 129.23009462326965 -20.232177734375 128.40563173264465Q-20.65380859375 127.58116884201965 -21.4970703125 127.58116884201965ZM-21.4970703125 126.72179384201965Q-20.14892578125 126.72179384201965 -19.437255859375 127.78795595139465Q-18.7255859375 128.85411806076965 -18.7255859375 130.88439149826965Q-18.7255859375 132.90929384201965 -19.437255859375 133.97545595139465Q-20.14892578125 135.04161806076965 -21.4970703125 135.04161806076965Q-22.84521484375 135.04161806076965 -23.556884765625 133.97545595139465Q-24.2685546875 132.90929384201965 -24.2685546875 130.88439149826965Q-24.2685546875 128.85411806076965 -23.556884765625 127.78795595139465Q-22.84521484375 126.72179384201965 -21.4970703125 126.72179384201965ZM-16.81884765625 133.52159852951965H-15.685546875V134.88585634201965H-16.81884765625ZM-12.3876953125 133.97277040451965H-8.60107421875V134.88585634201965H-13.69287109375V133.97277040451965Q-13.0751953125 133.33361024826965 -12.009033203125 132.25670595139465Q-10.94287109375 131.17980165451965 -10.6689453125 130.86827821701965Q-10.14794921875 130.28282899826965 -9.941162109375 129.87731142014465Q-9.734375 129.47179384201965 -9.734375 129.07970399826965Q-9.734375 128.44054384201965 -10.182861328125 128.03771181076965Q-10.63134765625 127.63487977951965 -11.35107421875 127.63487977951965Q-11.861328125 127.63487977951965 -12.427978515625 127.81212587326965Q-12.99462890625 127.98937196701965 -13.63916015625 128.34923524826965V127.25353212326965Q-12.98388671875 126.99034852951965 -12.41455078125 126.85607118576965Q-11.84521484375 126.72179384201965 -11.37255859375 126.72179384201965Q-10.12646484375 126.72179384201965 -9.38525390625 127.34484071701965Q-8.64404296875 127.96788759201965 -8.64404296875 129.00987977951965Q-8.64404296875 129.50402040451965 -8.829345703125 129.94713563889465Q-9.0146484375 130.39025087326965 -9.50341796875 130.99181337326965Q-9.6376953125 131.14757509201965 -10.357421875 131.89147157639465Q-11.0771484375 132.63536806076965 -12.3876953125 133.97277040451965Z" fill="#000"/><line x1="0" x2="-3.5" y1="101.78" y2="101.78" stroke="#000000" stroke-width="0.8"/><path d="M-21.4970703125 98.48293951837061Q-22.3349609375 98.48293951837061 -22.756591796875 99.30740240899561Q-23.17822265625 100.13186529962061 -23.17822265625 101.78616217462061Q-23.17822265625 103.43508795587061 -22.756591796875 104.25955084649561Q-22.3349609375 105.08401373712061 -21.4970703125 105.08401373712061Q-20.65380859375 105.08401373712061 -20.232177734375 104.25955084649561Q-19.810546875 103.43508795587061 -19.810546875 101.78616217462061Q-19.810546875 100.13186529962061 -20.232177734375 99.30740240899561Q-20.65380859375 98.48293951837061 -21.4970703125 98.48293951837061ZM-21.4970703125 97.62356451837061Q-20.14892578125 97.62356451837061 -19.437255859375 98.68972662774561Q-18.7255859375 99.75588873712061 -18.7255859375 101.78616217462061Q-18.7255859375 103.81106451837061 -19.437255859375 104.87722662774561Q-20.14892578125 105.94338873712061 -21.4970703125 105.94338873712061Q-22.84521484375 105.94338873712061 -23.556884765625 104.87722662774561Q-24.2685546875 103.81106451837061 -24.2685546875 101.78616217462061Q-24.2685546875 99.75588873712061 -23.556884765625 98.68972662774561Q-22.84521484375 97.62356451837061 -21.4970703125 97.62356451837061ZM-16.81884765625 104.42336920587061H-15.685546875V105.78762701837061H-16.81884765625ZM-10.34130859375 98.71389654962061 -13.08056640625 102.99465826837061H-10.34130859375ZM-10.6259765625 97.76858404962061H-9.26171875V102.99465826837061H-8.11767578125V103.89700201837061H-9.26171875V105.78762701837061H-10.34130859375V103.89700201837061H-13.96142578125V102.84963873712061Z" fill="#000"/><line x1="0" x2="-3.5" y1="72.68" y2="72.68" stroke="#000000" stroke-width="0.8"/><path d="M-21.4970703125 69.3847101947216Q-22.3349609375 69.3847101947216 -22.756591796875 70.2091730853466Q-23.17822265625 71.0336359759716 -23.17822265625 72.6879328509716Q-23.17822265625 74.3368586322216 -22.756591796875 75.1613215228466Q-22.3349609375 75.9857844134716 -21.4970703125 75.9857844134716Q-20.65380859375 75.9857844134716 -20.232177734375 75.1613215228466Q-19.810546875 74.3368586322216 -19.810546875 72.6879328509716Q-19.810546875 71.0336359759716 -20.232177734375 70.2091730853466Q-20.65380859375 69.3847101947216 -21.4970703125 69.3847101947216ZM-21.4970703125 68.5253351947216Q-20.14892578125 68.5253351947216 -19.437255859375 69.5914973040966Q-18.7255859375 70.6576594134716 -18.7255859375 72.6879328509716Q-18.7255859375 74.7128351947216 -19.437255859375 75.7789973040966Q-20.14892578125 76.8451594134716 -21.4970703125 76.8451594134716Q-22.84521484375 76.8451594134716 -23.556884765625 75.7789973040966Q-24.2685546875 74.7128351947216 -24.2685546875 72.6879328509716Q-24.2685546875 70.6576594134716 -23.556884765625 69.5914973040966Q-22.84521484375 68.5253351947216 -21.4970703125 68.5253351947216ZM-16.81884765625 75.3251398822216H-15.685546875V76.6893976947216H-16.81884765625ZM-10.86767578125 72.2475031634716Q-11.59814453125 72.2475031634716 -12.025146484375 72.7470148822216Q-12.4521484375 73.2465266009716 -12.4521484375 74.1166437884716Q-12.4521484375 74.9813898822216 -12.025146484375 75.4835871478466Q-11.59814453125 75.9857844134716 -10.86767578125 75.9857844134716Q-10.13720703125 75.9857844134716 -9.710205078125 75.4835871478466Q-9.283203125 74.9813898822216 -9.283203125 74.1166437884716Q-9.283203125 73.2465266009716 -9.710205078125 72.7470148822216Q-10.13720703125 72.2475031634716 -10.86767578125 72.2475031634716ZM-8.7138671875 68.8476008197216V69.8358820697216Q-9.1220703125 69.6425226947216 -9.538330078125 69.5404719134716Q-9.95458984375 69.4384211322216 -10.36279296875 69.4384211322216Q-11.43701171875 69.4384211322216 -12.003662109375 70.1635187884716Q-12.5703125 70.8886164447216 -12.65087890625 72.3549250384716Q-12.333984375 71.8876398822216 -11.85595703125 71.6378840228466Q-11.3779296875 71.3881281634716 -10.80322265625 71.3881281634716Q-9.5947265625 71.3881281634716 -8.893798828125 72.1212824603466Q-8.19287109375 72.8544367572216 -8.19287109375 74.1166437884716Q-8.19287109375 75.3519953509716 -8.92333984375 76.0985773822216Q-9.65380859375 76.8451594134716 -10.86767578125 76.8451594134716Q-12.2587890625 76.8451594134716 -12.99462890625 75.7789973040966Q-13.73046875 74.7128351947216 -13.73046875 72.6879328509716Q-13.73046875 70.7865656634716 -12.828125 69.6559504290966Q-11.92578125 68.5253351947216 -10.40576171875 68.5253351947216Q-9.99755859375 68.5253351947216 -9.581298828125 68.6059016009716Q-9.1650390625 68.6864680072216 -8.7138671875 68.8476008197216Z" fill="#000"/><line x1="0" x2="-3.5" y1="43.58" y2="43.58" stroke="#000000" stroke-width="0.8"/><path d="M-21.4970703125 40.28648087107263Q-22.3349609375 40.28648087107263 -22.756591796875 41.11094376169763Q-23.17822265625 41.93540665232263 -23.17822265625 43.58970352732263Q-23.17822265625 45.23862930857263 -22.756591796875 46.06309219919763Q-22.3349609375 46.88755508982263 -21.4970703125 46.88755508982263Q-20.65380859375 46.88755508982263 -20.232177734375 46.06309219919763Q-19.810546875 45.23862930857263 -19.810546875 43.58970352732263Q-19.810546875 41.93540665232263 -20.232177734375 41.11094376169763Q-20.65380859375 40.28648087107263 -21.4970703125 40.28648087107263ZM-21.4970703125 39.42710587107263Q-20.14892578125 39.42710587107263 -19.437255859375 40.49326798044763Q-18.7255859375 41.55943008982263 -18.7255859375 43.58970352732263Q-18.7255859375 45.61460587107263 -19.437255859375 46.68076798044763Q-20.14892578125 47.74693008982263 -21.4970703125 47.74693008982263Q-22.84521484375 47.74693008982263 -23.556884765625 46.68076798044763Q-24.2685546875 45.61460587107263 -24.2685546875 43.58970352732263Q-24.2685546875 41.55943008982263 -23.556884765625 40.49326798044763Q-22.84521484375 39.42710587107263 -21.4970703125 39.42710587107263ZM-16.81884765625 46.22691055857263H-15.685546875V47.59116837107263H-16.81884765625ZM-11.001953125 43.78306290232263Q-11.775390625 43.78306290232263 -12.218505859375 44.19663712107263Q-12.66162109375 44.61021133982263 -12.66162109375 45.33530899607263Q-12.66162109375 46.06040665232263 -12.218505859375 46.47398087107263Q-11.775390625 46.88755508982263 -11.001953125 46.88755508982263Q-10.228515625 46.88755508982263 -9.78271484375 46.47129532419763Q-9.3369140625 46.05503555857263 -9.3369140625 45.33530899607263Q-9.3369140625 44.61021133982263 -9.780029296875 44.19663712107263Q-10.22314453125 43.78306290232263 -11.001953125 43.78306290232263ZM-12.0869140625 43.32114883982263Q-12.78515625 43.14927383982263 -13.174560546875 42.67124649607263Q-13.56396484375 42.19321915232263 -13.56396484375 41.50571915232263Q-13.56396484375 40.54429337107263 -12.879150390625 39.98569962107263Q-12.1943359375 39.42710587107263 -11.001953125 39.42710587107263Q-9.80419921875 39.42710587107263 -9.1220703125 39.98569962107263Q-8.43994140625 40.54429337107263 -8.43994140625 41.50571915232263Q-8.43994140625 42.19321915232263 -8.829345703125 42.67124649607263Q-9.21875 43.14927383982263 -9.91162109375 43.32114883982263Q-9.12744140625 43.50376602732263 -8.689697265625 44.03550430857263Q-8.251953125 44.56724258982263 -8.251953125 45.33530899607263Q-8.251953125 46.50083633982263 -8.963623046875 47.12388321482263Q-9.67529296875 47.74693008982263 -11.001953125 47.74693008982263Q-12.32861328125 47.74693008982263 -13.040283203125 47.12388321482263Q-13.751953125 46.50083633982263 -13.751953125 45.33530899607263Q-13.751953125 44.56724258982263 -13.3115234375 44.03550430857263Q-12.87109375 43.50376602732263 -12.0869140625 43.32114883982263ZM-12.484375 41.60776993357263Q-12.484375 42.23081680857263 -12.094970703125 42.57993790232263Q-11.70556640625 42.92905899607263 -11.001953125 42.92905899607263Q-10.3037109375 42.92905899607263 -9.908935546875 42.57993790232263Q-9.51416015625 42.23081680857263 -9.51416015625 41.60776993357263Q-9.51416015625 40.98472305857263 -9.908935546875 40.63560196482263Q-10.3037109375 40.28648087107263 -11.001953125 40.28648087107263Q-11.70556640625 40.28648087107263 -12.094970703125 40.63560196482263Q-12.484375 40.98472305857263 -12.484375 41.60776993357263Z" fill="#000"/><line x1="0" x2="-3.5" y1="14.48" y2="14.48" stroke="#000000" stroke-width="0.8"/><path d="M-13.13427734375 17.57985310992359H-11.36181640625V11.46217732867359L-13.2900390625 11.84889607867359V10.86061482867359L-11.37255859375 10.47389607867359H-10.28759765625V17.57985310992359H-8.51513671875V18.49293904742359H-13.13427734375Z" fill="#000"/><path d="M106.4453125 -16.89990234375V-15.79541015625Q105.9501953125 -16.04931640625 105.4169921875 -16.17626953125Q104.8837890625 -16.30322265625 104.3125 -16.30322265625Q103.44287109375 -16.30322265625 103.008056640625 -16.03662109375Q102.5732421875 -15.77001953125 102.5732421875 -15.23681640625Q102.5732421875 -14.83056640625 102.88427734375 -14.598876953125Q103.1953125 -14.3671875 104.134765625 -14.15771484375L104.53466796875 -14.06884765625Q105.77880859375 -13.80224609375 106.302490234375 -13.316650390625Q106.826171875 -12.8310546875 106.826171875 -11.96142578125Q106.826171875 -10.97119140625 106.042236328125 -10.3935546875Q105.25830078125 -9.81591796875 103.88720703125 -9.81591796875Q103.31591796875 -9.81591796875 102.697021484375 -9.927001953125Q102.078125 -10.0380859375 101.392578125 -10.26025390625V-11.46630859375Q102.0400390625 -11.1298828125 102.66845703125 -10.961669921875Q103.296875 -10.79345703125 103.91259765625 -10.79345703125Q104.73779296875 -10.79345703125 105.18212890625 -11.075927734375Q105.62646484375 -11.3583984375 105.62646484375 -11.87255859375Q105.62646484375 -12.3486328125 105.305908203125 -12.6025390625Q104.9853515625 -12.8564453125 103.89990234375 -13.09130859375L103.49365234375 -13.1865234375Q102.408203125 -13.4150390625 101.92578125 -13.887939453125Q101.443359375 -14.36083984375 101.443359375 -15.18603515625Q101.443359375 -16.18896484375 102.154296875 -16.73486328125Q102.865234375 -17.28076171875 104.1728515625 -17.28076171875Q104.8203125 -17.28076171875 105.3916015625 -17.185546875Q105.962890625 -17.09033203125 106.4453125 -16.89990234375ZM108.68603515625 -17.109375H109.85400390625V-10.0H108.68603515625ZM108.68603515625 -19.876953125H109.85400390625V-18.39794921875H108.68603515625ZM118.20751953125 -14.291015625V-10.0H117.03955078125V-14.2529296875Q117.03955078125 -15.26220703125 116.64599609375 -15.763671875Q116.25244140625 -16.26513671875 115.46533203125 -16.26513671875Q114.51953125 -16.26513671875 113.9736328125 -15.662109375Q113.427734375 -15.05908203125 113.427734375 -14.01806640625V-10.0H112.25341796875V-17.109375H113.427734375V-16.0048828125Q113.8466796875 -16.64599609375 114.414794921875 -16.96337890625Q114.98291015625 -17.28076171875 115.7255859375 -17.28076171875Q116.95068359375 -17.28076171875 117.5791015625 -16.522216796875Q118.20751953125 -15.763671875 118.20751953125 -14.291015625Z" fill="#000"/></g><g transform="translate(293.00,27.00)" data-plotlet-kind="panel" data-plotlet-title="cos" data-plotlet-xscale="linear" data-plotlet-yscale="linear" data-plotlet-xlim="-0.315,6.615" data-plotlet-ylim="-1.09909190779,1.09995675751" data-plotlet-panel-bbox="260,0,260,369" data-plotlet-data-area="33,27,220,320"><svg x="0" y="0" width="220.0" height="320" overflow="hidden"><g class="plotlet-artist" data-plotlet-type="line" data-plotlet-index="0" data-plotlet-color="#1f77b4" data-plotlet-n="64" data-plotlet-x-min="0.0" data-plotlet-x-max="6.300000000000001" data-plotlet-y-min="-0.9991351502732795" data-plotlet-y-max="1.0"><path d="M10.00,14.55L13.17,15.27L16.35,17.45L19.52,21.04L22.70,26.03L25.87,32.36L29.05,39.96L32.22,48.77L35.40,58.68L38.57,69.61L41.75,81.44L44.92,94.06L48.10,107.33L51.27,121.14L54.44,135.33L57.62,149.77L60.79,164.31L63.97,178.81L67.14,193.12L70.32,207.11L73.49,220.62L76.67,233.53L79.84,245.70L83.02,257.02L86.19,267.37L89.37,276.64L92.54,284.76L95.71,291.62L98.89,297.17L102.06,301.35L105.24,304.12L108.41,305.45L111.59,305.33L114.76,303.76L117.94,300.75L121.11,296.33L124.29,290.56L127.46,283.48L130.63,275.16L133.81,265.70L136.98,255.18L140.16,243.71L143.33,231.40L146.51,218.39L149.68,204.79L152.86,190.74L156.03,176.38L159.21,161.87L162.38,147.33L165.56,132.92L168.73,118.79L171.90,105.06L175.08,91.89L178.25,79.39L181.43,67.70L184.60,56.94L187.78,47.20L190.95,38.60L194.13,31.20L197.30,25.10L200.48,20.34L203.65,16.98L206.83,15.05L210.00,14.57" fill="none" stroke="#1f77b4" stroke-width="1.5"/></g></svg><line x1="0" y1="0" x2="220.0" y2="0" stroke="#000000" stroke-width="0.8"/><line x1="0" y1="320" x2="220.0" y2="320" stroke="#000000" stroke-width="0.8"/><line x1="0" y1="0" x2="0" y2="320" stroke="#000000" stroke-width="0.8"/><line x1="220.0" y1="0" x2="220.0" y2="320" stroke="#000000" stroke-width="0.8"/><line x1="10.00" x2="10.00" y1="320" y2="323.5" stroke="#000000" stroke-width="0.8"/><path d="M9.997314453125 328.21435546875Q9.159423828125 328.21435546875 8.73779296875 329.038818359375Q8.316162109375 329.86328125 8.316162109375 331.517578125Q8.316162109375 333.16650390625 8.73779296875 333.990966796875Q9.159423828125 334.8154296875 9.997314453125 334.8154296875Q10.840576171875 334.8154296875 11.26220703125 333.990966796875Q11.683837890625 333.16650390625 11.683837890625 331.517578125Q11.683837890625 329.86328125 11.26220703125 329.038818359375Q10.840576171875 328.21435546875 9.997314453125 328.21435546875ZM9.997314453125 327.35498046875Q11.345458984375 327.35498046875 12.05712890625 328.421142578125Q12.768798828125 329.4873046875 12.768798828125 331.517578125Q12.768798828125 333.54248046875 12.05712890625 334.608642578125Q11.345458984375 335.6748046875 9.997314453125 335.6748046875Q8.649169921875 335.6748046875 7.9375 334.608642578125Q7.225830078125 333.54248046875 7.225830078125 331.517578125Q7.225830078125 329.4873046875 7.9375 328.421142578125Q8.649169921875 327.35498046875 9.997314453125 327.35498046875Z" fill="#000"/><line x1="73.49" x2="73.49" y1="320" y2="323.5" stroke="#000000" stroke-width="0.8"/><path d="M72.10363575768848 334.60595703125H75.89025685143848V335.51904296875H70.79845997643848V334.60595703125Q71.41613575768848 333.966796875 72.48229786706348 332.889892578125Q73.54845997643848 331.81298828125 73.82238575768848 331.50146484375Q74.34338185143848 330.916015625 74.55016896081348 330.510498046875Q74.75695607018848 330.10498046875 74.75695607018848 329.712890625Q74.75695607018848 329.07373046875 74.30846974206348 328.6708984375Q73.85998341393848 328.26806640625 73.14025685143848 328.26806640625Q72.63000294518848 328.26806640625 72.06335255456348 328.4453125Q71.49670216393848 328.62255859375 70.85217091393848 328.982421875V327.88671875Q71.50744435143848 327.62353515625 72.07678028893848 327.4892578125Q72.64611622643848 327.35498046875 73.11877247643848 327.35498046875Q74.36486622643848 327.35498046875 75.10607716393848 327.97802734375Q75.84728810143848 328.60107421875 75.84728810143848 329.64306640625Q75.84728810143848 330.13720703125 75.66198536706348 330.580322265625Q75.47668263268848 331.0234375 74.98791310143848 331.625Q74.85363575768848 331.78076171875 74.13390919518848 332.524658203125Q73.41418263268848 333.2685546875 72.10363575768848 334.60595703125Z" fill="#000"/><line x1="136.98" x2="136.98" y1="320" y2="323.5" stroke="#000000" stroke-width="0.8"/><path d="M137.64208596850196 328.4453125 134.90282815600196 332.72607421875H137.64208596850196ZM137.35741799975196 327.5H138.72167581225196V332.72607421875H139.86571878100196V333.62841796875H138.72167581225196V335.51904296875H137.64208596850196V333.62841796875H134.02196878100196V332.5810546875Z" fill="#000"/><line x1="200.48" x2="200.48" y1="320" y2="323.5" stroke="#000000" stroke-width="0.8"/><path d="M200.60778227306545 331.0771484375Q199.87731352306545 331.0771484375 199.45031156994045 331.57666015625Q199.02330961681545 332.076171875 199.02330961681545 332.9462890625Q199.02330961681545 333.81103515625 199.45031156994045 334.313232421875Q199.87731352306545 334.8154296875 200.60778227306545 334.8154296875Q201.33825102306545 334.8154296875 201.76525297619045 334.313232421875Q202.19225492931545 333.81103515625 202.19225492931545 332.9462890625Q202.19225492931545 332.076171875 201.76525297619045 331.57666015625Q201.33825102306545 331.0771484375 200.60778227306545 331.0771484375ZM202.76159086681545 327.67724609375V328.66552734375Q202.35338774181545 328.47216796875 201.93712797619045 328.3701171875Q201.52086821056545 328.26806640625 201.11266508556545 328.26806640625Q200.03844633556545 328.26806640625 199.47179594494045 328.9931640625Q198.90514555431545 329.71826171875 198.82457914806545 331.1845703125Q199.14147367931545 330.71728515625 199.61950102306545 330.467529296875Q200.09752836681545 330.2177734375 200.67223539806545 330.2177734375Q201.88073149181545 330.2177734375 202.58165922619045 330.950927734375Q203.28258696056545 331.68408203125 203.28258696056545 332.9462890625Q203.28258696056545 334.181640625 202.55211821056545 334.92822265625Q201.82164946056545 335.6748046875 200.60778227306545 335.6748046875Q199.21666899181545 335.6748046875 198.48082914806545 334.608642578125Q197.74498930431545 333.54248046875 197.74498930431545 331.517578125Q197.74498930431545 329.6162109375 198.64733305431545 328.485595703125Q199.54967680431545 327.35498046875 201.06969633556545 327.35498046875Q201.47789946056545 327.35498046875 201.89415922619045 327.435546875Q202.31041899181545 327.51611328125 202.76159086681545 327.67724609375Z" fill="#000"/><line x1="0" x2="-3.5" y1="305.58" y2="305.58" stroke="#000000" stroke-width="0.8"/><path d="M-17.9306640625 306.13630440254826H-15.03564453125V307.01716377754826H-17.9306640625ZM-13.13427734375 308.67683174629826H-11.36181640625V302.55915596504826L-13.2900390625 302.94587471504826V301.95759346504826L-11.37255859375 301.57087471504826H-10.28759765625V308.67683174629826H-8.51513671875V309.58991768379826H-13.13427734375Z" fill="#000"/><line x1="0" x2="-3.5" y1="276.48" y2="276.48" stroke="#000000" stroke-width="0.8"/><path d="M-28.42578125 277.03281023715135H-25.53076171875V277.91366961215135H-28.42578125ZM-21.4970703125 273.18173601840135Q-22.3349609375 273.18173601840135 -22.756591796875 274.00619890902635Q-23.17822265625 274.83066179965135 -23.17822265625 276.48495867465135Q-23.17822265625 278.13388445590135 -22.756591796875 278.95834734652635Q-22.3349609375 279.78281023715135 -21.4970703125 279.78281023715135Q-20.65380859375 279.78281023715135 -20.232177734375 278.95834734652635Q-19.810546875 278.13388445590135 -19.810546875 276.48495867465135Q-19.810546875 274.83066179965135 -20.232177734375 274.00619890902635Q-20.65380859375 273.18173601840135 -21.4970703125 273.18173601840135ZM-21.4970703125 272.32236101840135Q-20.14892578125 272.32236101840135 -19.437255859375 273.38852312777635Q-18.7255859375 274.45468523715135 -18.7255859375 276.48495867465135Q-18.7255859375 278.50986101840135 -19.437255859375 279.57602312777635Q-20.14892578125 280.64218523715135 -21.4970703125 280.64218523715135Q-22.84521484375 280.64218523715135 -23.556884765625 279.57602312777635Q-24.2685546875 278.50986101840135 -24.2685546875 276.48495867465135Q-24.2685546875 274.45468523715135 -23.556884765625 273.38852312777635Q-22.84521484375 272.32236101840135 -21.4970703125 272.32236101840135ZM-16.81884765625 279.12216570590135H-15.685546875V280.48642351840135H-16.81884765625ZM-11.001953125 276.67831804965135Q-11.775390625 276.67831804965135 -12.218505859375 277.09189226840135Q-12.66162109375 277.50546648715135 -12.66162109375 278.23056414340135Q-12.66162109375 278.95566179965135 -12.218505859375 279.36923601840135Q-11.775390625 279.78281023715135 -11.001953125 279.78281023715135Q-10.228515625 279.78281023715135 -9.78271484375 279.36655047152635Q-9.3369140625 278.95029070590135 -9.3369140625 278.23056414340135Q-9.3369140625 277.50546648715135 -9.780029296875 277.09189226840135Q-10.22314453125 276.67831804965135 -11.001953125 276.67831804965135ZM-12.0869140625 276.21640398715135Q-12.78515625 276.04452898715135 -13.174560546875 275.56650164340135Q-13.56396484375 275.08847429965135 -13.56396484375 274.40097429965135Q-13.56396484375 273.43954851840135 -12.879150390625 272.88095476840135Q-12.1943359375 272.32236101840135 -11.001953125 272.32236101840135Q-9.80419921875 272.32236101840135 -9.1220703125 272.88095476840135Q-8.43994140625 273.43954851840135 -8.43994140625 274.40097429965135Q-8.43994140625 275.08847429965135 -8.829345703125 275.56650164340135Q-9.21875 276.04452898715135 -9.91162109375 276.21640398715135Q-9.12744140625 276.39902117465135 -8.689697265625 276.93075945590135Q-8.251953125 277.46249773715135 -8.251953125 278.23056414340135Q-8.251953125 279.39609148715135 -8.963623046875 280.01913836215135Q-9.67529296875 280.64218523715135 -11.001953125 280.64218523715135Q-12.32861328125 280.64218523715135 -13.040283203125 280.01913836215135Q-13.751953125 279.39609148715135 -13.751953125 278.23056414340135Q-13.751953125 277.46249773715135 -13.3115234375 276.93075945590135Q-12.87109375 276.39902117465135 -12.0869140625 276.21640398715135ZM-12.484375 274.50302508090135Q-12.484375 275.12607195590135 -12.094970703125 275.47519304965135Q-11.70556640625 275.82431414340135 -11.001953125 275.82431414340135Q-10.3037109375 275.82431414340135 -9.908935546875 275.47519304965135Q-9.51416015625 275.12607195590135 -9.51416015625 274.50302508090135Q-9.51416015625 273.87997820590135 -9.908935546875 273.53085711215135Q-10.3037109375 273.18173601840135 -11.001953125 273.18173601840135Q-11.70556640625 273.18173601840135 -12.094970703125 273.53085711215135Q-12.484375 273.87997820590135 -12.484375 274.50302508090135Z" fill="#000"/><line x1="0" x2="-3.5" y1="247.37" y2="247.37" stroke="#000000" stroke-width="0.8"/><path d="M-28.42578125 247.9293160717545H-25.53076171875V248.8101754467545H-28.42578125ZM-21.4970703125 244.0782418530045Q-22.3349609375 244.0782418530045 -22.756591796875 244.9027047436295Q-23.17822265625 245.7271676342545 -23.17822265625 247.3814645092545Q-23.17822265625 249.0303902905045 -22.756591796875 249.8548531811295Q-22.3349609375 250.6793160717545 -21.4970703125 250.6793160717545Q-20.65380859375 250.6793160717545 -20.232177734375 249.8548531811295Q-19.810546875 249.0303902905045 -19.810546875 247.3814645092545Q-19.810546875 245.7271676342545 -20.232177734375 244.9027047436295Q-20.65380859375 244.0782418530045 -21.4970703125 244.0782418530045ZM-21.4970703125 243.2188668530045Q-20.14892578125 243.2188668530045 -19.437255859375 244.2850289623795Q-18.7255859375 245.3511910717545 -18.7255859375 247.3814645092545Q-18.7255859375 249.4063668530045 -19.437255859375 250.4725289623795Q-20.14892578125 251.5386910717545 -21.4970703125 251.5386910717545Q-22.84521484375 251.5386910717545 -23.556884765625 250.4725289623795Q-24.2685546875 249.4063668530045 -24.2685546875 247.3814645092545Q-24.2685546875 245.3511910717545 -23.556884765625 244.2850289623795Q-22.84521484375 243.2188668530045 -21.4970703125 243.2188668530045ZM-16.81884765625 250.0186715405045H-15.685546875V251.3829293530045H-16.81884765625ZM-10.86767578125 246.9410348217545Q-11.59814453125 246.9410348217545 -12.025146484375 247.4405465405045Q-12.4521484375 247.9400582592545 -12.4521484375 248.8101754467545Q-12.4521484375 249.6749215405045 -12.025146484375 250.1771188061295Q-11.59814453125 250.6793160717545 -10.86767578125 250.6793160717545Q-10.13720703125 250.6793160717545 -9.710205078125 250.1771188061295Q-9.283203125 249.6749215405045 -9.283203125 248.8101754467545Q-9.283203125 247.9400582592545 -9.710205078125 247.4405465405045Q-10.13720703125 246.9410348217545 -10.86767578125 246.9410348217545ZM-8.7138671875 243.5411324780045V244.5294137280045Q-9.1220703125 244.3360543530045 -9.538330078125 244.2340035717545Q-9.95458984375 244.1319527905045 -10.36279296875 244.1319527905045Q-11.43701171875 244.1319527905045 -12.003662109375 244.8570504467545Q-12.5703125 245.5821481030045 -12.65087890625 247.0484566967545Q-12.333984375 246.5811715405045 -11.85595703125 246.3314156811295Q-11.3779296875 246.0816598217545 -10.80322265625 246.0816598217545Q-9.5947265625 246.0816598217545 -8.893798828125 246.8148141186295Q-8.19287109375 247.5479684155045 -8.19287109375 248.8101754467545Q-8.19287109375 250.0455270092545 -8.92333984375 250.7921090405045Q-9.65380859375 251.5386910717545 -10.86767578125 251.5386910717545Q-12.2587890625 251.5386910717545 -12.99462890625 250.4725289623795Q-13.73046875 249.4063668530045 -13.73046875 247.3814645092545Q-13.73046875 245.4800973217545 -12.828125 244.3494820873795Q-11.92578125 243.2188668530045 -10.40576171875 243.2188668530045Q-9.99755859375 243.2188668530045 -9.581298828125 243.2994332592545Q-9.1650390625 243.3799996655045 -8.7138671875 243.5411324780045Z" fill="#000"/><line x1="0" x2="-3.5" y1="218.27" y2="218.27" stroke="#000000" stroke-width="0.8"/><path d="M-28.42578125 218.82582190635765H-25.53076171875V219.70668128135765H-28.42578125ZM-21.4970703125 214.97474768760765Q-22.3349609375 214.97474768760765 -22.756591796875 215.79921057823265Q-23.17822265625 216.62367346885765 -23.17822265625 218.27797034385765Q-23.17822265625 219.92689612510765 -22.756591796875 220.75135901573265Q-22.3349609375 221.57582190635765 -21.4970703125 221.57582190635765Q-20.65380859375 221.57582190635765 -20.232177734375 220.75135901573265Q-19.810546875 219.92689612510765 -19.810546875 218.27797034385765Q-19.810546875 216.62367346885765 -20.232177734375 215.79921057823265Q-20.65380859375 214.97474768760765 -21.4970703125 214.97474768760765ZM-21.4970703125 214.11537268760765Q-20.14892578125 214.11537268760765 -19.437255859375 215.18153479698265Q-18.7255859375 216.24769690635765 -18.7255859375 218.27797034385765Q-18.7255859375 220.30287268760765 -19.437255859375 221.36903479698265Q-20.14892578125 222.43519690635765 -21.4970703125 222.43519690635765Q-22.84521484375 222.43519690635765 -23.556884765625 221.36903479698265Q-24.2685546875 220.30287268760765 -24.2685546875 218.27797034385765Q-24.2685546875 216.24769690635765 -23.556884765625 215.18153479698265Q-22.84521484375 214.11537268760765 -21.4970703125 214.11537268760765ZM-16.81884765625 220.91517737510765H-15.685546875V222.27943518760765H-16.81884765625ZM-10.34130859375 215.20570471885765 -13.08056640625 219.48646643760765H-10.34130859375ZM-10.6259765625 214.26039221885765H-9.26171875V219.48646643760765H-8.11767578125V220.38881018760765H-9.26171875V222.27943518760765H-10.34130859375V220.38881018760765H-13.96142578125V219.34144690635765Z" fill="#000"/><line x1="0" x2="-3.5" y1="189.17" y2="189.17" stroke="#000000" stroke-width="0.8"/><path d="M-28.42578125 189.72232774096074H-25.53076171875V190.60318711596074H-28.42578125ZM-21.4970703125 185.87125352221074Q-22.3349609375 185.87125352221074 -22.756591796875 186.69571641283574Q-23.17822265625 187.52017930346074 -23.17822265625 189.17447617846074Q-23.17822265625 190.82340195971074 -22.756591796875 191.64786485033574Q-22.3349609375 192.47232774096074 -21.4970703125 192.47232774096074Q-20.65380859375 192.47232774096074 -20.232177734375 191.64786485033574Q-19.810546875 190.82340195971074 -19.810546875 189.17447617846074Q-19.810546875 187.52017930346074 -20.232177734375 186.69571641283574Q-20.65380859375 185.87125352221074 -21.4970703125 185.87125352221074ZM-21.4970703125 185.01187852221074Q-20.14892578125 185.01187852221074 -19.437255859375 186.07804063158574Q-18.7255859375 187.14420274096074 -18.7255859375 189.17447617846074Q-18.7255859375 191.19937852221074 -19.437255859375 192.26554063158574Q-20.14892578125 193.33170274096074 -21.4970703125 193.33170274096074Q-22.84521484375 193.33170274096074 -23.556884765625 192.26554063158574Q-24.2685546875 191.19937852221074 -24.2685546875 189.17447617846074Q-24.2685546875 187.14420274096074 -23.556884765625 186.07804063158574Q-22.84521484375 185.01187852221074 -21.4970703125 185.01187852221074ZM-16.81884765625 191.81168320971074H-15.685546875V193.17594102221074H-16.81884765625ZM-12.3876953125 192.26285508471074H-8.60107421875V193.17594102221074H-13.69287109375V192.26285508471074Q-13.0751953125 191.62369492846074 -12.009033203125 190.54679063158574Q-10.94287109375 189.46988633471074 -10.6689453125 189.15836289721074Q-10.14794921875 188.57291367846074 -9.941162109375 188.16739610033574Q-9.734375 187.76187852221074 -9.734375 187.36978867846074Q-9.734375 186.73062852221074 -10.182861328125 186.32779649096074Q-10.63134765625 185.92496445971074 -11.35107421875 185.92496445971074Q-11.861328125 185.92496445971074 -12.427978515625 186.10221055346074Q-12.99462890625 186.27945664721074 -13.63916015625 186.63931992846074V185.54361680346074Q-12.98388671875 185.28043320971074 -12.41455078125 185.14615586596074Q-11.84521484375 185.01187852221074 -11.37255859375 185.01187852221074Q-10.12646484375 185.01187852221074 -9.38525390625 185.63492539721074Q-8.64404296875 186.25797227221074 -8.64404296875 187.29996445971074Q-8.64404296875 187.79410508471074 -8.829345703125 188.23722031908574Q-9.0146484375 188.68033555346074 -9.50341796875 189.28189805346074Q-9.6376953125 189.43765977221074 -10.357421875 190.18155625658574Q-11.0771484375 190.92545274096074 -12.3876953125 192.26285508471074Z" fill="#000"/><line x1="0" x2="-3.5" y1="160.06" y2="160.06" stroke="#000000" stroke-width="0.8"/><path d="M-11.001953125 156.76775935681388Q-11.83984375 156.76775935681388 -12.261474609375 157.59222224743888Q-12.68310546875 158.41668513806388 -12.68310546875 160.07098201306388Q-12.68310546875 161.71990779431388 -12.261474609375 162.54437068493888Q-11.83984375 163.36883357556388 -11.001953125 163.36883357556388Q-10.15869140625 163.36883357556388 -9.737060546875 162.54437068493888Q-9.3154296875 161.71990779431388 -9.3154296875 160.07098201306388Q-9.3154296875 158.41668513806388 -9.737060546875 157.59222224743888Q-10.15869140625 156.76775935681388 -11.001953125 156.76775935681388ZM-11.001953125 155.90838435681388Q-9.65380859375 155.90838435681388 -8.942138671875 156.97454646618888Q-8.23046875 158.04070857556388 -8.23046875 160.07098201306388Q-8.23046875 162.09588435681388 -8.942138671875 163.16204646618888Q-9.65380859375 164.22820857556388 -11.001953125 164.22820857556388Q-12.35009765625 164.22820857556388 -13.061767578125 163.16204646618888Q-13.7734375 162.09588435681388 -13.7734375 160.07098201306388Q-13.7734375 158.04070857556388 -13.061767578125 156.97454646618888Q-12.35009765625 155.90838435681388 -11.001953125 155.90838435681388Z" fill="#000"/><line x1="0" x2="-3.5" y1="130.96" y2="130.96" stroke="#000000" stroke-width="0.8"/><path d="M-21.4970703125 127.66426519141703Q-22.3349609375 127.66426519141703 -22.756591796875 128.48872808204203Q-23.17822265625 129.31319097266703 -23.17822265625 130.96748784766703Q-23.17822265625 132.61641362891703 -22.756591796875 133.44087651954203Q-22.3349609375 134.26533941016703 -21.4970703125 134.26533941016703Q-20.65380859375 134.26533941016703 -20.232177734375 133.44087651954203Q-19.810546875 132.61641362891703 -19.810546875 130.96748784766703Q-19.810546875 129.31319097266703 -20.232177734375 128.48872808204203Q-20.65380859375 127.66426519141703 -21.4970703125 127.66426519141703ZM-21.4970703125 126.80489019141703Q-20.14892578125 126.80489019141703 -19.437255859375 127.87105230079203Q-18.7255859375 128.93721441016703 -18.7255859375 130.96748784766703Q-18.7255859375 132.99239019141703 -19.437255859375 134.05855230079203Q-20.14892578125 135.12471441016703 -21.4970703125 135.12471441016703Q-22.84521484375 135.12471441016703 -23.556884765625 134.05855230079203Q-24.2685546875 132.99239019141703 -24.2685546875 130.96748784766703Q-24.2685546875 128.93721441016703 -23.556884765625 127.87105230079203Q-22.84521484375 126.80489019141703 -21.4970703125 126.80489019141703ZM-16.81884765625 133.60469487891703H-15.685546875V134.96895269141703H-16.81884765625ZM-12.3876953125 134.05586675391703H-8.60107421875V134.96895269141703H-13.69287109375V134.05586675391703Q-13.0751953125 133.41670659766703 -12.009033203125 132.33980230079203Q-10.94287109375 131.26289800391703 -10.6689453125 130.95137456641703Q-10.14794921875 130.36592534766703 -9.941162109375 129.96040776954203Q-9.734375 129.55489019141703 -9.734375 129.16280034766703Q-9.734375 128.52364019141703 -10.182861328125 128.12080816016703Q-10.63134765625 127.71797612891703 -11.35107421875 127.71797612891703Q-11.861328125 127.71797612891703 -12.427978515625 127.89522222266703Q-12.99462890625 128.07246831641703 -13.63916015625 128.43233159766703V127.33662847266703Q-12.98388671875 127.07344487891703 -12.41455078125 126.93916753516703Q-11.84521484375 126.80489019141703 -11.37255859375 126.80489019141703Q-10.12646484375 126.80489019141703 -9.38525390625 127.42793706641703Q-8.64404296875 128.05098394141703 -8.64404296875 129.09297612891703Q-8.64404296875 129.58711675391703 -8.829345703125 130.03023198829203Q-9.0146484375 130.47334722266703 -9.50341796875 131.07490972266703Q-9.6376953125 131.23067144141703 -10.357421875 131.97456792579203Q-11.0771484375 132.71846441016703 -12.3876953125 134.05586675391703Z" fill="#000"/><line x1="0" x2="-3.5" y1="101.86" y2="101.86" stroke="#000000" stroke-width="0.8"/><path d="M-21.4970703125 98.56077102602018Q-22.3349609375 98.56077102602018 -22.756591796875 99.38523391664518Q-23.17822265625 100.20969680727018 -23.17822265625 101.86399368227018Q-23.17822265625 103.51291946352018 -22.756591796875 104.33738235414518Q-22.3349609375 105.16184524477018 -21.4970703125 105.16184524477018Q-20.65380859375 105.16184524477018 -20.232177734375 104.33738235414518Q-19.810546875 103.51291946352018 -19.810546875 101.86399368227018Q-19.810546875 100.20969680727018 -20.232177734375 99.38523391664518Q-20.65380859375 98.56077102602018 -21.4970703125 98.56077102602018ZM-21.4970703125 97.70139602602018Q-20.14892578125 97.70139602602018 -19.437255859375 98.76755813539518Q-18.7255859375 99.83372024477018 -18.7255859375 101.86399368227018Q-18.7255859375 103.88889602602018 -19.437255859375 104.95505813539518Q-20.14892578125 106.02122024477018 -21.4970703125 106.02122024477018Q-22.84521484375 106.02122024477018 -23.556884765625 104.95505813539518Q-24.2685546875 103.88889602602018 -24.2685546875 101.86399368227018Q-24.2685546875 99.83372024477018 -23.556884765625 98.76755813539518Q-22.84521484375 97.70139602602018 -21.4970703125 97.70139602602018ZM-16.81884765625 104.50120071352018H-15.685546875V105.86545852602018H-16.81884765625ZM-10.34130859375 98.79172805727018 -13.08056640625 103.07248977602018H-10.34130859375ZM-10.6259765625 97.84641555727018H-9.26171875V103.07248977602018H-8.11767578125V103.97483352602018H-9.26171875V105.86545852602018H-10.34130859375V103.97483352602018H-13.96142578125V102.92747024477018Z" fill="#000"/><line x1="0" x2="-3.5" y1="72.75" y2="72.75" stroke="#000000" stroke-width="0.8"/><path d="M-21.4970703125 69.45727686062327Q-22.3349609375 69.45727686062327 -22.756591796875 70.28173975124827Q-23.17822265625 71.10620264187327 -23.17822265625 72.76049951687327Q-23.17822265625 74.40942529812327 -22.756591796875 75.23388818874827Q-22.3349609375 76.05835107937327 -21.4970703125 76.05835107937327Q-20.65380859375 76.05835107937327 -20.232177734375 75.23388818874827Q-19.810546875 74.40942529812327 -19.810546875 72.76049951687327Q-19.810546875 71.10620264187327 -20.232177734375 70.28173975124827Q-20.65380859375 69.45727686062327 -21.4970703125 69.45727686062327ZM-21.4970703125 68.59790186062327Q-20.14892578125 68.59790186062327 -19.437255859375 69.66406396999827Q-18.7255859375 70.73022607937327 -18.7255859375 72.76049951687327Q-18.7255859375 74.78540186062327 -19.437255859375 75.85156396999827Q-20.14892578125 76.91772607937327 -21.4970703125 76.91772607937327Q-22.84521484375 76.91772607937327 -23.556884765625 75.85156396999827Q-24.2685546875 74.78540186062327 -24.2685546875 72.76049951687327Q-24.2685546875 70.73022607937327 -23.556884765625 69.66406396999827Q-22.84521484375 68.59790186062327 -21.4970703125 68.59790186062327ZM-16.81884765625 75.39770654812327H-15.685546875V76.76196436062327H-16.81884765625ZM-10.86767578125 72.32006982937327Q-11.59814453125 72.32006982937327 -12.025146484375 72.81958154812327Q-12.4521484375 73.31909326687327 -12.4521484375 74.18921045437327Q-12.4521484375 75.05395654812327 -12.025146484375 75.55615381374827Q-11.59814453125 76.05835107937327 -10.86767578125 76.05835107937327Q-10.13720703125 76.05835107937327 -9.710205078125 75.55615381374827Q-9.283203125 75.05395654812327 -9.283203125 74.18921045437327Q-9.283203125 73.31909326687327 -9.710205078125 72.81958154812327Q-10.13720703125 72.32006982937327 -10.86767578125 72.32006982937327ZM-8.7138671875 68.92016748562327V69.90844873562327Q-9.1220703125 69.71508936062327 -9.538330078125 69.61303857937327Q-9.95458984375 69.51098779812327 -10.36279296875 69.51098779812327Q-11.43701171875 69.51098779812327 -12.003662109375 70.23608545437327Q-12.5703125 70.96118311062327 -12.65087890625 72.42749170437327Q-12.333984375 71.96020654812327 -11.85595703125 71.71045068874827Q-11.3779296875 71.46069482937327 -10.80322265625 71.46069482937327Q-9.5947265625 71.46069482937327 -8.893798828125 72.19384912624827Q-8.19287109375 72.92700342312327 -8.19287109375 74.18921045437327Q-8.19287109375 75.42456201687327 -8.92333984375 76.17114404812327Q-9.65380859375 76.91772607937327 -10.86767578125 76.91772607937327Q-12.2587890625 76.91772607937327 -12.99462890625 75.85156396999827Q-13.73046875 74.78540186062327 -13.73046875 72.76049951687327Q-13.73046875 70.85913232937327 -12.828125 69.72851709499827Q-11.92578125 68.59790186062327 -10.40576171875 68.59790186062327Q-9.99755859375 68.59790186062327 -9.581298828125 68.67846826687327Q-9.1650390625 68.75903467312327 -8.7138671875 68.92016748562327Z" fill="#000"/><line x1="0" x2="-3.5" y1="43.65" y2="43.65" stroke="#000000" stroke-width="0.8"/><path d="M-21.4970703125 40.353782695226414Q-22.3349609375 40.353782695226414 -22.756591796875 41.178245585851414Q-23.17822265625 42.002708476476414 -23.17822265625 43.657005351476414Q-23.17822265625 45.305931132726414 -22.756591796875 46.130394023351414Q-22.3349609375 46.954856913976414 -21.4970703125 46.954856913976414Q-20.65380859375 46.954856913976414 -20.232177734375 46.130394023351414Q-19.810546875 45.305931132726414 -19.810546875 43.657005351476414Q-19.810546875 42.002708476476414 -20.232177734375 41.178245585851414Q-20.65380859375 40.353782695226414 -21.4970703125 40.353782695226414ZM-21.4970703125 39.494407695226414Q-20.14892578125 39.494407695226414 -19.437255859375 40.560569804601414Q-18.7255859375 41.626731913976414 -18.7255859375 43.657005351476414Q-18.7255859375 45.681907695226414 -19.437255859375 46.748069804601414Q-20.14892578125 47.814231913976414 -21.4970703125 47.814231913976414Q-22.84521484375 47.814231913976414 -23.556884765625 46.748069804601414Q-24.2685546875 45.681907695226414 -24.2685546875 43.657005351476414Q-24.2685546875 41.626731913976414 -23.556884765625 40.560569804601414Q-22.84521484375 39.494407695226414 -21.4970703125 39.494407695226414ZM-16.81884765625 46.294212382726414H-15.685546875V47.658470195226414H-16.81884765625ZM-11.001953125 43.850364726476414Q-11.775390625 43.850364726476414 -12.218505859375 44.263938945226414Q-12.66162109375 44.677513163976414 -12.66162109375 45.402610820226414Q-12.66162109375 46.127708476476414 -12.218505859375 46.541282695226414Q-11.775390625 46.954856913976414 -11.001953125 46.954856913976414Q-10.228515625 46.954856913976414 -9.78271484375 46.538597148351414Q-9.3369140625 46.122337382726414 -9.3369140625 45.402610820226414Q-9.3369140625 44.677513163976414 -9.780029296875 44.263938945226414Q-10.22314453125 43.850364726476414 -11.001953125 43.850364726476414ZM-12.0869140625 43.388450663976414Q-12.78515625 43.216575663976414 -13.174560546875 42.738548320226414Q-13.56396484375 42.260520976476414 -13.56396484375 41.573020976476414Q-13.56396484375 40.611595195226414 -12.879150390625 40.053001445226414Q-12.1943359375 39.494407695226414 -11.001953125 39.494407695226414Q-9.80419921875 39.494407695226414 -9.1220703125 40.053001445226414Q-8.43994140625 40.611595195226414 -8.43994140625 41.573020976476414Q-8.43994140625 42.260520976476414 -8.829345703125 42.738548320226414Q-9.21875 43.216575663976414 -9.91162109375 43.388450663976414Q-9.12744140625 43.571067851476414 -8.689697265625 44.102806132726414Q-8.251953125 44.634544413976414 -8.251953125 45.402610820226414Q-8.251953125 46.568138163976414 -8.963623046875 47.191185038976414Q-9.67529296875 47.814231913976414 -11.001953125 47.814231913976414Q-12.32861328125 47.814231913976414 -13.040283203125 47.191185038976414Q-13.751953125 46.568138163976414 -13.751953125 45.402610820226414Q-13.751953125 44.634544413976414 -13.3115234375 44.102806132726414Q-12.87109375 43.571067851476414 -12.0869140625 43.388450663976414ZM-12.484375 41.675071757726414Q-12.484375 42.298118632726414 -12.094970703125 42.647239726476414Q-11.70556640625 42.996360820226414 -11.001953125 42.996360820226414Q-10.3037109375 42.996360820226414 -9.908935546875 42.647239726476414Q-9.51416015625 42.298118632726414 -9.51416015625 41.675071757726414Q-9.51416015625 41.052024882726414 -9.908935546875 40.702903788976414Q-10.3037109375 40.353782695226414 -11.001953125 40.353782695226414Q-11.70556640625 40.353782695226414 -12.094970703125 40.702903788976414Q-12.484375 41.052024882726414 -12.484375 41.675071757726414Z" fill="#000"/><line x1="0" x2="-3.5" y1="14.55" y2="14.55" stroke="#000000" stroke-width="0.8"/><path d="M-13.13427734375 17.641890092329504H-11.36181640625V11.524214311079504L-13.2900390625 11.910933061079504V10.922651811079504L-11.37255859375 10.535933061079504H-10.28759765625V17.641890092329504H-8.51513671875V18.554976029829504H-13.13427734375Z" fill="#000"/><path d="M105.404296875 -16.83642578125V-15.74462890625Q104.9091796875 -16.017578125 104.410888671875 -16.154052734375Q103.91259765625 -16.29052734375 103.40478515625 -16.29052734375Q102.2685546875 -16.29052734375 101.64013671875 -15.570068359375Q101.01171875 -14.849609375 101.01171875 -13.54833984375Q101.01171875 -12.2470703125 101.64013671875 -11.526611328125Q102.2685546875 -10.80615234375 103.40478515625 -10.80615234375Q103.91259765625 -10.80615234375 104.410888671875 -10.942626953125Q104.9091796875 -11.0791015625 105.404296875 -11.35205078125V-10.27294921875Q104.91552734375 -10.04443359375 104.391845703125 -9.93017578125Q103.8681640625 -9.81591796875 103.27783203125 -9.81591796875Q101.671875 -9.81591796875 100.72607421875 -10.8251953125Q99.7802734375 -11.83447265625 99.7802734375 -13.54833984375Q99.7802734375 -15.28759765625 100.735595703125 -16.2841796875Q101.69091796875 -17.28076171875 103.35400390625 -17.28076171875Q103.8935546875 -17.28076171875 104.40771484375 -17.169677734375Q104.921875 -17.05859375 105.404296875 -16.83642578125ZM110.1904296875 -16.29052734375Q109.2509765625 -16.29052734375 108.705078125 -15.557373046875Q108.1591796875 -14.82421875 108.1591796875 -13.54833984375Q108.1591796875 -12.2724609375 108.701904296875 -11.539306640625Q109.24462890625 -10.80615234375 110.1904296875 -10.80615234375Q111.12353515625 -10.80615234375 111.66943359375 -11.54248046875Q112.21533203125 -12.27880859375 112.21533203125 -13.54833984375Q112.21533203125 -14.8115234375 111.66943359375 -15.551025390625Q111.12353515625 -16.29052734375 110.1904296875 -16.29052734375ZM110.1904296875 -17.28076171875Q111.7138671875 -17.28076171875 112.58349609375 -16.29052734375Q113.453125 -15.30029296875 113.453125 -13.54833984375Q113.453125 -11.802734375 112.58349609375 -10.809326171875Q111.7138671875 -9.81591796875 110.1904296875 -9.81591796875Q108.66064453125 -9.81591796875 107.794189453125 -10.809326171875Q106.927734375 -11.802734375 106.927734375 -13.54833984375Q106.927734375 -15.30029296875 107.794189453125 -16.29052734375Q108.66064453125 -17.28076171875 110.1904296875 -17.28076171875ZM119.92138671875 -16.89990234375V-15.79541015625Q119.42626953125 -16.04931640625 118.89306640625 -16.17626953125Q118.35986328125 -16.30322265625 117.78857421875 -16.30322265625Q116.9189453125 -16.30322265625 116.484130859375 -16.03662109375Q116.04931640625 -15.77001953125 116.04931640625 -15.23681640625Q116.04931640625 -14.83056640625 116.3603515625 -14.598876953125Q116.67138671875 -14.3671875 117.61083984375 -14.15771484375L118.0107421875 -14.06884765625Q119.2548828125 -13.80224609375 119.778564453125 -13.316650390625Q120.30224609375 -12.8310546875 120.30224609375 -11.96142578125Q120.30224609375 -10.97119140625 119.518310546875 -10.3935546875Q118.734375 -9.81591796875 117.36328125 -9.81591796875Q116.7919921875 -9.81591796875 116.173095703125 -9.927001953125Q115.55419921875 -10.0380859375 114.86865234375 -10.26025390625V-11.46630859375Q115.51611328125 -11.1298828125 116.14453125 -10.961669921875Q116.77294921875 -10.79345703125 117.388671875 -10.79345703125Q118.2138671875 -10.79345703125 118.658203125 -11.075927734375Q119.1025390625 -11.3583984375 119.1025390625 -11.87255859375Q119.1025390625 -12.3486328125 118.781982421875 -12.6025390625Q118.46142578125 -12.8564453125 117.3759765625 -13.09130859375L116.9697265625 -13.1865234375Q115.88427734375 -13.4150390625 115.40185546875 -13.887939453125Q114.91943359375 -14.36083984375 114.91943359375 -15.18603515625Q114.91943359375 -16.18896484375 115.63037109375 -16.73486328125Q116.34130859375 -17.28076171875 117.64892578125 -17.28076171875Q118.29638671875 -17.28076171875 118.86767578125 -17.185546875Q119.43896484375 -17.09033203125 119.92138671875 -16.89990234375Z" fill="#000"/></g></svg>