<svg xmlns="http://www.w3.org/2000/svg" width="367" height="285" viewBox="0 0 367 285" font-family="DejaVu Sans, Bitstream Vera Sans, Verdana, Arial, sans-serif" font-size="11" style="background:#fff" data-plotlet-version="0.5.1" data-plotlet-schema="2" data-plotlet-kind="layout"><g transform="translate(4,4)"><g transform="translate(18.00,29.00)" data-plotlet-kind="panel" data-plotlet-title="r1-c1" data-plotlet-xscale="linear" data-plotlet-yscale="linear" data-plotlet-xlim="-0.2,4.2" data-plotlet-ylim="-0.15,3.15" data-plotlet-panel-bbox="4,4,178,99" data-plotlet-data-area="18,29,160,70"><svg x="0" y="0" width="160.0" height="70.0" overflow="hidden"><g class="plotlet-artist" data-plotlet-type="line" data-plotlet-index="0" data-plotlet-color="#1f77b4" data-plotlet-n="5" data-plotlet-x-min="0" data-plotlet-x-max="4" data-plotlet-y-min="0" data-plotlet-y-max="2"><path d="M7.27,66.82L43.64,45.61L80.00,24.39L116.36,45.61L152.73,66.82" fill="none" stroke="#1f77b4" stroke-width="2.00"/></g></svg><line x1="0.00" x2="160.00" y1="0.00" y2="0.00" stroke="#000000" stroke-width="1.00"/><line x1="0.00" x2="160.00" y1="70.00" y2="70.00" stroke="#000000" stroke-width="1.00"/><line x1="0.00" x2="0.00" y1="0.00" y2="70.00" stroke="#000000" stroke-width="1.00"/><line x1="160.00" x2="160.00" y1="0.00" y2="70.00" stroke="#000000" stroke-width="1.00"/><line x1="0.00" x2="-4.50" y1="66.82" y2="66.82" stroke="#000000" stroke-width="1.00"/><path d="M-13.64 62.92Q-14.63 62.92 -15.13 63.90Q-15.63 64.87 -15.63 66.83Q-15.63 68.78 -15.13 69.75Q-14.63 70.73 -13.64 70.73Q-12.64 70.73 -12.14 69.75Q-11.65 68.78 -11.65 66.83Q-11.65 64.87 -12.14 63.90Q-12.64 62.92 -13.64 62.92ZM-13.64 61.91Q-12.05 61.91 -11.20 63.17Q-10.36 64.43 -10.36 66.83Q-10.36 69.22 -11.20 70.48Q-12.05 71.74 -13.64 71.74Q-15.23 71.74 -16.07 70.48Q-16.91 69.22 -16.91 66.83Q-16.91 64.43 -16.07 63.17Q-15.23 61.91 -13.64 61.91Z" fill="#000"/><line x1="0.00" x2="-4.50" y1="24.39" y2="24.39" stroke="#000000" stroke-width="1.00"/><path d="M-15.28 28.05H-10.80V29.13H-16.82V28.05Q-16.09 27.30 -14.83 26.03Q-13.57 24.75 -13.25 24.38Q-12.63 23.69 -12.39 23.21Q-12.14 22.73 -12.14 22.27Q-12.14 21.52 -12.67 21.04Q-13.20 20.56 -14.05 20.56Q-14.65 20.56 -15.32 20.77Q-15.99 20.98 -16.76 21.41V20.11Q-15.98 19.80 -15.31 19.64Q-14.64 19.48 -14.08 19.48Q-12.60 19.48 -11.73 20.22Q-10.85 20.96 -10.85 22.19Q-10.85 22.77 -11.07 23.30Q-11.29 23.82 -11.87 24.53Q-12.03 24.71 -12.88 25.59Q-13.73 26.47 -15.28 28.05Z" fill="#000"/><path d="M65.82 -24.18Q65.58 -24.32 65.30 -24.39Q65.01 -24.45 64.67 -24.45Q63.45 -24.45 62.80 -23.66Q62.14 -22.87 62.14 -21.38V-16.77H60.70V-25.52H62.14V-24.16Q62.60 -24.96 63.32 -25.35Q64.05 -25.73 65.09 -25.73Q65.24 -25.73 65.42 -25.71Q65.60 -25.70 65.82 -25.66ZM67.81 -18.10H70.39V-27.00L67.58 -26.44V-27.88L70.37 -28.44H71.95V-18.10H74.53V-16.77H67.81ZM76.79 -21.80H81.00V-20.52H76.79ZM89.58 -25.19V-23.84Q88.97 -24.18 88.36 -24.35Q87.75 -24.52 87.12 -24.52Q85.72 -24.52 84.95 -23.63Q84.18 -22.74 84.18 -21.14Q84.18 -19.54 84.95 -18.65Q85.72 -17.77 87.12 -17.77Q87.75 -17.77 88.36 -17.93Q88.97 -18.10 89.58 -18.44V-17.11Q88.98 -16.83 88.34 -16.69Q87.69 -16.55 86.96 -16.55Q84.99 -16.55 83.82 -17.79Q82.66 -19.03 82.66 -21.14Q82.66 -23.28 83.84 -24.51Q85.01 -25.73 87.06 -25.73Q87.72 -25.73 88.36 -25.60Q88.99 -25.46 89.58 -25.19ZM92.56 -18.10H95.14V-27.00L92.33 -26.44V-27.88L95.12 -28.44H96.70V-18.10H99.28V-16.77H92.56Z" fill="#000"/></g><g transform="translate(178.00,29.00)" data-plotlet-kind="panel" data-plotlet-title="r1-c2" data-plotlet-xscale="linear" data-plotlet-yscale="linear" data-plotlet-xlim="-0.15,3.15" data-plotlet-ylim="-0.15,3.15" data-plotlet-panel-bbox="182,4,110,99" data-plotlet-data-area="0,29,110,70"><svg x="0" y="0" width="110.0" height="70.0" overflow="hidden"><g class="plotlet-artist" data-plotlet-type="line" data-plotlet-index="0" data-plotlet-color="#1f77b4" data-plotlet-n="4" data-plotlet-x-min="0" data-plotlet-x-max="3" data-plotlet-y-min="1" data-plotlet-y-max="3"><path d="M5.00,24.39L38.33,45.61L71.67,3.18L105.00,45.61" fill="none" stroke="#1f77b4" stroke-width="2.00"/></g></svg><line x1="0.00" x2="110.00" y1="0.00" y2="0.00" stroke="#000000" stroke-width="1.00"/><line x1="0.00" x2="110.00" y1="70.00" y2="70.00" stroke="#000000" stroke-width="1.00"/><line x1="0.00" x2="0.00" y1="0.00" y2="70.00" stroke="#000000" stroke-width="1.00"/><line x1="110.00" x2="110.00" y1="0.00" y2="70.00" stroke="#000000" stroke-width="1.00"/><path d="M40.82 -24.18Q40.58 -24.32 40.30 -24.39Q40.01 -24.45 39.67 -24.45Q38.45 -24.45 37.80 -23.66Q37.14 -22.87 37.14 -21.38V-16.77H35.70V-25.52H37.14V-24.16Q37.60 -24.96 38.32 -25.35Q39.05 -25.73 40.09 -25.73Q40.24 -25.73 40.42 -25.71Q40.60 -25.70 40.82 -25.66ZM42.81 -18.10H45.39V-27.00L42.58 -26.44V-27.88L45.37 -28.44H46.95V-18.10H49.53V-16.77H42.81ZM51.79 -21.80H56.00V-20.52H51.79ZM64.58 -25.19V-23.84Q63.97 -24.18 63.36 -24.35Q62.75 -24.52 62.12 -24.52Q60.72 -24.52 59.95 -23.63Q59.18 -22.74 59.18 -21.14Q59.18 -19.54 59.95 -18.65Q60.72 -17.77 62.12 -17.77Q62.75 -17.77 63.36 -17.93Q63.97 -18.10 64.58 -18.44V-17.11Q63.98 -16.83 63.34 -16.69Q62.69 -16.55 61.96 -16.55Q59.99 -16.55 58.82 -17.79Q57.66 -19.03 57.66 -21.14Q57.66 -23.28 58.84 -24.51Q60.01 -25.73 62.06 -25.73Q62.72 -25.73 63.36 -25.60Q63.99 -25.46 64.58 -25.19ZM68.64 -18.10H74.15V-16.77H66.75V-18.10Q67.64 -19.03 69.20 -20.60Q70.75 -22.16 71.14 -22.62Q71.90 -23.47 72.20 -24.06Q72.50 -24.65 72.50 -25.22Q72.50 -26.15 71.85 -26.73Q71.20 -27.32 70.15 -27.32Q69.41 -27.32 68.59 -27.06Q67.76 -26.80 66.82 -26.28V-27.88Q67.78 -28.26 68.61 -28.45Q69.43 -28.65 70.12 -28.65Q71.93 -28.65 73.01 -27.74Q74.09 -26.84 74.09 -25.32Q74.09 -24.60 73.82 -23.96Q73.55 -23.31 72.84 -22.44Q72.64 -22.21 71.60 -21.13Q70.55 -20.05 68.64 -18.10Z" fill="#000"/></g><g transform="translate(288.00,29.00)" data-plotlet-kind="panel" data-plotlet-title="r1-c3" data-plotlet-xscale="linear" data-plotlet-yscale="linear" data-plotlet-xlim="-0.1,2.1" data-plotlet-ylim="-0.15,3.15" data-plotlet-panel-bbox="292,4,71,99" data-plotlet-data-area="0,29,70,70"><svg x="0" y="0" width="70.0" height="70.0" overflow="hidden"><g class="plotlet-artist" data-plotlet-type="line" data-plotlet-index="0" data-plotlet-color="#1f77b4" data-plotlet-n="3" data-plotlet-x-min="0" data-plotlet-x-max="2" data-plotlet-y-min="1" data-plotlet-y-max="2"><path d="M3.18,45.61L35.00,24.39L66.82,45.61" fill="none" stroke="#1f77b4" stroke-width="2.00"/></g></svg><line x1="0.00" x2="70.00" y1="0.00" y2="0.00" stroke="#000000" stroke-width="1.00"/><line x1="0.00" x2="70.00" y1="70.00" y2="70.00" stroke="#000000" stroke-width="1.00"/><line x1="0.00" x2="0.00" y1="0.00" y2="70.00" stroke="#000000" stroke-width="1.00"/><line x1="70.00" x2="70.00" y1="0.00" y2="70.00" stroke="#000000" stroke-width="1.00"/><path d="M20.82 -24.18Q20.58 -24.32 20.30 -24.39Q20.01 -24.45 19.67 -24.45Q18.45 -24.45 17.80 -23.66Q17.14 -22.87 17.14 -21.38V-16.77H15.70V-25.52H17.14V-24.16Q17.60 -24.96 18.32 -25.35Q19.05 -25.73 20.09 -25.73Q20.24 -25.73 20.42 -25.71Q20.60 -25.70 20.82 -25.66ZM22.81 -18.10H25.39V-27.00L22.58 -26.44V-27.88L25.37 -28.44H26.95V-18.10H29.53V-16.77H22.81ZM31.79 -21.80H36.00V-20.52H31.79ZM44.58 -25.19V-23.84Q43.97 -24.18 43.36 -24.35Q42.75 -24.52 42.12 -24.52Q40.72 -24.52 39.95 -23.63Q39.18 -22.74 39.18 -21.14Q39.18 -19.54 39.95 -18.65Q40.72 -17.77 42.12 -17.77Q42.75 -17.77 43.36 -17.93Q43.97 -18.10 44.58 -18.44V-17.11Q43.98 -16.83 43.34 -16.69Q42.69 -16.55 41.96 -16.55Q39.99 -16.55 38.82 -17.79Q37.66 -19.03 37.66 -21.14Q37.66 -23.28 38.84 -24.51Q40.01 -25.73 42.06 -25.73Q42.72 -25.73 43.36 -25.60Q43.99 -25.46 44.58 -25.19ZM52.07 -23.06Q53.20 -22.82 53.84 -22.05Q54.47 -21.29 54.47 -20.16Q54.47 -18.44 53.29 -17.49Q52.10 -16.55 49.91 -16.55Q49.18 -16.55 48.40 -16.69Q47.62 -16.84 46.79 -17.12V-18.65Q47.45 -18.27 48.23 -18.07Q49.01 -17.88 49.86 -17.88Q51.35 -17.88 52.12 -18.46Q52.90 -19.05 52.90 -20.16Q52.90 -21.20 52.18 -21.78Q51.46 -22.36 50.17 -22.36H48.81V-23.66H50.23Q51.39 -23.66 52.01 -24.12Q52.63 -24.59 52.63 -25.46Q52.63 -26.36 51.99 -26.84Q51.36 -27.32 50.17 -27.32Q49.52 -27.32 48.78 -27.18Q48.04 -27.04 47.14 -26.74V-28.15Q48.04 -28.40 48.83 -28.52Q49.61 -28.65 50.31 -28.65Q52.11 -28.65 53.15 -27.83Q54.20 -27.02 54.20 -25.62Q54.20 -24.66 53.64 -23.99Q53.09 -23.32 52.07 -23.06Z" fill="#000"/></g><g transform="translate(18.00,107.00)" data-plotlet-kind="panel" data-plotlet-title="r2-c1" data-plotlet-xscale="linear" data-plotlet-yscale="linear" data-plotlet-xlim="-0.2,4.2" data-plotlet-ylim="-0.15,3.15" data-plotlet-panel-bbox="4,111,178,70" data-plotlet-data-area="18,0,160,70"><svg x="0" y="0" width="160.0" height="70.0" overflow="hidden"><g class="plotlet-artist" data-plotlet-type="line" data-plotlet-index="0" data-plotlet-color="#1f77b4" data-plotlet-n="5" data-plotlet-x-min="0" data-plotlet-x-max="4" data-plotlet-y-min="0" data-plotlet-y-max="2"><path d="M7.27,66.82L43.64,45.61L80.00,24.39L116.36,45.61L152.73,66.82" fill="none" stroke="#1f77b4" stroke-width="2.00"/></g></svg><line x1="0.00" x2="160.00" y1="0.00" y2="0.00" stroke="#000000" stroke-width="1.00"/><line x1="0.00" x2="160.00" y1="70.00" y2="70.00" stroke="#000000" stroke-width="1.00"/><line x1="0.00" x2="0.00" y1="0.00" y2="70.00" stroke="#000000" stroke-width="1.00"/><line x1="160.00" x2="160.00" y1="0.00" y2="70.00" stroke="#000000" stroke-width="1.00"/><line x1="0.00" x2="-4.50" y1="66.82" y2="66.82" stroke="#000000" stroke-width="1.00"/><path d="M-13.64 62.92Q-14.63 62.92 -15.13 63.90Q-15.63 64.87 -15.63 66.83Q-15.63 68.78 -15.13 69.75Q-14.63 70.73 -13.64 70.73Q-12.64 70.73 -12.14 69.75Q-11.65 68.78 -11.65 66.83Q-11.65 64.87 -12.14 63.90Q-12.64 62.92 -13.64 62.92ZM-13.64 61.91Q-12.05 61.91 -11.20 63.17Q-10.36 64.43 -10.36 66.83Q-10.36 69.22 -11.20 70.48Q-12.05 71.74 -13.64 71.74Q-15.23 71.74 -16.07 70.48Q-16.91 69.22 -16.91 66.83Q-16.91 64.43 -16.07 63.17Q-15.23 61.91 -13.64 61.91Z" fill="#000"/><line x1="0.00" x2="-4.50" y1="24.39" y2="24.39" stroke="#000000" stroke-width="1.00"/><path d="M-15.28 28.05H-10.80V29.13H-16.82V28.05Q-16.09 27.30 -14.83 26.03Q-13.57 24.75 -13.25 24.38Q-12.63 23.69 -12.39 23.21Q-12.14 22.73 -12.14 22.27Q-12.14 21.52 -12.67 21.04Q-13.20 20.56 -14.05 20.56Q-14.65 20.56 -15.32 20.77Q-15.99 20.98 -16.76 21.41V20.11Q-15.98 19.80 -15.31 19.64Q-14.64 19.48 -14.08 19.48Q-12.60 19.48 -11.73 20.22Q-10.85 20.96 -10.85 22.19Q-10.85 22.77 -11.07 23.30Q-11.29 23.82 -11.87 24.53Q-12.03 24.71 -12.88 25.59Q-13.73 26.47 -15.28 28.05Z" fill="#000"/></g><g transform="translate(178.00,107.00)" data-plotlet-kind="panel" data-plotlet-title="r2-c2" data-plotlet-xscale="linear" data-plotlet-yscale="linear" data-plotlet-xlim="-0.15,3.15" data-plotlet-ylim="-0.15,3.15" data-plotlet-panel-bbox="182,111,110,70" data-plotlet-data-area="0,0,110,70"><svg x="0" y="0" width="110.0" height="70.0" overflow="hidden"><g class="plotlet-artist" data-plotlet-type="line" data-plotlet-index="0" data-plotlet-color="#1f77b4" data-plotlet-n="4" data-plotlet-x-min="0" data-plotlet-x-max="3" data-plotlet-y-min="1" data-plotlet-y-max="3"><path d="M5.00,24.39L38.33,45.61L71.67,3.18L105.00,45.61" fill="none" stroke="#1f77b4" stroke-width="2.00"/></g></svg><line x1="0.00" x2="110.00" y1="0.00" y2="0.00" stroke="#000000" stroke-width="1.00"/><line x1="0.00" x2="110.00" y1="70.00" y2="70.00" stroke="#000000" stroke-width="1.00"/><line x1="0.00" x2="0.00" y1="0.00" y2="70.00" stroke="#000000" stroke-width="1.00"/><line x1="110.00" x2="110.00" y1="0.00" y2="70.00" stroke="#000000" stroke-width="1.00"/></g><g transform="translate(288.00,107.00)" data-plotlet-kind="panel" data-plotlet-title="r2-c3" data-plotlet-xscale="linear" data-plotlet-yscale="linear" data-plotlet-xlim="-0.1,2.1" data-plotlet-ylim="-0.15,3.15" data-plotlet-panel-bbox="292,111,71,70" data-plotlet-data-area="0,0,70,70"><svg x="0" y="0" width="70.0" height="70.0" overflow="hidden"><g class="plotlet-artist" data-plotlet-type="line" data-plotlet-index="0" data-plotlet-color="#1f77b4" data-plotlet-n="3" data-plotlet-x-min="0" data-plotlet-x-max="2" data-plotlet-y-min="1" data-plotlet-y-max="2"><path d="M3.18,45.61L35.00,24.39L66.82,45.61" fill="none" stroke="#1f77b4" stroke-width="2.00"/></g></svg><line x1="0.00" x2="70.00" y1="0.00" y2="0.00" stroke="#000000" stroke-width="1.00"/><line x1="0.00" x2="70.00" y1="70.00" y2="70.00" stroke="#000000" stroke-width="1.00"/><line x1="0.00" x2="0.00" y1="0.00" y2="70.00" stroke="#000000" stroke-width="1.00"/><line x1="70.00" x2="70.00" y1="0.00" y2="70.00" stroke="#000000" stroke-width="1.00"/></g><g transform="translate(18.00,185.00)" data-plotlet-kind="panel" data-plotlet-title="r3-c1" data-plotlet-xscale="linear" data-plotlet-yscale="linear" data-plotlet-xlim="-0.2,4.2" data-plotlet-ylim="-0.15,3.15" data-plotlet-panel-bbox="4,189,178,92" data-plotlet-data-area="18,0,160,70"><svg x="0" y="0" width="160.0" height="70.0" overflow="hidden"><g class="plotlet-artist" data-plotlet-type="line" data-plotlet-index="0" data-plotlet-color="#1f77b4" data-plotlet-n="5" data-plotlet-x-min="0" data-plotlet-x-max="4" data-plotlet-y-min="0" data-plotlet-y-max="2"><path d="M7.27,66.82L43.64,45.61L80.00,24.39L116.36,45.61L152.73,66.82" fill="none" stroke="#1f77b4" stroke-width="2.00"/></g></svg><line x1="0.00" x2="160.00" y1="0.00" y2="0.00" stroke="#000000" stroke-width="1.00"/><line x1="0.00" x2="160.00" y1="70.00" y2="70.00" stroke="#000000" stroke-width="1.00"/><line x1="0.00" x2="0.00" y1="0.00" y2="70.00" stroke="#000000" stroke-width="1.00"/><line x1="160.00" x2="160.00" y1="0.00" y2="70.00" stroke="#000000" stroke-width="1.00"/><line x1="7.27" x2="7.27" y1="70.00" y2="74.50" stroke="#000000" stroke-width="1.00"/><path d="M7.27 80.34Q6.28 80.34 5.78 81.32Q5.28 82.29 5.28 84.25Q5.28 86.20 5.78 87.17Q6.28 88.15 7.27 88.15Q8.27 88.15 8.76 87.17Q9.26 86.20 9.26 84.25Q9.26 82.29 8.76 81.32Q8.27 80.34 7.27 80.34ZM7.27 79.33Q8.86 79.33 9.70 80.59Q10.54 81.85 10.54 84.25Q10.54 86.64 9.70 87.90Q8.86 89.16 7.27 89.16Q5.68 89.16 4.84 87.90Q3.99 86.64 3.99 84.25Q3.99 81.85 4.84 80.59Q5.68 79.33 7.27 79.33Z" fill="#000"/><line x1="80.00" x2="80.00" y1="70.00" y2="74.50" stroke="#000000" stroke-width="1.00"/><path d="M78.36 87.90H82.83V88.98H76.82V87.90Q77.55 87.14 78.81 85.87Q80.07 84.60 80.39 84.23Q81.01 83.54 81.25 83.06Q81.49 82.58 81.49 82.12Q81.49 81.36 80.96 80.88Q80.43 80.41 79.58 80.41Q78.98 80.41 78.31 80.62Q77.64 80.83 76.88 81.25V79.96Q77.65 79.65 78.33 79.49Q79.00 79.33 79.56 79.33Q81.03 79.33 81.91 80.06Q82.78 80.80 82.78 82.03Q82.78 82.62 82.56 83.14Q82.35 83.66 81.77 84.38Q81.61 84.56 80.76 85.44Q79.91 86.32 78.36 87.90Z" fill="#000"/><line x1="152.73" x2="152.73" y1="70.00" y2="74.50" stroke="#000000" stroke-width="1.00"/><path d="M153.50 80.62 150.27 85.68H153.50ZM153.17 79.50H154.78V85.68H156.13V86.74H154.78V88.98H153.50V86.74H149.23V85.50Z" fill="#000"/><line x1="0.00" x2="-4.50" y1="66.82" y2="66.82" stroke="#000000" stroke-width="1.00"/><path d="M-13.64 62.92Q-14.63 62.92 -15.13 63.90Q-15.63 64.87 -15.63 66.83Q-15.63 68.78 -15.13 69.75Q-14.63 70.73 -13.64 70.73Q-12.64 70.73 -12.14 69.75Q-11.65 68.78 -11.65 66.83Q-11.65 64.87 -12.14 63.90Q-12.64 62.92 -13.64 62.92ZM-13.64 61.91Q-12.05 61.91 -11.20 63.17Q-10.36 64.43 -10.36 66.83Q-10.36 69.22 -11.20 70.48Q-12.05 71.74 -13.64 71.74Q-15.23 71.74 -16.07 70.48Q-16.91 69.22 -16.91 66.83Q-16.91 64.43 -16.07 63.17Q-15.23 61.91 -13.64 61.91Z" fill="#000"/><line x1="0.00" x2="-4.50" y1="24.39" y2="24.39" stroke="#000000" stroke-width="1.00"/><path d="M-15.28 28.05H-10.80V29.13H-16.82V28.05Q-16.09 27.30 -14.83 26.03Q-13.57 24.75 -13.25 24.38Q-12.63 23.69 -12.39 23.21Q-12.14 22.73 -12.14 22.27Q-12.14 21.52 -12.67 21.04Q-13.20 20.56 -14.05 20.56Q-14.65 20.56 -15.32 20.77Q-15.99 20.98 -16.76 21.41V20.11Q-15.98 19.80 -15.31 19.64Q-14.64 19.48 -14.08 19.48Q-12.60 19.48 -11.73 20.22Q-10.85 20.96 -10.85 22.19Q-10.85 22.77 -11.07 23.30Q-11.29 23.82 -11.87 24.53Q-12.03 24.71 -12.88 25.59Q-13.73 26.47 -15.28 28.05Z" fill="#000"/></g><g transform="translate(178.00,185.00)" data-plotlet-kind="panel" data-plotlet-title="r3-c2" data-plotlet-xscale="linear" data-plotlet-yscale="linear" data-plotlet-xlim="-0.15,3.15" data-plotlet-ylim="-0.15,3.15" data-plotlet-panel-bbox="182,189,110,92" data-plotlet-data-area="0,0,110,70"><svg x="0" y="0" width="110.0" height="70.0" overflow="hidden"><g class="plotlet-artist" data-plotlet-type="line" data-plotlet-index="0" data-plotlet-color="#1f77b4" data-plotlet-n="4" data-plotlet-x-min="0" data-plotlet-x-max="3" data-plotlet-y-min="1" data-plotlet-y-max="3"><path d="M5.00,24.39L38.33,45.61L71.67,3.18L105.00,45.61" fill="none" stroke="#1f77b4" stroke-width="2.00"/></g></svg><line x1="0.00" x2="110.00" y1="0.00" y2="0.00" stroke="#000000" stroke-width="1.00"/><line x1="0.00" x2="110.00" y1="70.00" y2="70.00" stroke="#000000" stroke-width="1.00"/><line x1="0.00" x2="0.00" y1="0.00" y2="70.00" stroke="#000000" stroke-width="1.00"/><line x1="110.00" x2="110.00" y1="0.00" y2="70.00" stroke="#000000" stroke-width="1.00"/><line x1="5.00" x2="5.00" y1="70.00" y2="74.50" stroke="#000000" stroke-width="1.00"/><path d="M5.00 80.34Q4.01 80.34 3.51 81.32Q3.01 82.29 3.01 84.25Q3.01 86.20 3.51 87.17Q4.01 88.15 5.00 88.15Q5.99 88.15 6.49 87.17Q6.99 86.20 6.99 84.25Q6.99 82.29 6.49 81.32Q5.99 80.34 5.00 80.34ZM5.00 79.33Q6.59 79.33 7.43 80.59Q8.27 81.85 8.27 84.25Q8.27 86.64 7.43 87.90Q6.59 89.16 5.00 89.16Q3.40 89.16 2.56 87.90Q1.72 86.64 1.72 84.25Q1.72 81.85 2.56 80.59Q3.40 79.33 5.00 79.33Z" fill="#000"/><line x1="71.67" x2="71.67" y1="70.00" y2="74.50" stroke="#000000" stroke-width="1.00"/><path d="M70.03 87.90H74.50V88.98H68.48V87.90Q69.21 87.14 70.47 85.87Q71.73 84.60 72.06 84.23Q72.67 83.54 72.92 83.06Q73.16 82.58 73.16 82.12Q73.16 81.36 72.63 80.88Q72.10 80.41 71.25 80.41Q70.65 80.41 69.98 80.62Q69.31 80.83 68.55 81.25V79.96Q69.32 79.65 69.99 79.49Q70.67 79.33 71.23 79.33Q72.70 79.33 73.57 80.06Q74.45 80.80 74.45 82.03Q74.45 82.62 74.23 83.14Q74.01 83.66 73.43 84.38Q73.28 84.56 72.43 85.44Q71.57 86.32 70.03 87.90Z" fill="#000"/></g><g transform="translate(288.00,185.00)" data-plotlet-kind="panel" data-plotlet-title="r3-c3" data-plotlet-xscale="linear" data-plotlet-yscale="linear" data-plotlet-xlim="-0.1,2.1" data-plotlet-ylim="-0.15,3.15" data-plotlet-panel-bbox="292,189,71,92" data-plotlet-data-area="0,0,70,70"><svg x="0" y="0" width="70.0" height="70.0" overflow="hidden"><g class="plotlet-artist" data-plotlet-type="line" data-plotlet-index="0" data-plotlet-color="#1f77b4" data-plotlet-n="3" data-plotlet-x-min="0" data-plotlet-x-max="2" data-plotlet-y-min="1" data-plotlet-y-max="2"><path d="M3.18,45.61L35.00,24.39L66.82,45.61" fill="none" stroke="#1f77b4" stroke-width="2.00"/></g></svg><line x1="0.00" x2="70.00" y1="0.00" y2="0.00" stroke="#000000" stroke-width="1.00"/><line x1="0.00" x2="70.00" y1="70.00" y2="70.00" stroke="#000000" stroke-width="1.00"/><line x1="0.00" x2="0.00" y1="0.00" y2="70.00" stroke="#000000" stroke-width="1.00"/><line x1="70.00" x2="70.00" y1="0.00" y2="70.00" stroke="#000000" stroke-width="1.00"/><line x1="3.18" x2="3.18" y1="70.00" y2="74.50" stroke="#000000" stroke-width="1.00"/><path d="M3.18 80.34Q2.19 80.34 1.69 81.32Q1.19 82.29 1.19 84.25Q1.19 86.20 1.69 87.17Q2.19 88.15 3.18 88.15Q4.18 88.15 4.67 87.17Q5.17 86.20 5.17 84.25Q5.17 82.29 4.67 81.32Q4.18 80.34 3.18 80.34ZM3.18 79.33Q4.77 79.33 5.61 80.59Q6.45 81.85 6.45 84.25Q6.45 86.64 5.61 87.90Q4.77 89.16 3.18 89.16Q1.59 89.16 0.74 87.90Q-0.10 86.64 -0.10 84.25Q-0.10 81.85 0.74 80.59Q1.59 79.33 3.18 79.33Z" fill="#000"/><line x1="35.00" x2="35.00" y1="70.00" y2="74.50" stroke="#000000" stroke-width="1.00"/><path d="M32.48 87.90H34.57V80.67L32.29 81.12V79.96L34.56 79.50H35.84V87.90H37.94V88.98H32.48Z" fill="#000"/><line x1="66.82" x2="66.82" y1="70.00" y2="74.50" stroke="#000000" stroke-width="1.00"/><path d="M65.18 87.90H69.65V88.98H63.63V87.90Q64.36 87.14 65.62 85.87Q66.88 84.60 67.21 84.23Q67.82 83.54 68.07 83.06Q68.31 82.58 68.31 82.12Q68.31 81.36 67.78 80.88Q67.25 80.41 66.40 80.41Q65.80 80.41 65.13 80.62Q64.46 80.83 63.70 81.25V79.96Q64.47 79.65 65.15 79.49Q65.82 79.33 66.38 79.33Q67.85 79.33 68.73 80.06Q69.60 80.80 69.60 82.03Q69.60 82.62 69.38 83.14Q69.16 83.66 68.59 84.38Q68.43 84.56 67.58 85.44Q66.73 86.32 65.18 87.90Z" fill="#000"/></g></g></svg>