<svg xmlns="http://www.w3.org/2000/svg" width="592" height="396" viewBox="0 0 592 396" font-family="DejaVu Sans, Bitstream Vera Sans, Verdana, Arial, sans-serif" font-size="11" style="background:#fff" data-plotlet-version="0.4.1" data-plotlet-schema="2" data-plotlet-kind="layout"><g transform="translate(58.00,30.00)" data-plotlet-kind="panel" data-plotlet-title="sin" data-plotlet-xscale="linear" data-plotlet-yscale="linear" data-plotlet-xlim="-0.315,6.615" data-plotlet-ylim="-1.09989810059,1.09954844607" data-plotlet-panel-bbox="0,0,296,198" data-plotlet-data-area="58,30,220,120"><g class="plotlet-artist" data-plotlet-type="line" data-plotlet-index="0" data-plotlet-color="#1f77b4" data-plotlet-n="64" data-plotlet-x-min="0.0" data-plotlet-x-max="6.300000000000001" data-plotlet-y-min="-0.9999232575641008" data-plotlet-y-max="0.9995736030415051"><path d="M10.00,59.99L13.17,54.54L16.35,49.15L19.52,43.87L22.70,38.74L25.87,33.83L29.05,29.18L32.22,24.84L35.40,20.85L38.57,17.25L41.75,14.08L44.92,11.37L48.10,9.14L51.27,7.42L54.44,6.23L57.62,5.57L60.79,5.45L63.97,5.89L67.14,6.86L70.32,8.36L73.49,10.38L76.67,12.89L79.84,15.88L83.02,19.31L86.19,23.14L89.37,27.34L92.54,31.87L95.71,36.67L98.89,41.71L102.06,46.94L105.24,52.29L108.41,57.72L111.59,63.18L114.76,68.60L117.94,73.93L121.11,79.13L124.29,84.13L127.46,88.90L130.63,93.37L133.81,97.51L136.98,101.28L140.16,104.63L143.33,107.54L146.51,109.98L149.68,111.91L152.86,113.32L156.03,114.21L159.21,114.55L162.38,114.34L165.56,113.59L168.73,112.31L171.90,110.50L175.08,108.19L178.25,105.40L181.43,102.15L184.60,98.48L187.78,94.43L190.95,90.04L194.13,85.34L197.30,80.39L200.48,75.24L203.65,69.93L206.83,64.52L210.00,59.07" fill="none" stroke="#1f77b4" stroke-width="1.5"/></g><line x1="0" y1="0" x2="220.0" y2="0" stroke="#000000" stroke-width="0.8"/><line x1="0" y1="120.0" x2="220.0" y2="120.0" stroke="#000000" stroke-width="0.8"/><line x1="0" y1="0" x2="0" y2="120.0" stroke="#000000" stroke-width="0.8"/><line x1="220.0" y1="0" x2="220.0" y2="120.0" stroke="#000000" stroke-width="0.8"/><line x1="10.00" x2="10.00" y1="120.0" y2="123.5" stroke="#000000" stroke-width="0.8"/><path d="M9.997314453125 128.1953125Q9.159423828125 128.1953125 8.73779296875 129.019775390625Q8.316162109375 129.84423828125 8.316162109375 131.49853515625Q8.316162109375 133.1474609375 8.73779296875 133.971923828125Q9.159423828125 134.79638671875 9.997314453125 134.79638671875Q10.840576171875 134.79638671875 11.26220703125 133.971923828125Q11.683837890625 133.1474609375 11.683837890625 131.49853515625Q11.683837890625 129.84423828125 11.26220703125 129.019775390625Q10.840576171875 128.1953125 9.997314453125 128.1953125ZM9.997314453125 127.3359375Q11.345458984375 127.3359375 12.05712890625 128.402099609375Q12.768798828125 129.46826171875 12.768798828125 131.49853515625Q12.768798828125 133.5234375 12.05712890625 134.589599609375Q11.345458984375 135.65576171875 9.997314453125 135.65576171875Q8.649169921875 135.65576171875 7.9375 134.589599609375Q7.225830078125 133.5234375 7.225830078125 131.49853515625Q7.225830078125 129.46826171875 7.9375 128.402099609375Q8.649169921875 127.3359375 9.997314453125 127.3359375Z" fill="#000"/><line x1="73.49" x2="73.49" y1="120.0" y2="123.5" stroke="#000000" stroke-width="0.8"/><path d="M72.10363575768848 134.5869140625H75.89025685143848V135.5H70.79845997643848V134.5869140625Q71.41613575768848 133.94775390625 72.48229786706348 132.870849609375Q73.54845997643848 131.7939453125 73.82238575768848 131.482421875Q74.34338185143848 130.89697265625 74.55016896081348 130.491455078125Q74.75695607018848 130.0859375 74.75695607018848 129.69384765625Q74.75695607018848 129.0546875 74.30846974206348 128.65185546875Q73.85998341393848 128.2490234375 73.14025685143848 128.2490234375Q72.63000294518848 128.2490234375 72.06335255456348 128.42626953125Q71.49670216393848 128.603515625 70.85217091393848 128.96337890625V127.86767578125Q71.50744435143848 127.6044921875 72.07678028893848 127.47021484375Q72.64611622643848 127.3359375 73.11877247643848 127.3359375Q74.36486622643848 127.3359375 75.10607716393848 127.958984375Q75.84728810143848 128.58203125 75.84728810143848 129.6240234375Q75.84728810143848 130.1181640625 75.66198536706348 130.561279296875Q75.47668263268848 131.00439453125 74.98791310143848 131.60595703125Q74.85363575768848 131.76171875 74.13390919518848 132.505615234375Q73.41418263268848 133.24951171875 72.10363575768848 134.5869140625Z" fill="#000"/><line x1="136.98" x2="136.98" y1="120.0" y2="123.5" stroke="#000000" stroke-width="0.8"/><path d="M137.64208596850196 128.42626953125 134.90282815600196 132.70703125H137.64208596850196ZM137.35741799975196 127.48095703125H138.72167581225196V132.70703125H139.86571878100196V133.609375H138.72167581225196V135.5H137.64208596850196V133.609375H134.02196878100196V132.56201171875Z" fill="#000"/><line x1="200.48" x2="200.48" y1="120.0" y2="123.5" stroke="#000000" stroke-width="0.8"/><path d="M200.60778227306545 131.05810546875Q199.87731352306545 131.05810546875 199.45031156994045 131.5576171875Q199.02330961681545 132.05712890625 199.02330961681545 132.92724609375Q199.02330961681545 133.7919921875 199.45031156994045 134.294189453125Q199.87731352306545 134.79638671875 200.60778227306545 134.79638671875Q201.33825102306545 134.79638671875 201.76525297619045 134.294189453125Q202.19225492931545 133.7919921875 202.19225492931545 132.92724609375Q202.19225492931545 132.05712890625 201.76525297619045 131.5576171875Q201.33825102306545 131.05810546875 200.60778227306545 131.05810546875ZM202.76159086681545 127.658203125V128.646484375Q202.35338774181545 128.453125 201.93712797619045 128.35107421875Q201.52086821056545 128.2490234375 201.11266508556545 128.2490234375Q200.03844633556545 128.2490234375 199.47179594494045 128.97412109375Q198.90514555431545 129.69921875 198.82457914806545 131.16552734375Q199.14147367931545 130.6982421875 199.61950102306545 130.448486328125Q200.09752836681545 130.19873046875 200.67223539806545 130.19873046875Q201.88073149181545 130.19873046875 202.58165922619045 130.931884765625Q203.28258696056545 131.6650390625 203.28258696056545 132.92724609375Q203.28258696056545 134.16259765625 202.55211821056545 134.9091796875Q201.82164946056545 135.65576171875 200.60778227306545 135.65576171875Q199.21666899181545 135.65576171875 198.48082914806545 134.589599609375Q197.74498930431545 133.5234375 197.74498930431545 131.49853515625Q197.74498930431545 129.59716796875 198.64733305431545 128.466552734375Q199.54967680431545 127.3359375 201.06969633556545 127.3359375Q201.47789946056545 127.3359375 201.89415922619045 127.41650390625Q202.31041899181545 127.4970703125 202.76159086681545 127.658203125Z" fill="#000"/><line x1="0" x2="-3.5" y1="114.55" y2="114.55" stroke="#000000" stroke-width="0.8"/><path d="M-17.9306640625 115.09602826857702H-15.03564453125V115.97688764357702H-17.9306640625ZM-13.13427734375 117.63655561232702H-11.36181640625V111.51887983107702L-13.2900390625 111.90559858107702V110.91731733107702L-11.37255859375 110.53059858107702H-10.28759765625V117.63655561232702H-8.51513671875V118.54964154982702H-13.13427734375Z" fill="#000"/><line x1="0" x2="-3.5" y1="59.99" y2="59.99" stroke="#000000" stroke-width="0.8"/><path d="M-11.001953125 56.685774067985115Q-11.83984375 56.685774067985115 -12.261474609375 57.510236958610115Q-12.68310546875 58.334699849235115 -12.68310546875 59.988996724235115Q-12.68310546875 61.637922505485115 -12.261474609375 62.462385396110115Q-11.83984375 63.286848286735115 -11.001953125 63.286848286735115Q-10.15869140625 63.286848286735115 -9.737060546875 62.462385396110115Q-9.3154296875 61.637922505485115 -9.3154296875 59.988996724235115Q-9.3154296875 58.334699849235115 -9.737060546875 57.510236958610115Q-10.15869140625 56.685774067985115 -11.001953125 56.685774067985115ZM-11.001953125 55.826399067985115Q-9.65380859375 55.826399067985115 -8.942138671875 56.892561177360115Q-8.23046875 57.958723286735115 -8.23046875 59.988996724235115Q-8.23046875 62.013899067985115 -8.942138671875 63.08006117736011Q-9.65380859375 64.14622328673511 -11.001953125 64.14622328673511Q-12.35009765625 64.14622328673511 -13.061767578125 63.08006117736011Q-13.7734375 62.013899067985115 -13.7734375 59.988996724235115Q-13.7734375 57.958723286735115 -13.061767578125 56.892561177360115Q-12.35009765625 55.826399067985115 -11.001953125 55.826399067985115Z" fill="#000"/><line x1="0" x2="-3.5" y1="5.43" y2="5.43" stroke="#000000" stroke-width="0.8"/><path d="M-13.13427734375 8.518195648643214H-11.36181640625V2.400519867393214L-13.2900390625 2.787238617393214V1.7989573673932142L-11.37255859375 1.4122386173932142H-10.28759765625V8.518195648643214H-8.51513671875V9.431281586143214H-13.13427734375Z" fill="#000"/><path d="M106.4453125 -16.89990234375V-15.79541015625Q105.9501953125 -16.04931640625 105.4169921875 -16.17626953125Q104.8837890625 -16.30322265625 104.3125 -16.30322265625Q103.44287109375 -16.30322265625 103.008056640625 -16.03662109375Q102.5732421875 -15.77001953125 102.5732421875 -15.23681640625Q102.5732421875 -14.83056640625 102.88427734375 -14.598876953125Q103.1953125 -14.3671875 104.134765625 -14.15771484375L104.53466796875 -14.06884765625Q105.77880859375 -13.80224609375 106.302490234375 -13.316650390625Q106.826171875 -12.8310546875 106.826171875 -11.96142578125Q106.826171875 -10.97119140625 106.042236328125 -10.3935546875Q105.25830078125 -9.81591796875 103.88720703125 -9.81591796875Q103.31591796875 -9.81591796875 102.697021484375 -9.927001953125Q102.078125 -10.0380859375 101.392578125 -10.26025390625V-11.46630859375Q102.0400390625 -11.1298828125 102.66845703125 -10.961669921875Q103.296875 -10.79345703125 103.91259765625 -10.79345703125Q104.73779296875 -10.79345703125 105.18212890625 -11.075927734375Q105.62646484375 -11.3583984375 105.62646484375 -11.87255859375Q105.62646484375 -12.3486328125 105.305908203125 -12.6025390625Q104.9853515625 -12.8564453125 103.89990234375 -13.09130859375L103.49365234375 -13.1865234375Q102.408203125 -13.4150390625 101.92578125 -13.887939453125Q101.443359375 -14.36083984375 101.443359375 -15.18603515625Q101.443359375 -16.18896484375 102.154296875 -16.73486328125Q102.865234375 -17.28076171875 104.1728515625 -17.28076171875Q104.8203125 -17.28076171875 105.3916015625 -17.185546875Q105.962890625 -17.09033203125 106.4453125 -16.89990234375ZM108.68603515625 -17.109375H109.85400390625V-10.0H108.68603515625ZM108.68603515625 -19.876953125H109.85400390625V-18.39794921875H108.68603515625ZM118.20751953125 -14.291015625V-10.0H117.03955078125V-14.2529296875Q117.03955078125 -15.26220703125 116.64599609375 -15.763671875Q116.25244140625 -16.26513671875 115.46533203125 -16.26513671875Q114.51953125 -16.26513671875 113.9736328125 -15.662109375Q113.427734375 -15.05908203125 113.427734375 -14.01806640625V-10.0H112.25341796875V-17.109375H113.427734375V-16.0048828125Q113.8466796875 -16.64599609375 114.414794921875 -16.96337890625Q114.98291015625 -17.28076171875 115.7255859375 -17.28076171875Q116.95068359375 -17.28076171875 117.5791015625 -16.522216796875Q118.20751953125 -15.763671875 118.20751953125 -14.291015625Z" fill="#000"/></g><g transform="translate(354.00,30.00)" data-plotlet-kind="panel" data-plotlet-title="cos" data-plotlet-xscale="linear" data-plotlet-yscale="linear" data-plotlet-xlim="-0.315,6.615" data-plotlet-ylim="-1.09909190779,1.09995675751" data-plotlet-panel-bbox="296,0,296,198" data-plotlet-data-area="58,30,220,120"><g class="plotlet-artist" data-plotlet-type="line" data-plotlet-index="0" data-plotlet-color="#1f77b4" data-plotlet-n="64" data-plotlet-x-min="0.0" data-plotlet-x-max="6.300000000000001" data-plotlet-y-min="-0.9991351502732795" data-plotlet-y-max="1.0"><path d="M10.00,5.45L13.17,5.73L16.35,6.54L19.52,7.89L22.70,9.76L25.87,12.13L29.05,14.99L32.22,18.29L35.40,22.00L38.57,26.10L41.75,30.54L44.92,35.27L48.10,40.25L51.27,45.43L54.44,50.75L57.62,56.16L60.79,61.62L63.97,67.05L67.14,72.42L70.32,77.67L73.49,82.73L76.67,87.57L79.84,92.14L83.02,96.38L86.19,100.26L89.37,103.74L92.54,106.78L95.71,109.36L98.89,111.44L102.06,113.01L105.24,114.05L108.41,114.55L111.59,114.50L114.76,113.91L117.94,112.78L121.11,111.13L124.29,108.96L127.46,106.30L130.63,103.19L133.81,99.64L136.98,95.69L140.16,91.39L143.33,86.78L146.51,81.89L149.68,76.79L152.86,71.53L156.03,66.14L159.21,60.70L162.38,55.25L165.56,49.85L168.73,44.54L171.90,39.40L175.08,34.46L178.25,29.77L181.43,25.39L184.60,21.35L187.78,17.70L190.95,14.47L194.13,11.70L197.30,9.41L200.48,7.63L203.65,6.37L206.83,5.64L210.00,5.46" fill="none" stroke="#1f77b4" stroke-width="1.5"/></g><line x1="0" y1="0" x2="220.0" y2="0" stroke="#000000" stroke-width="0.8"/><line x1="0" y1="120.0" x2="220.0" y2="120.0" stroke="#000000" stroke-width="0.8"/><line x1="0" y1="0" x2="0" y2="120.0" stroke="#000000" stroke-width="0.8"/><line x1="220.0" y1="0" x2="220.0" y2="120.0" stroke="#000000" stroke-width="0.8"/><line x1="10.00" x2="10.00" y1="120.0" y2="123.5" stroke="#000000" stroke-width="0.8"/><path d="M9.997314453125 128.1953125Q9.159423828125 128.1953125 8.73779296875 129.019775390625Q8.316162109375 129.84423828125 8.316162109375 131.49853515625Q8.316162109375 133.1474609375 8.73779296875 133.971923828125Q9.159423828125 134.79638671875 9.997314453125 134.79638671875Q10.840576171875 134.79638671875 11.26220703125 133.971923828125Q11.683837890625 133.1474609375 11.683837890625 131.49853515625Q11.683837890625 129.84423828125 11.26220703125 129.019775390625Q10.840576171875 128.1953125 9.997314453125 128.1953125ZM9.997314453125 127.3359375Q11.345458984375 127.3359375 12.05712890625 128.402099609375Q12.768798828125 129.46826171875 12.768798828125 131.49853515625Q12.768798828125 133.5234375 12.05712890625 134.589599609375Q11.345458984375 135.65576171875 9.997314453125 135.65576171875Q8.649169921875 135.65576171875 7.9375 134.589599609375Q7.225830078125 133.5234375 7.225830078125 131.49853515625Q7.225830078125 129.46826171875 7.9375 128.402099609375Q8.649169921875 127.3359375 9.997314453125 127.3359375Z" fill="#000"/><line x1="73.49" x2="73.49" y1="120.0" y2="123.5" stroke="#000000" stroke-width="0.8"/><path d="M72.10363575768848 134.5869140625H75.89025685143848V135.5H70.79845997643848V134.5869140625Q71.41613575768848 133.94775390625 72.48229786706348 132.870849609375Q73.54845997643848 131.7939453125 73.82238575768848 131.482421875Q74.34338185143848 130.89697265625 74.55016896081348 130.491455078125Q74.75695607018848 130.0859375 74.75695607018848 129.69384765625Q74.75695607018848 129.0546875 74.30846974206348 128.65185546875Q73.85998341393848 128.2490234375 73.14025685143848 128.2490234375Q72.63000294518848 128.2490234375 72.06335255456348 128.42626953125Q71.49670216393848 128.603515625 70.85217091393848 128.96337890625V127.86767578125Q71.50744435143848 127.6044921875 72.07678028893848 127.47021484375Q72.64611622643848 127.3359375 73.11877247643848 127.3359375Q74.36486622643848 127.3359375 75.10607716393848 127.958984375Q75.84728810143848 128.58203125 75.84728810143848 129.6240234375Q75.84728810143848 130.1181640625 75.66198536706348 130.561279296875Q75.47668263268848 131.00439453125 74.98791310143848 131.60595703125Q74.85363575768848 131.76171875 74.13390919518848 132.505615234375Q73.41418263268848 133.24951171875 72.10363575768848 134.5869140625Z" fill="#000"/><line x1="136.98" x2="136.98" y1="120.0" y2="123.5" stroke="#000000" stroke-width="0.8"/><path d="M137.64208596850196 128.42626953125 134.90282815600196 132.70703125H137.64208596850196ZM137.35741799975196 127.48095703125H138.72167581225196V132.70703125H139.86571878100196V133.609375H138.72167581225196V135.5H137.64208596850196V133.609375H134.02196878100196V132.56201171875Z" fill="#000"/><line x1="200.48" x2="200.48" y1="120.0" y2="123.5" stroke="#000000" stroke-width="0.8"/><path d="M200.60778227306545 131.05810546875Q199.87731352306545 131.05810546875 199.45031156994045 131.5576171875Q199.02330961681545 132.05712890625 199.02330961681545 132.92724609375Q199.02330961681545 133.7919921875 199.45031156994045 134.294189453125Q199.87731352306545 134.79638671875 200.60778227306545 134.79638671875Q201.33825102306545 134.79638671875 201.76525297619045 134.294189453125Q202.19225492931545 133.7919921875 202.19225492931545 132.92724609375Q202.19225492931545 132.05712890625 201.76525297619045 131.5576171875Q201.33825102306545 131.05810546875 200.60778227306545 131.05810546875ZM202.76159086681545 127.658203125V128.646484375Q202.35338774181545 128.453125 201.93712797619045 128.35107421875Q201.52086821056545 128.2490234375 201.11266508556545 128.2490234375Q200.03844633556545 128.2490234375 199.47179594494045 128.97412109375Q198.90514555431545 129.69921875 198.82457914806545 131.16552734375Q199.14147367931545 130.6982421875 199.61950102306545 130.448486328125Q200.09752836681545 130.19873046875 200.67223539806545 130.19873046875Q201.88073149181545 130.19873046875 202.58165922619045 130.931884765625Q203.28258696056545 131.6650390625 203.28258696056545 132.92724609375Q203.28258696056545 134.16259765625 202.55211821056545 134.9091796875Q201.82164946056545 135.65576171875 200.60778227306545 135.65576171875Q199.21666899181545 135.65576171875 198.48082914806545 134.589599609375Q197.74498930431545 133.5234375 197.74498930431545 131.49853515625Q197.74498930431545 129.59716796875 198.64733305431545 128.466552734375Q199.54967680431545 127.3359375 201.06969633556545 127.3359375Q201.47789946056545 127.3359375 201.89415922619045 127.41650390625Q202.31041899181545 127.4970703125 202.76159086681545 127.658203125Z" fill="#000"/><line x1="0" x2="-3.5" y1="114.59" y2="114.59" stroke="#000000" stroke-width="0.8"/><path d="M-17.9306640625 115.13903529353371H-15.03564453125V116.01989466853371H-17.9306640625ZM-13.13427734375 117.67956263728371H-11.36181640625V111.56188685603371L-13.2900390625 111.94860560603371V110.96032435603371L-11.37255859375 110.57360560603371H-10.28759765625V117.67956263728371H-8.51513671875V118.59264857478371H-13.13427734375Z" fill="#000"/><line x1="0" x2="-3.5" y1="60.02" y2="60.02" stroke="#000000" stroke-width="0.8"/><path d="M-11.001953125 56.718909514664574Q-11.83984375 56.718909514664574 -12.261474609375 57.543372405289574Q-12.68310546875 58.367835295914574 -12.68310546875 60.022132170914574Q-12.68310546875 61.671057952164574 -12.261474609375 62.495520842789574Q-11.83984375 63.319983733414574 -11.001953125 63.319983733414574Q-10.15869140625 63.319983733414574 -9.737060546875 62.495520842789574Q-9.3154296875 61.671057952164574 -9.3154296875 60.022132170914574Q-9.3154296875 58.367835295914574 -9.737060546875 57.543372405289574Q-10.15869140625 56.718909514664574 -11.001953125 56.718909514664574ZM-11.001953125 55.859534514664574Q-9.65380859375 55.859534514664574 -8.942138671875 56.925696624039574Q-8.23046875 57.991858733414574 -8.23046875 60.022132170914574Q-8.23046875 62.047034514664574 -8.942138671875 63.113196624039574Q-9.65380859375 64.17935873341457 -11.001953125 64.17935873341457Q-12.35009765625 64.17935873341457 -13.061767578125 63.113196624039574Q-13.7734375 62.047034514664574 -13.7734375 60.022132170914574Q-13.7734375 57.991858733414574 -13.061767578125 56.925696624039574Q-12.35009765625 55.859534514664574 -11.001953125 55.859534514664574Z" fill="#000"/><line x1="0" x2="-3.5" y1="5.45" y2="5.45" stroke="#000000" stroke-width="0.8"/><path d="M-13.13427734375 8.541459517045453H-11.36181640625V2.4237837357954533L-13.2900390625 2.8105024857954533V1.8222212357954533L-11.37255859375 1.4355024857954533H-10.28759765625V8.541459517045453H-8.51513671875V9.454545454545453H-13.13427734375Z" fill="#000"/><path d="M105.404296875 -16.83642578125V-15.74462890625Q104.9091796875 -16.017578125 104.410888671875 -16.154052734375Q103.91259765625 -16.29052734375 103.40478515625 -16.29052734375Q102.2685546875 -16.29052734375 101.64013671875 -15.570068359375Q101.01171875 -14.849609375 101.01171875 -13.54833984375Q101.01171875 -12.2470703125 101.64013671875 -11.526611328125Q102.2685546875 -10.80615234375 103.40478515625 -10.80615234375Q103.91259765625 -10.80615234375 104.410888671875 -10.942626953125Q104.9091796875 -11.0791015625 105.404296875 -11.35205078125V-10.27294921875Q104.91552734375 -10.04443359375 104.391845703125 -9.93017578125Q103.8681640625 -9.81591796875 103.27783203125 -9.81591796875Q101.671875 -9.81591796875 100.72607421875 -10.8251953125Q99.7802734375 -11.83447265625 99.7802734375 -13.54833984375Q99.7802734375 -15.28759765625 100.735595703125 -16.2841796875Q101.69091796875 -17.28076171875 103.35400390625 -17.28076171875Q103.8935546875 -17.28076171875 104.40771484375 -17.169677734375Q104.921875 -17.05859375 105.404296875 -16.83642578125ZM110.1904296875 -16.29052734375Q109.2509765625 -16.29052734375 108.705078125 -15.557373046875Q108.1591796875 -14.82421875 108.1591796875 -13.54833984375Q108.1591796875 -12.2724609375 108.701904296875 -11.539306640625Q109.24462890625 -10.80615234375 110.1904296875 -10.80615234375Q111.12353515625 -10.80615234375 111.66943359375 -11.54248046875Q112.21533203125 -12.27880859375 112.21533203125 -13.54833984375Q112.21533203125 -14.8115234375 111.66943359375 -15.551025390625Q111.12353515625 -16.29052734375 110.1904296875 -16.29052734375ZM110.1904296875 -17.28076171875Q111.7138671875 -17.28076171875 112.58349609375 -16.29052734375Q113.453125 -15.30029296875 113.453125 -13.54833984375Q113.453125 -11.802734375 112.58349609375 -10.809326171875Q111.7138671875 -9.81591796875 110.1904296875 -9.81591796875Q108.66064453125 -9.81591796875 107.794189453125 -10.809326171875Q106.927734375 -11.802734375 106.927734375 -13.54833984375Q106.927734375 -15.30029296875 107.794189453125 -16.29052734375Q108.66064453125 -17.28076171875 110.1904296875 -17.28076171875ZM119.92138671875 -16.89990234375V-15.79541015625Q119.42626953125 -16.04931640625 118.89306640625 -16.17626953125Q118.35986328125 -16.30322265625 117.78857421875 -16.30322265625Q116.9189453125 -16.30322265625 116.484130859375 -16.03662109375Q116.04931640625 -15.77001953125 116.04931640625 -15.23681640625Q116.04931640625 -14.83056640625 116.3603515625 -14.598876953125Q116.67138671875 -14.3671875 117.61083984375 -14.15771484375L118.0107421875 -14.06884765625Q119.2548828125 -13.80224609375 119.778564453125 -13.316650390625Q120.30224609375 -12.8310546875 120.30224609375 -11.96142578125Q120.30224609375 -10.97119140625 119.518310546875 -10.3935546875Q118.734375 -9.81591796875 117.36328125 -9.81591796875Q116.7919921875 -9.81591796875 116.173095703125 -9.927001953125Q115.55419921875 -10.0380859375 114.86865234375 -10.26025390625V-11.46630859375Q115.51611328125 -11.1298828125 116.14453125 -10.961669921875Q116.77294921875 -10.79345703125 117.388671875 -10.79345703125Q118.2138671875 -10.79345703125 118.658203125 -11.075927734375Q119.1025390625 -11.3583984375 119.1025390625 -11.87255859375Q119.1025390625 -12.3486328125 118.781982421875 -12.6025390625Q118.46142578125 -12.8564453125 117.3759765625 -13.09130859375L116.9697265625 -13.1865234375Q115.88427734375 -13.4150390625 115.40185546875 -13.887939453125Q114.91943359375 -14.36083984375 114.91943359375 -15.18603515625Q114.91943359375 -16.18896484375 115.63037109375 -16.73486328125Q116.34130859375 -17.28076171875 117.64892578125 -17.28076171875Q118.29638671875 -17.28076171875 118.86767578125 -17.185546875Q119.43896484375 -17.09033203125 119.92138671875 -16.89990234375Z" fill="#000"/></g><g transform="translate(58.00,228.00)" data-plotlet-kind="panel" data-plotlet-title="bar" data-plotlet-xscale="category" data-plotlet-yscale="linear" data-plotlet-ylim="0,3.15" data-plotlet-panel-bbox="0,198,296,198" data-plotlet-data-area="58,30,220,120"><metadata data-plotlet-payload="xcategories"><![CDATA[["a","b","c"]]]></metadata><g class="plotlet-artist" data-plotlet-type="bar" data-plotlet-index="0" data-plotlet-color="#1f77b4" data-plotlet-n="3" data-plotlet-y-min="1" data-plotlet-y-max="3"><rect x="13.75" y="5.71" width="55.00" height="114.29" fill="#1f77b4"/><rect x="82.50" y="81.90" width="55.00" height="38.10" fill="#1f77b4"/><rect x="151.25" y="43.81" width="55.00" height="76.19" fill="#1f77b4"/></g><line x1="0" y1="0" x2="220.0" y2="0" stroke="#000000" stroke-width="0.8"/><line x1="0" y1="120.0" x2="220.0" y2="120.0" stroke="#000000" stroke-width="0.8"/><line x1="0" y1="0" x2="0" y2="120.0" stroke="#000000" stroke-width="0.8"/><line x1="220.0" y1="0" x2="220.0" y2="120.0" stroke="#000000" stroke-width="0.8"/><line x1="41.25" x2="41.25" y1="120.0" y2="123.5" stroke="#000000" stroke-width="0.8"/><path d="M41.650146484375 132.47607421875Q40.452392578125 132.47607421875 39.990478515625 132.75Q39.528564453125 133.02392578125 39.528564453125 133.6845703125Q39.528564453125 134.2109375 39.875 134.519775390625Q40.221435546875 134.82861328125 40.817626953125 134.82861328125Q41.639404296875 134.82861328125 42.13623046875 134.245849609375Q42.633056640625 133.6630859375 42.633056640625 132.6962890625V132.47607421875ZM43.621337890625 132.06787109375V135.5H42.633056640625V134.5869140625Q42.294677734375 135.134765625 41.789794921875 135.395263671875Q41.284912109375 135.65576171875 40.554443359375 135.65576171875Q39.630615234375 135.65576171875 39.08544921875 135.137451171875Q38.540283203125 134.619140625 38.540283203125 133.7490234375Q38.540283203125 132.73388671875 39.2197265625 132.21826171875Q39.899169921875 131.70263671875 41.247314453125 131.70263671875H42.633056640625V131.60595703125Q42.633056640625 130.923828125 42.1845703125 130.550537109375Q41.736083984375 130.17724609375 40.925048828125 130.17724609375Q40.409423828125 130.17724609375 39.920654296875 130.30078125Q39.431884765625 130.42431640625 38.980712890625 130.67138671875V129.75830078125Q39.523193359375 129.548828125 40.033447265625 129.444091796875Q40.543701171875 129.33935546875 41.027099609375 129.33935546875Q42.332275390625 129.33935546875 42.976806640625 130.01611328125Q43.621337890625 130.69287109375 43.621337890625 132.06787109375Z" fill="#000"/><line x1="110.00" x2="110.00" y1="120.0" y2="123.5" stroke="#000000" stroke-width="0.8"/><path d="M111.86376953125 132.49755859375Q111.86376953125 131.4072265625 111.415283203125 130.786865234375Q110.966796875 130.16650390625 110.1826171875 130.16650390625Q109.3984375 130.16650390625 108.949951171875 130.786865234375Q108.50146484375 131.4072265625 108.50146484375 132.49755859375Q108.50146484375 133.587890625 108.949951171875 134.208251953125Q109.3984375 134.82861328125 110.1826171875 134.82861328125Q110.966796875 134.82861328125 111.415283203125 134.208251953125Q111.86376953125 133.587890625 111.86376953125 132.49755859375ZM108.50146484375 130.3974609375Q108.81298828125 129.8603515625 109.288330078125 129.599853515625Q109.763671875 129.33935546875 110.42431640625 129.33935546875Q111.52001953125 129.33935546875 112.204833984375 130.20947265625Q112.8896484375 131.07958984375 112.8896484375 132.49755859375Q112.8896484375 133.91552734375 112.204833984375 134.78564453125Q111.52001953125 135.65576171875 110.42431640625 135.65576171875Q109.763671875 135.65576171875 109.288330078125 135.395263671875Q108.81298828125 135.134765625 108.50146484375 134.59765625V135.5H107.5078125V127.142578125H108.50146484375Z" fill="#000"/><line x1="178.75" x2="178.75" y1="120.0" y2="123.5" stroke="#000000" stroke-width="0.8"/><path d="M181.091796875 129.71533203125V130.63916015625Q180.6728515625 130.408203125 180.251220703125 130.292724609375Q179.82958984375 130.17724609375 179.39990234375 130.17724609375Q178.4384765625 130.17724609375 177.90673828125 130.786865234375Q177.375 131.396484375 177.375 132.49755859375Q177.375 133.5986328125 177.90673828125 134.208251953125Q178.4384765625 134.81787109375 179.39990234375 134.81787109375Q179.82958984375 134.81787109375 180.251220703125 134.702392578125Q180.6728515625 134.5869140625 181.091796875 134.35595703125V135.26904296875Q180.67822265625 135.46240234375 180.235107421875 135.55908203125Q179.7919921875 135.65576171875 179.29248046875 135.65576171875Q177.93359375 135.65576171875 177.13330078125 134.8017578125Q176.3330078125 133.94775390625 176.3330078125 132.49755859375Q176.3330078125 131.02587890625 177.141357421875 130.1826171875Q177.94970703125 129.33935546875 179.35693359375 129.33935546875Q179.8134765625 129.33935546875 180.24853515625 129.433349609375Q180.68359375 129.52734375 181.091796875 129.71533203125Z" fill="#000"/><line x1="0" x2="-3.5" y1="120.00" y2="120.00" stroke="#000000" stroke-width="0.8"/><path d="M-11.001953125 116.6953125Q-11.83984375 116.6953125 -12.261474609375 117.519775390625Q-12.68310546875 118.34423828125 -12.68310546875 119.99853515625Q-12.68310546875 121.6474609375 -12.261474609375 122.471923828125Q-11.83984375 123.29638671875 -11.001953125 123.29638671875Q-10.15869140625 123.29638671875 -9.737060546875 122.471923828125Q-9.3154296875 121.6474609375 -9.3154296875 119.99853515625Q-9.3154296875 118.34423828125 -9.737060546875 117.519775390625Q-10.15869140625 116.6953125 -11.001953125 116.6953125ZM-11.001953125 115.8359375Q-9.65380859375 115.8359375 -8.942138671875 116.902099609375Q-8.23046875 117.96826171875 -8.23046875 119.99853515625Q-8.23046875 122.0234375 -8.942138671875 123.089599609375Q-9.65380859375 124.15576171875 -11.001953125 124.15576171875Q-12.35009765625 124.15576171875 -13.061767578125 123.089599609375Q-13.7734375 122.0234375 -13.7734375 119.99853515625Q-13.7734375 117.96826171875 -13.061767578125 116.902099609375Q-12.35009765625 115.8359375 -11.001953125 115.8359375Z" fill="#000"/><line x1="0" x2="-3.5" y1="81.90" y2="81.90" stroke="#000000" stroke-width="0.8"/><path d="M-13.13427734375 84.9916759672619H-11.36181640625V78.8740001860119L-13.2900390625 79.2607189360119V78.2724376860119L-11.37255859375 77.8857189360119H-10.28759765625V84.9916759672619H-8.51513671875V85.9047619047619H-13.13427734375Z" fill="#000"/><line x1="0" x2="-3.5" y1="43.81" y2="43.81" stroke="#000000" stroke-width="0.8"/><path d="M-12.3876953125 46.89643787202381H-8.60107421875V47.80952380952381H-13.69287109375V46.89643787202381Q-13.0751953125 46.25727771577381 -12.009033203125 45.18037341889881Q-10.94287109375 44.10346912202381 -10.6689453125 43.79194568452381Q-10.14794921875 43.20649646577381 -9.941162109375 42.80097888764881Q-9.734375 42.39546130952381 -9.734375 42.00337146577381Q-9.734375 41.36421130952381 -10.182861328125 40.96137927827381Q-10.63134765625 40.55854724702381 -11.35107421875 40.55854724702381Q-11.861328125 40.55854724702381 -12.427978515625 40.73579334077381Q-12.99462890625 40.91303943452381 -13.63916015625 41.27290271577381V40.17719959077381Q-12.98388671875 39.91401599702381 -12.41455078125 39.77973865327381Q-11.84521484375 39.64546130952381 -11.37255859375 39.64546130952381Q-10.12646484375 39.64546130952381 -9.38525390625 40.26850818452381Q-8.64404296875 40.89155505952381 -8.64404296875 41.93354724702381Q-8.64404296875 42.42768787202381 -8.829345703125 42.87080310639881Q-9.0146484375 43.31391834077381 -9.50341796875 43.91548084077381Q-9.6376953125 44.07124255952381 -10.357421875 44.81513904389881Q-11.0771484375 45.55903552827381 -12.3876953125 46.89643787202381Z" fill="#000"/><line x1="0" x2="-3.5" y1="5.71" y2="5.71" stroke="#000000" stroke-width="0.8"/><path d="M-10.03515625 5.390555245535708Q-9.25634765625 5.557059151785708 -8.818603515625 6.083426339285708Q-8.380859375 6.609793526785708 -8.380859375 7.383231026785708Q-8.380859375 8.570242745535708 -9.197265625 9.220145089285708Q-10.013671875 9.870047433035708 -11.517578125 9.870047433035708Q-12.0224609375 9.870047433035708 -12.556884765625 9.770682198660708Q-13.09130859375 9.671316964285708 -13.66064453125 9.472586495535708V8.425223214285708Q-13.20947265625 8.688406808035708 -12.67236328125 8.822684151785708Q-12.13525390625 8.956961495535708 -11.5498046875 8.956961495535708Q-10.529296875 8.956961495535708 -9.994873046875 8.554129464285708Q-9.46044921875 8.151297433035708 -9.46044921875 7.383231026785708Q-9.46044921875 6.674246651785708 -9.957275390625 6.274100167410708Q-10.4541015625 5.873953683035708 -11.34033203125 5.873953683035708H-12.27490234375V4.982352120535708H-11.29736328125Q-10.4970703125 4.982352120535708 -10.07275390625 4.662772042410708Q-9.6484375 4.343191964285708 -9.6484375 3.741629464285708Q-9.6484375 3.123953683035708 -10.086181640625 2.793631417410708Q-10.52392578125 2.463309151785708 -11.34033203125 2.463309151785708Q-11.7861328125 2.463309151785708 -12.29638671875 2.559988839285708Q-12.806640625 2.656668526785708 -13.4189453125 2.860770089285708V1.8939732142857082Q-12.80126953125 1.7220982142857082 -12.261474609375 1.6361607142857082Q-11.7216796875 1.5502232142857082 -11.24365234375 1.5502232142857082Q-10.00830078125 1.5502232142857082 -9.28857421875 2.111502511160708Q-8.56884765625 2.672781808035708 -8.56884765625 3.628836495535708Q-8.56884765625 4.294852120535708 -8.9501953125 4.754080636160708Q-9.33154296875 5.213309151785708 -10.03515625 5.390555245535708Z" fill="#000"/><path d="M105.547119140625 -13.54833984375Q105.547119140625 -14.8369140625 105.01708984375 -15.570068359375Q104.487060546875 -16.30322265625 103.560302734375 -16.30322265625Q102.633544921875 -16.30322265625 102.103515625 -15.570068359375Q101.573486328125 -14.8369140625 101.573486328125 -13.54833984375Q101.573486328125 -12.259765625 102.103515625 -11.526611328125Q102.633544921875 -10.79345703125 103.560302734375 -10.79345703125Q104.487060546875 -10.79345703125 105.01708984375 -11.526611328125Q105.547119140625 -12.259765625 105.547119140625 -13.54833984375ZM101.573486328125 -16.0302734375Q101.941650390625 -16.6650390625 102.50341796875 -16.972900390625Q103.065185546875 -17.28076171875 103.845947265625 -17.28076171875Q105.140869140625 -17.28076171875 105.9501953125 -16.25244140625Q106.759521484375 -15.22412109375 106.759521484375 -13.54833984375Q106.759521484375 -11.87255859375 105.9501953125 -10.84423828125Q105.140869140625 -9.81591796875 103.845947265625 -9.81591796875Q103.065185546875 -9.81591796875 102.50341796875 -10.123779296875Q101.941650390625 -10.431640625 101.573486328125 -11.06640625V-10.0H100.399169921875V-19.876953125H101.573486328125ZM111.926513671875 -13.57373046875Q110.510986328125 -13.57373046875 109.965087890625 -13.25Q109.419189453125 -12.92626953125 109.419189453125 -12.1455078125Q109.419189453125 -11.5234375 109.82861328125 -11.158447265625Q110.238037109375 -10.79345703125 110.942626953125 -10.79345703125Q111.913818359375 -10.79345703125 112.5009765625 -11.482177734375Q113.088134765625 -12.1708984375 113.088134765625 -13.3134765625V-13.57373046875ZM114.256103515625 -14.05615234375V-10.0H113.088134765625V-11.0791015625Q112.688232421875 -10.431640625 112.091552734375 -10.123779296875Q111.494873046875 -9.81591796875 110.631591796875 -9.81591796875Q109.539794921875 -9.81591796875 108.8955078125 -10.428466796875Q108.251220703125 -11.041015625 108.251220703125 -12.0693359375Q108.251220703125 -13.26904296875 109.05419921875 -13.87841796875Q109.857177734375 -14.48779296875 111.450439453125 -14.48779296875H113.088134765625V-14.60205078125Q113.088134765625 -15.408203125 112.55810546875 -15.849365234375Q112.028076171875 -16.29052734375 111.069580078125 -16.29052734375Q110.460205078125 -16.29052734375 109.882568359375 -16.14453125Q109.304931640625 -15.99853515625 108.771728515625 -15.70654296875V-16.78564453125Q109.412841796875 -17.033203125 110.015869140625 -17.156982421875Q110.618896484375 -17.28076171875 111.190185546875 -17.28076171875Q112.732666015625 -17.28076171875 113.494384765625 -16.48095703125Q114.256103515625 -15.68115234375 114.256103515625 -14.05615234375ZM120.781494140625 -16.017578125Q120.584716796875 -16.1318359375 120.35302734375 -16.185791015625Q120.121337890625 -16.23974609375 119.842041015625 -16.23974609375Q118.851806640625 -16.23974609375 118.32177734375 -15.595458984375Q117.791748046875 -14.951171875 117.791748046875 -13.7451171875V-10.0H116.617431640625V-17.109375H117.791748046875V-16.0048828125Q118.159912109375 -16.65234375 118.750244140625 -16.966552734375Q119.340576171875 -17.28076171875 120.184814453125 -17.28076171875Q120.305419921875 -17.28076171875 120.451416015625 -17.264892578125Q120.597412109375 -17.2490234375 120.775146484375 -17.21728515625Z" fill="#000"/></g><g transform="translate(354.00,228.00)" data-plotlet-kind="panel" data-plotlet-title="hist" data-plotlet-xscale="linear" data-plotlet-yscale="linear" data-plotlet-xlim="0.04,1.36" data-plotlet-ylim="0,2.1" data-plotlet-panel-bbox="296,198,296,198" data-plotlet-data-area="58,30,220,120"><g class="plotlet-artist" data-plotlet-type="hist" data-plotlet-index="0" data-plotlet-color="#1f77b4" data-plotlet-n="9" data-plotlet-bins="6" data-plotlet-x-min="0.1" data-plotlet-x-max="1.3" data-plotlet-count-max="2"><rect x="10.50" y="62.86" width="32.33" height="57.14" fill="#1f77b4"/><rect x="43.83" y="62.86" width="32.33" height="57.14" fill="#1f77b4"/><rect x="77.17" y="5.71" width="32.33" height="114.29" fill="#1f77b4"/><rect x="110.50" y="5.71" width="32.33" height="114.29" fill="#1f77b4"/><rect x="143.83" y="62.86" width="32.33" height="57.14" fill="#1f77b4"/><rect x="177.17" y="5.71" width="32.33" height="114.29" fill="#1f77b4"/></g><line x1="0" y1="0" x2="220.0" y2="0" stroke="#000000" stroke-width="0.8"/><line x1="0" y1="120.0" x2="220.0" y2="120.0" stroke="#000000" stroke-width="0.8"/><line x1="0" y1="0" x2="0" y2="120.0" stroke="#000000" stroke-width="0.8"/><line x1="220.0" y1="0" x2="220.0" y2="120.0" stroke="#000000" stroke-width="0.8"/><line x1="76.67" x2="76.67" y1="120.0" y2="123.5" stroke="#000000" stroke-width="0.8"/><path d="M71.41642252604166 128.1953125Q70.57853190104166 128.1953125 70.15690104166666 129.019775390625Q69.73527018229166 129.84423828125 69.73527018229166 131.49853515625Q69.73527018229166 133.1474609375 70.15690104166666 133.971923828125Q70.57853190104166 134.79638671875 71.41642252604166 134.79638671875Q72.25968424479166 134.79638671875 72.68131510416666 133.971923828125Q73.10294596354166 133.1474609375 73.10294596354166 131.49853515625Q73.10294596354166 129.84423828125 72.68131510416666 129.019775390625Q72.25968424479166 128.1953125 71.41642252604166 128.1953125ZM71.41642252604166 127.3359375Q72.76456705729166 127.3359375 73.47623697916666 128.402099609375Q74.18790690104166 129.46826171875 74.18790690104166 131.49853515625Q74.18790690104166 133.5234375 73.47623697916666 134.589599609375Q72.76456705729166 135.65576171875 71.41642252604166 135.65576171875Q70.06827799479166 135.65576171875 69.35660807291666 134.589599609375Q68.64493815104166 133.5234375 68.64493815104166 131.49853515625Q68.64493815104166 129.46826171875 69.35660807291666 128.402099609375Q70.06827799479166 127.3359375 71.41642252604166 127.3359375ZM76.09464518229166 134.1357421875H77.22794596354166V135.5H76.09464518229166ZM79.60196940104166 127.48095703125H83.86124674479166V128.39404296875H80.59562174479166V130.35986328125Q80.83194986979166 130.279296875 81.06827799479166 130.239013671875Q81.30460611979166 130.19873046875 81.54093424479166 130.19873046875Q82.88370768229166 130.19873046875 83.66788736979166 130.9345703125Q84.45206705729166 131.67041015625 84.45206705729166 132.92724609375Q84.45206705729166 134.2216796875 83.64640299479166 134.938720703125Q82.84073893229166 135.65576171875 81.37443033854166 135.65576171875Q80.86954752604166 135.65576171875 80.34586588541666 135.56982421875Q79.82218424479166 135.48388671875 79.26359049479166 135.31201171875V134.2216796875Q79.74698893229166 134.48486328125 80.26261393229166 134.61376953125Q80.77823893229166 134.74267578125 81.35294596354166 134.74267578125Q82.28214518229166 134.74267578125 82.82462565104166 134.25390625Q83.36710611979166 133.76513671875 83.36710611979166 132.92724609375Q83.36710611979166 132.08935546875 82.82462565104166 131.6005859375Q82.28214518229166 131.11181640625 81.35294596354166 131.11181640625Q80.91788736979166 131.11181640625 80.48551432291666 131.20849609375Q80.05314127604166 131.30517578125 79.60196940104166 131.50927734375Z" fill="#000"/><line x1="160.00" x2="160.00" y1="120.0" y2="123.5" stroke="#000000" stroke-width="0.8"/><path d="M157.86499023437497 134.5869140625H159.63745117187497V128.46923828125L157.70922851562497 128.85595703125V127.86767578125L159.62670898437497 127.48095703125H160.71166992187497V134.5869140625H162.48413085937497V135.5H157.86499023437497Z" fill="#000"/><line x1="0" x2="-3.5" y1="120.00" y2="120.00" stroke="#000000" stroke-width="0.8"/><path d="M-11.001953125 116.6953125Q-11.83984375 116.6953125 -12.261474609375 117.519775390625Q-12.68310546875 118.34423828125 -12.68310546875 119.99853515625Q-12.68310546875 121.6474609375 -12.261474609375 122.471923828125Q-11.83984375 123.29638671875 -11.001953125 123.29638671875Q-10.15869140625 123.29638671875 -9.737060546875 122.471923828125Q-9.3154296875 121.6474609375 -9.3154296875 119.99853515625Q-9.3154296875 118.34423828125 -9.737060546875 117.519775390625Q-10.15869140625 116.6953125 -11.001953125 116.6953125ZM-11.001953125 115.8359375Q-9.65380859375 115.8359375 -8.942138671875 116.902099609375Q-8.23046875 117.96826171875 -8.23046875 119.99853515625Q-8.23046875 122.0234375 -8.942138671875 123.089599609375Q-9.65380859375 124.15576171875 -11.001953125 124.15576171875Q-12.35009765625 124.15576171875 -13.061767578125 123.089599609375Q-13.7734375 122.0234375 -13.7734375 119.99853515625Q-13.7734375 117.96826171875 -13.061767578125 116.902099609375Q-12.35009765625 115.8359375 -11.001953125 115.8359375Z" fill="#000"/><line x1="0" x2="-3.5" y1="62.86" y2="62.86" stroke="#000000" stroke-width="0.8"/><path d="M-13.13427734375 65.94405691964286H-11.36181640625V59.82638113839286L-13.2900390625 60.21309988839286V59.22481863839286L-11.37255859375 58.83809988839286H-10.28759765625V65.94405691964286H-8.51513671875V66.85714285714286H-13.13427734375Z" fill="#000"/><line x1="0" x2="-3.5" y1="5.71" y2="5.71" stroke="#000000" stroke-width="0.8"/><path d="M-12.3876953125 8.801199776785722H-8.60107421875V9.714285714285722H-13.69287109375V8.801199776785722Q-13.0751953125 8.162039620535722 -12.009033203125 7.085135323660722Q-10.94287109375 6.008231026785722 -10.6689453125 5.696707589285722Q-10.14794921875 5.111258370535722 -9.941162109375 4.705740792410722Q-9.734375 4.300223214285722 -9.734375 3.9081333705357224Q-9.734375 3.2689732142857224 -10.182861328125 2.8661411830357224Q-10.63134765625 2.4633091517857224 -11.35107421875 2.4633091517857224Q-11.861328125 2.4633091517857224 -12.427978515625 2.6405552455357224Q-12.99462890625 2.8178013392857224 -13.63916015625 3.1776646205357224V2.0819614955357224Q-12.98388671875 1.8187779017857224 -12.41455078125 1.6845005580357224Q-11.84521484375 1.5502232142857224 -11.37255859375 1.5502232142857224Q-10.12646484375 1.5502232142857224 -9.38525390625 2.1732700892857224Q-8.64404296875 2.7963169642857224 -8.64404296875 3.8383091517857224Q-8.64404296875 4.332449776785722 -8.829345703125 4.775565011160722Q-9.0146484375 5.218680245535722 -9.50341796875 5.820242745535722Q-9.6376953125 5.976004464285722 -10.357421875 6.719900948660722Q-11.0771484375 7.463797433035722 -12.3876953125 8.801199776785722Z" fill="#000"/><path d="M105.274169921875 -14.291015625V-10.0H104.106201171875V-14.2529296875Q104.106201171875 -15.26220703125 103.712646484375 -15.763671875Q103.319091796875 -16.26513671875 102.531982421875 -16.26513671875Q101.586181640625 -16.26513671875 101.040283203125 -15.662109375Q100.494384765625 -15.05908203125 100.494384765625 -14.01806640625V-10.0H99.320068359375V-19.876953125H100.494384765625V-16.0048828125Q100.913330078125 -16.64599609375 101.4814453125 -16.96337890625Q102.049560546875 -17.28076171875 102.792236328125 -17.28076171875Q104.017333984375 -17.28076171875 104.645751953125 -16.522216796875Q105.274169921875 -15.763671875 105.274169921875 -14.291015625ZM107.603759765625 -17.109375H108.771728515625V-10.0H107.603759765625ZM107.603759765625 -19.876953125H108.771728515625V-18.39794921875H107.603759765625ZM115.747802734375 -16.89990234375V-15.79541015625Q115.252685546875 -16.04931640625 114.719482421875 -16.17626953125Q114.186279296875 -16.30322265625 113.614990234375 -16.30322265625Q112.745361328125 -16.30322265625 112.310546875 -16.03662109375Q111.875732421875 -15.77001953125 111.875732421875 -15.23681640625Q111.875732421875 -14.83056640625 112.186767578125 -14.598876953125Q112.497802734375 -14.3671875 113.437255859375 -14.15771484375L113.837158203125 -14.06884765625Q115.081298828125 -13.80224609375 115.60498046875 -13.316650390625Q116.128662109375 -12.8310546875 116.128662109375 -11.96142578125Q116.128662109375 -10.97119140625 115.3447265625 -10.3935546875Q114.560791015625 -9.81591796875 113.189697265625 -9.81591796875Q112.618408203125 -9.81591796875 111.99951171875 -9.927001953125Q111.380615234375 -10.0380859375 110.695068359375 -10.26025390625V-11.46630859375Q111.342529296875 -11.1298828125 111.970947265625 -10.961669921875Q112.599365234375 -10.79345703125 113.215087890625 -10.79345703125Q114.040283203125 -10.79345703125 114.484619140625 -11.075927734375Q114.928955078125 -11.3583984375 114.928955078125 -11.87255859375Q114.928955078125 -12.3486328125 114.6083984375 -12.6025390625Q114.287841796875 -12.8564453125 113.202392578125 -13.09130859375L112.796142578125 -13.1865234375Q111.710693359375 -13.4150390625 111.228271484375 -13.887939453125Q110.745849609375 -14.36083984375 110.745849609375 -15.18603515625Q110.745849609375 -16.18896484375 111.456787109375 -16.73486328125Q112.167724609375 -17.28076171875 113.475341796875 -17.28076171875Q114.122802734375 -17.28076171875 114.694091796875 -17.185546875Q115.265380859375 -17.09033203125 115.747802734375 -16.89990234375ZM119.143798828125 -19.1279296875V-17.109375H121.549560546875V-16.20166015625H119.143798828125V-12.34228515625Q119.143798828125 -11.47265625 119.3818359375 -11.22509765625Q119.619873046875 -10.9775390625 120.349853515625 -10.9775390625H121.549560546875V-10.0H120.349853515625Q118.997802734375 -10.0 118.483642578125 -10.504638671875Q117.969482421875 -11.00927734375 117.969482421875 -12.34228515625V-16.20166015625H117.112548828125V-17.109375H117.969482421875V-19.1279296875Z" fill="#000"/></g></svg>