<svg xmlns="http://www.w3.org/2000/svg" width="378" height="407" viewBox="0 0 378 407" font-family="DejaVu Sans, Bitstream Vera Sans, Verdana, Arial, sans-serif" font-size="11" data-plotlet-version="0.6.0" data-plotlet-schema="2" data-plotlet-kind="layout"><rect width="378" height="407" fill="#fff"/><g transform="translate(4,4)"><path d="M134.00 7.86Q134.00 6.27 133.35 5.37Q132.70 4.47 131.56 4.47Q130.42 4.47 129.77 5.37Q129.11 6.27 129.11 7.86Q129.11 9.45 129.77 10.35Q130.42 11.25 131.56 11.25Q132.70 11.25 133.35 10.35Q134.00 9.45 134.00 7.86ZM129.11 4.80Q129.57 4.02 130.26 3.64Q130.95 3.27 131.91 3.27Q133.50 3.27 134.50 4.53Q135.50 5.80 135.50 7.86Q135.50 9.92 134.50 11.19Q133.50 12.45 131.91 12.45Q130.95 12.45 130.26 12.07Q129.57 11.70 129.11 10.91V12.23H127.67V0.07H129.11ZM141.27 4.48Q140.11 4.48 139.44 5.39Q138.77 6.29 138.77 7.86Q138.77 9.43 139.44 10.33Q140.11 11.23 141.27 11.23Q142.42 11.23 143.09 10.33Q143.76 9.42 143.76 7.86Q143.76 6.30 143.09 5.39Q142.42 4.48 141.27 4.48ZM141.27 3.27Q143.14 3.27 144.21 4.48Q145.29 5.70 145.29 7.86Q145.29 10.01 144.21 11.23Q143.14 12.45 141.27 12.45Q139.39 12.45 138.32 11.23Q137.25 10.01 137.25 7.86Q137.25 5.70 138.32 4.48Q139.39 3.27 141.27 3.27ZM154.94 3.48 151.78 7.73 155.11 12.23H153.41L150.86 8.79L148.32 12.23H146.62L150.02 7.65L146.91 3.48H148.61L150.93 6.59L153.25 3.48ZM158.53 10.91V15.55H157.08V3.48H158.53V4.80Q158.98 4.02 159.67 3.64Q160.36 3.27 161.32 3.27Q162.92 3.27 163.91 4.53Q164.91 5.80 164.91 7.86Q164.91 9.92 163.91 11.19Q162.92 12.45 161.32 12.45Q160.36 12.45 159.67 12.07Q158.98 11.70 158.53 10.91ZM163.42 7.86Q163.42 6.27 162.77 5.37Q162.11 4.47 160.97 4.47Q159.83 4.47 159.18 5.37Q158.53 6.27 158.53 7.86Q158.53 9.45 159.18 10.35Q159.83 11.25 160.97 11.25Q162.11 11.25 162.77 10.35Q163.42 9.45 163.42 7.86ZM167.29 0.07H168.73V12.23H167.29ZM175.13 4.48Q173.97 4.48 173.30 5.39Q172.63 6.29 172.63 7.86Q172.63 9.43 173.30 10.33Q173.96 11.23 175.13 11.23Q176.28 11.23 176.95 10.33Q177.62 9.42 177.62 7.86Q177.62 6.30 176.95 5.39Q176.28 4.48 175.13 4.48ZM175.13 3.27Q177.00 3.27 178.07 4.48Q179.14 5.70 179.14 7.86Q179.14 10.01 178.07 11.23Q177.00 12.45 175.13 12.45Q173.25 12.45 172.18 11.23Q171.11 10.01 171.11 7.86Q171.11 5.70 172.18 4.48Q173.25 3.27 175.13 3.27ZM182.95 0.99V3.48H185.91V4.59H182.95V9.34Q182.95 10.41 183.24 10.72Q183.54 11.02 184.43 11.02H185.91V12.23H184.43Q182.77 12.23 182.14 11.61Q181.50 10.98 181.50 9.34V4.59H180.45V3.48H181.50V0.99ZM192.16 7.28H206.60V8.41H192.16ZM219.04 4.82Q218.80 4.68 218.52 4.61Q218.23 4.55 217.89 4.55Q216.67 4.55 216.02 5.34Q215.36 6.13 215.36 7.62V12.23H213.92V3.48H215.36V4.84Q215.82 4.04 216.54 3.65Q217.27 3.27 218.31 3.27Q218.46 3.27 218.64 3.29Q218.82 3.30 219.04 3.34ZM220.55 3.48H221.99V12.23H220.55ZM220.55 0.07H221.99V1.89H220.55ZM232.27 6.95V12.23H230.83V6.99Q230.83 5.75 230.35 5.13Q229.86 4.52 228.89 4.52Q227.73 4.52 227.06 5.26Q226.39 6.00 226.39 7.28V12.23H224.94V3.48H226.39V4.84Q226.90 4.05 227.60 3.66Q228.30 3.27 229.21 3.27Q230.72 3.27 231.50 4.20Q232.27 5.13 232.27 6.95ZM240.89 7.75Q240.89 6.19 240.25 5.33Q239.61 4.47 238.44 4.47Q237.29 4.47 236.64 5.33Q236.00 6.19 236.00 7.75Q236.00 9.30 236.64 10.16Q237.29 11.02 238.44 11.02Q239.61 11.02 240.25 10.16Q240.89 9.30 240.89 7.75ZM242.33 11.14Q242.33 13.38 241.34 14.46Q240.35 15.55 238.30 15.55Q237.54 15.55 236.87 15.44Q236.20 15.33 235.57 15.09V13.70Q236.20 14.04 236.82 14.20Q237.43 14.37 238.07 14.37Q239.49 14.37 240.19 13.63Q240.89 12.89 240.89 11.40V10.69Q240.45 11.46 239.75 11.84Q239.06 12.23 238.09 12.23Q236.48 12.23 235.50 11.00Q234.51 9.77 234.51 7.75Q234.51 5.72 235.50 4.49Q236.48 3.27 238.09 3.27Q239.06 3.27 239.75 3.65Q240.45 4.03 240.89 4.80V3.48H242.33Z" fill="#000"/><g transform="translate(0,29)"><g transform="translate(0,0)" data-plotlet-kind="panel" data-plotlet-xscale="category" data-plotlet-yscale="linear" data-plotlet-ylim="0.1256604726,1.053546853" data-plotlet-panel-bbox="0,0,370,370" data-plotlet-data-area="0,0,370,370"><metadata data-plotlet-payload="xcategories"><![CDATA[["c0","c1","c2","c3","c4","c5"]]]></metadata><defs><clipPath id="pc0"><path d="M 25.00,185.00 A 160.00,160.00 0 1,0 345.00,185.00 A 160.00,160.00 0 1,0 25.00,185.00 Z M 137.00,185.00 A 48.00,48.00 0 1,0 233.00,185.00 A 48.00,48.00 0 1,0 137.00,185.00 Z" clip-rule="evenodd"/></clipPath></defs><g clip-path="url(#pc0)"><g class="plotlet-artist" data-plotlet-type="boxplot" data-plotlet-index="0" data-plotlet-color="#1f77b4"><path d="M215.11,106.17 L217.02,106.92 L218.91,107.73 L220.77,108.57 L222.62,109.47 L224.45,110.40 L226.25,111.39 L228.03,112.41 L229.78,113.48 L231.51,114.59 L233.21,115.74 L234.88,116.93 L236.52,118.17 L238.13,119.44 L239.71,120.75 L241.25,122.10 L242.77,123.49 L244.24,124.91 L245.69,126.37 L247.10,127.86 L248.47,129.39 L247.92,129.87 L247.37,130.35 L246.82,130.83 L246.27,131.31 L245.72,131.80 L245.17,132.28 L244.62,132.76 L244.07,133.24 L243.52,133.72 L242.97,134.20 L242.42,134.69 L241.87,135.17 L241.32,135.65 L240.77,136.13 L240.22,136.61 L239.67,137.09 L239.12,137.58 L238.57,138.06 L238.02,138.54 L237.47,139.02 L236.34,137.76 L235.18,136.52 L233.98,135.32 L232.76,134.14 L231.51,132.99 L230.23,131.88 L228.93,130.79 L227.59,129.74 L226.24,128.72 L224.86,127.74 L223.45,126.78 L222.03,125.87 L220.58,124.98 L219.11,124.14 L217.62,123.32 L216.11,122.55 L214.58,121.81 L213.03,121.11 L211.47,120.45 L209.89,119.82 L210.15,119.14 L210.41,118.46 L210.68,117.77 L210.94,117.09 L211.20,116.41 L211.46,115.73 L211.72,115.04 L211.98,114.36 L212.24,113.68 L212.50,113.00 L212.76,112.31 L213.02,111.63 L213.28,110.95 L213.54,110.27 L213.80,109.58 L214.06,108.90 L214.33,108.22 L214.59,107.53 L214.85,106.85 L215.11,106.17Z" fill="#66c2a5" stroke="#000000" stroke-width="1.00" fill-opacity="0.55"/><path d="M212.29,113.56 L214.02,114.24 L215.73,114.97 L217.42,115.74 L219.10,116.54 L220.75,117.39 L222.39,118.28 L224.00,119.21 L225.59,120.18 L227.15,121.19 L228.69,122.23 L230.20,123.31 L231.69,124.43 L233.15,125.58 L234.58,126.77 L235.98,127.99 L237.35,129.25 L238.69,130.54 L240.00,131.86 L241.28,133.22 L242.52,134.60" fill="none" stroke="#000000" stroke-width="1.60"/><path d="M233.21,115.74 L233.80,114.89 L234.39,114.04 L234.98,113.19 L235.58,112.34 L236.17,111.48 L236.76,110.63 L237.35,109.78 L237.95,108.93 L238.54,108.08 L239.13,107.23 L239.72,106.38 L240.31,105.53 L240.91,104.68 L241.50,103.83 L242.09,102.97 L242.68,102.12 L243.28,101.27 L243.87,100.42 L244.46,99.57 L245.05,98.72" fill="none" stroke="#000000" stroke-width="1.00"/><path d="M226.25,111.39 L226.97,111.79 L227.68,112.20 L228.38,112.62 L229.08,113.05 L229.78,113.48 L230.48,113.92 L231.16,114.36 L231.85,114.82 L232.53,115.27 L233.21,115.74 L233.88,116.21 L234.54,116.69 L235.21,117.18 L235.86,117.67 L236.52,118.17 L237.16,118.67 L237.81,119.18 L238.45,119.70 L239.08,120.22 L239.71,120.75" fill="none" stroke="#000000" stroke-width="1.00"/><path d="M236.39,93.29 L237.28,93.80 L238.16,94.31 L239.04,94.83 L239.92,95.36 L240.79,95.90 L241.65,96.45 L242.51,97.00 L243.36,97.57 L244.21,98.14 L245.05,98.72 L245.89,99.31 L246.72,99.90 L247.55,100.51 L248.36,101.12 L249.18,101.74 L249.98,102.37 L250.79,103.01 L251.58,103.65 L252.37,104.30 L253.15,104.96" fill="none" stroke="#000000" stroke-width="1.00"/><path d="M224.86,127.74 L224.38,128.42 L223.90,129.11 L223.43,129.79 L222.95,130.47 L222.47,131.16 L222.00,131.84 L221.52,132.53 L221.05,133.21 L220.57,133.90 L220.09,134.58 L219.62,135.27 L219.14,135.95 L218.66,136.63 L218.19,137.32 L217.71,138.00 L217.23,138.69 L216.76,139.37 L216.28,140.06 L215.81,140.74 L215.33,141.42" fill="none" stroke="#000000" stroke-width="1.00"/><path d="M219.11,124.14 L219.70,124.47 L220.28,124.81 L220.87,125.16 L221.45,125.51 L222.03,125.87 L222.60,126.23 L223.17,126.60 L223.74,126.97 L224.30,127.35 L224.86,127.74 L225.41,128.13 L225.96,128.52 L226.51,128.92 L227.05,129.33 L227.59,129.74 L228.13,130.16 L228.66,130.58 L229.19,131.01 L229.71,131.44 L230.23,131.88" fill="none" stroke="#000000" stroke-width="1.00"/><path d="M210.95,138.68 L211.40,138.94 L211.85,139.20 L212.29,139.46 L212.74,139.73 L213.17,140.00 L213.61,140.28 L214.04,140.56 L214.48,140.84 L214.90,141.13 L215.33,141.42 L215.75,141.72 L216.17,142.02 L216.59,142.33 L217.00,142.64 L217.41,142.95 L217.82,143.27 L218.22,143.59 L218.63,143.91 L219.02,144.24 L219.42,144.58" fill="none" stroke="#000000" stroke-width="1.00"/><path d="M305.16,161.57 L305.69,164.50 L306.16,167.44 L306.55,170.40 L306.87,173.36 L307.11,176.32 L307.29,179.30 L307.39,182.27 L307.42,185.25 L307.38,188.23 L307.26,191.20 L307.08,194.17 L306.82,197.14 L306.49,200.10 L306.08,203.05 L305.61,205.99 L305.06,208.91 L304.45,211.83 L303.76,214.72 L303.00,217.60 L302.17,220.46 L301.01,220.11 L299.85,219.76 L298.69,219.41 L297.53,219.06 L296.36,218.70 L295.20,218.35 L294.04,218.00 L292.88,217.65 L291.72,217.30 L290.56,216.95 L289.39,216.60 L288.23,216.24 L287.07,215.89 L285.91,215.54 L284.75,215.19 L283.59,214.84 L282.42,214.49 L281.26,214.13 L280.10,213.78 L278.94,213.43 L279.60,211.14 L280.21,208.83 L280.76,206.51 L281.26,204.17 L281.69,201.83 L282.07,199.47 L282.40,197.10 L282.66,194.73 L282.87,192.35 L283.02,189.97 L283.11,187.59 L283.15,185.20 L283.12,182.81 L283.04,180.43 L282.90,178.04 L282.70,175.66 L282.45,173.29 L282.13,170.92 L281.76,168.57 L281.33,166.22 L282.52,165.99 L283.72,165.75 L284.91,165.52 L286.10,165.29 L287.29,165.06 L288.48,164.82 L289.67,164.59 L290.86,164.36 L292.05,164.13 L293.25,163.90 L294.44,163.66 L295.63,163.43 L296.82,163.20 L298.01,162.97 L299.20,162.73 L300.39,162.50 L301.58,162.27 L302.78,162.04 L303.97,161.81 L305.16,161.57Z" fill="#fc8d62" stroke="#000000" stroke-width="1.00" fill-opacity="0.55"/><path d="M296.07,163.35 L296.56,166.05 L296.99,168.77 L297.35,171.50 L297.65,174.24 L297.88,176.98 L298.04,179.73 L298.13,182.48 L298.16,185.23 L298.12,187.98 L298.02,190.73 L297.84,193.48 L297.60,196.22 L297.30,198.96 L296.93,201.68 L296.49,204.40 L295.98,207.10 L295.41,209.80 L294.78,212.48 L294.07,215.14 L293.31,217.78" fill="none" stroke="#000000" stroke-width="1.60"/><path d="M307.26,191.20 L308.89,191.28 L310.51,191.37 L312.13,191.45 L313.75,191.53 L315.38,191.61 L317.00,191.69 L318.62,191.78 L320.24,191.86 L321.86,191.94 L323.49,192.02 L325.11,192.11 L326.73,192.19 L328.35,192.27 L329.98,192.35 L331.60,192.43 L333.22,192.52 L334.84,192.60 L336.47,192.68 L338.09,192.76 L339.71,192.85" fill="none" stroke="#000000" stroke-width="1.00"/><path d="M307.29,179.30 L307.34,180.49 L307.38,181.68 L307.40,182.87 L307.42,184.06 L307.42,185.25 L307.41,186.44 L307.39,187.63 L307.36,188.82 L307.32,190.01 L307.26,191.20 L307.20,192.39 L307.12,193.58 L307.03,194.77 L306.93,195.95 L306.82,197.14 L306.69,198.32 L306.56,199.51 L306.41,200.69 L306.25,201.87 L306.08,203.05" fill="none" stroke="#000000" stroke-width="1.00"/><path d="M339.74,177.78 L339.80,179.29 L339.85,180.79 L339.89,182.30 L339.90,183.81 L339.91,185.31 L339.90,186.82 L339.87,188.33 L339.83,189.83 L339.78,191.34 L339.71,192.85 L339.63,194.35 L339.53,195.85 L339.42,197.36 L339.29,198.86 L339.15,200.36 L338.99,201.86 L338.82,203.36 L338.63,204.85 L338.43,206.34 L338.22,207.84" fill="none" stroke="#000000" stroke-width="1.00"/><path d="M283.02,189.97 L282.28,189.93 L281.55,189.90 L280.81,189.86 L280.07,189.82 L279.34,189.78 L278.60,189.75 L277.86,189.71 L277.13,189.67 L276.39,189.63 L275.65,189.60 L274.92,189.56 L274.18,189.52 L273.44,189.49 L272.71,189.45 L271.97,189.41 L271.23,189.37 L270.49,189.34 L269.76,189.30 L269.02,189.26 L268.28,189.22" fill="none" stroke="#000000" stroke-width="1.00"/><path d="M283.04,180.43 L283.08,181.38 L283.11,182.33 L283.13,183.29 L283.14,184.24 L283.15,185.20 L283.14,186.15 L283.12,187.11 L283.10,188.06 L283.06,189.02 L283.02,189.97 L282.97,190.92 L282.91,191.88 L282.83,192.83 L282.75,193.78 L282.66,194.73 L282.56,195.68 L282.46,196.63 L282.34,197.58 L282.21,198.52 L282.07,199.47" fill="none" stroke="#000000" stroke-width="1.00"/><path d="M268.30,181.11 L268.33,181.92 L268.36,182.74 L268.38,183.55 L268.39,184.36 L268.39,185.17 L268.39,185.98 L268.37,186.79 L268.35,187.60 L268.32,188.41 L268.28,189.22 L268.24,190.03 L268.19,190.84 L268.13,191.65 L268.06,192.46 L267.98,193.27 L267.90,194.08 L267.80,194.88 L267.70,195.69 L267.60,196.49 L267.48,197.29" fill="none" stroke="#000000" stroke-width="1.00"/><path d="M273.67,280.20 L271.33,282.33 L268.94,284.40 L266.50,286.41 L264.01,288.36 L261.47,290.25 L258.89,292.08 L256.26,293.85 L253.59,295.55 L250.89,297.18 L248.14,298.75 L245.35,300.25 L242.53,301.69 L239.68,303.05 L236.79,304.35 L233.87,305.57 L230.93,306.72 L227.95,307.81 L224.95,308.81 L221.93,309.75 L218.88,310.61 L218.67,309.81 L218.45,309.01 L218.24,308.21 L218.02,307.40 L217.80,306.60 L217.59,305.80 L217.37,305.00 L217.16,304.20 L216.94,303.40 L216.72,302.60 L216.51,301.80 L216.29,300.99 L216.07,300.19 L215.86,299.39 L215.64,298.59 L215.43,297.79 L215.21,296.99 L214.99,296.19 L214.78,295.38 L214.56,294.58 L217.22,293.83 L219.85,293.02 L222.47,292.14 L225.07,291.19 L227.64,290.19 L230.18,289.12 L232.70,287.99 L235.19,286.80 L237.65,285.55 L240.08,284.24 L242.48,282.87 L244.84,281.44 L247.17,279.96 L249.46,278.42 L251.71,276.82 L253.93,275.17 L256.10,273.47 L258.23,271.72 L260.32,269.91 L262.36,268.05 L262.93,268.66 L263.49,269.27 L264.06,269.87 L264.62,270.48 L265.19,271.09 L265.75,271.70 L266.32,272.30 L266.89,272.91 L267.45,273.52 L268.02,274.13 L268.58,274.73 L269.15,275.34 L269.71,275.95 L270.28,276.56 L270.85,277.16 L271.41,277.77 L271.98,278.38 L272.54,278.98 L273.11,279.59 L273.67,280.20Z" fill="#8da0cb" stroke="#000000" stroke-width="1.00" fill-opacity="0.55"/><path d="M267.36,273.42 L265.18,275.39 L262.96,277.32 L260.69,279.18 L258.38,281.00 L256.02,282.75 L253.62,284.45 L251.18,286.09 L248.71,287.67 L246.19,289.19 L243.64,290.65 L241.05,292.04 L238.43,293.37 L235.78,294.64 L233.10,295.84 L230.39,296.98 L227.65,298.05 L224.89,299.05 L222.11,299.99 L219.30,300.86 L216.47,301.66" fill="none" stroke="#000000" stroke-width="1.60"/><path d="M248.14,298.75 L248.55,299.49 L248.95,300.22 L249.36,300.96 L249.77,301.69 L250.18,302.43 L250.59,303.16 L251.00,303.90 L251.40,304.64 L251.81,305.37 L252.22,306.11 L252.63,306.84 L253.04,307.58 L253.44,308.31 L253.85,309.05 L254.26,309.78 L254.67,310.52 L255.08,311.25 L255.49,311.99 L255.89,312.73 L256.30,313.46" fill="none" stroke="#000000" stroke-width="1.00"/><path d="M258.89,292.08 L257.84,292.80 L256.79,293.50 L255.73,294.19 L254.67,294.88 L253.59,295.55 L252.52,296.21 L251.43,296.86 L250.34,297.50 L249.24,298.13 L248.14,298.75 L247.03,299.36 L245.91,299.96 L244.79,300.55 L243.66,301.12 L242.53,301.69 L241.39,302.24 L240.25,302.79 L239.10,303.32 L237.95,303.84 L236.79,304.35" fill="none" stroke="#000000" stroke-width="1.00"/><path d="M268.44,305.93 L267.26,306.73 L266.07,307.53 L264.88,308.31 L263.67,309.08 L262.46,309.84 L261.25,310.59 L260.02,311.33 L258.79,312.05 L257.55,312.76 L256.30,313.46 L255.05,314.15 L253.79,314.82 L252.52,315.49 L251.25,316.14 L249.97,316.78 L248.69,317.40 L247.39,318.01 L246.10,318.62 L244.79,319.20 L243.49,319.78" fill="none" stroke="#000000" stroke-width="1.00"/><path d="M240.08,284.24 L239.77,283.68 L239.46,283.11 L239.15,282.55 L238.83,281.99 L238.52,281.43 L238.21,280.87 L237.90,280.30 L237.59,279.74 L237.27,279.18 L236.96,278.62 L236.65,278.06 L236.34,277.49 L236.03,276.93 L235.71,276.37 L235.40,275.81 L235.09,275.25 L234.78,274.68 L234.47,274.12 L234.15,273.56 L233.84,273.00" fill="none" stroke="#000000" stroke-width="1.00"/><path d="M249.46,278.42 L248.55,279.04 L247.63,279.66 L246.71,280.26 L245.78,280.86 L244.84,281.44 L243.90,282.02 L242.95,282.59 L242.00,283.15 L241.05,283.70 L240.08,284.24 L239.11,284.77 L238.14,285.29 L237.16,285.80 L236.18,286.31 L235.19,286.80 L234.20,287.28 L233.20,287.76 L232.20,288.22 L231.19,288.68 L230.18,289.12" fill="none" stroke="#000000" stroke-width="1.00"/><path d="M242.16,267.84 L241.35,268.39 L240.54,268.93 L239.72,269.47 L238.89,270.00 L238.06,270.52 L237.23,271.03 L236.39,271.53 L235.55,272.03 L234.70,272.52 L233.84,273.00 L232.98,273.47 L232.12,273.93 L231.25,274.39 L230.38,274.83 L229.51,275.27 L228.63,275.70 L227.74,276.12 L226.85,276.53 L225.96,276.93 L225.06,277.33" fill="none" stroke="#000000" stroke-width="1.00"/><path d="M157.66,286.35 L155.20,285.65 L152.76,284.90 L150.34,284.09 L147.94,283.21 L145.57,282.28 L143.21,281.30 L140.88,280.25 L138.58,279.15 L136.30,277.99 L134.06,276.78 L131.84,275.52 L129.65,274.20 L127.50,272.82 L125.38,271.40 L123.30,269.92 L121.25,268.40 L119.24,266.82 L117.27,265.20 L115.34,263.53 L113.45,261.81 L114.08,261.14 L114.71,260.46 L115.34,259.78 L115.97,259.11 L116.60,258.43 L117.23,257.76 L117.86,257.08 L118.49,256.40 L119.12,255.73 L119.75,255.05 L120.38,254.38 L121.01,253.70 L121.64,253.02 L122.27,252.35 L122.90,251.67 L123.53,250.99 L124.16,250.32 L124.79,249.64 L125.42,248.97 L126.05,248.29 L127.60,249.71 L129.19,251.08 L130.82,252.42 L132.47,253.72 L134.16,254.97 L135.88,256.19 L137.62,257.36 L139.40,258.50 L141.20,259.58 L143.02,260.63 L144.88,261.62 L146.75,262.58 L148.65,263.48 L150.57,264.35 L152.51,265.16 L154.47,265.93 L156.44,266.64 L158.44,267.31 L160.45,267.94 L162.47,268.51 L162.23,269.40 L161.99,270.29 L161.75,271.18 L161.51,272.08 L161.27,272.97 L161.03,273.86 L160.79,274.75 L160.55,275.64 L160.31,276.54 L160.07,277.43 L159.83,278.32 L159.59,279.21 L159.34,280.10 L159.10,281.00 L158.86,281.89 L158.62,282.78 L158.38,283.67 L158.14,284.56 L157.90,285.46 L157.66,286.35Z" fill="#e78ac3" stroke="#000000" stroke-width="1.00" fill-opacity="0.55"/><path d="M159.87,278.16 L157.61,277.53 L155.37,276.83 L153.14,276.08 L150.94,275.28 L148.75,274.43 L146.59,273.52 L144.45,272.56 L142.33,271.55 L140.24,270.48 L138.17,269.37 L136.13,268.21 L134.12,266.99 L132.15,265.73 L130.20,264.42 L128.28,263.07 L126.40,261.66 L124.55,260.22 L122.74,258.72 L120.97,257.19 L119.23,255.61" fill="none" stroke="#000000" stroke-width="1.60"/><path d="M134.06,276.78 L133.77,277.30 L133.48,277.82 L133.19,278.34 L132.90,278.86 L132.61,279.38 L132.32,279.90 L132.04,280.42 L131.75,280.94 L131.46,281.46 L131.17,281.98 L130.88,282.50 L130.59,283.02 L130.30,283.54 L130.02,284.06 L129.73,284.58 L129.44,285.10 L129.15,285.62 L128.86,286.14 L128.57,286.66 L128.28,287.18" fill="none" stroke="#000000" stroke-width="1.00"/><path d="M143.21,281.30 L142.28,280.89 L141.35,280.46 L140.42,280.04 L139.50,279.60 L138.58,279.15 L137.67,278.69 L136.76,278.23 L135.85,277.76 L134.95,277.27 L134.06,276.78 L133.17,276.28 L132.28,275.77 L131.40,275.26 L130.52,274.73 L129.65,274.20 L128.79,273.65 L127.93,273.10 L127.07,272.54 L126.23,271.98 L125.38,271.40" fill="none" stroke="#000000" stroke-width="1.00"/><path d="M138.48,292.21 L137.44,291.75 L136.40,291.28 L135.37,290.81 L134.34,290.32 L133.32,289.82 L132.30,289.31 L131.29,288.79 L130.28,288.27 L129.28,287.73 L128.28,287.18 L127.29,286.63 L126.31,286.06 L125.33,285.48 L124.35,284.90 L123.38,284.30 L122.42,283.70 L121.46,283.09 L120.51,282.46 L119.57,281.83 L118.63,281.19" fill="none" stroke="#000000" stroke-width="1.00"/><path d="M143.02,260.63 L143.50,259.78 L143.97,258.92 L144.44,258.07 L144.91,257.22 L145.38,256.37 L145.86,255.52 L146.33,254.67 L146.80,253.82 L147.27,252.97 L147.74,252.12 L148.22,251.27 L148.69,250.42 L149.16,249.57 L149.63,248.72 L150.10,247.87 L150.58,247.02 L151.05,246.17 L151.52,245.32 L151.99,244.47 L152.46,243.62" fill="none" stroke="#000000" stroke-width="1.00"/><path d="M150.57,264.35 L149.80,264.01 L149.03,263.66 L148.27,263.31 L147.51,262.95 L146.75,262.58 L146.00,262.20 L145.25,261.82 L144.50,261.43 L143.76,261.03 L143.02,260.63 L142.29,260.21 L141.56,259.79 L140.84,259.37 L140.11,258.94 L139.40,258.50 L138.68,258.05 L137.98,257.59 L137.27,257.13 L136.57,256.67 L135.88,256.19" fill="none" stroke="#000000" stroke-width="1.00"/><path d="M158.31,246.50 L157.72,246.24 L157.12,245.97 L156.53,245.70 L155.94,245.42 L155.35,245.13 L154.77,244.84 L154.19,244.54 L153.61,244.24 L153.04,243.93 L152.46,243.62 L151.90,243.30 L151.33,242.97 L150.77,242.64 L150.21,242.31 L149.65,241.97 L149.10,241.62 L148.55,241.27 L148.01,240.91 L147.46,240.55 L146.93,240.18" fill="none" stroke="#000000" stroke-width="1.00"/><path d="M90.15,213.71 L89.48,211.39 L88.87,209.06 L88.31,206.72 L87.81,204.36 L87.37,201.99 L86.98,199.61 L86.66,197.22 L86.39,194.83 L86.18,192.42 L86.03,190.02 L85.93,187.61 L85.90,185.20 L85.93,182.79 L86.01,180.38 L86.15,177.98 L86.35,175.57 L86.61,173.18 L86.92,170.79 L87.30,168.41 L87.73,166.04 L88.24,166.14 L88.75,166.23 L89.25,166.33 L89.76,166.43 L90.27,166.53 L90.78,166.63 L91.28,166.73 L91.79,166.83 L92.30,166.93 L92.80,167.03 L93.31,167.12 L93.82,167.22 L94.33,167.32 L94.83,167.42 L95.34,167.52 L95.85,167.62 L96.36,167.72 L96.86,167.82 L97.37,167.92 L97.88,168.01 L97.49,170.14 L97.15,172.27 L96.87,174.41 L96.64,176.56 L96.46,178.71 L96.33,180.86 L96.26,183.02 L96.24,185.18 L96.27,187.34 L96.35,189.50 L96.49,191.65 L96.67,193.80 L96.91,195.95 L97.21,198.09 L97.55,200.22 L97.95,202.34 L98.39,204.45 L98.89,206.55 L99.44,208.64 L100.04,210.71 L99.55,210.86 L99.05,211.01 L98.56,211.16 L98.06,211.31 L97.57,211.46 L97.07,211.61 L96.58,211.76 L96.09,211.91 L95.59,212.06 L95.10,212.21 L94.60,212.36 L94.11,212.51 L93.61,212.66 L93.12,212.81 L92.62,212.96 L92.13,213.11 L91.63,213.26 L91.14,213.41 L90.64,213.56 L90.15,213.71Z" fill="#a6d854" stroke="#000000" stroke-width="1.00" fill-opacity="0.55"/><path d="M93.04,212.83 L92.39,210.59 L91.80,208.33 L91.26,206.05 L90.77,203.77 L90.35,201.47 L89.97,199.16 L89.66,196.85 L89.40,194.53 L89.19,192.20 L89.05,189.87 L88.96,187.53 L88.92,185.19 L88.95,182.86 L89.03,180.52 L89.17,178.19 L89.36,175.86 L89.61,173.54 L89.92,171.22 L90.28,168.91 L90.70,166.61" fill="none" stroke="#000000" stroke-width="1.60"/><path d="M86.03,190.02 L85.48,190.05 L84.93,190.07 L84.39,190.10 L83.84,190.13 L83.29,190.16 L82.74,190.19 L82.20,190.21 L81.65,190.24 L81.10,190.27 L80.55,190.30 L80.01,190.32 L79.46,190.35 L78.91,190.38 L78.37,190.41 L77.82,190.44 L77.27,190.46 L76.72,190.49 L76.18,190.52 L75.63,190.55 L75.08,190.57" fill="none" stroke="#000000" stroke-width="1.00"/><path d="M86.98,199.61 L86.85,198.65 L86.72,197.70 L86.60,196.74 L86.49,195.78 L86.39,194.83 L86.30,193.87 L86.22,192.91 L86.14,191.94 L86.08,190.98 L86.03,190.02 L85.98,189.06 L85.95,188.09 L85.92,187.13 L85.91,186.16 L85.90,185.20 L85.90,184.24 L85.92,183.27 L85.94,182.31 L85.97,181.35 L86.01,180.38" fill="none" stroke="#000000" stroke-width="1.00"/><path d="M76.14,201.22 L75.99,200.17 L75.85,199.10 L75.72,198.04 L75.59,196.98 L75.48,195.91 L75.38,194.85 L75.29,193.78 L75.21,192.71 L75.14,191.64 L75.08,190.57 L75.03,189.50 L74.99,188.43 L74.97,187.36 L74.95,186.29 L74.94,185.22 L74.94,184.15 L74.96,183.08 L74.98,182.01 L75.02,180.94 L75.06,179.87" fill="none" stroke="#000000" stroke-width="1.00"/><path d="M96.35,189.50 L96.72,189.48 L97.10,189.46 L97.47,189.44 L97.85,189.42 L98.22,189.40 L98.59,189.38 L98.97,189.36 L99.34,189.34 L99.71,189.33 L100.09,189.31 L100.46,189.29 L100.84,189.27 L101.21,189.25 L101.58,189.23 L101.96,189.21 L102.33,189.19 L102.71,189.17 L103.08,189.15 L103.45,189.14 L103.83,189.12" fill="none" stroke="#000000" stroke-width="1.00"/><path d="M97.21,198.09 L97.08,197.23 L96.97,196.37 L96.86,195.52 L96.76,194.66 L96.67,193.80 L96.59,192.94 L96.52,192.08 L96.45,191.22 L96.40,190.36 L96.35,189.50 L96.31,188.63 L96.28,187.77 L96.26,186.91 L96.24,186.04 L96.24,185.18 L96.24,184.32 L96.25,183.45 L96.27,182.59 L96.30,181.73 L96.33,180.86" fill="none" stroke="#000000" stroke-width="1.00"/><path d="M104.61,196.98 L104.50,196.20 L104.39,195.42 L104.30,194.63 L104.21,193.85 L104.12,193.06 L104.05,192.27 L103.98,191.48 L103.92,190.70 L103.87,189.91 L103.83,189.12 L103.79,188.33 L103.76,187.54 L103.74,186.75 L103.73,185.96 L103.72,185.16 L103.73,184.37 L103.74,183.58 L103.75,182.79 L103.78,182.00 L103.81,181.21" fill="none" stroke="#000000" stroke-width="1.00"/><circle cx="68.78" cy="190.89" r="2.20" fill="none" stroke="#000000" stroke-width="0.90"/><circle cx="117.13" cy="188.44" r="2.20" fill="none" stroke="#000000" stroke-width="0.90"/><path d="M87.10,99.22 L89.22,96.86 L91.39,94.56 L93.62,92.31 L95.90,90.11 L98.23,87.98 L100.62,85.89 L103.05,83.87 L105.53,81.91 L108.07,80.01 L110.64,78.17 L113.26,76.39 L115.92,74.68 L118.63,73.03 L121.37,71.45 L124.15,69.93 L126.97,68.49 L129.82,67.11 L132.70,65.80 L135.62,64.57 L138.56,63.40 L138.94,64.41 L139.33,65.42 L139.71,66.43 L140.10,67.44 L140.49,68.45 L140.87,69.46 L141.26,70.47 L141.64,71.48 L142.03,72.49 L142.41,73.50 L142.80,74.50 L143.18,75.51 L143.57,76.52 L143.96,77.53 L144.34,78.54 L144.73,79.55 L145.11,80.56 L145.50,81.57 L145.88,82.58 L146.27,83.59 L143.81,84.56 L141.38,85.59 L138.98,86.68 L136.60,87.83 L134.25,89.04 L131.93,90.30 L129.65,91.62 L127.39,92.99 L125.17,94.42 L122.98,95.90 L120.84,97.43 L118.73,99.02 L116.65,100.66 L114.62,102.35 L112.63,104.08 L110.69,105.87 L108.79,107.70 L106.93,109.57 L105.12,111.49 L103.35,113.46 L102.54,112.75 L101.73,112.03 L100.91,111.32 L100.10,110.61 L99.29,109.90 L98.48,109.19 L97.66,108.47 L96.85,107.76 L96.04,107.05 L95.23,106.34 L94.41,105.63 L93.60,104.91 L92.79,104.20 L91.98,103.49 L91.16,102.78 L90.35,102.07 L89.54,101.35 L88.73,100.64 L87.91,99.93 L87.10,99.22Z" fill="#ffd92f" stroke="#000000" stroke-width="1.00" fill-opacity="0.55"/><path d="M96.61,107.55 L98.52,105.42 L100.48,103.34 L102.49,101.31 L104.55,99.33 L106.66,97.40 L108.81,95.52 L111.01,93.69 L113.25,91.92 L115.54,90.20 L117.86,88.54 L120.23,86.94 L122.63,85.39 L125.07,83.90 L127.55,82.48 L130.06,81.11 L132.60,79.80 L135.18,78.56 L137.78,77.38 L140.41,76.26 L143.07,75.21" fill="none" stroke="#000000" stroke-width="1.60"/><path d="M110.64,78.17 L110.36,77.77 L110.09,77.37 L109.81,76.97 L109.53,76.57 L109.25,76.17 L108.97,75.77 L108.70,75.37 L108.42,74.97 L108.14,74.57 L107.86,74.17 L107.58,73.77 L107.31,73.38 L107.03,72.98 L106.75,72.58 L106.47,72.18 L106.20,71.78 L105.92,71.38 L105.64,70.98 L105.36,70.58 L105.08,70.18" fill="none" stroke="#000000" stroke-width="1.00"/><path d="M100.62,85.89 L101.58,85.08 L102.56,84.27 L103.54,83.47 L104.54,82.69 L105.53,81.91 L106.54,81.14 L107.56,80.38 L108.58,79.63 L109.61,78.89 L110.64,78.17 L111.68,77.45 L112.73,76.74 L113.79,76.04 L114.85,75.35 L115.92,74.68 L117.00,74.01 L118.08,73.35 L119.17,72.71 L120.27,72.07 L121.37,71.45" fill="none" stroke="#000000" stroke-width="1.00"/><path d="M94.31,78.49 L95.35,77.61 L96.40,76.74 L97.46,75.89 L98.52,75.04 L99.60,74.20 L100.68,73.38 L101.77,72.56 L102.86,71.76 L103.97,70.96 L105.08,70.18 L106.20,69.41 L107.33,68.65 L108.47,67.90 L109.61,67.16 L110.76,66.43 L111.92,65.71 L113.08,65.01 L114.25,64.32 L115.43,63.63 L116.61,62.96" fill="none" stroke="#000000" stroke-width="1.00"/><path d="M122.98,95.90 L123.22,96.24 L123.45,96.58 L123.69,96.91 L123.93,97.25 L124.16,97.59 L124.40,97.93 L124.63,98.26 L124.87,98.60 L125.10,98.94 L125.34,99.28 L125.57,99.62 L125.81,99.95 L126.04,100.29 L126.28,100.63 L126.51,100.97 L126.75,101.30 L126.98,101.64 L127.22,101.98 L127.45,102.32 L127.69,102.65" fill="none" stroke="#000000" stroke-width="1.00"/><path d="M114.62,102.35 L115.43,101.66 L116.24,100.99 L117.07,100.33 L117.89,99.67 L118.73,99.02 L119.57,98.38 L120.41,97.75 L121.26,97.12 L122.12,96.51 L122.98,95.90 L123.85,95.30 L124.73,94.71 L125.61,94.13 L126.50,93.56 L127.39,92.99 L128.29,92.43 L129.19,91.89 L130.10,91.35 L131.01,90.82 L131.93,90.30" fill="none" stroke="#000000" stroke-width="1.00"/><path d="M119.96,108.61 L120.70,107.98 L121.46,107.36 L122.22,106.75 L122.98,106.14 L123.75,105.54 L124.53,104.95 L125.31,104.36 L126.09,103.79 L126.89,103.22 L127.69,102.65 L128.49,102.10 L129.30,101.56 L130.11,101.02 L130.93,100.49 L131.76,99.97 L132.59,99.45 L133.42,98.95 L134.26,98.45 L135.11,97.96 L135.96,97.48" fill="none" stroke="#000000" stroke-width="1.00"/></g></g><line x1="276.40" x2="278.97" y1="53.68" y2="49.98" stroke="#000000" stroke-width="1.00"/><g transform="rotate(-55.16 288.87 41.38)"><path d="M287.50 34.55V35.64Q287.00 35.37 286.50 35.23Q286.01 35.09 285.50 35.09Q284.36 35.09 283.73 35.81Q283.10 36.53 283.10 37.84Q283.10 39.14 283.73 39.86Q284.36 40.58 285.50 40.58Q286.01 40.58 286.50 40.44Q287.00 40.31 287.50 40.03V41.11Q287.01 41.34 286.48 41.45Q285.96 41.57 285.37 41.57Q283.76 41.57 282.82 40.56Q281.87 39.55 281.87 37.84Q281.87 36.10 282.83 35.10Q283.78 34.10 285.45 34.10Q285.99 34.10 286.50 34.21Q287.01 34.33 287.50 34.55ZM292.44 32.75Q291.45 32.75 290.95 33.73Q290.45 34.70 290.45 36.66Q290.45 38.60 290.95 39.58Q291.45 40.55 292.44 40.55Q293.43 40.55 293.93 39.58Q294.43 38.60 294.43 36.66Q294.43 34.70 293.93 33.73Q293.43 32.75 292.44 32.75ZM292.44 31.74Q294.03 31.74 294.87 33.00Q295.71 34.26 295.71 36.66Q295.71 39.05 294.87 40.31Q294.03 41.57 292.44 41.57Q290.84 41.57 290.00 40.31Q289.16 39.05 289.16 36.66Q289.16 34.26 290.00 33.00Q290.84 31.74 292.44 31.74Z" fill="#000"/></g><line x1="344.79" x2="349.29" y1="193.10" y2="193.33" stroke="#000000" stroke-width="1.00"/><g transform="rotate(2.90 361.82 197.18)"><path d="M360.45 190.34V191.43Q359.96 191.16 359.46 191.02Q358.96 190.89 358.45 190.89Q357.32 190.89 356.69 191.61Q356.06 192.33 356.06 193.63Q356.06 194.93 356.69 195.65Q357.32 196.37 358.45 196.37Q358.96 196.37 359.46 196.23Q359.96 196.10 360.45 195.82V196.90Q359.96 197.13 359.44 197.25Q358.92 197.36 358.33 197.36Q356.72 197.36 355.77 196.35Q354.83 195.34 354.83 193.63Q354.83 191.89 355.78 190.89Q356.74 189.90 358.40 189.90Q358.94 189.90 359.45 190.01Q359.97 190.12 360.45 190.34ZM362.87 196.10H364.96V188.87L362.69 189.32V188.16L364.95 187.70H366.23V196.10H368.33V197.18H362.87Z" fill="#000"/></g><line x1="262.65" x2="264.83" y1="324.90" y2="328.83" stroke="#000000" stroke-width="1.00"/><g transform="rotate(60.97 268.20 341.50)"><path d="M266.83 334.66V335.75Q266.33 335.48 265.84 335.34Q265.34 335.21 264.83 335.21Q263.69 335.21 263.07 335.93Q262.44 336.65 262.44 337.95Q262.44 339.25 263.07 339.97Q263.69 340.69 264.83 340.69Q265.34 340.69 265.84 340.56Q266.33 340.42 266.83 340.15V341.23Q266.34 341.45 265.82 341.57Q265.29 341.68 264.70 341.68Q263.10 341.68 262.15 340.67Q261.21 339.66 261.21 337.95Q261.21 336.21 262.16 335.21Q263.12 334.22 264.78 334.22Q265.32 334.22 265.83 334.33Q266.35 334.44 266.83 334.66ZM270.13 340.42H274.61V341.50H268.59V340.42Q269.32 339.66 270.58 338.39Q271.84 337.12 272.16 336.75Q272.78 336.06 273.02 335.58Q273.27 335.10 273.27 334.64Q273.27 333.88 272.74 333.40Q272.21 332.93 271.36 332.93Q270.75 332.93 270.08 333.14Q269.41 333.35 268.65 333.77V332.48Q269.43 332.17 270.10 332.01Q270.77 331.85 271.33 331.85Q272.80 331.85 273.68 332.59Q274.55 333.32 274.55 334.55Q274.55 335.14 274.34 335.66Q274.12 336.18 273.54 336.90Q273.38 337.08 272.53 337.96Q271.68 338.84 270.13 340.42Z" fill="#000"/></g><line x1="107.35" x2="105.17" y1="324.90" y2="328.83" stroke="#000000" stroke-width="1.00"/><g transform="rotate(-60.97 101.80 341.50)"><path d="M100.43 334.66V335.75Q99.94 335.48 99.44 335.34Q98.94 335.21 98.44 335.21Q97.30 335.21 96.67 335.93Q96.04 336.65 96.04 337.95Q96.04 339.25 96.67 339.97Q97.30 340.69 98.44 340.69Q98.94 340.69 99.44 340.56Q99.94 340.42 100.43 340.15V341.23Q99.95 341.45 99.42 341.57Q98.90 341.68 98.31 341.68Q96.70 341.68 95.76 340.67Q94.81 339.66 94.81 337.95Q94.81 336.21 95.77 335.21Q96.72 334.22 98.38 334.22Q98.92 334.22 99.44 334.33Q99.95 334.44 100.43 334.66ZM106.52 336.39Q107.44 336.58 107.95 337.21Q108.47 337.83 108.47 338.74Q108.47 340.15 107.51 340.91Q106.54 341.68 104.76 341.68Q104.17 341.68 103.54 341.56Q102.90 341.45 102.23 341.21V339.97Q102.76 340.29 103.40 340.44Q104.03 340.60 104.73 340.60Q105.93 340.60 106.56 340.13Q107.20 339.65 107.20 338.74Q107.20 337.91 106.61 337.43Q106.02 336.96 104.97 336.96H103.87V335.91H105.02Q105.97 335.91 106.47 335.53Q106.97 335.15 106.97 334.44Q106.97 333.71 106.46 333.32Q105.94 332.93 104.97 332.93Q104.45 332.93 103.84 333.04Q103.24 333.16 102.52 333.40V332.26Q103.25 332.05 103.88 331.95Q104.52 331.85 105.09 331.85Q106.55 331.85 107.40 332.51Q108.25 333.18 108.25 334.31Q108.25 335.09 107.80 335.64Q107.35 336.18 106.52 336.39Z" fill="#000"/></g><line x1="25.21" x2="20.71" y1="193.10" y2="193.33" stroke="#000000" stroke-width="1.00"/><g transform="rotate(-2.90 8.18 197.18)"><path d="M6.81 190.34V191.43Q6.32 191.16 5.82 191.02Q5.32 190.89 4.81 190.89Q3.68 190.89 3.05 191.61Q2.42 192.33 2.42 193.63Q2.42 194.93 3.05 195.65Q3.68 196.37 4.81 196.37Q5.32 196.37 5.82 196.23Q6.32 196.10 6.81 195.82V196.90Q6.32 197.13 5.80 197.25Q5.28 197.36 4.69 197.36Q3.08 197.36 2.13 196.35Q1.19 195.34 1.19 193.63Q1.19 191.89 2.14 190.89Q3.10 189.90 4.76 189.90Q5.30 189.90 5.82 190.01Q6.33 190.12 6.81 190.34ZM12.53 188.82 9.29 193.88H12.53ZM12.20 187.70H13.81V193.88H15.16V194.94H13.81V197.18H12.53V194.94H8.25V193.70Z" fill="#000"/></g><line x1="93.60" x2="91.03" y1="53.68" y2="49.98" stroke="#000000" stroke-width="1.00"/><g transform="rotate(55.16 81.13 41.38)"><path d="M79.77 34.55V35.64Q79.27 35.37 78.77 35.23Q78.28 35.09 77.77 35.09Q76.63 35.09 76.00 35.81Q75.37 36.53 75.37 37.84Q75.37 39.14 76.00 39.86Q76.63 40.58 77.77 40.58Q78.28 40.58 78.77 40.44Q79.27 40.31 79.77 40.03V41.11Q79.28 41.34 78.75 41.45Q78.23 41.57 77.64 41.57Q76.03 41.57 75.09 40.56Q74.14 39.55 74.14 37.84Q74.14 36.10 75.10 35.10Q76.05 34.10 77.72 34.10Q78.26 34.10 78.77 34.21Q79.28 34.33 79.77 34.55ZM81.98 31.91H87.01V32.99H83.15V35.31Q83.43 35.21 83.71 35.17Q83.99 35.12 84.27 35.12Q85.85 35.12 86.78 35.99Q87.71 36.86 87.71 38.34Q87.71 39.87 86.76 40.72Q85.80 41.57 84.07 41.57Q83.47 41.57 82.86 41.47Q82.24 41.37 81.58 41.16V39.87Q82.15 40.18 82.76 40.34Q83.37 40.49 84.05 40.49Q85.14 40.49 85.78 39.91Q86.43 39.33 86.43 38.34Q86.43 37.35 85.78 36.78Q85.14 36.20 84.05 36.20Q83.53 36.20 83.02 36.31Q82.51 36.43 81.98 36.67Z" fill="#000"/></g><circle cx="185.00" cy="185.00" r="48.00" fill="none" stroke="#000000" stroke-width="1.00"/><circle cx="185.00" cy="185.00" r="160.00" fill="none" stroke="#000000" stroke-width="1.00"/></g></g></g></svg>