<svg xmlns="http://www.w3.org/2000/svg" width="389" height="418" viewBox="0 0 389 418" font-family="DejaVu Sans, Bitstream Vera Sans, Verdana, Arial, sans-serif" font-size="11" data-plotlet-version="0.6.0" data-plotlet-schema="2" data-plotlet-kind="layout"><rect width="389" height="418" fill="#fff"/><g transform="translate(4,4)"><path d="M134.66 0.07V1.27H133.28Q132.51 1.27 132.21 1.58Q131.91 1.89 131.91 2.70V3.48H134.27V4.59H131.91V12.23H130.46V4.59H129.09V3.48H130.46V2.87Q130.46 1.41 131.14 0.74Q131.82 0.07 133.30 0.07ZM140.93 4.82Q140.69 4.68 140.40 4.61Q140.12 4.55 139.77 4.55Q138.55 4.55 137.90 5.34Q137.25 6.13 137.25 7.62V12.23H135.80V3.48H137.25V4.84Q137.70 4.04 138.43 3.65Q139.16 3.27 140.20 3.27Q140.34 3.27 140.52 3.29Q140.70 3.30 140.92 3.34ZM149.92 7.49V8.20H143.31Q143.41 9.68 144.21 10.46Q145.01 11.23 146.44 11.23Q147.27 11.23 148.04 11.03Q148.82 10.83 149.59 10.42V11.78Q148.81 12.11 148.00 12.28Q147.19 12.45 146.35 12.45Q144.26 12.45 143.04 11.23Q141.81 10.02 141.81 7.94Q141.81 5.79 142.97 4.53Q144.13 3.27 146.10 3.27Q147.87 3.27 148.89 4.40Q149.92 5.54 149.92 7.49ZM148.48 7.07Q148.47 5.89 147.82 5.19Q147.18 4.48 146.12 4.48Q144.91 4.48 144.19 5.16Q143.47 5.84 143.36 7.08ZM153.14 7.86Q153.14 9.45 153.79 10.35Q154.45 11.25 155.59 11.25Q156.73 11.25 157.38 10.35Q158.04 9.45 158.04 7.86Q158.04 6.27 157.38 5.37Q156.73 4.47 155.59 4.47Q154.45 4.47 153.79 5.37Q153.14 6.27 153.14 7.86ZM158.04 10.91Q157.59 11.70 156.89 12.07Q156.20 12.45 155.23 12.45Q153.65 12.45 152.65 11.19Q151.66 9.92 151.66 7.86Q151.66 5.80 152.65 4.53Q153.65 3.27 155.23 3.27Q156.20 3.27 156.89 3.64Q157.59 4.02 158.04 4.80V3.48H159.48V15.55H158.04ZM163.83 10.91V15.55H162.38V3.48H163.83V4.80Q164.28 4.02 164.97 3.64Q165.66 3.27 166.62 3.27Q168.22 3.27 169.21 4.53Q170.21 5.80 170.21 7.86Q170.21 9.92 169.21 11.19Q168.22 12.45 166.62 12.45Q165.66 12.45 164.97 12.07Q164.28 11.70 163.83 10.91ZM168.72 7.86Q168.72 6.27 168.07 5.37Q167.41 4.47 166.27 4.47Q165.13 4.47 164.48 5.37Q163.83 6.27 163.83 7.86Q163.83 9.45 164.48 10.35Q165.13 11.25 166.27 11.25Q167.41 11.25 168.07 10.35Q168.72 9.45 168.72 7.86ZM175.98 4.48Q174.83 4.48 174.16 5.39Q173.48 6.29 173.48 7.86Q173.48 9.43 174.15 10.33Q174.82 11.23 175.98 11.23Q177.13 11.23 177.80 10.33Q178.48 9.42 178.48 7.86Q178.48 6.30 177.80 5.39Q177.13 4.48 175.98 4.48ZM175.98 3.27Q177.86 3.27 178.93 4.48Q180.00 5.70 180.00 7.86Q180.00 10.01 178.93 11.23Q177.86 12.45 175.98 12.45Q174.10 12.45 173.04 11.23Q171.97 10.01 171.97 7.86Q171.97 5.70 173.04 4.48Q174.10 3.27 175.98 3.27ZM182.38 0.07H183.82V12.23H182.38ZM190.47 13.04Q189.86 14.60 189.28 15.08Q188.70 15.55 187.73 15.55H186.59V14.35H187.43Q188.02 14.35 188.35 14.07Q188.68 13.79 189.08 12.74L189.34 12.09L185.80 3.48H187.32L190.05 10.32L192.79 3.48H194.31ZM200.66 7.28H215.09V8.41H200.66ZM227.54 4.82Q227.30 4.68 227.01 4.61Q226.73 4.55 226.38 4.55Q225.16 4.55 224.51 5.34Q223.86 6.13 223.86 7.62V12.23H222.41V3.48H223.86V4.84Q224.31 4.04 225.04 3.65Q225.77 3.27 226.80 3.27Q226.95 3.27 227.13 3.29Q227.31 3.30 227.53 3.34ZM229.05 3.48H230.48V12.23H229.05ZM229.05 0.07H230.48V1.89H229.05ZM240.77 6.95V12.23H239.33V6.99Q239.33 5.75 238.84 5.13Q238.36 4.52 237.39 4.52Q236.23 4.52 235.55 5.26Q234.88 6.00 234.88 7.28V12.23H233.44V3.48H234.88V4.84Q235.40 4.05 236.10 3.66Q236.80 3.27 237.71 3.27Q239.22 3.27 239.99 4.20Q240.77 5.13 240.77 6.95ZM249.39 7.75Q249.39 6.19 248.75 5.33Q248.10 4.47 246.94 4.47Q245.78 4.47 245.14 5.33Q244.49 6.19 244.49 7.75Q244.49 9.30 245.14 10.16Q245.78 11.02 246.94 11.02Q248.10 11.02 248.75 10.16Q249.39 9.30 249.39 7.75ZM250.83 11.14Q250.83 13.38 249.84 14.46Q248.84 15.55 246.80 15.55Q246.04 15.55 245.37 15.44Q244.70 15.33 244.06 15.09V13.70Q244.70 14.04 245.31 14.20Q245.93 14.37 246.57 14.37Q247.98 14.37 248.69 13.63Q249.39 12.89 249.39 11.40V10.69Q248.95 11.46 248.25 11.84Q247.55 12.23 246.59 12.23Q244.98 12.23 243.99 11.00Q243.01 9.77 243.01 7.75Q243.01 5.72 243.99 4.49Q244.98 3.27 246.59 3.27Q247.55 3.27 248.25 3.65Q248.95 4.03 249.39 4.80V3.48H250.83Z" fill="#000"/><g transform="translate(0,29)"><g transform="translate(0,0)" data-plotlet-kind="panel" data-plotlet-xscale="linear" data-plotlet-yscale="linear" data-plotlet-xlim="0.04038563782,1.110033033" data-plotlet-ylim="0,25.2" data-plotlet-panel-bbox="0,0,381,381" data-plotlet-data-area="0,0,381,381"><defs><clipPath id="pc0"><path d="M 30.50,190.50 A 160.00,160.00 0 1,0 350.50,190.50 A 160.00,160.00 0 1,0 30.50,190.50 Z M 142.50,190.50 A 48.00,48.00 0 1,0 238.50,190.50 A 48.00,48.00 0 1,0 142.50,190.50 Z" clip-rule="evenodd"/></clipPath></defs><g clip-path="url(#pc0)"><g class="plotlet-artist" data-plotlet-type="freqpoly" data-plotlet-index="0" data-plotlet-color="#1D9E75"><path d="M197.33,142.99 L198.04,142.87 L198.76,142.77 L199.48,142.67 L200.21,142.58 L200.94,142.51 L201.67,142.45 L202.41,142.40 L203.15,142.36 L203.90,142.33 L204.65,142.31 L205.40,142.31 L206.16,142.31 L206.92,142.33 L207.68,142.36 L208.44,142.40 L209.20,142.46 L209.97,142.52 L210.74,142.60 L211.51,142.69 L212.29,142.79 L213.06,142.91 L213.84,143.04 L214.61,143.18 L215.39,143.33 L216.17,143.50 L216.94,143.67 L217.72,143.86 L218.50,144.07 L219.28,144.28 L220.06,144.51 L220.83,144.75 L221.61,145.01 L222.38,145.27 L223.15,145.55 L223.93,145.85 L224.70,146.15 L225.46,146.47 L226.23,146.80 L226.99,147.15 L227.75,147.51 L228.66,147.71 L229.57,147.93 L230.48,148.17 L231.39,148.43 L232.30,148.70 L233.21,148.99 L234.12,149.30 L235.03,149.63 L235.94,149.97 L236.85,150.34 L237.76,150.71 L238.67,151.11 L239.57,151.53 L240.48,151.96 L241.38,152.41 L242.28,152.88 L243.17,153.37 L244.06,153.87 L244.95,154.40 L245.84,154.94 L246.34,155.73 L246.83,156.53 L247.31,157.34 L247.78,158.15 L248.23,158.98 L248.68,159.80 L249.11,160.64 L249.53,161.48 L249.94,162.32 L250.33,163.17 L250.72,164.03 L251.09,164.89 L251.45,165.76 L251.80,166.64 L252.13,167.51 L252.45,168.40 L252.76,169.28 L253.06,170.17 L253.34,171.07 L253.61,171.97 L254.73,172.63 L255.84,173.33 L256.94,174.05 L258.03,174.80 L259.12,175.57 L260.19,176.38 L261.26,177.21 L262.32,178.07 L263.37,178.96 L264.41,179.87 L265.43,180.82 L266.45,181.79 L267.45,182.78 L268.44,183.81 L269.41,184.86 L270.37,185.93 L271.31,187.04 L272.24,188.16 L273.16,189.32 L274.06,190.50 L275.16,191.71 L276.24,192.95 L277.31,194.22 L278.36,195.52 L279.38,196.86 L280.39,198.22 L281.38,199.61 L282.34,201.04 L283.28,202.49 L284.20,203.97 L285.10,205.48 L285.97,207.02 L286.82,208.59 L287.64,210.18 L288.43,211.80 L289.20,213.45 L289.94,215.13 L290.65,216.83 L291.34,218.55 L291.99,220.30 L291.34,221.68 L290.68,223.05 L289.99,224.41 L289.29,225.75 L288.57,227.08 L287.83,228.39 L287.07,229.70 L286.30,230.98 L285.51,232.26 L284.70,233.52 L283.87,234.76 L283.03,235.99 L282.17,237.21 L281.30,238.41 L280.41,239.60 L279.51,240.77 L278.59,241.92 L277.66,243.06 L276.71,244.18 L275.75,245.28 L277.18,247.97 L278.55,250.71 L279.86,253.49 L281.11,256.33 L282.30,259.22 L283.42,262.15 L284.47,265.13 L285.46,268.15 L286.38,271.21 L287.24,274.32 L288.02,277.47 L288.73,280.66 L289.37,283.88 L289.94,287.14 L290.44,290.44 L290.86,293.77 L291.21,297.13 L291.48,300.52 L291.67,303.94 L291.79,307.39 L289.25,307.80 L286.72,308.17 L284.20,308.49 L281.69,308.76 L279.19,308.98 L276.71,309.16 L274.24,309.28 L271.78,309.37 L269.34,309.41 L266.91,309.40 L264.50,309.34 L262.11,309.25 L259.73,309.11 L257.38,308.92 L255.04,308.69 L252.72,308.42 L250.43,308.11 L248.15,307.76 L245.90,307.37 L243.67,306.93 L241.83,307.27 L239.98,307.59 L238.14,307.87 L236.29,308.12 L234.45,308.35 L232.62,308.54 L230.78,308.71 L228.96,308.85 L227.13,308.97 L225.31,309.05 L223.49,309.11 L221.68,309.14 L219.88,309.14 L218.08,309.11 L216.29,309.06 L214.51,308.98 L212.73,308.88 L210.96,308.74 L209.20,308.58 L207.45,308.40 L205.79,308.85 L204.13,309.28 L202.45,309.68 L200.77,310.06 L199.08,310.42 L197.38,310.75 L195.67,311.06 L193.95,311.34 L192.23,311.60 L190.50,311.83 L188.76,312.04 L187.02,312.23 L185.28,312.39 L183.52,312.52 L181.76,312.63 L180.00,312.72 L178.24,312.78 L176.47,312.81 L174.69,312.82 L172.92,312.80 L171.41,311.00 L169.96,309.18 L168.56,307.35 L167.20,305.50 L165.89,303.63 L164.63,301.75 L163.42,299.86 L162.25,297.96 L161.14,296.05 L160.07,294.13 L159.06,292.19 L158.09,290.26 L157.17,288.31 L156.30,286.36 L155.48,284.40 L154.70,282.44 L153.98,280.48 L153.30,278.52 L152.68,276.55 L152.10,274.59 L150.90,274.03 L149.71,273.46 L148.53,272.87 L147.36,272.26 L146.20,271.64 L145.04,271.00 L143.90,270.34 L142.76,269.66 L141.64,268.97 L140.52,268.27 L139.42,267.55 L138.32,266.81 L137.24,266.06 L136.16,265.29 L135.10,264.51 L134.05,263.71 L133.01,262.89 L131.98,262.07 L130.97,261.22 L129.96,260.36 L129.86,258.50 L129.79,256.64 L129.77,254.80 L129.79,252.97 L129.85,251.15 L129.94,249.35 L130.08,247.57 L130.25,245.80 L130.46,244.04 L130.71,242.31 L131.00,240.59 L131.32,238.89 L131.68,237.21 L132.08,235.55 L132.51,233.91 L132.97,232.30 L133.47,230.70 L134.00,229.13 L134.57,227.59 L135.16,226.06 L135.04,225.03 L134.93,224.01 L134.84,222.99 L134.77,221.97 L134.72,220.96 L134.68,219.95 L134.66,218.95 L134.66,217.95 L134.68,216.96 L134.71,215.98 L134.76,215.00 L134.82,214.03 L134.90,213.06 L135.00,212.11 L135.12,211.16 L135.25,210.21 L135.39,209.28 L135.55,208.35 L135.73,207.44 L135.92,206.53 L135.48,205.81 L135.05,205.08 L134.63,204.34 L134.22,203.59 L133.83,202.83 L133.44,202.06 L133.06,201.29 L132.69,200.50 L132.34,199.71 L131.99,198.91 L131.66,198.10 L131.33,197.29 L131.02,196.47 L130.72,195.63 L130.43,194.80 L130.15,193.95 L129.89,193.10 L129.64,192.24 L129.40,191.37 L129.17,190.50 L129.84,189.63 L130.52,188.79 L131.22,187.96 L131.93,187.15 L132.65,186.36 L133.38,185.59 L134.12,184.85 L134.87,184.12 L135.62,183.41 L136.39,182.72 L137.16,182.05 L137.95,181.41 L138.74,180.78 L139.54,180.17 L140.34,179.59 L141.15,179.02 L141.97,178.48 L142.79,177.96 L143.61,177.46 L144.44,176.98 L144.43,176.25 L144.43,175.53 L144.43,174.80 L144.45,174.07 L144.49,173.34 L144.53,172.60 L144.58,171.86 L144.65,171.12 L144.73,170.38 L144.82,169.64 L144.92,168.89 L145.03,168.14 L145.16,167.40 L145.30,166.65 L145.45,165.90 L145.61,165.15 L145.78,164.40 L145.97,163.65 L146.17,162.90 L146.38,162.15 L146.98,161.64 L147.58,161.15 L148.18,160.67 L148.79,160.20 L149.41,159.74 L150.02,159.29 L150.65,158.85 L151.28,158.43 L151.91,158.01 L152.54,157.61 L153.18,157.22 L153.83,156.84 L154.47,156.47 L155.12,156.12 L155.77,155.77 L156.43,155.44 L157.08,155.12 L157.74,154.81 L158.40,154.51 L159.07,154.22 L159.44,153.61 L159.83,153.00 L160.23,152.39 L160.65,151.78 L161.07,151.18 L161.50,150.59 L161.95,150.00 L162.40,149.41 L162.87,148.83 L163.35,148.25 L163.84,147.68 L164.34,147.11 L164.85,146.55 L165.37,146.00 L165.90,145.45 L166.44,144.90 L166.99,144.37 L167.56,143.84 L168.13,143.31 L168.71,142.79 L169.49,142.69 L170.26,142.60 L171.03,142.52 L171.80,142.46 L172.56,142.40 L173.32,142.36 L174.08,142.33 L174.84,142.31 L175.60,142.31 L176.35,142.31 L177.10,142.33 L177.85,142.36 L178.59,142.40 L179.33,142.45 L180.06,142.51 L180.79,142.58 L181.52,142.67 L182.24,142.77 L182.96,142.87 L183.67,142.99" fill="none" stroke="#1D9E75" stroke-width="1.60"/></g></g><line x1="319.48" x2="323.11" y1="95.82" y2="93.16" stroke="#000000" stroke-width="1.00"/><g transform="rotate(-36.28 337.37 86.67)"><path d="M331.16 78.04Q330.17 78.04 329.68 79.01Q329.18 79.98 329.18 81.94Q329.18 83.89 329.68 84.86Q330.17 85.84 331.16 85.84Q332.16 85.84 332.66 84.86Q333.16 83.89 333.16 81.94Q333.16 79.98 332.66 79.01Q332.16 78.04 331.16 78.04ZM331.16 77.02Q332.76 77.02 333.60 78.28Q334.44 79.54 334.44 81.94Q334.44 84.33 333.60 85.59Q332.76 86.85 331.16 86.85Q329.57 86.85 328.73 85.59Q327.89 84.33 327.89 81.94Q327.89 79.54 328.73 78.28Q329.57 77.02 331.16 77.02ZM336.69 85.06H338.03V86.67H336.69ZM341.93 85.59H346.41V86.67H340.39V85.59Q341.12 84.83 342.38 83.56Q343.64 82.29 343.96 81.92Q344.58 81.23 344.82 80.75Q345.07 80.27 345.07 79.81Q345.07 79.05 344.54 78.57Q344.01 78.10 343.16 78.10Q342.55 78.10 341.88 78.31Q341.21 78.52 340.45 78.94V77.65Q341.23 77.34 341.90 77.18Q342.57 77.02 343.13 77.02Q344.60 77.02 345.48 77.76Q346.35 78.49 346.35 79.72Q346.35 80.31 346.14 80.83Q345.92 81.36 345.34 82.07Q345.18 82.25 344.33 83.13Q343.48 84.01 341.93 85.59Z" fill="#000"/></g><line x1="327.60" x2="331.46" y1="272.98" y2="275.30" stroke="#000000" stroke-width="1.00"/><g transform="rotate(31.03 342.95 285.95)"><path d="M336.74 277.32Q335.75 277.32 335.25 278.30Q334.76 279.27 334.76 281.23Q334.76 283.17 335.25 284.15Q335.75 285.12 336.74 285.12Q337.74 285.12 338.24 284.15Q338.74 283.17 338.74 281.23Q338.74 279.27 338.24 278.30Q337.74 277.32 336.74 277.32ZM336.74 276.31Q338.34 276.31 339.18 277.57Q340.02 278.83 340.02 281.23Q340.02 283.62 339.18 284.88Q338.34 286.14 336.74 286.14Q335.15 286.14 334.31 284.88Q333.47 283.62 333.47 281.23Q333.47 278.83 334.31 277.57Q335.15 276.31 336.74 276.31ZM342.27 284.34H343.61V285.95H342.27ZM349.93 277.60 346.69 282.65H349.93ZM349.59 276.48H351.20V282.65H352.55V283.72H351.20V285.95H349.93V283.72H345.65V282.48Z" fill="#000"/></g><line x1="167.28" x2="166.63" y1="348.81" y2="353.26" stroke="#000000" stroke-width="1.00"/><g transform="rotate(-81.66 167.58 368.90)"><path d="M161.37 360.27Q160.38 360.27 159.88 361.24Q159.38 362.21 159.38 364.17Q159.38 366.12 159.88 367.09Q160.38 368.07 161.37 368.07Q162.37 368.07 162.87 367.09Q163.36 366.12 163.36 364.17Q163.36 362.21 162.87 361.24Q162.37 360.27 161.37 360.27ZM161.37 359.25Q162.96 359.25 163.81 360.51Q164.65 361.77 164.65 364.17Q164.65 366.56 163.81 367.82Q162.96 369.08 161.37 369.08Q159.78 369.08 158.94 367.82Q158.10 366.56 158.10 364.17Q158.10 361.77 158.94 360.51Q159.78 359.25 161.37 359.25ZM166.90 367.29H168.24V368.90H166.90ZM173.93 363.65Q173.07 363.65 172.57 364.24Q172.06 364.83 172.06 365.86Q172.06 366.88 172.57 367.47Q173.07 368.07 173.93 368.07Q174.80 368.07 175.30 367.47Q175.81 366.88 175.81 365.86Q175.81 364.83 175.30 364.24Q174.80 363.65 173.93 363.65ZM176.48 359.63V360.80Q176.00 360.57 175.50 360.45Q175.01 360.33 174.53 360.33Q173.26 360.33 172.59 361.19Q171.92 362.04 171.83 363.78Q172.20 363.22 172.77 362.93Q173.33 362.63 174.01 362.63Q175.44 362.63 176.27 363.50Q177.09 364.37 177.09 365.86Q177.09 367.32 176.23 368.20Q175.37 369.08 173.93 369.08Q172.29 369.08 171.42 367.82Q170.55 366.56 170.55 364.17Q170.55 361.92 171.62 360.59Q172.68 359.25 174.48 359.25Q174.96 359.25 175.45 359.35Q175.95 359.44 176.48 359.63Z" fill="#000"/></g><line x1="35.49" x2="31.13" y1="230.14" y2="231.26" stroke="#000000" stroke-width="1.00"/><g transform="rotate(-14.34 17.06 238.16)"><path d="M10.86 229.53Q9.87 229.53 9.37 230.50Q8.87 231.48 8.87 233.43Q8.87 235.38 9.37 236.35Q9.87 237.33 10.86 237.33Q11.86 237.33 12.35 236.35Q12.85 235.38 12.85 233.43Q12.85 231.48 12.35 230.50Q11.86 229.53 10.86 229.53ZM10.86 228.51Q12.45 228.51 13.29 229.77Q14.13 231.03 14.13 233.43Q14.13 235.82 13.29 237.08Q12.45 238.34 10.86 238.34Q9.27 238.34 8.42 237.08Q7.58 235.82 7.58 233.43Q7.58 231.03 8.42 229.77Q9.27 228.51 10.86 228.51ZM16.39 236.55H17.73V238.16H16.39ZM23.26 233.66Q22.35 233.66 21.82 234.15Q21.30 234.64 21.30 235.49Q21.30 236.35 21.82 236.84Q22.35 237.33 23.26 237.33Q24.18 237.33 24.70 236.84Q25.23 236.35 25.23 235.49Q25.23 234.64 24.71 234.15Q24.18 233.66 23.26 233.66ZM21.98 233.11Q21.15 232.91 20.69 232.35Q20.23 231.78 20.23 230.97Q20.23 229.83 21.04 229.17Q21.85 228.51 23.26 228.51Q24.68 228.51 25.48 229.17Q26.29 229.83 26.29 230.97Q26.29 231.78 25.83 232.35Q25.37 232.91 24.55 233.11Q25.48 233.33 25.99 233.96Q26.51 234.59 26.51 235.49Q26.51 236.87 25.67 237.61Q24.83 238.34 23.26 238.34Q21.69 238.34 20.85 237.61Q20.01 236.87 20.01 235.49Q20.01 234.59 20.53 233.96Q21.05 233.33 21.98 233.11ZM21.51 231.09Q21.51 231.83 21.97 232.24Q22.43 232.65 23.26 232.65Q24.09 232.65 24.55 232.24Q25.02 231.83 25.02 231.09Q25.02 230.35 24.55 229.94Q24.09 229.53 23.26 229.53Q22.43 229.53 21.97 229.94Q21.51 230.35 21.51 231.09Z" fill="#000"/></g><line x1="94.14" x2="91.43" y1="62.77" y2="59.18" stroke="#000000" stroke-width="1.00"/><g transform="rotate(52.97 83.37 53.82)"><path d="M80.84 52.74H82.94V45.51L80.66 45.97V44.80L82.92 44.34H84.21V52.74H86.30V53.82H80.84Z" fill="#000"/></g><circle cx="190.50" cy="190.50" r="48.00" fill="none" stroke="#000000" stroke-width="1.00"/><circle cx="190.50" cy="190.50" r="160.00" fill="none" stroke="#000000" stroke-width="1.00"/></g></g></g></svg>