<svg xmlns="http://www.w3.org/2000/svg" width="619" height="407" viewBox="0 0 619 407"><g font-family="sans-serif"><rect x="0" y="0" width="619" height="407" fill="#fafafa"/><defs><pattern id="plotlet-gap-hatch" patternUnits="userSpaceOnUse" width="6" height="6" patternTransform="rotate(45)"><rect width="6" height="6" fill="#666" fill-opacity="0.06"/><line x1="0" y1="0" x2="0" y2="6" stroke="#666" stroke-opacity="0.45" stroke-width="1"/></pattern></defs><rect x="0" y="0" width="619" height="407" fill="none" stroke="#bbb" stroke-width="0.5" stroke-dasharray="2,2"/><rect x="158" y="0" width="461" height="117" fill="#1f77b4" fill-opacity="0.12" stroke="#1f77b4" stroke-width="1.2" stroke-dasharray="5,3"/><rect x="175" y="33" width="440" height="80" fill="#1f77b4" fill-opacity="0.38" stroke="#1f77b4" stroke-width="0.6" stroke-opacity="0.6"/><text x="388.5" y="19.5" text-anchor="middle" font-size="10" fill="#444">33</text><text x="166.5" y="73.0" text-anchor="middle" font-size="10" fill="#444" transform="rotate(-90 166.5 73.0)">17</text><text x="395.0" y="69.0" text-anchor="middle" font-size="12" fill="#222" font-weight="bold">440 × 80</text><text x="395.0" y="85.0" text-anchor="middle" font-size="9" fill="#555">&quot;top&quot;</text><text x="395.0" y="98.0" text-anchor="middle" font-size="8" fill="#666">x: linear 0.8,5.2</text><text x="395.0" y="109.0" text-anchor="middle" font-size="8" fill="#666">y: linear 0.9,3.1</text><rect x="0" y="117" width="158" height="290" fill="#ff7f0e" fill-opacity="0.12" stroke="#ff7f0e" stroke-width="1.2" stroke-dasharray="5,3"/><rect x="34" y="121" width="120" height="260" fill="#ff7f0e" fill-opacity="0.38" stroke="#ff7f0e" stroke-width="0.6" stroke-opacity="0.6"/><text x="79.0" y="397.0" text-anchor="middle" font-size="10" fill="#444">26</text><text x="17.0" y="251.0" text-anchor="middle" font-size="10" fill="#444" transform="rotate(-90 17.0 251.0)">34</text><text x="94.0" y="247.0" text-anchor="middle" font-size="12" fill="#222" font-weight="bold">120 × 260</text><text x="94.0" y="263.0" text-anchor="middle" font-size="9" fill="#555">&quot;tree&quot;</text><text x="94.0" y="276.0" text-anchor="middle" font-size="8" fill="#666">x: linear -0.1,2.1</text><text x="94.0" y="287.0" text-anchor="middle" font-size="8" fill="#666">y: linear 0.8,5.2</text><rect x="158" y="117" width="461" height="290" fill="#d62728" fill-opacity="0.12" stroke="#d62728" stroke-width="1.2" stroke-dasharray="5,3"/><rect x="175" y="121" width="440" height="260" fill="#d62728" fill-opacity="0.38" stroke="#d62728" stroke-width="0.6" stroke-opacity="0.6"/><text x="388.5" y="397.0" text-anchor="middle" font-size="10" fill="#444">26</text><text x="166.5" y="251.0" text-anchor="middle" font-size="10" fill="#444" transform="rotate(-90 166.5 251.0)">17</text><text x="395.0" y="247.0" text-anchor="middle" font-size="12" fill="#222" font-weight="bold">440 × 260</text><text x="395.0" y="263.0" text-anchor="middle" font-size="9" fill="#555">&quot;main&quot;</text><text x="395.0" y="276.0" text-anchor="middle" font-size="8" fill="#666">x: linear 0.8,5.2</text><text x="395.0" y="287.0" text-anchor="middle" font-size="8" fill="#666">y: linear 0.8,5.2</text></g></svg>