<svg xmlns="http://www.w3.org/2000/svg" width="619" height="407" viewBox="0 0 619 407"><g font-family="sans-serif"><rect x="0.00" y="0.00" width="619.00" height="407.00" fill="#fafafa"/><defs><pattern id="plotlet-gap-hatch" patternUnits="userSpaceOnUse" width="6" height="6" patternTransform="rotate(45)"><rect width="6" height="6" fill="#666" fill-opacity="0.06"/><line x1="0" y1="0" x2="0" y2="6" stroke="#666" stroke-opacity="0.45" stroke-width="1"/></pattern></defs><rect x="0.00" y="0.00" width="619.00" height="407.00" fill="none" stroke="#bbb" stroke-width="0.5" stroke-dasharray="2,2"/><rect x="158.00" y="0.00" width="461.00" height="117.00" fill="#1f77b4" stroke="#1f77b4" stroke-width="1.2" stroke-dasharray="5,3" fill-opacity="0.12"/><rect x="175.00" y="33.00" width="440.00" height="80.00" fill="#1f77b4" stroke="#1f77b4" stroke-width="0.6" fill-opacity="0.38" stroke-opacity="0.6"/><text x="395.0" y="69.0" text-anchor="middle" font-size="12" fill="#222" font-weight="bold">440 × 80</text><text x="395.0" y="85.0" text-anchor="middle" font-size="9" fill="#555">&quot;top&quot;</text><text x="395.0" y="98.0" text-anchor="middle" font-size="8" fill="#666">x: linear 0.8,5.2</text><text x="395.0" y="109.0" text-anchor="middle" font-size="8" fill="#666">y: linear 0.9,3.1</text><rect x="0.00" y="117.00" width="158.00" height="290.00" fill="#ff7f0e" stroke="#ff7f0e" stroke-width="1.2" stroke-dasharray="5,3" fill-opacity="0.12"/><rect x="34.00" y="121.00" width="120.00" height="260.00" fill="#ff7f0e" stroke="#ff7f0e" stroke-width="0.6" fill-opacity="0.38" stroke-opacity="0.6"/><text x="94.0" y="247.0" text-anchor="middle" font-size="12" fill="#222" font-weight="bold">120 × 260</text><text x="94.0" y="263.0" text-anchor="middle" font-size="9" fill="#555">&quot;tree&quot;</text><text x="94.0" y="276.0" text-anchor="middle" font-size="8" fill="#666">x: linear -0.1,2.1</text><text x="94.0" y="287.0" text-anchor="middle" font-size="8" fill="#666">y: linear 0.8,5.2</text><rect x="158.00" y="117.00" width="461.00" height="290.00" fill="#d62728" stroke="#d62728" stroke-width="1.2" stroke-dasharray="5,3" fill-opacity="0.12"/><rect x="175.00" y="121.00" width="440.00" height="260.00" fill="#d62728" stroke="#d62728" stroke-width="0.6" fill-opacity="0.38" stroke-opacity="0.6"/><text x="395.0" y="247.0" text-anchor="middle" font-size="12" fill="#222" font-weight="bold">440 × 260</text><text x="395.0" y="263.0" text-anchor="middle" font-size="9" fill="#555">&quot;main&quot;</text><text x="395.0" y="276.0" text-anchor="middle" font-size="8" fill="#666">x: linear 0.8,5.2</text><text x="395.0" y="287.0" text-anchor="middle" font-size="8" fill="#666">y: linear 0.8,5.2</text><rect x="175.0" y="33.0" width="440.0" height="80.0" fill="#d00" fill-opacity="0.3"/><rect x="175.0" y="32.5" width="440.0" height="1.0" fill="#999" fill-opacity="0.3"/><rect x="175.0" y="112.5" width="440.0" height="1.0" fill="#999" fill-opacity="0.3"/><rect x="174.5" y="33.0" width="1.0" height="80.0" fill="#999" fill-opacity="0.3"/><rect x="614.5" y="33.0" width="1.0" height="80.0" fill="#999" fill-opacity="0.3"/><rect x="157.2" y="104.6" width="8.3" height="12.5" fill="#06c" fill-opacity="0.3"/><rect x="157.2" y="68.3" width="8.3" height="12.5" fill="#06c" fill-opacity="0.3"/><rect x="157.2" y="31.9" width="8.3" height="12.5" fill="#06c" fill-opacity="0.3"/><rect x="381.9" y="8.3" width="26.2" height="15.4" fill="#070" fill-opacity="0.3"/><rect x="34.0" y="121.0" width="120.0" height="260.0" fill="#d00" fill-opacity="0.3"/><rect x="34.0" y="120.5" width="120.0" height="1.0" fill="#999" fill-opacity="0.3"/><rect x="34.0" y="380.5" width="120.0" height="1.0" fill="#999" fill-opacity="0.3"/><rect x="33.5" y="121.0" width="1.0" height="260.0" fill="#999" fill-opacity="0.3"/><rect x="153.5" y="121.0" width="1.0" height="260.0" fill="#999" fill-opacity="0.3"/><rect x="35.3" y="390.5" width="8.3" height="12.5" fill="#06c" fill-opacity="0.3"/><rect x="89.9" y="390.5" width="8.3" height="12.5" fill="#06c" fill-opacity="0.3"/><rect x="144.4" y="390.5" width="8.3" height="12.5" fill="#06c" fill-opacity="0.3"/><rect x="16.2" y="364.4" width="8.3" height="12.5" fill="#06c" fill-opacity="0.3"/><rect x="16.2" y="305.4" width="8.3" height="12.5" fill="#06c" fill-opacity="0.3"/><rect x="16.2" y="246.3" width="8.3" height="12.5" fill="#06c" fill-opacity="0.3"/><rect x="16.2" y="187.2" width="8.3" height="12.5" fill="#06c" fill-opacity="0.3"/><rect x="16.2" y="128.1" width="8.3" height="12.5" fill="#06c" fill-opacity="0.3"/><rect x="175.0" y="121.0" width="440.0" height="260.0" fill="#d00" fill-opacity="0.3"/><rect x="175.0" y="120.5" width="440.0" height="1.0" fill="#999" fill-opacity="0.3"/><rect x="175.0" y="380.5" width="440.0" height="1.0" fill="#999" fill-opacity="0.3"/><rect x="174.5" y="121.0" width="1.0" height="260.0" fill="#999" fill-opacity="0.3"/><rect x="614.5" y="121.0" width="1.0" height="260.0" fill="#999" fill-opacity="0.3"/><rect x="190.9" y="390.5" width="8.3" height="12.5" fill="#06c" fill-opacity="0.3"/><rect x="290.9" y="390.5" width="8.3" height="12.5" fill="#06c" fill-opacity="0.3"/><rect x="390.9" y="390.5" width="8.3" height="12.5" fill="#06c" fill-opacity="0.3"/><rect x="490.9" y="390.5" width="8.3" height="12.5" fill="#06c" fill-opacity="0.3"/><rect x="590.9" y="390.5" width="8.3" height="12.5" fill="#06c" fill-opacity="0.3"/></g></svg>