<svg xmlns="http://www.w3.org/2000/svg" width="648" height="430" viewBox="0 0 648 430"><g font-family="sans-serif"><rect x="0" y="0" width="648" height="430" fill="#fafafa"/><defs><pattern id="plotlet-gap-hatch" patternUnits="userSpaceOnUse" width="6" height="6" patternTransform="rotate(45)"><rect width="6" height="6" fill="#666" fill-opacity="0.06"/><line x1="0" y1="0" x2="0" y2="6" stroke="#666" stroke-opacity="0.45" stroke-width="1"/></pattern></defs><rect x="0" y="0" width="648" height="430" fill="none" stroke="#bbb" stroke-width="0.5" stroke-dasharray="2,2"/><rect x="184" y="0" width="464" height="116" fill="#1f77b4" fill-opacity="0.12" stroke="#1f77b4" stroke-width="1.2" stroke-dasharray="5,3"/><rect x="190" y="30" width="440" height="80" fill="#1f77b4" fill-opacity="0.38" stroke="#1f77b4" stroke-width="0.6" stroke-opacity="0.6"/><text x="416.0" y="18.0" text-anchor="middle" font-size="10" fill="#444">30</text><text x="639.0" y="70.0" text-anchor="middle" font-size="10" fill="#444" transform="rotate(-90 639.0 70.0)">18</text><text x="410.0" y="66.0" text-anchor="middle" font-size="12" fill="#222" font-weight="bold">440 × 80</text><text x="410.0" y="82.0" text-anchor="middle" font-size="9" fill="#555">&quot;top&quot;</text><text x="410.0" y="95.0" text-anchor="middle" font-size="8" fill="#666">x: linear 1.0,5.0</text><text x="410.0" y="106.0" text-anchor="middle" font-size="8" fill="#666">y: linear 1.0,3.0</text><rect x="0" y="116" width="184" height="314" fill="#ff7f0e" fill-opacity="0.12" stroke="#ff7f0e" stroke-width="1.2" stroke-dasharray="5,3"/><rect x="58" y="122" width="120" height="260" fill="#ff7f0e" fill-opacity="0.38" stroke="#ff7f0e" stroke-width="0.6" stroke-opacity="0.6"/><text x="92.0" y="409.0" text-anchor="middle" font-size="10" fill="#444">48</text><text x="29.0" y="252.0" text-anchor="middle" font-size="10" fill="#444" transform="rotate(-90 29.0 252.0)">58</text><text x="118.0" y="248.0" text-anchor="middle" font-size="12" fill="#222" font-weight="bold">120 × 260</text><text x="118.0" y="264.0" text-anchor="middle" font-size="9" fill="#555">&quot;tree&quot;</text><text x="118.0" y="277.0" text-anchor="middle" font-size="8" fill="#666">x: linear 0.0,2.0</text><text x="118.0" y="288.0" text-anchor="middle" font-size="8" fill="#666">y: linear 1.0,5.0</text><rect x="184" y="116" width="464" height="314" fill="#d62728" fill-opacity="0.12" stroke="#d62728" stroke-width="1.2" stroke-dasharray="5,3"/><rect x="190" y="122" width="440" height="260" fill="#d62728" fill-opacity="0.38" stroke="#d62728" stroke-width="0.6" stroke-opacity="0.6"/><text x="416.0" y="409.0" text-anchor="middle" font-size="10" fill="#444">48</text><text x="639.0" y="252.0" text-anchor="middle" font-size="10" fill="#444" transform="rotate(-90 639.0 252.0)">18</text><text x="410.0" y="248.0" text-anchor="middle" font-size="12" fill="#222" font-weight="bold">440 × 260</text><text x="410.0" y="264.0" text-anchor="middle" font-size="9" fill="#555">&quot;main&quot;</text><text x="410.0" y="277.0" text-anchor="middle" font-size="8" fill="#666">x: linear 1.0,5.0</text><text x="410.0" y="288.0" text-anchor="middle" font-size="8" fill="#666">y: linear 1.0,5.0</text></g></svg>