<svg xmlns="http://www.w3.org/2000/svg" width="437" height="259" viewBox="0 0 437 259" font-family="DejaVu Sans, Bitstream Vera Sans, Verdana, Arial, sans-serif" font-size="11" style="background:#fff" data-plotlet-version="0.5.0" data-plotlet-schema="2" data-plotlet-kind="figure"><g transform="translate(58,33)" data-plotlet-kind="panel" data-plotlet-title="bar fill (100%)" data-plotlet-ylabel="share" data-plotlet-xscale="category" data-plotlet-yscale="linear" data-plotlet-ylim="0,1.05" data-plotlet-panel-bbox="0,0,437,259" data-plotlet-data-area="58,33,300,200"><metadata data-plotlet-payload="xcategories"><![CDATA[["Q1","Q2","Q3","Q4"]]]></metadata><svg x="0" y="0" width="300" height="200" overflow="hidden"><g class="plotlet-artist" data-plotlet-type="bar" data-plotlet-index="0" data-plotlet-color="#1f77b4" data-plotlet-n="4" data-plotlet-y-min="5" data-plotlet-y-max="22"><rect x="14.29" y="108.57" width="57.14" height="91.43" fill="#1f77b4"/><rect x="85.71" y="112.09" width="57.14" height="87.91" fill="#1f77b4"/><rect x="157.14" y="128.57" width="57.14" height="71.43" fill="#1f77b4"/><rect x="228.57" y="117.83" width="57.14" height="82.17" fill="#1f77b4"/><rect x="14.29" y="47.62" width="57.14" height="60.95" fill="#ff7f0e"/><rect x="85.71" y="43.71" width="57.14" height="68.38" fill="#ff7f0e"/><rect x="157.14" y="52.38" width="57.14" height="76.19" fill="#ff7f0e"/><rect x="228.57" y="50.61" width="57.14" height="67.23" fill="#ff7f0e"/><rect x="14.29" y="9.52" width="57.14" height="38.10" fill="#2ca02c"/><rect x="85.71" y="9.52" width="57.14" height="34.19" fill="#2ca02c"/><rect x="157.14" y="9.52" width="57.14" height="42.86" fill="#2ca02c"/><rect x="228.57" y="9.52" width="57.14" height="41.08" fill="#2ca02c"/></g></svg><line x1="0" y1="0" x2="300" y2="0" stroke="#000000" stroke-width="1.0"/><line x1="0" y1="200" x2="300" y2="200" stroke="#000000" stroke-width="1.0"/><line x1="0" y1="0" x2="0" y2="200" stroke="#000000" stroke-width="1.0"/><line x1="300" y1="0" x2="300" y2="200" stroke="#000000" stroke-width="1.0"/><line x1="42.86" x2="42.86" y1="200" y2="204.5" stroke="#000000" stroke-width="1.0"/><path d="M38.72799246651786 210.36962890625Q37.33150809151786 210.36962890625 36.50948660714286 211.41064453125Q35.68746512276786 212.45166015625 35.68746512276786 214.248046875Q35.68746512276786 216.0380859375 36.50948660714286 217.0791015625Q37.33150809151786 218.1201171875 38.72799246651786 218.1201171875Q40.12447684151786 218.1201171875 40.94015066964286 217.0791015625Q41.75582449776786 216.0380859375 41.75582449776786 214.248046875Q41.75582449776786 212.45166015625 40.94015066964286 211.41064453125Q40.12447684151786 210.36962890625 38.72799246651786 210.36962890625ZM40.52437918526786 218.8056640625 42.21285574776786 220.65283203125H40.66402762276786L39.26119559151786 219.1357421875Q39.05172293526786 219.1484375 38.94063895089286 219.15478515625Q38.82955496651786 219.1611328125 38.72799246651786 219.1611328125Q36.72848074776786 219.1611328125 35.53194754464286 217.824951171875Q34.33541434151786 216.48876953125 34.33541434151786 214.248046875Q34.33541434151786 212.0009765625 35.53194754464286 210.664794921875Q36.72848074776786 209.32861328125 38.72799246651786 209.32861328125Q40.72115652901786 209.32861328125 41.91451590401786 210.664794921875Q43.10787527901786 212.0009765625 43.10787527901786 214.248046875Q43.10787527901786 215.8984375 42.44454520089286 217.07275390625Q41.78121512276786 218.2470703125 40.52437918526786 218.8056640625ZM45.45016043526786 217.89794921875H47.54488699776786V210.66796875L45.26607840401786 211.125V209.95703125L47.53219168526786 209.5H48.81441824776786V217.89794921875H50.90914481026786V218.97705078125H45.45016043526786Z" fill="#000"/><line x1="114.29" x2="114.29" y1="200" y2="204.5" stroke="#000000" stroke-width="1.0"/><path d="M110.15656389508929 210.36962890625Q108.76007952008929 210.36962890625 107.93805803571429 211.41064453125Q107.11603655133929 212.45166015625 107.11603655133929 214.248046875Q107.11603655133929 216.0380859375 107.93805803571429 217.0791015625Q108.76007952008929 218.1201171875 110.15656389508929 218.1201171875Q111.55304827008929 218.1201171875 112.36872209821429 217.0791015625Q113.18439592633929 216.0380859375 113.18439592633929 214.248046875Q113.18439592633929 212.45166015625 112.36872209821429 211.41064453125Q111.55304827008929 210.36962890625 110.15656389508929 210.36962890625ZM111.95295061383929 218.8056640625 113.64142717633929 220.65283203125H112.09259905133929L110.68976702008929 219.1357421875Q110.48029436383929 219.1484375 110.36921037946429 219.15478515625Q110.25812639508929 219.1611328125 110.15656389508929 219.1611328125Q108.15705217633929 219.1611328125 106.96051897321429 217.824951171875Q105.76398577008929 216.48876953125 105.76398577008929 214.248046875Q105.76398577008929 212.0009765625 106.96051897321429 210.664794921875Q108.15705217633929 209.32861328125 110.15656389508929 209.32861328125Q112.14972795758929 209.32861328125 113.34308733258929 210.664794921875Q114.53644670758929 212.0009765625 114.53644670758929 214.248046875Q114.53644670758929 215.8984375 113.87311662946429 217.07275390625Q113.20978655133929 218.2470703125 111.95295061383929 218.8056640625ZM117.76105608258929 217.89794921875H122.23615373883929V218.97705078125H116.21857561383929V217.89794921875Q116.94855608258929 217.142578125 118.20856584821429 215.869873046875Q119.46857561383929 214.59716796875 119.79230608258929 214.22900390625Q120.40802873883929 213.537109375 120.65241350446429 213.057861328125Q120.89679827008929 212.57861328125 120.89679827008929 212.115234375Q120.89679827008929 211.35986328125 120.36676897321429 210.8837890625Q119.83673967633929 210.40771484375 118.98615373883929 210.40771484375Q118.38312639508929 210.40771484375 117.71344866071429 210.6171875Q117.04377092633929 210.82666015625 116.28205217633929 211.251953125V209.95703125Q117.05646623883929 209.64599609375 117.72931780133929 209.4873046875Q118.40216936383929 209.32861328125 118.96076311383929 209.32861328125Q120.43341936383929 209.32861328125 121.30939592633929 210.06494140625Q122.18537248883929 210.80126953125 122.18537248883929 212.03271484375Q122.18537248883929 212.61669921875 121.96637834821429 213.140380859375Q121.74738420758929 213.6640625 121.16974748883929 214.375Q121.01105608258929 214.55908203125 120.16047014508929 215.438232421875Q119.30988420758929 216.3173828125 117.76105608258929 217.89794921875Z" fill="#000"/><line x1="185.71" x2="185.71" y1="200" y2="204.5" stroke="#000000" stroke-width="1.0"/><path d="M181.58513532366072 210.36962890625Q180.18865094866072 210.36962890625 179.36662946428572 211.41064453125Q178.54460797991072 212.45166015625 178.54460797991072 214.248046875Q178.54460797991072 216.0380859375 179.36662946428572 217.0791015625Q180.18865094866072 218.1201171875 181.58513532366072 218.1201171875Q182.98161969866072 218.1201171875 183.79729352678572 217.0791015625Q184.61296735491072 216.0380859375 184.61296735491072 214.248046875Q184.61296735491072 212.45166015625 183.79729352678572 211.41064453125Q182.98161969866072 210.36962890625 181.58513532366072 210.36962890625ZM183.38152204241072 218.8056640625 185.06999860491072 220.65283203125H183.52117047991072L182.11833844866072 219.1357421875Q181.90886579241072 219.1484375 181.79778180803572 219.15478515625Q181.68669782366072 219.1611328125 181.58513532366072 219.1611328125Q179.58562360491072 219.1611328125 178.38909040178572 217.824951171875Q177.19255719866072 216.48876953125 177.19255719866072 214.248046875Q177.19255719866072 212.0009765625 178.38909040178572 210.664794921875Q179.58562360491072 209.32861328125 181.58513532366072 209.32861328125Q183.57829938616072 209.32861328125 184.77165876116072 210.664794921875Q185.96501813616072 212.0009765625 185.96501813616072 214.248046875Q185.96501813616072 215.8984375 185.30168805803572 217.07275390625Q184.63835797991072 218.2470703125 183.38152204241072 218.8056640625ZM191.96990094866072 213.8671875Q192.89031110491072 214.06396484375 193.40764508928572 214.68603515625Q193.92497907366072 215.30810546875 193.92497907366072 216.22216796875Q193.92497907366072 217.625 192.96013532366072 218.39306640625Q191.99529157366072 219.1611328125 190.21794782366072 219.1611328125Q189.62126813616072 219.1611328125 188.98967633928572 219.043701171875Q188.35808454241072 218.92626953125 187.68523297991072 218.69140625V217.45361328125Q188.21843610491072 217.7646484375 188.85320172991072 217.92333984375Q189.48796735491072 218.08203125 190.17986188616072 218.08203125Q191.38591657366072 218.08203125 192.01750837053572 217.60595703125Q192.64910016741072 217.1298828125 192.64910016741072 216.22216796875Q192.64910016741072 215.38427734375 192.06194196428572 214.911376953125Q191.47478376116072 214.4384765625 190.42742047991072 214.4384765625H189.32292829241072V213.384765625H190.47820172991072Q191.42400251116072 213.384765625 191.92546735491072 213.007080078125Q192.42693219866072 212.62939453125 192.42693219866072 211.91845703125Q192.42693219866072 211.1884765625 191.90959821428572 210.798095703125Q191.39226422991072 210.40771484375 190.42742047991072 210.40771484375Q189.90056501116072 210.40771484375 189.29753766741072 210.52197265625Q188.69451032366072 210.63623046875 187.97087751116072 210.87744140625V209.73486328125Q188.70085797991072 209.53173828125 189.33879743303572 209.43017578125Q189.97673688616072 209.32861328125 190.54167829241072 209.32861328125Q192.00163922991072 209.32861328125 192.85222516741072 209.991943359375Q193.70281110491072 210.6552734375 193.70281110491072 211.78515625Q193.70281110491072 212.572265625 193.25212751116072 213.114990234375Q192.80144391741072 213.65771484375 191.96990094866072 213.8671875Z" fill="#000"/><line x1="257.14" x2="257.14" y1="200" y2="204.5" stroke="#000000" stroke-width="1.0"/><path d="M253.0137067522321 210.36962890625Q251.6172223772321 210.36962890625 250.7952008928571 211.41064453125Q249.9731794084821 212.45166015625 249.9731794084821 214.248046875Q249.9731794084821 216.0380859375 250.7952008928571 217.0791015625Q251.6172223772321 218.1201171875 253.0137067522321 218.1201171875Q254.4101911272321 218.1201171875 255.2258649553571 217.0791015625Q256.0415387834821 216.0380859375 256.0415387834821 214.248046875Q256.0415387834821 212.45166015625 255.2258649553571 211.41064453125Q254.4101911272321 210.36962890625 253.0137067522321 210.36962890625ZM254.8100934709821 218.8056640625 256.4985700334821 220.65283203125H254.9497419084821L253.5469098772321 219.1357421875Q253.3374372209821 219.1484375 253.2263532366071 219.15478515625Q253.1152692522321 219.1611328125 253.0137067522321 219.1611328125Q251.0141950334821 219.1611328125 249.8176618303571 217.824951171875Q248.6211286272321 216.48876953125 248.6211286272321 214.248046875Q248.6211286272321 212.0009765625 249.8176618303571 210.664794921875Q251.0141950334821 209.32861328125 253.0137067522321 209.32861328125Q255.0068708147321 209.32861328125 256.2002301897321 210.664794921875Q257.3935895647321 212.0009765625 257.3935895647321 214.248046875Q257.3935895647321 215.8984375 256.7302594866071 217.07275390625Q256.0669294084821 218.2470703125 254.8100934709821 218.8056640625ZM263.0366559709821 210.6171875 259.7993512834821 215.67626953125H263.0366559709821ZM262.7002301897321 209.5H264.3125348772321V215.67626953125H265.6645856584821V216.74267578125H264.3125348772321V218.97705078125H263.0366559709821V216.74267578125H258.7583356584821V215.5048828125Z" fill="#000"/><line x1="0" x2="-4.5" y1="200.00" y2="200.00" stroke="#000000" stroke-width="1.0"/><path d="M-13.638671875 196.105712890625Q-14.62890625 196.105712890625 -15.127197265625 197.080078125Q-15.62548828125 198.054443359375 -15.62548828125 200.009521484375Q-15.62548828125 201.958251953125 -15.127197265625 202.9326171875Q-14.62890625 203.906982421875 -13.638671875 203.906982421875Q-12.64208984375 203.906982421875 -12.143798828125 202.9326171875Q-11.6455078125 201.958251953125 -11.6455078125 200.009521484375Q-11.6455078125 198.054443359375 -12.143798828125 197.080078125Q-12.64208984375 196.105712890625 -13.638671875 196.105712890625ZM-13.638671875 195.090087890625Q-12.04541015625 195.090087890625 -11.204345703125 196.35009765625Q-10.36328125 197.610107421875 -10.36328125 200.009521484375Q-10.36328125 202.402587890625 -11.204345703125 203.66259765625Q-12.04541015625 204.922607421875 -13.638671875 204.922607421875Q-15.23193359375 204.922607421875 -16.072998046875 203.66259765625Q-16.9140625 202.402587890625 -16.9140625 200.009521484375Q-16.9140625 197.610107421875 -16.072998046875 196.35009765625Q-15.23193359375 195.090087890625 -13.638671875 195.090087890625Z" fill="#000"/><line x1="0" x2="-4.5" y1="161.90" y2="161.90" stroke="#000000" stroke-width="1.0"/><path d="M-26.0419921875 158.0104747953869Q-27.0322265625 158.0104747953869 -27.530517578125 158.9848400297619Q-28.02880859375 159.9592052641369 -28.02880859375 161.9142833891369Q-28.02880859375 163.8630138578869 -27.530517578125 164.8373790922619Q-27.0322265625 165.8117443266369 -26.0419921875 165.8117443266369Q-25.04541015625 165.8117443266369 -24.547119140625 164.8373790922619Q-24.048828125 163.8630138578869 -24.048828125 161.9142833891369Q-24.048828125 159.9592052641369 -24.547119140625 158.9848400297619Q-25.04541015625 158.0104747953869 -26.0419921875 158.0104747953869ZM-26.0419921875 156.9948497953869Q-24.44873046875 156.9948497953869 -23.607666015625 158.2548595610119Q-22.7666015625 159.5148693266369 -22.7666015625 161.9142833891369Q-22.7666015625 164.3073497953869 -23.607666015625 165.5673595610119Q-24.44873046875 166.8273693266369 -26.0419921875 166.8273693266369Q-27.63525390625 166.8273693266369 -28.476318359375 165.5673595610119Q-29.3173828125 164.3073497953869 -29.3173828125 161.9142833891369Q-29.3173828125 159.5148693266369 -28.476318359375 158.2548595610119Q-27.63525390625 156.9948497953869 -26.0419921875 156.9948497953869ZM-20.51318359375 165.0309826078869H-19.173828125V166.6432872953869H-20.51318359375ZM-15.2763671875 165.5641857328869H-10.80126953125V166.6432872953869H-16.81884765625V165.5641857328869Q-16.0888671875 164.8088146391369 -14.828857421875 163.5361095610119Q-13.56884765625 162.2634044828869 -13.2451171875 161.8952404203869Q-12.62939453125 161.2033458891369 -12.385009765625 160.7240978422619Q-12.140625 160.2448497953869 -12.140625 159.7814708891369Q-12.140625 159.0260997953869 -12.670654296875 158.5500255766369Q-13.20068359375 158.0739513578869 -14.05126953125 158.0739513578869Q-14.654296875 158.0739513578869 -15.323974609375 158.2834240141369Q-15.99365234375 158.4928966703869 -16.75537109375 158.9181896391369V157.6232677641369Q-15.98095703125 157.3122326078869 -15.30810546875 157.1535412016369Q-14.63525390625 156.9948497953869 -14.07666015625 156.9948497953869Q-12.60400390625 156.9948497953869 -11.72802734375 157.7311779203869Q-10.85205078125 158.4675060453869 -10.85205078125 159.6989513578869Q-10.85205078125 160.2829357328869 -11.071044921875 160.8066173735119Q-11.2900390625 161.3302990141369 -11.86767578125 162.0412365141369Q-12.0263671875 162.2253185453869 -12.876953125 163.1044689360119Q-13.7275390625 163.9836193266369 -15.2763671875 165.5641857328869Z" fill="#000"/><line x1="0" x2="-4.5" y1="123.81" y2="123.81" stroke="#000000" stroke-width="1.0"/><path d="M-26.0419921875 119.9152367001488Q-27.0322265625 119.9152367001488 -27.530517578125 120.8896019345238Q-28.02880859375 121.8639671688988 -28.02880859375 123.8190452938988Q-28.02880859375 125.7677757626488 -27.530517578125 126.7421409970238Q-27.0322265625 127.7165062313988 -26.0419921875 127.7165062313988Q-25.04541015625 127.7165062313988 -24.547119140625 126.7421409970238Q-24.048828125 125.7677757626488 -24.048828125 123.8190452938988Q-24.048828125 121.8639671688988 -24.547119140625 120.8896019345238Q-25.04541015625 119.9152367001488 -26.0419921875 119.9152367001488ZM-26.0419921875 118.8996117001488Q-24.44873046875 118.8996117001488 -23.607666015625 120.1596214657738Q-22.7666015625 121.4196312313988 -22.7666015625 123.8190452938988Q-22.7666015625 126.2121117001488 -23.607666015625 127.4721214657738Q-24.44873046875 128.7321312313988 -26.0419921875 128.7321312313988Q-27.63525390625 128.7321312313988 -28.476318359375 127.4721214657738Q-29.3173828125 126.2121117001488 -29.3173828125 123.8190452938988Q-29.3173828125 121.4196312313988 -28.476318359375 120.1596214657738Q-27.63525390625 118.8996117001488 -26.0419921875 118.8996117001488ZM-20.51318359375 126.9357445126488H-19.173828125V128.5480492001488H-20.51318359375ZM-12.85791015625 120.1881859188988 -16.09521484375 125.2472679501488H-12.85791015625ZM-13.1943359375 119.0709984188988H-11.58203125V125.2472679501488H-10.22998046875V126.3136742001488H-11.58203125V128.5480492001488H-12.85791015625V126.3136742001488H-17.13623046875V125.0758812313988Z" fill="#000"/><line x1="0" x2="-4.5" y1="85.71" y2="85.71" stroke="#000000" stroke-width="1.0"/><path d="M-26.0419921875 81.81999860491072Q-27.0322265625 81.81999860491072 -27.530517578125 82.79436383928572Q-28.02880859375 83.76872907366072 -28.02880859375 85.72380719866072Q-28.02880859375 87.67253766741072 -27.530517578125 88.64690290178572Q-27.0322265625 89.62126813616072 -26.0419921875 89.62126813616072Q-25.04541015625 89.62126813616072 -24.547119140625 88.64690290178572Q-24.048828125 87.67253766741072 -24.048828125 85.72380719866072Q-24.048828125 83.76872907366072 -24.547119140625 82.79436383928572Q-25.04541015625 81.81999860491072 -26.0419921875 81.81999860491072ZM-26.0419921875 80.80437360491072Q-24.44873046875 80.80437360491072 -23.607666015625 82.06438337053572Q-22.7666015625 83.32439313616072 -22.7666015625 85.72380719866072Q-22.7666015625 88.11687360491072 -23.607666015625 89.37688337053572Q-24.44873046875 90.63689313616072 -26.0419921875 90.63689313616072Q-27.63525390625 90.63689313616072 -28.476318359375 89.37688337053572Q-29.3173828125 88.11687360491072 -29.3173828125 85.72380719866072Q-29.3173828125 83.32439313616072 -28.476318359375 82.06438337053572Q-27.63525390625 80.80437360491072 -26.0419921875 80.80437360491072ZM-20.51318359375 88.84050641741072H-19.173828125V90.45281110491072H-20.51318359375ZM-13.47998046875 85.20329938616072Q-14.34326171875 85.20329938616072 -14.847900390625 85.79363141741072Q-15.3525390625 86.38396344866072 -15.3525390625 87.41228376116072Q-15.3525390625 88.43425641741072 -14.847900390625 89.02776227678572Q-14.34326171875 89.62126813616072 -13.47998046875 89.62126813616072Q-12.61669921875 89.62126813616072 -12.112060546875 89.02776227678572Q-11.607421875 88.43425641741072 -11.607421875 87.41228376116072Q-11.607421875 86.38396344866072 -12.112060546875 85.79363141741072Q-12.61669921875 85.20329938616072 -13.47998046875 85.20329938616072ZM-10.9345703125 81.18523297991072V82.35320172991072Q-11.4169921875 82.12468610491072 -11.908935546875 82.00408063616072Q-12.40087890625 81.88347516741072 -12.88330078125 81.88347516741072Q-14.15283203125 81.88347516741072 -14.822509765625 82.74040876116072Q-15.4921875 83.59734235491072 -15.58740234375 85.33025251116072Q-15.212890625 84.77800641741072 -14.64794921875 84.48284040178572Q-14.0830078125 84.18767438616072 -13.40380859375 84.18767438616072Q-11.9755859375 84.18767438616072 -11.147216796875 85.05412946428572Q-10.31884765625 85.92058454241072 -10.31884765625 87.41228376116072Q-10.31884765625 88.87224469866072 -11.18212890625 89.75456891741072Q-12.04541015625 90.63689313616072 -13.47998046875 90.63689313616072Q-15.1240234375 90.63689313616072 -15.99365234375 89.37688337053572Q-16.86328125 88.11687360491072 -16.86328125 85.72380719866072Q-16.86328125 83.47673688616072 -15.796875 82.14055524553572Q-14.73046875 80.80437360491072 -12.93408203125 80.80437360491072Q-12.45166015625 80.80437360491072 -11.959716796875 80.89958844866072Q-11.4677734375 80.99480329241072 -10.9345703125 81.18523297991072Z" fill="#000"/><line x1="0" x2="-4.5" y1="47.62" y2="47.62" stroke="#000000" stroke-width="1.0"/><path d="M-26.0419921875 43.72476050967262Q-27.0322265625 43.72476050967262 -27.530517578125 44.69912574404762Q-28.02880859375 45.67349097842262 -28.02880859375 47.62856910342262Q-28.02880859375 49.57729957217262 -27.530517578125 50.55166480654762Q-27.0322265625 51.52603004092262 -26.0419921875 51.52603004092262Q-25.04541015625 51.52603004092262 -24.547119140625 50.55166480654762Q-24.048828125 49.57729957217262 -24.048828125 47.62856910342262Q-24.048828125 45.67349097842262 -24.547119140625 44.69912574404762Q-25.04541015625 43.72476050967262 -26.0419921875 43.72476050967262ZM-26.0419921875 42.70913550967262Q-24.44873046875 42.70913550967262 -23.607666015625 43.96914527529762Q-22.7666015625 45.22915504092262 -22.7666015625 47.62856910342262Q-22.7666015625 50.02163550967262 -23.607666015625 51.28164527529762Q-24.44873046875 52.54165504092262 -26.0419921875 52.54165504092262Q-27.63525390625 52.54165504092262 -28.476318359375 51.28164527529762Q-29.3173828125 50.02163550967262 -29.3173828125 47.62856910342262Q-29.3173828125 45.22915504092262 -28.476318359375 43.96914527529762Q-27.63525390625 42.70913550967262 -26.0419921875 42.70913550967262ZM-20.51318359375 50.74526832217262H-19.173828125V52.35757300967262H-20.51318359375ZM-13.638671875 47.85708472842262Q-14.552734375 47.85708472842262 -15.076416015625 48.34585425967262Q-15.60009765625 48.83462379092262 -15.60009765625 49.69155738467262Q-15.60009765625 50.54849097842262 -15.076416015625 51.03726050967262Q-14.552734375 51.52603004092262 -13.638671875 51.52603004092262Q-12.724609375 51.52603004092262 -12.19775390625 51.03408668154762Q-11.6708984375 50.54214332217262 -11.6708984375 49.69155738467262Q-11.6708984375 48.83462379092262 -12.194580078125 48.34585425967262Q-12.71826171875 47.85708472842262 -13.638671875 47.85708472842262ZM-14.9208984375 47.31118629092262Q-15.74609375 47.10806129092262 -16.206298828125 46.54311988467262Q-16.66650390625 45.97817847842262 -16.66650390625 45.16567847842262Q-16.66650390625 44.02944800967262 -15.857177734375 43.36929175967262Q-15.0478515625 42.70913550967262 -13.638671875 42.70913550967262Q-12.22314453125 42.70913550967262 -11.4169921875 43.36929175967262Q-10.61083984375 44.02944800967262 -10.61083984375 45.16567847842262Q-10.61083984375 45.97817847842262 -11.071044921875 46.54311988467262Q-11.53125 47.10806129092262 -12.35009765625 47.31118629092262Q-11.42333984375 47.52700660342262 -10.906005859375 48.15542457217262Q-10.388671875 48.78384254092262 -10.388671875 49.69155738467262Q-10.388671875 51.06899879092262 -11.229736328125 51.80532691592262Q-12.07080078125 52.54165504092262 -13.638671875 52.54165504092262Q-15.20654296875 52.54165504092262 -16.047607421875 51.80532691592262Q-16.888671875 51.06899879092262 -16.888671875 49.69155738467262Q-16.888671875 48.78384254092262 -16.3681640625 48.15542457217262Q-15.84765625 47.52700660342262 -14.9208984375 47.31118629092262ZM-15.390625 45.28628394717262Q-15.390625 46.02261207217262 -14.930419921875 46.43520972842262Q-14.47021484375 46.84780738467262 -13.638671875 46.84780738467262Q-12.8134765625 46.84780738467262 -12.346923828125 46.43520972842262Q-11.88037109375 46.02261207217262 -11.88037109375 45.28628394717262Q-11.88037109375 44.54995582217262 -12.346923828125 44.13735816592262Q-12.8134765625 43.72476050967262 -13.638671875 43.72476050967262Q-14.47021484375 43.72476050967262 -14.930419921875 44.13735816592262Q-15.390625 44.54995582217262 -15.390625 45.28628394717262Z" fill="#000"/><line x1="0" x2="-4.5" y1="9.52" y2="9.52" stroke="#000000" stroke-width="1.0"/><path d="M-16.15869140625 13.183233351934518H-14.06396484375V5.953252883184518L-16.3427734375 6.410284133184518V5.242315383184518L-14.07666015625 4.785284133184518H-12.79443359375V13.183233351934518H-10.69970703125V14.262334914434518H-16.15869140625Z" fill="#000"/><g transform="translate(-43.0,100.0) rotate(-90)"><path d="M-13.357421875 -7.4306640625V-6.2412109375Q-13.890625 -6.5146484375 -14.46484375 -6.6513671875Q-15.0390625 -6.7880859375 -15.654296875 -6.7880859375Q-16.5908203125 -6.7880859375 -17.05908203125 -6.5009765625Q-17.52734375 -6.2138671875 -17.52734375 -5.6396484375Q-17.52734375 -5.2021484375 -17.1923828125 -4.95263671875Q-16.857421875 -4.703125 -15.845703125 -4.4775390625L-15.4150390625 -4.3818359375Q-14.0751953125 -4.0947265625 -13.51123046875 -3.57177734375Q-12.947265625 -3.048828125 -12.947265625 -2.1123046875Q-12.947265625 -1.0458984375 -13.79150390625 -0.423828125Q-14.6357421875 0.1982421875 -16.1123046875 0.1982421875Q-16.7275390625 0.1982421875 -17.39404296875 0.07861328125Q-18.060546875 -0.041015625 -18.798828125 -0.2802734375V-1.5791015625Q-18.1015625 -1.216796875 -17.4248046875 -1.03564453125Q-16.748046875 -0.8544921875 -16.0849609375 -0.8544921875Q-15.1962890625 -0.8544921875 -14.7177734375 -1.15869140625Q-14.2392578125 -1.462890625 -14.2392578125 -2.0166015625Q-14.2392578125 -2.529296875 -14.58447265625 -2.802734375Q-14.9296875 -3.076171875 -16.0986328125 -3.3291015625L-16.5361328125 -3.431640625Q-17.705078125 -3.677734375 -18.224609375 -4.18701171875Q-18.744140625 -4.6962890625 -18.744140625 -5.5849609375Q-18.744140625 -6.6650390625 -17.978515625 -7.2529296875Q-17.212890625 -7.8408203125 -15.8046875 -7.8408203125Q-15.107421875 -7.8408203125 -14.4921875 -7.73828125Q-13.876953125 -7.6357421875 -13.357421875 -7.4306640625ZM-4.580078125 -4.62109375V0.0H-5.837890625V-4.580078125Q-5.837890625 -5.6669921875 -6.26171875 -6.20703125Q-6.685546875 -6.7470703125 -7.533203125 -6.7470703125Q-8.5517578125 -6.7470703125 -9.1396484375 -6.09765625Q-9.7275390625 -5.4482421875 -9.7275390625 -4.3271484375V0.0H-10.9921875V-10.63671875H-9.7275390625V-6.466796875Q-9.2763671875 -7.1572265625 -8.66455078125 -7.4990234375Q-8.052734375 -7.8408203125 -7.2529296875 -7.8408203125Q-5.93359375 -7.8408203125 -5.2568359375 -7.02392578125Q-4.580078125 -6.20703125 -4.580078125 -4.62109375ZM1.408203125 -3.8486328125Q-0.1162109375 -3.8486328125 -0.7041015625 -3.5Q-1.2919921875 -3.1513671875 -1.2919921875 -2.310546875Q-1.2919921875 -1.640625 -0.85107421875 -1.24755859375Q-0.41015625 -0.8544921875 0.3486328125 -0.8544921875Q1.39453125 -0.8544921875 2.02685546875 -1.59619140625Q2.6591796875 -2.337890625 2.6591796875 -3.568359375V-3.8486328125ZM3.9169921875 -4.3681640625V0.0H2.6591796875V-1.162109375Q2.228515625 -0.46484375 1.5859375 -0.13330078125Q0.943359375 0.1982421875 0.013671875 0.1982421875Q-1.162109375 0.1982421875 -1.85595703125 -0.46142578125Q-2.5498046875 -1.12109375 -2.5498046875 -2.228515625Q-2.5498046875 -3.5205078125 -1.68505859375 -4.1767578125Q-0.8203125 -4.8330078125 0.8955078125 -4.8330078125H2.6591796875V-4.9560546875Q2.6591796875 -5.82421875 2.08837890625 -6.29931640625Q1.517578125 -6.7744140625 0.4853515625 -6.7744140625Q-0.1708984375 -6.7744140625 -0.79296875 -6.6171875Q-1.4150390625 -6.4599609375 -1.9892578125 -6.1455078125V-7.3076171875Q-1.298828125 -7.57421875 -0.6494140625 -7.70751953125Q0.0 -7.8408203125 0.615234375 -7.8408203125Q2.2763671875 -7.8408203125 3.0966796875 -6.9794921875Q3.9169921875 -6.1181640625 3.9169921875 -4.3681640625ZM10.9443359375 -6.48046875Q10.732421875 -6.603515625 10.48291015625 -6.66162109375Q10.2333984375 -6.7197265625 9.9326171875 -6.7197265625Q8.8662109375 -6.7197265625 8.29541015625 -6.02587890625Q7.724609375 -5.33203125 7.724609375 -4.033203125V0.0H6.4599609375V-7.65625H7.724609375V-6.466796875Q8.12109375 -7.1640625 8.7568359375 -7.50244140625Q9.392578125 -7.8408203125 10.3017578125 -7.8408203125Q10.431640625 -7.8408203125 10.5888671875 -7.82373046875Q10.74609375 -7.806640625 10.9375 -7.7724609375ZM18.8125 -4.142578125V-3.52734375H13.029296875Q13.111328125 -2.228515625 13.81201171875 -1.54833984375Q14.5126953125 -0.8681640625 15.763671875 -0.8681640625Q16.48828125 -0.8681640625 17.16845703125 -1.0458984375Q17.8486328125 -1.2236328125 18.5185546875 -1.5791015625V-0.3896484375Q17.841796875 -0.1025390625 17.130859375 0.0478515625Q16.419921875 0.1982421875 15.6884765625 0.1982421875Q13.8564453125 0.1982421875 12.78662109375 -0.8681640625Q11.716796875 -1.9345703125 11.716796875 -3.7529296875Q11.716796875 -5.6328125 12.73193359375 -6.73681640625Q13.7470703125 -7.8408203125 15.4697265625 -7.8408203125Q17.0146484375 -7.8408203125 17.91357421875 -6.84619140625Q18.8125 -5.8515625 18.8125 -4.142578125ZM17.5546875 -4.51171875Q17.541015625 -5.5439453125 16.97705078125 -6.1591796875Q16.4130859375 -6.7744140625 15.4833984375 -6.7744140625Q14.4306640625 -6.7744140625 13.79833984375 -6.1796875Q13.166015625 -5.5849609375 13.0703125 -4.5048828125Z" fill="#000"/></g><path d="M100.8359375 -17.3671875Q100.8359375 -18.953125 100.18359375 -19.85546875Q99.53125 -20.7578125 98.390625 -20.7578125Q97.25 -20.7578125 96.59765625 -19.85546875Q95.9453125 -18.953125 95.9453125 -17.3671875Q95.9453125 -15.78125 96.59765625 -14.87890625Q97.25 -13.9765625 98.390625 -13.9765625Q99.53125 -13.9765625 100.18359375 -14.87890625Q100.8359375 -15.78125 100.8359375 -17.3671875ZM95.9453125 -20.421875Q96.3984375 -21.203125 97.08984375 -21.58203125Q97.78125 -21.9609375 98.7421875 -21.9609375Q100.3359375 -21.9609375 101.33203125 -20.6953125Q102.328125 -19.4296875 102.328125 -17.3671875Q102.328125 -15.3046875 101.33203125 -14.0390625Q100.3359375 -12.7734375 98.7421875 -12.7734375Q97.78125 -12.7734375 97.08984375 -13.15234375Q96.3984375 -13.53125 95.9453125 -14.3125V-13.0H94.5V-25.15625H95.9453125ZM108.6875 -17.3984375Q106.9453125 -17.3984375 106.2734375 -17.0Q105.6015625 -16.6015625 105.6015625 -15.640625Q105.6015625 -14.875 106.10546875 -14.42578125Q106.609375 -13.9765625 107.4765625 -13.9765625Q108.671875 -13.9765625 109.39453125 -14.82421875Q110.1171875 -15.671875 110.1171875 -17.078125V-17.3984375ZM111.5546875 -17.9921875V-13.0H110.1171875V-14.328125Q109.625 -13.53125 108.890625 -13.15234375Q108.15625 -12.7734375 107.09375 -12.7734375Q105.75 -12.7734375 104.95703125 -13.52734375Q104.1640625 -14.28125 104.1640625 -15.546875Q104.1640625 -17.0234375 105.15234375 -17.7734375Q106.140625 -18.5234375 108.1015625 -18.5234375H110.1171875V-18.6640625Q110.1171875 -19.65625 109.46484375 -20.19921875Q108.8125 -20.7421875 107.6328125 -20.7421875Q106.8828125 -20.7421875 106.171875 -20.5625Q105.4609375 -20.3828125 104.8046875 -20.0234375V-21.3515625Q105.59375 -21.65625 106.3359375 -21.80859375Q107.078125 -21.9609375 107.78125 -21.9609375Q109.6796875 -21.9609375 110.6171875 -20.9765625Q111.5546875 -19.9921875 111.5546875 -17.9921875ZM119.5859375 -20.40625Q119.34375 -20.546875 119.05859375 -20.61328125Q118.7734375 -20.6796875 118.4296875 -20.6796875Q117.2109375 -20.6796875 116.55859375 -19.88671875Q115.90625 -19.09375 115.90625 -17.609375V-13.0H114.4609375V-21.75H115.90625V-20.390625Q116.359375 -21.1875 117.0859375 -21.57421875Q117.8125 -21.9609375 118.8515625 -21.9609375Q119.0 -21.9609375 119.1796875 -21.94140625Q119.359375 -21.921875 119.578125 -21.8828125ZM130.609375 -25.15625V-23.9609375H129.234375Q128.4609375 -23.9609375 128.16015625 -23.6484375Q127.859375 -23.3359375 127.859375 -22.5234375V-21.75H130.2265625V-20.6328125H127.859375V-13.0H126.4140625V-20.6328125H125.0390625V-21.75H126.4140625V-22.359375Q126.4140625 -23.8203125 127.09375 -24.48828125Q127.7734375 -25.15625 129.25 -25.15625ZM131.8125 -21.75H133.25V-13.0H131.8125ZM131.8125 -25.15625H133.25V-23.3359375H131.8125ZM136.2578125 -25.15625H137.6953125V-13.0H136.2578125ZM140.703125 -25.15625H142.140625V-13.0H140.703125ZM153.6875 -25.140625Q152.640625 -23.34375 152.1328125 -21.5859375Q151.625 -19.828125 151.625 -18.0234375Q151.625 -16.21875 152.13671875 -14.44921875Q152.6484375 -12.6796875 153.6875 -10.890625H152.4375Q151.265625 -12.7265625 150.68359375 -14.5Q150.1015625 -16.2734375 150.1015625 -18.0234375Q150.1015625 -19.765625 150.6796875 -21.53125Q151.2578125 -23.296875 152.4375 -25.140625ZM156.953125 -14.328125H159.53125V-23.2265625L156.7265625 -22.6640625V-24.1015625L159.515625 -24.6640625H161.09375V-14.328125H163.671875V-13.0H156.953125ZM170.234375 -23.625Q169.015625 -23.625 168.40234375 -22.42578125Q167.7890625 -21.2265625 167.7890625 -18.8203125Q167.7890625 -16.421875 168.40234375 -15.22265625Q169.015625 -14.0234375 170.234375 -14.0234375Q171.4609375 -14.0234375 172.07421875 -15.22265625Q172.6875 -16.421875 172.6875 -18.8203125Q172.6875 -21.2265625 172.07421875 -22.42578125Q171.4609375 -23.625 170.234375 -23.625ZM170.234375 -24.875Q172.1953125 -24.875 173.23046875 -23.32421875Q174.265625 -21.7734375 174.265625 -18.8203125Q174.265625 -15.875 173.23046875 -14.32421875Q172.1953125 -12.7734375 170.234375 -12.7734375Q168.2734375 -12.7734375 167.23828125 -14.32421875Q166.203125 -15.875 166.203125 -18.8203125Q166.203125 -21.7734375 167.23828125 -23.32421875Q168.2734375 -24.875 170.234375 -24.875ZM180.4140625 -23.625Q179.1953125 -23.625 178.58203125 -22.42578125Q177.96875 -21.2265625 177.96875 -18.8203125Q177.96875 -16.421875 178.58203125 -15.22265625Q179.1953125 -14.0234375 180.4140625 -14.0234375Q181.640625 -14.0234375 182.25390625 -15.22265625Q182.8671875 -16.421875 182.8671875 -18.8203125Q182.8671875 -21.2265625 182.25390625 -22.42578125Q181.640625 -23.625 180.4140625 -23.625ZM180.4140625 -24.875Q182.375 -24.875 183.41015625 -23.32421875Q184.4453125 -21.7734375 184.4453125 -18.8203125Q184.4453125 -15.875 183.41015625 -14.32421875Q182.375 -12.7734375 180.4140625 -12.7734375Q178.453125 -12.7734375 177.41796875 -14.32421875Q176.3828125 -15.875 176.3828125 -18.8203125Q176.3828125 -21.7734375 177.41796875 -23.32421875Q178.453125 -24.875 180.4140625 -24.875ZM197.140625 -18.1328125Q196.4609375 -18.1328125 196.07421875 -17.5546875Q195.6875 -16.9765625 195.6875 -15.9453125Q195.6875 -14.9296875 196.07421875 -14.34765625Q196.4609375 -13.765625 197.140625 -13.765625Q197.8046875 -13.765625 198.19140625 -14.34765625Q198.578125 -14.9296875 198.578125 -15.9453125Q198.578125 -16.96875 198.19140625 -17.55078125Q197.8046875 -18.1328125 197.140625 -18.1328125ZM197.140625 -19.125Q198.375 -19.125 199.1015625 -18.265625Q199.828125 -17.40625 199.828125 -15.9453125Q199.828125 -14.484375 199.09765625 -13.62890625Q198.3671875 -12.7734375 197.140625 -12.7734375Q195.890625 -12.7734375 195.1640625 -13.62890625Q194.4375 -14.484375 194.4375 -15.9453125Q194.4375 -17.4140625 195.16796875 -18.26953125Q195.8984375 -19.125 197.140625 -19.125ZM189.078125 -23.8828125Q188.40625 -23.8828125 188.01953125 -23.30078125Q187.6328125 -22.71875 187.6328125 -21.703125Q187.6328125 -20.671875 188.015625 -20.09375Q188.3984375 -19.515625 189.078125 -19.515625Q189.7578125 -19.515625 190.14453125 -20.09375Q190.53125 -20.671875 190.53125 -21.703125Q190.53125 -22.7109375 190.140625 -23.296875Q189.75 -23.8828125 189.078125 -23.8828125ZM196.1328125 -24.875H197.3828125L190.0859375 -12.7734375H188.8359375ZM189.078125 -24.875Q190.3125 -24.875 191.046875 -24.01953125Q191.78125 -23.1640625 191.78125 -21.703125Q191.78125 -20.2265625 191.05078125 -19.375Q190.3203125 -18.5234375 189.078125 -18.5234375Q187.8359375 -18.5234375 187.11328125 -19.37890625Q186.390625 -20.234375 186.390625 -21.703125Q186.390625 -23.15625 187.1171875 -24.015625Q187.84375 -24.875 189.078125 -24.875ZM201.9921875 -25.140625H203.2421875Q204.4140625 -23.296875 204.99609375 -21.53125Q205.578125 -19.765625 205.578125 -18.0234375Q205.578125 -16.2734375 204.99609375 -14.5Q204.4140625 -12.7265625 203.2421875 -10.890625H201.9921875Q203.03125 -12.6796875 203.54296875 -14.44921875Q204.0546875 -16.21875 204.0546875 -18.0234375Q204.0546875 -19.828125 203.54296875 -21.5859375Q203.03125 -23.34375 201.9921875 -25.140625Z" fill="#000"/><g transform="translate(313.00,63.50)"><rect x="0" y="0" width="62.08" height="73" fill="#ffffff" stroke="#000000" stroke-width="1.0" opacity="0.92"/><rect x="11.00" y="12.50" width="25.00" height="10.00" fill="#1f77b4"/><path d="M46.443359375 13.2861328125 44.7041015625 18.00244140625H48.18896484375ZM45.7197265625 12.02294921875H47.17333984375L50.78515625 21.5H49.4521484375L48.5888671875 19.06884765625H44.31689453125L43.45361328125 21.5H42.1015625Z" fill="#000"/><rect x="11.00" y="31.50" width="25.00" height="10.00" fill="#ff7f0e"/><path d="M44.55810546875 35.97412109375V39.4462890625H46.61474609375Q47.6494140625 39.4462890625 48.147705078125 39.017822265625Q48.64599609375 38.58935546875 48.64599609375 37.70703125Q48.64599609375 36.818359375 48.147705078125 36.396240234375Q47.6494140625 35.97412109375 46.61474609375 35.97412109375ZM44.55810546875 32.07666015625V34.93310546875H46.4560546875Q47.3955078125 34.93310546875 47.855712890625 34.580810546875Q48.31591796875 34.228515625 48.31591796875 33.5048828125Q48.31591796875 32.78759765625 47.855712890625 32.43212890625Q47.3955078125 32.07666015625 46.4560546875 32.07666015625ZM43.27587890625 31.02294921875H46.55126953125Q48.017578125 31.02294921875 48.81103515625 31.63232421875Q49.6044921875 32.24169921875 49.6044921875 33.365234375Q49.6044921875 34.23486328125 49.1982421875 34.7490234375Q48.7919921875 35.26318359375 48.0048828125 35.39013671875Q48.95068359375 35.59326171875 49.474365234375 36.237548828125Q49.998046875 36.8818359375 49.998046875 37.8466796875Q49.998046875 39.1162109375 49.134765625 39.80810546875Q48.271484375 40.5 46.67822265625 40.5H43.27587890625Z" fill="#000"/><rect x="11.00" y="50.50" width="25.00" height="10.00" fill="#2ca02c"/><path d="M50.37255859375 50.7529296875V52.10498046875Q49.72509765625 51.501953125 48.991943359375 51.20361328125Q48.2587890625 50.9052734375 47.43359375 50.9052734375Q45.80859375 50.9052734375 44.9453125 51.898681640625Q44.08203125 52.89208984375 44.08203125 54.77099609375Q44.08203125 56.6435546875 44.9453125 57.636962890625Q45.80859375 58.63037109375 47.43359375 58.63037109375Q48.2587890625 58.63037109375 48.991943359375 58.33203125Q49.72509765625 58.03369140625 50.37255859375 57.4306640625V58.77001953125Q49.69970703125 59.22705078125 48.947509765625 59.45556640625Q48.1953125 59.68408203125 47.357421875 59.68408203125Q45.20556640625 59.68408203125 43.9677734375 58.366943359375Q42.72998046875 57.0498046875 42.72998046875 54.77099609375Q42.72998046875 52.48583984375 43.9677734375 51.168701171875Q45.20556640625 49.8515625 47.357421875 49.8515625Q48.2080078125 49.8515625 48.960205078125 50.076904296875Q49.71240234375 50.30224609375 50.37255859375 50.7529296875Z" fill="#000"/></g></g></svg>