<svg xmlns="http://www.w3.org/2000/svg" width="439" height="249" viewBox="0 0 439 249" font-family="DejaVu Sans, Bitstream Vera Sans, Verdana, Arial, sans-serif" font-size="11" style="background:#fff" data-plotlet-version="0.4.5" data-plotlet-schema="2" data-plotlet-kind="figure"><g transform="translate(45,27)" data-plotlet-kind="panel" data-plotlet-title="bar dodge" data-plotlet-ylabel="$M" data-plotlet-xscale="category" data-plotlet-yscale="linear" data-plotlet-ylim="0,23.1" data-plotlet-panel-bbox="0,0,439,249" data-plotlet-data-area="45,27,320,200"><metadata data-plotlet-payload="xcategories"><![CDATA[["Q1","Q2","Q3","Q4"]]]></metadata><svg x="0" y="0" width="320" height="200" overflow="hidden"><g class="plotlet-artist" data-plotlet-type="bar" data-plotlet-index="0" data-plotlet-color="#1f77b4" data-plotlet-n="4" data-plotlet-y-min="5" data-plotlet-y-max="22"><rect x="22.15" y="96.10" width="14.63" height="103.90" fill="#1f77b4"/><rect x="98.34" y="44.16" width="14.63" height="155.84" fill="#1f77b4"/><rect x="174.53" y="70.13" width="14.63" height="129.87" fill="#1f77b4"/><rect x="250.72" y="9.52" width="14.63" height="190.48" fill="#1f77b4"/><rect x="38.40" y="130.74" width="14.63" height="69.26" fill="#ff7f0e"/><rect x="114.59" y="78.79" width="14.63" height="121.21" fill="#ff7f0e"/><rect x="190.78" y="61.47" width="14.63" height="138.53" fill="#ff7f0e"/><rect x="266.97" y="44.16" width="14.63" height="155.84" fill="#ff7f0e"/><rect x="54.65" y="156.71" width="14.63" height="43.29" fill="#2ca02c"/><rect x="130.84" y="139.39" width="14.63" height="60.61" fill="#2ca02c"/><rect x="207.03" y="122.08" width="14.63" height="77.92" fill="#2ca02c"/><rect x="283.23" y="104.76" width="14.63" height="95.24" fill="#2ca02c"/></g></svg><line x1="0" y1="0" x2="320" y2="0" stroke="#000000" stroke-width="0.8"/><line x1="0" y1="200" x2="320" y2="200" stroke="#000000" stroke-width="0.8"/><line x1="0" y1="0" x2="0" y2="200" stroke="#000000" stroke-width="0.8"/><line x1="320" y1="0" x2="320" y2="200" stroke="#000000" stroke-width="0.8"/><line x1="45.71" x2="45.71" y1="200" y2="203.5" stroke="#000000" stroke-width="0.8"/><path d="M42.220389229910715 208.23583984375Q41.038748604910715 208.23583984375 40.343191964285715 209.11669921875Q39.647635323660715 209.99755859375 39.647635323660715 211.517578125Q39.647635323660715 213.0322265625 40.343191964285715 213.9130859375Q41.038748604910715 214.7939453125 42.220389229910715 214.7939453125Q43.402029854910715 214.7939453125 44.092215401785715 213.9130859375Q44.782400948660715 213.0322265625 44.782400948660715 211.517578125Q44.782400948660715 209.99755859375 44.092215401785715 209.11669921875Q43.402029854910715 208.23583984375 42.220389229910715 208.23583984375ZM43.740408761160715 215.3740234375 45.169119698660715 216.93701171875H43.858572823660715L42.671561104910715 215.6533203125Q42.494315011160715 215.6640625 42.400320870535715 215.66943359375Q42.306326729910715 215.6748046875 42.220389229910715 215.6748046875Q40.528494698660715 215.6748046875 39.516043526785715 214.544189453125Q38.503592354910715 213.41357421875 38.503592354910715 211.517578125Q38.503592354910715 209.6162109375 39.516043526785715 208.485595703125Q40.528494698660715 207.35498046875 42.220389229910715 207.35498046875Q43.906912667410715 207.35498046875 44.916678292410715 208.485595703125Q45.926443917410715 209.6162109375 45.926443917410715 211.517578125Q45.926443917410715 212.9140625 45.365164620535715 213.90771484375Q44.803885323660715 214.9013671875 43.740408761160715 215.3740234375ZM47.908377511160715 214.60595703125H49.680838448660715V208.48828125L47.752615792410715 208.875V207.88671875L49.670096261160715 207.5H50.755057198660715V214.60595703125H52.527518136160715V215.51904296875H47.908377511160715Z" fill="#000"/><line x1="121.90" x2="121.90" y1="200" y2="203.5" stroke="#000000" stroke-width="0.8"/><path d="M118.4108654203869 208.23583984375Q117.2292247953869 208.23583984375 116.5336681547619 209.11669921875Q115.8381115141369 209.99755859375 115.8381115141369 211.517578125Q115.8381115141369 213.0322265625 116.5336681547619 213.9130859375Q117.2292247953869 214.7939453125 118.4108654203869 214.7939453125Q119.5925060453869 214.7939453125 120.2826915922619 213.9130859375Q120.9728771391369 213.0322265625 120.9728771391369 211.517578125Q120.9728771391369 209.99755859375 120.2826915922619 209.11669921875Q119.5925060453869 208.23583984375 118.4108654203869 208.23583984375ZM119.9308849516369 215.3740234375 121.3595958891369 216.93701171875H120.0490490141369L118.8620372953869 215.6533203125Q118.6847912016369 215.6640625 118.5907970610119 215.66943359375Q118.4968029203869 215.6748046875 118.4108654203869 215.6748046875Q116.7189708891369 215.6748046875 115.7065197172619 214.544189453125Q114.6940685453869 213.41357421875 114.6940685453869 211.517578125Q114.6940685453869 209.6162109375 115.7065197172619 208.485595703125Q116.7189708891369 207.35498046875 118.4108654203869 207.35498046875Q120.0973888578869 207.35498046875 121.1071544828869 208.485595703125Q122.1169201078869 209.6162109375 122.1169201078869 211.517578125Q122.1169201078869 212.9140625 121.5556408110119 213.90771484375Q120.9943615141369 214.9013671875 119.9308849516369 215.3740234375ZM124.8454357328869 214.60595703125H128.6320568266369V215.51904296875H123.5402599516369V214.60595703125Q124.1579357328869 213.966796875 125.2240978422619 212.889892578125Q126.2902599516369 211.81298828125 126.5641857328869 211.50146484375Q127.0851818266369 210.916015625 127.2919689360119 210.510498046875Q127.4987560453869 210.10498046875 127.4987560453869 209.712890625Q127.4987560453869 209.07373046875 127.0502697172619 208.6708984375Q126.6017833891369 208.26806640625 125.8820568266369 208.26806640625Q125.3718029203869 208.26806640625 124.8051525297619 208.4453125Q124.2385021391369 208.62255859375 123.5939708891369 208.982421875V207.88671875Q124.2492443266369 207.62353515625 124.8185802641369 207.4892578125Q125.3879162016369 207.35498046875 125.8605724516369 207.35498046875Q127.1066662016369 207.35498046875 127.8478771391369 207.97802734375Q128.5890880766369 208.60107421875 128.5890880766369 209.64306640625Q128.5890880766369 210.13720703125 128.4037853422619 210.580322265625Q128.2184826078869 211.0234375 127.7297130766369 211.625Q127.5954357328869 211.78076171875 126.8757091703869 212.524658203125Q126.1559826078869 213.2685546875 124.8454357328869 214.60595703125Z" fill="#000"/><line x1="198.10" x2="198.10" y1="200" y2="203.5" stroke="#000000" stroke-width="0.8"/><path d="M194.6013416108631 208.23583984375Q193.4197009858631 208.23583984375 192.7241443452381 209.11669921875Q192.0285877046131 209.99755859375 192.0285877046131 211.517578125Q192.0285877046131 213.0322265625 192.7241443452381 213.9130859375Q193.4197009858631 214.7939453125 194.6013416108631 214.7939453125Q195.7829822358631 214.7939453125 196.4731677827381 213.9130859375Q197.1633533296131 213.0322265625 197.1633533296131 211.517578125Q197.1633533296131 209.99755859375 196.4731677827381 209.11669921875Q195.7829822358631 208.23583984375 194.6013416108631 208.23583984375ZM196.1213611421131 215.3740234375 197.5500720796131 216.93701171875H196.2395252046131L195.0525134858631 215.6533203125Q194.8752673921131 215.6640625 194.7812732514881 215.66943359375Q194.6872791108631 215.6748046875 194.6013416108631 215.6748046875Q192.9094470796131 215.6748046875 191.8969959077381 214.544189453125Q190.8845447358631 213.41357421875 190.8845447358631 211.517578125Q190.8845447358631 209.6162109375 191.8969959077381 208.485595703125Q192.9094470796131 207.35498046875 194.6013416108631 207.35498046875Q196.2878650483631 207.35498046875 197.2976306733631 208.485595703125Q198.3073962983631 209.6162109375 198.3073962983631 211.517578125Q198.3073962983631 212.9140625 197.7461170014881 213.90771484375Q197.1848377046131 214.9013671875 196.1213611421131 215.3740234375ZM203.3884509858631 211.1953125Q204.1672595796131 211.36181640625 204.6050037202381 211.88818359375Q205.0427478608631 212.41455078125 205.0427478608631 213.18798828125Q205.0427478608631 214.375 204.2263416108631 215.02490234375Q203.4099353608631 215.6748046875 201.9060291108631 215.6748046875Q201.4011462983631 215.6748046875 200.8667224702381 215.575439453125Q200.3322986421131 215.47607421875 199.7629627046131 215.27734375V214.22998046875Q200.2141345796131 214.4931640625 200.7512439546131 214.62744140625Q201.2883533296131 214.76171875 201.8738025483631 214.76171875Q202.8943103608631 214.76171875 203.4287341889881 214.35888671875Q203.9631580171131 213.9560546875 203.9631580171131 213.18798828125Q203.9631580171131 212.47900390625 203.4663318452381 212.078857421875Q202.9695056733631 211.6787109375 202.0832752046131 211.6787109375H201.1487048921131V210.787109375H202.1262439546131Q202.9265369233631 210.787109375 203.3508533296131 210.467529296875Q203.7751697358631 210.14794921875 203.7751697358631 209.54638671875Q203.7751697358631 208.9287109375 203.3374255952381 208.598388671875Q202.8996814546131 208.26806640625 202.0832752046131 208.26806640625Q201.6374744233631 208.26806640625 201.1272205171131 208.36474609375Q200.6169666108631 208.46142578125 200.0046619233631 208.66552734375V207.69873046875Q200.6223377046131 207.52685546875 201.1621326264881 207.44091796875Q201.7019275483631 207.35498046875 202.1799548921131 207.35498046875Q203.4153064546131 207.35498046875 204.1350330171131 207.916259765625Q204.8547595796131 208.4775390625 204.8547595796131 209.43359375Q204.8547595796131 210.099609375 204.4734119233631 210.558837890625Q204.0920642671131 211.01806640625 203.3884509858631 211.1953125Z" fill="#000"/><line x1="274.29" x2="274.29" y1="200" y2="203.5" stroke="#000000" stroke-width="0.8"/><path d="M270.7918178013393 208.23583984375Q269.6101771763393 208.23583984375 268.9146205357143 209.11669921875Q268.2190638950893 209.99755859375 268.2190638950893 211.517578125Q268.2190638950893 213.0322265625 268.9146205357143 213.9130859375Q269.6101771763393 214.7939453125 270.7918178013393 214.7939453125Q271.9734584263393 214.7939453125 272.6636439732143 213.9130859375Q273.3538295200893 213.0322265625 273.3538295200893 211.517578125Q273.3538295200893 209.99755859375 272.6636439732143 209.11669921875Q271.9734584263393 208.23583984375 270.7918178013393 208.23583984375ZM272.3118373325893 215.3740234375 273.7405482700893 216.93701171875H272.4300013950893L271.2429896763393 215.6533203125Q271.0657435825893 215.6640625 270.9717494419643 215.66943359375Q270.8777553013393 215.6748046875 270.7918178013393 215.6748046875Q269.0999232700893 215.6748046875 268.0874720982143 214.544189453125Q267.0750209263393 213.41357421875 267.0750209263393 211.517578125Q267.0750209263393 209.6162109375 268.0874720982143 208.485595703125Q269.0999232700893 207.35498046875 270.7918178013393 207.35498046875Q272.4783412388393 207.35498046875 273.4881068638393 208.485595703125Q274.4978724888393 209.6162109375 274.4978724888393 211.517578125Q274.4978724888393 212.9140625 273.9365931919643 213.90771484375Q273.3753138950893 214.9013671875 272.3118373325893 215.3740234375ZM279.2727748325893 208.4453125 276.5335170200893 212.72607421875H279.2727748325893ZM278.9881068638393 207.5H280.3523646763393V212.72607421875H281.4964076450893V213.62841796875H280.3523646763393V215.51904296875H279.2727748325893V213.62841796875H275.6526576450893V212.5810546875Z" fill="#000"/><line x1="0" x2="-3.5" y1="200.00" y2="200.00" stroke="#000000" stroke-width="0.8"/><path d="M-11.001953125 196.704833984375Q-11.83984375 196.704833984375 -12.261474609375 197.529296875Q-12.68310546875 198.353759765625 -12.68310546875 200.008056640625Q-12.68310546875 201.656982421875 -12.261474609375 202.4814453125Q-11.83984375 203.305908203125 -11.001953125 203.305908203125Q-10.15869140625 203.305908203125 -9.737060546875 202.4814453125Q-9.3154296875 201.656982421875 -9.3154296875 200.008056640625Q-9.3154296875 198.353759765625 -9.737060546875 197.529296875Q-10.15869140625 196.704833984375 -11.001953125 196.704833984375ZM-11.001953125 195.845458984375Q-9.65380859375 195.845458984375 -8.942138671875 196.91162109375Q-8.23046875 197.977783203125 -8.23046875 200.008056640625Q-8.23046875 202.032958984375 -8.942138671875 203.09912109375Q-9.65380859375 204.165283203125 -11.001953125 204.165283203125Q-12.35009765625 204.165283203125 -13.061767578125 203.09912109375Q-13.7734375 202.032958984375 -13.7734375 200.008056640625Q-13.7734375 197.977783203125 -13.061767578125 196.91162109375Q-12.35009765625 195.845458984375 -11.001953125 195.845458984375Z" fill="#000"/><line x1="0" x2="-3.5" y1="156.71" y2="156.71" stroke="#000000" stroke-width="0.8"/><path d="M-13.3115234375 152.7004352255817H-9.05224609375V153.6135211630817H-12.31787109375V155.5793414755817Q-12.08154296875 155.4987750693317 -11.84521484375 155.4584918662067Q-11.60888671875 155.4182086630817 -11.37255859375 155.4182086630817Q-10.02978515625 155.4182086630817 -9.24560546875 156.1540485068317Q-8.46142578125 156.8898883505817 -8.46142578125 158.1467242880817Q-8.46142578125 159.4411578818317 -9.26708984375 160.1581988974567Q-10.07275390625 160.8752399130817 -11.5390625 160.8752399130817Q-12.0439453125 160.8752399130817 -12.567626953125 160.7893024130817Q-13.09130859375 160.7033649130817 -13.64990234375 160.5314899130817V159.4411578818317Q-13.16650390625 159.7043414755817 -12.65087890625 159.8332477255817Q-12.13525390625 159.9621539755817 -11.560546875 159.9621539755817Q-10.63134765625 159.9621539755817 -10.0888671875 159.4733844443317Q-9.54638671875 158.9846149130817 -9.54638671875 158.1467242880817Q-9.54638671875 157.3088336630817 -10.0888671875 156.8200641318317Q-10.63134765625 156.3312946005817 -11.560546875 156.3312946005817Q-11.99560546875 156.3312946005817 -12.427978515625 156.4279742880817Q-12.8603515625 156.5246539755817 -13.3115234375 156.7287555380817Z" fill="#000"/><line x1="0" x2="-3.5" y1="113.42" y2="113.42" stroke="#000000" stroke-width="0.8"/><path d="M-20.1328125 116.51634896678843H-18.3603515625V110.39867318553843L-20.28857421875 110.78539193553843V109.79711068553843L-18.37109375 109.41039193553843H-17.2861328125V116.51634896678843H-15.513671875V117.42943490428843H-20.1328125ZM-11.001953125 110.12474740428843Q-11.83984375 110.12474740428843 -12.261474609375 110.94921029491343Q-12.68310546875 111.77367318553843 -12.68310546875 113.42797006053843Q-12.68310546875 115.07689584178843 -12.261474609375 115.90135873241343Q-11.83984375 116.72582162303843 -11.001953125 116.72582162303843Q-10.15869140625 116.72582162303843 -9.737060546875 115.90135873241343Q-9.3154296875 115.07689584178843 -9.3154296875 113.42797006053843Q-9.3154296875 111.77367318553843 -9.737060546875 110.94921029491343Q-10.15869140625 110.12474740428843 -11.001953125 110.12474740428843ZM-11.001953125 109.26537240428843Q-9.65380859375 109.26537240428843 -8.942138671875 110.33153451366343Q-8.23046875 111.39769662303843 -8.23046875 113.42797006053843Q-8.23046875 115.45287240428843 -8.942138671875 116.51903451366343Q-9.65380859375 117.58519662303843 -11.001953125 117.58519662303843Q-12.35009765625 117.58519662303843 -13.061767578125 116.51903451366343Q-13.7734375 115.45287240428843 -13.7734375 113.42797006053843Q-13.7734375 111.39769662303843 -13.061767578125 110.33153451366343Q-12.35009765625 109.26537240428843 -11.001953125 109.26537240428843Z" fill="#000"/><line x1="0" x2="-3.5" y1="70.13" y2="70.13" stroke="#000000" stroke-width="0.8"/><path d="M-20.1328125 73.22630567674514H-18.3603515625V67.10862989549514L-20.28857421875 67.49534864549514V66.50706739549514L-18.37109375 66.12034864549514H-17.2861328125V73.22630567674514H-15.513671875V74.13939161424514H-20.1328125ZM-13.3115234375 66.12034864549514H-9.05224609375V67.03343458299514H-12.31787109375V68.99925489549514Q-12.08154296875 68.91868848924514 -11.84521484375 68.87840528612014Q-11.60888671875 68.83812208299514 -11.37255859375 68.83812208299514Q-10.02978515625 68.83812208299514 -9.24560546875 69.57396192674514Q-8.46142578125 70.30980177049514 -8.46142578125 71.56663770799514Q-8.46142578125 72.86107130174514 -9.26708984375 73.57811231737014Q-10.07275390625 74.29515333299514 -11.5390625 74.29515333299514Q-12.0439453125 74.29515333299514 -12.567626953125 74.20921583299514Q-13.09130859375 74.12327833299514 -13.64990234375 73.95140333299514V72.86107130174514Q-13.16650390625 73.12425489549514 -12.65087890625 73.25316114549514Q-12.13525390625 73.38206739549514 -11.560546875 73.38206739549514Q-10.63134765625 73.38206739549514 -10.0888671875 72.89329786424514Q-9.54638671875 72.40452833299514 -9.54638671875 71.56663770799514Q-9.54638671875 70.72874708299514 -10.0888671875 70.23997755174514Q-10.63134765625 69.75120802049514 -11.560546875 69.75120802049514Q-11.99560546875 69.75120802049514 -12.427978515625 69.84788770799514Q-12.8603515625 69.94456739549514 -13.3115234375 70.14866895799514Z" fill="#000"/><line x1="0" x2="-3.5" y1="26.84" y2="26.84" stroke="#000000" stroke-width="0.8"/><path d="M-19.38623046875 29.936262386701856H-15.599609375V30.849348324201856H-20.69140625V29.936262386701856Q-20.07373046875 29.297102230451856 -19.007568359375 28.220197933576856Q-17.94140625 27.143293636701856 -17.66748046875 26.831770199201856Q-17.146484375 26.246320980451856 -16.939697265625 25.840803402326856Q-16.73291015625 25.435285824201856 -16.73291015625 25.043195980451856Q-16.73291015625 24.404035824201856 -17.181396484375 24.001203792951856Q-17.6298828125 23.598371761701856 -18.349609375 23.598371761701856Q-18.85986328125 23.598371761701856 -19.426513671875 23.775617855451856Q-19.9931640625 23.952863949201856 -20.6376953125 24.312727230451856V23.217024105451856Q-19.982421875 22.953840511701856 -19.4130859375 22.819563167951856Q-18.84375 22.685285824201856 -18.37109375 22.685285824201856Q-17.125 22.685285824201856 -16.3837890625 23.308332699201856Q-15.642578125 23.931379574201856 -15.642578125 24.973371761701856Q-15.642578125 25.467512386701856 -15.827880859375 25.910627621076856Q-16.01318359375 26.353742855451856 -16.501953125 26.955305355451856Q-16.63623046875 27.111067074201856 -17.35595703125 27.854963558576856Q-18.07568359375 28.598860042951856 -19.38623046875 29.936262386701856ZM-11.001953125 23.544660824201856Q-11.83984375 23.544660824201856 -12.261474609375 24.369123714826856Q-12.68310546875 25.193586605451856 -12.68310546875 26.847883480451856Q-12.68310546875 28.496809261701856 -12.261474609375 29.321272152326856Q-11.83984375 30.145735042951856 -11.001953125 30.145735042951856Q-10.15869140625 30.145735042951856 -9.737060546875 29.321272152326856Q-9.3154296875 28.496809261701856 -9.3154296875 26.847883480451856Q-9.3154296875 25.193586605451856 -9.737060546875 24.369123714826856Q-10.15869140625 23.544660824201856 -11.001953125 23.544660824201856ZM-11.001953125 22.685285824201856Q-9.65380859375 22.685285824201856 -8.942138671875 23.751447933576856Q-8.23046875 24.817610042951856 -8.23046875 26.847883480451856Q-8.23046875 28.872785824201856 -8.942138671875 29.938947933576856Q-9.65380859375 31.005110042951856 -11.001953125 31.005110042951856Q-12.35009765625 31.005110042951856 -13.061767578125 29.938947933576856Q-13.7734375 28.872785824201856 -13.7734375 26.847883480451856Q-13.7734375 24.817610042951856 -13.061767578125 23.751447933576856Q-12.35009765625 22.685285824201856 -11.001953125 22.685285824201856Z" fill="#000"/><g transform="translate(-33.0,100.0) rotate(-90)"><path d="M-4.939453125 1.763671875H-5.525390625L-5.53125 0.0Q-6.146484375 -0.01171875 -6.76171875 -0.1435546875Q-7.376953125 -0.275390625 -7.998046875 -0.5390625V-1.59375Q-7.400390625 -1.21875 -6.7880859375 -1.0283203125Q-6.17578125 -0.837890625 -5.525390625 -0.83203125V-3.50390625Q-6.8203125 -3.71484375 -7.4091796875 -4.21875Q-7.998046875 -4.72265625 -7.998046875 -5.6015625Q-7.998046875 -6.556640625 -7.359375 -7.107421875Q-6.720703125 -7.658203125 -5.525390625 -7.740234375V-9.1171875H-4.939453125V-7.7578125Q-4.39453125 -7.734375 -3.884765625 -7.6435546875Q-3.375 -7.552734375 -2.888671875 -7.39453125V-6.369140625Q-3.375 -6.615234375 -3.8876953125 -6.75Q-4.400390625 -6.884765625 -4.939453125 -6.908203125V-4.40625Q-3.609375 -4.201171875 -2.982421875 -3.673828125Q-2.35546875 -3.146484375 -2.35546875 -2.232421875Q-2.35546875 -1.2421875 -3.0205078125 -0.6708984375Q-3.685546875 -0.099609375 -4.939453125 -0.01171875ZM-5.525390625 -4.51171875V-6.9140625Q-6.205078125 -6.837890625 -6.5625 -6.52734375Q-6.919921875 -6.216796875 -6.919921875 -5.701171875Q-6.919921875 -5.197265625 -6.5888671875 -4.916015625Q-6.2578125 -4.634765625 -5.525390625 -4.51171875ZM-4.939453125 -3.38671875V-0.849609375Q-4.1953125 -0.94921875 -3.8173828125 -1.271484375Q-3.439453125 -1.59375 -3.439453125 -2.12109375Q-3.439453125 -2.63671875 -3.7998046875 -2.94140625Q-4.16015625 -3.24609375 -4.939453125 -3.38671875ZM-0.181640625 -8.748046875H1.58203125L3.814453125 -2.794921875L6.05859375 -8.748046875H7.822265625V0.0H6.66796875V-7.681640625L4.412109375 -1.681640625H3.22265625L0.966796875 -7.681640625V0.0H-0.181640625Z" fill="#000"/></g><path d="M133.127197265625 -13.54833984375Q133.127197265625 -14.8369140625 132.59716796875 -15.570068359375Q132.067138671875 -16.30322265625 131.140380859375 -16.30322265625Q130.213623046875 -16.30322265625 129.68359375 -15.570068359375Q129.153564453125 -14.8369140625 129.153564453125 -13.54833984375Q129.153564453125 -12.259765625 129.68359375 -11.526611328125Q130.213623046875 -10.79345703125 131.140380859375 -10.79345703125Q132.067138671875 -10.79345703125 132.59716796875 -11.526611328125Q133.127197265625 -12.259765625 133.127197265625 -13.54833984375ZM129.153564453125 -16.0302734375Q129.521728515625 -16.6650390625 130.08349609375 -16.972900390625Q130.645263671875 -17.28076171875 131.426025390625 -17.28076171875Q132.720947265625 -17.28076171875 133.5302734375 -16.25244140625Q134.339599609375 -15.22412109375 134.339599609375 -13.54833984375Q134.339599609375 -11.87255859375 133.5302734375 -10.84423828125Q132.720947265625 -9.81591796875 131.426025390625 -9.81591796875Q130.645263671875 -9.81591796875 130.08349609375 -10.123779296875Q129.521728515625 -10.431640625 129.153564453125 -11.06640625V-10.0H127.979248046875V-19.876953125H129.153564453125ZM139.506591796875 -13.57373046875Q138.091064453125 -13.57373046875 137.545166015625 -13.25Q136.999267578125 -12.92626953125 136.999267578125 -12.1455078125Q136.999267578125 -11.5234375 137.40869140625 -11.158447265625Q137.818115234375 -10.79345703125 138.522705078125 -10.79345703125Q139.493896484375 -10.79345703125 140.0810546875 -11.482177734375Q140.668212890625 -12.1708984375 140.668212890625 -13.3134765625V-13.57373046875ZM141.836181640625 -14.05615234375V-10.0H140.668212890625V-11.0791015625Q140.268310546875 -10.431640625 139.671630859375 -10.123779296875Q139.074951171875 -9.81591796875 138.211669921875 -9.81591796875Q137.119873046875 -9.81591796875 136.4755859375 -10.428466796875Q135.831298828125 -11.041015625 135.831298828125 -12.0693359375Q135.831298828125 -13.26904296875 136.63427734375 -13.87841796875Q137.437255859375 -14.48779296875 139.030517578125 -14.48779296875H140.668212890625V-14.60205078125Q140.668212890625 -15.408203125 140.13818359375 -15.849365234375Q139.608154296875 -16.29052734375 138.649658203125 -16.29052734375Q138.040283203125 -16.29052734375 137.462646484375 -16.14453125Q136.885009765625 -15.99853515625 136.351806640625 -15.70654296875V-16.78564453125Q136.992919921875 -17.033203125 137.595947265625 -17.156982421875Q138.198974609375 -17.28076171875 138.770263671875 -17.28076171875Q140.312744140625 -17.28076171875 141.074462890625 -16.48095703125Q141.836181640625 -15.68115234375 141.836181640625 -14.05615234375ZM148.361572265625 -16.017578125Q148.164794921875 -16.1318359375 147.93310546875 -16.185791015625Q147.701416015625 -16.23974609375 147.422119140625 -16.23974609375Q146.431884765625 -16.23974609375 145.90185546875 -15.595458984375Q145.371826171875 -14.951171875 145.371826171875 -13.7451171875V-10.0H144.197509765625V-17.109375H145.371826171875V-16.0048828125Q145.739990234375 -16.65234375 146.330322265625 -16.966552734375Q146.920654296875 -17.28076171875 147.764892578125 -17.28076171875Q147.885498046875 -17.28076171875 148.031494140625 -17.264892578125Q148.177490234375 -17.2490234375 148.355224609375 -17.21728515625ZM158.397216796875 -16.0302734375V-19.876953125H159.565185546875V-10.0H158.397216796875V-11.06640625Q158.029052734375 -10.431640625 157.46728515625 -10.123779296875Q156.905517578125 -9.81591796875 156.118408203125 -9.81591796875Q154.829833984375 -9.81591796875 154.0205078125 -10.84423828125Q153.211181640625 -11.87255859375 153.211181640625 -13.54833984375Q153.211181640625 -15.22412109375 154.0205078125 -16.25244140625Q154.829833984375 -17.28076171875 156.118408203125 -17.28076171875Q156.905517578125 -17.28076171875 157.46728515625 -16.972900390625Q158.029052734375 -16.6650390625 158.397216796875 -16.0302734375ZM154.417236328125 -13.54833984375Q154.417236328125 -12.259765625 154.947265625 -11.526611328125Q155.477294921875 -10.79345703125 156.404052734375 -10.79345703125Q157.330810546875 -10.79345703125 157.864013671875 -11.526611328125Q158.397216796875 -12.259765625 158.397216796875 -13.54833984375Q158.397216796875 -14.8369140625 157.864013671875 -15.570068359375Q157.330810546875 -16.30322265625 156.404052734375 -16.30322265625Q155.477294921875 -16.30322265625 154.947265625 -15.570068359375Q154.417236328125 -14.8369140625 154.417236328125 -13.54833984375ZM164.725830078125 -16.29052734375Q163.786376953125 -16.29052734375 163.240478515625 -15.557373046875Q162.694580078125 -14.82421875 162.694580078125 -13.54833984375Q162.694580078125 -12.2724609375 163.2373046875 -11.539306640625Q163.780029296875 -10.80615234375 164.725830078125 -10.80615234375Q165.658935546875 -10.80615234375 166.204833984375 -11.54248046875Q166.750732421875 -12.27880859375 166.750732421875 -13.54833984375Q166.750732421875 -14.8115234375 166.204833984375 -15.551025390625Q165.658935546875 -16.29052734375 164.725830078125 -16.29052734375ZM164.725830078125 -17.28076171875Q166.249267578125 -17.28076171875 167.118896484375 -16.29052734375Q167.988525390625 -15.30029296875 167.988525390625 -13.54833984375Q167.988525390625 -11.802734375 167.118896484375 -10.809326171875Q166.249267578125 -9.81591796875 164.725830078125 -9.81591796875Q163.196044921875 -9.81591796875 162.32958984375 -10.809326171875Q161.463134765625 -11.802734375 161.463134765625 -13.54833984375Q161.463134765625 -15.30029296875 162.32958984375 -16.29052734375Q163.196044921875 -17.28076171875 164.725830078125 -17.28076171875ZM174.602783203125 -16.0302734375V-19.876953125H175.770751953125V-10.0H174.602783203125V-11.06640625Q174.234619140625 -10.431640625 173.6728515625 -10.123779296875Q173.111083984375 -9.81591796875 172.323974609375 -9.81591796875Q171.035400390625 -9.81591796875 170.22607421875 -10.84423828125Q169.416748046875 -11.87255859375 169.416748046875 -13.54833984375Q169.416748046875 -15.22412109375 170.22607421875 -16.25244140625Q171.035400390625 -17.28076171875 172.323974609375 -17.28076171875Q173.111083984375 -17.28076171875 173.6728515625 -16.972900390625Q174.234619140625 -16.6650390625 174.602783203125 -16.0302734375ZM170.622802734375 -13.54833984375Q170.622802734375 -12.259765625 171.15283203125 -11.526611328125Q171.682861328125 -10.79345703125 172.609619140625 -10.79345703125Q173.536376953125 -10.79345703125 174.069580078125 -11.526611328125Q174.602783203125 -12.259765625 174.602783203125 -13.54833984375Q174.602783203125 -14.8369140625 174.069580078125 -15.570068359375Q173.536376953125 -16.30322265625 172.609619140625 -16.30322265625Q171.682861328125 -16.30322265625 171.15283203125 -15.570068359375Q170.622802734375 -14.8369140625 170.622802734375 -13.54833984375ZM182.854736328125 -13.63720703125Q182.854736328125 -14.90673828125 182.3310546875 -15.60498046875Q181.807373046875 -16.30322265625 180.861572265625 -16.30322265625Q179.922119140625 -16.30322265625 179.3984375 -15.60498046875Q178.874755859375 -14.90673828125 178.874755859375 -13.63720703125Q178.874755859375 -12.3740234375 179.3984375 -11.67578125Q179.922119140625 -10.9775390625 180.861572265625 -10.9775390625Q181.807373046875 -10.9775390625 182.3310546875 -11.67578125Q182.854736328125 -12.3740234375 182.854736328125 -13.63720703125ZM184.022705078125 -10.88232421875Q184.022705078125 -9.06689453125 183.216552734375 -8.181396484375Q182.410400390625 -7.2958984375 180.747314453125 -7.2958984375Q180.131591796875 -7.2958984375 179.585693359375 -7.387939453125Q179.039794921875 -7.47998046875 178.525634765625 -7.67041015625V-8.806640625Q179.039794921875 -8.52734375 179.541259765625 -8.39404296875Q180.042724609375 -8.2607421875 180.563232421875 -8.2607421875Q181.712158203125 -8.2607421875 182.283447265625 -8.860595703125Q182.854736328125 -9.46044921875 182.854736328125 -10.6728515625V-11.25048828125Q182.492919921875 -10.6220703125 181.927978515625 -10.31103515625Q181.363037109375 -10.0 180.575927734375 -10.0Q179.268310546875 -10.0 178.468505859375 -10.99658203125Q177.668701171875 -11.9931640625 177.668701171875 -13.63720703125Q177.668701171875 -15.28759765625 178.468505859375 -16.2841796875Q179.268310546875 -17.28076171875 180.575927734375 -17.28076171875Q181.363037109375 -17.28076171875 181.927978515625 -16.9697265625Q182.492919921875 -16.65869140625 182.854736328125 -16.0302734375V-17.109375H184.022705078125ZM192.509521484375 -13.8466796875V-13.275390625H187.139404296875Q187.215576171875 -12.0693359375 187.8662109375 -11.437744140625Q188.516845703125 -10.80615234375 189.678466796875 -10.80615234375Q190.351318359375 -10.80615234375 190.98291015625 -10.97119140625Q191.614501953125 -11.13623046875 192.236572265625 -11.46630859375V-10.36181640625Q191.608154296875 -10.09521484375 190.947998046875 -9.95556640625Q190.287841796875 -9.81591796875 189.608642578125 -9.81591796875Q187.907470703125 -9.81591796875 186.9140625 -10.80615234375Q185.920654296875 -11.79638671875 185.920654296875 -13.48486328125Q185.920654296875 -15.23046875 186.86328125 -16.255615234375Q187.805908203125 -17.28076171875 189.405517578125 -17.28076171875Q190.840087890625 -17.28076171875 191.6748046875 -16.357177734375Q192.509521484375 -15.43359375 192.509521484375 -13.8466796875ZM191.341552734375 -14.189453125Q191.328857421875 -15.14794921875 190.80517578125 -15.71923828125Q190.281494140625 -16.29052734375 189.418212890625 -16.29052734375Q188.440673828125 -16.29052734375 187.853515625 -15.73828125Q187.266357421875 -15.18603515625 187.177490234375 -14.18310546875Z" fill="#000"/><g transform="translate(330.00,70.00)"><rect x="0" y="0" width="51.68" height="60" fill="#ffffff" stroke="#000000" stroke-width="0.8" opacity="0.92"/><rect x="8.00" y="9.00" width="22.00" height="10.00" fill="#1f77b4"/><path d="M39.759765625 11.0498046875 38.2880859375 15.04052734375H41.23681640625ZM39.1474609375 9.98095703125H40.37744140625L43.43359375 18.0H42.3056640625L41.5751953125 15.94287109375H37.96044921875L37.22998046875 18.0H36.0859375Z" fill="#000"/><rect x="8.00" y="25.00" width="22.00" height="10.00" fill="#ff7f0e"/><path d="M38.16455078125 30.17041015625V33.1083984375H39.90478515625Q40.7802734375 33.1083984375 41.201904296875 32.745849609375Q41.62353515625 32.38330078125 41.62353515625 31.63671875Q41.62353515625 30.884765625 41.201904296875 30.527587890625Q40.7802734375 30.17041015625 39.90478515625 30.17041015625ZM38.16455078125 26.87255859375V29.28955078125H39.7705078125Q40.5654296875 29.28955078125 40.954833984375 28.991455078125Q41.34423828125 28.693359375 41.34423828125 28.0810546875Q41.34423828125 27.47412109375 40.954833984375 27.17333984375Q40.5654296875 26.87255859375 39.7705078125 26.87255859375ZM37.07958984375 25.98095703125H39.85107421875Q41.091796875 25.98095703125 41.76318359375 26.49658203125Q42.4345703125 27.01220703125 42.4345703125 27.962890625Q42.4345703125 28.69873046875 42.0908203125 29.1337890625Q41.7470703125 29.56884765625 41.0810546875 29.67626953125Q41.88134765625 29.84814453125 42.324462890625 30.393310546875Q42.767578125 30.9384765625 42.767578125 31.7548828125Q42.767578125 32.8291015625 42.037109375 33.41455078125Q41.306640625 34.0 39.95849609375 34.0H37.07958984375Z" fill="#000"/><rect x="8.00" y="41.00" width="22.00" height="10.00" fill="#2ca02c"/><path d="M43.08447265625 42.5986328125V43.74267578125Q42.53662109375 43.232421875 41.916259765625 42.97998046875Q41.2958984375 42.7275390625 40.59765625 42.7275390625Q39.22265625 42.7275390625 38.4921875 43.568115234375Q37.76171875 44.40869140625 37.76171875 45.99853515625Q37.76171875 47.5830078125 38.4921875 48.423583984375Q39.22265625 49.26416015625 40.59765625 49.26416015625Q41.2958984375 49.26416015625 41.916259765625 49.01171875Q42.53662109375 48.75927734375 43.08447265625 48.2490234375V49.38232421875Q42.51513671875 49.76904296875 41.878662109375 49.96240234375Q41.2421875 50.15576171875 40.533203125 50.15576171875Q38.71240234375 50.15576171875 37.6650390625 49.041259765625Q36.61767578125 47.9267578125 36.61767578125 45.99853515625Q36.61767578125 44.06494140625 37.6650390625 42.950439453125Q38.71240234375 41.8359375 40.533203125 41.8359375Q41.2529296875 41.8359375 41.889404296875 42.026611328125Q42.52587890625 42.21728515625 43.08447265625 42.5986328125Z" fill="#000"/></g></g></svg>