<svg xmlns="http://www.w3.org/2000/svg" width="600" height="400" viewBox="0 0 600 400" font-family="DejaVu Sans, Bitstream Vera Sans, Verdana, Arial, sans-serif" font-size="11" style="background:#fff" data-plotlet-version="0.4.0" data-plotlet-schema="2" data-plotlet-kind="figure"><g transform="translate(58,30)" data-plotlet-kind="panel" data-plotlet-title="curve= on fill_between / area" data-plotlet-xlabel="t" data-plotlet-ylabel="value" data-plotlet-xscale="linear" data-plotlet-yscale="linear" data-plotlet-xlim="0.0,5.0" data-plotlet-ylim="0.0,2.5" data-plotlet-panel-bbox="0,0,600,400" data-plotlet-data-area="58,30,524,322"><g class="plotlet-artist" data-plotlet-type="fill_between" data-plotlet-index="0" data-plotlet-label="step band" data-plotlet-color="#1f77b4" data-plotlet-n="6" data-plotlet-x-min="0" data-plotlet-x-max="5" data-plotlet-y-min="0.5" data-plotlet-y-max="2.5" data-plotlet-curve="step-after"><path d="M0.00,257.60L104.80,257.60L104.80,218.96L209.60,218.96L209.60,167.44L314.40,167.44L314.40,128.80L419.20,128.80L419.20,180.32L524.00,180.32L524.00,206.08L524.00,77.28L524.00,51.52L419.20,51.52L419.20,0.00L314.40,0.00L314.40,38.64L209.60,38.64L209.60,90.16L104.80,90.16L104.80,128.80L0.00,128.80Z" fill="#1f77b4" opacity="0.3"/></g><g class="plotlet-artist" data-plotlet-type="area" data-plotlet-index="1" data-plotlet-label="step area" data-plotlet-color="#ff7f0e" data-plotlet-n="6" data-plotlet-x-min="0" data-plotlet-x-max="5" data-plotlet-y-min="1.0" data-plotlet-y-max="2.0" data-plotlet-base="0" data-plotlet-curve="step-after"><path d="M0.00,193.20L104.80,193.20L104.80,154.56L209.60,154.56L209.60,103.04L314.40,103.04L314.40,64.40L419.20,64.40L419.20,115.92L524.00,115.92L524.00,141.68L524.00,322.00L524.00,322.00L419.20,322.00L419.20,322.00L314.40,322.00L314.40,322.00L209.60,322.00L209.60,322.00L104.80,322.00L104.80,322.00L0.00,322.00Z" fill="#ff7f0e" opacity="0.5"/></g><line x1="0" y1="0" x2="524" y2="0" stroke="#000000" stroke-width="0.8"/><line x1="0" y1="322" x2="524" y2="322" stroke="#000000" stroke-width="0.8"/><line x1="0" y1="0" x2="0" y2="322" stroke="#000000" stroke-width="0.8"/><line x1="524" y1="0" x2="524" y2="322" stroke="#000000" stroke-width="0.8"/><line x1="0.00" x2="0.00" y1="322" y2="325.5" stroke="#000000" stroke-width="0.8"/><path d="M-0.002685546875 330.1953125Q-0.840576171875 330.1953125 -1.26220703125 331.019775390625Q-1.683837890625 331.84423828125 -1.683837890625 333.49853515625Q-1.683837890625 335.1474609375 -1.26220703125 335.971923828125Q-0.840576171875 336.79638671875 -0.002685546875 336.79638671875Q0.840576171875 336.79638671875 1.26220703125 335.971923828125Q1.683837890625 335.1474609375 1.683837890625 333.49853515625Q1.683837890625 331.84423828125 1.26220703125 331.019775390625Q0.840576171875 330.1953125 -0.002685546875 330.1953125ZM-0.002685546875 329.3359375Q1.345458984375 329.3359375 2.05712890625 330.402099609375Q2.768798828125 331.46826171875 2.768798828125 333.49853515625Q2.768798828125 335.5234375 2.05712890625 336.589599609375Q1.345458984375 337.65576171875 -0.002685546875 337.65576171875Q-1.350830078125 337.65576171875 -2.0625 336.589599609375Q-2.774169921875 335.5234375 -2.774169921875 333.49853515625Q-2.774169921875 331.46826171875 -2.0625 330.402099609375Q-1.350830078125 329.3359375 -0.002685546875 329.3359375Z" fill="#000"/><line x1="52.40" x2="52.40" y1="322" y2="325.5" stroke="#000000" stroke-width="0.8"/><path d="M47.149755859375 330.1953125Q46.311865234375 330.1953125 45.890234375 331.019775390625Q45.468603515625 331.84423828125 45.468603515625 333.49853515625Q45.468603515625 335.1474609375 45.890234375 335.971923828125Q46.311865234375 336.79638671875 47.149755859375 336.79638671875Q47.993017578125 336.79638671875 48.4146484375 335.971923828125Q48.836279296875 335.1474609375 48.836279296875 333.49853515625Q48.836279296875 331.84423828125 48.4146484375 331.019775390625Q47.993017578125 330.1953125 47.149755859375 330.1953125ZM47.149755859375 329.3359375Q48.497900390625 329.3359375 49.2095703125 330.402099609375Q49.921240234375 331.46826171875 49.921240234375 333.49853515625Q49.921240234375 335.5234375 49.2095703125 336.589599609375Q48.497900390625 337.65576171875 47.149755859375 337.65576171875Q45.801611328125 337.65576171875 45.08994140625 336.589599609375Q44.378271484375 335.5234375 44.378271484375 333.49853515625Q44.378271484375 331.46826171875 45.08994140625 330.402099609375Q45.801611328125 329.3359375 47.149755859375 329.3359375ZM51.827978515625 336.1357421875H52.961279296875V337.5H51.827978515625ZM55.335302734375 329.48095703125H59.594580078125V330.39404296875H56.328955078125V332.35986328125Q56.565283203125 332.279296875 56.801611328125 332.239013671875Q57.037939453125 332.19873046875 57.274267578125 332.19873046875Q58.617041015625 332.19873046875 59.401220703125 332.9345703125Q60.185400390625 333.67041015625 60.185400390625 334.92724609375Q60.185400390625 336.2216796875 59.379736328125 336.938720703125Q58.574072265625 337.65576171875 57.107763671875 337.65576171875Q56.602880859375 337.65576171875 56.07919921875 337.56982421875Q55.555517578125 337.48388671875 54.996923828125 337.31201171875V336.2216796875Q55.480322265625 336.48486328125 55.995947265625 336.61376953125Q56.511572265625 336.74267578125 57.086279296875 336.74267578125Q58.015478515625 336.74267578125 58.557958984375 336.25390625Q59.100439453125 335.76513671875 59.100439453125 334.92724609375Q59.100439453125 334.08935546875 58.557958984375 333.6005859375Q58.015478515625 333.11181640625 57.086279296875 333.11181640625Q56.651220703125 333.11181640625 56.21884765625 333.20849609375Q55.786474609375 333.30517578125 55.335302734375 333.50927734375Z" fill="#000"/><line x1="104.80" x2="104.80" y1="322" y2="325.5" stroke="#000000" stroke-width="0.8"/><path d="M102.664990234375 336.5869140625H104.437451171875V330.46923828125L102.509228515625 330.85595703125V329.86767578125L104.426708984375 329.48095703125H105.511669921875V336.5869140625H107.284130859375V337.5H102.664990234375Z" fill="#000"/><line x1="157.20" x2="157.20" y1="322" y2="325.5" stroke="#000000" stroke-width="0.8"/><path d="M149.817431640625 336.5869140625H151.589892578125V330.46923828125L149.661669921875 330.85595703125V329.86767578125L151.579150390625 329.48095703125H152.664111328125V336.5869140625H154.436572265625V337.5H149.817431640625ZM156.627978515625 336.1357421875H157.761279296875V337.5H156.627978515625ZM160.135302734375 329.48095703125H164.394580078125V330.39404296875H161.128955078125V332.35986328125Q161.365283203125 332.279296875 161.601611328125 332.239013671875Q161.837939453125 332.19873046875 162.074267578125 332.19873046875Q163.417041015625 332.19873046875 164.201220703125 332.9345703125Q164.985400390625 333.67041015625 164.985400390625 334.92724609375Q164.985400390625 336.2216796875 164.179736328125 336.938720703125Q163.374072265625 337.65576171875 161.907763671875 337.65576171875Q161.402880859375 337.65576171875 160.87919921875 337.56982421875Q160.355517578125 337.48388671875 159.796923828125 337.31201171875V336.2216796875Q160.280322265625 336.48486328125 160.795947265625 336.61376953125Q161.311572265625 336.74267578125 161.886279296875 336.74267578125Q162.815478515625 336.74267578125 163.357958984375 336.25390625Q163.900439453125 335.76513671875 163.900439453125 334.92724609375Q163.900439453125 334.08935546875 163.357958984375 333.6005859375Q162.815478515625 333.11181640625 161.886279296875 333.11181640625Q161.451220703125 333.11181640625 161.01884765625 333.20849609375Q160.586474609375 333.30517578125 160.135302734375 333.50927734375Z" fill="#000"/><line x1="209.60" x2="209.60" y1="322" y2="325.5" stroke="#000000" stroke-width="0.8"/><path d="M208.211572265625 336.5869140625H211.998193359375V337.5H206.906396484375V336.5869140625Q207.524072265625 335.94775390625 208.590234375 334.870849609375Q209.656396484375 333.7939453125 209.930322265625 333.482421875Q210.451318359375 332.89697265625 210.65810546875 332.491455078125Q210.864892578125 332.0859375 210.864892578125 331.69384765625Q210.864892578125 331.0546875 210.41640625 330.65185546875Q209.967919921875 330.2490234375 209.248193359375 330.2490234375Q208.737939453125 330.2490234375 208.1712890625 330.42626953125Q207.604638671875 330.603515625 206.960107421875 330.96337890625V329.86767578125Q207.615380859375 329.6044921875 208.184716796875 329.47021484375Q208.754052734375 329.3359375 209.226708984375 329.3359375Q210.472802734375 329.3359375 211.214013671875 329.958984375Q211.955224609375 330.58203125 211.955224609375 331.6240234375Q211.955224609375 332.1181640625 211.769921875 332.561279296875Q211.584619140625 333.00439453125 211.095849609375 333.60595703125Q210.961572265625 333.76171875 210.241845703125 334.505615234375Q209.522119140625 335.24951171875 208.211572265625 336.5869140625Z" fill="#000"/><line x1="262.00" x2="262.00" y1="322" y2="325.5" stroke="#000000" stroke-width="0.8"/><path d="M255.364013671875 336.5869140625H259.150634765625V337.5H254.058837890625V336.5869140625Q254.676513671875 335.94775390625 255.74267578125 334.870849609375Q256.808837890625 333.7939453125 257.082763671875 333.482421875Q257.603759765625 332.89697265625 257.810546875 332.491455078125Q258.017333984375 332.0859375 258.017333984375 331.69384765625Q258.017333984375 331.0546875 257.56884765625 330.65185546875Q257.120361328125 330.2490234375 256.400634765625 330.2490234375Q255.890380859375 330.2490234375 255.32373046875 330.42626953125Q254.757080078125 330.603515625 254.112548828125 330.96337890625V329.86767578125Q254.767822265625 329.6044921875 255.337158203125 329.47021484375Q255.906494140625 329.3359375 256.379150390625 329.3359375Q257.625244140625 329.3359375 258.366455078125 329.958984375Q259.107666015625 330.58203125 259.107666015625 331.6240234375Q259.107666015625 332.1181640625 258.92236328125 332.561279296875Q258.737060546875 333.00439453125 258.248291015625 333.60595703125Q258.114013671875 333.76171875 257.394287109375 334.505615234375Q256.674560546875 335.24951171875 255.364013671875 336.5869140625ZM261.427978515625 336.1357421875H262.561279296875V337.5H261.427978515625ZM264.935302734375 329.48095703125H269.194580078125V330.39404296875H265.928955078125V332.35986328125Q266.165283203125 332.279296875 266.401611328125 332.239013671875Q266.637939453125 332.19873046875 266.874267578125 332.19873046875Q268.217041015625 332.19873046875 269.001220703125 332.9345703125Q269.785400390625 333.67041015625 269.785400390625 334.92724609375Q269.785400390625 336.2216796875 268.979736328125 336.938720703125Q268.174072265625 337.65576171875 266.707763671875 337.65576171875Q266.202880859375 337.65576171875 265.67919921875 337.56982421875Q265.155517578125 337.48388671875 264.596923828125 337.31201171875V336.2216796875Q265.080322265625 336.48486328125 265.595947265625 336.61376953125Q266.111572265625 336.74267578125 266.686279296875 336.74267578125Q267.615478515625 336.74267578125 268.157958984375 336.25390625Q268.700439453125 335.76513671875 268.700439453125 334.92724609375Q268.700439453125 334.08935546875 268.157958984375 333.6005859375Q267.615478515625 333.11181640625 266.686279296875 333.11181640625Q266.251220703125 333.11181640625 265.81884765625 333.20849609375Q265.386474609375 333.30517578125 264.935302734375 333.50927734375Z" fill="#000"/><line x1="314.40" x2="314.40" y1="322" y2="325.5" stroke="#000000" stroke-width="0.8"/><path d="M315.364111328125 333.17626953125Q316.142919921875 333.3427734375 316.5806640625 333.869140625Q317.018408203125 334.3955078125 317.018408203125 335.1689453125Q317.018408203125 336.35595703125 316.202001953125 337.005859375Q315.385595703125 337.65576171875 313.881689453125 337.65576171875Q313.376806640625 337.65576171875 312.8423828125 337.556396484375Q312.307958984375 337.45703125 311.738623046875 337.25830078125V336.2109375Q312.189794921875 336.47412109375 312.726904296875 336.6083984375Q313.264013671875 336.74267578125 313.849462890625 336.74267578125Q314.869970703125 336.74267578125 315.40439453125 336.33984375Q315.938818359375 335.93701171875 315.938818359375 335.1689453125Q315.938818359375 334.4599609375 315.4419921875 334.059814453125Q314.945166015625 333.65966796875 314.058935546875 333.65966796875H313.124365234375V332.76806640625H314.101904296875Q314.902197265625 332.76806640625 315.326513671875 332.448486328125Q315.750830078125 332.12890625 315.750830078125 331.52734375Q315.750830078125 330.90966796875 315.3130859375 330.579345703125Q314.875341796875 330.2490234375 314.058935546875 330.2490234375Q313.613134765625 330.2490234375 313.102880859375 330.345703125Q312.592626953125 330.4423828125 311.980322265625 330.646484375V329.6796875Q312.597998046875 329.5078125 313.13779296875 329.421875Q313.677587890625 329.3359375 314.155615234375 329.3359375Q315.390966796875 329.3359375 316.110693359375 329.897216796875Q316.830419921875 330.45849609375 316.830419921875 331.41455078125Q316.830419921875 332.08056640625 316.449072265625 332.539794921875Q316.067724609375 332.9990234375 315.364111328125 333.17626953125Z" fill="#000"/><line x1="366.80" x2="366.80" y1="322" y2="325.5" stroke="#000000" stroke-width="0.8"/><path d="M362.516552734375 333.17626953125Q363.295361328125 333.3427734375 363.73310546875 333.869140625Q364.170849609375 334.3955078125 364.170849609375 335.1689453125Q364.170849609375 336.35595703125 363.354443359375 337.005859375Q362.538037109375 337.65576171875 361.034130859375 337.65576171875Q360.529248046875 337.65576171875 359.99482421875 337.556396484375Q359.460400390625 337.45703125 358.891064453125 337.25830078125V336.2109375Q359.342236328125 336.47412109375 359.879345703125 336.6083984375Q360.416455078125 336.74267578125 361.001904296875 336.74267578125Q362.022412109375 336.74267578125 362.5568359375 336.33984375Q363.091259765625 335.93701171875 363.091259765625 335.1689453125Q363.091259765625 334.4599609375 362.59443359375 334.059814453125Q362.097607421875 333.65966796875 361.211376953125 333.65966796875H360.276806640625V332.76806640625H361.254345703125Q362.054638671875 332.76806640625 362.478955078125 332.448486328125Q362.903271484375 332.12890625 362.903271484375 331.52734375Q362.903271484375 330.90966796875 362.46552734375 330.579345703125Q362.027783203125 330.2490234375 361.211376953125 330.2490234375Q360.765576171875 330.2490234375 360.255322265625 330.345703125Q359.745068359375 330.4423828125 359.132763671875 330.646484375V329.6796875Q359.750439453125 329.5078125 360.290234375 329.421875Q360.830029296875 329.3359375 361.308056640625 329.3359375Q362.543408203125 329.3359375 363.263134765625 329.897216796875Q363.982861328125 330.45849609375 363.982861328125 331.41455078125Q363.982861328125 332.08056640625 363.601513671875 332.539794921875Q363.220166015625 332.9990234375 362.516552734375 333.17626953125ZM366.227978515625 336.1357421875H367.361279296875V337.5H366.227978515625ZM369.735302734375 329.48095703125H373.994580078125V330.39404296875H370.728955078125V332.35986328125Q370.965283203125 332.279296875 371.201611328125 332.239013671875Q371.437939453125 332.19873046875 371.674267578125 332.19873046875Q373.017041015625 332.19873046875 373.801220703125 332.9345703125Q374.585400390625 333.67041015625 374.585400390625 334.92724609375Q374.585400390625 336.2216796875 373.779736328125 336.938720703125Q372.974072265625 337.65576171875 371.507763671875 337.65576171875Q371.002880859375 337.65576171875 370.47919921875 337.56982421875Q369.955517578125 337.48388671875 369.396923828125 337.31201171875V336.2216796875Q369.880322265625 336.48486328125 370.395947265625 336.61376953125Q370.911572265625 336.74267578125 371.486279296875 336.74267578125Q372.415478515625 336.74267578125 372.957958984375 336.25390625Q373.500439453125 335.76513671875 373.500439453125 334.92724609375Q373.500439453125 334.08935546875 372.957958984375 333.6005859375Q372.415478515625 333.11181640625 371.486279296875 333.11181640625Q371.051220703125 333.11181640625 370.61884765625 333.20849609375Q370.186474609375 333.30517578125 369.735302734375 333.50927734375Z" fill="#000"/><line x1="419.20" x2="419.20" y1="322" y2="325.5" stroke="#000000" stroke-width="0.8"/><path d="M419.857958984375 330.42626953125 417.118701171875 334.70703125H419.857958984375ZM419.573291015625 329.48095703125H420.937548828125V334.70703125H422.081591796875V335.609375H420.937548828125V337.5H419.857958984375V335.609375H416.237841796875V334.56201171875Z" fill="#000"/><line x1="471.60" x2="471.60" y1="322" y2="325.5" stroke="#000000" stroke-width="0.8"/><path d="M467.010400390625 330.42626953125 464.271142578125 334.70703125H467.010400390625ZM466.725732421875 329.48095703125H468.089990234375V334.70703125H469.234033203125V335.609375H468.089990234375V337.5H467.010400390625V335.609375H463.390283203125V334.56201171875ZM471.027978515625 336.1357421875H472.161279296875V337.5H471.027978515625ZM474.535302734375 329.48095703125H478.794580078125V330.39404296875H475.528955078125V332.35986328125Q475.765283203125 332.279296875 476.001611328125 332.239013671875Q476.237939453125 332.19873046875 476.474267578125 332.19873046875Q477.817041015625 332.19873046875 478.601220703125 332.9345703125Q479.385400390625 333.67041015625 479.385400390625 334.92724609375Q479.385400390625 336.2216796875 478.579736328125 336.938720703125Q477.774072265625 337.65576171875 476.307763671875 337.65576171875Q475.802880859375 337.65576171875 475.27919921875 337.56982421875Q474.755517578125 337.48388671875 474.196923828125 337.31201171875V336.2216796875Q474.680322265625 336.48486328125 475.195947265625 336.61376953125Q475.711572265625 336.74267578125 476.286279296875 336.74267578125Q477.215478515625 336.74267578125 477.757958984375 336.25390625Q478.300439453125 335.76513671875 478.300439453125 334.92724609375Q478.300439453125 334.08935546875 477.757958984375 333.6005859375Q477.215478515625 333.11181640625 476.286279296875 333.11181640625Q475.851220703125 333.11181640625 475.41884765625 333.20849609375Q474.986474609375 333.30517578125 474.535302734375 333.50927734375Z" fill="#000"/><line x1="524.00" x2="524.00" y1="322" y2="325.5" stroke="#000000" stroke-width="0.8"/><path d="M521.687744140625 329.48095703125H525.947021484375V330.39404296875H522.681396484375V332.35986328125Q522.917724609375 332.279296875 523.154052734375 332.239013671875Q523.390380859375 332.19873046875 523.626708984375 332.19873046875Q524.969482421875 332.19873046875 525.753662109375 332.9345703125Q526.537841796875 333.67041015625 526.537841796875 334.92724609375Q526.537841796875 336.2216796875 525.732177734375 336.938720703125Q524.926513671875 337.65576171875 523.460205078125 337.65576171875Q522.955322265625 337.65576171875 522.431640625 337.56982421875Q521.907958984375 337.48388671875 521.349365234375 337.31201171875V336.2216796875Q521.832763671875 336.48486328125 522.348388671875 336.61376953125Q522.864013671875 336.74267578125 523.438720703125 336.74267578125Q524.367919921875 336.74267578125 524.910400390625 336.25390625Q525.452880859375 335.76513671875 525.452880859375 334.92724609375Q525.452880859375 334.08935546875 524.910400390625 333.6005859375Q524.367919921875 333.11181640625 523.438720703125 333.11181640625Q523.003662109375 333.11181640625 522.5712890625 333.20849609375Q522.138916015625 333.30517578125 521.687744140625 333.50927734375Z" fill="#000"/><line x1="0" x2="-3.5" y1="322.00" y2="322.00" stroke="#000000" stroke-width="0.8"/><path d="M-11.001953125 318.6953125Q-11.83984375 318.6953125 -12.261474609375 319.519775390625Q-12.68310546875 320.34423828125 -12.68310546875 321.99853515625Q-12.68310546875 323.6474609375 -12.261474609375 324.471923828125Q-11.83984375 325.29638671875 -11.001953125 325.29638671875Q-10.15869140625 325.29638671875 -9.737060546875 324.471923828125Q-9.3154296875 323.6474609375 -9.3154296875 321.99853515625Q-9.3154296875 320.34423828125 -9.737060546875 319.519775390625Q-10.15869140625 318.6953125 -11.001953125 318.6953125ZM-11.001953125 317.8359375Q-9.65380859375 317.8359375 -8.942138671875 318.902099609375Q-8.23046875 319.96826171875 -8.23046875 321.99853515625Q-8.23046875 324.0234375 -8.942138671875 325.089599609375Q-9.65380859375 326.15576171875 -11.001953125 326.15576171875Q-12.35009765625 326.15576171875 -13.061767578125 325.089599609375Q-13.7734375 324.0234375 -13.7734375 321.99853515625Q-13.7734375 319.96826171875 -13.061767578125 318.902099609375Q-12.35009765625 317.8359375 -11.001953125 317.8359375Z" fill="#000"/><line x1="0" x2="-3.5" y1="257.60" y2="257.60" stroke="#000000" stroke-width="0.8"/><path d="M-21.4970703125 254.29531250000002Q-22.3349609375 254.29531250000002 -22.756591796875 255.11977539062502Q-23.17822265625 255.94423828125002 -23.17822265625 257.59853515625Q-23.17822265625 259.2474609375 -22.756591796875 260.071923828125Q-22.3349609375 260.89638671875 -21.4970703125 260.89638671875Q-20.65380859375 260.89638671875 -20.232177734375 260.071923828125Q-19.810546875 259.2474609375 -19.810546875 257.59853515625Q-19.810546875 255.94423828125002 -20.232177734375 255.11977539062502Q-20.65380859375 254.29531250000002 -21.4970703125 254.29531250000002ZM-21.4970703125 253.43593750000002Q-20.14892578125 253.43593750000002 -19.437255859375 254.50209960937502Q-18.7255859375 255.56826171875002 -18.7255859375 257.59853515625Q-18.7255859375 259.6234375 -19.437255859375 260.689599609375Q-20.14892578125 261.75576171875 -21.4970703125 261.75576171875Q-22.84521484375 261.75576171875 -23.556884765625 260.689599609375Q-24.2685546875 259.6234375 -24.2685546875 257.59853515625Q-24.2685546875 255.56826171875002 -23.556884765625 254.50209960937502Q-22.84521484375 253.43593750000002 -21.4970703125 253.43593750000002ZM-16.81884765625 260.2357421875H-15.685546875V261.6H-16.81884765625ZM-13.3115234375 253.58095703125002H-9.05224609375V254.49404296875002H-12.31787109375V256.45986328125Q-12.08154296875 256.379296875 -11.84521484375 256.339013671875Q-11.60888671875 256.29873046875 -11.37255859375 256.29873046875Q-10.02978515625 256.29873046875 -9.24560546875 257.0345703125Q-8.46142578125 257.77041015625 -8.46142578125 259.02724609375Q-8.46142578125 260.3216796875 -9.26708984375 261.038720703125Q-10.07275390625 261.75576171875 -11.5390625 261.75576171875Q-12.0439453125 261.75576171875 -12.567626953125 261.66982421875Q-13.09130859375 261.58388671875 -13.64990234375 261.41201171875V260.3216796875Q-13.16650390625 260.58486328125 -12.65087890625 260.71376953125Q-12.13525390625 260.84267578125 -11.560546875 260.84267578125Q-10.63134765625 260.84267578125 -10.0888671875 260.35390625Q-9.54638671875 259.86513671875 -9.54638671875 259.02724609375Q-9.54638671875 258.18935546875 -10.0888671875 257.7005859375Q-10.63134765625 257.21181640625 -11.560546875 257.21181640625Q-11.99560546875 257.21181640625 -12.427978515625 257.30849609375Q-12.8603515625 257.40517578125 -13.3115234375 257.60927734375Z" fill="#000"/><line x1="0" x2="-3.5" y1="193.20" y2="193.20" stroke="#000000" stroke-width="0.8"/><path d="M-13.13427734375 196.2869140625H-11.36181640625V190.16923828125L-13.2900390625 190.55595703125V189.56767578125L-11.37255859375 189.18095703125H-10.28759765625V196.2869140625H-8.51513671875V197.2H-13.13427734375Z" fill="#000"/><line x1="0" x2="-3.5" y1="128.80" y2="128.80" stroke="#000000" stroke-width="0.8"/><path d="M-23.62939453125 131.8869140625H-21.85693359375V125.76923828125001L-23.78515625 126.15595703125001V125.16767578125001L-21.86767578125 124.78095703125001H-20.78271484375V131.8869140625H-19.01025390625V132.8H-23.62939453125ZM-16.81884765625 131.4357421875H-15.685546875V132.8H-16.81884765625ZM-13.3115234375 124.78095703125001H-9.05224609375V125.69404296875001H-12.31787109375V127.65986328125001Q-12.08154296875 127.57929687500001 -11.84521484375 127.53901367187501Q-11.60888671875 127.49873046875001 -11.37255859375 127.49873046875001Q-10.02978515625 127.49873046875001 -9.24560546875 128.2345703125Q-8.46142578125 128.97041015625 -8.46142578125 130.22724609375Q-8.46142578125 131.5216796875 -9.26708984375 132.238720703125Q-10.07275390625 132.95576171875 -11.5390625 132.95576171875Q-12.0439453125 132.95576171875 -12.567626953125 132.86982421875Q-13.09130859375 132.78388671875 -13.64990234375 132.61201171875V131.5216796875Q-13.16650390625 131.78486328125 -12.65087890625 131.91376953125Q-12.13525390625 132.04267578125 -11.560546875 132.04267578125Q-10.63134765625 132.04267578125 -10.0888671875 131.55390625Q-9.54638671875 131.06513671875 -9.54638671875 130.22724609375Q-9.54638671875 129.38935546875 -10.0888671875 128.9005859375Q-10.63134765625 128.41181640625 -11.560546875 128.41181640625Q-11.99560546875 128.41181640625 -12.427978515625 128.50849609375Q-12.8603515625 128.60517578125 -13.3115234375 128.80927734375Z" fill="#000"/><line x1="0" x2="-3.5" y1="64.40" y2="64.40" stroke="#000000" stroke-width="0.8"/><path d="M-12.3876953125 67.48691406249998H-8.60107421875V68.39999999999998H-13.69287109375V67.48691406249998Q-13.0751953125 66.84775390624998 -12.009033203125 65.77084960937498Q-10.94287109375 64.69394531249998 -10.6689453125 64.38242187499998Q-10.14794921875 63.79697265624998 -9.941162109375 63.39145507812498Q-9.734375 62.98593749999998 -9.734375 62.59384765624998Q-9.734375 61.95468749999998 -10.182861328125 61.55185546874998Q-10.63134765625 61.14902343749998 -11.35107421875 61.14902343749998Q-11.861328125 61.14902343749998 -12.427978515625 61.32626953124998Q-12.99462890625 61.50351562499998 -13.63916015625 61.86337890624998V60.76767578124998Q-12.98388671875 60.50449218749998 -12.41455078125 60.37021484374998Q-11.84521484375 60.23593749999998 -11.37255859375 60.23593749999998Q-10.12646484375 60.23593749999998 -9.38525390625 60.85898437499998Q-8.64404296875 61.48203124999998 -8.64404296875 62.52402343749998Q-8.64404296875 63.01816406249998 -8.829345703125 63.46127929687498Q-9.0146484375 63.90439453124998 -9.50341796875 64.50595703124998Q-9.6376953125 64.66171874999998 -10.357421875 65.40561523437498Q-11.0771484375 66.14951171874998 -12.3876953125 67.48691406249998Z" fill="#000"/><line x1="0" x2="-3.5" y1="0.00" y2="0.00" stroke="#000000" stroke-width="0.8"/><path d="M-22.8828125 3.0869140625H-19.09619140625V4.0H-24.18798828125V3.0869140625Q-23.5703125 2.44775390625 -22.504150390625 1.370849609375Q-21.43798828125 0.2939453125 -21.1640625 -0.017578125Q-20.64306640625 -0.60302734375 -20.436279296875 -1.008544921875Q-20.2294921875 -1.4140625 -20.2294921875 -1.80615234375Q-20.2294921875 -2.4453125 -20.677978515625 -2.84814453125Q-21.12646484375 -3.2509765625 -21.84619140625 -3.2509765625Q-22.3564453125 -3.2509765625 -22.923095703125 -3.07373046875Q-23.48974609375 -2.896484375 -24.13427734375 -2.53662109375V-3.63232421875Q-23.47900390625 -3.8955078125 -22.90966796875 -4.02978515625Q-22.34033203125 -4.1640625 -21.86767578125 -4.1640625Q-20.62158203125 -4.1640625 -19.88037109375 -3.541015625Q-19.13916015625 -2.91796875 -19.13916015625 -1.8759765625Q-19.13916015625 -1.3818359375 -19.324462890625 -0.938720703125Q-19.509765625 -0.49560546875 -19.99853515625 0.10595703125Q-20.1328125 0.26171875 -20.8525390625 1.005615234375Q-21.572265625 1.74951171875 -22.8828125 3.0869140625ZM-16.81884765625 2.6357421875H-15.685546875V4.0H-16.81884765625ZM-13.3115234375 -4.01904296875H-9.05224609375V-3.10595703125H-12.31787109375V-1.14013671875Q-12.08154296875 -1.220703125 -11.84521484375 -1.260986328125Q-11.60888671875 -1.30126953125 -11.37255859375 -1.30126953125Q-10.02978515625 -1.30126953125 -9.24560546875 -0.5654296875Q-8.46142578125 0.17041015625 -8.46142578125 1.42724609375Q-8.46142578125 2.7216796875 -9.26708984375 3.438720703125Q-10.07275390625 4.15576171875 -11.5390625 4.15576171875Q-12.0439453125 4.15576171875 -12.567626953125 4.06982421875Q-13.09130859375 3.98388671875 -13.64990234375 3.81201171875V2.7216796875Q-13.16650390625 2.98486328125 -12.65087890625 3.11376953125Q-12.13525390625 3.24267578125 -11.560546875 3.24267578125Q-10.63134765625 3.24267578125 -10.0888671875 2.75390625Q-9.54638671875 2.26513671875 -9.54638671875 1.42724609375Q-9.54638671875 0.58935546875 -10.0888671875 0.1005859375Q-10.63134765625 -0.38818359375 -11.560546875 -0.38818359375Q-11.99560546875 -0.38818359375 -12.427978515625 -0.29150390625Q-12.8603515625 -0.19482421875 -13.3115234375 0.00927734375Z" fill="#000"/><path d="M261.8447265625 353.57421875V355.4375H264.0654296875V356.275390625H261.8447265625V359.837890625Q261.8447265625 360.640625 262.064453125 360.869140625Q262.2841796875 361.09765625 262.9580078125 361.09765625H264.0654296875V362.0H262.9580078125Q261.7099609375 362.0 261.2353515625 361.5341796875Q260.7607421875 361.068359375 260.7607421875 359.837890625V356.275390625H259.9697265625V355.4375H260.7607421875V353.57421875Z" fill="#000"/><g transform="translate(-46,161.0) rotate(-90)"><path d="M-16.03125 -6.5625H-14.888671875L-12.837890625 -1.0546875L-10.787109375 -6.5625H-9.64453125L-12.10546875 0.0H-13.5703125ZM-5.173828125 -3.298828125Q-6.48046875 -3.298828125 -6.984375 -3.0Q-7.48828125 -2.701171875 -7.48828125 -1.98046875Q-7.48828125 -1.40625 -7.1103515625 -1.0693359375Q-6.732421875 -0.732421875 -6.08203125 -0.732421875Q-5.185546875 -0.732421875 -4.6435546875 -1.3681640625Q-4.1015625 -2.00390625 -4.1015625 -3.05859375V-3.298828125ZM-3.0234375 -3.744140625V0.0H-4.1015625V-0.99609375Q-4.470703125 -0.3984375 -5.021484375 -0.1142578125Q-5.572265625 0.169921875 -6.369140625 0.169921875Q-7.376953125 0.169921875 -7.9716796875 -0.3955078125Q-8.56640625 -0.9609375 -8.56640625 -1.91015625Q-8.56640625 -3.017578125 -7.8251953125 -3.580078125Q-7.083984375 -4.142578125 -5.61328125 -4.142578125H-4.1015625V-4.248046875Q-4.1015625 -4.9921875 -4.5908203125 -5.3994140625Q-5.080078125 -5.806640625 -5.96484375 -5.806640625Q-6.52734375 -5.806640625 -7.060546875 -5.671875Q-7.59375 -5.537109375 -8.0859375 -5.267578125V-6.263671875Q-7.494140625 -6.4921875 -6.9375 -6.6064453125Q-6.380859375 -6.720703125 -5.853515625 -6.720703125Q-4.4296875 -6.720703125 -3.7265625 -5.982421875Q-3.0234375 -5.244140625 -3.0234375 -3.744140625ZM-0.802734375 -9.1171875H0.275390625V0.0H-0.802734375ZM2.419921875 -2.58984375V-6.5625H3.498046875V-2.630859375Q3.498046875 -1.69921875 3.861328125 -1.2333984375Q4.224609375 -0.767578125 4.951171875 -0.767578125Q5.82421875 -0.767578125 6.3310546875 -1.32421875Q6.837890625 -1.880859375 6.837890625 -2.841796875V-6.5625H7.916015625V0.0H6.837890625V-1.0078125Q6.4453125 -0.41015625 5.9267578125 -0.1201171875Q5.408203125 0.169921875 4.72265625 0.169921875Q3.591796875 0.169921875 3.005859375 -0.533203125Q2.419921875 -1.236328125 2.419921875 -2.58984375ZM5.1328125 -6.720703125ZM15.75 -3.55078125V-3.0234375H10.79296875Q10.86328125 -1.91015625 11.4638671875 -1.3271484375Q12.064453125 -0.744140625 13.13671875 -0.744140625Q13.7578125 -0.744140625 14.3408203125 -0.896484375Q14.923828125 -1.048828125 15.498046875 -1.353515625V-0.333984375Q14.91796875 -0.087890625 14.30859375 0.041015625Q13.69921875 0.169921875 13.072265625 0.169921875Q11.501953125 0.169921875 10.5849609375 -0.744140625Q9.66796875 -1.658203125 9.66796875 -3.216796875Q9.66796875 -4.828125 10.5380859375 -5.7744140625Q11.408203125 -6.720703125 12.884765625 -6.720703125Q14.208984375 -6.720703125 14.9794921875 -5.8681640625Q15.75 -5.015625 15.75 -3.55078125ZM14.671875 -3.8671875Q14.66015625 -4.751953125 14.1767578125 -5.279296875Q13.693359375 -5.806640625 12.896484375 -5.806640625Q11.994140625 -5.806640625 11.4521484375 -5.296875Q10.91015625 -4.787109375 10.828125 -3.861328125Z" fill="#000"/></g><path d="M172.431396484375 -16.83642578125V-15.74462890625Q171.936279296875 -16.017578125 171.43798828125 -16.154052734375Q170.939697265625 -16.29052734375 170.431884765625 -16.29052734375Q169.295654296875 -16.29052734375 168.667236328125 -15.570068359375Q168.038818359375 -14.849609375 168.038818359375 -13.54833984375Q168.038818359375 -12.2470703125 168.667236328125 -11.526611328125Q169.295654296875 -10.80615234375 170.431884765625 -10.80615234375Q170.939697265625 -10.80615234375 171.43798828125 -10.942626953125Q171.936279296875 -11.0791015625 172.431396484375 -11.35205078125V-10.27294921875Q171.942626953125 -10.04443359375 171.4189453125 -9.93017578125Q170.895263671875 -9.81591796875 170.304931640625 -9.81591796875Q168.698974609375 -9.81591796875 167.753173828125 -10.8251953125Q166.807373046875 -11.83447265625 166.807373046875 -13.54833984375Q166.807373046875 -15.28759765625 167.7626953125 -16.2841796875Q168.718017578125 -17.28076171875 170.381103515625 -17.28076171875Q170.920654296875 -17.28076171875 171.434814453125 -17.169677734375Q171.948974609375 -17.05859375 172.431396484375 -16.83642578125ZM174.342041015625 -12.8056640625V-17.109375H175.510009765625V-12.85009765625Q175.510009765625 -11.8408203125 175.903564453125 -11.336181640625Q176.297119140625 -10.83154296875 177.084228515625 -10.83154296875Q178.030029296875 -10.83154296875 178.5791015625 -11.4345703125Q179.128173828125 -12.03759765625 179.128173828125 -13.07861328125V-17.109375H180.296142578125V-10.0H179.128173828125V-11.091796875Q178.702880859375 -10.4443359375 178.14111328125 -10.130126953125Q177.579345703125 -9.81591796875 176.836669921875 -9.81591796875Q175.611572265625 -9.81591796875 174.976806640625 -10.57763671875Q174.342041015625 -11.33935546875 174.342041015625 -12.8056640625ZM177.281005859375 -17.28076171875ZM186.821533203125 -16.017578125Q186.624755859375 -16.1318359375 186.39306640625 -16.185791015625Q186.161376953125 -16.23974609375 185.882080078125 -16.23974609375Q184.891845703125 -16.23974609375 184.36181640625 -15.595458984375Q183.831787109375 -14.951171875 183.831787109375 -13.7451171875V-10.0H182.657470703125V-17.109375H183.831787109375V-16.0048828125Q184.199951171875 -16.65234375 184.790283203125 -16.966552734375Q185.380615234375 -17.28076171875 186.224853515625 -17.28076171875Q186.345458984375 -17.28076171875 186.491455078125 -17.264892578125Q186.637451171875 -17.2490234375 186.815185546875 -17.21728515625ZM187.208740234375 -17.109375H188.446533203125L190.668212890625 -11.142578125L192.889892578125 -17.109375H194.127685546875L191.461669921875 -10.0H189.874755859375ZM201.821044921875 -13.8466796875V-13.275390625H196.450927734375Q196.527099609375 -12.0693359375 197.177734375 -11.437744140625Q197.828369140625 -10.80615234375 198.989990234375 -10.80615234375Q199.662841796875 -10.80615234375 200.29443359375 -10.97119140625Q200.926025390625 -11.13623046875 201.548095703125 -11.46630859375V-10.36181640625Q200.919677734375 -10.09521484375 200.259521484375 -9.95556640625Q199.599365234375 -9.81591796875 198.920166015625 -9.81591796875Q197.218994140625 -9.81591796875 196.2255859375 -10.80615234375Q195.232177734375 -11.79638671875 195.232177734375 -13.48486328125Q195.232177734375 -15.23046875 196.1748046875 -16.255615234375Q197.117431640625 -17.28076171875 198.717041015625 -17.28076171875Q200.151611328125 -17.28076171875 200.986328125 -16.357177734375Q201.821044921875 -15.43359375 201.821044921875 -13.8466796875ZM200.653076171875 -14.189453125Q200.640380859375 -15.14794921875 200.11669921875 -15.71923828125Q199.593017578125 -16.29052734375 198.729736328125 -16.29052734375Q197.752197265625 -16.29052734375 197.1650390625 -15.73828125Q196.577880859375 -15.18603515625 196.489013671875 -14.18310546875ZM203.890380859375 -15.9033203125H212.028076171875V-14.8369140625H203.890380859375ZM203.890380859375 -13.3134765625H212.028076171875V-12.234375H203.890380859375ZM221.517822265625 -16.29052734375Q220.578369140625 -16.29052734375 220.032470703125 -15.557373046875Q219.486572265625 -14.82421875 219.486572265625 -13.54833984375Q219.486572265625 -12.2724609375 220.029296875 -11.539306640625Q220.572021484375 -10.80615234375 221.517822265625 -10.80615234375Q222.450927734375 -10.80615234375 222.996826171875 -11.54248046875Q223.542724609375 -12.27880859375 223.542724609375 -13.54833984375Q223.542724609375 -14.8115234375 222.996826171875 -15.551025390625Q222.450927734375 -16.29052734375 221.517822265625 -16.29052734375ZM221.517822265625 -17.28076171875Q223.041259765625 -17.28076171875 223.910888671875 -16.29052734375Q224.780517578125 -15.30029296875 224.780517578125 -13.54833984375Q224.780517578125 -11.802734375 223.910888671875 -10.809326171875Q223.041259765625 -9.81591796875 221.517822265625 -9.81591796875Q219.988037109375 -9.81591796875 219.12158203125 -10.809326171875Q218.255126953125 -11.802734375 218.255126953125 -13.54833984375Q218.255126953125 -15.30029296875 219.12158203125 -16.29052734375Q219.988037109375 -17.28076171875 221.517822265625 -17.28076171875ZM232.626220703125 -14.291015625V-10.0H231.458251953125V-14.2529296875Q231.458251953125 -15.26220703125 231.064697265625 -15.763671875Q230.671142578125 -16.26513671875 229.884033203125 -16.26513671875Q228.938232421875 -16.26513671875 228.392333984375 -15.662109375Q227.846435546875 -15.05908203125 227.846435546875 -14.01806640625V-10.0H226.672119140625V-17.109375H227.846435546875V-16.0048828125Q228.265380859375 -16.64599609375 228.83349609375 -16.96337890625Q229.401611328125 -17.28076171875 230.144287109375 -17.28076171875Q231.369384765625 -17.28076171875 231.997802734375 -16.522216796875Q232.626220703125 -15.763671875 232.626220703125 -14.291015625ZM242.687255859375 -19.876953125V-18.90576171875H241.570068359375Q240.941650390625 -18.90576171875 240.697265625 -18.65185546875Q240.452880859375 -18.39794921875 240.452880859375 -17.73779296875V-17.109375H242.376220703125V-16.20166015625H240.452880859375V-10.0H239.278564453125V-16.20166015625H238.161376953125V-17.109375H239.278564453125V-17.6044921875Q239.278564453125 -18.79150390625 239.830810546875 -19.334228515625Q240.383056640625 -19.876953125 241.582763671875 -19.876953125ZM243.664794921875 -17.109375H244.832763671875V-10.0H243.664794921875ZM243.664794921875 -19.876953125H244.832763671875V-18.39794921875H243.664794921875ZM247.276611328125 -19.876953125H248.444580078125V-10.0H247.276611328125ZM250.888427734375 -19.876953125H252.056396484375V-10.0H250.888427734375ZM259.902099609375 -7.841796875V-6.93408203125H253.148193359375V-7.841796875ZM266.103759765625 -13.54833984375Q266.103759765625 -14.8369140625 265.57373046875 -15.570068359375Q265.043701171875 -16.30322265625 264.116943359375 -16.30322265625Q263.190185546875 -16.30322265625 262.66015625 -15.570068359375Q262.130126953125 -14.8369140625 262.130126953125 -13.54833984375Q262.130126953125 -12.259765625 262.66015625 -11.526611328125Q263.190185546875 -10.79345703125 264.116943359375 -10.79345703125Q265.043701171875 -10.79345703125 265.57373046875 -11.526611328125Q266.103759765625 -12.259765625 266.103759765625 -13.54833984375ZM262.130126953125 -16.0302734375Q262.498291015625 -16.6650390625 263.06005859375 -16.972900390625Q263.621826171875 -17.28076171875 264.402587890625 -17.28076171875Q265.697509765625 -17.28076171875 266.5068359375 -16.25244140625Q267.316162109375 -15.22412109375 267.316162109375 -13.54833984375Q267.316162109375 -11.87255859375 266.5068359375 -10.84423828125Q265.697509765625 -9.81591796875 264.402587890625 -9.81591796875Q263.621826171875 -9.81591796875 263.06005859375 -10.123779296875Q262.498291015625 -10.431640625 262.130126953125 -11.06640625V-10.0H260.955810546875V-19.876953125H262.130126953125ZM275.333251953125 -13.8466796875V-13.275390625H269.963134765625Q270.039306640625 -12.0693359375 270.68994140625 -11.437744140625Q271.340576171875 -10.80615234375 272.502197265625 -10.80615234375Q273.175048828125 -10.80615234375 273.806640625 -10.97119140625Q274.438232421875 -11.13623046875 275.060302734375 -11.46630859375V-10.36181640625Q274.431884765625 -10.09521484375 273.771728515625 -9.95556640625Q273.111572265625 -9.81591796875 272.432373046875 -9.81591796875Q270.731201171875 -9.81591796875 269.73779296875 -10.80615234375Q268.744384765625 -11.79638671875 268.744384765625 -13.48486328125Q268.744384765625 -15.23046875 269.68701171875 -16.255615234375Q270.629638671875 -17.28076171875 272.229248046875 -17.28076171875Q273.663818359375 -17.28076171875 274.49853515625 -16.357177734375Q275.333251953125 -15.43359375 275.333251953125 -13.8466796875ZM274.165283203125 -14.189453125Q274.152587890625 -15.14794921875 273.62890625 -15.71923828125Q273.105224609375 -16.29052734375 272.241943359375 -16.29052734375Q271.264404296875 -16.29052734375 270.67724609375 -15.73828125Q270.090087890625 -15.18603515625 270.001220703125 -14.18310546875ZM278.405517578125 -19.1279296875V-17.109375H280.811279296875V-16.20166015625H278.405517578125V-12.34228515625Q278.405517578125 -11.47265625 278.6435546875 -11.22509765625Q278.881591796875 -10.9775390625 279.611572265625 -10.9775390625H280.811279296875V-10.0H279.611572265625Q278.259521484375 -10.0 277.745361328125 -10.504638671875Q277.231201171875 -11.00927734375 277.231201171875 -12.34228515625V-16.20166015625H276.374267578125V-17.109375H277.231201171875V-19.1279296875ZM281.668212890625 -17.109375H282.836181640625L284.296142578125 -11.5615234375L285.749755859375 -17.109375H287.127197265625L288.587158203125 -11.5615234375L290.040771484375 -17.109375H291.208740234375L289.348876953125 -10.0H287.971435546875L286.441650390625 -15.8271484375L284.905517578125 -10.0H283.528076171875ZM299.060791015625 -13.8466796875V-13.275390625H293.690673828125Q293.766845703125 -12.0693359375 294.41748046875 -11.437744140625Q295.068115234375 -10.80615234375 296.229736328125 -10.80615234375Q296.902587890625 -10.80615234375 297.5341796875 -10.97119140625Q298.165771484375 -11.13623046875 298.787841796875 -11.46630859375V-10.36181640625Q298.159423828125 -10.09521484375 297.499267578125 -9.95556640625Q296.839111328125 -9.81591796875 296.159912109375 -9.81591796875Q294.458740234375 -9.81591796875 293.46533203125 -10.80615234375Q292.471923828125 -11.79638671875 292.471923828125 -13.48486328125Q292.471923828125 -15.23046875 293.41455078125 -16.255615234375Q294.357177734375 -17.28076171875 295.956787109375 -17.28076171875Q297.391357421875 -17.28076171875 298.22607421875 -16.357177734375Q299.060791015625 -15.43359375 299.060791015625 -13.8466796875ZM297.892822265625 -14.189453125Q297.880126953125 -15.14794921875 297.3564453125 -15.71923828125Q296.832763671875 -16.29052734375 295.969482421875 -16.29052734375Q294.991943359375 -16.29052734375 294.40478515625 -15.73828125Q293.817626953125 -15.18603515625 293.728759765625 -14.18310546875ZM307.058837890625 -13.8466796875V-13.275390625H301.688720703125Q301.764892578125 -12.0693359375 302.41552734375 -11.437744140625Q303.066162109375 -10.80615234375 304.227783203125 -10.80615234375Q304.900634765625 -10.80615234375 305.5322265625 -10.97119140625Q306.163818359375 -11.13623046875 306.785888671875 -11.46630859375V-10.36181640625Q306.157470703125 -10.09521484375 305.497314453125 -9.95556640625Q304.837158203125 -9.81591796875 304.157958984375 -9.81591796875Q302.456787109375 -9.81591796875 301.46337890625 -10.80615234375Q300.469970703125 -11.79638671875 300.469970703125 -13.48486328125Q300.469970703125 -15.23046875 301.41259765625 -16.255615234375Q302.355224609375 -17.28076171875 303.954833984375 -17.28076171875Q305.389404296875 -17.28076171875 306.22412109375 -16.357177734375Q307.058837890625 -15.43359375 307.058837890625 -13.8466796875ZM305.890869140625 -14.189453125Q305.878173828125 -15.14794921875 305.3544921875 -15.71923828125Q304.830810546875 -16.29052734375 303.967529296875 -16.29052734375Q302.989990234375 -16.29052734375 302.40283203125 -15.73828125Q301.815673828125 -15.18603515625 301.726806640625 -14.18310546875ZM314.885498046875 -14.291015625V-10.0H313.717529296875V-14.2529296875Q313.717529296875 -15.26220703125 313.323974609375 -15.763671875Q312.930419921875 -16.26513671875 312.143310546875 -16.26513671875Q311.197509765625 -16.26513671875 310.651611328125 -15.662109375Q310.105712890625 -15.05908203125 310.105712890625 -14.01806640625V-10.0H308.931396484375V-17.109375H310.105712890625V-16.0048828125Q310.524658203125 -16.64599609375 311.0927734375 -16.96337890625Q311.660888671875 -17.28076171875 312.403564453125 -17.28076171875Q313.628662109375 -17.28076171875 314.257080078125 -16.522216796875Q314.885498046875 -15.763671875 314.885498046875 -14.291015625ZM323.423095703125 -19.47705078125H324.502197265625L321.201416015625 -8.7939453125H320.122314453125ZM333.090576171875 -13.57373046875Q331.675048828125 -13.57373046875 331.129150390625 -13.25Q330.583251953125 -12.92626953125 330.583251953125 -12.1455078125Q330.583251953125 -11.5234375 330.99267578125 -11.158447265625Q331.402099609375 -10.79345703125 332.106689453125 -10.79345703125Q333.077880859375 -10.79345703125 333.6650390625 -11.482177734375Q334.252197265625 -12.1708984375 334.252197265625 -13.3134765625V-13.57373046875ZM335.420166015625 -14.05615234375V-10.0H334.252197265625V-11.0791015625Q333.852294921875 -10.431640625 333.255615234375 -10.123779296875Q332.658935546875 -9.81591796875 331.795654296875 -9.81591796875Q330.703857421875 -9.81591796875 330.0595703125 -10.428466796875Q329.415283203125 -11.041015625 329.415283203125 -12.0693359375Q329.415283203125 -13.26904296875 330.21826171875 -13.87841796875Q331.021240234375 -14.48779296875 332.614501953125 -14.48779296875H334.252197265625V-14.60205078125Q334.252197265625 -15.408203125 333.72216796875 -15.849365234375Q333.192138671875 -16.29052734375 332.233642578125 -16.29052734375Q331.624267578125 -16.29052734375 331.046630859375 -16.14453125Q330.468994140625 -15.99853515625 329.935791015625 -15.70654296875V-16.78564453125Q330.576904296875 -17.033203125 331.179931640625 -17.156982421875Q331.782958984375 -17.28076171875 332.354248046875 -17.28076171875Q333.896728515625 -17.28076171875 334.658447265625 -16.48095703125Q335.420166015625 -15.68115234375 335.420166015625 -14.05615234375ZM341.945556640625 -16.017578125Q341.748779296875 -16.1318359375 341.51708984375 -16.185791015625Q341.285400390625 -16.23974609375 341.006103515625 -16.23974609375Q340.015869140625 -16.23974609375 339.48583984375 -15.595458984375Q338.955810546875 -14.951171875 338.955810546875 -13.7451171875V-10.0H337.781494140625V-17.109375H338.955810546875V-16.0048828125Q339.323974609375 -16.65234375 339.914306640625 -16.966552734375Q340.504638671875 -17.28076171875 341.348876953125 -17.28076171875Q341.469482421875 -17.28076171875 341.615478515625 -17.264892578125Q341.761474609375 -17.2490234375 341.939208984375 -17.21728515625ZM349.251708984375 -13.8466796875V-13.275390625H343.881591796875Q343.957763671875 -12.0693359375 344.6083984375 -11.437744140625Q345.259033203125 -10.80615234375 346.420654296875 -10.80615234375Q347.093505859375 -10.80615234375 347.72509765625 -10.97119140625Q348.356689453125 -11.13623046875 348.978759765625 -11.46630859375V-10.36181640625Q348.350341796875 -10.09521484375 347.690185546875 -9.95556640625Q347.030029296875 -9.81591796875 346.350830078125 -9.81591796875Q344.649658203125 -9.81591796875 343.65625 -10.80615234375Q342.662841796875 -11.79638671875 342.662841796875 -13.48486328125Q342.662841796875 -15.23046875 343.60546875 -16.255615234375Q344.548095703125 -17.28076171875 346.147705078125 -17.28076171875Q347.582275390625 -17.28076171875 348.4169921875 -16.357177734375Q349.251708984375 -15.43359375 349.251708984375 -13.8466796875ZM348.083740234375 -14.189453125Q348.071044921875 -15.14794921875 347.54736328125 -15.71923828125Q347.023681640625 -16.29052734375 346.160400390625 -16.29052734375Q345.182861328125 -16.29052734375 344.595703125 -15.73828125Q344.008544921875 -15.18603515625 343.919677734375 -14.18310546875ZM354.399658203125 -13.57373046875Q352.984130859375 -13.57373046875 352.438232421875 -13.25Q351.892333984375 -12.92626953125 351.892333984375 -12.1455078125Q351.892333984375 -11.5234375 352.3017578125 -11.158447265625Q352.711181640625 -10.79345703125 353.415771484375 -10.79345703125Q354.386962890625 -10.79345703125 354.97412109375 -11.482177734375Q355.561279296875 -12.1708984375 355.561279296875 -13.3134765625V-13.57373046875ZM356.729248046875 -14.05615234375V-10.0H355.561279296875V-11.0791015625Q355.161376953125 -10.431640625 354.564697265625 -10.123779296875Q353.968017578125 -9.81591796875 353.104736328125 -9.81591796875Q352.012939453125 -9.81591796875 351.36865234375 -10.428466796875Q350.724365234375 -11.041015625 350.724365234375 -12.0693359375Q350.724365234375 -13.26904296875 351.52734375 -13.87841796875Q352.330322265625 -14.48779296875 353.923583984375 -14.48779296875H355.561279296875V-14.60205078125Q355.561279296875 -15.408203125 355.03125 -15.849365234375Q354.501220703125 -16.29052734375 353.542724609375 -16.29052734375Q352.933349609375 -16.29052734375 352.355712890625 -16.14453125Q351.778076171875 -15.99853515625 351.244873046875 -15.70654296875V-16.78564453125Q351.885986328125 -17.033203125 352.489013671875 -17.156982421875Q353.092041015625 -17.28076171875 353.663330078125 -17.28076171875Q355.205810546875 -17.28076171875 355.967529296875 -16.48095703125Q356.729248046875 -15.68115234375 356.729248046875 -14.05615234375Z" fill="#000"/><g transform="translate(419.03,6)"><rect x="0" y="0" width="98.97" height="44" fill="#ffffff" stroke="#000000" stroke-width="0.8" opacity="0.92"/><line x1="8" x2="30" y1="14.0" y2="14.0" stroke="#1f77b4" stroke-width="1.5"/><path d="M40.87158203125 12.16162109375V13.09619140625Q40.45263671875 12.88134765625 40.00146484375 12.77392578125Q39.55029296875 12.66650390625 39.06689453125 12.66650390625Q38.3310546875 12.66650390625 37.963134765625 12.89208984375Q37.59521484375 13.11767578125 37.59521484375 13.56884765625Q37.59521484375 13.91259765625 37.8583984375 14.108642578125Q38.12158203125 14.3046875 38.91650390625 14.48193359375L39.2548828125 14.55712890625Q40.3076171875 14.78271484375 40.750732421875 15.193603515625Q41.19384765625 15.6044921875 41.19384765625 16.34033203125Q41.19384765625 17.17822265625 40.530517578125 17.6669921875Q39.8671875 18.15576171875 38.70703125 18.15576171875Q38.2236328125 18.15576171875 37.699951171875 18.061767578125Q37.17626953125 17.9677734375 36.59619140625 17.77978515625V16.75927734375Q37.14404296875 17.0439453125 37.67578125 17.186279296875Q38.20751953125 17.32861328125 38.728515625 17.32861328125Q39.4267578125 17.32861328125 39.802734375 17.089599609375Q40.1787109375 16.8505859375 40.1787109375 16.41552734375Q40.1787109375 16.0126953125 39.907470703125 15.7978515625Q39.63623046875 15.5830078125 38.7177734375 15.38427734375L38.3740234375 15.3037109375Q37.45556640625 15.1103515625 37.04736328125 14.710205078125Q36.63916015625 14.31005859375 36.63916015625 13.61181640625Q36.63916015625 12.76318359375 37.24072265625 12.30126953125Q37.84228515625 11.83935546875 38.94873046875 11.83935546875Q39.49658203125 11.83935546875 39.97998046875 11.919921875Q40.46337890625 12.00048828125 40.87158203125 12.16162109375ZM43.7451171875 10.2763671875V11.984375H45.78076171875V12.75244140625H43.7451171875V16.01806640625Q43.7451171875 16.75390625 43.946533203125 16.96337890625Q44.14794921875 17.1728515625 44.765625 17.1728515625H45.78076171875V18.0H44.765625Q43.62158203125 18.0 43.1865234375 17.572998046875Q42.75146484375 17.14599609375 42.75146484375 16.01806640625V12.75244140625H42.0263671875V11.984375H42.75146484375V10.2763671875ZM52.22607421875 14.7451171875V15.228515625H47.68212890625Q47.74658203125 16.2490234375 48.297119140625 16.783447265625Q48.84765625 17.31787109375 49.83056640625 17.31787109375Q50.39990234375 17.31787109375 50.934326171875 17.17822265625Q51.46875 17.03857421875 51.9951171875 16.75927734375V17.69384765625Q51.46337890625 17.91943359375 50.90478515625 18.03759765625Q50.34619140625 18.15576171875 49.771484375 18.15576171875Q48.33203125 18.15576171875 47.491455078125 17.31787109375Q46.65087890625 16.47998046875 46.65087890625 15.05126953125Q46.65087890625 13.57421875 47.448486328125 12.706787109375Q48.24609375 11.83935546875 49.599609375 11.83935546875Q50.8134765625 11.83935546875 51.519775390625 12.620849609375Q52.22607421875 13.40234375 52.22607421875 14.7451171875ZM51.23779296875 14.455078125Q51.22705078125 13.64404296875 50.783935546875 13.16064453125Q50.3408203125 12.67724609375 49.6103515625 12.67724609375Q48.783203125 12.67724609375 48.286376953125 13.14453125Q47.78955078125 13.61181640625 47.71435546875 14.46044921875ZM54.80419921875 17.09765625V20.2880859375H53.810546875V11.984375H54.80419921875V12.8974609375Q55.11572265625 12.3603515625 55.591064453125 12.099853515625Q56.06640625 11.83935546875 56.72705078125 11.83935546875Q57.82275390625 11.83935546875 58.507568359375 12.70947265625Q59.1923828125 13.57958984375 59.1923828125 14.99755859375Q59.1923828125 16.41552734375 58.507568359375 17.28564453125Q57.82275390625 18.15576171875 56.72705078125 18.15576171875Q56.06640625 18.15576171875 55.591064453125 17.895263671875Q55.11572265625 17.634765625 54.80419921875 17.09765625ZM58.16650390625 14.99755859375Q58.16650390625 13.9072265625 57.718017578125 13.286865234375Q57.26953125 12.66650390625 56.4853515625 12.66650390625Q55.701171875 12.66650390625 55.252685546875 13.286865234375Q54.80419921875 13.9072265625 54.80419921875 14.99755859375Q54.80419921875 16.087890625 55.252685546875 16.708251953125Q55.701171875 17.32861328125 56.4853515625 17.32861328125Q57.26953125 17.32861328125 57.718017578125 16.708251953125Q58.16650390625 16.087890625 58.16650390625 14.99755859375ZM68.6455078125 14.99755859375Q68.6455078125 13.9072265625 68.197021484375 13.286865234375Q67.74853515625 12.66650390625 66.96435546875 12.66650390625Q66.18017578125 12.66650390625 65.731689453125 13.286865234375Q65.283203125 13.9072265625 65.283203125 14.99755859375Q65.283203125 16.087890625 65.731689453125 16.708251953125Q66.18017578125 17.32861328125 66.96435546875 17.32861328125Q67.74853515625 17.32861328125 68.197021484375 16.708251953125Q68.6455078125 16.087890625 68.6455078125 14.99755859375ZM65.283203125 12.8974609375Q65.5947265625 12.3603515625 66.070068359375 12.099853515625Q66.54541015625 11.83935546875 67.2060546875 11.83935546875Q68.3017578125 11.83935546875 68.986572265625 12.70947265625Q69.67138671875 13.57958984375 69.67138671875 14.99755859375Q69.67138671875 16.41552734375 68.986572265625 17.28564453125Q68.3017578125 18.15576171875 67.2060546875 18.15576171875Q66.54541015625 18.15576171875 66.070068359375 17.895263671875Q65.5947265625 17.634765625 65.283203125 17.09765625V18.0H64.28955078125V9.642578125H65.283203125ZM74.04345703125 14.97607421875Q72.845703125 14.97607421875 72.3837890625 15.25Q71.921875 15.52392578125 71.921875 16.1845703125Q71.921875 16.7109375 72.268310546875 17.019775390625Q72.61474609375 17.32861328125 73.2109375 17.32861328125Q74.03271484375 17.32861328125 74.529541015625 16.745849609375Q75.0263671875 16.1630859375 75.0263671875 15.1962890625V14.97607421875ZM76.0146484375 14.56787109375V18.0H75.0263671875V17.0869140625Q74.68798828125 17.634765625 74.18310546875 17.895263671875Q73.67822265625 18.15576171875 72.94775390625 18.15576171875Q72.02392578125 18.15576171875 71.478759765625 17.637451171875Q70.93359375 17.119140625 70.93359375 16.2490234375Q70.93359375 15.23388671875 71.613037109375 14.71826171875Q72.29248046875 14.20263671875 73.640625 14.20263671875H75.0263671875V14.10595703125Q75.0263671875 13.423828125 74.577880859375 13.050537109375Q74.12939453125 12.67724609375 73.318359375 12.67724609375Q72.802734375 12.67724609375 72.31396484375 12.80078125Q71.8251953125 12.92431640625 71.3740234375 13.17138671875V12.25830078125Q71.91650390625 12.048828125 72.4267578125 11.944091796875Q72.93701171875 11.83935546875 73.42041015625 11.83935546875Q74.7255859375 11.83935546875 75.3701171875 12.51611328125Q76.0146484375 13.19287109375 76.0146484375 14.56787109375ZM83.05078125 14.369140625V18.0H82.0625V14.4013671875Q82.0625 13.54736328125 81.7294921875 13.123046875Q81.396484375 12.69873046875 80.73046875 12.69873046875Q79.93017578125 12.69873046875 79.46826171875 13.208984375Q79.00634765625 13.71923828125 79.00634765625 14.60009765625V18.0H78.0126953125V11.984375H79.00634765625V12.9189453125Q79.36083984375 12.37646484375 79.841552734375 12.10791015625Q80.322265625 11.83935546875 80.95068359375 11.83935546875Q81.9873046875 11.83935546875 82.51904296875 12.481201171875Q83.05078125 13.123046875 83.05078125 14.369140625ZM88.98046875 12.8974609375V9.642578125H89.96875V18.0H88.98046875V17.09765625Q88.6689453125 17.634765625 88.193603515625 17.895263671875Q87.71826171875 18.15576171875 87.05224609375 18.15576171875Q85.9619140625 18.15576171875 85.277099609375 17.28564453125Q84.59228515625 16.41552734375 84.59228515625 14.99755859375Q84.59228515625 13.57958984375 85.277099609375 12.70947265625Q85.9619140625 11.83935546875 87.05224609375 11.83935546875Q87.71826171875 11.83935546875 88.193603515625 12.099853515625Q88.6689453125 12.3603515625 88.98046875 12.8974609375ZM85.61279296875 14.99755859375Q85.61279296875 16.087890625 86.061279296875 16.708251953125Q86.509765625 17.32861328125 87.2939453125 17.32861328125Q88.078125 17.32861328125 88.529296875 16.708251953125Q88.98046875 16.087890625 88.98046875 14.99755859375Q88.98046875 13.9072265625 88.529296875 13.286865234375Q88.078125 12.66650390625 87.2939453125 12.66650390625Q86.509765625 12.66650390625 86.061279296875 13.286865234375Q85.61279296875 13.9072265625 85.61279296875 14.99755859375Z" fill="#000"/><rect x="8" y="25.0" width="22" height="10" fill="#ff7f0e" opacity="0.5"/><path d="M40.87158203125 28.16162109375V29.09619140625Q40.45263671875 28.88134765625 40.00146484375 28.77392578125Q39.55029296875 28.66650390625 39.06689453125 28.66650390625Q38.3310546875 28.66650390625 37.963134765625 28.89208984375Q37.59521484375 29.11767578125 37.59521484375 29.56884765625Q37.59521484375 29.91259765625 37.8583984375 30.108642578125Q38.12158203125 30.3046875 38.91650390625 30.48193359375L39.2548828125 30.55712890625Q40.3076171875 30.78271484375 40.750732421875 31.193603515625Q41.19384765625 31.6044921875 41.19384765625 32.34033203125Q41.19384765625 33.17822265625 40.530517578125 33.6669921875Q39.8671875 34.15576171875 38.70703125 34.15576171875Q38.2236328125 34.15576171875 37.699951171875 34.061767578125Q37.17626953125 33.9677734375 36.59619140625 33.77978515625V32.75927734375Q37.14404296875 33.0439453125 37.67578125 33.186279296875Q38.20751953125 33.32861328125 38.728515625 33.32861328125Q39.4267578125 33.32861328125 39.802734375 33.089599609375Q40.1787109375 32.8505859375 40.1787109375 32.41552734375Q40.1787109375 32.0126953125 39.907470703125 31.7978515625Q39.63623046875 31.5830078125 38.7177734375 31.38427734375L38.3740234375 31.3037109375Q37.45556640625 31.1103515625 37.04736328125 30.710205078125Q36.63916015625 30.31005859375 36.63916015625 29.61181640625Q36.63916015625 28.76318359375 37.24072265625 28.30126953125Q37.84228515625 27.83935546875 38.94873046875 27.83935546875Q39.49658203125 27.83935546875 39.97998046875 27.919921875Q40.46337890625 28.00048828125 40.87158203125 28.16162109375ZM43.7451171875 26.2763671875V27.984375H45.78076171875V28.75244140625H43.7451171875V32.01806640625Q43.7451171875 32.75390625 43.946533203125 32.96337890625Q44.14794921875 33.1728515625 44.765625 33.1728515625H45.78076171875V34.0H44.765625Q43.62158203125 34.0 43.1865234375 33.572998046875Q42.75146484375 33.14599609375 42.75146484375 32.01806640625V28.75244140625H42.0263671875V27.984375H42.75146484375V26.2763671875ZM52.22607421875 30.7451171875V31.228515625H47.68212890625Q47.74658203125 32.2490234375 48.297119140625 32.783447265625Q48.84765625 33.31787109375 49.83056640625 33.31787109375Q50.39990234375 33.31787109375 50.934326171875 33.17822265625Q51.46875 33.03857421875 51.9951171875 32.75927734375V33.69384765625Q51.46337890625 33.91943359375 50.90478515625 34.03759765625Q50.34619140625 34.15576171875 49.771484375 34.15576171875Q48.33203125 34.15576171875 47.491455078125 33.31787109375Q46.65087890625 32.47998046875 46.65087890625 31.05126953125Q46.65087890625 29.57421875 47.448486328125 28.706787109375Q48.24609375 27.83935546875 49.599609375 27.83935546875Q50.8134765625 27.83935546875 51.519775390625 28.620849609375Q52.22607421875 29.40234375 52.22607421875 30.7451171875ZM51.23779296875 30.455078125Q51.22705078125 29.64404296875 50.783935546875 29.16064453125Q50.3408203125 28.67724609375 49.6103515625 28.67724609375Q48.783203125 28.67724609375 48.286376953125 29.14453125Q47.78955078125 29.61181640625 47.71435546875 30.46044921875ZM54.80419921875 33.09765625V36.2880859375H53.810546875V27.984375H54.80419921875V28.8974609375Q55.11572265625 28.3603515625 55.591064453125 28.099853515625Q56.06640625 27.83935546875 56.72705078125 27.83935546875Q57.82275390625 27.83935546875 58.507568359375 28.70947265625Q59.1923828125 29.57958984375 59.1923828125 30.99755859375Q59.1923828125 32.41552734375 58.507568359375 33.28564453125Q57.82275390625 34.15576171875 56.72705078125 34.15576171875Q56.06640625 34.15576171875 55.591064453125 33.895263671875Q55.11572265625 33.634765625 54.80419921875 33.09765625ZM58.16650390625 30.99755859375Q58.16650390625 29.9072265625 57.718017578125 29.286865234375Q57.26953125 28.66650390625 56.4853515625 28.66650390625Q55.701171875 28.66650390625 55.252685546875 29.286865234375Q54.80419921875 29.9072265625 54.80419921875 30.99755859375Q54.80419921875 32.087890625 55.252685546875 32.708251953125Q55.701171875 33.32861328125 56.4853515625 33.32861328125Q57.26953125 33.32861328125 57.718017578125 32.708251953125Q58.16650390625 32.087890625 58.16650390625 30.99755859375ZM67.06103515625 30.97607421875Q65.86328125 30.97607421875 65.4013671875 31.25Q64.939453125 31.52392578125 64.939453125 32.1845703125Q64.939453125 32.7109375 65.285888671875 33.019775390625Q65.63232421875 33.32861328125 66.228515625 33.32861328125Q67.05029296875 33.32861328125 67.547119140625 32.745849609375Q68.0439453125 32.1630859375 68.0439453125 31.1962890625V30.97607421875ZM69.0322265625 30.56787109375V34.0H68.0439453125V33.0869140625Q67.70556640625 33.634765625 67.20068359375 33.895263671875Q66.69580078125 34.15576171875 65.96533203125 34.15576171875Q65.04150390625 34.15576171875 64.496337890625 33.637451171875Q63.951171875 33.119140625 63.951171875 32.2490234375Q63.951171875 31.23388671875 64.630615234375 30.71826171875Q65.31005859375 30.20263671875 66.658203125 30.20263671875H68.0439453125V30.10595703125Q68.0439453125 29.423828125 67.595458984375 29.050537109375Q67.14697265625 28.67724609375 66.3359375 28.67724609375Q65.8203125 28.67724609375 65.33154296875 28.80078125Q64.8427734375 28.92431640625 64.3916015625 29.17138671875V28.25830078125Q64.93408203125 28.048828125 65.4443359375 27.944091796875Q65.95458984375 27.83935546875 66.43798828125 27.83935546875Q67.7431640625 27.83935546875 68.3876953125 28.51611328125Q69.0322265625 29.19287109375 69.0322265625 30.56787109375ZM74.5537109375 28.908203125Q74.38720703125 28.8115234375 74.191162109375 28.765869140625Q73.9951171875 28.72021484375 73.7587890625 28.72021484375Q72.9208984375 28.72021484375 72.472412109375 29.265380859375Q72.02392578125 29.810546875 72.02392578125 30.8310546875V34.0H71.0302734375V27.984375H72.02392578125V28.9189453125Q72.33544921875 28.37109375 72.8349609375 28.105224609375Q73.33447265625 27.83935546875 74.048828125 27.83935546875Q74.15087890625 27.83935546875 74.2744140625 27.852783203125Q74.39794921875 27.8662109375 74.54833984375 27.89306640625ZM80.73583984375 30.7451171875V31.228515625H76.19189453125Q76.25634765625 32.2490234375 76.806884765625 32.783447265625Q77.357421875 33.31787109375 78.34033203125 33.31787109375Q78.90966796875 33.31787109375 79.444091796875 33.17822265625Q79.978515625 33.03857421875 80.5048828125 32.75927734375V33.69384765625Q79.97314453125 33.91943359375 79.41455078125 34.03759765625Q78.85595703125 34.15576171875 78.28125 34.15576171875Q76.841796875 34.15576171875 76.001220703125 33.31787109375Q75.16064453125 32.47998046875 75.16064453125 31.05126953125Q75.16064453125 29.57421875 75.958251953125 28.706787109375Q76.755859375 27.83935546875 78.109375 27.83935546875Q79.3232421875 27.83935546875 80.029541015625 28.620849609375Q80.73583984375 29.40234375 80.73583984375 30.7451171875ZM79.74755859375 30.455078125Q79.73681640625 29.64404296875 79.293701171875 29.16064453125Q78.8505859375 28.67724609375 78.1201171875 28.67724609375Q77.29296875 28.67724609375 76.796142578125 29.14453125Q76.29931640625 29.61181640625 76.22412109375 30.46044921875ZM85.091796875 30.97607421875Q83.89404296875 30.97607421875 83.43212890625 31.25Q82.97021484375 31.52392578125 82.97021484375 32.1845703125Q82.97021484375 32.7109375 83.316650390625 33.019775390625Q83.6630859375 33.32861328125 84.25927734375 33.32861328125Q85.0810546875 33.32861328125 85.577880859375 32.745849609375Q86.07470703125 32.1630859375 86.07470703125 31.1962890625V30.97607421875ZM87.06298828125 30.56787109375V34.0H86.07470703125V33.0869140625Q85.736328125 33.634765625 85.2314453125 33.895263671875Q84.7265625 34.15576171875 83.99609375 34.15576171875Q83.072265625 34.15576171875 82.527099609375 33.637451171875Q81.98193359375 33.119140625 81.98193359375 32.2490234375Q81.98193359375 31.23388671875 82.661376953125 30.71826171875Q83.3408203125 30.20263671875 84.68896484375 30.20263671875H86.07470703125V30.10595703125Q86.07470703125 29.423828125 85.626220703125 29.050537109375Q85.177734375 28.67724609375 84.36669921875 28.67724609375Q83.85107421875 28.67724609375 83.3623046875 28.80078125Q82.87353515625 28.92431640625 82.42236328125 29.17138671875V28.25830078125Q82.96484375 28.048828125 83.47509765625 27.944091796875Q83.9853515625 27.83935546875 84.46875 27.83935546875Q85.77392578125 27.83935546875 86.41845703125 28.51611328125Q87.06298828125 29.19287109375 87.06298828125 30.56787109375Z" fill="#000"/></g></g></svg>