<svg xmlns="http://www.w3.org/2000/svg" width="642" height="401" viewBox="0 0 642 401" font-family="DejaVu Sans, Bitstream Vera Sans, Verdana, Arial, sans-serif" font-size="11" style="background:#fff" data-plotlet-version="0.5.0" data-plotlet-schema="2" data-plotlet-kind="figure"><g transform="translate(47,33)" data-plotlet-kind="panel" data-plotlet-title="heatmap (labeled rows/cols)" data-plotlet-xlabel="condition" data-plotlet-ylabel="sample" data-plotlet-xscale="category" data-plotlet-yscale="category" data-plotlet-panel-bbox="0,0,642,401" data-plotlet-data-area="47,33,524,322"><metadata data-plotlet-payload="xcategories"><![CDATA[["c0","c1","c2","c3","c4","c5","c6","c7"]]]></metadata><metadata data-plotlet-payload="ycategories"><![CDATA[["r0","r1","r2","r3","r4","r5"]]]></metadata><svg x="0" y="0" width="524" height="322" overflow="hidden"><g class="plotlet-artist" data-plotlet-type="heatmap" data-plotlet-index="0" data-plotlet-rows="6" data-plotlet-cols="8" data-plotlet-vmin="-0.9175809942" data-plotlet-vmax="0.9738476309" data-plotlet-cmap="viridis" data-plotlet-data-encoding="rects"><rect x="0.00" y="0.00" width="65.50" height="53.67" fill="rgb(34,141,141)"/><rect x="65.50" y="0.00" width="65.50" height="53.67" fill="rgb(34,141,141)"/><rect x="131.00" y="0.00" width="65.50" height="53.67" fill="rgb(34,141,141)"/><rect x="196.50" y="0.00" width="65.50" height="53.67" fill="rgb(34,141,141)"/><rect x="262.00" y="0.00" width="65.50" height="53.67" fill="rgb(34,141,141)"/><rect x="327.50" y="0.00" width="65.50" height="53.67" fill="rgb(34,141,141)"/><rect x="393.00" y="0.00" width="65.50" height="53.67" fill="rgb(34,141,141)"/><rect x="458.50" y="0.00" width="65.50" height="53.67" fill="rgb(34,141,141)"/><rect x="0.00" y="53.67" width="65.50" height="53.67" fill="rgb(112,207,87)"/><rect x="65.50" y="53.67" width="65.50" height="53.67" fill="rgb(99,203,95)"/><rect x="131.00" y="53.67" width="65.50" height="53.67" fill="rgb(64,189,114)"/><rect x="196.50" y="53.67" width="65.50" height="53.67" fill="rgb(33,166,133)"/><rect x="262.00" y="53.67" width="65.50" height="53.67" fill="rgb(35,138,141)"/><rect x="327.50" y="53.67" width="65.50" height="53.67" fill="rgb(46,111,142)"/><rect x="393.00" y="53.67" width="65.50" height="53.67" fill="rgb(57,86,140)"/><rect x="458.50" y="53.67" width="65.50" height="53.67" fill="rgb(64,69,136)"/><rect x="0.00" y="107.33" width="65.50" height="53.67" fill="rgb(239,229,28)"/><rect x="65.50" y="107.33" width="65.50" height="53.67" fill="rgb(213,226,26)"/><rect x="131.00" y="107.33" width="65.50" height="53.67" fill="rgb(139,214,70)"/><rect x="196.50" y="107.33" width="65.50" height="53.67" fill="rgb(52,182,121)"/><rect x="262.00" y="107.33" width="65.50" height="53.67" fill="rgb(35,137,142)"/><rect x="327.50" y="107.33" width="65.50" height="53.67" fill="rgb(55,90,140)"/><rect x="393.00" y="107.33" width="65.50" height="53.67" fill="rgb(71,44,122)"/><rect x="458.50" y="107.33" width="65.50" height="53.67" fill="rgb(70,8,92)"/><rect x="0.00" y="161.00" width="65.50" height="53.67" fill="rgb(253,231,37)"/><rect x="65.50" y="161.00" width="65.50" height="53.67" fill="rgb(229,228,25)"/><rect x="131.00" y="161.00" width="65.50" height="53.67" fill="rgb(149,216,64)"/><rect x="196.50" y="161.00" width="65.50" height="53.67" fill="rgb(55,184,120)"/><rect x="262.00" y="161.00" width="65.50" height="53.67" fill="rgb(35,137,142)"/><rect x="327.50" y="161.00" width="65.50" height="53.67" fill="rgb(56,88,140)"/><rect x="393.00" y="161.00" width="65.50" height="53.67" fill="rgb(72,38,119)"/><rect x="458.50" y="161.00" width="65.50" height="53.67" fill="rgb(68,1,84)"/><rect x="0.00" y="214.67" width="65.50" height="53.67" fill="rgb(149,216,64)"/><rect x="65.50" y="214.67" width="65.50" height="53.67" fill="rgb(132,212,75)"/><rect x="131.00" y="214.67" width="65.50" height="53.67" fill="rgb(84,197,104)"/><rect x="196.50" y="214.67" width="65.50" height="53.67" fill="rgb(37,172,130)"/><rect x="262.00" y="214.67" width="65.50" height="53.67" fill="rgb(35,138,141)"/><rect x="327.50" y="214.67" width="65.50" height="53.67" fill="rgb(48,105,142)"/><rect x="393.00" y="214.67" width="65.50" height="53.67" fill="rgb(62,74,137)"/><rect x="458.50" y="214.67" width="65.50" height="53.67" fill="rgb(70,52,128)"/><rect x="0.00" y="268.33" width="65.50" height="53.67" fill="rgb(31,159,136)"/><rect x="65.50" y="268.33" width="65.50" height="53.67" fill="rgb(30,157,137)"/><rect x="131.00" y="268.33" width="65.50" height="53.67" fill="rgb(31,153,138)"/><rect x="196.50" y="268.33" width="65.50" height="53.67" fill="rgb(32,147,140)"/><rect x="262.00" y="268.33" width="65.50" height="53.67" fill="rgb(34,140,141)"/><rect x="327.50" y="268.33" width="65.50" height="53.67" fill="rgb(37,133,142)"/><rect x="393.00" y="268.33" width="65.50" height="53.67" fill="rgb(39,128,142)"/><rect x="458.50" y="268.33" width="65.50" height="53.67" fill="rgb(40,124,142)"/></g></svg><line x1="0.00" x2="524.00" y1="0.00" y2="0.00" stroke="#000000" stroke-width="1.00"/><line x1="0.00" x2="524.00" y1="322.00" y2="322.00" stroke="#000000" stroke-width="1.00"/><line x1="0.00" x2="0.00" y1="0.00" y2="322.00" stroke="#000000" stroke-width="1.00"/><line x1="524.00" x2="524.00" y1="0.00" y2="322.00" stroke="#000000" stroke-width="1.00"/><path d="M31.382080078125 334.140625V335.232421875Q30.886962890625 334.95947265625 30.388671875 334.822998046875Q29.890380859375 334.6865234375 29.382568359375 334.6865234375Q28.246337890625 334.6865234375 27.617919921875 335.406982421875Q26.989501953125 336.12744140625 26.989501953125 337.4287109375Q26.989501953125 338.72998046875 27.617919921875 339.450439453125Q28.246337890625 340.1708984375 29.382568359375 340.1708984375Q29.890380859375 340.1708984375 30.388671875 340.034423828125Q30.886962890625 339.89794921875 31.382080078125 339.625V340.7041015625Q30.893310546875 340.9326171875 30.36962890625 341.046875Q29.845947265625 341.1611328125 29.255615234375 341.1611328125Q27.649658203125 341.1611328125 26.703857421875 340.15185546875Q25.758056640625 339.142578125 25.758056640625 337.4287109375Q25.758056640625 335.689453125 26.71337890625 334.69287109375Q27.668701171875 333.6962890625 29.331787109375 333.6962890625Q29.871337890625 333.6962890625 30.385498046875 333.807373046875Q30.899658203125 333.91845703125 31.382080078125 334.140625ZM36.320556640625 332.34423828125Q35.330322265625 332.34423828125 34.83203125 333.318603515625Q34.333740234375 334.29296875 34.333740234375 336.248046875Q34.333740234375 338.19677734375 34.83203125 339.171142578125Q35.330322265625 340.1455078125 36.320556640625 340.1455078125Q37.317138671875 340.1455078125 37.8154296875 339.171142578125Q38.313720703125 338.19677734375 38.313720703125 336.248046875Q38.313720703125 334.29296875 37.8154296875 333.318603515625Q37.317138671875 332.34423828125 36.320556640625 332.34423828125ZM36.320556640625 331.32861328125Q37.913818359375 331.32861328125 38.7548828125 332.588623046875Q39.595947265625 333.8486328125 39.595947265625 336.248046875Q39.595947265625 338.64111328125 38.7548828125 339.901123046875Q37.913818359375 341.1611328125 36.320556640625 341.1611328125Q34.727294921875 341.1611328125 33.88623046875 339.901123046875Q33.045166015625 338.64111328125 33.045166015625 336.248046875Q33.045166015625 333.8486328125 33.88623046875 332.588623046875Q34.727294921875 331.32861328125 36.320556640625 331.32861328125Z" fill="#000"/><path d="M96.882080078125 334.140625V335.232421875Q96.386962890625 334.95947265625 95.888671875 334.822998046875Q95.390380859375 334.6865234375 94.882568359375 334.6865234375Q93.746337890625 334.6865234375 93.117919921875 335.406982421875Q92.489501953125 336.12744140625 92.489501953125 337.4287109375Q92.489501953125 338.72998046875 93.117919921875 339.450439453125Q93.746337890625 340.1708984375 94.882568359375 340.1708984375Q95.390380859375 340.1708984375 95.888671875 340.034423828125Q96.386962890625 339.89794921875 96.882080078125 339.625V340.7041015625Q96.393310546875 340.9326171875 95.86962890625 341.046875Q95.345947265625 341.1611328125 94.755615234375 341.1611328125Q93.149658203125 341.1611328125 92.203857421875 340.15185546875Q91.258056640625 339.142578125 91.258056640625 337.4287109375Q91.258056640625 335.689453125 92.21337890625 334.69287109375Q93.168701171875 333.6962890625 94.831787109375 333.6962890625Q95.371337890625 333.6962890625 95.885498046875 333.807373046875Q96.399658203125 333.91845703125 96.882080078125 334.140625ZM99.300537109375 339.89794921875H101.395263671875V332.66796875L99.116455078125 333.125V331.95703125L101.382568359375 331.5H102.664794921875V339.89794921875H104.759521484375V340.97705078125H99.300537109375Z" fill="#000"/><path d="M162.382080078125 334.140625V335.232421875Q161.886962890625 334.95947265625 161.388671875 334.822998046875Q160.890380859375 334.6865234375 160.382568359375 334.6865234375Q159.246337890625 334.6865234375 158.617919921875 335.406982421875Q157.989501953125 336.12744140625 157.989501953125 337.4287109375Q157.989501953125 338.72998046875 158.617919921875 339.450439453125Q159.246337890625 340.1708984375 160.382568359375 340.1708984375Q160.890380859375 340.1708984375 161.388671875 340.034423828125Q161.886962890625 339.89794921875 162.382080078125 339.625V340.7041015625Q161.893310546875 340.9326171875 161.36962890625 341.046875Q160.845947265625 341.1611328125 160.255615234375 341.1611328125Q158.649658203125 341.1611328125 157.703857421875 340.15185546875Q156.758056640625 339.142578125 156.758056640625 337.4287109375Q156.758056640625 335.689453125 157.71337890625 334.69287109375Q158.668701171875 333.6962890625 160.331787109375 333.6962890625Q160.871337890625 333.6962890625 161.385498046875 333.807373046875Q161.899658203125 333.91845703125 162.382080078125 334.140625ZM165.682861328125 339.89794921875H170.157958984375V340.97705078125H164.140380859375V339.89794921875Q164.870361328125 339.142578125 166.13037109375 337.869873046875Q167.390380859375 336.59716796875 167.714111328125 336.22900390625Q168.329833984375 335.537109375 168.57421875 335.057861328125Q168.818603515625 334.57861328125 168.818603515625 334.115234375Q168.818603515625 333.35986328125 168.28857421875 332.8837890625Q167.758544921875 332.40771484375 166.907958984375 332.40771484375Q166.304931640625 332.40771484375 165.63525390625 332.6171875Q164.965576171875 332.82666015625 164.203857421875 333.251953125V331.95703125Q164.978271484375 331.64599609375 165.651123046875 331.4873046875Q166.323974609375 331.32861328125 166.882568359375 331.32861328125Q168.355224609375 331.32861328125 169.231201171875 332.06494140625Q170.107177734375 332.80126953125 170.107177734375 334.03271484375Q170.107177734375 334.61669921875 169.88818359375 335.140380859375Q169.669189453125 335.6640625 169.091552734375 336.375Q168.932861328125 336.55908203125 168.082275390625 337.438232421875Q167.231689453125 338.3173828125 165.682861328125 339.89794921875Z" fill="#000"/><path d="M227.882080078125 334.140625V335.232421875Q227.386962890625 334.95947265625 226.888671875 334.822998046875Q226.390380859375 334.6865234375 225.882568359375 334.6865234375Q224.746337890625 334.6865234375 224.117919921875 335.406982421875Q223.489501953125 336.12744140625 223.489501953125 337.4287109375Q223.489501953125 338.72998046875 224.117919921875 339.450439453125Q224.746337890625 340.1708984375 225.882568359375 340.1708984375Q226.390380859375 340.1708984375 226.888671875 340.034423828125Q227.386962890625 339.89794921875 227.882080078125 339.625V340.7041015625Q227.393310546875 340.9326171875 226.86962890625 341.046875Q226.345947265625 341.1611328125 225.755615234375 341.1611328125Q224.149658203125 341.1611328125 223.203857421875 340.15185546875Q222.258056640625 339.142578125 222.258056640625 337.4287109375Q222.258056640625 335.689453125 223.21337890625 334.69287109375Q224.168701171875 333.6962890625 225.831787109375 333.6962890625Q226.371337890625 333.6962890625 226.885498046875 333.807373046875Q227.399658203125 333.91845703125 227.882080078125 334.140625ZM233.963134765625 335.8671875Q234.883544921875 336.06396484375 235.40087890625 336.68603515625Q235.918212890625 337.30810546875 235.918212890625 338.22216796875Q235.918212890625 339.625 234.953369140625 340.39306640625Q233.988525390625 341.1611328125 232.211181640625 341.1611328125Q231.614501953125 341.1611328125 230.98291015625 341.043701171875Q230.351318359375 340.92626953125 229.678466796875 340.69140625V339.45361328125Q230.211669921875 339.7646484375 230.846435546875 339.92333984375Q231.481201171875 340.08203125 232.173095703125 340.08203125Q233.379150390625 340.08203125 234.0107421875 339.60595703125Q234.642333984375 339.1298828125 234.642333984375 338.22216796875Q234.642333984375 337.38427734375 234.05517578125 336.911376953125Q233.468017578125 336.4384765625 232.420654296875 336.4384765625H231.316162109375V335.384765625H232.471435546875Q233.417236328125 335.384765625 233.918701171875 335.007080078125Q234.420166015625 334.62939453125 234.420166015625 333.91845703125Q234.420166015625 333.1884765625 233.90283203125 332.798095703125Q233.385498046875 332.40771484375 232.420654296875 332.40771484375Q231.893798828125 332.40771484375 231.290771484375 332.52197265625Q230.687744140625 332.63623046875 229.964111328125 332.87744140625V331.73486328125Q230.694091796875 331.53173828125 231.33203125 331.43017578125Q231.969970703125 331.32861328125 232.534912109375 331.32861328125Q233.994873046875 331.32861328125 234.845458984375 331.991943359375Q235.696044921875 332.6552734375 235.696044921875 333.78515625Q235.696044921875 334.572265625 235.245361328125 335.114990234375Q234.794677734375 335.65771484375 233.963134765625 335.8671875Z" fill="#000"/><path d="M293.382080078125 334.140625V335.232421875Q292.886962890625 334.95947265625 292.388671875 334.822998046875Q291.890380859375 334.6865234375 291.382568359375 334.6865234375Q290.246337890625 334.6865234375 289.617919921875 335.406982421875Q288.989501953125 336.12744140625 288.989501953125 337.4287109375Q288.989501953125 338.72998046875 289.617919921875 339.450439453125Q290.246337890625 340.1708984375 291.382568359375 340.1708984375Q291.890380859375 340.1708984375 292.388671875 340.034423828125Q292.886962890625 339.89794921875 293.382080078125 339.625V340.7041015625Q292.893310546875 340.9326171875 292.36962890625 341.046875Q291.845947265625 341.1611328125 291.255615234375 341.1611328125Q289.649658203125 341.1611328125 288.703857421875 340.15185546875Q287.758056640625 339.142578125 287.758056640625 337.4287109375Q287.758056640625 335.689453125 288.71337890625 334.69287109375Q289.668701171875 333.6962890625 291.331787109375 333.6962890625Q291.871337890625 333.6962890625 292.385498046875 333.807373046875Q292.899658203125 333.91845703125 293.382080078125 334.140625ZM299.101318359375 332.6171875 295.864013671875 337.67626953125H299.101318359375ZM298.764892578125 331.5H300.377197265625V337.67626953125H301.729248046875V338.74267578125H300.377197265625V340.97705078125H299.101318359375V338.74267578125H294.822998046875V337.5048828125Z" fill="#000"/><path d="M358.882080078125 334.140625V335.232421875Q358.386962890625 334.95947265625 357.888671875 334.822998046875Q357.390380859375 334.6865234375 356.882568359375 334.6865234375Q355.746337890625 334.6865234375 355.117919921875 335.406982421875Q354.489501953125 336.12744140625 354.489501953125 337.4287109375Q354.489501953125 338.72998046875 355.117919921875 339.450439453125Q355.746337890625 340.1708984375 356.882568359375 340.1708984375Q357.390380859375 340.1708984375 357.888671875 340.034423828125Q358.386962890625 339.89794921875 358.882080078125 339.625V340.7041015625Q358.393310546875 340.9326171875 357.86962890625 341.046875Q357.345947265625 341.1611328125 356.755615234375 341.1611328125Q355.149658203125 341.1611328125 354.203857421875 340.15185546875Q353.258056640625 339.142578125 353.258056640625 337.4287109375Q353.258056640625 335.689453125 354.21337890625 334.69287109375Q355.168701171875 333.6962890625 356.831787109375 333.6962890625Q357.371337890625 333.6962890625 357.885498046875 333.807373046875Q358.399658203125 333.91845703125 358.882080078125 334.140625ZM361.091064453125 331.5H366.124755859375V332.5791015625H362.265380859375V334.90234375Q362.544677734375 334.80712890625 362.823974609375 334.759521484375Q363.103271484375 334.7119140625 363.382568359375 334.7119140625Q364.969482421875 334.7119140625 365.896240234375 335.58154296875Q366.822998046875 336.451171875 366.822998046875 337.9365234375Q366.822998046875 339.46630859375 365.870849609375 340.313720703125Q364.918701171875 341.1611328125 363.185791015625 341.1611328125Q362.589111328125 341.1611328125 361.97021484375 341.0595703125Q361.351318359375 340.9580078125 360.691162109375 340.7548828125V339.46630859375Q361.262451171875 339.77734375 361.871826171875 339.9296875Q362.481201171875 340.08203125 363.160400390625 340.08203125Q364.258544921875 340.08203125 364.899658203125 339.50439453125Q365.540771484375 338.9267578125 365.540771484375 337.9365234375Q365.540771484375 336.9462890625 364.899658203125 336.36865234375Q364.258544921875 335.791015625 363.160400390625 335.791015625Q362.646240234375 335.791015625 362.13525390625 335.9052734375Q361.624267578125 336.01953125 361.091064453125 336.2607421875Z" fill="#000"/><path d="M424.382080078125 334.140625V335.232421875Q423.886962890625 334.95947265625 423.388671875 334.822998046875Q422.890380859375 334.6865234375 422.382568359375 334.6865234375Q421.246337890625 334.6865234375 420.617919921875 335.406982421875Q419.989501953125 336.12744140625 419.989501953125 337.4287109375Q419.989501953125 338.72998046875 420.617919921875 339.450439453125Q421.246337890625 340.1708984375 422.382568359375 340.1708984375Q422.890380859375 340.1708984375 423.388671875 340.034423828125Q423.886962890625 339.89794921875 424.382080078125 339.625V340.7041015625Q423.893310546875 340.9326171875 423.36962890625 341.046875Q422.845947265625 341.1611328125 422.255615234375 341.1611328125Q420.649658203125 341.1611328125 419.703857421875 340.15185546875Q418.758056640625 339.142578125 418.758056640625 337.4287109375Q418.758056640625 335.689453125 419.71337890625 334.69287109375Q420.668701171875 333.6962890625 422.331787109375 333.6962890625Q422.871337890625 333.6962890625 423.385498046875 333.807373046875Q423.899658203125 333.91845703125 424.382080078125 334.140625ZM429.479248046875 335.7275390625Q428.615966796875 335.7275390625 428.111328125 336.31787109375Q427.606689453125 336.908203125 427.606689453125 337.9365234375Q427.606689453125 338.95849609375 428.111328125 339.552001953125Q428.615966796875 340.1455078125 429.479248046875 340.1455078125Q430.342529296875 340.1455078125 430.84716796875 339.552001953125Q431.351806640625 338.95849609375 431.351806640625 337.9365234375Q431.351806640625 336.908203125 430.84716796875 336.31787109375Q430.342529296875 335.7275390625 429.479248046875 335.7275390625ZM432.024658203125 331.70947265625V332.87744140625Q431.542236328125 332.64892578125 431.05029296875 332.5283203125Q430.558349609375 332.40771484375 430.075927734375 332.40771484375Q428.806396484375 332.40771484375 428.13671875 333.2646484375Q427.467041015625 334.12158203125 427.371826171875 335.8544921875Q427.746337890625 335.30224609375 428.311279296875 335.007080078125Q428.876220703125 334.7119140625 429.555419921875 334.7119140625Q430.983642578125 334.7119140625 431.81201171875 335.578369140625Q432.640380859375 336.44482421875 432.640380859375 337.9365234375Q432.640380859375 339.396484375 431.777099609375 340.27880859375Q430.913818359375 341.1611328125 429.479248046875 341.1611328125Q427.835205078125 341.1611328125 426.965576171875 339.901123046875Q426.095947265625 338.64111328125 426.095947265625 336.248046875Q426.095947265625 334.0009765625 427.162353515625 332.664794921875Q428.228759765625 331.32861328125 430.025146484375 331.32861328125Q430.507568359375 331.32861328125 430.99951171875 331.423828125Q431.491455078125 331.51904296875 432.024658203125 331.70947265625Z" fill="#000"/><path d="M489.882080078125 334.140625V335.232421875Q489.386962890625 334.95947265625 488.888671875 334.822998046875Q488.390380859375 334.6865234375 487.882568359375 334.6865234375Q486.746337890625 334.6865234375 486.117919921875 335.406982421875Q485.489501953125 336.12744140625 485.489501953125 337.4287109375Q485.489501953125 338.72998046875 486.117919921875 339.450439453125Q486.746337890625 340.1708984375 487.882568359375 340.1708984375Q488.390380859375 340.1708984375 488.888671875 340.034423828125Q489.386962890625 339.89794921875 489.882080078125 339.625V340.7041015625Q489.393310546875 340.9326171875 488.86962890625 341.046875Q488.345947265625 341.1611328125 487.755615234375 341.1611328125Q486.149658203125 341.1611328125 485.203857421875 340.15185546875Q484.258056640625 339.142578125 484.258056640625 337.4287109375Q484.258056640625 335.689453125 485.21337890625 334.69287109375Q486.168701171875 333.6962890625 487.831787109375 333.6962890625Q488.371337890625 333.6962890625 488.885498046875 333.807373046875Q489.399658203125 333.91845703125 489.882080078125 334.140625ZM491.754638671875 331.5H497.848388671875V332.0458984375L494.407958984375 340.97705078125H493.068603515625L496.305908203125 332.5791015625H491.754638671875Z" fill="#000"/><path d="M-13.27099609375 25.554280598958332Q-13.4677734375 25.440022786458332 -13.699462890625 25.386067708333332Q-13.93115234375 25.332112630208332 -14.21044921875 25.332112630208332Q-15.20068359375 25.332112630208332 -15.730712890625 25.976399739583332Q-16.2607421875 26.620686848958332 -16.2607421875 27.826741536458332V31.571858723958332H-17.43505859375V24.462483723958332H-16.2607421875V25.566975911458332Q-15.892578125 24.919514973958332 -15.30224609375 24.605305989583332Q-14.7119140625 24.291097005208332 -13.86767578125 24.291097005208332Q-13.7470703125 24.291097005208332 -13.60107421875 24.306966145833332Q-13.455078125 24.322835286458332 -13.27734375 24.354573567708332ZM-9.138671875 22.939046223958332Q-10.12890625 22.939046223958332 -10.627197265625 23.913411458333332Q-11.12548828125 24.887776692708332 -11.12548828125 26.842854817708332Q-11.12548828125 28.791585286458332 -10.627197265625 29.765950520833332Q-10.12890625 30.740315755208332 -9.138671875 30.740315755208332Q-8.14208984375 30.740315755208332 -7.643798828125 29.765950520833332Q-7.1455078125 28.791585286458332 -7.1455078125 26.842854817708332Q-7.1455078125 24.887776692708332 -7.643798828125 23.913411458333332Q-8.14208984375 22.939046223958332 -9.138671875 22.939046223958332ZM-9.138671875 21.923421223958332Q-7.54541015625 21.923421223958332 -6.704345703125 23.183430989583332Q-5.86328125 24.443440755208332 -5.86328125 26.842854817708332Q-5.86328125 29.235921223958332 -6.704345703125 30.495930989583332Q-7.54541015625 31.755940755208332 -9.138671875 31.755940755208332Q-10.73193359375 31.755940755208332 -11.572998046875 30.495930989583332Q-12.4140625 29.235921223958332 -12.4140625 26.842854817708332Q-12.4140625 24.443440755208332 -11.572998046875 23.183430989583332Q-10.73193359375 21.923421223958332 -9.138671875 21.923421223958332Z" fill="#000"/><path d="M-13.27099609375 79.220947265625Q-13.4677734375 79.106689453125 -13.699462890625 79.052734375Q-13.93115234375 78.998779296875 -14.21044921875 78.998779296875Q-15.20068359375 78.998779296875 -15.730712890625 79.64306640625Q-16.2607421875 80.287353515625 -16.2607421875 81.493408203125V85.238525390625H-17.43505859375V78.129150390625H-16.2607421875V79.233642578125Q-15.892578125 78.586181640625 -15.30224609375 78.27197265625Q-14.7119140625 77.957763671875 -13.86767578125 77.957763671875Q-13.7470703125 77.957763671875 -13.60107421875 77.9736328125Q-13.455078125 77.989501953125 -13.27734375 78.021240234375ZM-11.65869140625 84.159423828125H-9.56396484375V76.929443359375L-11.8427734375 77.386474609375V76.218505859375L-9.57666015625 75.761474609375H-8.29443359375V84.159423828125H-6.19970703125V85.238525390625H-11.65869140625Z" fill="#000"/><path d="M-13.27099609375 132.88761393229166Q-13.4677734375 132.77335611979166 -13.699462890625 132.71940104166666Q-13.93115234375 132.66544596354166 -14.21044921875 132.66544596354166Q-15.20068359375 132.66544596354166 -15.730712890625 133.30973307291666Q-16.2607421875 133.95402018229166 -16.2607421875 135.16007486979166V138.90519205729166H-17.43505859375V131.79581705729166H-16.2607421875V132.90030924479166Q-15.892578125 132.25284830729166 -15.30224609375 131.93863932291666Q-14.7119140625 131.62443033854166 -13.86767578125 131.62443033854166Q-13.7470703125 131.62443033854166 -13.60107421875 131.64029947916666Q-13.455078125 131.65616861979166 -13.27734375 131.68790690104166ZM-10.7763671875 137.82609049479166H-6.30126953125V138.90519205729166H-12.31884765625V137.82609049479166Q-11.5888671875 137.07071940104166 -10.328857421875 135.79801432291666Q-9.06884765625 134.52530924479166 -8.7451171875 134.15714518229166Q-8.12939453125 133.46525065104166 -7.885009765625 132.98600260416666Q-7.640625 132.50675455729166 -7.640625 132.04337565104166Q-7.640625 131.28800455729166 -8.170654296875 130.81193033854166Q-8.70068359375 130.33585611979166 -9.55126953125 130.33585611979166Q-10.154296875 130.33585611979166 -10.823974609375 130.54532877604166Q-11.49365234375 130.75480143229166 -12.25537109375 131.18009440104166V129.88517252604166Q-11.48095703125 129.57413736979166 -10.80810546875 129.41544596354166Q-10.13525390625 129.25675455729166 -9.57666015625 129.25675455729166Q-8.10400390625 129.25675455729166 -7.22802734375 129.99308268229166Q-6.35205078125 130.72941080729166 -6.35205078125 131.96085611979166Q-6.35205078125 132.54484049479166 -6.571044921875 133.06852213541666Q-6.7900390625 133.59220377604166 -7.36767578125 134.30314127604166Q-7.5263671875 134.48722330729166 -8.376953125 135.36637369791666Q-9.2275390625 136.24552408854166 -10.7763671875 137.82609049479166Z" fill="#000"/><path d="M-13.27099609375 186.55428059895834Q-13.4677734375 186.44002278645834 -13.699462890625 186.38606770833334Q-13.93115234375 186.33211263020834 -14.21044921875 186.33211263020834Q-15.20068359375 186.33211263020834 -15.730712890625 186.97639973958334Q-16.2607421875 187.62068684895834 -16.2607421875 188.82674153645834V192.57185872395834H-17.43505859375V185.46248372395834H-16.2607421875V186.56697591145834Q-15.892578125 185.91951497395834 -15.30224609375 185.60530598958334Q-14.7119140625 185.29109700520834 -13.86767578125 185.29109700520834Q-13.7470703125 185.29109700520834 -13.60107421875 185.30696614583334Q-13.455078125 185.32283528645834 -13.27734375 185.35457356770834ZM-7.99609375 187.46199544270834Q-7.07568359375 187.65877278645834 -6.558349609375 188.28084309895834Q-6.041015625 188.90291341145834 -6.041015625 189.81697591145834Q-6.041015625 191.21980794270834 -7.005859375 191.98787434895834Q-7.970703125 192.75594075520834 -9.748046875 192.75594075520834Q-10.3447265625 192.75594075520834 -10.976318359375 192.63850911458334Q-11.60791015625 192.52107747395834 -12.28076171875 192.28621419270834V191.04842122395834Q-11.74755859375 191.35945638020834 -11.11279296875 191.51814778645834Q-10.47802734375 191.67683919270834 -9.7861328125 191.67683919270834Q-8.580078125 191.67683919270834 -7.948486328125 191.20076497395834Q-7.31689453125 190.72469075520834 -7.31689453125 189.81697591145834Q-7.31689453125 188.97908528645834 -7.904052734375 188.50618489583334Q-8.4912109375 188.03328450520834 -9.53857421875 188.03328450520834H-10.64306640625V186.97957356770834H-9.48779296875Q-8.5419921875 186.97957356770834 -8.04052734375 186.60188802083334Q-7.5390625 186.22420247395834 -7.5390625 185.51326497395834Q-7.5390625 184.78328450520834 -8.056396484375 184.39290364583334Q-8.57373046875 184.00252278645834 -9.53857421875 184.00252278645834Q-10.0654296875 184.00252278645834 -10.66845703125 184.11678059895834Q-11.271484375 184.23103841145834 -11.9951171875 184.47224934895834V183.32967122395834Q-11.26513671875 183.12654622395834 -10.627197265625 183.02498372395834Q-9.9892578125 182.92342122395834 -9.42431640625 182.92342122395834Q-7.96435546875 182.92342122395834 -7.11376953125 183.58675130208334Q-6.26318359375 184.25008138020834 -6.26318359375 185.37996419270834Q-6.26318359375 186.16707356770834 -6.7138671875 186.70979817708334Q-7.16455078125 187.25252278645834 -7.99609375 187.46199544270834Z" fill="#000"/><path d="M-13.27099609375 240.220947265625Q-13.4677734375 240.106689453125 -13.699462890625 240.052734375Q-13.93115234375 239.998779296875 -14.21044921875 239.998779296875Q-15.20068359375 239.998779296875 -15.730712890625 240.64306640625Q-16.2607421875 241.287353515625 -16.2607421875 242.493408203125V246.238525390625H-17.43505859375V239.129150390625H-16.2607421875V240.233642578125Q-15.892578125 239.586181640625 -15.30224609375 239.27197265625Q-14.7119140625 238.957763671875 -13.86767578125 238.957763671875Q-13.7470703125 238.957763671875 -13.60107421875 238.9736328125Q-13.455078125 238.989501953125 -13.27734375 239.021240234375ZM-8.35791015625 237.878662109375 -11.59521484375 242.937744140625H-8.35791015625ZM-8.6943359375 236.761474609375H-7.08203125V242.937744140625H-5.72998046875V244.004150390625H-7.08203125V246.238525390625H-8.35791015625V244.004150390625H-12.63623046875V242.766357421875Z" fill="#000"/><path d="M-13.27099609375 293.88761393229163Q-13.4677734375 293.77335611979163 -13.699462890625 293.71940104166663Q-13.93115234375 293.66544596354163 -14.21044921875 293.66544596354163Q-15.20068359375 293.66544596354163 -15.730712890625 294.30973307291663Q-16.2607421875 294.95402018229163 -16.2607421875 296.16007486979163V299.90519205729163H-17.43505859375V292.79581705729163H-16.2607421875V293.90030924479163Q-15.892578125 293.25284830729163 -15.30224609375 292.93863932291663Q-14.7119140625 292.62443033854163 -13.86767578125 292.62443033854163Q-13.7470703125 292.62443033854163 -13.60107421875 292.64029947916663Q-13.455078125 292.65616861979163 -13.27734375 292.68790690104163ZM-11.8681640625 290.42814127604163H-6.83447265625V291.50724283854163H-10.69384765625V293.83048502604163Q-10.41455078125 293.73527018229163 -10.13525390625 293.68766276041663Q-9.85595703125 293.64005533854163 -9.57666015625 293.64005533854163Q-7.98974609375 293.64005533854163 -7.06298828125 294.50968424479163Q-6.13623046875 295.37931315104163 -6.13623046875 296.86466471354163Q-6.13623046875 298.39444986979163 -7.08837890625 299.24186197916663Q-8.04052734375 300.08927408854163 -9.7734375 300.08927408854163Q-10.3701171875 300.08927408854163 -10.989013671875 299.98771158854163Q-11.60791015625 299.88614908854163 -12.26806640625 299.68302408854163V298.39444986979163Q-11.69677734375 298.70548502604163 -11.08740234375 298.85782877604163Q-10.47802734375 299.01017252604163 -9.798828125 299.01017252604163Q-8.70068359375 299.01017252604163 -8.0595703125 298.43253580729163Q-7.41845703125 297.85489908854163 -7.41845703125 296.86466471354163Q-7.41845703125 295.87443033854163 -8.0595703125 295.29679361979163Q-8.70068359375 294.71915690104163 -9.798828125 294.71915690104163Q-10.31298828125 294.71915690104163 -10.823974609375 294.83341471354163Q-11.3349609375 294.94767252604163 -11.8681640625 295.18888346354163Z" fill="#000"/><path d="M236.46435546875 349.3359375V350.51171875Q235.93115234375 350.2177734375 235.39453125 350.07080078125Q234.85791015625 349.923828125 234.31103515625 349.923828125Q233.08740234375 349.923828125 232.41064453125 350.69970703125Q231.73388671875 351.4755859375 231.73388671875 352.876953125Q231.73388671875 354.2783203125 232.41064453125 355.05419921875Q233.08740234375 355.830078125 234.31103515625 355.830078125Q234.85791015625 355.830078125 235.39453125 355.68310546875Q235.93115234375 355.5361328125 236.46435546875 355.2421875V356.404296875Q235.93798828125 356.650390625 235.3740234375 356.7734375Q234.81005859375 356.896484375 234.17431640625 356.896484375Q232.44482421875 356.896484375 231.42626953125 355.8095703125Q230.40771484375 354.72265625 230.40771484375 352.876953125Q230.40771484375 351.00390625 231.4365234375 349.9306640625Q232.46533203125 348.857421875 234.25634765625 348.857421875Q234.83740234375 348.857421875 235.39111328125 348.97705078125Q235.94482421875 349.0966796875 236.46435546875 349.3359375ZM241.61865234375 349.923828125Q240.60693359375 349.923828125 240.01904296875 350.71337890625Q239.43115234375 351.5029296875 239.43115234375 352.876953125Q239.43115234375 354.2509765625 240.015625 355.04052734375Q240.60009765625 355.830078125 241.61865234375 355.830078125Q242.62353515625 355.830078125 243.21142578125 355.037109375Q243.79931640625 354.244140625 243.79931640625 352.876953125Q243.79931640625 351.5166015625 243.21142578125 350.72021484375Q242.62353515625 349.923828125 241.61865234375 349.923828125ZM241.61865234375 348.857421875Q243.25927734375 348.857421875 244.19580078125 349.923828125Q245.13232421875 350.990234375 245.13232421875 352.876953125Q245.13232421875 354.7568359375 244.19580078125 355.82666015625Q243.25927734375 356.896484375 241.61865234375 356.896484375Q239.97119140625 356.896484375 239.0380859375 355.82666015625Q238.10498046875 354.7568359375 238.10498046875 352.876953125Q238.10498046875 350.990234375 239.0380859375 349.923828125Q239.97119140625 348.857421875 241.61865234375 348.857421875ZM253.58154296875 352.0771484375V356.6982421875H252.32373046875V352.1181640625Q252.32373046875 351.03125 251.89990234375 350.4912109375Q251.47607421875 349.951171875 250.62841796875 349.951171875Q249.60986328125 349.951171875 249.02197265625 350.6005859375Q248.43408203125 351.25 248.43408203125 352.37109375V356.6982421875H247.16943359375V349.0419921875H248.43408203125V350.2314453125Q248.88525390625 349.541015625 249.4970703125 349.19921875Q250.10888671875 348.857421875 250.90869140625 348.857421875Q252.22802734375 348.857421875 252.90478515625 349.67431640625Q253.58154296875 350.4912109375 253.58154296875 352.0771484375ZM261.12841796875 350.2041015625V346.0615234375H262.38623046875V356.6982421875H261.12841796875V355.5498046875Q260.73193359375 356.2333984375 260.126953125 356.56494140625Q259.52197265625 356.896484375 258.67431640625 356.896484375Q257.28662109375 356.896484375 256.4150390625 355.7890625Q255.54345703125 354.681640625 255.54345703125 352.876953125Q255.54345703125 351.072265625 256.4150390625 349.96484375Q257.28662109375 348.857421875 258.67431640625 348.857421875Q259.52197265625 348.857421875 260.126953125 349.18896484375Q260.73193359375 349.5205078125 261.12841796875 350.2041015625ZM256.84228515625 352.876953125Q256.84228515625 354.2646484375 257.4130859375 355.05419921875Q257.98388671875 355.84375 258.98193359375 355.84375Q259.97998046875 355.84375 260.55419921875 355.05419921875Q261.12841796875 354.2646484375 261.12841796875 352.876953125Q261.12841796875 351.4892578125 260.55419921875 350.69970703125Q259.97998046875 349.91015625 258.98193359375 349.91015625Q257.98388671875 349.91015625 257.4130859375 350.69970703125Q256.84228515625 351.4892578125 256.84228515625 352.876953125ZM264.97705078125 349.0419921875H266.23486328125V356.6982421875H264.97705078125ZM264.97705078125 346.0615234375H266.23486328125V347.654296875H264.97705078125ZM270.11083984375 346.8681640625V349.0419921875H272.70166015625V350.01953125H270.11083984375V354.17578125Q270.11083984375 355.1123046875 270.3671875 355.37890625Q270.62353515625 355.6455078125 271.40966796875 355.6455078125H272.70166015625V356.6982421875H271.40966796875Q269.95361328125 356.6982421875 269.39990234375 356.15478515625Q268.84619140625 355.611328125 268.84619140625 354.17578125V350.01953125H267.92333984375V349.0419921875H268.84619140625V346.8681640625ZM274.35595703125 349.0419921875H275.61376953125V356.6982421875H274.35595703125ZM274.35595703125 346.0615234375H275.61376953125V347.654296875H274.35595703125ZM281.21240234375 349.923828125Q280.20068359375 349.923828125 279.61279296875 350.71337890625Q279.02490234375 351.5029296875 279.02490234375 352.876953125Q279.02490234375 354.2509765625 279.609375 355.04052734375Q280.19384765625 355.830078125 281.21240234375 355.830078125Q282.21728515625 355.830078125 282.80517578125 355.037109375Q283.39306640625 354.244140625 283.39306640625 352.876953125Q283.39306640625 351.5166015625 282.80517578125 350.72021484375Q282.21728515625 349.923828125 281.21240234375 349.923828125ZM281.21240234375 348.857421875Q282.85302734375 348.857421875 283.78955078125 349.923828125Q284.72607421875 350.990234375 284.72607421875 352.876953125Q284.72607421875 354.7568359375 283.78955078125 355.82666015625Q282.85302734375 356.896484375 281.21240234375 356.896484375Q279.56494140625 356.896484375 278.6318359375 355.82666015625Q277.69873046875 354.7568359375 277.69873046875 352.876953125Q277.69873046875 350.990234375 278.6318359375 349.923828125Q279.56494140625 348.857421875 281.21240234375 348.857421875ZM293.17529296875 352.0771484375V356.6982421875H291.91748046875V352.1181640625Q291.91748046875 351.03125 291.49365234375 350.4912109375Q291.06982421875 349.951171875 290.22216796875 349.951171875Q289.20361328125 349.951171875 288.61572265625 350.6005859375Q288.02783203125 351.25 288.02783203125 352.37109375V356.6982421875H286.76318359375V349.0419921875H288.02783203125V350.2314453125Q288.47900390625 349.541015625 289.0908203125 349.19921875Q289.70263671875 348.857421875 290.50244140625 348.857421875Q291.82177734375 348.857421875 292.49853515625 349.67431640625Q293.17529296875 350.4912109375 293.17529296875 352.0771484375Z" fill="#000"/><g transform="rotate(-90.00 -32.00 161.00)"><path d="M-51.25 153.5693359375V154.7587890625Q-51.783203125 154.4853515625 -52.357421875 154.3486328125Q-52.931640625 154.2119140625 -53.546875 154.2119140625Q-54.4833984375 154.2119140625 -54.95166015625 154.4990234375Q-55.419921875 154.7861328125 -55.419921875 155.3603515625Q-55.419921875 155.7978515625 -55.0849609375 156.04736328125Q-54.75 156.296875 -53.73828125 156.5224609375L-53.3076171875 156.6181640625Q-51.9677734375 156.9052734375 -51.40380859375 157.42822265625Q-50.83984375 157.951171875 -50.83984375 158.8876953125Q-50.83984375 159.9541015625 -51.68408203125 160.576171875Q-52.5283203125 161.1982421875 -54.0048828125 161.1982421875Q-54.6201171875 161.1982421875 -55.28662109375 161.07861328125Q-55.953125 160.958984375 -56.69140625 160.7197265625V159.4208984375Q-55.994140625 159.783203125 -55.3173828125 159.96435546875Q-54.640625 160.1455078125 -53.9775390625 160.1455078125Q-53.0888671875 160.1455078125 -52.6103515625 159.84130859375Q-52.1318359375 159.537109375 -52.1318359375 158.9833984375Q-52.1318359375 158.470703125 -52.47705078125 158.197265625Q-52.822265625 157.923828125 -53.9912109375 157.6708984375L-54.4287109375 157.568359375Q-55.59765625 157.322265625 -56.1171875 156.81298828125Q-56.63671875 156.3037109375 -56.63671875 155.4150390625Q-56.63671875 154.3349609375 -55.87109375 153.7470703125Q-55.10546875 153.1591796875 -53.697265625 153.1591796875Q-53.0 153.1591796875 -52.384765625 153.26171875Q-51.76953125 153.3642578125 -51.25 153.5693359375ZM-45.357421875 157.1513671875Q-46.8818359375 157.1513671875 -47.4697265625 157.5Q-48.0576171875 157.8486328125 -48.0576171875 158.689453125Q-48.0576171875 159.359375 -47.61669921875 159.75244140625Q-47.17578125 160.1455078125 -46.4169921875 160.1455078125Q-45.37109375 160.1455078125 -44.73876953125 159.40380859375Q-44.1064453125 158.662109375 -44.1064453125 157.431640625V157.1513671875ZM-42.8486328125 156.6318359375V161.0H-44.1064453125V159.837890625Q-44.537109375 160.53515625 -45.1796875 160.86669921875Q-45.822265625 161.1982421875 -46.751953125 161.1982421875Q-47.927734375 161.1982421875 -48.62158203125 160.53857421875Q-49.3154296875 159.87890625 -49.3154296875 158.771484375Q-49.3154296875 157.4794921875 -48.45068359375 156.8232421875Q-47.5859375 156.1669921875 -45.8701171875 156.1669921875H-44.1064453125V156.0439453125Q-44.1064453125 155.17578125 -44.67724609375 154.70068359375Q-45.248046875 154.2255859375 -46.2802734375 154.2255859375Q-46.9365234375 154.2255859375 -47.55859375 154.3828125Q-48.1806640625 154.5400390625 -48.7548828125 154.8544921875V153.6923828125Q-48.064453125 153.42578125 -47.4150390625 153.29248046875Q-46.765625 153.1591796875 -46.150390625 153.1591796875Q-44.4892578125 153.1591796875 -43.6689453125 154.0205078125Q-42.8486328125 154.8818359375 -42.8486328125 156.6318359375ZM-34.296875 154.8134765625Q-33.8251953125 153.9658203125 -33.1689453125 153.5625Q-32.5126953125 153.1591796875 -31.6240234375 153.1591796875Q-30.427734375 153.1591796875 -29.7783203125 153.99658203125Q-29.12890625 154.833984375 -29.12890625 156.37890625V161.0H-30.3935546875V156.419921875Q-30.3935546875 155.3193359375 -30.783203125 154.7861328125Q-31.1728515625 154.2529296875 -31.97265625 154.2529296875Q-32.9501953125 154.2529296875 -33.517578125 154.90234375Q-34.0849609375 155.5517578125 -34.0849609375 156.6728515625V161.0H-35.349609375V156.419921875Q-35.349609375 155.3125 -35.7392578125 154.78271484375Q-36.12890625 154.2529296875 -36.9423828125 154.2529296875Q-37.90625 154.2529296875 -38.4736328125 154.90576171875Q-39.041015625 155.55859375 -39.041015625 156.6728515625V161.0H-40.3056640625V153.34375H-39.041015625V154.533203125Q-38.6103515625 153.8291015625 -38.0087890625 153.494140625Q-37.4072265625 153.1591796875 -36.580078125 153.1591796875Q-35.74609375 153.1591796875 -35.16162109375 153.5830078125Q-34.5771484375 154.0068359375 -34.296875 154.8134765625ZM-25.4033203125 159.8515625V163.912109375H-26.66796875V153.34375H-25.4033203125V154.505859375Q-25.0068359375 153.822265625 -24.40185546875 153.49072265625Q-23.796875 153.1591796875 -22.9560546875 153.1591796875Q-21.5615234375 153.1591796875 -20.68994140625 154.2666015625Q-19.818359375 155.3740234375 -19.818359375 157.1787109375Q-19.818359375 158.9833984375 -20.68994140625 160.0908203125Q-21.5615234375 161.1982421875 -22.9560546875 161.1982421875Q-23.796875 161.1982421875 -24.40185546875 160.86669921875Q-25.0068359375 160.53515625 -25.4033203125 159.8515625ZM-21.1240234375 157.1787109375Q-21.1240234375 155.791015625 -21.69482421875 155.00146484375Q-22.265625 154.2119140625 -23.263671875 154.2119140625Q-24.26171875 154.2119140625 -24.83251953125 155.00146484375Q-25.4033203125 155.791015625 -25.4033203125 157.1787109375Q-25.4033203125 158.56640625 -24.83251953125 159.35595703125Q-24.26171875 160.1455078125 -23.263671875 160.1455078125Q-22.265625 160.1455078125 -21.69482421875 159.35595703125Q-21.1240234375 158.56640625 -21.1240234375 157.1787109375ZM-17.7333984375 150.36328125H-16.4755859375V161.0H-17.7333984375ZM-7.294921875 156.857421875V157.47265625H-13.078125Q-12.99609375 158.771484375 -12.29541015625 159.45166015625Q-11.5947265625 160.1318359375 -10.34375 160.1318359375Q-9.619140625 160.1318359375 -8.93896484375 159.9541015625Q-8.2587890625 159.7763671875 -7.5888671875 159.4208984375V160.6103515625Q-8.265625 160.8974609375 -8.9765625 161.0478515625Q-9.6875 161.1982421875 -10.4189453125 161.1982421875Q-12.2509765625 161.1982421875 -13.32080078125 160.1318359375Q-14.390625 159.0654296875 -14.390625 157.2470703125Q-14.390625 155.3671875 -13.37548828125 154.26318359375Q-12.3603515625 153.1591796875 -10.6376953125 153.1591796875Q-9.0927734375 153.1591796875 -8.19384765625 154.15380859375Q-7.294921875 155.1484375 -7.294921875 156.857421875ZM-8.552734375 156.48828125Q-8.56640625 155.4560546875 -9.13037109375 154.8408203125Q-9.6943359375 154.2255859375 -10.6240234375 154.2255859375Q-11.6767578125 154.2255859375 -12.30908203125 154.8203125Q-12.94140625 155.4150390625 -13.037109375 156.4951171875Z" fill="#000"/></g><path d="M157.02734375 -18.28125V-13.0H155.58984375V-18.234375Q155.58984375 -19.4765625 155.10546875 -20.09375Q154.62109375 -20.7109375 153.65234375 -20.7109375Q152.48828125 -20.7109375 151.81640625 -19.96875Q151.14453125 -19.2265625 151.14453125 -17.9453125V-13.0H149.69921875V-25.15625H151.14453125V-20.390625Q151.66015625 -21.1796875 152.359375 -21.5703125Q153.05859375 -21.9609375 153.97265625 -21.9609375Q155.48046875 -21.9609375 156.25390625 -21.02734375Q157.02734375 -20.09375 157.02734375 -18.28125ZM167.37890625 -17.734375V-17.03125H160.76953125Q160.86328125 -15.546875 161.6640625 -14.76953125Q162.46484375 -13.9921875 163.89453125 -13.9921875Q164.72265625 -13.9921875 165.5 -14.1953125Q166.27734375 -14.3984375 167.04296875 -14.8046875V-13.4453125Q166.26953125 -13.1171875 165.45703125 -12.9453125Q164.64453125 -12.7734375 163.80859375 -12.7734375Q161.71484375 -12.7734375 160.4921875 -13.9921875Q159.26953125 -15.2109375 159.26953125 -17.2890625Q159.26953125 -19.4375 160.4296875 -20.69921875Q161.58984375 -21.9609375 163.55859375 -21.9609375Q165.32421875 -21.9609375 166.3515625 -20.82421875Q167.37890625 -19.6875 167.37890625 -17.734375ZM165.94140625 -18.15625Q165.92578125 -19.3359375 165.28125 -20.0390625Q164.63671875 -20.7421875 163.57421875 -20.7421875Q162.37109375 -20.7421875 161.6484375 -20.0625Q160.92578125 -19.3828125 160.81640625 -18.1484375ZM173.71484375 -17.3984375Q171.97265625 -17.3984375 171.30078125 -17.0Q170.62890625 -16.6015625 170.62890625 -15.640625Q170.62890625 -14.875 171.1328125 -14.42578125Q171.63671875 -13.9765625 172.50390625 -13.9765625Q173.69921875 -13.9765625 174.421875 -14.82421875Q175.14453125 -15.671875 175.14453125 -17.078125V-17.3984375ZM176.58203125 -17.9921875V-13.0H175.14453125V-14.328125Q174.65234375 -13.53125 173.91796875 -13.15234375Q173.18359375 -12.7734375 172.12109375 -12.7734375Q170.77734375 -12.7734375 169.984375 -13.52734375Q169.19140625 -14.28125 169.19140625 -15.546875Q169.19140625 -17.0234375 170.1796875 -17.7734375Q171.16796875 -18.5234375 173.12890625 -18.5234375H175.14453125V-18.6640625Q175.14453125 -19.65625 174.4921875 -20.19921875Q173.83984375 -20.7421875 172.66015625 -20.7421875Q171.91015625 -20.7421875 171.19921875 -20.5625Q170.48828125 -20.3828125 169.83203125 -20.0234375V-21.3515625Q170.62109375 -21.65625 171.36328125 -21.80859375Q172.10546875 -21.9609375 172.80859375 -21.9609375Q174.70703125 -21.9609375 175.64453125 -20.9765625Q176.58203125 -19.9921875 176.58203125 -17.9921875ZM180.96484375 -24.234375V-21.75H183.92578125V-20.6328125H180.96484375V-15.8828125Q180.96484375 -14.8125 181.2578125 -14.5078125Q181.55078125 -14.203125 182.44921875 -14.203125H183.92578125V-13.0H182.44921875Q180.78515625 -13.0 180.15234375 -13.62109375Q179.51953125 -14.2421875 179.51953125 -15.8828125V-20.6328125H178.46484375V-21.75H179.51953125V-24.234375ZM192.62890625 -20.0703125Q193.16796875 -21.0390625 193.91796875 -21.5Q194.66796875 -21.9609375 195.68359375 -21.9609375Q197.05078125 -21.9609375 197.79296875 -21.00390625Q198.53515625 -20.046875 198.53515625 -18.28125V-13.0H197.08984375V-18.234375Q197.08984375 -19.4921875 196.64453125 -20.1015625Q196.19921875 -20.7109375 195.28515625 -20.7109375Q194.16796875 -20.7109375 193.51953125 -19.96875Q192.87109375 -19.2265625 192.87109375 -17.9453125V-13.0H191.42578125V-18.234375Q191.42578125 -19.5 190.98046875 -20.10546875Q190.53515625 -20.7109375 189.60546875 -20.7109375Q188.50390625 -20.7109375 187.85546875 -19.96484375Q187.20703125 -19.21875 187.20703125 -17.9453125V-13.0H185.76171875V-21.75H187.20703125V-20.390625Q187.69921875 -21.1953125 188.38671875 -21.578125Q189.07421875 -21.9609375 190.01953125 -21.9609375Q190.97265625 -21.9609375 191.640625 -21.4765625Q192.30859375 -20.9921875 192.62890625 -20.0703125ZM205.37890625 -17.3984375Q203.63671875 -17.3984375 202.96484375 -17.0Q202.29296875 -16.6015625 202.29296875 -15.640625Q202.29296875 -14.875 202.796875 -14.42578125Q203.30078125 -13.9765625 204.16796875 -13.9765625Q205.36328125 -13.9765625 206.0859375 -14.82421875Q206.80859375 -15.671875 206.80859375 -17.078125V-17.3984375ZM208.24609375 -17.9921875V-13.0H206.80859375V-14.328125Q206.31640625 -13.53125 205.58203125 -13.15234375Q204.84765625 -12.7734375 203.78515625 -12.7734375Q202.44140625 -12.7734375 201.6484375 -13.52734375Q200.85546875 -14.28125 200.85546875 -15.546875Q200.85546875 -17.0234375 201.84375 -17.7734375Q202.83203125 -18.5234375 204.79296875 -18.5234375H206.80859375V-18.6640625Q206.80859375 -19.65625 206.15625 -20.19921875Q205.50390625 -20.7421875 204.32421875 -20.7421875Q203.57421875 -20.7421875 202.86328125 -20.5625Q202.15234375 -20.3828125 201.49609375 -20.0234375V-21.3515625Q202.28515625 -21.65625 203.02734375 -21.80859375Q203.76953125 -21.9609375 204.47265625 -21.9609375Q206.37109375 -21.9609375 207.30859375 -20.9765625Q208.24609375 -19.9921875 208.24609375 -17.9921875ZM212.59765625 -14.3125V-9.671875H211.15234375V-21.75H212.59765625V-20.421875Q213.05078125 -21.203125 213.7421875 -21.58203125Q214.43359375 -21.9609375 215.39453125 -21.9609375Q216.98828125 -21.9609375 217.984375 -20.6953125Q218.98046875 -19.4296875 218.98046875 -17.3671875Q218.98046875 -15.3046875 217.984375 -14.0390625Q216.98828125 -12.7734375 215.39453125 -12.7734375Q214.43359375 -12.7734375 213.7421875 -13.15234375Q213.05078125 -13.53125 212.59765625 -14.3125ZM217.48828125 -17.3671875Q217.48828125 -18.953125 216.8359375 -19.85546875Q216.18359375 -20.7578125 215.04296875 -20.7578125Q213.90234375 -20.7578125 213.25 -19.85546875Q212.59765625 -18.953125 212.59765625 -17.3671875Q212.59765625 -15.78125 213.25 -14.87890625Q213.90234375 -13.9765625 215.04296875 -13.9765625Q216.18359375 -13.9765625 216.8359375 -14.87890625Q217.48828125 -15.78125 217.48828125 -17.3671875ZM229.90234375 -25.140625Q228.85546875 -23.34375 228.34765625 -21.5859375Q227.83984375 -19.828125 227.83984375 -18.0234375Q227.83984375 -16.21875 228.3515625 -14.44921875Q228.86328125 -12.6796875 229.90234375 -10.890625H228.65234375Q227.48046875 -12.7265625 226.8984375 -14.5Q226.31640625 -16.2734375 226.31640625 -18.0234375Q226.31640625 -19.765625 226.89453125 -21.53125Q227.47265625 -23.296875 228.65234375 -25.140625ZM232.69140625 -25.15625H234.12890625V-13.0H232.69140625ZM241.11328125 -17.3984375Q239.37109375 -17.3984375 238.69921875 -17.0Q238.02734375 -16.6015625 238.02734375 -15.640625Q238.02734375 -14.875 238.53125 -14.42578125Q239.03515625 -13.9765625 239.90234375 -13.9765625Q241.09765625 -13.9765625 241.8203125 -14.82421875Q242.54296875 -15.671875 242.54296875 -17.078125V-17.3984375ZM243.98046875 -17.9921875V-13.0H242.54296875V-14.328125Q242.05078125 -13.53125 241.31640625 -13.15234375Q240.58203125 -12.7734375 239.51953125 -12.7734375Q238.17578125 -12.7734375 237.3828125 -13.52734375Q236.58984375 -14.28125 236.58984375 -15.546875Q236.58984375 -17.0234375 237.578125 -17.7734375Q238.56640625 -18.5234375 240.52734375 -18.5234375H242.54296875V-18.6640625Q242.54296875 -19.65625 241.890625 -20.19921875Q241.23828125 -20.7421875 240.05859375 -20.7421875Q239.30859375 -20.7421875 238.59765625 -20.5625Q237.88671875 -20.3828125 237.23046875 -20.0234375V-21.3515625Q238.01953125 -21.65625 238.76171875 -21.80859375Q239.50390625 -21.9609375 240.20703125 -21.9609375Q242.10546875 -21.9609375 243.04296875 -20.9765625Q243.98046875 -19.9921875 243.98046875 -17.9921875ZM253.22265625 -17.3671875Q253.22265625 -18.953125 252.5703125 -19.85546875Q251.91796875 -20.7578125 250.77734375 -20.7578125Q249.63671875 -20.7578125 248.984375 -19.85546875Q248.33203125 -18.953125 248.33203125 -17.3671875Q248.33203125 -15.78125 248.984375 -14.87890625Q249.63671875 -13.9765625 250.77734375 -13.9765625Q251.91796875 -13.9765625 252.5703125 -14.87890625Q253.22265625 -15.78125 253.22265625 -17.3671875ZM248.33203125 -20.421875Q248.78515625 -21.203125 249.4765625 -21.58203125Q250.16796875 -21.9609375 251.12890625 -21.9609375Q252.72265625 -21.9609375 253.71875 -20.6953125Q254.71484375 -19.4296875 254.71484375 -17.3671875Q254.71484375 -15.3046875 253.71875 -14.0390625Q252.72265625 -12.7734375 251.12890625 -12.7734375Q250.16796875 -12.7734375 249.4765625 -13.15234375Q248.78515625 -13.53125 248.33203125 -14.3125V-13.0H246.88671875V-25.15625H248.33203125ZM264.58203125 -17.734375V-17.03125H257.97265625Q258.06640625 -15.546875 258.8671875 -14.76953125Q259.66796875 -13.9921875 261.09765625 -13.9921875Q261.92578125 -13.9921875 262.703125 -14.1953125Q263.48046875 -14.3984375 264.24609375 -14.8046875V-13.4453125Q263.47265625 -13.1171875 262.66015625 -12.9453125Q261.84765625 -12.7734375 261.01171875 -12.7734375Q258.91796875 -12.7734375 257.6953125 -13.9921875Q256.47265625 -15.2109375 256.47265625 -17.2890625Q256.47265625 -19.4375 257.6328125 -20.69921875Q258.79296875 -21.9609375 260.76171875 -21.9609375Q262.52734375 -21.9609375 263.5546875 -20.82421875Q264.58203125 -19.6875 264.58203125 -17.734375ZM263.14453125 -18.15625Q263.12890625 -19.3359375 262.484375 -20.0390625Q261.83984375 -20.7421875 260.77734375 -20.7421875Q259.57421875 -20.7421875 258.8515625 -20.0625Q258.12890625 -19.3828125 258.01953125 -18.1484375ZM266.94140625 -25.15625H268.37890625V-13.0H266.94140625ZM278.87109375 -17.734375V-17.03125H272.26171875Q272.35546875 -15.546875 273.15625 -14.76953125Q273.95703125 -13.9921875 275.38671875 -13.9921875Q276.21484375 -13.9921875 276.9921875 -14.1953125Q277.76953125 -14.3984375 278.53515625 -14.8046875V-13.4453125Q277.76171875 -13.1171875 276.94921875 -12.9453125Q276.13671875 -12.7734375 275.30078125 -12.7734375Q273.20703125 -12.7734375 271.984375 -13.9921875Q270.76171875 -15.2109375 270.76171875 -17.2890625Q270.76171875 -19.4375 271.921875 -20.69921875Q273.08203125 -21.9609375 275.05078125 -21.9609375Q276.81640625 -21.9609375 277.84375 -20.82421875Q278.87109375 -19.6875 278.87109375 -17.734375ZM277.43359375 -18.15625Q277.41796875 -19.3359375 276.7734375 -20.0390625Q276.12890625 -20.7421875 275.06640625 -20.7421875Q273.86328125 -20.7421875 273.140625 -20.0625Q272.41796875 -19.3828125 272.30859375 -18.1484375ZM286.98828125 -20.421875V-25.15625H288.42578125V-13.0H286.98828125V-14.3125Q286.53515625 -13.53125 285.84375 -13.15234375Q285.15234375 -12.7734375 284.18359375 -12.7734375Q282.59765625 -12.7734375 281.6015625 -14.0390625Q280.60546875 -15.3046875 280.60546875 -17.3671875Q280.60546875 -19.4296875 281.6015625 -20.6953125Q282.59765625 -21.9609375 284.18359375 -21.9609375Q285.15234375 -21.9609375 285.84375 -21.58203125Q286.53515625 -21.203125 286.98828125 -20.421875ZM282.08984375 -17.3671875Q282.08984375 -15.78125 282.7421875 -14.87890625Q283.39453125 -13.9765625 284.53515625 -13.9765625Q285.67578125 -13.9765625 286.33203125 -14.87890625Q286.98828125 -15.78125 286.98828125 -17.3671875Q286.98828125 -18.953125 286.33203125 -19.85546875Q285.67578125 -20.7578125 284.53515625 -20.7578125Q283.39453125 -20.7578125 282.7421875 -19.85546875Q282.08984375 -18.953125 282.08984375 -17.3671875ZM301.54296875 -20.40625Q301.30078125 -20.546875 301.015625 -20.61328125Q300.73046875 -20.6796875 300.38671875 -20.6796875Q299.16796875 -20.6796875 298.515625 -19.88671875Q297.86328125 -19.09375 297.86328125 -17.609375V-13.0H296.41796875V-21.75H297.86328125V-20.390625Q298.31640625 -21.1875 299.04296875 -21.57421875Q299.76953125 -21.9609375 300.80859375 -21.9609375Q300.95703125 -21.9609375 301.13671875 -21.94140625Q301.31640625 -21.921875 301.53515625 -21.8828125ZM306.44140625 -20.7421875Q305.28515625 -20.7421875 304.61328125 -19.83984375Q303.94140625 -18.9375 303.94140625 -17.3671875Q303.94140625 -15.796875 304.609375 -14.89453125Q305.27734375 -13.9921875 306.44140625 -13.9921875Q307.58984375 -13.9921875 308.26171875 -14.8984375Q308.93359375 -15.8046875 308.93359375 -17.3671875Q308.93359375 -18.921875 308.26171875 -19.83203125Q307.58984375 -20.7421875 306.44140625 -20.7421875ZM306.44140625 -21.9609375Q308.31640625 -21.9609375 309.38671875 -20.7421875Q310.45703125 -19.5234375 310.45703125 -17.3671875Q310.45703125 -15.21875 309.38671875 -13.99609375Q308.31640625 -12.7734375 306.44140625 -12.7734375Q304.55859375 -12.7734375 303.4921875 -13.99609375Q302.42578125 -15.21875 302.42578125 -17.3671875Q302.42578125 -19.5234375 303.4921875 -20.7421875Q304.55859375 -21.9609375 306.44140625 -21.9609375ZM312.00390625 -21.75H313.44140625L315.23828125 -14.921875L317.02734375 -21.75H318.72265625L320.51953125 -14.921875L322.30859375 -21.75H323.74609375L321.45703125 -13.0H319.76171875L317.87890625 -20.171875L315.98828125 -13.0H314.29296875ZM331.50390625 -21.4921875V-20.1328125Q330.89453125 -20.4453125 330.23828125 -20.6015625Q329.58203125 -20.7578125 328.87890625 -20.7578125Q327.80859375 -20.7578125 327.2734375 -20.4296875Q326.73828125 -20.1015625 326.73828125 -19.4453125Q326.73828125 -18.9453125 327.12109375 -18.66015625Q327.50390625 -18.375 328.66015625 -18.1171875L329.15234375 -18.0078125Q330.68359375 -17.6796875 331.328125 -17.08203125Q331.97265625 -16.484375 331.97265625 -15.4140625Q331.97265625 -14.1953125 331.0078125 -13.484375Q330.04296875 -12.7734375 328.35546875 -12.7734375Q327.65234375 -12.7734375 326.890625 -12.91015625Q326.12890625 -13.046875 325.28515625 -13.3203125V-14.8046875Q326.08203125 -14.390625 326.85546875 -14.18359375Q327.62890625 -13.9765625 328.38671875 -13.9765625Q329.40234375 -13.9765625 329.94921875 -14.32421875Q330.49609375 -14.671875 330.49609375 -15.3046875Q330.49609375 -15.890625 330.1015625 -16.203125Q329.70703125 -16.515625 328.37109375 -16.8046875L327.87109375 -16.921875Q326.53515625 -17.203125 325.94140625 -17.78515625Q325.34765625 -18.3671875 325.34765625 -19.3828125Q325.34765625 -20.6171875 326.22265625 -21.2890625Q327.09765625 -21.9609375 328.70703125 -21.9609375Q329.50390625 -21.9609375 330.20703125 -21.84375Q330.91015625 -21.7265625 331.50390625 -21.4921875ZM336.81640625 -24.6640625H338.14453125L334.08203125 -11.515625H332.75390625ZM345.94921875 -21.4140625V-20.0703125Q345.33984375 -20.40625 344.7265625 -20.57421875Q344.11328125 -20.7421875 343.48828125 -20.7421875Q342.08984375 -20.7421875 341.31640625 -19.85546875Q340.54296875 -18.96875 340.54296875 -17.3671875Q340.54296875 -15.765625 341.31640625 -14.87890625Q342.08984375 -13.9921875 343.48828125 -13.9921875Q344.11328125 -13.9921875 344.7265625 -14.16015625Q345.33984375 -14.328125 345.94921875 -14.6640625V-13.3359375Q345.34765625 -13.0546875 344.703125 -12.9140625Q344.05859375 -12.7734375 343.33203125 -12.7734375Q341.35546875 -12.7734375 340.19140625 -14.015625Q339.02734375 -15.2578125 339.02734375 -17.3671875Q339.02734375 -19.5078125 340.203125 -20.734375Q341.37890625 -21.9609375 343.42578125 -21.9609375Q344.08984375 -21.9609375 344.72265625 -21.82421875Q345.35546875 -21.6875 345.94921875 -21.4140625ZM351.83984375 -20.7421875Q350.68359375 -20.7421875 350.01171875 -19.83984375Q349.33984375 -18.9375 349.33984375 -17.3671875Q349.33984375 -15.796875 350.0078125 -14.89453125Q350.67578125 -13.9921875 351.83984375 -13.9921875Q352.98828125 -13.9921875 353.66015625 -14.8984375Q354.33203125 -15.8046875 354.33203125 -17.3671875Q354.33203125 -18.921875 353.66015625 -19.83203125Q352.98828125 -20.7421875 351.83984375 -20.7421875ZM351.83984375 -21.9609375Q353.71484375 -21.9609375 354.78515625 -20.7421875Q355.85546875 -19.5234375 355.85546875 -17.3671875Q355.85546875 -15.21875 354.78515625 -13.99609375Q353.71484375 -12.7734375 351.83984375 -12.7734375Q349.95703125 -12.7734375 348.890625 -13.99609375Q347.82421875 -15.21875 347.82421875 -17.3671875Q347.82421875 -19.5234375 348.890625 -20.7421875Q349.95703125 -21.9609375 351.83984375 -21.9609375ZM358.23828125 -25.15625H359.67578125V-13.0H358.23828125ZM368.26171875 -21.4921875V-20.1328125Q367.65234375 -20.4453125 366.99609375 -20.6015625Q366.33984375 -20.7578125 365.63671875 -20.7578125Q364.56640625 -20.7578125 364.03125 -20.4296875Q363.49609375 -20.1015625 363.49609375 -19.4453125Q363.49609375 -18.9453125 363.87890625 -18.66015625Q364.26171875 -18.375 365.41796875 -18.1171875L365.91015625 -18.0078125Q367.44140625 -17.6796875 368.0859375 -17.08203125Q368.73046875 -16.484375 368.73046875 -15.4140625Q368.73046875 -14.1953125 367.765625 -13.484375Q366.80078125 -12.7734375 365.11328125 -12.7734375Q364.41015625 -12.7734375 363.6484375 -12.91015625Q362.88671875 -13.046875 362.04296875 -13.3203125V-14.8046875Q362.83984375 -14.390625 363.61328125 -14.18359375Q364.38671875 -13.9765625 365.14453125 -13.9765625Q366.16015625 -13.9765625 366.70703125 -14.32421875Q367.25390625 -14.671875 367.25390625 -15.3046875Q367.25390625 -15.890625 366.859375 -16.203125Q366.46484375 -16.515625 365.12890625 -16.8046875L364.62890625 -16.921875Q363.29296875 -17.203125 362.69921875 -17.78515625Q362.10546875 -18.3671875 362.10546875 -19.3828125Q362.10546875 -20.6171875 362.98046875 -21.2890625Q363.85546875 -21.9609375 365.46484375 -21.9609375Q366.26171875 -21.9609375 366.96484375 -21.84375Q367.66796875 -21.7265625 368.26171875 -21.4921875ZM370.79296875 -25.140625H372.04296875Q373.21484375 -23.296875 373.796875 -21.53125Q374.37890625 -19.765625 374.37890625 -18.0234375Q374.37890625 -16.2734375 373.796875 -14.5Q373.21484375 -12.7265625 372.04296875 -10.890625H370.79296875Q371.83203125 -12.6796875 372.34375 -14.44921875Q372.85546875 -16.21875 372.85546875 -18.0234375Q372.85546875 -19.828125 372.34375 -21.5859375Q371.83203125 -23.34375 370.79296875 -25.140625Z" fill="#000"/><g transform="translate(537.00,126.00)"><rect x="0.00" y="0.00" width="19.00" height="3.12" fill="rgb(253,231,37)"/><rect x="0.00" y="2.12" width="19.00" height="3.12" fill="rgb(234,229,26)"/><rect x="0.00" y="4.24" width="19.00" height="3.12" fill="rgb(213,226,26)"/><rect x="0.00" y="6.36" width="19.00" height="3.12" fill="rgb(192,223,37)"/><rect x="0.00" y="8.48" width="19.00" height="3.12" fill="rgb(170,220,50)"/><rect x="0.00" y="10.61" width="19.00" height="3.12" fill="rgb(149,216,64)"/><rect x="0.00" y="12.73" width="19.00" height="3.12" fill="rgb(129,211,77)"/><rect x="0.00" y="14.85" width="19.00" height="3.12" fill="rgb(110,206,88)"/><rect x="0.00" y="16.97" width="19.00" height="3.12" fill="rgb(92,200,99)"/><rect x="0.00" y="19.09" width="19.00" height="3.12" fill="rgb(76,194,108)"/><rect x="0.00" y="21.21" width="19.00" height="3.12" fill="rgb(61,188,116)"/><rect x="0.00" y="23.33" width="19.00" height="3.12" fill="rgb(49,181,123)"/><rect x="0.00" y="25.45" width="19.00" height="3.12" fill="rgb(39,173,129)"/><rect x="0.00" y="27.58" width="19.00" height="3.12" fill="rgb(33,166,133)"/><rect x="0.00" y="29.70" width="19.00" height="3.12" fill="rgb(31,159,136)"/><rect x="0.00" y="31.82" width="19.00" height="3.12" fill="rgb(31,151,139)"/><rect x="0.00" y="33.94" width="19.00" height="3.12" fill="rgb(33,145,140)"/><rect x="0.00" y="36.06" width="19.00" height="3.12" fill="rgb(35,137,142)"/><rect x="0.00" y="38.18" width="19.00" height="3.12" fill="rgb(38,130,142)"/><rect x="0.00" y="40.30" width="19.00" height="3.12" fill="rgb(41,122,142)"/><rect x="0.00" y="42.42" width="19.00" height="3.12" fill="rgb(44,114,142)"/><rect x="0.00" y="44.55" width="19.00" height="3.12" fill="rgb(47,107,142)"/><rect x="0.00" y="46.67" width="19.00" height="3.12" fill="rgb(51,99,141)"/><rect x="0.00" y="48.79" width="19.00" height="3.12" fill="rgb(55,91,141)"/><rect x="0.00" y="50.91" width="19.00" height="3.12" fill="rgb(59,82,139)"/><rect x="0.00" y="53.03" width="19.00" height="3.12" fill="rgb(62,73,137)"/><rect x="0.00" y="55.15" width="19.00" height="3.12" fill="rgb(66,64,134)"/><rect x="0.00" y="57.27" width="19.00" height="3.12" fill="rgb(69,55,129)"/><rect x="0.00" y="59.39" width="19.00" height="3.12" fill="rgb(71,45,123)"/><rect x="0.00" y="61.52" width="19.00" height="3.12" fill="rgb(72,35,116)"/><rect x="0.00" y="63.64" width="19.00" height="3.12" fill="rgb(72,24,106)"/><rect x="0.00" y="65.76" width="19.00" height="3.12" fill="rgb(71,13,96)"/><rect x="0.00" y="67.88" width="19.00" height="2.12" fill="rgb(68,1,84)"/><rect x="0.00" y="0.00" width="19.00" height="70.00" fill="none" stroke="#000000" stroke-width="1.00"/><line x1="19.00" x2="23.50" y1="54.55" y2="54.55" stroke="#000000" stroke-width="1.00"/><path d="M29.134765625 52.23037951242278H32.55615234375V53.27139513742278H29.134765625ZM37.3232421875 47.67910998117278Q36.3330078125 47.67910998117278 35.834716796875 48.65347521554778Q35.33642578125 49.62784044992278 35.33642578125 51.58291857492278Q35.33642578125 53.53164904367278 35.834716796875 54.50601427804778Q36.3330078125 55.48037951242278 37.3232421875 55.48037951242278Q38.31982421875 55.48037951242278 38.818115234375 54.50601427804778Q39.31640625 53.53164904367278 39.31640625 51.58291857492278Q39.31640625 49.62784044992278 38.818115234375 48.65347521554778Q38.31982421875 47.67910998117278 37.3232421875 47.67910998117278ZM37.3232421875 46.66348498117278Q38.91650390625 46.66348498117278 39.757568359375 47.92349474679778Q40.5986328125 49.18350451242278 40.5986328125 51.58291857492278Q40.5986328125 53.97598498117278 39.757568359375 55.23599474679778Q38.91650390625 56.49600451242278 37.3232421875 56.49600451242278Q35.72998046875 56.49600451242278 34.888916015625 55.23599474679778Q34.0478515625 53.97598498117278 34.0478515625 51.58291857492278Q34.0478515625 49.18350451242278 34.888916015625 47.92349474679778Q35.72998046875 46.66348498117278 37.3232421875 46.66348498117278ZM42.85205078125 54.69961779367278H44.19140625V56.31192248117278H42.85205078125ZM46.9970703125 46.83487169992278H52.03076171875V47.91397326242278H48.17138671875V50.23721544992278Q48.45068359375 50.14200060617278 48.72998046875 50.09439318429778Q49.00927734375 50.04678576242278 49.28857421875 50.04678576242278Q50.87548828125 50.04678576242278 51.80224609375 50.91641466867278Q52.72900390625 51.78604357492278 52.72900390625 53.27139513742278Q52.72900390625 54.80118029367278 51.77685546875 55.64859240304778Q50.82470703125 56.49600451242278 49.091796875 56.49600451242278Q48.4951171875 56.49600451242278 47.876220703125 56.39444201242278Q47.25732421875 56.29287951242278 46.59716796875 56.08975451242278V54.80118029367278Q47.16845703125 55.11221544992278 47.77783203125 55.26455919992278Q48.38720703125 55.41690294992278 49.06640625 55.41690294992278Q50.16455078125 55.41690294992278 50.8056640625 54.83926623117278Q51.44677734375 54.26162951242278 51.44677734375 53.27139513742278Q51.44677734375 52.28116076242278 50.8056640625 51.70352404367278Q50.16455078125 51.12588732492278 49.06640625 51.12588732492278Q48.55224609375 51.12588732492278 48.041259765625 51.24014513742278Q47.5302734375 51.35440294992278 46.9970703125 51.59561388742278Z" fill="#000"/><line x1="19.00" x2="23.50" y1="36.04" y2="36.04" stroke="#000000" stroke-width="1.00"/><path d="M32.63232421875 31.28938234956339Q31.64208984375 31.28938234956339 31.143798828125 32.26374758393839Q30.6455078125 33.23811281831339 30.6455078125 35.19319094331339Q30.6455078125 37.14192141206339 31.143798828125 38.11628664643839Q31.64208984375 39.09065188081339 32.63232421875 39.09065188081339Q33.62890625 39.09065188081339 34.127197265625 38.11628664643839Q34.62548828125 37.14192141206339 34.62548828125 35.19319094331339Q34.62548828125 33.23811281831339 34.127197265625 32.26374758393839Q33.62890625 31.28938234956339 32.63232421875 31.28938234956339ZM32.63232421875 30.27375734956339Q34.2255859375 30.27375734956339 35.066650390625 31.53376711518839Q35.90771484375 32.79377688081339 35.90771484375 35.19319094331339Q35.90771484375 37.58625734956339 35.066650390625 38.84626711518839Q34.2255859375 40.10627688081339 32.63232421875 40.10627688081339Q31.0390625 40.10627688081339 30.197998046875 38.84626711518839Q29.35693359375 37.58625734956339 29.35693359375 35.19319094331339Q29.35693359375 32.79377688081339 30.197998046875 31.53376711518839Q31.0390625 30.27375734956339 32.63232421875 30.27375734956339Z" fill="#000"/><line x1="19.00" x2="23.50" y1="17.54" y2="17.54" stroke="#000000" stroke-width="1.00"/><path d="M32.63232421875 14.899654717954004Q31.64208984375 14.899654717954004 31.143798828125 15.874019952329004Q30.6455078125 16.848385186704004 30.6455078125 18.803463311704004Q30.6455078125 20.752193780454004 31.143798828125 21.726559014829004Q31.64208984375 22.700924249204004 32.63232421875 22.700924249204004Q33.62890625 22.700924249204004 34.127197265625 21.726559014829004Q34.62548828125 20.752193780454004 34.62548828125 18.803463311704004Q34.62548828125 16.848385186704004 34.127197265625 15.874019952329004Q33.62890625 14.899654717954004 32.63232421875 14.899654717954004ZM32.63232421875 13.884029717954004Q34.2255859375 13.884029717954004 35.066650390625 15.144039483579004Q35.90771484375 16.404049249204004 35.90771484375 18.803463311704004Q35.90771484375 21.196529717954004 35.066650390625 22.456539483579004Q34.2255859375 23.716549249204004 32.63232421875 23.716549249204004Q31.0390625 23.716549249204004 30.197998046875 22.456539483579004Q29.35693359375 21.196529717954004 29.35693359375 18.803463311704004Q29.35693359375 16.404049249204004 30.197998046875 15.144039483579004Q31.0390625 13.884029717954004 32.63232421875 13.884029717954004ZM38.1611328125 21.920162530454004H39.50048828125V23.532467217954004H38.1611328125ZM42.30615234375 14.055416436704004H47.33984375V15.134517999204004H43.48046875V17.457760186704004Q43.759765625 17.362545342954004 44.0390625 17.314937921079004Q44.318359375 17.267330499204004 44.59765625 17.267330499204004Q46.1845703125 17.267330499204004 47.111328125 18.136959405454004Q48.0380859375 19.006588311704004 48.0380859375 20.491939874204004Q48.0380859375 22.021725030454004 47.0859375 22.869137139829004Q46.1337890625 23.716549249204004 44.40087890625 23.716549249204004Q43.80419921875 23.716549249204004 43.185302734375 23.614986749204004Q42.56640625 23.513424249204004 41.90625 23.310299249204004V22.021725030454004Q42.4775390625 22.332760186704004 43.0869140625 22.485103936704004Q43.6962890625 22.637447686704004 44.37548828125 22.637447686704004Q45.4736328125 22.637447686704004 46.11474609375 22.059810967954004Q46.755859375 21.482174249204004 46.755859375 20.491939874204004Q46.755859375 19.501705499204004 46.11474609375 18.924068780454004Q45.4736328125 18.346432061704004 44.37548828125 18.346432061704004Q43.861328125 18.346432061704004 43.350341796875 18.460689874204004Q42.83935546875 18.574947686704004 42.30615234375 18.816158624204004Z" fill="#000"/></g></g></svg>