<svg xmlns="http://www.w3.org/2000/svg" width="616" height="381" viewBox="0 0 616 381" font-family="DejaVu Sans, Bitstream Vera Sans, Verdana, Arial, sans-serif" font-size="11" style="background:#fff" data-plotlet-version="0.5.5" data-plotlet-schema="2" data-plotlet-kind="layout"><g transform="translate(4,4)"><g transform="translate(30.00,29.00)" data-plotlet-kind="panel" data-plotlet-title="imshow (custom annot, fixed color)" data-plotlet-xscale="linear" data-plotlet-yscale="linear" data-plotlet-xlim="0,4" data-plotlet-ylim="0,3" data-plotlet-yflip="true" data-plotlet-panel-bbox="4,4,608,373" data-plotlet-data-area="30,29,524,322"><svg x="0" y="0" width="524" height="322" overflow="hidden"><g class="plotlet-artist" data-plotlet-type="imshow" data-plotlet-index="0" data-plotlet-rows="3" data-plotlet-cols="4" data-plotlet-vmin="0" data-plotlet-vmax="5" data-plotlet-cmap="viridis" data-plotlet-data-encoding="rects" data-plotlet-origin="upper" data-plotlet-annot="custom"><rect x="0.00" y="0.00" width="131.00" height="107.33" fill="rgb(68,1,84)"/><rect x="131.00" y="0.00" width="131.00" height="107.33" fill="rgb(65,68,135)"/><rect x="262.00" y="0.00" width="131.00" height="107.33" fill="rgb(42,120,142)"/><rect x="393.00" y="0.00" width="131.00" height="107.33" fill="rgb(34,168,132)"/><rect x="0.00" y="107.33" width="131.00" height="107.33" fill="rgb(65,68,135)"/><rect x="131.00" y="107.33" width="131.00" height="107.33" fill="rgb(42,120,142)"/><rect x="262.00" y="107.33" width="131.00" height="107.33" fill="rgb(34,168,132)"/><rect x="393.00" y="107.33" width="131.00" height="107.33" fill="rgb(122,209,81)"/><rect x="0.00" y="214.67" width="131.00" height="107.33" fill="rgb(42,120,142)"/><rect x="131.00" y="214.67" width="131.00" height="107.33" fill="rgb(34,168,132)"/><rect x="262.00" y="214.67" width="131.00" height="107.33" fill="rgb(122,209,81)"/><rect x="393.00" y="214.67" width="131.00" height="107.33" fill="rgb(253,231,37)"/><path d="M65.94 54.37Q64.63 54.37 64.13 54.67Q63.62 54.97 63.62 55.69Q63.62 56.26 64.00 56.60Q64.38 56.93 65.03 56.93Q65.92 56.93 66.47 56.30Q67.01 55.66 67.01 54.61V54.37ZM68.09 53.92V57.67H67.01V56.67Q66.64 57.27 66.09 57.55Q65.54 57.84 64.74 57.84Q63.73 57.84 63.14 57.27Q62.54 56.71 62.54 55.76Q62.54 54.65 63.29 54.09Q64.03 53.52 65.50 53.52H67.01V53.42Q67.01 52.67 66.52 52.27Q66.03 51.86 65.15 51.86Q64.58 51.86 64.05 51.99Q63.52 52.13 63.02 52.40V51.40Q63.62 51.17 64.17 51.06Q64.73 50.95 65.26 50.95Q66.68 50.95 67.38 51.68Q68.09 52.42 68.09 53.92Z" fill="#222222"/><path d="M198.53 54.39Q198.53 53.20 198.04 52.53Q197.55 51.85 196.70 51.85Q195.84 51.85 195.35 52.53Q194.87 53.20 194.87 54.39Q194.87 55.58 195.35 56.26Q195.84 56.93 196.70 56.93Q197.55 56.93 198.04 56.26Q198.53 55.58 198.53 54.39ZM194.87 52.10Q195.21 51.51 195.72 51.23Q196.24 50.95 196.96 50.95Q198.16 50.95 198.91 51.90Q199.65 52.84 199.65 54.39Q199.65 55.94 198.91 56.89Q198.16 57.84 196.96 57.84Q196.24 57.84 195.72 57.55Q195.21 57.27 194.87 56.68V57.67H193.78V48.55H194.87Z" fill="#222222"/><path d="M330.05 51.36V52.36Q329.60 52.11 329.14 51.99Q328.68 51.86 328.21 51.86Q327.16 51.86 326.58 52.53Q326.00 53.19 326.00 54.39Q326.00 55.59 326.58 56.26Q327.16 56.92 328.21 56.92Q328.68 56.92 329.14 56.80Q329.60 56.67 330.05 56.42V57.41Q329.60 57.63 329.12 57.73Q328.64 57.84 328.09 57.84Q326.61 57.84 325.74 56.90Q324.86 55.97 324.86 54.39Q324.86 52.79 325.75 51.87Q326.63 50.95 328.16 50.95Q328.66 50.95 329.13 51.05Q329.61 51.15 330.05 51.36Z" fill="#222222"/><path d="M460.14 52.10V48.55H461.22V57.67H460.14V56.68Q459.80 57.27 459.28 57.55Q458.76 57.84 458.04 57.84Q456.85 57.84 456.10 56.89Q455.35 55.94 455.35 54.39Q455.35 52.84 456.10 51.90Q456.85 50.95 458.04 50.95Q458.76 50.95 459.28 51.23Q459.80 51.51 460.14 52.10ZM456.47 54.39Q456.47 55.58 456.96 56.26Q457.45 56.93 458.30 56.93Q459.16 56.93 459.65 56.26Q460.14 55.58 460.14 54.39Q460.14 53.20 459.65 52.53Q459.16 51.85 458.30 51.85Q457.45 51.85 456.96 52.53Q456.47 53.20 456.47 54.39Z" fill="#222222"/><path d="M57.45 164.00H59.38V157.33L57.28 157.75V156.67L59.37 156.25H60.55V164.00H62.49V165.00H57.45ZM64.88 163.51H66.11V165.00H64.88ZM71.22 157.03Q70.31 157.03 69.85 157.93Q69.39 158.83 69.39 160.63Q69.39 162.43 69.85 163.33Q70.31 164.23 71.22 164.23Q72.14 164.23 72.60 163.33Q73.06 162.43 73.06 160.63Q73.06 158.83 72.60 157.93Q72.14 157.03 71.22 157.03ZM71.22 156.09Q72.69 156.09 73.47 157.26Q74.25 158.42 74.25 160.63Q74.25 162.84 73.47 164.01Q72.69 165.17 71.22 165.17Q69.75 165.17 68.97 164.01Q68.20 162.84 68.20 160.63Q68.20 158.42 68.97 157.26Q69.75 156.09 71.22 156.09Z" fill="#222222"/><path d="M189.26 164.00H193.39V165.00H187.84V164.00Q188.51 163.31 189.67 162.13Q190.84 160.96 191.14 160.62Q191.70 159.98 191.93 159.54Q192.16 159.09 192.16 158.67Q192.16 157.97 191.67 157.53Q191.18 157.09 190.39 157.09Q189.83 157.09 189.22 157.28Q188.60 157.48 187.90 157.87V156.67Q188.61 156.39 189.23 156.24Q189.85 156.09 190.37 156.09Q191.73 156.09 192.54 156.77Q193.34 157.45 193.34 158.59Q193.34 159.13 193.14 159.61Q192.94 160.10 192.41 160.75Q192.26 160.92 191.48 161.73Q190.69 162.54 189.26 164.00ZM195.88 163.51H197.11V165.00H195.88ZM199.70 156.25H204.35V157.25H200.79V159.39Q201.04 159.30 201.30 159.26Q201.56 159.22 201.82 159.22Q203.28 159.22 204.14 160.02Q204.99 160.82 204.99 162.19Q204.99 163.61 204.11 164.39Q203.24 165.17 201.64 165.17Q201.08 165.17 200.51 165.08Q199.94 164.98 199.33 164.79V163.61Q199.86 163.89 200.42 164.03Q200.99 164.17 201.61 164.17Q202.63 164.17 203.22 163.64Q203.81 163.11 203.81 162.19Q203.81 161.28 203.22 160.75Q202.63 160.21 201.61 160.21Q201.14 160.21 200.67 160.32Q200.19 160.42 199.70 160.65Z" fill="#222222"/><path d="M322.83 160.28Q323.68 160.46 324.15 161.04Q324.63 161.61 324.63 162.46Q324.63 163.75 323.74 164.46Q322.85 165.17 321.21 165.17Q320.66 165.17 320.08 165.06Q319.49 164.95 318.87 164.74V163.59Q319.36 163.88 319.95 164.03Q320.54 164.17 321.17 164.17Q322.29 164.17 322.87 163.73Q323.45 163.29 323.45 162.46Q323.45 161.68 322.91 161.25Q322.37 160.81 321.40 160.81H320.38V159.84H321.45Q322.32 159.84 322.79 159.49Q323.25 159.14 323.25 158.48Q323.25 157.81 322.77 157.45Q322.29 157.09 321.40 157.09Q320.92 157.09 320.36 157.20Q319.80 157.30 319.14 157.52V156.47Q319.81 156.28 320.40 156.19Q320.99 156.09 321.51 156.09Q322.86 156.09 323.64 156.71Q324.43 157.32 324.43 158.36Q324.43 159.09 324.01 159.59Q323.59 160.09 322.83 160.28ZM326.88 163.51H328.11V165.00H326.88ZM333.22 160.85Q332.38 160.85 331.89 161.30Q331.41 161.75 331.41 162.54Q331.41 163.33 331.89 163.78Q332.38 164.23 333.22 164.23Q334.07 164.23 334.55 163.78Q335.04 163.32 335.04 162.54Q335.04 161.75 334.55 161.30Q334.07 160.85 333.22 160.85ZM332.04 160.34Q331.28 160.15 330.85 159.63Q330.43 159.11 330.43 158.36Q330.43 157.31 331.17 156.70Q331.92 156.09 333.22 156.09Q334.53 156.09 335.27 156.70Q336.02 157.31 336.02 158.36Q336.02 159.11 335.59 159.63Q335.17 160.15 334.41 160.34Q335.27 160.54 335.74 161.12Q336.22 161.70 336.22 162.54Q336.22 163.81 335.45 164.49Q334.67 165.17 333.22 165.17Q331.77 165.17 331.00 164.49Q330.22 163.81 330.22 162.54Q330.22 161.70 330.70 161.12Q331.18 160.54 332.04 160.34ZM331.60 158.47Q331.60 159.15 332.03 159.53Q332.45 159.91 333.22 159.91Q333.98 159.91 334.41 159.53Q334.84 159.15 334.84 158.47Q334.84 157.79 334.41 157.41Q333.98 157.03 333.22 157.03Q332.45 157.03 332.03 157.41Q331.60 157.79 331.60 158.47Z" fill="#222222"/><path d="M453.49 157.28 450.50 161.95H453.49ZM453.18 156.25H454.67V161.95H455.92V162.94H454.67V165.00H453.49V162.94H449.54V161.79ZM457.88 163.51H459.11V165.00H457.88ZM461.90 164.00H463.83V157.33L461.73 157.75V156.67L463.82 156.25H465.00V164.00H466.93V165.00H461.90Z" fill="#222222"/><path d="M68.54 265.77 66.16 268.96 68.66 272.33H67.39L65.48 269.76L63.57 272.33H62.29L64.84 268.90L62.51 265.77H63.78L65.52 268.11L67.26 265.77Z" fill="#222222"/><path d="M196.81 272.94Q196.35 274.11 195.92 274.47Q195.49 274.83 194.76 274.83H193.90V273.93H194.53Q194.98 273.93 195.22 273.72Q195.47 273.51 195.77 272.72L195.96 272.23L193.31 265.77H194.45L196.50 270.90L198.55 265.77H199.69Z" fill="#222222"/><path d="M325.01 265.77H330.13V266.76L326.08 271.47H330.13V272.33H324.87V271.35L328.92 266.63H325.01Z" fill="#222222"/><path d="M454.10 265.77H455.17L456.52 270.89L457.86 265.77H459.14L460.48 270.89L461.83 265.77H462.90L461.19 272.33H459.92L458.50 266.95L457.08 272.33H455.81Z" fill="#222222"/></g></svg><line x1="0.00" x2="524.00" y1="0.00" y2="0.00" stroke="#000000" stroke-width="1.00"/><line x1="0.00" x2="524.00" y1="322.00" y2="322.00" stroke="#000000" stroke-width="1.00"/><line x1="0.00" x2="0.00" y1="0.00" y2="322.00" stroke="#000000" stroke-width="1.00"/><line x1="524.00" x2="524.00" y1="0.00" y2="322.00" stroke="#000000" stroke-width="1.00"/><line x1="0.00" x2="0.00" y1="322.00" y2="326.50" stroke="#000000" stroke-width="1.00"/><path d="M-0.00 332.34Q-0.99 332.34 -1.49 333.32Q-1.99 334.29 -1.99 336.25Q-1.99 338.20 -1.49 339.17Q-0.99 340.15 -0.00 340.15Q0.99 340.15 1.49 339.17Q1.99 338.20 1.99 336.25Q1.99 334.29 1.49 333.32Q0.99 332.34 -0.00 332.34ZM-0.00 331.33Q1.59 331.33 2.43 332.59Q3.27 333.85 3.27 336.25Q3.27 338.64 2.43 339.90Q1.59 341.16 -0.00 341.16Q-1.60 341.16 -2.44 339.90Q-3.28 338.64 -3.28 336.25Q-3.28 333.85 -2.44 332.59Q-1.60 331.33 -0.00 331.33Z" fill="#000"/><line x1="65.50" x2="65.50" y1="322.00" y2="326.50" stroke="#000000" stroke-width="1.00"/><path d="M59.30 332.34Q58.30 332.34 57.81 333.32Q57.31 334.29 57.31 336.25Q57.31 338.20 57.81 339.17Q58.30 340.15 59.30 340.15Q60.29 340.15 60.79 339.17Q61.29 338.20 61.29 336.25Q61.29 334.29 60.79 333.32Q60.29 332.34 59.30 332.34ZM59.30 331.33Q60.89 331.33 61.73 332.59Q62.57 333.85 62.57 336.25Q62.57 338.64 61.73 339.90Q60.89 341.16 59.30 341.16Q57.70 341.16 56.86 339.90Q56.02 338.64 56.02 336.25Q56.02 333.85 56.86 332.59Q57.70 331.33 59.30 331.33ZM64.82 339.36H66.16V340.98H64.82ZM68.97 331.50H74.00V332.58H70.14V334.90Q70.42 334.81 70.70 334.76Q70.98 334.71 71.26 334.71Q72.85 334.71 73.77 335.58Q74.70 336.45 74.70 337.94Q74.70 339.47 73.75 340.31Q72.80 341.16 71.06 341.16Q70.47 341.16 69.85 341.06Q69.23 340.96 68.57 340.75V339.47Q69.14 339.78 69.75 339.93Q70.36 340.08 71.04 340.08Q72.14 340.08 72.78 339.50Q73.42 338.93 73.42 337.94Q73.42 336.95 72.78 336.37Q72.14 335.79 71.04 335.79Q70.52 335.79 70.01 335.91Q69.50 336.02 68.97 336.26Z" fill="#000"/><line x1="131.00" x2="131.00" y1="322.00" y2="326.50" stroke="#000000" stroke-width="1.00"/><path d="M128.48 339.90H130.57V332.67L128.29 333.12V331.96L130.56 331.50H131.84V339.90H133.94V340.98H128.48Z" fill="#000"/><line x1="196.50" x2="196.50" y1="322.00" y2="326.50" stroke="#000000" stroke-width="1.00"/><path d="M187.78 339.90H189.87V332.67L187.59 333.12V331.96L189.86 331.50H191.14V339.90H193.23V340.98H187.78ZM195.82 339.36H197.16V340.98H195.82ZM199.97 331.50H205.00V332.58H201.14V334.90Q201.42 334.81 201.70 334.76Q201.98 334.71 202.26 334.71Q203.85 334.71 204.77 335.58Q205.70 336.45 205.70 337.94Q205.70 339.47 204.75 340.31Q203.80 341.16 202.06 341.16Q201.47 341.16 200.85 341.06Q200.23 340.96 199.57 340.75V339.47Q200.14 339.78 200.75 339.93Q201.36 340.08 202.04 340.08Q203.14 340.08 203.78 339.50Q204.42 338.93 204.42 337.94Q204.42 336.95 203.78 336.37Q203.14 335.79 202.04 335.79Q201.52 335.79 201.01 335.91Q200.50 336.02 199.97 336.26Z" fill="#000"/><line x1="262.00" x2="262.00" y1="322.00" y2="326.50" stroke="#000000" stroke-width="1.00"/><path d="M260.36 339.90H264.83V340.98H258.82V339.90Q259.55 339.14 260.81 337.87Q262.07 336.60 262.39 336.23Q263.01 335.54 263.25 335.06Q263.49 334.58 263.49 334.12Q263.49 333.36 262.96 332.88Q262.43 332.41 261.58 332.41Q260.98 332.41 260.31 332.62Q259.64 332.83 258.88 333.25V331.96Q259.65 331.65 260.33 331.49Q261.00 331.33 261.56 331.33Q263.03 331.33 263.91 332.06Q264.78 332.80 264.78 334.03Q264.78 334.62 264.56 335.14Q264.35 335.66 263.77 336.38Q263.61 336.56 262.76 337.44Q261.91 338.32 260.36 339.90Z" fill="#000"/><line x1="327.50" x2="327.50" y1="322.00" y2="326.50" stroke="#000000" stroke-width="1.00"/><path d="M319.66 339.90H324.13V340.98H318.11V339.90Q318.84 339.14 320.10 337.87Q321.36 336.60 321.69 336.23Q322.30 335.54 322.55 335.06Q322.79 334.58 322.79 334.12Q322.79 333.36 322.26 332.88Q321.73 332.41 320.88 332.41Q320.28 332.41 319.61 332.62Q318.94 332.83 318.18 333.25V331.96Q318.95 331.65 319.63 331.49Q320.30 331.33 320.86 331.33Q322.33 331.33 323.21 332.06Q324.08 332.80 324.08 334.03Q324.08 334.62 323.86 335.14Q323.64 335.66 323.07 336.38Q322.91 336.56 322.06 337.44Q321.21 338.32 319.66 339.90ZM326.82 339.36H328.16V340.98H326.82ZM330.97 331.50H336.00V332.58H332.14V334.90Q332.42 334.81 332.70 334.76Q332.98 334.71 333.26 334.71Q334.85 334.71 335.77 335.58Q336.70 336.45 336.70 337.94Q336.70 339.47 335.75 340.31Q334.80 341.16 333.06 341.16Q332.47 341.16 331.85 341.06Q331.23 340.96 330.57 340.75V339.47Q331.14 339.78 331.75 339.93Q332.36 340.08 333.04 340.08Q334.14 340.08 334.78 339.50Q335.42 338.93 335.42 337.94Q335.42 336.95 334.78 336.37Q334.14 335.79 333.04 335.79Q332.52 335.79 332.01 335.91Q331.50 336.02 330.97 336.26Z" fill="#000"/><line x1="393.00" x2="393.00" y1="322.00" y2="326.50" stroke="#000000" stroke-width="1.00"/><path d="M394.14 335.87Q395.06 336.06 395.58 336.69Q396.09 337.31 396.09 338.22Q396.09 339.62 395.13 340.39Q394.16 341.16 392.39 341.16Q391.79 341.16 391.16 341.04Q390.53 340.93 389.85 340.69V339.45Q390.39 339.76 391.02 339.92Q391.66 340.08 392.35 340.08Q393.56 340.08 394.19 339.61Q394.82 339.13 394.82 338.22Q394.82 337.38 394.23 336.91Q393.64 336.44 392.60 336.44H391.49V335.38H392.65Q393.59 335.38 394.09 335.01Q394.60 334.63 394.60 333.92Q394.60 333.19 394.08 332.80Q393.56 332.41 392.60 332.41Q392.07 332.41 391.47 332.52Q390.86 332.64 390.14 332.88V331.73Q390.87 331.53 391.51 331.43Q392.15 331.33 392.71 331.33Q394.17 331.33 395.02 331.99Q395.87 332.66 395.87 333.79Q395.87 334.57 395.42 335.11Q394.97 335.66 394.14 335.87Z" fill="#000"/><line x1="458.50" x2="458.50" y1="322.00" y2="326.50" stroke="#000000" stroke-width="1.00"/><path d="M453.44 335.87Q454.36 336.06 454.88 336.69Q455.39 337.31 455.39 338.22Q455.39 339.62 454.43 340.39Q453.46 341.16 451.69 341.16Q451.09 341.16 450.46 341.04Q449.83 340.93 449.15 340.69V339.45Q449.69 339.76 450.32 339.92Q450.96 340.08 451.65 340.08Q452.85 340.08 453.49 339.61Q454.12 339.13 454.12 338.22Q454.12 337.38 453.53 336.91Q452.94 336.44 451.90 336.44H450.79V335.38H451.95Q452.89 335.38 453.39 335.01Q453.89 334.63 453.89 333.92Q453.89 333.19 453.38 332.80Q452.86 332.41 451.90 332.41Q451.37 332.41 450.77 332.52Q450.16 332.64 449.44 332.88V331.73Q450.17 331.53 450.81 331.43Q451.44 331.33 452.01 331.33Q453.47 331.33 454.32 331.99Q455.17 332.66 455.17 333.79Q455.17 334.57 454.72 335.11Q454.27 335.66 453.44 335.87ZM457.82 339.36H459.16V340.98H457.82ZM461.97 331.50H467.00V332.58H463.14V334.90Q463.42 334.81 463.70 334.76Q463.98 334.71 464.26 334.71Q465.85 334.71 466.77 335.58Q467.70 336.45 467.70 337.94Q467.70 339.47 466.75 340.31Q465.80 341.16 464.06 341.16Q463.47 341.16 462.85 341.06Q462.23 340.96 461.57 340.75V339.47Q462.14 339.78 462.75 339.93Q463.36 340.08 464.04 340.08Q465.14 340.08 465.78 339.50Q466.42 338.93 466.42 337.94Q466.42 336.95 465.78 336.37Q465.14 335.79 464.04 335.79Q463.52 335.79 463.01 335.91Q462.50 336.02 461.97 336.26Z" fill="#000"/><line x1="524.00" x2="524.00" y1="322.00" y2="326.50" stroke="#000000" stroke-width="1.00"/><path d="M524.78 332.62 521.54 337.68H524.78ZM524.44 331.50H526.05V337.68H527.41V338.74H526.05V340.98H524.78V338.74H520.50V337.50Z" fill="#000"/><line x1="0.00" x2="-4.50" y1="0.00" y2="0.00" stroke="#000000" stroke-width="1.00"/><path d="M-13.64 -3.89Q-14.63 -3.89 -15.13 -2.92Q-15.63 -1.95 -15.63 0.01Q-15.63 1.96 -15.13 2.93Q-14.63 3.91 -13.64 3.91Q-12.64 3.91 -12.14 2.93Q-11.65 1.96 -11.65 0.01Q-11.65 -1.95 -12.14 -2.92Q-12.64 -3.89 -13.64 -3.89ZM-13.64 -4.91Q-12.05 -4.91 -11.20 -3.65Q-10.36 -2.39 -10.36 0.01Q-10.36 2.40 -11.20 3.66Q-12.05 4.92 -13.64 4.92Q-15.23 4.92 -16.07 3.66Q-16.91 2.40 -16.91 0.01Q-16.91 -2.39 -16.07 -3.65Q-15.23 -4.91 -13.64 -4.91Z" fill="#000"/><line x1="0.00" x2="-4.50" y1="53.67" y2="53.67" stroke="#000000" stroke-width="1.00"/><path d="M-26.04 49.77Q-27.03 49.77 -27.53 50.75Q-28.03 51.72 -28.03 53.68Q-28.03 55.62 -27.53 56.60Q-27.03 57.57 -26.04 57.57Q-25.05 57.57 -24.55 56.60Q-24.05 55.62 -24.05 53.68Q-24.05 51.72 -24.55 50.75Q-25.05 49.77 -26.04 49.77ZM-26.04 48.76Q-24.45 48.76 -23.61 50.02Q-22.77 51.28 -22.77 53.68Q-22.77 56.07 -23.61 57.33Q-24.45 58.59 -26.04 58.59Q-27.64 58.59 -28.48 57.33Q-29.32 56.07 -29.32 53.68Q-29.32 51.28 -28.48 50.02Q-27.64 48.76 -26.04 48.76ZM-20.51 56.79H-19.17V58.41H-20.51ZM-16.37 48.93H-11.33V50.01H-15.19V52.33Q-14.91 52.24 -14.64 52.19Q-14.36 52.14 -14.08 52.14Q-12.49 52.14 -11.56 53.01Q-10.64 53.88 -10.64 55.36Q-10.64 56.89 -11.59 57.74Q-12.54 58.59 -14.27 58.59Q-14.87 58.59 -15.49 58.49Q-16.11 58.39 -16.77 58.18V56.89Q-16.20 57.21 -15.59 57.36Q-14.98 57.51 -14.30 57.51Q-13.20 57.51 -12.56 56.93Q-11.92 56.35 -11.92 55.36Q-11.92 54.37 -12.56 53.80Q-13.20 53.22 -14.30 53.22Q-14.81 53.22 -15.32 53.33Q-15.83 53.45 -16.37 53.69Z" fill="#000"/><line x1="0.00" x2="-4.50" y1="107.33" y2="107.33" stroke="#000000" stroke-width="1.00"/><path d="M-16.16 110.99H-14.06V103.76L-16.34 104.22V103.05L-14.08 102.59H-12.79V110.99H-10.70V112.07H-16.16Z" fill="#000"/><line x1="0.00" x2="-4.50" y1="161.00" y2="161.00" stroke="#000000" stroke-width="1.00"/><path d="M-28.56 164.66H-26.47V157.43L-28.75 157.89V156.72L-26.48 156.26H-25.20V164.66H-23.10V165.74H-28.56ZM-20.51 164.13H-19.17V165.74H-20.51ZM-16.37 156.26H-11.33V157.34H-15.19V159.66Q-14.91 159.57 -14.64 159.52Q-14.36 159.47 -14.08 159.47Q-12.49 159.47 -11.56 160.34Q-10.64 161.21 -10.64 162.70Q-10.64 164.23 -11.59 165.08Q-12.54 165.92 -14.27 165.92Q-14.87 165.92 -15.49 165.82Q-16.11 165.72 -16.77 165.52V164.23Q-16.20 164.54 -15.59 164.69Q-14.98 164.84 -14.30 164.84Q-13.20 164.84 -12.56 164.27Q-11.92 163.69 -11.92 162.70Q-11.92 161.71 -12.56 161.13Q-13.20 160.55 -14.30 160.55Q-14.81 160.55 -15.32 160.67Q-15.83 160.78 -16.37 161.02Z" fill="#000"/><line x1="0.00" x2="-4.50" y1="214.67" y2="214.67" stroke="#000000" stroke-width="1.00"/><path d="M-15.28 218.33H-10.80V219.41H-16.82V218.33Q-16.09 217.57 -14.83 216.30Q-13.57 215.03 -13.25 214.66Q-12.63 213.97 -12.39 213.49Q-12.14 213.01 -12.14 212.54Q-12.14 211.79 -12.67 211.31Q-13.20 210.84 -14.05 210.84Q-14.65 210.84 -15.32 211.05Q-15.99 211.25 -16.76 211.68V210.39Q-15.98 210.07 -15.31 209.92Q-14.64 209.76 -14.08 209.76Q-12.60 209.76 -11.73 210.49Q-10.85 211.23 -10.85 212.46Q-10.85 213.04 -11.07 213.57Q-11.29 214.09 -11.87 214.80Q-12.03 214.99 -12.88 215.87Q-13.73 216.75 -15.28 218.33Z" fill="#000"/><line x1="0.00" x2="-4.50" y1="268.33" y2="268.33" stroke="#000000" stroke-width="1.00"/><path d="M-27.68 271.99H-23.20V273.07H-29.22V271.99Q-28.49 271.24 -27.23 269.96Q-25.97 268.69 -25.65 268.32Q-25.03 267.63 -24.79 267.15Q-24.54 266.67 -24.54 266.21Q-24.54 265.45 -25.07 264.98Q-25.60 264.50 -26.45 264.50Q-27.06 264.50 -27.73 264.71Q-28.40 264.92 -29.16 265.35V264.05Q-28.38 263.74 -27.71 263.58Q-27.04 263.42 -26.48 263.42Q-25.01 263.42 -24.13 264.16Q-23.26 264.90 -23.26 266.13Q-23.26 266.71 -23.47 267.24Q-23.69 267.76 -24.27 268.47Q-24.43 268.65 -25.28 269.53Q-26.13 270.41 -27.68 271.99ZM-20.51 271.46H-19.17V273.07H-20.51ZM-16.37 263.59H-11.33V264.67H-15.19V267.00Q-14.91 266.90 -14.64 266.85Q-14.36 266.81 -14.08 266.81Q-12.49 266.81 -11.56 267.68Q-10.64 268.55 -10.64 270.03Q-10.64 271.56 -11.59 272.41Q-12.54 273.26 -14.27 273.26Q-14.87 273.26 -15.49 273.15Q-16.11 273.05 -16.77 272.85V271.56Q-16.20 271.87 -15.59 272.02Q-14.98 272.18 -14.30 272.18Q-13.20 272.18 -12.56 271.60Q-11.92 271.02 -11.92 270.03Q-11.92 269.04 -12.56 268.46Q-13.20 267.89 -14.30 267.89Q-14.81 267.89 -15.32 268.00Q-15.83 268.11 -16.37 268.36Z" fill="#000"/><line x1="0.00" x2="-4.50" y1="322.00" y2="322.00" stroke="#000000" stroke-width="1.00"/><path d="M-12.50 321.63Q-11.58 321.83 -11.06 322.45Q-10.54 323.07 -10.54 323.98Q-10.54 325.39 -11.51 326.15Q-12.47 326.92 -14.25 326.92Q-14.84 326.92 -15.48 326.81Q-16.11 326.69 -16.78 326.45V325.22Q-16.25 325.53 -15.61 325.68Q-14.98 325.84 -14.29 325.84Q-13.08 325.84 -12.45 325.37Q-11.82 324.89 -11.82 323.98Q-11.82 323.15 -12.40 322.67Q-12.99 322.20 -14.04 322.20H-15.14V321.15H-13.99Q-13.04 321.15 -12.54 320.77Q-12.04 320.39 -12.04 319.68Q-12.04 318.95 -12.56 318.56Q-13.07 318.17 -14.04 318.17Q-14.57 318.17 -15.17 318.28Q-15.77 318.40 -16.50 318.64V317.50Q-15.77 317.29 -15.13 317.19Q-14.49 317.09 -13.92 317.09Q-12.46 317.09 -11.61 317.75Q-10.76 318.42 -10.76 319.55Q-10.76 320.33 -11.21 320.88Q-11.66 321.42 -12.50 321.63Z" fill="#000"/><path d="M121.85 -25.52H123.29V-16.77H121.85ZM121.85 -28.93H123.29V-27.11H121.85ZM133.11 -23.84Q133.65 -24.81 134.40 -25.27Q135.15 -25.73 136.16 -25.73Q137.53 -25.73 138.27 -24.78Q139.02 -23.82 139.02 -22.05V-16.77H137.57V-22.01Q137.57 -23.27 137.12 -23.88Q136.68 -24.48 135.77 -24.48Q134.65 -24.48 134.00 -23.74Q133.35 -23.00 133.35 -21.72V-16.77H131.91V-22.01Q131.91 -23.27 131.46 -23.88Q131.02 -24.48 130.09 -24.48Q128.98 -24.48 128.34 -23.74Q127.69 -22.99 127.69 -21.72V-16.77H126.24V-25.52H127.69V-24.16Q128.18 -24.97 128.87 -25.35Q129.55 -25.73 130.50 -25.73Q131.45 -25.73 132.12 -25.25Q132.79 -24.77 133.11 -23.84ZM147.46 -25.27V-23.91Q146.85 -24.22 146.20 -24.38Q145.54 -24.53 144.84 -24.53Q143.77 -24.53 143.23 -24.20Q142.70 -23.88 142.70 -23.22Q142.70 -22.72 143.08 -22.43Q143.46 -22.15 144.62 -21.89L145.11 -21.78Q146.64 -21.45 147.29 -20.86Q147.93 -20.26 147.93 -19.19Q147.93 -17.97 146.96 -17.26Q146.00 -16.55 144.31 -16.55Q143.61 -16.55 142.85 -16.68Q142.09 -16.82 141.24 -17.09V-18.58Q142.04 -18.16 142.81 -17.96Q143.59 -17.75 144.34 -17.75Q145.36 -17.75 145.91 -18.10Q146.45 -18.45 146.45 -19.08Q146.45 -19.66 146.06 -19.98Q145.66 -20.29 144.33 -20.58L143.83 -20.70Q142.49 -20.98 141.90 -21.56Q141.30 -22.14 141.30 -23.16Q141.30 -24.39 142.18 -25.06Q143.05 -25.73 144.66 -25.73Q145.46 -25.73 146.16 -25.62Q146.87 -25.50 147.46 -25.27ZM157.49 -22.05V-16.77H156.05V-22.01Q156.05 -23.25 155.57 -23.87Q155.09 -24.48 154.12 -24.48Q152.95 -24.48 152.28 -23.74Q151.61 -23.00 151.61 -21.72V-16.77H150.16V-28.93H151.61V-24.16Q152.12 -24.95 152.82 -25.34Q153.52 -25.73 154.44 -25.73Q155.95 -25.73 156.72 -24.80Q157.49 -23.87 157.49 -22.05ZM163.75 -24.52Q162.59 -24.52 161.92 -23.61Q161.25 -22.71 161.25 -21.14Q161.25 -19.57 161.92 -18.67Q162.59 -17.77 163.75 -17.77Q164.90 -17.77 165.57 -18.67Q166.24 -19.58 166.24 -21.14Q166.24 -22.70 165.57 -23.61Q164.90 -24.52 163.75 -24.52ZM163.75 -25.73Q165.62 -25.73 166.70 -24.52Q167.77 -23.30 167.77 -21.14Q167.77 -18.99 166.70 -17.77Q165.62 -16.55 163.75 -16.55Q161.87 -16.55 160.80 -17.77Q159.73 -18.99 159.73 -21.14Q159.73 -23.30 160.80 -24.52Q161.87 -25.73 163.75 -25.73ZM169.31 -25.52H170.75L172.55 -18.70L174.34 -25.52H176.03L177.83 -18.70L179.62 -25.52H181.05L178.77 -16.77H177.07L175.19 -23.95L173.30 -16.77H171.60ZM191.77 -28.91Q190.73 -27.12 190.22 -25.36Q189.71 -23.60 189.71 -21.80Q189.71 -19.99 190.22 -18.22Q190.73 -16.45 191.77 -14.66H190.52Q189.35 -16.50 188.77 -18.27Q188.19 -20.05 188.19 -21.80Q188.19 -23.54 188.77 -25.30Q189.34 -27.07 190.52 -28.91ZM200.86 -25.19V-23.84Q200.25 -24.18 199.64 -24.35Q199.02 -24.52 198.40 -24.52Q197.00 -24.52 196.23 -23.63Q195.45 -22.74 195.45 -21.14Q195.45 -19.54 196.23 -18.65Q197.00 -17.77 198.40 -17.77Q199.02 -17.77 199.64 -17.93Q200.25 -18.10 200.86 -18.44V-17.11Q200.26 -16.83 199.61 -16.69Q198.97 -16.55 198.24 -16.55Q196.27 -16.55 195.10 -17.79Q193.94 -19.03 193.94 -21.14Q193.94 -23.28 195.11 -24.51Q196.29 -25.73 198.34 -25.73Q199.00 -25.73 199.63 -25.60Q200.27 -25.46 200.86 -25.19ZM203.21 -20.23V-25.52H204.65V-20.28Q204.65 -19.04 205.13 -18.42Q205.62 -17.80 206.59 -17.80Q207.75 -17.80 208.43 -18.54Q209.10 -19.28 209.10 -20.56V-25.52H210.54V-16.77H209.10V-18.12Q208.58 -17.32 207.89 -16.93Q207.20 -16.55 206.28 -16.55Q204.77 -16.55 203.99 -17.48Q203.21 -18.42 203.21 -20.23ZM206.83 -25.73ZM219.08 -25.27V-23.91Q218.47 -24.22 217.81 -24.38Q217.16 -24.53 216.45 -24.53Q215.38 -24.53 214.85 -24.20Q214.31 -23.88 214.31 -23.22Q214.31 -22.72 214.70 -22.43Q215.08 -22.15 216.23 -21.89L216.73 -21.78Q218.26 -21.45 218.90 -20.86Q219.55 -20.26 219.55 -19.19Q219.55 -17.97 218.58 -17.26Q217.62 -16.55 215.93 -16.55Q215.23 -16.55 214.46 -16.68Q213.70 -16.82 212.86 -17.09V-18.58Q213.66 -18.16 214.43 -17.96Q215.20 -17.75 215.96 -17.75Q216.98 -17.75 217.52 -18.10Q218.07 -18.45 218.07 -19.08Q218.07 -19.66 217.68 -19.98Q217.28 -20.29 215.95 -20.58L215.45 -20.70Q214.11 -20.98 213.52 -21.56Q212.92 -22.14 212.92 -23.16Q212.92 -24.39 213.80 -25.06Q214.67 -25.73 216.28 -25.73Q217.08 -25.73 217.78 -25.62Q218.48 -25.50 219.08 -25.27ZM223.26 -28.01V-25.52H226.22V-24.41H223.26V-19.66Q223.26 -18.59 223.55 -18.28Q223.84 -17.98 224.74 -17.98H226.22V-16.77H224.74Q223.08 -16.77 222.45 -17.39Q221.81 -18.02 221.81 -19.66V-24.41H220.76V-25.52H221.81V-28.01ZM231.50 -24.52Q230.34 -24.52 229.67 -23.61Q229.00 -22.71 229.00 -21.14Q229.00 -19.57 229.67 -18.67Q230.34 -17.77 231.50 -17.77Q232.65 -17.77 233.32 -18.67Q233.99 -19.58 233.99 -21.14Q233.99 -22.70 233.32 -23.61Q232.65 -24.52 231.50 -24.52ZM231.50 -25.73Q233.38 -25.73 234.45 -24.52Q235.52 -23.30 235.52 -21.14Q235.52 -18.99 234.45 -17.77Q233.38 -16.55 231.50 -16.55Q229.62 -16.55 228.55 -17.77Q227.48 -18.99 227.48 -21.14Q227.48 -23.30 228.55 -24.52Q229.62 -25.73 231.50 -25.73ZM244.71 -23.84Q245.25 -24.81 246.00 -25.27Q246.75 -25.73 247.77 -25.73Q249.13 -25.73 249.88 -24.78Q250.62 -23.82 250.62 -22.05V-16.77H249.17V-22.01Q249.17 -23.27 248.73 -23.88Q248.28 -24.48 247.37 -24.48Q246.25 -24.48 245.60 -23.74Q244.95 -23.00 244.95 -21.72V-16.77H243.51V-22.01Q243.51 -23.27 243.06 -23.88Q242.62 -24.48 241.69 -24.48Q240.59 -24.48 239.94 -23.74Q239.29 -22.99 239.29 -21.72V-16.77H237.84V-25.52H239.29V-24.16Q239.78 -24.97 240.47 -25.35Q241.16 -25.73 242.10 -25.73Q243.05 -25.73 243.72 -25.25Q244.39 -24.77 244.71 -23.84ZM262.55 -21.17Q260.80 -21.17 260.13 -20.77Q259.46 -20.38 259.46 -19.41Q259.46 -18.65 259.96 -18.20Q260.47 -17.75 261.34 -17.75Q262.53 -17.75 263.25 -18.60Q263.98 -19.45 263.98 -20.85V-21.17ZM265.41 -21.77V-16.77H263.98V-18.10Q263.48 -17.30 262.75 -16.93Q262.02 -16.55 260.95 -16.55Q259.61 -16.55 258.82 -17.30Q258.02 -18.05 258.02 -19.32Q258.02 -20.80 259.01 -21.55Q260.00 -22.30 261.96 -22.30H263.98V-22.44Q263.98 -23.43 263.32 -23.97Q262.67 -24.52 261.49 -24.52Q260.74 -24.52 260.03 -24.34Q259.32 -24.16 258.66 -23.80V-25.12Q259.45 -25.43 260.20 -25.58Q260.94 -25.73 261.64 -25.73Q263.54 -25.73 264.48 -24.75Q265.41 -23.77 265.41 -21.77ZM275.65 -22.05V-16.77H274.21V-22.01Q274.21 -23.25 273.73 -23.87Q273.24 -24.48 272.27 -24.48Q271.11 -24.48 270.44 -23.74Q269.77 -23.00 269.77 -21.72V-16.77H268.32V-25.52H269.77V-24.16Q270.28 -24.95 270.98 -25.34Q271.68 -25.73 272.59 -25.73Q274.10 -25.73 274.88 -24.80Q275.65 -23.87 275.65 -22.05ZM285.79 -22.05V-16.77H284.35V-22.01Q284.35 -23.25 283.87 -23.87Q283.38 -24.48 282.41 -24.48Q281.25 -24.48 280.58 -23.74Q279.91 -23.00 279.91 -21.72V-16.77H278.46V-25.52H279.91V-24.16Q280.42 -24.95 281.12 -25.34Q281.82 -25.73 282.73 -25.73Q284.24 -25.73 285.02 -24.80Q285.79 -23.87 285.79 -22.05ZM292.05 -24.52Q290.89 -24.52 290.22 -23.61Q289.55 -22.71 289.55 -21.14Q289.55 -19.57 290.21 -18.67Q290.88 -17.77 292.05 -17.77Q293.20 -17.77 293.87 -18.67Q294.54 -19.58 294.54 -21.14Q294.54 -22.70 293.87 -23.61Q293.20 -24.52 292.05 -24.52ZM292.05 -25.73Q293.92 -25.73 294.99 -24.52Q296.06 -23.30 296.06 -21.14Q296.06 -18.99 294.99 -17.77Q293.92 -16.55 292.05 -16.55Q290.16 -16.55 289.10 -17.77Q288.03 -18.99 288.03 -21.14Q288.03 -23.30 289.10 -24.52Q290.16 -25.73 292.05 -25.73ZM299.87 -28.01V-25.52H302.83V-24.41H299.87V-19.66Q299.87 -18.59 300.16 -18.28Q300.45 -17.98 301.35 -17.98H302.83V-16.77H301.35Q299.69 -16.77 299.05 -17.39Q298.42 -18.02 298.42 -19.66V-24.41H297.37V-25.52H298.42V-28.01ZM305.09 -18.76H306.73V-17.41L305.45 -14.91H304.45L305.09 -17.41ZM319.32 -28.93V-27.73H317.95Q317.17 -27.73 316.87 -27.42Q316.57 -27.11 316.57 -26.30V-25.52H318.94V-24.41H316.57V-16.77H315.12V-24.41H313.75V-25.52H315.12V-26.13Q315.12 -27.59 315.80 -28.26Q316.48 -28.93 317.96 -28.93ZM320.52 -25.52H321.96V-16.77H320.52ZM320.52 -28.93H321.96V-27.11H320.52ZM332.24 -25.52 329.08 -21.27 332.41 -16.77H330.71L328.16 -20.21L325.62 -16.77H323.92L327.32 -21.35L324.21 -25.52H325.91L328.23 -22.41L330.55 -25.52ZM341.92 -21.51V-20.80H335.31Q335.41 -19.32 336.21 -18.54Q337.01 -17.77 338.44 -17.77Q339.27 -17.77 340.04 -17.97Q340.82 -18.17 341.59 -18.58V-17.22Q340.81 -16.89 340.00 -16.72Q339.19 -16.55 338.35 -16.55Q336.26 -16.55 335.04 -17.77Q333.81 -18.98 333.81 -21.06Q333.81 -23.21 334.97 -24.47Q336.13 -25.73 338.10 -25.73Q339.87 -25.73 340.89 -24.60Q341.92 -23.46 341.92 -21.51ZM340.48 -21.93Q340.47 -23.11 339.82 -23.81Q339.18 -24.52 338.12 -24.52Q336.91 -24.52 336.19 -23.84Q335.47 -23.16 335.36 -21.92ZM350.04 -24.20V-28.93H351.48V-16.77H350.04V-18.09Q349.59 -17.30 348.89 -16.93Q348.20 -16.55 347.23 -16.55Q345.65 -16.55 344.65 -17.81Q343.66 -19.08 343.66 -21.14Q343.66 -23.20 344.65 -24.47Q345.65 -25.73 347.23 -25.73Q348.20 -25.73 348.89 -25.36Q349.59 -24.98 350.04 -24.20ZM345.14 -21.14Q345.14 -19.55 345.79 -18.65Q346.45 -17.75 347.59 -17.75Q348.73 -17.75 349.38 -18.65Q350.04 -19.55 350.04 -21.14Q350.04 -22.73 349.38 -23.63Q348.73 -24.53 347.59 -24.53Q346.45 -24.53 345.79 -23.63Q345.14 -22.73 345.14 -21.14ZM365.82 -25.19V-23.84Q365.21 -24.18 364.60 -24.35Q363.98 -24.52 363.36 -24.52Q361.96 -24.52 361.19 -23.63Q360.41 -22.74 360.41 -21.14Q360.41 -19.54 361.19 -18.65Q361.96 -17.77 363.36 -17.77Q363.98 -17.77 364.60 -17.93Q365.21 -18.10 365.82 -18.44V-17.11Q365.22 -16.83 364.57 -16.69Q363.93 -16.55 363.20 -16.55Q361.23 -16.55 360.06 -17.79Q358.90 -19.03 358.90 -21.14Q358.90 -23.28 360.07 -24.51Q361.25 -25.73 363.30 -25.73Q363.96 -25.73 364.59 -25.60Q365.23 -25.46 365.82 -25.19ZM371.71 -24.52Q370.55 -24.52 369.88 -23.61Q369.21 -22.71 369.21 -21.14Q369.21 -19.57 369.88 -18.67Q370.55 -17.77 371.71 -17.77Q372.86 -17.77 373.53 -18.67Q374.20 -19.58 374.20 -21.14Q374.20 -22.70 373.53 -23.61Q372.86 -24.52 371.71 -24.52ZM371.71 -25.73Q373.59 -25.73 374.66 -24.52Q375.73 -23.30 375.73 -21.14Q375.73 -18.99 374.66 -17.77Q373.59 -16.55 371.71 -16.55Q369.83 -16.55 368.76 -17.77Q367.70 -18.99 367.70 -21.14Q367.70 -23.30 368.76 -24.52Q369.83 -25.73 371.71 -25.73ZM378.11 -28.93H379.55V-16.77H378.11ZM385.95 -24.52Q384.79 -24.52 384.12 -23.61Q383.45 -22.71 383.45 -21.14Q383.45 -19.57 384.11 -18.67Q384.78 -17.77 385.95 -17.77Q387.09 -17.77 387.77 -18.67Q388.44 -19.58 388.44 -21.14Q388.44 -22.70 387.77 -23.61Q387.09 -24.52 385.95 -24.52ZM385.95 -25.73Q387.82 -25.73 388.89 -24.52Q389.96 -23.30 389.96 -21.14Q389.96 -18.99 388.89 -17.77Q387.82 -16.55 385.95 -16.55Q384.06 -16.55 383.00 -17.77Q381.93 -18.99 381.93 -21.14Q381.93 -23.30 383.00 -24.52Q384.06 -25.73 385.95 -25.73ZM397.41 -24.18Q397.17 -24.32 396.89 -24.39Q396.60 -24.45 396.26 -24.45Q395.04 -24.45 394.39 -23.66Q393.73 -22.87 393.73 -21.38V-16.77H392.29V-25.52H393.73V-24.16Q394.19 -24.96 394.91 -25.35Q395.64 -25.73 396.68 -25.73Q396.83 -25.73 397.01 -25.71Q397.19 -25.70 397.41 -25.66ZM398.70 -28.91H399.95Q401.12 -27.07 401.70 -25.30Q402.28 -23.54 402.28 -21.80Q402.28 -20.05 401.70 -18.27Q401.12 -16.50 399.95 -14.66H398.70Q399.73 -16.45 400.25 -18.22Q400.76 -19.99 400.76 -21.80Q400.76 -23.60 400.25 -25.36Q399.73 -27.12 398.70 -28.91Z" fill="#000"/><g transform="translate(537.00,126.00)"><rect x="0.00" y="0.00" width="19.00" height="3.12" fill="rgb(253,231,37)"/><rect x="0.00" y="2.12" width="19.00" height="3.12" fill="rgb(234,229,26)"/><rect x="0.00" y="4.24" width="19.00" height="3.12" fill="rgb(213,226,26)"/><rect x="0.00" y="6.36" width="19.00" height="3.12" fill="rgb(192,223,37)"/><rect x="0.00" y="8.48" width="19.00" height="3.12" fill="rgb(170,220,50)"/><rect x="0.00" y="10.61" width="19.00" height="3.12" fill="rgb(149,216,64)"/><rect x="0.00" y="12.73" width="19.00" height="3.12" fill="rgb(129,211,77)"/><rect x="0.00" y="14.85" width="19.00" height="3.12" fill="rgb(110,206,88)"/><rect x="0.00" y="16.97" width="19.00" height="3.12" fill="rgb(92,200,99)"/><rect x="0.00" y="19.09" width="19.00" height="3.12" fill="rgb(76,194,108)"/><rect x="0.00" y="21.21" width="19.00" height="3.12" fill="rgb(61,188,116)"/><rect x="0.00" y="23.33" width="19.00" height="3.12" fill="rgb(49,181,123)"/><rect x="0.00" y="25.45" width="19.00" height="3.12" fill="rgb(39,173,129)"/><rect x="0.00" y="27.58" width="19.00" height="3.12" fill="rgb(33,166,133)"/><rect x="0.00" y="29.70" width="19.00" height="3.12" fill="rgb(31,159,136)"/><rect x="0.00" y="31.82" width="19.00" height="3.12" fill="rgb(31,151,139)"/><rect x="0.00" y="33.94" width="19.00" height="3.12" fill="rgb(33,145,140)"/><rect x="0.00" y="36.06" width="19.00" height="3.12" fill="rgb(35,137,142)"/><rect x="0.00" y="38.18" width="19.00" height="3.12" fill="rgb(38,130,142)"/><rect x="0.00" y="40.30" width="19.00" height="3.12" fill="rgb(41,122,142)"/><rect x="0.00" y="42.42" width="19.00" height="3.12" fill="rgb(44,114,142)"/><rect x="0.00" y="44.55" width="19.00" height="3.12" fill="rgb(47,107,142)"/><rect x="0.00" y="46.67" width="19.00" height="3.12" fill="rgb(51,99,141)"/><rect x="0.00" y="48.79" width="19.00" height="3.12" fill="rgb(55,91,141)"/><rect x="0.00" y="50.91" width="19.00" height="3.12" fill="rgb(59,82,139)"/><rect x="0.00" y="53.03" width="19.00" height="3.12" fill="rgb(62,73,137)"/><rect x="0.00" y="55.15" width="19.00" height="3.12" fill="rgb(66,64,134)"/><rect x="0.00" y="57.27" width="19.00" height="3.12" fill="rgb(69,55,129)"/><rect x="0.00" y="59.39" width="19.00" height="3.12" fill="rgb(71,45,123)"/><rect x="0.00" y="61.52" width="19.00" height="3.12" fill="rgb(72,35,116)"/><rect x="0.00" y="63.64" width="19.00" height="3.12" fill="rgb(72,24,106)"/><rect x="0.00" y="65.76" width="19.00" height="3.12" fill="rgb(71,13,96)"/><rect x="0.00" y="67.88" width="19.00" height="2.12" fill="rgb(68,1,84)"/><rect x="0.00" y="0.00" width="19.00" height="70.00" fill="none" stroke="#000000" stroke-width="1.00"/><line x1="19.00" x2="23.50" y1="70.00" y2="70.00" stroke="#000000" stroke-width="1.00"/><path d="M32.63 61.37Q31.64 61.37 31.14 62.34Q30.65 63.32 30.65 65.27Q30.65 67.22 31.14 68.19Q31.64 69.17 32.63 69.17Q33.63 69.17 34.13 68.19Q34.63 67.22 34.63 65.27Q34.63 63.32 34.13 62.34Q33.63 61.37 32.63 61.37ZM32.63 60.35Q34.23 60.35 35.07 61.61Q35.91 62.87 35.91 65.27Q35.91 67.66 35.07 68.92Q34.23 70.18 32.63 70.18Q31.04 70.18 30.20 68.92Q29.36 67.66 29.36 65.27Q29.36 62.87 30.20 61.61Q31.04 60.35 32.63 60.35Z" fill="#000"/><line x1="19.00" x2="23.50" y1="42.00" y2="42.00" stroke="#000000" stroke-width="1.00"/><path d="M30.99 44.12H35.47V45.20H29.45V44.12Q30.18 43.37 31.44 42.09Q32.70 40.82 33.03 40.45Q33.64 39.76 33.89 39.28Q34.13 38.80 34.13 38.34Q34.13 37.58 33.60 37.11Q33.07 36.63 32.22 36.63Q31.62 36.63 30.95 36.84Q30.28 37.05 29.52 37.47V36.18Q30.29 35.87 30.96 35.71Q31.64 35.55 32.19 35.55Q33.67 35.55 34.54 36.29Q35.42 37.02 35.42 38.26Q35.42 38.84 35.20 39.36Q34.98 39.89 34.40 40.60Q34.24 40.78 33.39 41.66Q32.54 42.54 30.99 44.12Z" fill="#000"/><line x1="19.00" x2="23.50" y1="14.00" y2="14.00" stroke="#000000" stroke-width="1.00"/><path d="M33.41 12.04 30.18 17.10H33.41ZM33.08 10.92H34.69V17.10H36.04V18.17H34.69V20.40H33.41V18.17H29.13V16.93Z" fill="#000"/></g></g></g></svg>