<svg xmlns="http://www.w3.org/2000/svg" width="349" height="329" viewBox="0 0 349 329" font-family="DejaVu Sans, Bitstream Vera Sans, Verdana, Arial, sans-serif" font-size="11" style="background:#fff" data-plotlet-version="0.4.3" data-plotlet-schema="2" data-plotlet-kind="figure"><g transform="translate(42,27)" data-plotlet-kind="panel" data-plotlet-title="2-D KDE" data-plotlet-xlabel="x" data-plotlet-ylabel="y" data-plotlet-xscale="linear" data-plotlet-yscale="linear" data-plotlet-xlim="-3.12555737554,3.77461451967" data-plotlet-ylim="-3.27174983398,4.85543679454" data-plotlet-panel-bbox="0,0,349,329" data-plotlet-data-area="42,27,300,260"><svg x="0" y="0" width="300" height="260" overflow="hidden"><g class="plotlet-artist" data-plotlet-type="scatter" data-plotlet-index="0" data-plotlet-color="#444444" data-plotlet-n="400" data-plotlet-x-min="-2.811913198481446" data-plotlet-x-max="3.460970342611552" data-plotlet-y-min="-2.90233225996091" data-plotlet-y-max="4.486019220516153" data-plotlet-marker="o"><circle cx="48.43" cy="184.79" r="1.118033988749895" fill="#444444" opacity="0.25"/><circle cx="99.50" cy="190.08" r="1.118033988749895" fill="#444444" opacity="0.25"/><circle cx="83.95" cy="186.20" r="1.118033988749895" fill="#444444" opacity="0.25"/><circle cx="77.81" cy="174.85" r="1.118033988749895" fill="#444444" opacity="0.25"/><circle cx="121.84" cy="121.07" r="1.118033988749895" fill="#444444" opacity="0.25"/><circle cx="94.42" cy="164.34" r="1.118033988749895" fill="#444444" opacity="0.25"/><circle cx="84.06" cy="125.90" r="1.118033988749895" fill="#444444" opacity="0.25"/><circle cx="147.28" cy="167.63" r="1.118033988749895" fill="#444444" opacity="0.25"/><circle cx="77.36" cy="184.81" r="1.118033988749895" fill="#444444" opacity="0.25"/><circle cx="53.97" cy="148.81" r="1.118033988749895" fill="#444444" opacity="0.25"/><circle cx="50.59" cy="166.94" r="1.118033988749895" fill="#444444" opacity="0.25"/><circle cx="76.40" cy="207.44" r="1.118033988749895" fill="#444444" opacity="0.25"/><circle cx="112.45" cy="152.68" r="1.118033988749895" fill="#444444" opacity="0.25"/><circle cx="118.35" cy="116.33" r="1.118033988749895" fill="#444444" opacity="0.25"/><circle cx="127.07" cy="160.89" r="1.118033988749895" fill="#444444" opacity="0.25"/><circle cx="148.79" cy="192.67" r="1.118033988749895" fill="#444444" opacity="0.25"/><circle cx="144.87" cy="178.49" r="1.118033988749895" fill="#444444" opacity="0.25"/><circle cx="112.73" cy="193.06" r="1.118033988749895" fill="#444444" opacity="0.25"/><circle cx="133.79" cy="161.99" r="1.118033988749895" fill="#444444" opacity="0.25"/><circle cx="113.37" cy="184.56" r="1.118033988749895" fill="#444444" opacity="0.25"/><circle cx="76.30" cy="157.82" r="1.118033988749895" fill="#444444" opacity="0.25"/><circle cx="118.89" cy="148.63" r="1.118033988749895" fill="#444444" opacity="0.25"/><circle cx="95.65" cy="111.71" r="1.118033988749895" fill="#444444" opacity="0.25"/><circle cx="87.48" cy="191.26" r="1.118033988749895" fill="#444444" opacity="0.25"/><circle cx="155.13" cy="219.87" r="1.118033988749895" fill="#444444" opacity="0.25"/><circle cx="117.60" cy="102.13" r="1.118033988749895" fill="#444444" opacity="0.25"/><circle cx="79.14" cy="140.33" r="1.118033988749895" fill="#444444" opacity="0.25"/><circle cx="91.67" cy="165.88" r="1.118033988749895" fill="#444444" opacity="0.25"/><circle cx="165.87" cy="138.01" r="1.118033988749895" fill="#444444" opacity="0.25"/><circle cx="86.46" cy="183.93" r="1.118033988749895" fill="#444444" opacity="0.25"/><circle cx="116.69" cy="165.07" r="1.118033988749895" fill="#444444" opacity="0.25"/><circle cx="113.15" cy="132.55" r="1.118033988749895" fill="#444444" opacity="0.25"/><circle cx="109.83" cy="164.27" r="1.118033988749895" fill="#444444" opacity="0.25"/><circle cx="112.18" cy="149.95" r="1.118033988749895" fill="#444444" opacity="0.25"/><circle cx="79.27" cy="140.18" r="1.118033988749895" fill="#444444" opacity="0.25"/><circle cx="79.84" cy="150.36" r="1.118033988749895" fill="#444444" opacity="0.25"/><circle cx="89.17" cy="161.95" r="1.118033988749895" fill="#444444" opacity="0.25"/><circle cx="83.08" cy="137.74" r="1.118033988749895" fill="#444444" opacity="0.25"/><circle cx="119.00" cy="111.77" r="1.118033988749895" fill="#444444" opacity="0.25"/><circle cx="141.67" cy="113.47" r="1.118033988749895" fill="#444444" opacity="0.25"/><circle cx="66.70" cy="182.35" r="1.118033988749895" fill="#444444" opacity="0.25"/><circle cx="110.97" cy="129.85" r="1.118033988749895" fill="#444444" opacity="0.25"/><circle cx="63.88" cy="215.16" r="1.118033988749895" fill="#444444" opacity="0.25"/><circle cx="72.77" cy="199.52" r="1.118033988749895" fill="#444444" opacity="0.25"/><circle cx="86.74" cy="141.35" r="1.118033988749895" fill="#444444" opacity="0.25"/><circle cx="97.44" cy="137.05" r="1.118033988749895" fill="#444444" opacity="0.25"/><circle cx="80.61" cy="110.49" r="1.118033988749895" fill="#444444" opacity="0.25"/><circle cx="13.64" cy="209.28" r="1.118033988749895" fill="#444444" opacity="0.25"/><circle cx="136.84" cy="119.66" r="1.118033988749895" fill="#444444" opacity="0.25"/><circle cx="85.75" cy="171.63" r="1.118033988749895" fill="#444444" opacity="0.25"/><circle cx="74.50" cy="169.21" r="1.118033988749895" fill="#444444" opacity="0.25"/><circle cx="115.11" cy="139.99" r="1.118033988749895" fill="#444444" opacity="0.25"/><circle cx="75.67" cy="109.23" r="1.118033988749895" fill="#444444" opacity="0.25"/><circle cx="50.05" cy="184.34" r="1.118033988749895" fill="#444444" opacity="0.25"/><circle cx="109.23" cy="209.01" r="1.118033988749895" fill="#444444" opacity="0.25"/><circle cx="107.02" cy="173.40" r="1.118033988749895" fill="#444444" opacity="0.25"/><circle cx="68.62" cy="157.99" r="1.118033988749895" fill="#444444" opacity="0.25"/><circle cx="119.99" cy="115.90" r="1.118033988749895" fill="#444444" opacity="0.25"/><circle cx="105.63" cy="142.56" r="1.118033988749895" fill="#444444" opacity="0.25"/><circle cx="59.10" cy="163.83" r="1.118033988749895" fill="#444444" opacity="0.25"/><circle cx="148.13" cy="170.49" r="1.118033988749895" fill="#444444" opacity="0.25"/><circle cx="102.37" cy="169.11" r="1.118033988749895" fill="#444444" opacity="0.25"/><circle cx="59.08" cy="123.28" r="1.118033988749895" fill="#444444" opacity="0.25"/><circle cx="108.06" cy="207.43" r="1.118033988749895" fill="#444444" opacity="0.25"/><circle cx="98.00" cy="176.47" r="1.118033988749895" fill="#444444" opacity="0.25"/><circle cx="124.05" cy="182.26" r="1.118033988749895" fill="#444444" opacity="0.25"/><circle cx="52.47" cy="118.33" r="1.118033988749895" fill="#444444" opacity="0.25"/><circle cx="126.21" cy="150.30" r="1.118033988749895" fill="#444444" opacity="0.25"/><circle cx="123.15" cy="175.82" r="1.118033988749895" fill="#444444" opacity="0.25"/><circle cx="115.53" cy="130.31" r="1.118033988749895" fill="#444444" opacity="0.25"/><circle cx="112.93" cy="91.79" r="1.118033988749895" fill="#444444" opacity="0.25"/><circle cx="134.65" cy="121.58" r="1.118033988749895" fill="#444444" opacity="0.25"/><circle cx="116.25" cy="196.03" r="1.118033988749895" fill="#444444" opacity="0.25"/><circle cx="98.03" cy="161.00" r="1.118033988749895" fill="#444444" opacity="0.25"/><circle cx="68.25" cy="118.00" r="1.118033988749895" fill="#444444" opacity="0.25"/><circle cx="128.37" cy="212.31" r="1.118033988749895" fill="#444444" opacity="0.25"/><circle cx="124.37" cy="193.49" r="1.118033988749895" fill="#444444" opacity="0.25"/><circle cx="103.26" cy="167.64" r="1.118033988749895" fill="#444444" opacity="0.25"/><circle cx="98.75" cy="137.64" r="1.118033988749895" fill="#444444" opacity="0.25"/><circle cx="116.36" cy="180.65" r="1.118033988749895" fill="#444444" opacity="0.25"/><circle cx="16.42" cy="149.57" r="1.118033988749895" fill="#444444" opacity="0.25"/><circle cx="103.83" cy="159.49" r="1.118033988749895" fill="#444444" opacity="0.25"/><circle cx="16.92" cy="144.13" r="1.118033988749895" fill="#444444" opacity="0.25"/><circle cx="101.46" cy="192.89" r="1.118033988749895" fill="#444444" opacity="0.25"/><circle cx="126.64" cy="225.42" r="1.118033988749895" fill="#444444" opacity="0.25"/><circle cx="152.48" cy="223.16" r="1.118033988749895" fill="#444444" opacity="0.25"/><circle cx="79.45" cy="149.17" r="1.118033988749895" fill="#444444" opacity="0.25"/><circle cx="107.27" cy="123.19" r="1.118033988749895" fill="#444444" opacity="0.25"/><circle cx="91.79" cy="139.07" r="1.118033988749895" fill="#444444" opacity="0.25"/><circle cx="25.31" cy="205.79" r="1.118033988749895" fill="#444444" opacity="0.25"/><circle cx="116.45" cy="210.12" r="1.118033988749895" fill="#444444" opacity="0.25"/><circle cx="93.42" cy="163.74" r="1.118033988749895" fill="#444444" opacity="0.25"/><circle cx="96.02" cy="183.81" r="1.118033988749895" fill="#444444" opacity="0.25"/><circle cx="64.81" cy="213.23" r="1.118033988749895" fill="#444444" opacity="0.25"/><circle cx="92.62" cy="173.17" r="1.118033988749895" fill="#444444" opacity="0.25"/><circle cx="96.41" cy="179.94" r="1.118033988749895" fill="#444444" opacity="0.25"/><circle cx="133.37" cy="158.37" r="1.118033988749895" fill="#444444" opacity="0.25"/><circle cx="102.93" cy="142.45" r="1.118033988749895" fill="#444444" opacity="0.25"/><circle cx="201.57" cy="148.59" r="1.118033988749895" fill="#444444" opacity="0.25"/><circle cx="81.27" cy="148.73" r="1.118033988749895" fill="#444444" opacity="0.25"/><circle cx="85.72" cy="137.92" r="1.118033988749895" fill="#444444" opacity="0.25"/><circle cx="92.26" cy="158.02" r="1.118033988749895" fill="#444444" opacity="0.25"/><circle cx="68.86" cy="169.04" r="1.118033988749895" fill="#444444" opacity="0.25"/><circle cx="140.51" cy="165.67" r="1.118033988749895" fill="#444444" opacity="0.25"/><circle cx="113.82" cy="116.75" r="1.118033988749895" fill="#444444" opacity="0.25"/><circle cx="54.58" cy="163.65" r="1.118033988749895" fill="#444444" opacity="0.25"/><circle cx="97.20" cy="128.83" r="1.118033988749895" fill="#444444" opacity="0.25"/><circle cx="129.36" cy="101.62" r="1.118033988749895" fill="#444444" opacity="0.25"/><circle cx="50.10" cy="98.98" r="1.118033988749895" fill="#444444" opacity="0.25"/><circle cx="98.47" cy="223.36" r="1.118033988749895" fill="#444444" opacity="0.25"/><circle cx="86.55" cy="149.92" r="1.118033988749895" fill="#444444" opacity="0.25"/><circle cx="165.87" cy="123.32" r="1.118033988749895" fill="#444444" opacity="0.25"/><circle cx="106.67" cy="169.19" r="1.118033988749895" fill="#444444" opacity="0.25"/><circle cx="81.26" cy="177.41" r="1.118033988749895" fill="#444444" opacity="0.25"/><circle cx="76.54" cy="200.41" r="1.118033988749895" fill="#444444" opacity="0.25"/><circle cx="152.19" cy="176.31" r="1.118033988749895" fill="#444444" opacity="0.25"/><circle cx="79.49" cy="154.75" r="1.118033988749895" fill="#444444" opacity="0.25"/><circle cx="164.31" cy="214.96" r="1.118033988749895" fill="#444444" opacity="0.25"/><circle cx="45.66" cy="155.18" r="1.118033988749895" fill="#444444" opacity="0.25"/><circle cx="87.94" cy="181.56" r="1.118033988749895" fill="#444444" opacity="0.25"/><circle cx="86.48" cy="154.14" r="1.118033988749895" fill="#444444" opacity="0.25"/><circle cx="72.14" cy="189.43" r="1.118033988749895" fill="#444444" opacity="0.25"/><circle cx="87.32" cy="152.16" r="1.118033988749895" fill="#444444" opacity="0.25"/><circle cx="115.20" cy="149.61" r="1.118033988749895" fill="#444444" opacity="0.25"/><circle cx="73.35" cy="176.99" r="1.118033988749895" fill="#444444" opacity="0.25"/><circle cx="49.62" cy="176.26" r="1.118033988749895" fill="#444444" opacity="0.25"/><circle cx="135.36" cy="124.50" r="1.118033988749895" fill="#444444" opacity="0.25"/><circle cx="139.16" cy="134.65" r="1.118033988749895" fill="#444444" opacity="0.25"/><circle cx="72.57" cy="179.75" r="1.118033988749895" fill="#444444" opacity="0.25"/><circle cx="103.27" cy="140.87" r="1.118033988749895" fill="#444444" opacity="0.25"/><circle cx="14.49" cy="191.73" r="1.118033988749895" fill="#444444" opacity="0.25"/><circle cx="125.97" cy="171.42" r="1.118033988749895" fill="#444444" opacity="0.25"/><circle cx="52.79" cy="248.18" r="1.118033988749895" fill="#444444" opacity="0.25"/><circle cx="76.74" cy="172.92" r="1.118033988749895" fill="#444444" opacity="0.25"/><circle cx="160.60" cy="133.07" r="1.118033988749895" fill="#444444" opacity="0.25"/><circle cx="54.89" cy="170.51" r="1.118033988749895" fill="#444444" opacity="0.25"/><circle cx="94.49" cy="136.03" r="1.118033988749895" fill="#444444" opacity="0.25"/><circle cx="60.83" cy="175.38" r="1.118033988749895" fill="#444444" opacity="0.25"/><circle cx="36.81" cy="145.17" r="1.118033988749895" fill="#444444" opacity="0.25"/><circle cx="57.89" cy="159.58" r="1.118033988749895" fill="#444444" opacity="0.25"/><circle cx="102.20" cy="186.08" r="1.118033988749895" fill="#444444" opacity="0.25"/><circle cx="53.53" cy="87.85" r="1.118033988749895" fill="#444444" opacity="0.25"/><circle cx="75.64" cy="181.79" r="1.118033988749895" fill="#444444" opacity="0.25"/><circle cx="116.29" cy="197.87" r="1.118033988749895" fill="#444444" opacity="0.25"/><circle cx="88.93" cy="150.73" r="1.118033988749895" fill="#444444" opacity="0.25"/><circle cx="53.39" cy="139.70" r="1.118033988749895" fill="#444444" opacity="0.25"/><circle cx="140.03" cy="143.89" r="1.118033988749895" fill="#444444" opacity="0.25"/><circle cx="97.55" cy="158.29" r="1.118033988749895" fill="#444444" opacity="0.25"/><circle cx="137.18" cy="139.99" r="1.118033988749895" fill="#444444" opacity="0.25"/><circle cx="61.49" cy="125.03" r="1.118033988749895" fill="#444444" opacity="0.25"/><circle cx="145.88" cy="135.01" r="1.118033988749895" fill="#444444" opacity="0.25"/><circle cx="52.26" cy="199.09" r="1.118033988749895" fill="#444444" opacity="0.25"/><circle cx="40.01" cy="99.72" r="1.118033988749895" fill="#444444" opacity="0.25"/><circle cx="80.72" cy="155.88" r="1.118033988749895" fill="#444444" opacity="0.25"/><circle cx="82.35" cy="220.37" r="1.118033988749895" fill="#444444" opacity="0.25"/><circle cx="101.92" cy="128.28" r="1.118033988749895" fill="#444444" opacity="0.25"/><circle cx="76.52" cy="159.56" r="1.118033988749895" fill="#444444" opacity="0.25"/><circle cx="113.40" cy="145.83" r="1.118033988749895" fill="#444444" opacity="0.25"/><circle cx="134.99" cy="91.44" r="1.118033988749895" fill="#444444" opacity="0.25"/><circle cx="73.68" cy="171.99" r="1.118033988749895" fill="#444444" opacity="0.25"/><circle cx="51.40" cy="174.88" r="1.118033988749895" fill="#444444" opacity="0.25"/><circle cx="81.44" cy="186.26" r="1.118033988749895" fill="#444444" opacity="0.25"/><circle cx="119.06" cy="148.89" r="1.118033988749895" fill="#444444" opacity="0.25"/><circle cx="118.97" cy="133.76" r="1.118033988749895" fill="#444444" opacity="0.25"/><circle cx="83.11" cy="142.38" r="1.118033988749895" fill="#444444" opacity="0.25"/><circle cx="63.40" cy="149.49" r="1.118033988749895" fill="#444444" opacity="0.25"/><circle cx="93.24" cy="222.85" r="1.118033988749895" fill="#444444" opacity="0.25"/><circle cx="123.51" cy="146.41" r="1.118033988749895" fill="#444444" opacity="0.25"/><circle cx="71.77" cy="120.31" r="1.118033988749895" fill="#444444" opacity="0.25"/><circle cx="133.83" cy="171.21" r="1.118033988749895" fill="#444444" opacity="0.25"/><circle cx="100.75" cy="171.94" r="1.118033988749895" fill="#444444" opacity="0.25"/><circle cx="102.72" cy="187.20" r="1.118033988749895" fill="#444444" opacity="0.25"/><circle cx="74.45" cy="147.13" r="1.118033988749895" fill="#444444" opacity="0.25"/><circle cx="135.79" cy="204.73" r="1.118033988749895" fill="#444444" opacity="0.25"/><circle cx="95.11" cy="93.77" r="1.118033988749895" fill="#444444" opacity="0.25"/><circle cx="47.83" cy="161.21" r="1.118033988749895" fill="#444444" opacity="0.25"/><circle cx="119.04" cy="174.03" r="1.118033988749895" fill="#444444" opacity="0.25"/><circle cx="80.83" cy="193.77" r="1.118033988749895" fill="#444444" opacity="0.25"/><circle cx="127.01" cy="137.66" r="1.118033988749895" fill="#444444" opacity="0.25"/><circle cx="98.95" cy="123.81" r="1.118033988749895" fill="#444444" opacity="0.25"/><circle cx="74.46" cy="172.86" r="1.118033988749895" fill="#444444" opacity="0.25"/><circle cx="99.04" cy="149.35" r="1.118033988749895" fill="#444444" opacity="0.25"/><circle cx="78.62" cy="145.48" r="1.118033988749895" fill="#444444" opacity="0.25"/><circle cx="68.27" cy="123.91" r="1.118033988749895" fill="#444444" opacity="0.25"/><circle cx="94.40" cy="135.22" r="1.118033988749895" fill="#444444" opacity="0.25"/><circle cx="119.45" cy="115.35" r="1.118033988749895" fill="#444444" opacity="0.25"/><circle cx="95.97" cy="200.08" r="1.118033988749895" fill="#444444" opacity="0.25"/><circle cx="91.10" cy="71.48" r="1.118033988749895" fill="#444444" opacity="0.25"/><circle cx="76.66" cy="170.85" r="1.118033988749895" fill="#444444" opacity="0.25"/><circle cx="111.38" cy="190.65" r="1.118033988749895" fill="#444444" opacity="0.25"/><circle cx="102.16" cy="184.52" r="1.118033988749895" fill="#444444" opacity="0.25"/><circle cx="123.30" cy="142.46" r="1.118033988749895" fill="#444444" opacity="0.25"/><circle cx="105.03" cy="130.15" r="1.118033988749895" fill="#444444" opacity="0.25"/><circle cx="159.45" cy="77.19" r="1.118033988749895" fill="#444444" opacity="0.25"/><circle cx="45.31" cy="115.63" r="1.118033988749895" fill="#444444" opacity="0.25"/><circle cx="92.11" cy="179.28" r="1.118033988749895" fill="#444444" opacity="0.25"/><circle cx="110.22" cy="165.81" r="1.118033988749895" fill="#444444" opacity="0.25"/><circle cx="121.40" cy="169.78" r="1.118033988749895" fill="#444444" opacity="0.25"/><circle cx="46.49" cy="174.02" r="1.118033988749895" fill="#444444" opacity="0.25"/><circle cx="56.08" cy="160.32" r="1.118033988749895" fill="#444444" opacity="0.25"/><circle cx="188.10" cy="106.67" r="1.118033988749895" fill="#444444" opacity="0.25"/><circle cx="236.30" cy="60.95" r="1.118033988749895" fill="#444444" opacity="0.25"/><circle cx="238.29" cy="82.39" r="1.118033988749895" fill="#444444" opacity="0.25"/><circle cx="123.15" cy="75.00" r="1.118033988749895" fill="#444444" opacity="0.25"/><circle cx="195.67" cy="94.96" r="1.118033988749895" fill="#444444" opacity="0.25"/><circle cx="241.55" cy="120.60" r="1.118033988749895" fill="#444444" opacity="0.25"/><circle cx="191.16" cy="79.75" r="1.118033988749895" fill="#444444" opacity="0.25"/><circle cx="144.57" cy="100.98" r="1.118033988749895" fill="#444444" opacity="0.25"/><circle cx="158.36" cy="40.03" r="1.118033988749895" fill="#444444" opacity="0.25"/><circle cx="131.20" cy="59.45" r="1.118033988749895" fill="#444444" opacity="0.25"/><circle cx="242.48" cy="121.87" r="1.118033988749895" fill="#444444" opacity="0.25"/><circle cx="178.54" cy="116.20" r="1.118033988749895" fill="#444444" opacity="0.25"/><circle cx="171.05" cy="104.97" r="1.118033988749895" fill="#444444" opacity="0.25"/><circle cx="151.45" cy="96.38" r="1.118033988749895" fill="#444444" opacity="0.25"/><circle cx="183.80" cy="61.70" r="1.118033988749895" fill="#444444" opacity="0.25"/><circle cx="149.95" cy="95.52" r="1.118033988749895" fill="#444444" opacity="0.25"/><circle cx="146.93" cy="79.24" r="1.118033988749895" fill="#444444" opacity="0.25"/><circle cx="188.09" cy="99.13" r="1.118033988749895" fill="#444444" opacity="0.25"/><circle cx="179.80" cy="96.45" r="1.118033988749895" fill="#444444" opacity="0.25"/><circle cx="210.06" cy="59.45" r="1.118033988749895" fill="#444444" opacity="0.25"/><circle cx="196.36" cy="90.58" r="1.118033988749895" fill="#444444" opacity="0.25"/><circle cx="241.94" cy="40.64" r="1.118033988749895" fill="#444444" opacity="0.25"/><circle cx="187.91" cy="92.05" r="1.118033988749895" fill="#444444" opacity="0.25"/><circle cx="201.39" cy="80.99" r="1.118033988749895" fill="#444444" opacity="0.25"/><circle cx="199.85" cy="80.75" r="1.118033988749895" fill="#444444" opacity="0.25"/><circle cx="154.41" cy="73.94" r="1.118033988749895" fill="#444444" opacity="0.25"/><circle cx="242.15" cy="41.62" r="1.118033988749895" fill="#444444" opacity="0.25"/><circle cx="165.11" cy="108.28" r="1.118033988749895" fill="#444444" opacity="0.25"/><circle cx="120.32" cy="104.40" r="1.118033988749895" fill="#444444" opacity="0.25"/><circle cx="244.77" cy="114.97" r="1.118033988749895" fill="#444444" opacity="0.25"/><circle cx="218.61" cy="44.68" r="1.118033988749895" fill="#444444" opacity="0.25"/><circle cx="165.04" cy="78.91" r="1.118033988749895" fill="#444444" opacity="0.25"/><circle cx="231.83" cy="79.33" r="1.118033988749895" fill="#444444" opacity="0.25"/><circle cx="232.30" cy="79.19" r="1.118033988749895" fill="#444444" opacity="0.25"/><circle cx="220.81" cy="138.15" r="1.118033988749895" fill="#444444" opacity="0.25"/><circle cx="138.34" cy="71.13" r="1.118033988749895" fill="#444444" opacity="0.25"/><circle cx="197.66" cy="87.59" r="1.118033988749895" fill="#444444" opacity="0.25"/><circle cx="144.27" cy="82.96" r="1.118033988749895" fill="#444444" opacity="0.25"/><circle cx="162.97" cy="88.59" r="1.118033988749895" fill="#444444" opacity="0.25"/><circle cx="165.15" cy="93.17" r="1.118033988749895" fill="#444444" opacity="0.25"/><circle cx="152.64" cy="92.74" r="1.118033988749895" fill="#444444" opacity="0.25"/><circle cx="211.52" cy="105.37" r="1.118033988749895" fill="#444444" opacity="0.25"/><circle cx="155.19" cy="96.64" r="1.118033988749895" fill="#444444" opacity="0.25"/><circle cx="217.18" cy="74.71" r="1.118033988749895" fill="#444444" opacity="0.25"/><circle cx="197.39" cy="144.88" r="1.118033988749895" fill="#444444" opacity="0.25"/><circle cx="163.23" cy="69.73" r="1.118033988749895" fill="#444444" opacity="0.25"/><circle cx="197.35" cy="74.36" r="1.118033988749895" fill="#444444" opacity="0.25"/><circle cx="220.08" cy="118.13" r="1.118033988749895" fill="#444444" opacity="0.25"/><circle cx="240.07" cy="77.79" r="1.118033988749895" fill="#444444" opacity="0.25"/><circle cx="178.49" cy="83.02" r="1.118033988749895" fill="#444444" opacity="0.25"/><circle cx="266.13" cy="104.14" r="1.118033988749895" fill="#444444" opacity="0.25"/><circle cx="215.02" cy="47.69" r="1.118033988749895" fill="#444444" opacity="0.25"/><circle cx="244.57" cy="86.33" r="1.118033988749895" fill="#444444" opacity="0.25"/><circle cx="130.50" cy="94.28" r="1.118033988749895" fill="#444444" opacity="0.25"/><circle cx="143.33" cy="124.17" r="1.118033988749895" fill="#444444" opacity="0.25"/><circle cx="242.97" cy="35.28" r="1.118033988749895" fill="#444444" opacity="0.25"/><circle cx="179.99" cy="85.26" r="1.118033988749895" fill="#444444" opacity="0.25"/><circle cx="210.27" cy="82.86" r="1.118033988749895" fill="#444444" opacity="0.25"/><circle cx="242.57" cy="96.68" r="1.118033988749895" fill="#444444" opacity="0.25"/><circle cx="126.45" cy="37.93" r="1.118033988749895" fill="#444444" opacity="0.25"/><circle cx="209.66" cy="94.72" r="1.118033988749895" fill="#444444" opacity="0.25"/><circle cx="274.91" cy="50.58" r="1.118033988749895" fill="#444444" opacity="0.25"/><circle cx="224.96" cy="63.84" r="1.118033988749895" fill="#444444" opacity="0.25"/><circle cx="193.81" cy="65.88" r="1.118033988749895" fill="#444444" opacity="0.25"/><circle cx="214.61" cy="74.59" r="1.118033988749895" fill="#444444" opacity="0.25"/><circle cx="190.23" cy="61.29" r="1.118033988749895" fill="#444444" opacity="0.25"/><circle cx="223.82" cy="93.83" r="1.118033988749895" fill="#444444" opacity="0.25"/><circle cx="247.04" cy="143.86" r="1.118033988749895" fill="#444444" opacity="0.25"/><circle cx="179.92" cy="159.53" r="1.118033988749895" fill="#444444" opacity="0.25"/><circle cx="215.09" cy="62.38" r="1.118033988749895" fill="#444444" opacity="0.25"/><circle cx="203.20" cy="143.37" r="1.118033988749895" fill="#444444" opacity="0.25"/><circle cx="222.48" cy="56.61" r="1.118033988749895" fill="#444444" opacity="0.25"/><circle cx="226.55" cy="11.82" r="1.118033988749895" fill="#444444" opacity="0.25"/><circle cx="142.81" cy="139.10" r="1.118033988749895" fill="#444444" opacity="0.25"/><circle cx="240.95" cy="75.25" r="1.118033988749895" fill="#444444" opacity="0.25"/><circle cx="227.68" cy="78.72" r="1.118033988749895" fill="#444444" opacity="0.25"/><circle cx="141.86" cy="109.04" r="1.118033988749895" fill="#444444" opacity="0.25"/><circle cx="177.35" cy="141.60" r="1.118033988749895" fill="#444444" opacity="0.25"/><circle cx="125.88" cy="93.21" r="1.118033988749895" fill="#444444" opacity="0.25"/><circle cx="177.18" cy="47.62" r="1.118033988749895" fill="#444444" opacity="0.25"/><circle cx="204.22" cy="93.62" r="1.118033988749895" fill="#444444" opacity="0.25"/><circle cx="139.08" cy="91.02" r="1.118033988749895" fill="#444444" opacity="0.25"/><circle cx="155.92" cy="88.69" r="1.118033988749895" fill="#444444" opacity="0.25"/><circle cx="151.35" cy="89.77" r="1.118033988749895" fill="#444444" opacity="0.25"/><circle cx="159.36" cy="83.36" r="1.118033988749895" fill="#444444" opacity="0.25"/><circle cx="155.89" cy="32.43" r="1.118033988749895" fill="#444444" opacity="0.25"/><circle cx="142.96" cy="113.26" r="1.118033988749895" fill="#444444" opacity="0.25"/><circle cx="214.79" cy="137.45" r="1.118033988749895" fill="#444444" opacity="0.25"/><circle cx="180.40" cy="69.24" r="1.118033988749895" fill="#444444" opacity="0.25"/><circle cx="153.78" cy="104.19" r="1.118033988749895" fill="#444444" opacity="0.25"/><circle cx="233.10" cy="103.72" r="1.118033988749895" fill="#444444" opacity="0.25"/><circle cx="165.07" cy="126.55" r="1.118033988749895" fill="#444444" opacity="0.25"/><circle cx="229.04" cy="95.38" r="1.118033988749895" fill="#444444" opacity="0.25"/><circle cx="135.59" cy="101.89" r="1.118033988749895" fill="#444444" opacity="0.25"/><circle cx="251.45" cy="79.92" r="1.118033988749895" fill="#444444" opacity="0.25"/><circle cx="170.22" cy="100.99" r="1.118033988749895" fill="#444444" opacity="0.25"/><circle cx="148.30" cy="128.11" r="1.118033988749895" fill="#444444" opacity="0.25"/><circle cx="207.75" cy="78.21" r="1.118033988749895" fill="#444444" opacity="0.25"/><circle cx="131.30" cy="92.96" r="1.118033988749895" fill="#444444" opacity="0.25"/><circle cx="142.48" cy="139.21" r="1.118033988749895" fill="#444444" opacity="0.25"/><circle cx="200.21" cy="99.56" r="1.118033988749895" fill="#444444" opacity="0.25"/><circle cx="168.67" cy="71.45" r="1.118033988749895" fill="#444444" opacity="0.25"/><circle cx="207.29" cy="92.46" r="1.118033988749895" fill="#444444" opacity="0.25"/><circle cx="196.01" cy="99.22" r="1.118033988749895" fill="#444444" opacity="0.25"/><circle cx="200.85" cy="75.74" r="1.118033988749895" fill="#444444" opacity="0.25"/><circle cx="195.55" cy="107.25" r="1.118033988749895" fill="#444444" opacity="0.25"/><circle cx="220.96" cy="108.65" r="1.118033988749895" fill="#444444" opacity="0.25"/><circle cx="189.80" cy="77.48" r="1.118033988749895" fill="#444444" opacity="0.25"/><circle cx="238.15" cy="94.93" r="1.118033988749895" fill="#444444" opacity="0.25"/><circle cx="231.21" cy="106.76" r="1.118033988749895" fill="#444444" opacity="0.25"/><circle cx="103.76" cy="85.10" r="1.118033988749895" fill="#444444" opacity="0.25"/><circle cx="112.97" cy="84.23" r="1.118033988749895" fill="#444444" opacity="0.25"/><circle cx="257.91" cy="67.03" r="1.118033988749895" fill="#444444" opacity="0.25"/><circle cx="170.37" cy="65.14" r="1.118033988749895" fill="#444444" opacity="0.25"/><circle cx="197.92" cy="88.57" r="1.118033988749895" fill="#444444" opacity="0.25"/><circle cx="184.83" cy="91.54" r="1.118033988749895" fill="#444444" opacity="0.25"/><circle cx="201.78" cy="114.67" r="1.118033988749895" fill="#444444" opacity="0.25"/><circle cx="286.36" cy="85.72" r="1.118033988749895" fill="#444444" opacity="0.25"/><circle cx="158.84" cy="99.99" r="1.118033988749895" fill="#444444" opacity="0.25"/><circle cx="192.61" cy="69.51" r="1.118033988749895" fill="#444444" opacity="0.25"/><circle cx="190.01" cy="70.43" r="1.118033988749895" fill="#444444" opacity="0.25"/><circle cx="142.47" cy="74.48" r="1.118033988749895" fill="#444444" opacity="0.25"/><circle cx="151.56" cy="92.27" r="1.118033988749895" fill="#444444" opacity="0.25"/><circle cx="177.93" cy="82.42" r="1.118033988749895" fill="#444444" opacity="0.25"/><circle cx="189.03" cy="52.48" r="1.118033988749895" fill="#444444" opacity="0.25"/><circle cx="206.61" cy="47.35" r="1.118033988749895" fill="#444444" opacity="0.25"/><circle cx="103.96" cy="105.83" r="1.118033988749895" fill="#444444" opacity="0.25"/><circle cx="121.24" cy="162.96" r="1.118033988749895" fill="#444444" opacity="0.25"/><circle cx="261.82" cy="74.97" r="1.118033988749895" fill="#444444" opacity="0.25"/><circle cx="181.90" cy="129.93" r="1.118033988749895" fill="#444444" opacity="0.25"/><circle cx="225.74" cy="89.56" r="1.118033988749895" fill="#444444" opacity="0.25"/><circle cx="171.31" cy="79.19" r="1.118033988749895" fill="#444444" opacity="0.25"/><circle cx="158.68" cy="52.67" r="1.118033988749895" fill="#444444" opacity="0.25"/><circle cx="282.16" cy="95.21" r="1.118033988749895" fill="#444444" opacity="0.25"/><circle cx="135.78" cy="93.76" r="1.118033988749895" fill="#444444" opacity="0.25"/><circle cx="150.02" cy="105.39" r="1.118033988749895" fill="#444444" opacity="0.25"/><circle cx="219.29" cy="83.13" r="1.118033988749895" fill="#444444" opacity="0.25"/><circle cx="190.53" cy="121.95" r="1.118033988749895" fill="#444444" opacity="0.25"/><circle cx="118.04" cy="76.37" r="1.118033988749895" fill="#444444" opacity="0.25"/><circle cx="195.83" cy="82.12" r="1.118033988749895" fill="#444444" opacity="0.25"/><circle cx="221.61" cy="56.35" r="1.118033988749895" fill="#444444" opacity="0.25"/><circle cx="123.04" cy="98.56" r="1.118033988749895" fill="#444444" opacity="0.25"/><circle cx="165.29" cy="82.50" r="1.118033988749895" fill="#444444" opacity="0.25"/><circle cx="224.10" cy="85.67" r="1.118033988749895" fill="#444444" opacity="0.25"/><circle cx="273.27" cy="91.29" r="1.118033988749895" fill="#444444" opacity="0.25"/><circle cx="88.12" cy="115.20" r="1.118033988749895" fill="#444444" opacity="0.25"/><circle cx="159.57" cy="105.11" r="1.118033988749895" fill="#444444" opacity="0.25"/><circle cx="190.76" cy="89.43" r="1.118033988749895" fill="#444444" opacity="0.25"/><circle cx="149.83" cy="78.26" r="1.118033988749895" fill="#444444" opacity="0.25"/><circle cx="150.10" cy="64.34" r="1.118033988749895" fill="#444444" opacity="0.25"/><circle cx="167.75" cy="106.09" r="1.118033988749895" fill="#444444" opacity="0.25"/><circle cx="212.10" cy="84.12" r="1.118033988749895" fill="#444444" opacity="0.25"/><circle cx="143.08" cy="75.11" r="1.118033988749895" fill="#444444" opacity="0.25"/><circle cx="227.55" cy="68.83" r="1.118033988749895" fill="#444444" opacity="0.25"/><circle cx="225.98" cy="84.42" r="1.118033988749895" fill="#444444" opacity="0.25"/><circle cx="226.87" cy="85.36" r="1.118033988749895" fill="#444444" opacity="0.25"/><circle cx="256.73" cy="99.53" r="1.118033988749895" fill="#444444" opacity="0.25"/><circle cx="166.84" cy="89.98" r="1.118033988749895" fill="#444444" opacity="0.25"/><circle cx="187.46" cy="95.68" r="1.118033988749895" fill="#444444" opacity="0.25"/><circle cx="233.33" cy="134.87" r="1.118033988749895" fill="#444444" opacity="0.25"/><circle cx="244.94" cy="108.76" r="1.118033988749895" fill="#444444" opacity="0.25"/><circle cx="230.67" cy="151.84" r="1.118033988749895" fill="#444444" opacity="0.25"/><circle cx="169.96" cy="77.82" r="1.118033988749895" fill="#444444" opacity="0.25"/><circle cx="168.33" cy="68.23" r="1.118033988749895" fill="#444444" opacity="0.25"/><circle cx="132.19" cy="99.88" r="1.118033988749895" fill="#444444" opacity="0.25"/><circle cx="170.66" cy="86.29" r="1.118033988749895" fill="#444444" opacity="0.25"/><circle cx="150.55" cy="86.65" r="1.118033988749895" fill="#444444" opacity="0.25"/><circle cx="168.30" cy="97.04" r="1.118033988749895" fill="#444444" opacity="0.25"/><circle cx="173.12" cy="53.16" r="1.118033988749895" fill="#444444" opacity="0.25"/><circle cx="225.92" cy="95.43" r="1.118033988749895" fill="#444444" opacity="0.25"/><circle cx="226.99" cy="82.38" r="1.118033988749895" fill="#444444" opacity="0.25"/><circle cx="187.47" cy="92.21" r="1.118033988749895" fill="#444444" opacity="0.25"/><circle cx="139.81" cy="39.64" r="1.118033988749895" fill="#444444" opacity="0.25"/><circle cx="187.31" cy="132.24" r="1.118033988749895" fill="#444444" opacity="0.25"/><circle cx="208.49" cy="85.41" r="1.118033988749895" fill="#444444" opacity="0.25"/><circle cx="226.95" cy="124.53" r="1.118033988749895" fill="#444444" opacity="0.25"/><circle cx="198.77" cy="108.85" r="1.118033988749895" fill="#444444" opacity="0.25"/><circle cx="224.89" cy="114.90" r="1.118033988749895" fill="#444444" opacity="0.25"/><circle cx="160.98" cy="71.04" r="1.118033988749895" fill="#444444" opacity="0.25"/><circle cx="217.97" cy="118.16" r="1.118033988749895" fill="#444444" opacity="0.25"/><circle cx="221.81" cy="116.28" r="1.118033988749895" fill="#444444" opacity="0.25"/><circle cx="174.19" cy="99.02" r="1.118033988749895" fill="#444444" opacity="0.25"/><circle cx="156.57" cy="114.92" r="1.118033988749895" fill="#444444" opacity="0.25"/><circle cx="243.38" cy="115.88" r="1.118033988749895" fill="#444444" opacity="0.25"/><circle cx="146.24" cy="50.36" r="1.118033988749895" fill="#444444" opacity="0.25"/><circle cx="219.57" cy="107.52" r="1.118033988749895" fill="#444444" opacity="0.25"/><circle cx="177.85" cy="111.00" r="1.118033988749895" fill="#444444" opacity="0.25"/><circle cx="174.46" cy="55.54" r="1.118033988749895" fill="#444444" opacity="0.25"/><circle cx="178.56" cy="88.35" r="1.118033988749895" fill="#444444" opacity="0.25"/><circle cx="170.37" cy="62.17" r="1.118033988749895" fill="#444444" opacity="0.25"/><circle cx="187.95" cy="132.04" r="1.118033988749895" fill="#444444" opacity="0.25"/><circle cx="267.27" cy="98.06" r="1.118033988749895" fill="#444444" opacity="0.25"/><circle cx="252.99" cy="78.41" r="1.118033988749895" fill="#444444" opacity="0.25"/><circle cx="183.79" cy="85.01" r="1.118033988749895" fill="#444444" opacity="0.25"/><circle cx="210.15" cy="76.74" r="1.118033988749895" fill="#444444" opacity="0.25"/><circle cx="229.20" cy="58.89" r="1.118033988749895" fill="#444444" opacity="0.25"/><circle cx="171.08" cy="75.65" r="1.118033988749895" fill="#444444" opacity="0.25"/><circle cx="269.72" cy="62.58" r="1.118033988749895" fill="#444444" opacity="0.25"/><circle cx="191.09" cy="71.45" r="1.118033988749895" fill="#444444" opacity="0.25"/><circle cx="216.64" cy="109.64" r="1.118033988749895" fill="#444444" opacity="0.25"/></g><g class="plotlet-artist" data-plotlet-type="kde_2d" data-plotlet-index="1" data-plotlet-color="#1f77b4"><line x1="65.65" x2="65.20" y1="225.46" y2="225.23" stroke="rgb(68,1,84)" stroke-width="1.2"/><line x1="75.57" x2="65.65" y1="228.85" y2="225.46" stroke="rgb(68,1,84)" stroke-width="1.2"/><line x1="85.49" x2="75.57" y1="230.43" y2="228.85" stroke="rgb(68,1,84)" stroke-width="1.2"/><line x1="95.42" x2="85.49" y1="230.98" y2="230.43" stroke="rgb(68,1,84)" stroke-width="1.2"/><line x1="105.34" x2="95.42" y1="230.78" y2="230.98" stroke="rgb(68,1,84)" stroke-width="1.2"/><line x1="115.27" x2="105.34" y1="230.02" y2="230.78" stroke="rgb(68,1,84)" stroke-width="1.2"/><line x1="125.19" x2="115.27" y1="228.81" y2="230.02" stroke="rgb(68,1,84)" stroke-width="1.2"/><line x1="135.11" x2="125.19" y1="227.20" y2="228.81" stroke="rgb(68,1,84)" stroke-width="1.2"/><line x1="144.08" x2="135.11" y1="225.23" y2="227.20" stroke="rgb(68,1,84)" stroke-width="1.2"/><line x1="55.72" x2="50.09" y1="220.68" y2="216.95" stroke="rgb(68,1,84)" stroke-width="1.2"/><line x1="65.20" x2="55.72" y1="225.23" y2="220.68" stroke="rgb(68,1,84)" stroke-width="1.2"/><line x1="144.08" x2="145.04" y1="225.23" y2="224.93" stroke="rgb(68,1,84)" stroke-width="1.2"/><line x1="154.96" x2="145.04" y1="218.92" y2="224.93" stroke="rgb(68,1,84)" stroke-width="1.2"/><line x1="156.72" x2="154.96" y1="216.95" y2="218.92" stroke="rgb(68,1,84)" stroke-width="1.2"/><line x1="45.80" x2="37.72" y1="214.01" y2="208.67" stroke="rgb(68,1,84)" stroke-width="1.2"/><line x1="50.09" x2="45.80" y1="216.95" y2="214.01" stroke="rgb(68,1,84)" stroke-width="1.2"/><line x1="156.72" x2="158.32" y1="216.95" y2="208.67" stroke="rgb(68,1,84)" stroke-width="1.2"/><line x1="35.87" x2="27.37" y1="207.17" y2="200.39" stroke="rgb(68,1,84)" stroke-width="1.2"/><line x1="37.72" x2="35.87" y1="208.67" y2="207.17" stroke="rgb(68,1,84)" stroke-width="1.2"/><line x1="158.32" x2="158.96" y1="208.67" y2="200.39" stroke="rgb(68,1,84)" stroke-width="1.2"/><line x1="25.95" x2="22.97" y1="197.91" y2="192.11" stroke="rgb(68,1,84)" stroke-width="1.2"/><line x1="27.37" x2="25.95" y1="200.39" y2="197.91" stroke="rgb(68,1,84)" stroke-width="1.2"/><line x1="158.96" x2="161.52" y1="200.39" y2="192.11" stroke="rgb(68,1,84)" stroke-width="1.2"/><line x1="22.97" x2="21.11" y1="192.11" y2="183.83" stroke="rgb(68,1,84)" stroke-width="1.2"/><line x1="161.52" x2="164.89" y1="192.11" y2="184.30" stroke="rgb(68,1,84)" stroke-width="1.2"/><line x1="165.12" x2="164.89" y1="183.83" y2="184.30" stroke="rgb(68,1,84)" stroke-width="1.2"/><line x1="21.11" x2="19.96" y1="183.83" y2="175.55" stroke="rgb(68,1,84)" stroke-width="1.2"/><line x1="165.12" x2="169.61" y1="183.83" y2="175.55" stroke="rgb(68,1,84)" stroke-width="1.2"/><line x1="19.96" x2="18.86" y1="175.55" y2="167.26" stroke="rgb(68,1,84)" stroke-width="1.2"/><line x1="169.61" x2="173.77" y1="175.55" y2="167.26" stroke="rgb(68,1,84)" stroke-width="1.2"/><line x1="18.86" x2="17.75" y1="167.26" y2="158.98" stroke="rgb(68,1,84)" stroke-width="1.2"/><line x1="173.77" x2="174.81" y1="167.26" y2="165.84" stroke="rgb(68,1,84)" stroke-width="1.2"/><line x1="184.73" x2="174.81" y1="160.64" y2="165.84" stroke="rgb(68,1,84)" stroke-width="1.2"/><line x1="194.61" x2="184.73" y1="158.98" y2="160.64" stroke="rgb(68,1,84)" stroke-width="1.2"/><line x1="17.75" x2="17.49" y1="158.98" y2="150.70" stroke="rgb(68,1,84)" stroke-width="1.2"/><line x1="194.61" x2="194.66" y1="158.98" y2="158.98" stroke="rgb(68,1,84)" stroke-width="1.2"/><line x1="204.58" x2="194.66" y1="157.97" y2="158.98" stroke="rgb(68,1,84)" stroke-width="1.2"/><line x1="214.51" x2="204.58" y1="156.64" y2="157.97" stroke="rgb(68,1,84)" stroke-width="1.2"/><line x1="224.43" x2="214.51" y1="154.77" y2="156.64" stroke="rgb(68,1,84)" stroke-width="1.2"/><line x1="234.35" x2="224.43" y1="151.73" y2="154.77" stroke="rgb(68,1,84)" stroke-width="1.2"/><line x1="236.52" x2="234.35" y1="150.70" y2="151.73" stroke="rgb(68,1,84)" stroke-width="1.2"/><line x1="17.49" x2="20.21" y1="150.70" y2="142.42" stroke="rgb(68,1,84)" stroke-width="1.2"/><line x1="236.52" x2="244.28" y1="150.70" y2="146.81" stroke="rgb(68,1,84)" stroke-width="1.2"/><line x1="249.67" x2="244.28" y1="142.42" y2="146.81" stroke="rgb(68,1,84)" stroke-width="1.2"/><line x1="20.21" x2="25.95" y1="142.42" y2="135.15" stroke="rgb(68,1,84)" stroke-width="1.2"/><line x1="26.58" x2="25.95" y1="134.14" y2="135.15" stroke="rgb(68,1,84)" stroke-width="1.2"/><line x1="249.67" x2="254.20" y1="142.42" y2="138.31" stroke="rgb(68,1,84)" stroke-width="1.2"/><line x1="257.91" x2="254.20" y1="134.14" y2="138.31" stroke="rgb(68,1,84)" stroke-width="1.2"/><line x1="26.58" x2="30.86" y1="134.14" y2="125.86" stroke="rgb(68,1,84)" stroke-width="1.2"/><line x1="257.91" x2="264.13" y1="134.14" y2="126.41" stroke="rgb(68,1,84)" stroke-width="1.2"/><line x1="264.60" x2="264.13" y1="125.86" y2="126.41" stroke="rgb(68,1,84)" stroke-width="1.2"/><line x1="30.86" x2="33.36" y1="125.86" y2="117.58" stroke="rgb(68,1,84)" stroke-width="1.2"/><line x1="264.60" x2="271.98" y1="125.86" y2="117.58" stroke="rgb(68,1,84)" stroke-width="1.2"/><line x1="33.36" x2="35.66" y1="117.58" y2="109.30" stroke="rgb(68,1,84)" stroke-width="1.2"/><line x1="271.98" x2="274.05" y1="117.58" y2="115.10" stroke="rgb(68,1,84)" stroke-width="1.2"/><line x1="279.92" x2="274.05" y1="109.30" y2="115.10" stroke="rgb(68,1,84)" stroke-width="1.2"/><line x1="35.66" x2="35.87" y1="109.30" y2="108.80" stroke="rgb(68,1,84)" stroke-width="1.2"/><line x1="40.13" x2="35.87" y1="101.02" y2="108.80" stroke="rgb(68,1,84)" stroke-width="1.2"/><line x1="279.92" x2="283.98" y1="109.30" y2="103.91" stroke="rgb(68,1,84)" stroke-width="1.2"/><line x1="286.39" x2="283.98" y1="101.02" y2="103.91" stroke="rgb(68,1,84)" stroke-width="1.2"/><line x1="40.13" x2="45.80" y1="101.02" y2="96.04" stroke="rgb(68,1,84)" stroke-width="1.2"/><line x1="55.31" x2="45.80" y1="92.74" y2="96.04" stroke="rgb(68,1,84)" stroke-width="1.2"/><line x1="286.39" x2="289.51" y1="101.02" y2="92.74" stroke="rgb(68,1,84)" stroke-width="1.2"/><line x1="55.31" x2="55.72" y1="92.74" y2="92.61" stroke="rgb(68,1,84)" stroke-width="1.2"/><line x1="65.65" x2="55.72" y1="90.69" y2="92.61" stroke="rgb(68,1,84)" stroke-width="1.2"/><line x1="75.57" x2="65.65" y1="87.33" y2="90.69" stroke="rgb(68,1,84)" stroke-width="1.2"/><line x1="79.80" x2="75.57" y1="84.45" y2="87.33" stroke="rgb(68,1,84)" stroke-width="1.2"/><line x1="289.51" x2="288.83" y1="92.74" y2="84.45" stroke="rgb(68,1,84)" stroke-width="1.2"/><line x1="79.80" x2="85.49" y1="84.45" y2="79.77" stroke="rgb(68,1,84)" stroke-width="1.2"/><line x1="88.87" x2="85.49" y1="76.17" y2="79.77" stroke="rgb(68,1,84)" stroke-width="1.2"/><line x1="288.83" x2="285.42" y1="84.45" y2="76.17" stroke="rgb(68,1,84)" stroke-width="1.2"/><line x1="88.87" x2="95.42" y1="76.17" y2="70.64" stroke="rgb(68,1,84)" stroke-width="1.2"/><line x1="98.80" x2="95.42" y1="67.89" y2="70.64" stroke="rgb(68,1,84)" stroke-width="1.2"/><line x1="283.98" x2="281.32" y1="73.51" y2="67.89" stroke="rgb(68,1,84)" stroke-width="1.2"/><line x1="285.42" x2="283.98" y1="76.17" y2="73.51" stroke="rgb(68,1,84)" stroke-width="1.2"/><line x1="98.80" x2="105.34" y1="67.89" y2="63.18" stroke="rgb(68,1,84)" stroke-width="1.2"/><line x1="110.17" x2="105.34" y1="59.61" y2="63.18" stroke="rgb(68,1,84)" stroke-width="1.2"/><line x1="281.32" x2="276.09" y1="67.89" y2="59.61" stroke="rgb(68,1,84)" stroke-width="1.2"/><line x1="110.17" x2="115.27" y1="59.61" y2="55.07" stroke="rgb(68,1,84)" stroke-width="1.2"/><line x1="119.16" x2="115.27" y1="51.33" y2="55.07" stroke="rgb(68,1,84)" stroke-width="1.2"/><line x1="274.05" x2="268.88" y1="57.09" y2="51.33" stroke="rgb(68,1,84)" stroke-width="1.2"/><line x1="276.09" x2="274.05" y1="59.61" y2="57.09" stroke="rgb(68,1,84)" stroke-width="1.2"/><line x1="119.16" x2="125.19" y1="51.33" y2="44.20" stroke="rgb(68,1,84)" stroke-width="1.2"/><line x1="126.31" x2="125.19" y1="43.05" y2="44.20" stroke="rgb(68,1,84)" stroke-width="1.2"/><line x1="264.13" x2="259.98" y1="46.90" y2="43.05" stroke="rgb(68,1,84)" stroke-width="1.2"/><line x1="268.88" x2="264.13" y1="51.33" y2="46.90" stroke="rgb(68,1,84)" stroke-width="1.2"/><line x1="126.31" x2="135.11" y1="43.05" y2="35.41" stroke="rgb(68,1,84)" stroke-width="1.2"/><line x1="136.45" x2="135.11" y1="34.77" y2="35.41" stroke="rgb(68,1,84)" stroke-width="1.2"/><line x1="254.20" x2="248.80" y1="38.22" y2="34.77" stroke="rgb(68,1,84)" stroke-width="1.2"/><line x1="259.98" x2="254.20" y1="43.05" y2="38.22" stroke="rgb(68,1,84)" stroke-width="1.2"/><line x1="136.45" x2="145.04" y1="34.77" y2="31.37" stroke="rgb(68,1,84)" stroke-width="1.2"/><line x1="154.96" x2="145.04" y1="30.06" y2="31.37" stroke="rgb(68,1,84)" stroke-width="1.2"/><line x1="164.89" x2="154.96" y1="30.44" y2="30.06" stroke="rgb(68,1,84)" stroke-width="1.2"/><line x1="174.81" x2="164.89" y1="31.71" y2="30.44" stroke="rgb(68,1,84)" stroke-width="1.2"/><line x1="184.73" x2="174.81" y1="33.02" y2="31.71" stroke="rgb(68,1,84)" stroke-width="1.2"/><line x1="194.66" x2="184.73" y1="33.43" y2="33.02" stroke="rgb(68,1,84)" stroke-width="1.2"/><line x1="204.58" x2="194.66" y1="32.52" y2="33.43" stroke="rgb(68,1,84)" stroke-width="1.2"/><line x1="214.51" x2="204.58" y1="30.87" y2="32.52" stroke="rgb(68,1,84)" stroke-width="1.2"/><line x1="224.43" x2="214.51" y1="29.58" y2="30.87" stroke="rgb(68,1,84)" stroke-width="1.2"/><line x1="234.35" x2="224.43" y1="29.65" y2="29.58" stroke="rgb(68,1,84)" stroke-width="1.2"/><line x1="244.28" x2="234.35" y1="32.25" y2="29.65" stroke="rgb(68,1,84)" stroke-width="1.2"/><line x1="248.80" x2="244.28" y1="34.77" y2="32.25" stroke="rgb(68,1,84)" stroke-width="1.2"/><line x1="75.57" x2="68.67" y1="211.75" y2="208.67" stroke="rgb(66,64,134)" stroke-width="1.2"/><line x1="85.49" x2="75.57" y1="214.03" y2="211.75" stroke="rgb(66,64,134)" stroke-width="1.2"/><line x1="95.42" x2="85.49" y1="214.91" y2="214.03" stroke="rgb(66,64,134)" stroke-width="1.2"/><line x1="105.34" x2="95.42" y1="214.74" y2="214.91" stroke="rgb(66,64,134)" stroke-width="1.2"/><line x1="115.27" x2="105.34" y1="213.18" y2="214.74" stroke="rgb(66,64,134)" stroke-width="1.2"/><line x1="125.19" x2="115.27" y1="209.09" y2="213.18" stroke="rgb(66,64,134)" stroke-width="1.2"/><line x1="125.85" x2="125.19" y1="208.67" y2="209.09" stroke="rgb(66,64,134)" stroke-width="1.2"/><line x1="55.72" x2="54.93" y1="201.02" y2="200.39" stroke="rgb(66,64,134)" stroke-width="1.2"/><line x1="65.65" x2="55.72" y1="207.48" y2="201.02" stroke="rgb(66,64,134)" stroke-width="1.2"/><line x1="68.67" x2="65.65" y1="208.67" y2="207.48" stroke="rgb(66,64,134)" stroke-width="1.2"/><line x1="125.85" x2="134.90" y1="208.67" y2="200.39" stroke="rgb(66,64,134)" stroke-width="1.2"/><line x1="45.80" x2="45.49" y1="192.41" y2="192.11" stroke="rgb(66,64,134)" stroke-width="1.2"/><line x1="54.93" x2="45.80" y1="200.39" y2="192.41" stroke="rgb(66,64,134)" stroke-width="1.2"/><line x1="134.90" x2="135.11" y1="200.39" y2="200.15" stroke="rgb(66,64,134)" stroke-width="1.2"/><line x1="141.16" x2="135.11" y1="192.11" y2="200.15" stroke="rgb(66,64,134)" stroke-width="1.2"/><line x1="45.49" x2="38.89" y1="192.11" y2="183.83" stroke="rgb(66,64,134)" stroke-width="1.2"/><line x1="141.16" x2="145.04" y1="192.11" y2="186.20" stroke="rgb(66,64,134)" stroke-width="1.2"/><line x1="146.66" x2="145.04" y1="183.83" y2="186.20" stroke="rgb(66,64,134)" stroke-width="1.2"/><line x1="35.87" x2="35.69" y1="175.98" y2="175.55" stroke="rgb(66,64,134)" stroke-width="1.2"/><line x1="38.89" x2="35.87" y1="183.83" y2="175.98" stroke="rgb(66,64,134)" stroke-width="1.2"/><line x1="146.66" x2="151.25" y1="183.83" y2="175.55" stroke="rgb(66,64,134)" stroke-width="1.2"/><line x1="35.69" x2="34.13" y1="175.55" y2="167.26" stroke="rgb(66,64,134)" stroke-width="1.2"/><line x1="151.25" x2="153.69" y1="175.55" y2="167.26" stroke="rgb(66,64,134)" stroke-width="1.2"/><line x1="34.13" x2="34.65" y1="167.26" y2="158.98" stroke="rgb(66,64,134)" stroke-width="1.2"/><line x1="153.69" x2="154.96" y1="167.26" y2="160.92" stroke="rgb(66,64,134)" stroke-width="1.2"/><line x1="155.52" x2="154.96" y1="158.98" y2="160.92" stroke="rgb(66,64,134)" stroke-width="1.2"/><line x1="34.65" x2="35.87" y1="158.98" y2="155.44" stroke="rgb(66,64,134)" stroke-width="1.2"/><line x1="37.32" x2="35.87" y1="150.70" y2="155.44" stroke="rgb(66,64,134)" stroke-width="1.2"/><line x1="155.52" x2="160.14" y1="158.98" y2="150.70" stroke="rgb(66,64,134)" stroke-width="1.2"/><line x1="37.32" x2="42.11" y1="150.70" y2="142.42" stroke="rgb(66,64,134)" stroke-width="1.2"/><line x1="160.14" x2="164.89" y1="150.70" y2="145.96" stroke="rgb(66,64,134)" stroke-width="1.2"/><line x1="172.30" x2="164.89" y1="142.42" y2="145.96" stroke="rgb(66,64,134)" stroke-width="1.2"/><line x1="42.11" x2="45.80" y1="142.42" y2="137.06" stroke="rgb(66,64,134)" stroke-width="1.2"/><line x1="47.57" x2="45.80" y1="134.14" y2="137.06" stroke="rgb(66,64,134)" stroke-width="1.2"/><line x1="172.30" x2="174.81" y1="142.42" y2="141.35" stroke="rgb(66,64,134)" stroke-width="1.2"/><line x1="184.73" x2="174.81" y1="139.33" y2="141.35" stroke="rgb(66,64,134)" stroke-width="1.2"/><line x1="194.66" x2="184.73" y1="138.02" y2="139.33" stroke="rgb(66,64,134)" stroke-width="1.2"/><line x1="204.58" x2="194.66" y1="136.98" y2="138.02" stroke="rgb(66,64,134)" stroke-width="1.2"/><line x1="214.51" x2="204.58" y1="136.02" y2="136.98" stroke="rgb(66,64,134)" stroke-width="1.2"/><line x1="224.43" x2="214.51" y1="134.37" y2="136.02" stroke="rgb(66,64,134)" stroke-width="1.2"/><line x1="225.06" x2="224.43" y1="134.14" y2="134.37" stroke="rgb(66,64,134)" stroke-width="1.2"/><line x1="47.57" x2="51.82" y1="134.14" y2="125.86" stroke="rgb(66,64,134)" stroke-width="1.2"/><line x1="225.06" x2="234.35" y1="134.14" y2="131.28" stroke="rgb(66,64,134)" stroke-width="1.2"/><line x1="242.92" x2="234.35" y1="125.86" y2="131.28" stroke="rgb(66,64,134)" stroke-width="1.2"/><line x1="51.82" x2="55.72" y1="125.86" y2="119.32" stroke="rgb(66,64,134)" stroke-width="1.2"/><line x1="57.09" x2="55.72" y1="117.58" y2="119.32" stroke="rgb(66,64,134)" stroke-width="1.2"/><line x1="242.92" x2="244.28" y1="125.86" y2="124.93" stroke="rgb(66,64,134)" stroke-width="1.2"/><line x1="251.63" x2="244.28" y1="117.58" y2="124.93" stroke="rgb(66,64,134)" stroke-width="1.2"/><line x1="57.09" x2="65.65" y1="117.58" y2="111.07" stroke="rgb(66,64,134)" stroke-width="1.2"/><line x1="69.49" x2="65.65" y1="109.30" y2="111.07" stroke="rgb(66,64,134)" stroke-width="1.2"/><line x1="251.63" x2="254.20" y1="117.58" y2="114.28" stroke="rgb(66,64,134)" stroke-width="1.2"/><line x1="258.09" x2="254.20" y1="109.30" y2="114.28" stroke="rgb(66,64,134)" stroke-width="1.2"/><line x1="69.49" x2="75.57" y1="109.30" y2="106.85" stroke="rgb(66,64,134)" stroke-width="1.2"/><line x1="85.49" x2="75.57" y1="102.57" y2="106.85" stroke="rgb(66,64,134)" stroke-width="1.2"/><line x1="88.04" x2="85.49" y1="101.02" y2="102.57" stroke="rgb(66,64,134)" stroke-width="1.2"/><line x1="258.09" x2="263.02" y1="109.30" y2="101.02" stroke="rgb(66,64,134)" stroke-width="1.2"/><line x1="88.04" x2="95.42" y1="101.02" y2="94.92" stroke="rgb(66,64,134)" stroke-width="1.2"/><line x1="97.31" x2="95.42" y1="92.74" y2="94.92" stroke="rgb(66,64,134)" stroke-width="1.2"/><line x1="263.02" x2="264.13" y1="101.02" y2="97.63" stroke="rgb(66,64,134)" stroke-width="1.2"/><line x1="266.07" x2="264.13" y1="92.74" y2="97.63" stroke="rgb(66,64,134)" stroke-width="1.2"/><line x1="97.31" x2="104.16" y1="92.74" y2="84.45" stroke="rgb(66,64,134)" stroke-width="1.2"/><line x1="266.07" x2="266.15" y1="92.74" y2="84.45" stroke="rgb(66,64,134)" stroke-width="1.2"/><line x1="104.16" x2="105.34" y1="84.45" y2="83.27" stroke="rgb(66,64,134)" stroke-width="1.2"/><line x1="112.33" x2="105.34" y1="76.17" y2="83.27" stroke="rgb(66,64,134)" stroke-width="1.2"/><line x1="264.13" x2="263.44" y1="78.63" y2="76.17" stroke="rgb(66,64,134)" stroke-width="1.2"/><line x1="266.15" x2="264.13" y1="84.45" y2="78.63" stroke="rgb(66,64,134)" stroke-width="1.2"/><line x1="112.33" x2="115.27" y1="76.17" y2="73.80" stroke="rgb(66,64,134)" stroke-width="1.2"/><line x1="122.58" x2="115.27" y1="67.89" y2="73.80" stroke="rgb(66,64,134)" stroke-width="1.2"/><line x1="263.44" x2="258.33" y1="76.17" y2="67.89" stroke="rgb(66,64,134)" stroke-width="1.2"/><line x1="122.58" x2="125.19" y1="67.89" y2="65.82" stroke="rgb(66,64,134)" stroke-width="1.2"/><line x1="133.44" x2="125.19" y1="59.61" y2="65.82" stroke="rgb(66,64,134)" stroke-width="1.2"/><line x1="254.20" x2="249.86" y1="63.65" y2="59.61" stroke="rgb(66,64,134)" stroke-width="1.2"/><line x1="258.33" x2="254.20" y1="67.89" y2="63.65" stroke="rgb(66,64,134)" stroke-width="1.2"/><line x1="133.44" x2="135.11" y1="59.61" y2="58.20" stroke="rgb(66,64,134)" stroke-width="1.2"/><line x1="145.04" x2="135.11" y1="51.68" y2="58.20" stroke="rgb(66,64,134)" stroke-width="1.2"/><line x1="145.84" x2="145.04" y1="51.33" y2="51.68" stroke="rgb(66,64,134)" stroke-width="1.2"/><line x1="244.28" x2="238.31" y1="54.99" y2="51.33" stroke="rgb(66,64,134)" stroke-width="1.2"/><line x1="249.86" x2="244.28" y1="59.61" y2="54.99" stroke="rgb(66,64,134)" stroke-width="1.2"/><line x1="145.84" x2="154.96" y1="51.33" y2="47.06" stroke="rgb(66,64,134)" stroke-width="1.2"/><line x1="164.89" x2="154.96" y1="45.22" y2="47.06" stroke="rgb(66,64,134)" stroke-width="1.2"/><line x1="174.81" x2="164.89" y1="44.90" y2="45.22" stroke="rgb(66,64,134)" stroke-width="1.2"/><line x1="184.73" x2="174.81" y1="45.24" y2="44.90" stroke="rgb(66,64,134)" stroke-width="1.2"/><line x1="194.66" x2="184.73" y1="45.59" y2="45.24" stroke="rgb(66,64,134)" stroke-width="1.2"/><line x1="204.58" x2="194.66" y1="45.57" y2="45.59" stroke="rgb(66,64,134)" stroke-width="1.2"/><line x1="214.51" x2="204.58" y1="45.42" y2="45.57" stroke="rgb(66,64,134)" stroke-width="1.2"/><line x1="224.43" x2="214.51" y1="46.08" y2="45.42" stroke="rgb(66,64,134)" stroke-width="1.2"/><line x1="234.35" x2="224.43" y1="49.00" y2="46.08" stroke="rgb(66,64,134)" stroke-width="1.2"/><line x1="238.31" x2="234.35" y1="51.33" y2="49.00" stroke="rgb(66,64,134)" stroke-width="1.2"/><line x1="75.57" x2="67.49" y1="196.28" y2="192.11" stroke="rgb(33,145,140)" stroke-width="1.2"/><line x1="85.49" x2="75.57" y1="198.87" y2="196.28" stroke="rgb(33,145,140)" stroke-width="1.2"/><line x1="95.42" x2="85.49" y1="199.61" y2="198.87" stroke="rgb(33,145,140)" stroke-width="1.2"/><line x1="105.34" x2="95.42" y1="198.51" y2="199.61" stroke="rgb(33,145,140)" stroke-width="1.2"/><line x1="115.27" x2="105.34" y1="194.48" y2="198.51" stroke="rgb(33,145,140)" stroke-width="1.2"/><line x1="118.41" x2="115.27" y1="192.11" y2="194.48" stroke="rgb(33,145,140)" stroke-width="1.2"/><line x1="65.65" x2="57.07" y1="191.03" y2="183.83" stroke="rgb(33,145,140)" stroke-width="1.2"/><line x1="67.49" x2="65.65" y1="192.11" y2="191.03" stroke="rgb(33,145,140)" stroke-width="1.2"/><line x1="118.41" x2="125.19" y1="192.11" y2="185.41" stroke="rgb(33,145,140)" stroke-width="1.2"/><line x1="126.51" x2="125.19" y1="183.83" y2="185.41" stroke="rgb(33,145,140)" stroke-width="1.2"/><line x1="55.72" x2="51.53" y1="182.01" y2="175.55" stroke="rgb(33,145,140)" stroke-width="1.2"/><line x1="57.07" x2="55.72" y1="183.83" y2="182.01" stroke="rgb(33,145,140)" stroke-width="1.2"/><line x1="126.51" x2="131.92" y1="183.83" y2="175.55" stroke="rgb(33,145,140)" stroke-width="1.2"/><line x1="51.53" x2="49.79" y1="175.55" y2="167.26" stroke="rgb(33,145,140)" stroke-width="1.2"/><line x1="131.92" x2="135.07" y1="175.55" y2="167.26" stroke="rgb(33,145,140)" stroke-width="1.2"/><line x1="49.79" x2="51.19" y1="167.26" y2="158.98" stroke="rgb(33,145,140)" stroke-width="1.2"/><line x1="135.07" x2="135.11" y1="167.26" y2="167.06" stroke="rgb(33,145,140)" stroke-width="1.2"/><line x1="136.76" x2="135.11" y1="158.98" y2="167.06" stroke="rgb(33,145,140)" stroke-width="1.2"/><line x1="51.19" x2="55.42" y1="158.98" y2="150.70" stroke="rgb(33,145,140)" stroke-width="1.2"/><line x1="136.76" x2="138.34" y1="158.98" y2="150.70" stroke="rgb(33,145,140)" stroke-width="1.2"/><line x1="55.42" x2="55.72" y1="150.70" y2="150.28" stroke="rgb(33,145,140)" stroke-width="1.2"/><line x1="61.02" x2="55.72" y1="142.42" y2="150.28" stroke="rgb(33,145,140)" stroke-width="1.2"/><line x1="138.34" x2="140.81" y1="150.70" y2="142.42" stroke="rgb(33,145,140)" stroke-width="1.2"/><line x1="61.02" x2="65.65" y1="142.42" y2="136.50" stroke="rgb(33,145,140)" stroke-width="1.2"/><line x1="67.77" x2="65.65" y1="134.14" y2="136.50" stroke="rgb(33,145,140)" stroke-width="1.2"/><line x1="140.81" x2="144.50" y1="142.42" y2="134.14" stroke="rgb(33,145,140)" stroke-width="1.2"/><line x1="67.77" x2="75.57" y1="134.14" y2="126.89" stroke="rgb(33,145,140)" stroke-width="1.2"/><line x1="77.22" x2="75.57" y1="125.86" y2="126.89" stroke="rgb(33,145,140)" stroke-width="1.2"/><line x1="144.50" x2="145.04" y1="134.14" y2="133.25" stroke="rgb(33,145,140)" stroke-width="1.2"/><line x1="152.01" x2="145.04" y1="125.86" y2="133.25" stroke="rgb(33,145,140)" stroke-width="1.2"/><line x1="77.22" x2="85.49" y1="125.86" y2="121.22" stroke="rgb(33,145,140)" stroke-width="1.2"/><line x1="94.55" x2="85.49" y1="117.58" y2="121.22" stroke="rgb(33,145,140)" stroke-width="1.2"/><line x1="152.01" x2="154.96" y1="125.86" y2="124.25" stroke="rgb(33,145,140)" stroke-width="1.2"/><line x1="164.89" x2="154.96" y1="120.52" y2="124.25" stroke="rgb(33,145,140)" stroke-width="1.2"/><line x1="174.81" x2="164.89" y1="117.93" y2="120.52" stroke="rgb(33,145,140)" stroke-width="1.2"/><line x1="176.60" x2="174.81" y1="117.58" y2="117.93" stroke="rgb(33,145,140)" stroke-width="1.2"/><line x1="94.55" x2="95.42" y1="117.58" y2="117.17" stroke="rgb(33,145,140)" stroke-width="1.2"/><line x1="105.34" x2="95.42" y1="111.98" y2="117.17" stroke="rgb(33,145,140)" stroke-width="1.2"/><line x1="109.09" x2="105.34" y1="109.30" y2="111.98" stroke="rgb(33,145,140)" stroke-width="1.2"/><line x1="176.60" x2="184.73" y1="117.58" y2="116.44" stroke="rgb(33,145,140)" stroke-width="1.2"/><line x1="194.66" x2="184.73" y1="115.49" y2="116.44" stroke="rgb(33,145,140)" stroke-width="1.2"/><line x1="204.58" x2="194.66" y1="114.94" y2="115.49" stroke="rgb(33,145,140)" stroke-width="1.2"/><line x1="214.51" x2="204.58" y1="114.38" y2="114.94" stroke="rgb(33,145,140)" stroke-width="1.2"/><line x1="224.43" x2="214.51" y1="112.46" y2="114.38" stroke="rgb(33,145,140)" stroke-width="1.2"/><line x1="230.50" x2="224.43" y1="109.30" y2="112.46" stroke="rgb(33,145,140)" stroke-width="1.2"/><line x1="109.09" x2="115.08" y1="109.30" y2="101.02" stroke="rgb(33,145,140)" stroke-width="1.2"/><line x1="230.50" x2="234.35" y1="109.30" y2="106.58" stroke="rgb(33,145,140)" stroke-width="1.2"/><line x1="239.06" x2="234.35" y1="101.02" y2="106.58" stroke="rgb(33,145,140)" stroke-width="1.2"/><line x1="115.08" x2="115.27" y1="101.02" y2="100.72" stroke="rgb(33,145,140)" stroke-width="1.2"/><line x1="119.61" x2="115.27" y1="92.74" y2="100.72" stroke="rgb(33,145,140)" stroke-width="1.2"/><line x1="239.06" x2="243.33" y1="101.02" y2="92.74" stroke="rgb(33,145,140)" stroke-width="1.2"/><line x1="119.61" x2="125.19" y1="92.74" y2="85.38" stroke="rgb(33,145,140)" stroke-width="1.2"/><line x1="125.85" x2="125.19" y1="84.45" y2="85.38" stroke="rgb(33,145,140)" stroke-width="1.2"/><line x1="243.33" x2="244.28" y1="92.74" y2="85.03" stroke="rgb(33,145,140)" stroke-width="1.2"/><line x1="244.35" x2="244.28" y1="84.45" y2="85.03" stroke="rgb(33,145,140)" stroke-width="1.2"/><line x1="125.85" x2="134.42" y1="84.45" y2="76.17" stroke="rgb(33,145,140)" stroke-width="1.2"/><line x1="244.28" x2="241.27" y1="84.26" y2="76.17" stroke="rgb(33,145,140)" stroke-width="1.2"/><line x1="244.35" x2="244.28" y1="84.45" y2="84.26" stroke="rgb(33,145,140)" stroke-width="1.2"/><line x1="134.42" x2="135.11" y1="76.17" y2="75.61" stroke="rgb(33,145,140)" stroke-width="1.2"/><line x1="145.04" x2="135.11" y1="68.35" y2="75.61" stroke="rgb(33,145,140)" stroke-width="1.2"/><line x1="145.82" x2="145.04" y1="67.89" y2="68.35" stroke="rgb(33,145,140)" stroke-width="1.2"/><line x1="234.35" x2="232.50" y1="69.22" y2="67.89" stroke="rgb(33,145,140)" stroke-width="1.2"/><line x1="241.27" x2="234.35" y1="76.17" y2="69.22" stroke="rgb(33,145,140)" stroke-width="1.2"/><line x1="145.82" x2="154.96" y1="67.89" y2="62.93" stroke="rgb(33,145,140)" stroke-width="1.2"/><line x1="164.89" x2="154.96" y1="59.76" y2="62.93" stroke="rgb(33,145,140)" stroke-width="1.2"/><line x1="165.89" x2="164.89" y1="59.61" y2="59.76" stroke="rgb(33,145,140)" stroke-width="1.2"/><line x1="204.58" x2="204.34" y1="59.63" y2="59.61" stroke="rgb(33,145,140)" stroke-width="1.2"/><line x1="214.51" x2="204.58" y1="60.92" y2="59.63" stroke="rgb(33,145,140)" stroke-width="1.2"/><line x1="224.43" x2="214.51" y1="63.62" y2="60.92" stroke="rgb(33,145,140)" stroke-width="1.2"/><line x1="232.50" x2="224.43" y1="67.89" y2="63.62" stroke="rgb(33,145,140)" stroke-width="1.2"/><line x1="165.89" x2="174.81" y1="59.61" y2="58.22" stroke="rgb(33,145,140)" stroke-width="1.2"/><line x1="184.73" x2="174.81" y1="58.10" y2="58.22" stroke="rgb(33,145,140)" stroke-width="1.2"/><line x1="194.66" x2="184.73" y1="58.72" y2="58.10" stroke="rgb(33,145,140)" stroke-width="1.2"/><line x1="204.34" x2="194.66" y1="59.61" y2="58.72" stroke="rgb(33,145,140)" stroke-width="1.2"/><line x1="75.57" x2="75.41" y1="183.93" y2="183.83" stroke="rgb(129,211,77)" stroke-width="1.2"/><line x1="85.49" x2="75.57" y1="187.32" y2="183.93" stroke="rgb(129,211,77)" stroke-width="1.2"/><line x1="95.42" x2="85.49" y1="187.69" y2="187.32" stroke="rgb(129,211,77)" stroke-width="1.2"/><line x1="105.34" x2="95.42" y1="184.74" y2="187.69" stroke="rgb(129,211,77)" stroke-width="1.2"/><line x1="106.76" x2="105.34" y1="183.83" y2="184.74" stroke="rgb(129,211,77)" stroke-width="1.2"/><line x1="75.41" x2="66.56" y1="183.83" y2="175.55" stroke="rgb(129,211,77)" stroke-width="1.2"/><line x1="106.76" x2="115.06" y1="183.83" y2="175.55" stroke="rgb(129,211,77)" stroke-width="1.2"/><line x1="65.65" x2="64.02" y1="173.04" y2="167.26" stroke="rgb(129,211,77)" stroke-width="1.2"/><line x1="66.56" x2="65.65" y1="175.55" y2="173.04" stroke="rgb(129,211,77)" stroke-width="1.2"/><line x1="115.06" x2="115.27" y1="175.55" y2="175.17" stroke="rgb(129,211,77)" stroke-width="1.2"/><line x1="118.76" x2="115.27" y1="167.26" y2="175.17" stroke="rgb(129,211,77)" stroke-width="1.2"/><line x1="64.02" x2="65.59" y1="167.26" y2="158.98" stroke="rgb(129,211,77)" stroke-width="1.2"/><line x1="118.76" x2="120.37" y1="167.26" y2="158.98" stroke="rgb(129,211,77)" stroke-width="1.2"/><line x1="65.59" x2="65.65" y1="158.98" y2="158.88" stroke="rgb(129,211,77)" stroke-width="1.2"/><line x1="70.34" x2="65.65" y1="150.70" y2="158.88" stroke="rgb(129,211,77)" stroke-width="1.2"/><line x1="120.37" x2="120.89" y1="158.98" y2="150.70" stroke="rgb(129,211,77)" stroke-width="1.2"/><line x1="70.34" x2="75.57" y1="150.70" y2="143.95" stroke="rgb(129,211,77)" stroke-width="1.2"/><line x1="77.16" x2="75.57" y1="142.42" y2="143.95" stroke="rgb(129,211,77)" stroke-width="1.2"/><line x1="120.89" x2="120.21" y1="150.70" y2="142.42" stroke="rgb(129,211,77)" stroke-width="1.2"/><line x1="77.16" x2="85.49" y1="142.42" y2="136.02" stroke="rgb(129,211,77)" stroke-width="1.2"/><line x1="89.95" x2="85.49" y1="134.14" y2="136.02" stroke="rgb(129,211,77)" stroke-width="1.2"/><line x1="120.21" x2="115.82" y1="142.42" y2="134.14" stroke="rgb(129,211,77)" stroke-width="1.2"/><line x1="89.95" x2="95.42" y1="134.14" y2="132.03" stroke="rgb(129,211,77)" stroke-width="1.2"/><line x1="105.34" x2="95.42" y1="130.90" y2="132.03" stroke="rgb(129,211,77)" stroke-width="1.2"/><line x1="115.27" x2="105.34" y1="133.67" y2="130.90" stroke="rgb(129,211,77)" stroke-width="1.2"/><line x1="115.82" x2="115.27" y1="134.14" y2="133.67" stroke="rgb(129,211,77)" stroke-width="1.2"/><line x1="145.04" x2="140.37" y1="104.35" y2="101.02" stroke="rgb(129,211,77)" stroke-width="1.2"/><line x1="154.96" x2="145.04" y1="106.10" y2="104.35" stroke="rgb(129,211,77)" stroke-width="1.2"/><line x1="164.89" x2="154.96" y1="105.91" y2="106.10" stroke="rgb(129,211,77)" stroke-width="1.2"/><line x1="174.81" x2="164.89" y1="105.12" y2="105.91" stroke="rgb(129,211,77)" stroke-width="1.2"/><line x1="184.73" x2="174.81" y1="104.11" y2="105.12" stroke="rgb(129,211,77)" stroke-width="1.2"/><line x1="194.66" x2="184.73" y1="102.89" y2="104.11" stroke="rgb(129,211,77)" stroke-width="1.2"/><line x1="204.58" x2="194.66" y1="101.17" y2="102.89" stroke="rgb(129,211,77)" stroke-width="1.2"/><line x1="205.20" x2="204.58" y1="101.02" y2="101.17" stroke="rgb(129,211,77)" stroke-width="1.2"/><line x1="140.37" x2="139.25" y1="101.02" y2="92.74" stroke="rgb(129,211,77)" stroke-width="1.2"/><line x1="205.20" x2="214.51" y1="101.02" y2="97.52" stroke="rgb(129,211,77)" stroke-width="1.2"/><line x1="221.43" x2="214.51" y1="92.74" y2="97.52" stroke="rgb(129,211,77)" stroke-width="1.2"/><line x1="139.25" x2="143.93" y1="92.74" y2="84.45" stroke="rgb(129,211,77)" stroke-width="1.2"/><line x1="221.43" x2="224.43" y1="92.74" y2="84.53" stroke="rgb(129,211,77)" stroke-width="1.2"/><line x1="224.45" x2="224.43" y1="84.45" y2="84.53" stroke="rgb(129,211,77)" stroke-width="1.2"/><line x1="143.93" x2="145.04" y1="84.45" y2="83.42" stroke="rgb(129,211,77)" stroke-width="1.2"/><line x1="153.84" x2="145.04" y1="76.17" y2="83.42" stroke="rgb(129,211,77)" stroke-width="1.2"/><line x1="224.43" x2="217.48" y1="84.42" y2="76.17" stroke="rgb(129,211,77)" stroke-width="1.2"/><line x1="224.45" x2="224.43" y1="84.45" y2="84.42" stroke="rgb(129,211,77)" stroke-width="1.2"/><line x1="153.84" x2="154.96" y1="76.17" y2="75.49" stroke="rgb(129,211,77)" stroke-width="1.2"/><line x1="164.89" x2="154.96" y1="71.34" y2="75.49" stroke="rgb(129,211,77)" stroke-width="1.2"/><line x1="174.81" x2="164.89" y1="69.25" y2="71.34" stroke="rgb(129,211,77)" stroke-width="1.2"/><line x1="184.73" x2="174.81" y1="68.94" y2="69.25" stroke="rgb(129,211,77)" stroke-width="1.2"/><line x1="194.66" x2="184.73" y1="69.87" y2="68.94" stroke="rgb(129,211,77)" stroke-width="1.2"/><line x1="204.58" x2="194.66" y1="71.69" y2="69.87" stroke="rgb(129,211,77)" stroke-width="1.2"/><line x1="214.51" x2="204.58" y1="74.73" y2="71.69" stroke="rgb(129,211,77)" stroke-width="1.2"/><line x1="217.48" x2="214.51" y1="76.17" y2="74.73" stroke="rgb(129,211,77)" stroke-width="1.2"/><line x1="85.49" x2="79.52" y1="178.57" y2="175.55" stroke="rgb(253,231,37)" stroke-width="1.2"/><line x1="95.42" x2="85.49" y1="178.58" y2="178.57" stroke="rgb(253,231,37)" stroke-width="1.2"/><line x1="101.20" x2="95.42" y1="175.55" y2="178.58" stroke="rgb(253,231,37)" stroke-width="1.2"/><line x1="75.57" x2="74.35" y1="170.32" y2="167.26" stroke="rgb(253,231,37)" stroke-width="1.2"/><line x1="79.52" x2="75.57" y1="175.55" y2="170.32" stroke="rgb(253,231,37)" stroke-width="1.2"/><line x1="101.20" x2="105.34" y1="175.55" y2="170.90" stroke="rgb(253,231,37)" stroke-width="1.2"/><line x1="107.27" x2="105.34" y1="167.26" y2="170.90" stroke="rgb(253,231,37)" stroke-width="1.2"/><line x1="74.35" x2="75.57" y1="167.26" y2="159.30" stroke="rgb(253,231,37)" stroke-width="1.2"/><line x1="75.64" x2="75.57" y1="158.98" y2="159.30" stroke="rgb(253,231,37)" stroke-width="1.2"/><line x1="107.27" x2="108.64" y1="167.26" y2="158.98" stroke="rgb(253,231,37)" stroke-width="1.2"/><line x1="75.64" x2="81.69" y1="158.98" y2="150.70" stroke="rgb(253,231,37)" stroke-width="1.2"/><line x1="108.64" x2="107.81" y1="158.98" y2="150.70" stroke="rgb(253,231,37)" stroke-width="1.2"/><line x1="81.69" x2="85.49" y1="150.70" y2="146.96" stroke="rgb(253,231,37)" stroke-width="1.2"/><line x1="95.28" x2="85.49" y1="142.42" y2="146.96" stroke="rgb(253,231,37)" stroke-width="1.2"/><line x1="105.34" x2="95.76" y1="146.11" y2="142.42" stroke="rgb(253,231,37)" stroke-width="1.2"/><line x1="107.81" x2="105.34" y1="150.70" y2="146.11" stroke="rgb(253,231,37)" stroke-width="1.2"/><line x1="95.28" x2="95.42" y1="142.42" y2="142.37" stroke="rgb(253,231,37)" stroke-width="1.2"/><line x1="95.76" x2="95.42" y1="142.42" y2="142.37" stroke="rgb(253,231,37)" stroke-width="1.2"/><line x1="164.89" x2="155.03" y1="96.42" y2="92.74" stroke="rgb(253,231,37)" stroke-width="1.2"/><line x1="174.81" x2="164.89" y1="96.78" y2="96.42" stroke="rgb(253,231,37)" stroke-width="1.2"/><line x1="184.73" x2="174.81" y1="95.96" y2="96.78" stroke="rgb(253,231,37)" stroke-width="1.2"/><line x1="194.66" x2="184.73" y1="94.24" y2="95.96" stroke="rgb(253,231,37)" stroke-width="1.2"/><line x1="199.71" x2="194.66" y1="92.74" y2="94.24" stroke="rgb(253,231,37)" stroke-width="1.2"/><line x1="155.03" x2="158.13" y1="92.74" y2="84.45" stroke="rgb(253,231,37)" stroke-width="1.2"/><line x1="199.71" x2="204.58" y1="92.74" y2="87.25" stroke="rgb(253,231,37)" stroke-width="1.2"/><line x1="206.29" x2="204.58" y1="84.45" y2="87.25" stroke="rgb(253,231,37)" stroke-width="1.2"/><line x1="158.13" x2="164.89" y1="84.45" y2="80.39" stroke="rgb(253,231,37)" stroke-width="1.2"/><line x1="174.81" x2="164.89" y1="76.91" y2="80.39" stroke="rgb(253,231,37)" stroke-width="1.2"/><line x1="184.73" x2="174.81" y1="76.31" y2="76.91" stroke="rgb(253,231,37)" stroke-width="1.2"/><line x1="194.66" x2="184.73" y1="78.43" y2="76.31" stroke="rgb(253,231,37)" stroke-width="1.2"/><line x1="204.58" x2="194.66" y1="83.16" y2="78.43" stroke="rgb(253,231,37)" stroke-width="1.2"/><line x1="206.29" x2="204.58" y1="84.45" y2="83.16" stroke="rgb(253,231,37)" stroke-width="1.2"/></g></svg><line x1="0" y1="0" x2="300" y2="0" stroke="#000000" stroke-width="0.8"/><line x1="0" y1="260" x2="300" y2="260" stroke="#000000" stroke-width="0.8"/><line x1="0" y1="0" x2="0" y2="260" stroke="#000000" stroke-width="0.8"/><line x1="300" y1="0" x2="300" y2="260" stroke="#000000" stroke-width="0.8"/><line x1="48.94" x2="48.94" y1="260" y2="263.5" stroke="#000000" stroke-width="0.8"/><path d="M43.98928074135502 272.0654296875H46.88430027260502V272.9462890625H43.98928074135502ZM49.53224949135502 274.60595703125H53.31887058510502V275.51904296875H48.22707371010502V274.60595703125Q48.84474949135502 273.966796875 49.91091160073002 272.889892578125Q50.97707371010502 271.81298828125 51.25099949135502 271.50146484375Q51.77199558510502 270.916015625 51.97878269448002 270.510498046875Q52.18556980385502 270.10498046875 52.18556980385502 269.712890625Q52.18556980385502 269.07373046875 51.73708347573002 268.6708984375Q51.28859714760502 268.26806640625 50.56887058510502 268.26806640625Q50.05861667885502 268.26806640625 49.49196628823002 268.4453125Q48.92531589760502 268.62255859375 48.28078464760502 268.982421875V267.88671875Q48.93605808510502 267.62353515625 49.50539402260502 267.4892578125Q50.07472996010502 267.35498046875 50.54738621010502 267.35498046875Q51.79347996010502 267.35498046875 52.53469089760502 267.97802734375Q53.27590183510502 268.60107421875 53.27590183510502 269.64306640625Q53.27590183510502 270.13720703125 53.09059910073002 270.580322265625Q52.90529636635502 271.0234375 52.41652683510502 271.625Q52.28224949135502 271.78076171875 51.56252292885502 272.524658203125Q50.84279636635502 273.2685546875 49.53224949135502 274.60595703125Z" fill="#000"/><line x1="135.89" x2="135.89" y1="260" y2="263.5" stroke="#000000" stroke-width="0.8"/><path d="M135.88772804018222 268.21435546875Q135.04983741518222 268.21435546875 134.62820655580722 269.038818359375Q134.20657569643222 269.86328125 134.20657569643222 271.517578125Q134.20657569643222 273.16650390625 134.62820655580722 273.990966796875Q135.04983741518222 274.8154296875 135.88772804018222 274.8154296875Q136.73098975893222 274.8154296875 137.15262061830722 273.990966796875Q137.57425147768222 273.16650390625 137.57425147768222 271.517578125Q137.57425147768222 269.86328125 137.15262061830722 269.038818359375Q136.73098975893222 268.21435546875 135.88772804018222 268.21435546875ZM135.88772804018222 267.35498046875Q137.23587257143222 267.35498046875 137.94754249330722 268.421142578125Q138.65921241518222 269.4873046875 138.65921241518222 271.517578125Q138.65921241518222 273.54248046875 137.94754249330722 274.608642578125Q137.23587257143222 275.6748046875 135.88772804018222 275.6748046875Q134.53958350893222 275.6748046875 133.82791358705722 274.608642578125Q133.11624366518222 273.54248046875 133.11624366518222 271.517578125Q133.11624366518222 269.4873046875 133.82791358705722 268.421142578125Q134.53958350893222 267.35498046875 135.88772804018222 267.35498046875Z" fill="#000"/><line x1="222.84" x2="222.84" y1="260" y2="263.5" stroke="#000000" stroke-width="0.8"/><path d="M221.45634135463445 274.60595703125H225.24296244838445V275.51904296875H220.15116557338445V274.60595703125Q220.76884135463445 273.966796875 221.83500346400945 272.889892578125Q222.90116557338445 271.81298828125 223.17509135463445 271.50146484375Q223.69608744838445 270.916015625 223.90287455775945 270.510498046875Q224.10966166713445 270.10498046875 224.10966166713445 269.712890625Q224.10966166713445 269.07373046875 223.66117533900945 268.6708984375Q223.21268901088445 268.26806640625 222.49296244838445 268.26806640625Q221.98270854213445 268.26806640625 221.41605815150945 268.4453125Q220.84940776088445 268.62255859375 220.20487651088445 268.982421875V267.88671875Q220.86014994838445 267.62353515625 221.42948588588445 267.4892578125Q221.99882182338445 267.35498046875 222.47147807338445 267.35498046875Q223.71757182338445 267.35498046875 224.45878276088445 267.97802734375Q225.19999369838445 268.60107421875 225.19999369838445 269.64306640625Q225.19999369838445 270.13720703125 225.01469096400945 270.580322265625Q224.82938822963445 271.0234375 224.34061869838445 271.625Q224.20634135463445 271.78076171875 223.48661479213445 272.524658203125Q222.76688822963445 273.2685546875 221.45634135463445 274.60595703125Z" fill="#000"/><line x1="0" x2="-3.5" y1="251.31" y2="251.31" stroke="#000000" stroke-width="0.8"/><path d="M-17.9306640625 251.86225318257289H-15.03564453125V252.74311255757289H-17.9306640625ZM-10.03515625 250.99213599507289Q-9.25634765625 251.15863990132289 -8.818603515625 251.68500708882289Q-8.380859375 252.21137427632289 -8.380859375 252.98481177632289Q-8.380859375 254.17182349507289 -9.197265625 254.82172583882289Q-10.013671875 255.47162818257289 -11.517578125 255.47162818257289Q-12.0224609375 255.47162818257289 -12.556884765625 255.37226294819789Q-13.09130859375 255.27289771382289 -13.66064453125 255.07416724507289V254.02680396382289Q-13.20947265625 254.28998755757289 -12.67236328125 254.42426490132289Q-12.13525390625 254.55854224507289 -11.5498046875 254.55854224507289Q-10.529296875 254.55854224507289 -9.994873046875 254.15571021382289Q-9.46044921875 253.75287818257289 -9.46044921875 252.98481177632289Q-9.46044921875 252.27582740132289 -9.957275390625 251.87568091694789Q-10.4541015625 251.47553443257289 -11.34033203125 251.47553443257289H-12.27490234375V250.58393287007289H-11.29736328125Q-10.4970703125 250.58393287007289 -10.07275390625 250.26435279194789Q-9.6484375 249.94477271382289 -9.6484375 249.34321021382289Q-9.6484375 248.72553443257289 -10.086181640625 248.39521216694789Q-10.52392578125 248.06488990132289 -11.34033203125 248.06488990132289Q-11.7861328125 248.06488990132289 -12.29638671875 248.16156958882289Q-12.806640625 248.25824927632289 -13.4189453125 248.46235083882289V247.49555396382289Q-12.80126953125 247.32367896382289 -12.261474609375 247.23774146382289Q-11.7216796875 247.15180396382289 -11.24365234375 247.15180396382289Q-10.00830078125 247.15180396382289 -9.28857421875 247.71308326069789Q-8.56884765625 248.27436255757289 -8.56884765625 249.23041724507289Q-8.56884765625 249.89643287007289 -8.9501953125 250.35566138569789Q-9.33154296875 250.81488990132289 -10.03515625 250.99213599507289Z" fill="#000"/><line x1="0" x2="-3.5" y1="219.31" y2="219.31" stroke="#000000" stroke-width="0.8"/><path d="M-17.9306640625 219.8708628178613H-15.03564453125V220.7517221928613H-17.9306640625ZM-12.3876953125 222.4113901616113H-8.60107421875V223.3244760991113H-13.69287109375V222.4113901616113Q-13.0751953125 221.7722300053613 -12.009033203125 220.6953257084863Q-10.94287109375 219.6184214116113 -10.6689453125 219.3068979741113Q-10.14794921875 218.7214487553613 -9.941162109375 218.3159311772363Q-9.734375 217.9104135991113 -9.734375 217.5183237553613Q-9.734375 216.8791635991113 -10.182861328125 216.4763315678613Q-10.63134765625 216.0734995366113 -11.35107421875 216.0734995366113Q-11.861328125 216.0734995366113 -12.427978515625 216.2507456303613Q-12.99462890625 216.4279917241113 -13.63916015625 216.7878550053613V215.6921518803613Q-12.98388671875 215.4289682866113 -12.41455078125 215.2946909428613Q-11.84521484375 215.1604135991113 -11.37255859375 215.1604135991113Q-10.12646484375 215.1604135991113 -9.38525390625 215.7834604741113Q-8.64404296875 216.4065073491113 -8.64404296875 217.4484995366113Q-8.64404296875 217.9426401616113 -8.829345703125 218.3857553959863Q-9.0146484375 218.8288706303613 -9.50341796875 219.4304331303613Q-9.6376953125 219.5861948491113 -10.357421875 220.3300913334863Q-11.0771484375 221.0739878178613 -12.3876953125 222.4113901616113Z" fill="#000"/><line x1="0" x2="-3.5" y1="187.32" y2="187.32" stroke="#000000" stroke-width="0.8"/><path d="M-17.9306640625 187.87947245314973H-15.03564453125V188.76033182814973H-17.9306640625ZM-13.13427734375 190.41999979689973H-11.36181640625V184.30232401564973L-13.2900390625 184.68904276564973V183.70076151564973L-11.37255859375 183.31404276564973H-10.28759765625V190.41999979689973H-8.51513671875V191.33308573439973H-13.13427734375Z" fill="#000"/><line x1="0" x2="-3.5" y1="155.33" y2="155.33" stroke="#000000" stroke-width="0.8"/><path d="M-11.001953125 152.03700786968818Q-11.83984375 152.03700786968818 -12.261474609375 152.86147076031318Q-12.68310546875 153.68593365093818 -12.68310546875 155.34023052593818Q-12.68310546875 156.98915630718818 -12.261474609375 157.81361919781318Q-11.83984375 158.63808208843818 -11.001953125 158.63808208843818Q-10.15869140625 158.63808208843818 -9.737060546875 157.81361919781318Q-9.3154296875 156.98915630718818 -9.3154296875 155.34023052593818Q-9.3154296875 153.68593365093818 -9.737060546875 152.86147076031318Q-10.15869140625 152.03700786968818 -11.001953125 152.03700786968818ZM-11.001953125 151.17763286968818Q-9.65380859375 151.17763286968818 -8.942138671875 152.24379497906318Q-8.23046875 153.30995708843818 -8.23046875 155.34023052593818Q-8.23046875 157.36513286968818 -8.942138671875 158.43129497906318Q-9.65380859375 159.49745708843818 -11.001953125 159.49745708843818Q-12.35009765625 159.49745708843818 -13.061767578125 158.43129497906318Q-13.7734375 157.36513286968818 -13.7734375 155.34023052593818Q-13.7734375 153.30995708843818 -13.061767578125 152.24379497906318Q-12.35009765625 151.17763286968818 -11.001953125 151.17763286968818Z" fill="#000"/><line x1="0" x2="-3.5" y1="123.34" y2="123.34" stroke="#000000" stroke-width="0.8"/><path d="M-13.13427734375 126.43721906747658H-11.36181640625V120.31954328622658L-13.2900390625 120.70626203622658V119.71798078622658L-11.37255859375 119.33126203622658H-10.28759765625V126.43721906747658H-8.51513671875V127.35030500497658H-13.13427734375Z" fill="#000"/><line x1="0" x2="-3.5" y1="91.35" y2="91.35" stroke="#000000" stroke-width="0.8"/><path d="M-12.3876953125 94.445828702765H-8.60107421875V95.358914640265H-13.69287109375V94.445828702765Q-13.0751953125 93.806668546515 -12.009033203125 92.72976424964Q-10.94287109375 91.652859952765 -10.6689453125 91.341336515265Q-10.14794921875 90.755887296515 -9.941162109375 90.35036971839Q-9.734375 89.944852140265 -9.734375 89.552762296515Q-9.734375 88.913602140265 -10.182861328125 88.510770109015Q-10.63134765625 88.107938077765 -11.35107421875 88.107938077765Q-11.861328125 88.107938077765 -12.427978515625 88.285184171515Q-12.99462890625 88.462430265265 -13.63916015625 88.822293546515V87.726590421515Q-12.98388671875 87.463406827765 -12.41455078125 87.329129484015Q-11.84521484375 87.194852140265 -11.37255859375 87.194852140265Q-10.12646484375 87.194852140265 -9.38525390625 87.817899015265Q-8.64404296875 88.440945890265 -8.64404296875 89.482938077765Q-8.64404296875 89.977078702765 -8.829345703125 90.42019393714Q-9.0146484375 90.863309171515 -9.50341796875 91.464871671515Q-9.6376953125 91.620633390265 -10.357421875 92.36452987464Q-11.0771484375 93.108426359015 -12.3876953125 94.445828702765Z" fill="#000"/><line x1="0" x2="-3.5" y1="59.36" y2="59.36" stroke="#000000" stroke-width="0.8"/><path d="M-10.03515625 59.04379380680342Q-9.25634765625 59.21029771305342 -8.818603515625 59.73666490055342Q-8.380859375 60.26303208805342 -8.380859375 61.03646958805342Q-8.380859375 62.22348130680342 -9.197265625 62.87338365055342Q-10.013671875 63.52328599430342 -11.517578125 63.52328599430342Q-12.0224609375 63.52328599430342 -12.556884765625 63.42392075992842Q-13.09130859375 63.32455552555342 -13.66064453125 63.12582505680342V62.07846177555342Q-13.20947265625 62.34164536930342 -12.67236328125 62.47592271305342Q-12.13525390625 62.61020005680342 -11.5498046875 62.61020005680342Q-10.529296875 62.61020005680342 -9.994873046875 62.20736802555342Q-9.46044921875 61.80453599430342 -9.46044921875 61.03646958805342Q-9.46044921875 60.32748521305342 -9.957275390625 59.92733872867842Q-10.4541015625 59.52719224430342 -11.34033203125 59.52719224430342H-12.27490234375V58.63559068180342H-11.29736328125Q-10.4970703125 58.63559068180342 -10.07275390625 58.31601060367842Q-9.6484375 57.99643052555342 -9.6484375 57.39486802555342Q-9.6484375 56.77719224430342 -10.086181640625 56.44686997867842Q-10.52392578125 56.11654771305342 -11.34033203125 56.11654771305342Q-11.7861328125 56.11654771305342 -12.29638671875 56.21322740055342Q-12.806640625 56.30990708805342 -13.4189453125 56.51400865055342V55.54721177555342Q-12.80126953125 55.37533677555342 -12.261474609375 55.28939927555342Q-11.7216796875 55.20346177555342 -11.24365234375 55.20346177555342Q-10.00830078125 55.20346177555342 -9.28857421875 55.76474107242842Q-8.56884765625 56.32602036930342 -8.56884765625 57.28207505680342Q-8.56884765625 57.94809068180342 -8.9501953125 58.40731919742842Q-9.33154296875 58.86654771305342 -10.03515625 59.04379380680342Z" fill="#000"/><line x1="0" x2="-3.5" y1="27.37" y2="27.37" stroke="#000000" stroke-width="0.8"/><path d="M-10.34130859375 24.302403442091844 -13.08056640625 28.583165160841844H-10.34130859375ZM-10.6259765625 23.357090942091844H-9.26171875V28.583165160841844H-8.11767578125V29.485508910841844H-9.26171875V31.376133910841844H-10.34130859375V29.485508910841844H-13.96142578125V28.438145629591844Z" fill="#000"/><path d="M153.03515625 286.607421875 150.662109375 289.80078125 153.158203125 293.169921875H151.88671875L149.9765625 290.591796875L148.06640625 293.169921875H146.794921875L149.34375 289.736328125L147.01171875 286.607421875H148.283203125L150.0234375 288.9453125L151.763671875 286.607421875Z" fill="#000"/><g transform="translate(-30.0,130.0) rotate(-90)"><path d="M0.310546875 0.609375Q-0.146484375 1.78125 -0.580078125 2.138671875Q-1.013671875 2.49609375 -1.740234375 2.49609375H-2.6015625V1.59375H-1.96875Q-1.5234375 1.59375 -1.27734375 1.3828125Q-1.03125 1.171875 -0.732421875 0.38671875L-0.5390625 -0.10546875L-3.193359375 -6.5625H-2.05078125L0.0 -1.4296875L2.05078125 -6.5625H3.193359375Z" fill="#000"/></g><path d="M125.56787109375 -11.0791015625H130.04296875V-10.0H124.025390625V-11.0791015625Q124.75537109375 -11.83447265625 126.015380859375 -13.107177734375Q127.275390625 -14.3798828125 127.59912109375 -14.748046875Q128.21484375 -15.43994140625 128.459228515625 -15.919189453125Q128.70361328125 -16.3984375 128.70361328125 -16.86181640625Q128.70361328125 -17.6171875 128.173583984375 -18.09326171875Q127.6435546875 -18.5693359375 126.79296875 -18.5693359375Q126.18994140625 -18.5693359375 125.520263671875 -18.35986328125Q124.8505859375 -18.150390625 124.0888671875 -17.72509765625V-19.02001953125Q124.86328125 -19.3310546875 125.5361328125 -19.48974609375Q126.208984375 -19.6484375 126.767578125 -19.6484375Q128.240234375 -19.6484375 129.1162109375 -18.912109375Q129.9921875 -18.17578125 129.9921875 -16.9443359375Q129.9921875 -16.3603515625 129.773193359375 -15.836669921875Q129.55419921875 -15.31298828125 128.9765625 -14.60205078125Q128.81787109375 -14.41796875 127.96728515625 -13.538818359375Q127.11669921875 -12.65966796875 125.56787109375 -11.0791015625ZM131.97900390625 -14.08154296875H135.400390625V-13.04052734375H131.97900390625ZM138.59326171875 -18.42333984375V-11.0537109375H140.14208984375Q142.103515625 -11.0537109375 143.014404296875 -11.9423828125Q143.92529296875 -12.8310546875 143.92529296875 -14.748046875Q143.92529296875 -16.65234375 143.014404296875 -17.537841796875Q142.103515625 -18.42333984375 140.14208984375 -18.42333984375ZM137.31103515625 -19.47705078125H139.9453125Q142.7001953125 -19.47705078125 143.98876953125 -18.331298828125Q145.27734375 -17.185546875 145.27734375 -14.748046875Q145.27734375 -12.2978515625 143.982421875 -11.14892578125Q142.6875 -10.0 139.9453125 -10.0H137.31103515625ZM151.45361328125 -19.47705078125H152.73583984375V-15.4716796875L156.98876953125 -19.47705078125H158.63916015625L153.935546875 -15.05908203125L158.9755859375 -10.0H157.287109375L152.73583984375 -14.56396484375V-10.0H151.45361328125ZM161.2607421875 -18.42333984375V-11.0537109375H162.8095703125Q164.77099609375 -11.0537109375 165.681884765625 -11.9423828125Q166.5927734375 -12.8310546875 166.5927734375 -14.748046875Q166.5927734375 -16.65234375 165.681884765625 -17.537841796875Q164.77099609375 -18.42333984375 162.8095703125 -18.42333984375ZM159.978515625 -19.47705078125H162.61279296875Q165.36767578125 -19.47705078125 166.65625 -18.331298828125Q167.94482421875 -17.185546875 167.94482421875 -14.748046875Q167.94482421875 -12.2978515625 166.64990234375 -11.14892578125Q165.35498046875 -10.0 162.61279296875 -10.0H159.978515625ZM169.98876953125 -19.47705078125H175.98095703125V-18.39794921875H171.27099609375V-15.59228515625H175.7841796875V-14.51318359375H171.27099609375V-11.0791015625H176.09521484375V-10.0H169.98876953125Z" fill="#000"/></g></svg>