<svg xmlns="http://www.w3.org/2000/svg" width="580" height="391" viewBox="0 0 580 391" font-family="DejaVu Sans, Bitstream Vera Sans, Verdana, Arial, sans-serif" font-size="11" style="background:#fff" data-plotlet-version="0.4.3" data-plotlet-schema="2" data-plotlet-kind="figure"><g transform="translate(49,27)" data-plotlet-kind="panel" data-plotlet-title="polygon" data-plotlet-xlabel="x" data-plotlet-ylabel="y" data-plotlet-xscale="linear" data-plotlet-yscale="linear" data-plotlet-xlim="-0.2,4.2" data-plotlet-ylim="-0.15,3.15" data-plotlet-panel-bbox="0,0,580,391" data-plotlet-data-area="49,27,524,322"><svg x="0" y="0" width="524" height="322" overflow="hidden"><g class="plotlet-artist" data-plotlet-type="polygon" data-plotlet-index="0" data-plotlet-label="triangle" data-plotlet-color="#1f77b4" data-plotlet-n="3" data-plotlet-x-min="0" data-plotlet-x-max="2" data-plotlet-y-min="0" data-plotlet-y-max="2"><path d="M23.82,307.36 L262.00,307.36 L142.91,112.21Z" fill="#1f77b4" opacity="0.5"/></g><g class="plotlet-artist" data-plotlet-type="polygon" data-plotlet-index="1" data-plotlet-label="diamond" data-plotlet-color="#ff7f0e" data-plotlet-n="4" data-plotlet-x-min="2" data-plotlet-x-max="4" data-plotlet-y-min="1" data-plotlet-y-max="3"><path d="M381.09,209.79 L500.18,112.21 L381.09,14.64 L262.00,112.21Z" fill="none" stroke="#ff7f0e" stroke-width="2"/></g></svg><line x1="0" y1="0" x2="524" y2="0" stroke="#000000" stroke-width="0.8"/><line x1="0" y1="322" x2="524" y2="322" stroke="#000000" stroke-width="0.8"/><line x1="0" y1="0" x2="0" y2="322" stroke="#000000" stroke-width="0.8"/><line x1="524" y1="0" x2="524" y2="322" stroke="#000000" stroke-width="0.8"/><line x1="23.82" x2="23.82" y1="322" y2="325.5" stroke="#000000" stroke-width="0.8"/><path d="M23.81549627130682 330.21435546875Q22.97760564630682 330.21435546875 22.55597478693182 331.038818359375Q22.13434392755682 331.86328125 22.13434392755682 333.517578125Q22.13434392755682 335.16650390625 22.55597478693182 335.990966796875Q22.97760564630682 336.8154296875 23.81549627130682 336.8154296875Q24.65875799005682 336.8154296875 25.08038884943182 335.990966796875Q25.50201970880682 335.16650390625 25.50201970880682 333.517578125Q25.50201970880682 331.86328125 25.08038884943182 331.038818359375Q24.65875799005682 330.21435546875 23.81549627130682 330.21435546875ZM23.81549627130682 329.35498046875Q25.16364080255682 329.35498046875 25.87531072443182 330.421142578125Q26.58698064630682 331.4873046875 26.58698064630682 333.517578125Q26.58698064630682 335.54248046875 25.87531072443182 336.608642578125Q25.16364080255682 337.6748046875 23.81549627130682 337.6748046875Q22.46735174005682 337.6748046875 21.75568181818182 336.608642578125Q21.04401189630682 335.54248046875 21.04401189630682 333.517578125Q21.04401189630682 331.4873046875 21.75568181818182 330.421142578125Q22.46735174005682 329.35498046875 23.81549627130682 329.35498046875Z" fill="#000"/><line x1="83.36" x2="83.36" y1="322" y2="325.5" stroke="#000000" stroke-width="0.8"/><path d="M78.11339222301135 330.21435546875Q77.27550159801135 330.21435546875 76.85387073863635 331.038818359375Q76.43223987926135 331.86328125 76.43223987926135 333.517578125Q76.43223987926135 335.16650390625 76.85387073863635 335.990966796875Q77.27550159801135 336.8154296875 78.11339222301135 336.8154296875Q78.95665394176135 336.8154296875 79.37828480113635 335.990966796875Q79.79991566051135 335.16650390625 79.79991566051135 333.517578125Q79.79991566051135 331.86328125 79.37828480113635 331.038818359375Q78.95665394176135 330.21435546875 78.11339222301135 330.21435546875ZM78.11339222301135 329.35498046875Q79.46153675426135 329.35498046875 80.17320667613635 330.421142578125Q80.88487659801135 331.4873046875 80.88487659801135 333.517578125Q80.88487659801135 335.54248046875 80.17320667613635 336.608642578125Q79.46153675426135 337.6748046875 78.11339222301135 337.6748046875Q76.76524769176135 337.6748046875 76.05357776988635 336.608642578125Q75.34190784801135 335.54248046875 75.34190784801135 333.517578125Q75.34190784801135 331.4873046875 76.05357776988635 330.421142578125Q76.76524769176135 329.35498046875 78.11339222301135 329.35498046875ZM82.79161487926135 336.15478515625H83.92491566051135V337.51904296875H82.79161487926135ZM86.29893909801135 329.5H90.55821644176135V330.4130859375H87.29259144176135V332.37890625Q87.52891956676135 332.29833984375 87.76524769176135 332.258056640625Q88.00157581676135 332.2177734375 88.23790394176135 332.2177734375Q89.58067737926135 332.2177734375 90.36485706676135 332.95361328125Q91.14903675426135 333.689453125 91.14903675426135 334.9462890625Q91.14903675426135 336.24072265625 90.34337269176135 336.957763671875Q89.53770862926135 337.6748046875 88.07140003551135 337.6748046875Q87.56651722301135 337.6748046875 87.04283558238635 337.5888671875Q86.51915394176135 337.5029296875 85.96056019176135 337.3310546875V336.24072265625Q86.44395862926135 336.50390625 86.95958362926135 336.6328125Q87.47520862926135 336.76171875 88.04991566051135 336.76171875Q88.97911487926135 336.76171875 89.52159534801135 336.27294921875Q90.06407581676135 335.7841796875 90.06407581676135 334.9462890625Q90.06407581676135 334.1083984375 89.52159534801135 333.61962890625Q88.97911487926135 333.130859375 88.04991566051135 333.130859375Q87.61485706676135 333.130859375 87.18248401988635 333.2275390625Q86.75011097301135 333.32421875 86.29893909801135 333.5283203125Z" fill="#000"/><line x1="142.91" x2="142.91" y1="322" y2="325.5" stroke="#000000" stroke-width="0.8"/><path d="M140.77408114346588 336.60595703125H142.54654208096588V330.48828125L140.61831942471588 330.875V329.88671875L142.53579989346588 329.5H143.62076083096588V336.60595703125H145.39322176846588V337.51904296875H140.77408114346588Z" fill="#000"/><line x1="202.45" x2="202.45" y1="322" y2="325.5" stroke="#000000" stroke-width="0.8"/><path d="M195.07197709517044 336.60595703125H196.84443803267044V330.48828125L194.91621537642044 330.875V329.88671875L196.83369584517044 329.5H197.91865678267044V336.60595703125H199.69111772017044V337.51904296875H195.07197709517044ZM201.88252397017044 336.15478515625H203.01582475142044V337.51904296875H201.88252397017044ZM205.38984818892044 329.5H209.64912553267044V330.4130859375H206.38350053267044V332.37890625Q206.61982865767044 332.29833984375 206.85615678267044 332.258056640625Q207.09248490767044 332.2177734375 207.32881303267044 332.2177734375Q208.67158647017044 332.2177734375 209.45576615767044 332.95361328125Q210.23994584517044 333.689453125 210.23994584517044 334.9462890625Q210.23994584517044 336.24072265625 209.43428178267044 336.957763671875Q208.62861772017044 337.6748046875 207.16230912642044 337.6748046875Q206.65742631392044 337.6748046875 206.13374467329544 337.5888671875Q205.61006303267044 337.5029296875 205.05146928267044 337.3310546875V336.24072265625Q205.53486772017044 336.50390625 206.05049272017044 336.6328125Q206.56611772017044 336.76171875 207.14082475142044 336.76171875Q208.07002397017044 336.76171875 208.61250443892044 336.27294921875Q209.15498490767044 335.7841796875 209.15498490767044 334.9462890625Q209.15498490767044 334.1083984375 208.61250443892044 333.61962890625Q208.07002397017044 333.130859375 207.14082475142044 333.130859375Q206.70576615767044 333.130859375 206.27339311079544 333.2275390625Q205.84102006392044 333.32421875 205.38984818892044 333.5283203125Z" fill="#000"/><line x1="262.00" x2="262.00" y1="322" y2="325.5" stroke="#000000" stroke-width="0.8"/><path d="M260.611572265625 336.60595703125H264.398193359375V337.51904296875H259.306396484375V336.60595703125Q259.924072265625 335.966796875 260.990234375 334.889892578125Q262.056396484375 333.81298828125 262.330322265625 333.50146484375Q262.851318359375 332.916015625 263.05810546875 332.510498046875Q263.264892578125 332.10498046875 263.264892578125 331.712890625Q263.264892578125 331.07373046875 262.81640625 330.6708984375Q262.367919921875 330.26806640625 261.648193359375 330.26806640625Q261.137939453125 330.26806640625 260.5712890625 330.4453125Q260.004638671875 330.62255859375 259.360107421875 330.982421875V329.88671875Q260.015380859375 329.62353515625 260.584716796875 329.4892578125Q261.154052734375 329.35498046875 261.626708984375 329.35498046875Q262.872802734375 329.35498046875 263.614013671875 329.97802734375Q264.355224609375 330.60107421875 264.355224609375 331.64306640625Q264.355224609375 332.13720703125 264.169921875 332.580322265625Q263.984619140625 333.0234375 263.495849609375 333.625Q263.361572265625 333.78076171875 262.641845703125 334.524658203125Q261.922119140625 335.2685546875 260.611572265625 336.60595703125Z" fill="#000"/><line x1="321.55" x2="321.55" y1="322" y2="325.5" stroke="#000000" stroke-width="0.8"/><path d="M314.90946821732956 336.60595703125H318.69608931107956V337.51904296875H313.60429243607956V336.60595703125Q314.22196821732956 335.966796875 315.28813032670456 334.889892578125Q316.35429243607956 333.81298828125 316.62821821732956 333.50146484375Q317.14921431107956 332.916015625 317.35600142045456 332.510498046875Q317.56278852982956 332.10498046875 317.56278852982956 331.712890625Q317.56278852982956 331.07373046875 317.11430220170456 330.6708984375Q316.66581587357956 330.26806640625 315.94608931107956 330.26806640625Q315.43583540482956 330.26806640625 314.86918501420456 330.4453125Q314.30253462357956 330.62255859375 313.65800337357956 330.982421875V329.88671875Q314.31327681107956 329.62353515625 314.88261274857956 329.4892578125Q315.45194868607956 329.35498046875 315.92460493607956 329.35498046875Q317.17069868607956 329.35498046875 317.91190962357956 329.97802734375Q318.65312056107956 330.60107421875 318.65312056107956 331.64306640625Q318.65312056107956 332.13720703125 318.46781782670456 332.580322265625Q318.28251509232956 333.0234375 317.79374556107956 333.625Q317.65946821732956 333.78076171875 316.93974165482956 334.524658203125Q316.22001509232956 335.2685546875 314.90946821732956 336.60595703125ZM320.97343306107956 336.15478515625H322.10673384232956V337.51904296875H320.97343306107956ZM324.48075727982956 329.5H328.74003462357956V330.4130859375H325.47440962357956V332.37890625Q325.71073774857956 332.29833984375 325.94706587357956 332.258056640625Q326.18339399857956 332.2177734375 326.41972212357956 332.2177734375Q327.76249556107956 332.2177734375 328.54667524857956 332.95361328125Q329.33085493607956 333.689453125 329.33085493607956 334.9462890625Q329.33085493607956 336.24072265625 328.52519087357956 336.957763671875Q327.71952681107956 337.6748046875 326.25321821732956 337.6748046875Q325.74833540482956 337.6748046875 325.22465376420456 337.5888671875Q324.70097212357956 337.5029296875 324.14237837357956 337.3310546875V336.24072265625Q324.62577681107956 336.50390625 325.14140181107956 336.6328125Q325.65702681107956 336.76171875 326.23173384232956 336.76171875Q327.16093306107956 336.76171875 327.70341352982956 336.27294921875Q328.24589399857956 335.7841796875 328.24589399857956 334.9462890625Q328.24589399857956 334.1083984375 327.70341352982956 333.61962890625Q327.16093306107956 333.130859375 326.23173384232956 333.130859375Q325.79667524857956 333.130859375 325.36430220170456 333.2275390625Q324.93192915482956 333.32421875 324.48075727982956 333.5283203125Z" fill="#000"/><line x1="381.09" x2="381.09" y1="322" y2="325.5" stroke="#000000" stroke-width="0.8"/><path d="M382.0550204190341 333.1953125Q382.8338290127841 333.36181640625 383.2715731534091 333.88818359375Q383.7093172940341 334.41455078125 383.7093172940341 335.18798828125Q383.7093172940341 336.375 382.8929110440341 337.02490234375Q382.0765047940341 337.6748046875 380.5725985440341 337.6748046875Q380.0677157315341 337.6748046875 379.5332919034091 337.575439453125Q378.9988680752841 337.47607421875 378.4295321377841 337.27734375V336.22998046875Q378.8807040127841 336.4931640625 379.4178133877841 336.62744140625Q379.9549227627841 336.76171875 380.5403719815341 336.76171875Q381.5608797940341 336.76171875 382.0953036221591 336.35888671875Q382.6297274502841 335.9560546875 382.6297274502841 335.18798828125Q382.6297274502841 334.47900390625 382.1329012784091 334.078857421875Q381.6360751065341 333.6787109375 380.7498446377841 333.6787109375H379.8152743252841V332.787109375H380.7928133877841Q381.5931063565341 332.787109375 382.0174227627841 332.467529296875Q382.4417391690341 332.14794921875 382.4417391690341 331.54638671875Q382.4417391690341 330.9287109375 382.0039950284091 330.598388671875Q381.5662508877841 330.26806640625 380.7498446377841 330.26806640625Q380.3040438565341 330.26806640625 379.7937899502841 330.36474609375Q379.2835360440341 330.46142578125 378.6712313565341 330.66552734375V329.69873046875Q379.2889071377841 329.52685546875 379.8287020596591 329.44091796875Q380.3684969815341 329.35498046875 380.8465243252841 329.35498046875Q382.0818758877841 329.35498046875 382.8016024502841 329.916259765625Q383.5213290127841 330.4775390625 383.5213290127841 331.43359375Q383.5213290127841 332.099609375 383.1399813565341 332.558837890625Q382.7586337002841 333.01806640625 382.0550204190341 333.1953125Z" fill="#000"/><line x1="440.64" x2="440.64" y1="322" y2="325.5" stroke="#000000" stroke-width="0.8"/><path d="M436.3529163707386 333.1953125Q437.1317249644886 333.36181640625 437.5694691051136 333.88818359375Q438.0072132457386 334.41455078125 438.0072132457386 335.18798828125Q438.0072132457386 336.375 437.1908069957386 337.02490234375Q436.3744007457386 337.6748046875 434.8704944957386 337.6748046875Q434.3656116832386 337.6748046875 433.8311878551136 337.575439453125Q433.2967640269886 337.47607421875 432.7274280894886 337.27734375V336.22998046875Q433.1785999644886 336.4931640625 433.7157093394886 336.62744140625Q434.2528187144886 336.76171875 434.8382679332386 336.76171875Q435.8587757457386 336.76171875 436.3931995738636 336.35888671875Q436.9276234019886 335.9560546875 436.9276234019886 335.18798828125Q436.9276234019886 334.47900390625 436.4307972301136 334.078857421875Q435.9339710582386 333.6787109375 435.0477405894886 333.6787109375H434.1131702769886V332.787109375H435.0907093394886Q435.8910023082386 332.787109375 436.3153187144886 332.467529296875Q436.7396351207386 332.14794921875 436.7396351207386 331.54638671875Q436.7396351207386 330.9287109375 436.3018909801136 330.598388671875Q435.8641468394886 330.26806640625 435.0477405894886 330.26806640625Q434.6019398082386 330.26806640625 434.0916859019886 330.36474609375Q433.5814319957386 330.46142578125 432.9691273082386 330.66552734375V329.69873046875Q433.5868030894886 329.52685546875 434.1265980113636 329.44091796875Q434.6663929332386 329.35498046875 435.1444202769886 329.35498046875Q436.3797718394886 329.35498046875 437.0994984019886 329.916259765625Q437.8192249644886 330.4775390625 437.8192249644886 331.43359375Q437.8192249644886 332.099609375 437.4378773082386 332.558837890625Q437.0565296519886 333.01806640625 436.3529163707386 333.1953125ZM440.0643421519886 336.15478515625H441.1976429332386V337.51904296875H440.0643421519886ZM443.5716663707386 329.5H447.8309437144886V330.4130859375H444.5653187144886V332.37890625Q444.8016468394886 332.29833984375 445.0379749644886 332.258056640625Q445.2743030894886 332.2177734375 445.5106312144886 332.2177734375Q446.8534046519886 332.2177734375 447.6375843394886 332.95361328125Q448.4217640269886 333.689453125 448.4217640269886 334.9462890625Q448.4217640269886 336.24072265625 447.6160999644886 336.957763671875Q446.8104359019886 337.6748046875 445.3441273082386 337.6748046875Q444.8392444957386 337.6748046875 444.3155628551136 337.5888671875Q443.7918812144886 337.5029296875 443.2332874644886 337.3310546875V336.24072265625Q443.7166859019886 336.50390625 444.2323109019886 336.6328125Q444.7479359019886 336.76171875 445.3226429332386 336.76171875Q446.2518421519886 336.76171875 446.7943226207386 336.27294921875Q447.3368030894886 335.7841796875 447.3368030894886 334.9462890625Q447.3368030894886 334.1083984375 446.7943226207386 333.61962890625Q446.2518421519886 333.130859375 445.3226429332386 333.130859375Q444.8875843394886 333.130859375 444.4552112926136 333.2275390625Q444.0228382457386 333.32421875 443.5716663707386 333.5283203125Z" fill="#000"/><line x1="500.18" x2="500.18" y1="322" y2="325.5" stroke="#000000" stroke-width="0.8"/><path d="M500.8397771661932 330.4453125 498.1005193536932 334.72607421875H500.8397771661932ZM500.5551091974432 329.5H501.9193670099432V334.72607421875H503.0634099786932V335.62841796875H501.9193670099432V337.51904296875H500.8397771661932V335.62841796875H497.2196599786932V334.5810546875Z" fill="#000"/><line x1="0" x2="-3.5" y1="307.36" y2="307.36" stroke="#000000" stroke-width="0.8"/><path d="M-11.001953125 304.0684703480114Q-11.83984375 304.0684703480114 -12.261474609375 304.8929332386364Q-12.68310546875 305.7173961292614 -12.68310546875 307.3716930042614Q-12.68310546875 309.0206187855114 -12.261474609375 309.8450816761364Q-11.83984375 310.6695445667614 -11.001953125 310.6695445667614Q-10.15869140625 310.6695445667614 -9.737060546875 309.8450816761364Q-9.3154296875 309.0206187855114 -9.3154296875 307.3716930042614Q-9.3154296875 305.7173961292614 -9.737060546875 304.8929332386364Q-10.15869140625 304.0684703480114 -11.001953125 304.0684703480114ZM-11.001953125 303.2090953480114Q-9.65380859375 303.2090953480114 -8.942138671875 304.2752574573864Q-8.23046875 305.3414195667614 -8.23046875 307.3716930042614Q-8.23046875 309.3965953480114 -8.942138671875 310.4627574573864Q-9.65380859375 311.5289195667614 -11.001953125 311.5289195667614Q-12.35009765625 311.5289195667614 -13.061767578125 310.4627574573864Q-13.7734375 309.3965953480114 -13.7734375 307.3716930042614Q-13.7734375 305.3414195667614 -13.061767578125 304.2752574573864Q-12.35009765625 303.2090953480114 -11.001953125 303.2090953480114Z" fill="#000"/><line x1="0" x2="-3.5" y1="258.58" y2="258.58" stroke="#000000" stroke-width="0.8"/><path d="M-21.4970703125 255.28059156013256Q-22.3349609375 255.28059156013256 -22.756591796875 256.10505445075756Q-23.17822265625 256.92951734138256 -23.17822265625 258.58381421638256Q-23.17822265625 260.23273999763256 -22.756591796875 261.05720288825756Q-22.3349609375 261.88166577888256 -21.4970703125 261.88166577888256Q-20.65380859375 261.88166577888256 -20.232177734375 261.05720288825756Q-19.810546875 260.23273999763256 -19.810546875 258.58381421638256Q-19.810546875 256.92951734138256 -20.232177734375 256.10505445075756Q-20.65380859375 255.28059156013256 -21.4970703125 255.28059156013256ZM-21.4970703125 254.42121656013256Q-20.14892578125 254.42121656013256 -19.437255859375 255.48737866950756Q-18.7255859375 256.55354077888256 -18.7255859375 258.58381421638256Q-18.7255859375 260.60871656013256 -19.437255859375 261.67487866950756Q-20.14892578125 262.74104077888256 -21.4970703125 262.74104077888256Q-22.84521484375 262.74104077888256 -23.556884765625 261.67487866950756Q-24.2685546875 260.60871656013256 -24.2685546875 258.58381421638256Q-24.2685546875 256.55354077888256 -23.556884765625 255.48737866950756Q-22.84521484375 254.42121656013256 -21.4970703125 254.42121656013256ZM-16.81884765625 261.22102124763256H-15.685546875V262.58527906013256H-16.81884765625ZM-13.3115234375 254.56623609138256H-9.05224609375V255.47932202888256H-12.31787109375V257.44514234138256Q-12.08154296875 257.36457593513256 -11.84521484375 257.32429273200756Q-11.60888671875 257.28400952888256 -11.37255859375 257.28400952888256Q-10.02978515625 257.28400952888256 -9.24560546875 258.01984937263256Q-8.46142578125 258.75568921638256 -8.46142578125 260.01252515388256Q-8.46142578125 261.30695874763256 -9.26708984375 262.02399976325756Q-10.07275390625 262.74104077888256 -11.5390625 262.74104077888256Q-12.0439453125 262.74104077888256 -12.567626953125 262.65510327888256Q-13.09130859375 262.56916577888256 -13.64990234375 262.39729077888256V261.30695874763256Q-13.16650390625 261.57014234138256 -12.65087890625 261.69904859138256Q-12.13525390625 261.82795484138256 -11.560546875 261.82795484138256Q-10.63134765625 261.82795484138256 -10.0888671875 261.33918531013256Q-9.54638671875 260.85041577888256 -9.54638671875 260.01252515388256Q-9.54638671875 259.17463452888256 -10.0888671875 258.68586499763256Q-10.63134765625 258.19709546638256 -11.560546875 258.19709546638256Q-11.99560546875 258.19709546638256 -12.427978515625 258.29377515388256Q-12.8603515625 258.39045484138256 -13.3115234375 258.59455640388256Z" fill="#000"/><line x1="0" x2="-3.5" y1="209.79" y2="209.79" stroke="#000000" stroke-width="0.8"/><path d="M-13.13427734375 212.8843143347538H-11.36181640625V206.7666385535038L-13.2900390625 207.1533573035038V206.1650760535038L-11.37255859375 205.7783573035038H-10.28759765625V212.8843143347538H-8.51513671875V213.7974002722538H-13.13427734375Z" fill="#000"/><line x1="0" x2="-3.5" y1="161.00" y2="161.00" stroke="#000000" stroke-width="0.8"/><path d="M-23.62939453125 164.096435546875H-21.85693359375V157.978759765625L-23.78515625 158.365478515625V157.377197265625L-21.86767578125 156.990478515625H-20.78271484375V164.096435546875H-19.01025390625V165.009521484375H-23.62939453125ZM-16.81884765625 163.645263671875H-15.685546875V165.009521484375H-16.81884765625ZM-13.3115234375 156.990478515625H-9.05224609375V157.903564453125H-12.31787109375V159.869384765625Q-12.08154296875 159.788818359375 -11.84521484375 159.74853515625Q-11.60888671875 159.708251953125 -11.37255859375 159.708251953125Q-10.02978515625 159.708251953125 -9.24560546875 160.444091796875Q-8.46142578125 161.179931640625 -8.46142578125 162.436767578125Q-8.46142578125 163.731201171875 -9.26708984375 164.4482421875Q-10.07275390625 165.165283203125 -11.5390625 165.165283203125Q-12.0439453125 165.165283203125 -12.567626953125 165.079345703125Q-13.09130859375 164.993408203125 -13.64990234375 164.821533203125V163.731201171875Q-13.16650390625 163.994384765625 -12.65087890625 164.123291015625Q-12.13525390625 164.252197265625 -11.560546875 164.252197265625Q-10.63134765625 164.252197265625 -10.0888671875 163.763427734375Q-9.54638671875 163.274658203125 -9.54638671875 162.436767578125Q-9.54638671875 161.598876953125 -10.0888671875 161.110107421875Q-10.63134765625 160.621337890625 -11.560546875 160.621337890625Q-11.99560546875 160.621337890625 -12.427978515625 160.718017578125Q-12.8603515625 160.814697265625 -13.3115234375 161.018798828125Z" fill="#000"/><line x1="0" x2="-3.5" y1="112.21" y2="112.21" stroke="#000000" stroke-width="0.8"/><path d="M-12.3876953125 115.30855675899622H-8.60107421875V116.22164269649622H-13.69287109375V115.30855675899622Q-13.0751953125 114.66939660274622 -12.009033203125 113.59249230587122Q-10.94287109375 112.51558800899622 -10.6689453125 112.20406457149622Q-10.14794921875 111.61861535274622 -9.941162109375 111.21309777462122Q-9.734375 110.80758019649622 -9.734375 110.41549035274622Q-9.734375 109.77633019649622 -10.182861328125 109.37349816524622Q-10.63134765625 108.97066613399622 -11.35107421875 108.97066613399622Q-11.861328125 108.97066613399622 -12.427978515625 109.14791222774622Q-12.99462890625 109.32515832149622 -13.63916015625 109.68502160274622V108.58931847774622Q-12.98388671875 108.32613488399622 -12.41455078125 108.19185754024622Q-11.84521484375 108.05758019649622 -11.37255859375 108.05758019649622Q-10.12646484375 108.05758019649622 -9.38525390625 108.68062707149622Q-8.64404296875 109.30367394649622 -8.64404296875 110.34566613399622Q-8.64404296875 110.83980675899622 -8.829345703125 111.28292199337122Q-9.0146484375 111.72603722774622 -9.50341796875 112.32759972774622Q-9.6376953125 112.48336144649622 -10.357421875 113.22725793087122Q-11.0771484375 113.97115441524622 -12.3876953125 115.30855675899622Z" fill="#000"/><line x1="0" x2="-3.5" y1="63.42" y2="63.42" stroke="#000000" stroke-width="0.8"/><path d="M-22.8828125 66.52067797111744H-19.09619140625V67.43376390861744H-24.18798828125V66.52067797111744Q-23.5703125 65.88151781486744 -22.504150390625 64.80461351799244Q-21.43798828125 63.727709221117436 -21.1640625 63.416185783617436Q-20.64306640625 62.830736564867436 -20.436279296875 62.425218986742436Q-20.2294921875 62.019701408617436 -20.2294921875 61.627611564867436Q-20.2294921875 60.988451408617436 -20.677978515625 60.585619377367436Q-21.12646484375 60.182787346117436 -21.84619140625 60.182787346117436Q-22.3564453125 60.182787346117436 -22.923095703125 60.360033439867436Q-23.48974609375 60.537279533617436 -24.13427734375 60.897142814867436V59.801439689867436Q-23.47900390625 59.538256096117436 -22.90966796875 59.403978752367436Q-22.34033203125 59.269701408617436 -21.86767578125 59.269701408617436Q-20.62158203125 59.269701408617436 -19.88037109375 59.892748283617436Q-19.13916015625 60.515795158617436 -19.13916015625 61.557787346117436Q-19.13916015625 62.051927971117436 -19.324462890625 62.495043205492436Q-19.509765625 62.938158439867436 -19.99853515625 63.539720939867436Q-20.1328125 63.695482658617436 -20.8525390625 64.43937914299244Q-21.572265625 65.18327562736744 -22.8828125 66.52067797111744ZM-16.81884765625 66.06950609611744H-15.685546875V67.43376390861744H-16.81884765625ZM-13.3115234375 59.414720939867436H-9.05224609375V60.327806877367436H-12.31787109375V62.293627189867436Q-12.08154296875 62.213060783617436 -11.84521484375 62.172777580492436Q-11.60888671875 62.132494377367436 -11.37255859375 62.132494377367436Q-10.02978515625 62.132494377367436 -9.24560546875 62.868334221117436Q-8.46142578125 63.604174064867436 -8.46142578125 64.86101000236744Q-8.46142578125 66.15544359611744 -9.26708984375 66.87248461174244Q-10.07275390625 67.58952562736744 -11.5390625 67.58952562736744Q-12.0439453125 67.58952562736744 -12.567626953125 67.50358812736744Q-13.09130859375 67.41765062736744 -13.64990234375 67.24577562736744V66.15544359611744Q-13.16650390625 66.41862718986744 -12.65087890625 66.54753343986744Q-12.13525390625 66.67643968986744 -11.560546875 66.67643968986744Q-10.63134765625 66.67643968986744 -10.0888671875 66.18767015861744Q-9.54638671875 65.69890062736744 -9.54638671875 64.86101000236744Q-9.54638671875 64.02311937736744 -10.0888671875 63.534349846117436Q-10.63134765625 63.045580314867436 -11.560546875 63.045580314867436Q-11.99560546875 63.045580314867436 -12.427978515625 63.142260002367436Q-12.8603515625 63.238939689867436 -13.3115234375 63.443041252367436Z" fill="#000"/><line x1="0" x2="-3.5" y1="14.64" y2="14.64" stroke="#000000" stroke-width="0.8"/><path d="M-10.03515625 14.322154651988626Q-9.25634765625 14.488658558238626 -8.818603515625 15.015025745738626Q-8.380859375 15.541392933238626 -8.380859375 16.314830433238626Q-8.380859375 17.501842151988626 -9.197265625 18.151744495738626Q-10.013671875 18.801646839488626 -11.517578125 18.801646839488626Q-12.0224609375 18.801646839488626 -12.556884765625 18.702281605113626Q-13.09130859375 18.602916370738626 -13.66064453125 18.404185901988626V17.356822620738626Q-13.20947265625 17.620006214488626 -12.67236328125 17.754283558238626Q-12.13525390625 17.888560901988626 -11.5498046875 17.888560901988626Q-10.529296875 17.888560901988626 -9.994873046875 17.485728870738626Q-9.46044921875 17.082896839488626 -9.46044921875 16.314830433238626Q-9.46044921875 15.605846058238626 -9.957275390625 15.205699573863626Q-10.4541015625 14.805553089488626 -11.34033203125 14.805553089488626H-12.27490234375V13.913951526988626H-11.29736328125Q-10.4970703125 13.913951526988626 -10.07275390625 13.594371448863626Q-9.6484375 13.274791370738626 -9.6484375 12.673228870738626Q-9.6484375 12.055553089488626 -10.086181640625 11.725230823863626Q-10.52392578125 11.394908558238626 -11.34033203125 11.394908558238626Q-11.7861328125 11.394908558238626 -12.29638671875 11.491588245738626Q-12.806640625 11.588267933238626 -13.4189453125 11.792369495738626V10.825572620738626Q-12.80126953125 10.653697620738626 -12.261474609375 10.567760120738626Q-11.7216796875 10.481822620738626 -11.24365234375 10.481822620738626Q-10.00830078125 10.481822620738626 -9.28857421875 11.043101917613626Q-8.56884765625 11.604381214488626 -8.56884765625 12.560435901988626Q-8.56884765625 13.226451526988626 -8.9501953125 13.685680042613626Q-9.33154296875 14.144908558238626 -10.03515625 14.322154651988626Z" fill="#000"/><path d="M265.03515625 348.607421875 262.662109375 351.80078125 265.158203125 355.169921875H263.88671875L261.9765625 352.591796875L260.06640625 355.169921875H258.794921875L261.34375 351.736328125L259.01171875 348.607421875H260.283203125L262.0234375 350.9453125L263.763671875 348.607421875Z" fill="#000"/><g transform="translate(-37.0,161.0) rotate(-90)"><path d="M0.310546875 0.609375Q-0.146484375 1.78125 -0.580078125 2.138671875Q-1.013671875 2.49609375 -1.740234375 2.49609375H-2.6015625V1.59375H-1.96875Q-1.5234375 1.59375 -1.27734375 1.3828125Q-1.03125 1.171875 -0.732421875 0.38671875L-0.5390625 -0.10546875L-3.193359375 -6.5625H-2.05078125L0.0 -1.4296875L2.05078125 -6.5625H3.193359375Z" fill="#000"/></g><path d="M238.377197265625 -11.06640625V-7.2958984375H237.202880859375V-17.109375H238.377197265625V-16.0302734375Q238.745361328125 -16.6650390625 239.30712890625 -16.972900390625Q239.868896484375 -17.28076171875 240.649658203125 -17.28076171875Q241.944580078125 -17.28076171875 242.75390625 -16.25244140625Q243.563232421875 -15.22412109375 243.563232421875 -13.54833984375Q243.563232421875 -11.87255859375 242.75390625 -10.84423828125Q241.944580078125 -9.81591796875 240.649658203125 -9.81591796875Q239.868896484375 -9.81591796875 239.30712890625 -10.123779296875Q238.745361328125 -10.431640625 238.377197265625 -11.06640625ZM242.350830078125 -13.54833984375Q242.350830078125 -14.8369140625 241.82080078125 -15.570068359375Q241.290771484375 -16.30322265625 240.364013671875 -16.30322265625Q239.437255859375 -16.30322265625 238.9072265625 -15.570068359375Q238.377197265625 -14.8369140625 238.377197265625 -13.54833984375Q238.377197265625 -12.259765625 238.9072265625 -11.526611328125Q239.437255859375 -10.79345703125 240.364013671875 -10.79345703125Q241.290771484375 -10.79345703125 241.82080078125 -11.526611328125Q242.350830078125 -12.259765625 242.350830078125 -13.54833984375ZM248.254150390625 -16.29052734375Q247.314697265625 -16.29052734375 246.768798828125 -15.557373046875Q246.222900390625 -14.82421875 246.222900390625 -13.54833984375Q246.222900390625 -12.2724609375 246.765625 -11.539306640625Q247.308349609375 -10.80615234375 248.254150390625 -10.80615234375Q249.187255859375 -10.80615234375 249.733154296875 -11.54248046875Q250.279052734375 -12.27880859375 250.279052734375 -13.54833984375Q250.279052734375 -14.8115234375 249.733154296875 -15.551025390625Q249.187255859375 -16.29052734375 248.254150390625 -16.29052734375ZM248.254150390625 -17.28076171875Q249.777587890625 -17.28076171875 250.647216796875 -16.29052734375Q251.516845703125 -15.30029296875 251.516845703125 -13.54833984375Q251.516845703125 -11.802734375 250.647216796875 -10.809326171875Q249.777587890625 -9.81591796875 248.254150390625 -9.81591796875Q246.724365234375 -9.81591796875 245.85791015625 -10.809326171875Q244.991455078125 -11.802734375 244.991455078125 -13.54833984375Q244.991455078125 -15.30029296875 245.85791015625 -16.29052734375Q246.724365234375 -17.28076171875 248.254150390625 -17.28076171875ZM253.452880859375 -19.876953125H254.620849609375V-10.0H253.452880859375ZM260.022705078125 -9.33984375Q259.527587890625 -8.0703125 259.057861328125 -7.68310546875Q258.588134765625 -7.2958984375 257.801025390625 -7.2958984375H256.867919921875V-8.2734375H257.553466796875Q258.035888671875 -8.2734375 258.302490234375 -8.501953125Q258.569091796875 -8.73046875 258.892822265625 -9.5810546875L259.102294921875 -10.1142578125L256.226806640625 -17.109375H257.464599609375L259.686279296875 -11.548828125L261.907958984375 -17.109375H263.145751953125ZM269.436279296875 -13.63720703125Q269.436279296875 -14.90673828125 268.91259765625 -15.60498046875Q268.388916015625 -16.30322265625 267.443115234375 -16.30322265625Q266.503662109375 -16.30322265625 265.97998046875 -15.60498046875Q265.456298828125 -14.90673828125 265.456298828125 -13.63720703125Q265.456298828125 -12.3740234375 265.97998046875 -11.67578125Q266.503662109375 -10.9775390625 267.443115234375 -10.9775390625Q268.388916015625 -10.9775390625 268.91259765625 -11.67578125Q269.436279296875 -12.3740234375 269.436279296875 -13.63720703125ZM270.604248046875 -10.88232421875Q270.604248046875 -9.06689453125 269.798095703125 -8.181396484375Q268.991943359375 -7.2958984375 267.328857421875 -7.2958984375Q266.713134765625 -7.2958984375 266.167236328125 -7.387939453125Q265.621337890625 -7.47998046875 265.107177734375 -7.67041015625V-8.806640625Q265.621337890625 -8.52734375 266.122802734375 -8.39404296875Q266.624267578125 -8.2607421875 267.144775390625 -8.2607421875Q268.293701171875 -8.2607421875 268.864990234375 -8.860595703125Q269.436279296875 -9.46044921875 269.436279296875 -10.6728515625V-11.25048828125Q269.074462890625 -10.6220703125 268.509521484375 -10.31103515625Q267.944580078125 -10.0 267.157470703125 -10.0Q265.849853515625 -10.0 265.050048828125 -10.99658203125Q264.250244140625 -11.9931640625 264.250244140625 -13.63720703125Q264.250244140625 -15.28759765625 265.050048828125 -16.2841796875Q265.849853515625 -17.28076171875 267.157470703125 -17.28076171875Q267.944580078125 -17.28076171875 268.509521484375 -16.9697265625Q269.074462890625 -16.65869140625 269.436279296875 -16.0302734375V-17.109375H270.604248046875ZM275.764892578125 -16.29052734375Q274.825439453125 -16.29052734375 274.279541015625 -15.557373046875Q273.733642578125 -14.82421875 273.733642578125 -13.54833984375Q273.733642578125 -12.2724609375 274.2763671875 -11.539306640625Q274.819091796875 -10.80615234375 275.764892578125 -10.80615234375Q276.697998046875 -10.80615234375 277.243896484375 -11.54248046875Q277.789794921875 -12.27880859375 277.789794921875 -13.54833984375Q277.789794921875 -14.8115234375 277.243896484375 -15.551025390625Q276.697998046875 -16.29052734375 275.764892578125 -16.29052734375ZM275.764892578125 -17.28076171875Q277.288330078125 -17.28076171875 278.157958984375 -16.29052734375Q279.027587890625 -15.30029296875 279.027587890625 -13.54833984375Q279.027587890625 -11.802734375 278.157958984375 -10.809326171875Q277.288330078125 -9.81591796875 275.764892578125 -9.81591796875Q274.235107421875 -9.81591796875 273.36865234375 -10.809326171875Q272.502197265625 -11.802734375 272.502197265625 -13.54833984375Q272.502197265625 -15.30029296875 273.36865234375 -16.29052734375Q274.235107421875 -17.28076171875 275.764892578125 -17.28076171875ZM286.873291015625 -14.291015625V-10.0H285.705322265625V-14.2529296875Q285.705322265625 -15.26220703125 285.311767578125 -15.763671875Q284.918212890625 -16.26513671875 284.131103515625 -16.26513671875Q283.185302734375 -16.26513671875 282.639404296875 -15.662109375Q282.093505859375 -15.05908203125 282.093505859375 -14.01806640625V-10.0H280.919189453125V-17.109375H282.093505859375V-16.0048828125Q282.512451171875 -16.64599609375 283.08056640625 -16.96337890625Q283.648681640625 -17.28076171875 284.391357421875 -17.28076171875Q285.616455078125 -17.28076171875 286.244873046875 -16.522216796875Q286.873291015625 -15.763671875 286.873291015625 -14.291015625Z" fill="#000"/><g transform="translate(425.82,6)"><rect x="0" y="0" width="92.18" height="44" fill="#ffffff" stroke="#000000" stroke-width="0.8" opacity="0.92"/><rect x="8.00" y="9.00" width="22.00" height="10.00" fill="#1f77b4" opacity="0.5"/><path d="M38.01416015625 10.2763671875V11.984375H40.0498046875V12.75244140625H38.01416015625V16.01806640625Q38.01416015625 16.75390625 38.215576171875 16.96337890625Q38.4169921875 17.1728515625 39.03466796875 17.1728515625H40.0498046875V18.0H39.03466796875Q37.890625 18.0 37.45556640625 17.572998046875Q37.0205078125 17.14599609375 37.0205078125 16.01806640625V12.75244140625H36.29541015625V11.984375H37.0205078125V10.2763671875ZM44.83544921875 12.908203125Q44.6689453125 12.8115234375 44.472900390625 12.765869140625Q44.27685546875 12.72021484375 44.04052734375 12.72021484375Q43.20263671875 12.72021484375 42.754150390625 13.265380859375Q42.3056640625 13.810546875 42.3056640625 14.8310546875V18.0H41.31201171875V11.984375H42.3056640625V12.9189453125Q42.6171875 12.37109375 43.11669921875 12.105224609375Q43.6162109375 11.83935546875 44.33056640625 11.83935546875Q44.4326171875 11.83935546875 44.55615234375 11.852783203125Q44.6796875 11.8662109375 44.830078125 11.89306640625ZM45.8720703125 11.984375H46.8603515625V18.0H45.8720703125ZM45.8720703125 9.642578125H46.8603515625V10.89404296875H45.8720703125ZM51.662109375 14.97607421875Q50.46435546875 14.97607421875 50.00244140625 15.25Q49.54052734375 15.52392578125 49.54052734375 16.1845703125Q49.54052734375 16.7109375 49.886962890625 17.019775390625Q50.2333984375 17.32861328125 50.82958984375 17.32861328125Q51.6513671875 17.32861328125 52.148193359375 16.745849609375Q52.64501953125 16.1630859375 52.64501953125 15.1962890625V14.97607421875ZM53.63330078125 14.56787109375V18.0H52.64501953125V17.0869140625Q52.306640625 17.634765625 51.8017578125 17.895263671875Q51.296875 18.15576171875 50.56640625 18.15576171875Q49.642578125 18.15576171875 49.097412109375 17.637451171875Q48.55224609375 17.119140625 48.55224609375 16.2490234375Q48.55224609375 15.23388671875 49.231689453125 14.71826171875Q49.9111328125 14.20263671875 51.25927734375 14.20263671875H52.64501953125V14.10595703125Q52.64501953125 13.423828125 52.196533203125 13.050537109375Q51.748046875 12.67724609375 50.93701171875 12.67724609375Q50.42138671875 12.67724609375 49.9326171875 12.80078125Q49.44384765625 12.92431640625 48.99267578125 13.17138671875V12.25830078125Q49.53515625 12.048828125 50.04541015625 11.944091796875Q50.5556640625 11.83935546875 51.0390625 11.83935546875Q52.34423828125 11.83935546875 52.98876953125 12.51611328125Q53.63330078125 13.19287109375 53.63330078125 14.56787109375ZM60.66943359375 14.369140625V18.0H59.68115234375V14.4013671875Q59.68115234375 13.54736328125 59.34814453125 13.123046875Q59.01513671875 12.69873046875 58.34912109375 12.69873046875Q57.548828125 12.69873046875 57.0869140625 13.208984375Q56.625 13.71923828125 56.625 14.60009765625V18.0H55.63134765625V11.984375H56.625V12.9189453125Q56.9794921875 12.37646484375 57.460205078125 12.10791015625Q57.94091796875 11.83935546875 58.5693359375 11.83935546875Q59.60595703125 11.83935546875 60.1376953125 12.481201171875Q60.66943359375 13.123046875 60.66943359375 14.369140625ZM66.59912109375 14.92236328125Q66.59912109375 13.84814453125 66.156005859375 13.25732421875Q65.712890625 12.66650390625 64.91259765625 12.66650390625Q64.11767578125 12.66650390625 63.674560546875 13.25732421875Q63.2314453125 13.84814453125 63.2314453125 14.92236328125Q63.2314453125 15.9912109375 63.674560546875 16.58203125Q64.11767578125 17.1728515625 64.91259765625 17.1728515625Q65.712890625 17.1728515625 66.156005859375 16.58203125Q66.59912109375 15.9912109375 66.59912109375 14.92236328125ZM67.58740234375 17.25341796875Q67.58740234375 18.78955078125 66.9052734375 19.538818359375Q66.22314453125 20.2880859375 64.81591796875 20.2880859375Q64.294921875 20.2880859375 63.8330078125 20.210205078125Q63.37109375 20.13232421875 62.93603515625 19.97119140625V19.009765625Q63.37109375 19.24609375 63.79541015625 19.35888671875Q64.2197265625 19.4716796875 64.66015625 19.4716796875Q65.63232421875 19.4716796875 66.11572265625 18.964111328125Q66.59912109375 18.45654296875 66.59912109375 17.4306640625V16.94189453125Q66.29296875 17.4736328125 65.81494140625 17.73681640625Q65.3369140625 18.0 64.6708984375 18.0Q63.564453125 18.0 62.8876953125 17.15673828125Q62.2109375 16.3134765625 62.2109375 14.92236328125Q62.2109375 13.52587890625 62.8876953125 12.6826171875Q63.564453125 11.83935546875 64.6708984375 11.83935546875Q65.3369140625 11.83935546875 65.81494140625 12.1025390625Q66.29296875 12.36572265625 66.59912109375 12.8974609375V11.984375H67.58740234375ZM69.623046875 9.642578125H70.611328125V18.0H69.623046875ZM77.82470703125 14.7451171875V15.228515625H73.28076171875Q73.34521484375 16.2490234375 73.895751953125 16.783447265625Q74.4462890625 17.31787109375 75.42919921875 17.31787109375Q75.99853515625 17.31787109375 76.532958984375 17.17822265625Q77.0673828125 17.03857421875 77.59375 16.75927734375V17.69384765625Q77.06201171875 17.91943359375 76.50341796875 18.03759765625Q75.94482421875 18.15576171875 75.3701171875 18.15576171875Q73.9306640625 18.15576171875 73.090087890625 17.31787109375Q72.24951171875 16.47998046875 72.24951171875 15.05126953125Q72.24951171875 13.57421875 73.047119140625 12.706787109375Q73.8447265625 11.83935546875 75.1982421875 11.83935546875Q76.412109375 11.83935546875 77.118408203125 12.620849609375Q77.82470703125 13.40234375 77.82470703125 14.7451171875ZM76.83642578125 14.455078125Q76.82568359375 13.64404296875 76.382568359375 13.16064453125Q75.939453125 12.67724609375 75.208984375 12.67724609375Q74.3818359375 12.67724609375 73.885009765625 13.14453125Q73.38818359375 13.61181640625 73.31298828125 14.46044921875Z" fill="#000"/><rect x="8.00" y="25.00" width="22.00" height="10.00" fill="#ff7f0e"/><path d="M40.9951171875 28.8974609375V25.642578125H41.9833984375V34.0H40.9951171875V33.09765625Q40.68359375 33.634765625 40.208251953125 33.895263671875Q39.73291015625 34.15576171875 39.06689453125 34.15576171875Q37.9765625 34.15576171875 37.291748046875 33.28564453125Q36.60693359375 32.41552734375 36.60693359375 30.99755859375Q36.60693359375 29.57958984375 37.291748046875 28.70947265625Q37.9765625 27.83935546875 39.06689453125 27.83935546875Q39.73291015625 27.83935546875 40.208251953125 28.099853515625Q40.68359375 28.3603515625 40.9951171875 28.8974609375ZM37.62744140625 30.99755859375Q37.62744140625 32.087890625 38.075927734375 32.708251953125Q38.5244140625 33.32861328125 39.30859375 33.32861328125Q40.0927734375 33.32861328125 40.5439453125 32.708251953125Q40.9951171875 32.087890625 40.9951171875 30.99755859375Q40.9951171875 29.9072265625 40.5439453125 29.286865234375Q40.0927734375 28.66650390625 39.30859375 28.66650390625Q38.5244140625 28.66650390625 38.075927734375 29.286865234375Q37.62744140625 29.9072265625 37.62744140625 30.99755859375ZM44.01904296875 27.984375H45.00732421875V34.0H44.01904296875ZM44.01904296875 25.642578125H45.00732421875V26.89404296875H44.01904296875ZM49.80908203125 30.97607421875Q48.611328125 30.97607421875 48.1494140625 31.25Q47.6875 31.52392578125 47.6875 32.1845703125Q47.6875 32.7109375 48.033935546875 33.019775390625Q48.38037109375 33.32861328125 48.9765625 33.32861328125Q49.79833984375 33.32861328125 50.295166015625 32.745849609375Q50.7919921875 32.1630859375 50.7919921875 31.1962890625V30.97607421875ZM51.7802734375 30.56787109375V34.0H50.7919921875V33.0869140625Q50.45361328125 33.634765625 49.94873046875 33.895263671875Q49.44384765625 34.15576171875 48.71337890625 34.15576171875Q47.78955078125 34.15576171875 47.244384765625 33.637451171875Q46.69921875 33.119140625 46.69921875 32.2490234375Q46.69921875 31.23388671875 47.378662109375 30.71826171875Q48.05810546875 30.20263671875 49.40625 30.20263671875H50.7919921875V30.10595703125Q50.7919921875 29.423828125 50.343505859375 29.050537109375Q49.89501953125 28.67724609375 49.083984375 28.67724609375Q48.568359375 28.67724609375 48.07958984375 28.80078125Q47.5908203125 28.92431640625 47.1396484375 29.17138671875V28.25830078125Q47.68212890625 28.048828125 48.1923828125 27.944091796875Q48.70263671875 27.83935546875 49.18603515625 27.83935546875Q50.4912109375 27.83935546875 51.1357421875 28.51611328125Q51.7802734375 29.19287109375 51.7802734375 30.56787109375ZM58.49951171875 29.13916015625Q58.8701171875 28.47314453125 59.3857421875 28.15625Q59.9013671875 27.83935546875 60.599609375 27.83935546875Q61.53955078125 27.83935546875 62.0498046875 28.497314453125Q62.56005859375 29.1552734375 62.56005859375 30.369140625V34.0H61.56640625V30.4013671875Q61.56640625 29.53662109375 61.26025390625 29.11767578125Q60.9541015625 28.69873046875 60.32568359375 28.69873046875Q59.5576171875 28.69873046875 59.11181640625 29.208984375Q58.666015625 29.71923828125 58.666015625 30.60009765625V34.0H57.67236328125V30.4013671875Q57.67236328125 29.53125 57.3662109375 29.114990234375Q57.06005859375 28.69873046875 56.4208984375 28.69873046875Q55.66357421875 28.69873046875 55.2177734375 29.211669921875Q54.77197265625 29.724609375 54.77197265625 30.60009765625V34.0H53.7783203125V27.984375H54.77197265625V28.9189453125Q55.1103515625 28.36572265625 55.5830078125 28.1025390625Q56.0556640625 27.83935546875 56.70556640625 27.83935546875Q57.36083984375 27.83935546875 57.820068359375 28.17236328125Q58.279296875 28.50537109375 58.49951171875 29.13916015625ZM66.8623046875 28.67724609375Q66.0673828125 28.67724609375 65.60546875 29.297607421875Q65.1435546875 29.91796875 65.1435546875 30.99755859375Q65.1435546875 32.0771484375 65.602783203125 32.697509765625Q66.06201171875 33.31787109375 66.8623046875 33.31787109375Q67.65185546875 33.31787109375 68.11376953125 32.69482421875Q68.57568359375 32.07177734375 68.57568359375 30.99755859375Q68.57568359375 29.9287109375 68.11376953125 29.302978515625Q67.65185546875 28.67724609375 66.8623046875 28.67724609375ZM66.8623046875 27.83935546875Q68.1513671875 27.83935546875 68.88720703125 28.67724609375Q69.623046875 29.51513671875 69.623046875 30.99755859375Q69.623046875 32.474609375 68.88720703125 33.315185546875Q68.1513671875 34.15576171875 66.8623046875 34.15576171875Q65.56787109375 34.15576171875 64.834716796875 33.315185546875Q64.1015625 32.474609375 64.1015625 30.99755859375Q64.1015625 29.51513671875 64.834716796875 28.67724609375Q65.56787109375 27.83935546875 66.8623046875 27.83935546875ZM76.26171875 30.369140625V34.0H75.2734375V30.4013671875Q75.2734375 29.54736328125 74.9404296875 29.123046875Q74.607421875 28.69873046875 73.94140625 28.69873046875Q73.14111328125 28.69873046875 72.67919921875 29.208984375Q72.21728515625 29.71923828125 72.21728515625 30.60009765625V34.0H71.2236328125V27.984375H72.21728515625V28.9189453125Q72.57177734375 28.37646484375 73.052490234375 28.10791015625Q73.533203125 27.83935546875 74.16162109375 27.83935546875Q75.1982421875 27.83935546875 75.72998046875 28.481201171875Q76.26171875 29.123046875 76.26171875 30.369140625ZM82.19140625 28.8974609375V25.642578125H83.1796875V34.0H82.19140625V33.09765625Q81.8798828125 33.634765625 81.404541015625 33.895263671875Q80.92919921875 34.15576171875 80.26318359375 34.15576171875Q79.1728515625 34.15576171875 78.488037109375 33.28564453125Q77.80322265625 32.41552734375 77.80322265625 30.99755859375Q77.80322265625 29.57958984375 78.488037109375 28.70947265625Q79.1728515625 27.83935546875 80.26318359375 27.83935546875Q80.92919921875 27.83935546875 81.404541015625 28.099853515625Q81.8798828125 28.3603515625 82.19140625 28.8974609375ZM78.82373046875 30.99755859375Q78.82373046875 32.087890625 79.272216796875 32.708251953125Q79.720703125 33.32861328125 80.5048828125 33.32861328125Q81.2890625 33.32861328125 81.740234375 32.708251953125Q82.19140625 32.087890625 82.19140625 30.99755859375Q82.19140625 29.9072265625 81.740234375 29.286865234375Q81.2890625 28.66650390625 80.5048828125 28.66650390625Q79.720703125 28.66650390625 79.272216796875 29.286865234375Q78.82373046875 29.9072265625 78.82373046875 30.99755859375Z" fill="#000"/></g></g></svg>