<svg xmlns="http://www.w3.org/2000/svg" width="476" height="289" viewBox="0 0 476 289" font-family="DejaVu Sans, Bitstream Vera Sans, Verdana, Arial, sans-serif" font-size="11" style="background:#fff" data-plotlet-version="0.4.4" data-plotlet-schema="2" data-plotlet-kind="figure"><g transform="translate(45,27)" data-plotlet-kind="panel" data-plotlet-title="linear regression" data-plotlet-xlabel="x" data-plotlet-ylabel="y" data-plotlet-xscale="linear" data-plotlet-yscale="linear" data-plotlet-xlim="-0.975,20.475" data-plotlet-ylim="-1.93099555796,18.0383933158" data-plotlet-panel-bbox="0,0,476,289" data-plotlet-data-area="45,27,300,220"><svg x="0" y="0" width="300" height="220" overflow="hidden"><g class="plotlet-artist" data-plotlet-type="scatter" data-plotlet-index="0" data-plotlet-label="data" data-plotlet-color="#1f77b4" data-plotlet-n="40" data-plotlet-x-min="0.0" data-plotlet-x-max="19.5" data-plotlet-y-min="-0.024072675713965097" data-plotlet-y-max="17.100308194821384" data-plotlet-marker="o"><circle cx="13.64" cy="198.99" r="2.5" fill="#1f77b4" opacity="0.85"/><circle cx="20.63" cy="177.49" r="2.5" fill="#1f77b4" opacity="0.85"/><circle cx="27.62" cy="166.83" r="2.5" fill="#1f77b4" opacity="0.85"/><circle cx="34.62" cy="179.59" r="2.5" fill="#1f77b4" opacity="0.85"/><circle cx="41.61" cy="184.72" r="2.5" fill="#1f77b4" opacity="0.85"/><circle cx="48.60" cy="166.95" r="2.5" fill="#1f77b4" opacity="0.85"/><circle cx="55.59" cy="157.10" r="2.5" fill="#1f77b4" opacity="0.85"/><circle cx="62.59" cy="146.42" r="2.5" fill="#1f77b4" opacity="0.85"/><circle cx="69.58" cy="168.05" r="2.5" fill="#1f77b4" opacity="0.85"/><circle cx="76.57" cy="165.05" r="2.5" fill="#1f77b4" opacity="0.85"/><circle cx="83.57" cy="139.17" r="2.5" fill="#1f77b4" opacity="0.85"/><circle cx="90.56" cy="137.87" r="2.5" fill="#1f77b4" opacity="0.85"/><circle cx="97.55" cy="122.34" r="2.5" fill="#1f77b4" opacity="0.85"/><circle cx="104.55" cy="124.56" r="2.5" fill="#1f77b4" opacity="0.85"/><circle cx="111.54" cy="132.64" r="2.5" fill="#1f77b4" opacity="0.85"/><circle cx="118.53" cy="130.69" r="2.5" fill="#1f77b4" opacity="0.85"/><circle cx="125.52" cy="95.49" r="2.5" fill="#1f77b4" opacity="0.85"/><circle cx="132.52" cy="123.14" r="2.5" fill="#1f77b4" opacity="0.85"/><circle cx="139.51" cy="124.75" r="2.5" fill="#1f77b4" opacity="0.85"/><circle cx="146.50" cy="124.79" r="2.5" fill="#1f77b4" opacity="0.85"/><circle cx="153.50" cy="107.34" r="2.5" fill="#1f77b4" opacity="0.85"/><circle cx="160.49" cy="102.93" r="2.5" fill="#1f77b4" opacity="0.85"/><circle cx="167.48" cy="104.48" r="2.5" fill="#1f77b4" opacity="0.85"/><circle cx="174.48" cy="97.51" r="2.5" fill="#1f77b4" opacity="0.85"/><circle cx="181.47" cy="89.96" r="2.5" fill="#1f77b4" opacity="0.85"/><circle cx="188.46" cy="81.48" r="2.5" fill="#1f77b4" opacity="0.85"/><circle cx="195.45" cy="73.17" r="2.5" fill="#1f77b4" opacity="0.85"/><circle cx="202.45" cy="79.09" r="2.5" fill="#1f77b4" opacity="0.85"/><circle cx="209.44" cy="97.26" r="2.5" fill="#1f77b4" opacity="0.85"/><circle cx="216.43" cy="65.95" r="2.5" fill="#1f77b4" opacity="0.85"/><circle cx="223.43" cy="85.47" r="2.5" fill="#1f77b4" opacity="0.85"/><circle cx="230.42" cy="67.86" r="2.5" fill="#1f77b4" opacity="0.85"/><circle cx="237.41" cy="78.35" r="2.5" fill="#1f77b4" opacity="0.85"/><circle cx="244.41" cy="58.24" r="2.5" fill="#1f77b4" opacity="0.85"/><circle cx="251.40" cy="62.98" r="2.5" fill="#1f77b4" opacity="0.85"/><circle cx="258.39" cy="48.19" r="2.5" fill="#1f77b4" opacity="0.85"/><circle cx="265.38" cy="10.33" r="2.5" fill="#1f77b4" opacity="0.85"/><circle cx="272.38" cy="43.37" r="2.5" fill="#1f77b4" opacity="0.85"/><circle cx="279.37" cy="29.70" r="2.5" fill="#1f77b4" opacity="0.85"/><circle cx="286.36" cy="49.70" r="2.5" fill="#1f77b4" opacity="0.85"/></g><g class="plotlet-artist" data-plotlet-type="regression" data-plotlet-index="1" data-plotlet-label="fit ± 95 % CI" data-plotlet-color="#ff7f0e"><path d="M13.64,177.91 L17.09,176.14 L20.54,174.37 L23.99,172.60 L27.45,170.83 L30.90,169.05 L34.35,167.28 L37.80,165.50 L41.25,163.72 L44.71,161.94 L48.16,160.16 L51.61,158.38 L55.06,156.60 L58.52,154.81 L61.97,153.02 L65.42,151.23 L68.87,149.44 L72.32,147.64 L75.78,145.84 L79.23,144.04 L82.68,142.24 L86.13,140.43 L89.59,138.62 L93.04,136.81 L96.49,134.99 L99.94,133.16 L103.39,131.34 L106.85,129.51 L110.30,127.67 L113.75,125.83 L117.20,123.98 L120.66,122.13 L124.11,120.27 L127.56,118.41 L131.01,116.54 L134.46,114.66 L137.92,112.78 L141.37,110.89 L144.82,108.99 L148.27,107.08 L151.73,105.17 L155.18,103.25 L158.63,101.33 L162.08,99.39 L165.54,97.45 L168.99,95.51 L172.44,93.56 L175.89,91.60 L179.34,89.63 L182.80,87.66 L186.25,85.68 L189.70,83.70 L193.15,81.71 L196.61,79.72 L200.06,77.72 L203.51,75.72 L206.96,73.72 L210.41,71.71 L213.87,69.70 L217.32,67.68 L220.77,65.66 L224.22,63.64 L227.68,61.61 L231.13,59.59 L234.58,57.55 L238.03,55.52 L241.48,53.49 L244.94,51.45 L248.39,49.41 L251.84,47.37 L255.29,45.33 L258.75,43.28 L262.20,41.24 L265.65,39.19 L269.10,37.14 L272.55,35.09 L276.01,33.04 L279.46,30.99 L282.91,28.94 L286.36,26.89 L286.36,42.09 L282.91,43.86 L279.46,45.63 L276.01,47.40 L272.55,49.17 L269.10,50.95 L265.65,52.72 L262.20,54.50 L258.75,56.28 L255.29,58.06 L251.84,59.84 L248.39,61.62 L244.94,63.40 L241.48,65.19 L238.03,66.98 L234.58,68.77 L231.13,70.56 L227.68,72.36 L224.22,74.16 L220.77,75.96 L217.32,77.76 L213.87,79.57 L210.41,81.38 L206.96,83.19 L203.51,85.01 L200.06,86.84 L196.61,88.66 L193.15,90.49 L189.70,92.33 L186.25,94.17 L182.80,96.02 L179.34,97.87 L175.89,99.73 L172.44,101.59 L168.99,103.46 L165.54,105.34 L162.08,107.22 L158.63,109.11 L155.18,111.01 L151.73,112.92 L148.27,114.83 L144.82,116.75 L141.37,118.67 L137.92,120.61 L134.46,122.55 L131.01,124.49 L127.56,126.44 L124.11,128.40 L120.66,130.37 L117.20,132.34 L113.75,134.32 L110.30,136.30 L106.85,138.29 L103.39,140.28 L99.94,142.28 L96.49,144.28 L93.04,146.28 L89.59,148.29 L86.13,150.30 L82.68,152.32 L79.23,154.34 L75.78,156.36 L72.32,158.39 L68.87,160.41 L65.42,162.45 L61.97,164.48 L58.52,166.51 L55.06,168.55 L51.61,170.59 L48.16,172.63 L44.71,174.67 L41.25,176.72 L37.80,178.76 L34.35,180.81 L30.90,182.86 L27.45,184.91 L23.99,186.96 L20.54,189.01 L17.09,191.06 L13.64,193.11Z" fill="#ff7f0e" opacity="0.2"/><path d="M13.64,185.51 L17.09,183.60 L20.54,181.69 L23.99,179.78 L27.45,177.87 L30.90,175.95 L34.35,174.04 L37.80,172.13 L41.25,170.22 L44.71,168.31 L48.16,166.40 L51.61,164.48 L55.06,162.57 L58.52,160.66 L61.97,158.75 L65.42,156.84 L68.87,154.93 L72.32,153.01 L75.78,151.10 L79.23,149.19 L82.68,147.28 L86.13,145.37 L89.59,143.46 L93.04,141.54 L96.49,139.63 L99.94,137.72 L103.39,135.81 L106.85,133.90 L110.30,131.98 L113.75,130.07 L117.20,128.16 L120.66,126.25 L124.11,124.34 L127.56,122.43 L131.01,120.51 L134.46,118.60 L137.92,116.69 L141.37,114.78 L144.82,112.87 L148.27,110.96 L151.73,109.04 L155.18,107.13 L158.63,105.22 L162.08,103.31 L165.54,101.40 L168.99,99.49 L172.44,97.57 L175.89,95.66 L179.34,93.75 L182.80,91.84 L186.25,89.93 L189.70,88.02 L193.15,86.10 L196.61,84.19 L200.06,82.28 L203.51,80.37 L206.96,78.46 L210.41,76.54 L213.87,74.63 L217.32,72.72 L220.77,70.81 L224.22,68.90 L227.68,66.99 L231.13,65.07 L234.58,63.16 L238.03,61.25 L241.48,59.34 L244.94,57.43 L248.39,55.52 L251.84,53.60 L255.29,51.69 L258.75,49.78 L262.20,47.87 L265.65,45.96 L269.10,44.05 L272.55,42.13 L276.01,40.22 L279.46,38.31 L282.91,36.40 L286.36,34.49" fill="none" stroke="#ff7f0e" stroke-width="1.8"/></g></svg><line x1="0" y1="0" x2="300" y2="0" stroke="#000000" stroke-width="0.8"/><line x1="0" y1="220" x2="300" y2="220" stroke="#000000" stroke-width="0.8"/><line x1="0" y1="0" x2="0" y2="220" stroke="#000000" stroke-width="0.8"/><line x1="300" y1="0" x2="300" y2="220" stroke="#000000" stroke-width="0.8"/><line x1="13.64" x2="13.64" y1="220" y2="223.5" stroke="#000000" stroke-width="0.8"/><path d="M13.633678089488635 228.21435546875Q12.795787464488635 228.21435546875 12.374156605113635 229.038818359375Q11.952525745738635 229.86328125 11.952525745738635 231.517578125Q11.952525745738635 233.16650390625 12.374156605113635 233.990966796875Q12.795787464488635 234.8154296875 13.633678089488635 234.8154296875Q14.476939808238635 234.8154296875 14.898570667613635 233.990966796875Q15.320201526988635 233.16650390625 15.320201526988635 231.517578125Q15.320201526988635 229.86328125 14.898570667613635 229.038818359375Q14.476939808238635 228.21435546875 13.633678089488635 228.21435546875ZM13.633678089488635 227.35498046875Q14.981822620738635 227.35498046875 15.693492542613633 228.421142578125Q16.405162464488633 229.4873046875 16.405162464488633 231.517578125Q16.405162464488633 233.54248046875 15.693492542613633 234.608642578125Q14.981822620738635 235.6748046875 13.633678089488635 235.6748046875Q12.285533558238635 235.6748046875 11.573863636363635 234.608642578125Q10.862193714488635 233.54248046875 10.862193714488635 231.517578125Q10.862193714488635 229.4873046875 11.573863636363635 228.421142578125Q12.285533558238635 227.35498046875 13.633678089488635 227.35498046875Z" fill="#000"/><line x1="83.57" x2="83.57" y1="220" y2="223.5" stroke="#000000" stroke-width="0.8"/><path d="M81.25417770705856 227.5H85.51345505080856V228.4130859375H82.24783005080856V230.37890625Q82.48415817580856 230.29833984375 82.72048630080856 230.258056640625Q82.95681442580856 230.2177734375 83.19314255080856 230.2177734375Q84.53591598830856 230.2177734375 85.32009567580856 230.95361328125Q86.10427536330856 231.689453125 86.10427536330856 232.9462890625Q86.10427536330856 234.24072265625 85.29861130080856 234.957763671875Q84.49294723830856 235.6748046875 83.02663864455856 235.6748046875Q82.52175583205856 235.6748046875 81.99807419143356 235.5888671875Q81.47439255080856 235.5029296875 80.91579880080856 235.3310546875V234.24072265625Q81.39919723830856 234.50390625 81.91482223830856 234.6328125Q82.43044723830856 234.76171875 83.00515426955856 234.76171875Q83.93435348830856 234.76171875 84.47683395705856 234.27294921875Q85.01931442580856 233.7841796875 85.01931442580856 232.9462890625Q85.01931442580856 232.1083984375 84.47683395705856 231.61962890625Q83.93435348830856 231.130859375 83.00515426955856 231.130859375Q82.57009567580856 231.130859375 82.13772262893356 231.2275390625Q81.70534958205856 231.32421875 81.25417770705856 231.5283203125Z" fill="#000"/><line x1="153.50" x2="153.50" y1="220" y2="223.5" stroke="#000000" stroke-width="0.8"/><path d="M147.86222615275346 234.60595703125H149.63468709025346V228.48828125L147.70646443400346 228.875V227.88671875L149.62394490275346 227.5H150.70890584025346V234.60595703125H152.48136677775346V235.51904296875H147.86222615275346ZM156.99308552775346 228.21435546875Q156.15519490275346 228.21435546875 155.73356404337846 229.038818359375Q155.31193318400346 229.86328125 155.31193318400346 231.517578125Q155.31193318400346 233.16650390625 155.73356404337846 233.990966796875Q156.15519490275346 234.8154296875 156.99308552775346 234.8154296875Q157.83634724650346 234.8154296875 158.25797810587846 233.990966796875Q158.67960896525346 233.16650390625 158.67960896525346 231.517578125Q158.67960896525346 229.86328125 158.25797810587846 229.038818359375Q157.83634724650346 228.21435546875 156.99308552775346 228.21435546875ZM156.99308552775346 227.35498046875Q158.34123005900346 227.35498046875 159.05289998087846 228.421142578125Q159.76456990275346 229.4873046875 159.76456990275346 231.517578125Q159.76456990275346 233.54248046875 159.05289998087846 234.608642578125Q158.34123005900346 235.6748046875 156.99308552775346 235.6748046875Q155.64494099650346 235.6748046875 154.93327107462846 234.608642578125Q154.22160115275346 233.54248046875 154.22160115275346 231.517578125Q154.22160115275346 229.4873046875 154.93327107462846 228.421142578125Q155.64494099650346 227.35498046875 156.99308552775346 227.35498046875Z" fill="#000"/><line x1="223.43" x2="223.43" y1="220" y2="223.5" stroke="#000000" stroke-width="0.8"/><path d="M217.79229608282338 234.60595703125H219.56475702032338V228.48828125L217.63653436407338 228.875V227.88671875L219.55401483282338 227.5H220.63897577032338V234.60595703125H222.41143670782338V235.51904296875H217.79229608282338ZM224.61358514532338 227.5H228.87286248907338V228.4130859375H225.60723748907338V230.37890625Q225.84356561407338 230.29833984375 226.07989373907338 230.258056640625Q226.31622186407338 230.2177734375 226.55254998907338 230.2177734375Q227.89532342657338 230.2177734375 228.67950311407338 230.95361328125Q229.46368280157338 231.689453125 229.46368280157338 232.9462890625Q229.46368280157338 234.24072265625 228.65801873907338 234.957763671875Q227.85235467657338 235.6748046875 226.38604608282338 235.6748046875Q225.88116327032338 235.6748046875 225.35748162969838 235.5888671875Q224.83379998907338 235.5029296875 224.27520623907338 235.3310546875V234.24072265625Q224.75860467657338 234.50390625 225.27422967657338 234.6328125Q225.78985467657338 234.76171875 226.36456170782338 234.76171875Q227.29376092657338 234.76171875 227.83624139532338 234.27294921875Q228.37872186407338 233.7841796875 228.37872186407338 232.9462890625Q228.37872186407338 232.1083984375 227.83624139532338 231.61962890625Q227.29376092657338 231.130859375 226.36456170782338 231.130859375Q225.92950311407338 231.130859375 225.49713006719838 231.2275390625Q225.06475702032338 231.32421875 224.61358514532338 231.5283203125Z" fill="#000"/><line x1="293.36" x2="293.36" y1="220" y2="223.5" stroke="#000000" stroke-width="0.8"/><path d="M288.4689480441433 234.60595703125H292.2555691378933V235.51904296875H287.1637722628933V234.60595703125Q287.7814480441433 233.966796875 288.8476101535183 232.889892578125Q289.9137722628933 231.81298828125 290.1876980441433 231.50146484375Q290.7086941378933 230.916015625 290.9154812472683 230.510498046875Q291.1222683566433 230.10498046875 291.1222683566433 229.712890625Q291.1222683566433 229.07373046875 290.6737820285183 228.6708984375Q290.2252957003933 228.26806640625 289.5055691378933 228.26806640625Q288.9953152316433 228.26806640625 288.4286648410183 228.4453125Q287.8620144503933 228.62255859375 287.2174832003933 228.982421875V227.88671875Q287.8727566378933 227.62353515625 288.4420925753933 227.4892578125Q289.0114285128933 227.35498046875 289.4840847628933 227.35498046875Q290.7301785128933 227.35498046875 291.4713894503933 227.97802734375Q292.2126003878933 228.60107421875 292.2126003878933 229.64306640625Q292.2126003878933 230.13720703125 292.0272976535183 230.580322265625Q291.8419949191433 231.0234375 291.3532253878933 231.625Q291.2189480441433 231.78076171875 290.4992214816433 232.524658203125Q289.7794949191433 233.2685546875 288.4689480441433 234.60595703125ZM296.8532253878933 228.21435546875Q296.0153347628933 228.21435546875 295.5937039035183 229.038818359375Q295.1720730441433 229.86328125 295.1720730441433 231.517578125Q295.1720730441433 233.16650390625 295.5937039035183 233.990966796875Q296.0153347628933 234.8154296875 296.8532253878933 234.8154296875Q297.6964871066433 234.8154296875 298.1181179660183 233.990966796875Q298.5397488253933 233.16650390625 298.5397488253933 231.517578125Q298.5397488253933 229.86328125 298.1181179660183 229.038818359375Q297.6964871066433 228.21435546875 296.8532253878933 228.21435546875ZM296.8532253878933 227.35498046875Q298.2013699191433 227.35498046875 298.9130398410183 228.421142578125Q299.6247097628933 229.4873046875 299.6247097628933 231.517578125Q299.6247097628933 233.54248046875 298.9130398410183 234.608642578125Q298.2013699191433 235.6748046875 296.8532253878933 235.6748046875Q295.5050808566433 235.6748046875 294.7934109347683 234.608642578125Q294.0817410128933 233.54248046875 294.0817410128933 231.517578125Q294.0817410128933 229.4873046875 294.7934109347683 228.421142578125Q295.5050808566433 227.35498046875 296.8532253878933 227.35498046875Z" fill="#000"/><line x1="0" x2="-3.5" y1="198.73" y2="198.73" stroke="#000000" stroke-width="0.8"/><path d="M-11.001953125 195.43132253955022Q-11.83984375 195.43132253955022 -12.261474609375 196.25578543017522Q-12.68310546875 197.08024832080022 -12.68310546875 198.73454519580022Q-12.68310546875 200.38347097705022 -12.261474609375 201.20793386767522Q-11.83984375 202.03239675830022 -11.001953125 202.03239675830022Q-10.15869140625 202.03239675830022 -9.737060546875 201.20793386767522Q-9.3154296875 200.38347097705022 -9.3154296875 198.73454519580022Q-9.3154296875 197.08024832080022 -9.737060546875 196.25578543017522Q-10.15869140625 195.43132253955022 -11.001953125 195.43132253955022ZM-11.001953125 194.57194753955022Q-9.65380859375 194.57194753955022 -8.942138671875 195.63810964892522Q-8.23046875 196.70427175830022 -8.23046875 198.73454519580022Q-8.23046875 200.75944753955022 -8.942138671875 201.82560964892522Q-9.65380859375 202.89177175830022 -11.001953125 202.89177175830022Q-12.35009765625 202.89177175830022 -13.061767578125 201.82560964892522Q-13.7734375 200.75944753955022 -13.7734375 198.73454519580022Q-13.7734375 196.70427175830022 -13.061767578125 195.63810964892522Q-12.35009765625 194.57194753955022 -11.001953125 194.57194753955022Z" fill="#000"/><line x1="0" x2="-3.5" y1="143.64" y2="143.64" stroke="#000000" stroke-width="0.8"/><path d="M-13.3115234375 139.6326574328865H-9.05224609375V140.5457433703865H-12.31787109375V142.5115636828865Q-12.08154296875 142.4309972766365 -11.84521484375 142.3907140735115Q-11.60888671875 142.3504308703865 -11.37255859375 142.3504308703865Q-10.02978515625 142.3504308703865 -9.24560546875 143.0862707141365Q-8.46142578125 143.8221105578865 -8.46142578125 145.0789464953865Q-8.46142578125 146.3733800891365 -9.26708984375 147.0904211047615Q-10.07275390625 147.8074621203865 -11.5390625 147.8074621203865Q-12.0439453125 147.8074621203865 -12.567626953125 147.7215246203865Q-13.09130859375 147.6355871203865 -13.64990234375 147.4637121203865V146.3733800891365Q-13.16650390625 146.6365636828865 -12.65087890625 146.7654699328865Q-12.13525390625 146.8943761828865 -11.560546875 146.8943761828865Q-10.63134765625 146.8943761828865 -10.0888671875 146.4056066516365Q-9.54638671875 145.9168371203865 -9.54638671875 145.0789464953865Q-9.54638671875 144.2410558703865 -10.0888671875 143.7522863391365Q-10.63134765625 143.2635168078865 -11.560546875 143.2635168078865Q-11.99560546875 143.2635168078865 -12.427978515625 143.3601964953865Q-12.8603515625 143.4568761828865 -13.3115234375 143.6609777453865Z" fill="#000"/><line x1="0" x2="-3.5" y1="88.56" y2="88.56" stroke="#000000" stroke-width="0.8"/><path d="M-20.1328125 91.65430482622276H-18.3603515625V85.53662904497276L-20.28857421875 85.92334779497276V84.93506654497276L-18.37109375 84.54834779497276H-17.2861328125V91.65430482622276H-15.513671875V92.56739076372276H-20.1328125ZM-11.001953125 85.26270326372276Q-11.83984375 85.26270326372276 -12.261474609375 86.08716615434776Q-12.68310546875 86.91162904497276 -12.68310546875 88.56592591997276Q-12.68310546875 90.21485170122276 -12.261474609375 91.03931459184776Q-11.83984375 91.86377748247276 -11.001953125 91.86377748247276Q-10.15869140625 91.86377748247276 -9.737060546875 91.03931459184776Q-9.3154296875 90.21485170122276 -9.3154296875 88.56592591997276Q-9.3154296875 86.91162904497276 -9.737060546875 86.08716615434776Q-10.15869140625 85.26270326372276 -11.001953125 85.26270326372276ZM-11.001953125 84.40332826372276Q-9.65380859375 84.40332826372276 -8.942138671875 85.46949037309776Q-8.23046875 86.53565248247276 -8.23046875 88.56592591997276Q-8.23046875 90.59082826372276 -8.942138671875 91.65699037309776Q-9.65380859375 92.72315248247276 -11.001953125 92.72315248247276Q-12.35009765625 92.72315248247276 -13.061767578125 91.65699037309776Q-13.7734375 90.59082826372276 -13.7734375 88.56592591997276Q-13.7734375 86.53565248247276 -13.061767578125 85.46949037309776Q-12.35009765625 84.40332826372276 -11.001953125 84.40332826372276Z" fill="#000"/><line x1="0" x2="-3.5" y1="33.47" y2="33.47" stroke="#000000" stroke-width="0.8"/><path d="M-20.1328125 36.569995188309036H-18.3603515625V30.452319407059036L-20.28857421875 30.839038157059036V29.850756907059036L-18.37109375 29.464038157059036H-17.2861328125V36.569995188309036H-15.513671875V37.483081125809036H-20.1328125ZM-13.3115234375 29.464038157059036H-9.05224609375V30.377124094559036H-12.31787109375V32.342944407059036Q-12.08154296875 32.262378000809036 -11.84521484375 32.222094797684036Q-11.60888671875 32.181811594559036 -11.37255859375 32.181811594559036Q-10.02978515625 32.181811594559036 -9.24560546875 32.917651438309036Q-8.46142578125 33.653491282059036 -8.46142578125 34.910327219559036Q-8.46142578125 36.204760813309036 -9.26708984375 36.921801828934036Q-10.07275390625 37.638842844559036 -11.5390625 37.638842844559036Q-12.0439453125 37.638842844559036 -12.567626953125 37.552905344559036Q-13.09130859375 37.466967844559036 -13.64990234375 37.295092844559036V36.204760813309036Q-13.16650390625 36.467944407059036 -12.65087890625 36.596850657059036Q-12.13525390625 36.725756907059036 -11.560546875 36.725756907059036Q-10.63134765625 36.725756907059036 -10.0888671875 36.236987375809036Q-9.54638671875 35.748217844559036 -9.54638671875 34.910327219559036Q-9.54638671875 34.072436594559036 -10.0888671875 33.583667063309036Q-10.63134765625 33.094897532059036 -11.560546875 33.094897532059036Q-11.99560546875 33.094897532059036 -12.427978515625 33.191577219559036Q-12.8603515625 33.288256907059036 -13.3115234375 33.492358469559036Z" fill="#000"/><path d="M153.03515625 246.607421875 150.662109375 249.80078125 153.158203125 253.169921875H151.88671875L149.9765625 250.591796875L148.06640625 253.169921875H146.794921875L149.34375 249.736328125L147.01171875 246.607421875H148.283203125L150.0234375 248.9453125L151.763671875 246.607421875Z" fill="#000"/><g transform="translate(-33.0,110.0) rotate(-90)"><path d="M0.310546875 0.609375Q-0.146484375 1.78125 -0.580078125 2.138671875Q-1.013671875 2.49609375 -1.740234375 2.49609375H-2.6015625V1.59375H-1.96875Q-1.5234375 1.59375 -1.27734375 1.3828125Q-1.03125 1.171875 -0.732421875 0.38671875L-0.5390625 -0.10546875L-3.193359375 -6.5625H-2.05078125L0.0 -1.4296875L2.05078125 -6.5625H3.193359375Z" fill="#000"/></g><path d="M96.62890625 -19.876953125H97.796875V-10.0H96.62890625ZM100.24072265625 -17.109375H101.40869140625V-10.0H100.24072265625ZM100.24072265625 -19.876953125H101.40869140625V-18.39794921875H100.24072265625ZM109.76220703125 -14.291015625V-10.0H108.59423828125V-14.2529296875Q108.59423828125 -15.26220703125 108.20068359375 -15.763671875Q107.80712890625 -16.26513671875 107.02001953125 -16.26513671875Q106.07421875 -16.26513671875 105.5283203125 -15.662109375Q104.982421875 -15.05908203125 104.982421875 -14.01806640625V-10.0H103.80810546875V-17.109375H104.982421875V-16.0048828125Q105.4013671875 -16.64599609375 105.969482421875 -16.96337890625Q106.53759765625 -17.28076171875 107.2802734375 -17.28076171875Q108.50537109375 -17.28076171875 109.1337890625 -16.522216796875Q109.76220703125 -15.763671875 109.76220703125 -14.291015625ZM118.1728515625 -13.8466796875V-13.275390625H112.802734375Q112.87890625 -12.0693359375 113.529541015625 -11.437744140625Q114.18017578125 -10.80615234375 115.341796875 -10.80615234375Q116.0146484375 -10.80615234375 116.646240234375 -10.97119140625Q117.27783203125 -11.13623046875 117.89990234375 -11.46630859375V-10.36181640625Q117.271484375 -10.09521484375 116.611328125 -9.95556640625Q115.951171875 -9.81591796875 115.27197265625 -9.81591796875Q113.57080078125 -9.81591796875 112.577392578125 -10.80615234375Q111.583984375 -11.79638671875 111.583984375 -13.48486328125Q111.583984375 -15.23046875 112.526611328125 -16.255615234375Q113.46923828125 -17.28076171875 115.06884765625 -17.28076171875Q116.50341796875 -17.28076171875 117.338134765625 -16.357177734375Q118.1728515625 -15.43359375 118.1728515625 -13.8466796875ZM117.0048828125 -14.189453125Q116.9921875 -15.14794921875 116.468505859375 -15.71923828125Q115.94482421875 -16.29052734375 115.08154296875 -16.29052734375Q114.10400390625 -16.29052734375 113.516845703125 -15.73828125Q112.9296875 -15.18603515625 112.8408203125 -14.18310546875ZM123.32080078125 -13.57373046875Q121.9052734375 -13.57373046875 121.359375 -13.25Q120.8134765625 -12.92626953125 120.8134765625 -12.1455078125Q120.8134765625 -11.5234375 121.222900390625 -11.158447265625Q121.63232421875 -10.79345703125 122.3369140625 -10.79345703125Q123.30810546875 -10.79345703125 123.895263671875 -11.482177734375Q124.482421875 -12.1708984375 124.482421875 -13.3134765625V-13.57373046875ZM125.650390625 -14.05615234375V-10.0H124.482421875V-11.0791015625Q124.08251953125 -10.431640625 123.48583984375 -10.123779296875Q122.88916015625 -9.81591796875 122.02587890625 -9.81591796875Q120.93408203125 -9.81591796875 120.289794921875 -10.428466796875Q119.6455078125 -11.041015625 119.6455078125 -12.0693359375Q119.6455078125 -13.26904296875 120.448486328125 -13.87841796875Q121.25146484375 -14.48779296875 122.8447265625 -14.48779296875H124.482421875V-14.60205078125Q124.482421875 -15.408203125 123.952392578125 -15.849365234375Q123.42236328125 -16.29052734375 122.4638671875 -16.29052734375Q121.8544921875 -16.29052734375 121.27685546875 -16.14453125Q120.69921875 -15.99853515625 120.166015625 -15.70654296875V-16.78564453125Q120.80712890625 -17.033203125 121.41015625 -17.156982421875Q122.01318359375 -17.28076171875 122.58447265625 -17.28076171875Q124.126953125 -17.28076171875 124.888671875 -16.48095703125Q125.650390625 -15.68115234375 125.650390625 -14.05615234375ZM132.17578125 -16.017578125Q131.97900390625 -16.1318359375 131.747314453125 -16.185791015625Q131.515625 -16.23974609375 131.236328125 -16.23974609375Q130.24609375 -16.23974609375 129.716064453125 -15.595458984375Q129.18603515625 -14.951171875 129.18603515625 -13.7451171875V-10.0H128.01171875V-17.109375H129.18603515625V-16.0048828125Q129.55419921875 -16.65234375 130.14453125 -16.966552734375Q130.73486328125 -17.28076171875 131.5791015625 -17.28076171875Q131.69970703125 -17.28076171875 131.845703125 -17.264892578125Q131.99169921875 -17.2490234375 132.16943359375 -17.21728515625ZM141.65283203125 -16.017578125Q141.4560546875 -16.1318359375 141.224365234375 -16.185791015625Q140.99267578125 -16.23974609375 140.71337890625 -16.23974609375Q139.72314453125 -16.23974609375 139.193115234375 -15.595458984375Q138.6630859375 -14.951171875 138.6630859375 -13.7451171875V-10.0H137.48876953125V-17.109375H138.6630859375V-16.0048828125Q139.03125 -16.65234375 139.62158203125 -16.966552734375Q140.2119140625 -17.28076171875 141.05615234375 -17.28076171875Q141.1767578125 -17.28076171875 141.32275390625 -17.264892578125Q141.46875 -17.2490234375 141.646484375 -17.21728515625ZM148.958984375 -13.8466796875V-13.275390625H143.5888671875Q143.6650390625 -12.0693359375 144.315673828125 -11.437744140625Q144.96630859375 -10.80615234375 146.1279296875 -10.80615234375Q146.80078125 -10.80615234375 147.432373046875 -10.97119140625Q148.06396484375 -11.13623046875 148.68603515625 -11.46630859375V-10.36181640625Q148.0576171875 -10.09521484375 147.3974609375 -9.95556640625Q146.7373046875 -9.81591796875 146.05810546875 -9.81591796875Q144.35693359375 -9.81591796875 143.363525390625 -10.80615234375Q142.3701171875 -11.79638671875 142.3701171875 -13.48486328125Q142.3701171875 -15.23046875 143.312744140625 -16.255615234375Q144.25537109375 -17.28076171875 145.85498046875 -17.28076171875Q147.28955078125 -17.28076171875 148.124267578125 -16.357177734375Q148.958984375 -15.43359375 148.958984375 -13.8466796875ZM147.791015625 -14.189453125Q147.7783203125 -15.14794921875 147.254638671875 -15.71923828125Q146.73095703125 -16.29052734375 145.86767578125 -16.29052734375Q144.89013671875 -16.29052734375 144.302978515625 -15.73828125Q143.7158203125 -15.18603515625 143.626953125 -14.18310546875ZM155.55419921875 -13.63720703125Q155.55419921875 -14.90673828125 155.030517578125 -15.60498046875Q154.5068359375 -16.30322265625 153.56103515625 -16.30322265625Q152.62158203125 -16.30322265625 152.097900390625 -15.60498046875Q151.57421875 -14.90673828125 151.57421875 -13.63720703125Q151.57421875 -12.3740234375 152.097900390625 -11.67578125Q152.62158203125 -10.9775390625 153.56103515625 -10.9775390625Q154.5068359375 -10.9775390625 155.030517578125 -11.67578125Q155.55419921875 -12.3740234375 155.55419921875 -13.63720703125ZM156.72216796875 -10.88232421875Q156.72216796875 -9.06689453125 155.916015625 -8.181396484375Q155.10986328125 -7.2958984375 153.44677734375 -7.2958984375Q152.8310546875 -7.2958984375 152.28515625 -7.387939453125Q151.7392578125 -7.47998046875 151.22509765625 -7.67041015625V-8.806640625Q151.7392578125 -8.52734375 152.24072265625 -8.39404296875Q152.7421875 -8.2607421875 153.2626953125 -8.2607421875Q154.41162109375 -8.2607421875 154.98291015625 -8.860595703125Q155.55419921875 -9.46044921875 155.55419921875 -10.6728515625V-11.25048828125Q155.1923828125 -10.6220703125 154.62744140625 -10.31103515625Q154.0625 -10.0 153.275390625 -10.0Q151.9677734375 -10.0 151.16796875 -10.99658203125Q150.3681640625 -11.9931640625 150.3681640625 -13.63720703125Q150.3681640625 -15.28759765625 151.16796875 -16.2841796875Q151.9677734375 -17.28076171875 153.275390625 -17.28076171875Q154.0625 -17.28076171875 154.62744140625 -16.9697265625Q155.1923828125 -16.65869140625 155.55419921875 -16.0302734375V-17.109375H156.72216796875ZM163.24755859375 -16.017578125Q163.05078125 -16.1318359375 162.819091796875 -16.185791015625Q162.58740234375 -16.23974609375 162.30810546875 -16.23974609375Q161.31787109375 -16.23974609375 160.787841796875 -15.595458984375Q160.2578125 -14.951171875 160.2578125 -13.7451171875V-10.0H159.08349609375V-17.109375H160.2578125V-16.0048828125Q160.6259765625 -16.65234375 161.21630859375 -16.966552734375Q161.806640625 -17.28076171875 162.65087890625 -17.28076171875Q162.771484375 -17.28076171875 162.91748046875 -17.264892578125Q163.0634765625 -17.2490234375 163.2412109375 -17.21728515625ZM170.5537109375 -13.8466796875V-13.275390625H165.18359375Q165.259765625 -12.0693359375 165.910400390625 -11.437744140625Q166.56103515625 -10.80615234375 167.72265625 -10.80615234375Q168.3955078125 -10.80615234375 169.027099609375 -10.97119140625Q169.65869140625 -11.13623046875 170.28076171875 -11.46630859375V-10.36181640625Q169.65234375 -10.09521484375 168.9921875 -9.95556640625Q168.33203125 -9.81591796875 167.65283203125 -9.81591796875Q165.95166015625 -9.81591796875 164.958251953125 -10.80615234375Q163.96484375 -11.79638671875 163.96484375 -13.48486328125Q163.96484375 -15.23046875 164.907470703125 -16.255615234375Q165.85009765625 -17.28076171875 167.44970703125 -17.28076171875Q168.88427734375 -17.28076171875 169.718994140625 -16.357177734375Q170.5537109375 -15.43359375 170.5537109375 -13.8466796875ZM169.3857421875 -14.189453125Q169.373046875 -15.14794921875 168.849365234375 -15.71923828125Q168.32568359375 -16.29052734375 167.46240234375 -16.29052734375Q166.48486328125 -16.29052734375 165.897705078125 -15.73828125Q165.310546875 -15.18603515625 165.2216796875 -14.18310546875ZM177.0029296875 -16.89990234375V-15.79541015625Q176.5078125 -16.04931640625 175.974609375 -16.17626953125Q175.44140625 -16.30322265625 174.8701171875 -16.30322265625Q174.00048828125 -16.30322265625 173.565673828125 -16.03662109375Q173.130859375 -15.77001953125 173.130859375 -15.23681640625Q173.130859375 -14.83056640625 173.44189453125 -14.598876953125Q173.7529296875 -14.3671875 174.6923828125 -14.15771484375L175.09228515625 -14.06884765625Q176.33642578125 -13.80224609375 176.860107421875 -13.316650390625Q177.3837890625 -12.8310546875 177.3837890625 -11.96142578125Q177.3837890625 -10.97119140625 176.599853515625 -10.3935546875Q175.81591796875 -9.81591796875 174.44482421875 -9.81591796875Q173.87353515625 -9.81591796875 173.254638671875 -9.927001953125Q172.6357421875 -10.0380859375 171.9501953125 -10.26025390625V-11.46630859375Q172.59765625 -11.1298828125 173.22607421875 -10.961669921875Q173.8544921875 -10.79345703125 174.47021484375 -10.79345703125Q175.29541015625 -10.79345703125 175.73974609375 -11.075927734375Q176.18408203125 -11.3583984375 176.18408203125 -11.87255859375Q176.18408203125 -12.3486328125 175.863525390625 -12.6025390625Q175.54296875 -12.8564453125 174.45751953125 -13.09130859375L174.05126953125 -13.1865234375Q172.9658203125 -13.4150390625 172.4833984375 -13.887939453125Q172.0009765625 -14.36083984375 172.0009765625 -15.18603515625Q172.0009765625 -16.18896484375 172.7119140625 -16.73486328125Q173.4228515625 -17.28076171875 174.73046875 -17.28076171875Q175.3779296875 -17.28076171875 175.94921875 -17.185546875Q176.5205078125 -17.09033203125 177.0029296875 -16.89990234375ZM183.77587890625 -16.89990234375V-15.79541015625Q183.28076171875 -16.04931640625 182.74755859375 -16.17626953125Q182.21435546875 -16.30322265625 181.64306640625 -16.30322265625Q180.7734375 -16.30322265625 180.338623046875 -16.03662109375Q179.90380859375 -15.77001953125 179.90380859375 -15.23681640625Q179.90380859375 -14.83056640625 180.21484375 -14.598876953125Q180.52587890625 -14.3671875 181.46533203125 -14.15771484375L181.865234375 -14.06884765625Q183.109375 -13.80224609375 183.633056640625 -13.316650390625Q184.15673828125 -12.8310546875 184.15673828125 -11.96142578125Q184.15673828125 -10.97119140625 183.372802734375 -10.3935546875Q182.5888671875 -9.81591796875 181.2177734375 -9.81591796875Q180.646484375 -9.81591796875 180.027587890625 -9.927001953125Q179.40869140625 -10.0380859375 178.72314453125 -10.26025390625V-11.46630859375Q179.37060546875 -11.1298828125 179.9990234375 -10.961669921875Q180.62744140625 -10.79345703125 181.2431640625 -10.79345703125Q182.068359375 -10.79345703125 182.5126953125 -11.075927734375Q182.95703125 -11.3583984375 182.95703125 -11.87255859375Q182.95703125 -12.3486328125 182.636474609375 -12.6025390625Q182.31591796875 -12.8564453125 181.23046875 -13.09130859375L180.82421875 -13.1865234375Q179.73876953125 -13.4150390625 179.25634765625 -13.887939453125Q178.77392578125 -14.36083984375 178.77392578125 -15.18603515625Q178.77392578125 -16.18896484375 179.48486328125 -16.73486328125Q180.19580078125 -17.28076171875 181.50341796875 -17.28076171875Q182.15087890625 -17.28076171875 182.72216796875 -17.185546875Q183.29345703125 -17.09033203125 183.77587890625 -16.89990234375ZM186.0166015625 -17.109375H187.1845703125V-10.0H186.0166015625ZM186.0166015625 -19.876953125H187.1845703125V-18.39794921875H186.0166015625ZM192.38330078125 -16.29052734375Q191.44384765625 -16.29052734375 190.89794921875 -15.557373046875Q190.35205078125 -14.82421875 190.35205078125 -13.54833984375Q190.35205078125 -12.2724609375 190.894775390625 -11.539306640625Q191.4375 -10.80615234375 192.38330078125 -10.80615234375Q193.31640625 -10.80615234375 193.8623046875 -11.54248046875Q194.408203125 -12.27880859375 194.408203125 -13.54833984375Q194.408203125 -14.8115234375 193.8623046875 -15.551025390625Q193.31640625 -16.29052734375 192.38330078125 -16.29052734375ZM192.38330078125 -17.28076171875Q193.90673828125 -17.28076171875 194.7763671875 -16.29052734375Q195.64599609375 -15.30029296875 195.64599609375 -13.54833984375Q195.64599609375 -11.802734375 194.7763671875 -10.809326171875Q193.90673828125 -9.81591796875 192.38330078125 -9.81591796875Q190.853515625 -9.81591796875 189.987060546875 -10.809326171875Q189.12060546875 -11.802734375 189.12060546875 -13.54833984375Q189.12060546875 -15.30029296875 189.987060546875 -16.29052734375Q190.853515625 -17.28076171875 192.38330078125 -17.28076171875ZM203.49169921875 -14.291015625V-10.0H202.32373046875V-14.2529296875Q202.32373046875 -15.26220703125 201.93017578125 -15.763671875Q201.53662109375 -16.26513671875 200.74951171875 -16.26513671875Q199.8037109375 -16.26513671875 199.2578125 -15.662109375Q198.7119140625 -15.05908203125 198.7119140625 -14.01806640625V-10.0H197.53759765625V-17.109375H198.7119140625V-16.0048828125Q199.130859375 -16.64599609375 199.698974609375 -16.96337890625Q200.26708984375 -17.28076171875 201.009765625 -17.28076171875Q202.23486328125 -17.28076171875 202.86328125 -16.522216796875Q203.49169921875 -15.763671875 203.49169921875 -14.291015625Z" fill="#000"/><g transform="translate(313.00,88.00)"><rect x="0" y="0" width="113.82" height="44" fill="#ffffff" stroke="#000000" stroke-width="0.8" opacity="0.92"/><circle cx="19.00" cy="14.00" r="2.5" fill="#1f77b4" opacity="0.85"/><path d="M40.9951171875 12.8974609375V9.642578125H41.9833984375V18.0H40.9951171875V17.09765625Q40.68359375 17.634765625 40.208251953125 17.895263671875Q39.73291015625 18.15576171875 39.06689453125 18.15576171875Q37.9765625 18.15576171875 37.291748046875 17.28564453125Q36.60693359375 16.41552734375 36.60693359375 14.99755859375Q36.60693359375 13.57958984375 37.291748046875 12.70947265625Q37.9765625 11.83935546875 39.06689453125 11.83935546875Q39.73291015625 11.83935546875 40.208251953125 12.099853515625Q40.68359375 12.3603515625 40.9951171875 12.8974609375ZM37.62744140625 14.99755859375Q37.62744140625 16.087890625 38.075927734375 16.708251953125Q38.5244140625 17.32861328125 39.30859375 17.32861328125Q40.0927734375 17.32861328125 40.5439453125 16.708251953125Q40.9951171875 16.087890625 40.9951171875 14.99755859375Q40.9951171875 13.9072265625 40.5439453125 13.286865234375Q40.0927734375 12.66650390625 39.30859375 12.66650390625Q38.5244140625 12.66650390625 38.075927734375 13.286865234375Q37.62744140625 13.9072265625 37.62744140625 14.99755859375ZM46.7529296875 14.97607421875Q45.55517578125 14.97607421875 45.09326171875 15.25Q44.63134765625 15.52392578125 44.63134765625 16.1845703125Q44.63134765625 16.7109375 44.977783203125 17.019775390625Q45.32421875 17.32861328125 45.92041015625 17.32861328125Q46.7421875 17.32861328125 47.239013671875 16.745849609375Q47.73583984375 16.1630859375 47.73583984375 15.1962890625V14.97607421875ZM48.72412109375 14.56787109375V18.0H47.73583984375V17.0869140625Q47.3974609375 17.634765625 46.892578125 17.895263671875Q46.3876953125 18.15576171875 45.6572265625 18.15576171875Q44.7333984375 18.15576171875 44.188232421875 17.637451171875Q43.64306640625 17.119140625 43.64306640625 16.2490234375Q43.64306640625 15.23388671875 44.322509765625 14.71826171875Q45.001953125 14.20263671875 46.35009765625 14.20263671875H47.73583984375V14.10595703125Q47.73583984375 13.423828125 47.287353515625 13.050537109375Q46.8388671875 12.67724609375 46.02783203125 12.67724609375Q45.51220703125 12.67724609375 45.0234375 12.80078125Q44.53466796875 12.92431640625 44.08349609375 13.17138671875V12.25830078125Q44.6259765625 12.048828125 45.13623046875 11.944091796875Q45.646484375 11.83935546875 46.1298828125 11.83935546875Q47.43505859375 11.83935546875 48.07958984375 12.51611328125Q48.72412109375 13.19287109375 48.72412109375 14.56787109375ZM51.7373046875 10.2763671875V11.984375H53.77294921875V12.75244140625H51.7373046875V16.01806640625Q51.7373046875 16.75390625 51.938720703125 16.96337890625Q52.14013671875 17.1728515625 52.7578125 17.1728515625H53.77294921875V18.0H52.7578125Q51.61376953125 18.0 51.1787109375 17.572998046875Q50.74365234375 17.14599609375 50.74365234375 16.01806640625V12.75244140625H50.0185546875V11.984375H50.74365234375V10.2763671875ZM57.806640625 14.97607421875Q56.60888671875 14.97607421875 56.14697265625 15.25Q55.68505859375 15.52392578125 55.68505859375 16.1845703125Q55.68505859375 16.7109375 56.031494140625 17.019775390625Q56.3779296875 17.32861328125 56.97412109375 17.32861328125Q57.7958984375 17.32861328125 58.292724609375 16.745849609375Q58.78955078125 16.1630859375 58.78955078125 15.1962890625V14.97607421875ZM59.77783203125 14.56787109375V18.0H58.78955078125V17.0869140625Q58.451171875 17.634765625 57.9462890625 17.895263671875Q57.44140625 18.15576171875 56.7109375 18.15576171875Q55.787109375 18.15576171875 55.241943359375 17.637451171875Q54.69677734375 17.119140625 54.69677734375 16.2490234375Q54.69677734375 15.23388671875 55.376220703125 14.71826171875Q56.0556640625 14.20263671875 57.40380859375 14.20263671875H58.78955078125V14.10595703125Q58.78955078125 13.423828125 58.341064453125 13.050537109375Q57.892578125 12.67724609375 57.08154296875 12.67724609375Q56.56591796875 12.67724609375 56.0771484375 12.80078125Q55.58837890625 12.92431640625 55.13720703125 13.17138671875V12.25830078125Q55.6796875 12.048828125 56.18994140625 11.944091796875Q56.7001953125 11.83935546875 57.18359375 11.83935546875Q58.48876953125 11.83935546875 59.13330078125 12.51611328125Q59.77783203125 13.19287109375 59.77783203125 14.56787109375Z" fill="#000"/><rect x="8.00" y="25.00" width="22.00" height="10.00" fill="#ff7f0e" opacity="0.2"/><line x1="8.00" x2="30.00" y1="30.00" y2="30.00" stroke="#ff7f0e" stroke-width="1.8"/><path d="M40.08203125 25.642578125V26.46435546875H39.13671875Q38.60498046875 26.46435546875 38.398193359375 26.67919921875Q38.19140625 26.89404296875 38.19140625 27.45263671875V27.984375H39.81884765625V28.75244140625H38.19140625V34.0H37.19775390625V28.75244140625H36.25244140625V27.984375H37.19775390625V27.5654296875Q37.19775390625 26.56103515625 37.6650390625 26.101806640625Q38.13232421875 25.642578125 39.1474609375 25.642578125ZM40.9091796875 27.984375H41.8974609375V34.0H40.9091796875ZM40.9091796875 25.642578125H41.8974609375V26.89404296875H40.9091796875ZM44.94287109375 26.2763671875V27.984375H46.978515625V28.75244140625H44.94287109375V32.01806640625Q44.94287109375 32.75390625 45.144287109375 32.96337890625Q45.345703125 33.1728515625 45.96337890625 33.1728515625H46.978515625V34.0H45.96337890625Q44.8193359375 34.0 44.38427734375 33.572998046875Q43.94921875 33.14599609375 43.94921875 32.01806640625V28.75244140625H43.22412109375V27.984375H43.94921875V26.2763671875ZM55.7978515625 27.103515625V29.18212890625H58.78955078125V30.09521484375H55.7978515625V32.173828125H54.8955078125V30.09521484375H51.90380859375V29.18212890625H54.8955078125V27.103515625ZM51.90380859375 33.0869140625H58.78955078125V34.0H51.90380859375ZM64.66015625 33.83349609375V32.84521484375Q65.068359375 33.03857421875 65.4873046875 33.140625Q65.90625 33.24267578125 66.30908203125 33.24267578125Q67.38330078125 33.24267578125 67.949951171875 32.520263671875Q68.5166015625 31.7978515625 68.59716796875 30.326171875Q68.28564453125 30.7880859375 67.8076171875 31.03515625Q67.32958984375 31.2822265625 66.74951171875 31.2822265625Q65.54638671875 31.2822265625 64.845458984375 30.554443359375Q64.14453125 29.82666015625 64.14453125 28.564453125Q64.14453125 27.3291015625 64.875 26.58251953125Q65.60546875 25.8359375 66.8193359375 25.8359375Q68.21044921875 25.8359375 68.943603515625 26.902099609375Q69.6767578125 27.96826171875 69.6767578125 29.99853515625Q69.6767578125 31.89453125 68.777099609375 33.025146484375Q67.87744140625 34.15576171875 66.357421875 34.15576171875Q65.94921875 34.15576171875 65.5302734375 34.0751953125Q65.111328125 33.99462890625 64.66015625 33.83349609375ZM66.8193359375 30.43359375Q67.5498046875 30.43359375 67.976806640625 29.93408203125Q68.40380859375 29.4345703125 68.40380859375 28.564453125Q68.40380859375 27.69970703125 67.976806640625 27.197509765625Q67.5498046875 26.6953125 66.8193359375 26.6953125Q66.0888671875 26.6953125 65.661865234375 27.197509765625Q65.23486328125 27.69970703125 65.23486328125 28.564453125Q65.23486328125 29.4345703125 65.661865234375 29.93408203125Q66.0888671875 30.43359375 66.8193359375 30.43359375ZM71.63720703125 25.98095703125H75.896484375V26.89404296875H72.630859375V28.85986328125Q72.8671875 28.779296875 73.103515625 28.739013671875Q73.33984375 28.69873046875 73.576171875 28.69873046875Q74.9189453125 28.69873046875 75.703125 29.4345703125Q76.4873046875 30.17041015625 76.4873046875 31.42724609375Q76.4873046875 32.7216796875 75.681640625 33.438720703125Q74.8759765625 34.15576171875 73.40966796875 34.15576171875Q72.90478515625 34.15576171875 72.381103515625 34.06982421875Q71.857421875 33.98388671875 71.298828125 33.81201171875V32.7216796875Q71.7822265625 32.98486328125 72.2978515625 33.11376953125Q72.8134765625 33.24267578125 73.38818359375 33.24267578125Q74.3173828125 33.24267578125 74.85986328125 32.75390625Q75.40234375 32.26513671875 75.40234375 31.42724609375Q75.40234375 30.58935546875 74.85986328125 30.1005859375Q74.3173828125 29.61181640625 73.38818359375 29.61181640625Q72.953125 29.61181640625 72.520751953125 29.70849609375Q72.08837890625 29.80517578125 71.63720703125 30.00927734375ZM88.94287109375 30.47119140625Q88.4755859375 30.47119140625 88.209716796875 30.86865234375Q87.94384765625 31.26611328125 87.94384765625 31.97509765625Q87.94384765625 32.67333984375 88.209716796875 33.073486328125Q88.4755859375 33.4736328125 88.94287109375 33.4736328125Q89.3994140625 33.4736328125 89.665283203125 33.073486328125Q89.93115234375 32.67333984375 89.93115234375 31.97509765625Q89.93115234375 31.271484375 89.665283203125 30.871337890625Q89.3994140625 30.47119140625 88.94287109375 30.47119140625ZM88.94287109375 29.7890625Q89.79150390625 29.7890625 90.291015625 30.3798828125Q90.79052734375 30.970703125 90.79052734375 31.97509765625Q90.79052734375 32.9794921875 90.288330078125 33.567626953125Q89.7861328125 34.15576171875 88.94287109375 34.15576171875Q88.08349609375 34.15576171875 87.583984375 33.567626953125Q87.08447265625 32.9794921875 87.08447265625 31.97509765625Q87.08447265625 30.96533203125 87.586669921875 30.377197265625Q88.0888671875 29.7890625 88.94287109375 29.7890625ZM83.39990234375 26.51806640625Q82.93798828125 26.51806640625 82.672119140625 26.918212890625Q82.40625 27.318359375 82.40625 28.0166015625Q82.40625 28.7255859375 82.66943359375 29.123046875Q82.9326171875 29.5205078125 83.39990234375 29.5205078125Q83.8671875 29.5205078125 84.133056640625 29.123046875Q84.39892578125 28.7255859375 84.39892578125 28.0166015625Q84.39892578125 27.32373046875 84.13037109375 26.9208984375Q83.86181640625 26.51806640625 83.39990234375 26.51806640625ZM88.25 25.8359375H89.109375L84.0927734375 34.15576171875H83.2333984375ZM83.39990234375 25.8359375Q84.24853515625 25.8359375 84.75341796875 26.424072265625Q85.25830078125 27.01220703125 85.25830078125 28.0166015625Q85.25830078125 29.03173828125 84.756103515625 29.6171875Q84.25390625 30.20263671875 83.39990234375 30.20263671875Q82.5458984375 30.20263671875 82.049072265625 29.614501953125Q81.55224609375 29.0263671875 81.55224609375 28.0166015625Q81.55224609375 27.017578125 82.0517578125 26.4267578125Q82.55126953125 25.8359375 83.39990234375 25.8359375ZM101.978515625 26.5986328125V27.74267578125Q101.4306640625 27.232421875 100.810302734375 26.97998046875Q100.18994140625 26.7275390625 99.49169921875 26.7275390625Q98.11669921875 26.7275390625 97.38623046875 27.568115234375Q96.65576171875 28.40869140625 96.65576171875 29.99853515625Q96.65576171875 31.5830078125 97.38623046875 32.423583984375Q98.11669921875 33.26416015625 99.49169921875 33.26416015625Q100.18994140625 33.26416015625 100.810302734375 33.01171875Q101.4306640625 32.75927734375 101.978515625 32.2490234375V33.38232421875Q101.4091796875 33.76904296875 100.772705078125 33.96240234375Q100.13623046875 34.15576171875 99.42724609375 34.15576171875Q97.6064453125 34.15576171875 96.55908203125 33.041259765625Q95.51171875 31.9267578125 95.51171875 29.99853515625Q95.51171875 28.06494140625 96.55908203125 26.950439453125Q97.6064453125 25.8359375 99.42724609375 25.8359375Q100.14697265625 25.8359375 100.783447265625 26.026611328125Q101.419921875 26.21728515625 101.978515625 26.5986328125ZM103.654296875 25.98095703125H104.7392578125V34.0H103.654296875Z" fill="#000"/></g></g></svg>