<svg xmlns="http://www.w3.org/2000/svg" width="574" height="323" viewBox="0 0 574 323" font-family="DejaVu Sans, Bitstream Vera Sans, Verdana, Arial, sans-serif" font-size="11" style="background:#fff" data-plotlet-version="0.5.1" data-plotlet-schema="2" data-plotlet-kind="figure"><g transform="translate(54,33)" data-plotlet-kind="panel" data-plotlet-title="color + size + style" data-plotlet-xlabel="x" data-plotlet-ylabel="y" data-plotlet-xscale="linear" data-plotlet-yscale="linear" data-plotlet-xlim="-0.2488319531,10.47424843" data-plotlet-ylim="1.201950573,10.21966169" data-plotlet-panel-bbox="4,4,566,315" data-plotlet-data-area="50,29,400,240"><svg x="0" y="0" width="400" height="240" overflow="hidden"><g class="plotlet-artist" data-plotlet-type="scatter" data-plotlet-index="0" data-plotlet-label="alpha" data-plotlet-color="#1f77b4" data-plotlet-n="12" data-plotlet-x-min="0.2744485709" data-plotlet-x-max="9.986835682" data-plotlet-y-min="1.611846533" data-plotlet-y-max="9.248320721" data-plotlet-marker="[&#x27;o&#x27;, &#x27;o&#x27;, &#x27;o&#x27;, &#x27;o&#x27;, &#x27;o&#x27;, &#x27;o&#x27;, &#x27;o&#x27;, &#x27;o&#x27;, &#x27;o&#x27;, &#x27;o&#x27;, &#x27;o&#x27;, &#x27;o&#x27;]"><circle cx="365.91" cy="34.17" r="4.58" fill="#1f77b4" opacity="0.85"/><circle cx="40.94" cy="30.71" r="5.03" fill="#1f77b4" opacity="0.85"/><circle cx="259.11" cy="177.83" r="4.62" fill="#1f77b4" opacity="0.85"/><circle cx="235.64" cy="229.09" r="2.27" fill="#1f77b4" opacity="0.85"/><circle cx="169.93" cy="149.19" r="6.75" fill="#1f77b4" opacity="0.85"/><circle cx="380.38" cy="25.85" r="2.18" fill="#1f77b4" opacity="0.85"/><circle cx="175.22" cy="177.79" r="3.08" fill="#1f77b4" opacity="0.85"/><circle cx="19.52" cy="149.29" r="4.67" fill="#1f77b4" opacity="0.85"/><circle cx="151.04" cy="79.36" r="3.00" fill="#1f77b4" opacity="0.85"/><circle cx="218.37" cy="185.58" r="5.72" fill="#1f77b4" opacity="0.85"/><circle cx="130.57" cy="30.35" r="2.79" fill="#1f77b4" opacity="0.85"/><circle cx="381.82" cy="189.60" r="7.00" fill="#1f77b4" opacity="0.85"/></g><g class="plotlet-artist" data-plotlet-type="scatter" data-plotlet-index="1" data-plotlet-label="beta" data-plotlet-color="#ff7f0e" data-plotlet-n="12" data-plotlet-x-min="1.36697393" data-plotlet-x-max="9.493954731" data-plotlet-y-min="2.681375129" data-plotlet-y-max="9.809765731" data-plotlet-marker="[&#x27;s&#x27;, &#x27;s&#x27;, &#x27;s&#x27;, &#x27;s&#x27;, &#x27;s&#x27;, &#x27;s&#x27;, &#x27;s&#x27;, &#x27;s&#x27;, &#x27;s&#x27;, &#x27;s&#x27;, &#x27;s&#x27;, &#x27;s&#x27;]"><rect x="358.20" y="55.29" width="9.30" height="9.30" fill="#ff7f0e" opacity="0.85"/><rect x="317.40" y="65.41" width="7.08" height="7.08" fill="#ff7f0e" opacity="0.85"/><rect x="117.34" y="4.02" width="13.78" height="13.78" fill="#ff7f0e" opacity="0.85"/><rect x="219.81" y="65.04" width="12.56" height="12.56" fill="#ff7f0e" opacity="0.85"/><rect x="153.19" y="127.95" width="5.79" height="5.79" fill="#ff7f0e" opacity="0.85"/><rect x="358.06" y="133.32" width="10.75" height="10.75" fill="#ff7f0e" opacity="0.85"/><rect x="102.77" y="30.45" width="13.15" height="13.15" fill="#ff7f0e" opacity="0.85"/><rect x="176.24" y="114.44" width="12.92" height="12.92" fill="#ff7f0e" opacity="0.85"/><rect x="335.34" y="135.88" width="13.20" height="13.20" fill="#ff7f0e" opacity="0.85"/><rect x="95.33" y="83.77" width="4.07" height="4.07" fill="#ff7f0e" opacity="0.85"/><rect x="54.79" y="195.14" width="10.97" height="10.97" fill="#ff7f0e" opacity="0.85"/><rect x="258.88" y="15.19" width="4.00" height="4.00" fill="#ff7f0e" opacity="0.85"/></g><g class="plotlet-artist" data-plotlet-type="scatter" data-plotlet-index="2" data-plotlet-label="gamma" data-plotlet-color="#2ca02c" data-plotlet-n="12" data-plotlet-x-min="0.2385807914" data-plotlet-x-max="7.359699891" data-plotlet-y-min="1.660696855" data-plotlet-y-max="9.619009379" data-plotlet-marker="[&#x27;^&#x27;, &#x27;^&#x27;, &#x27;^&#x27;, &#x27;^&#x27;, &#x27;^&#x27;, &#x27;^&#x27;, &#x27;^&#x27;, &#x27;^&#x27;, &#x27;^&#x27;, &#x27;^&#x27;, &#x27;^&#x27;, &#x27;^&#x27;]"><path d="M30.38,71.16L35.75,81.90L25.01,81.90Z" fill="#2ca02c" opacity="0.85"/><path d="M283.82,58.82L286.80,64.79L280.84,64.79Z" fill="#2ca02c" opacity="0.85"/><path d="M235.32,10.77L240.53,21.20L230.10,21.20Z" fill="#2ca02c" opacity="0.85"/><path d="M68.36,75.89L74.13,87.43L62.59,87.43Z" fill="#2ca02c" opacity="0.85"/><path d="M278.99,135.70L284.86,147.45L273.11,147.45Z" fill="#2ca02c" opacity="0.85"/><path d="M212.27,47.35L215.61,54.02L208.94,54.02Z" fill="#2ca02c" opacity="0.85"/><path d="M22.68,30.10L25.12,34.98L20.25,34.98Z" fill="#2ca02c" opacity="0.85"/><path d="M128.08,23.87L131.26,30.23L124.90,30.23Z" fill="#2ca02c" opacity="0.85"/><path d="M205.40,208.82L209.54,217.09L201.26,217.09Z" fill="#2ca02c" opacity="0.85"/><path d="M18.18,223.98L22.00,231.60L14.37,231.60Z" fill="#2ca02c" opacity="0.85"/><path d="M199.61,27.12L201.92,31.74L197.30,31.74Z" fill="#2ca02c" opacity="0.85"/><path d="M77.11,78.25L82.90,89.83L71.33,89.83Z" fill="#2ca02c" opacity="0.85"/></g></svg><line x1="0.00" x2="400.00" y1="0.00" y2="0.00" stroke="#000000" stroke-width="1.00"/><line x1="0.00" x2="400.00" y1="240.00" y2="240.00" stroke="#000000" stroke-width="1.00"/><line x1="0.00" x2="0.00" y1="0.00" y2="240.00" stroke="#000000" stroke-width="1.00"/><line x1="400.00" x2="400.00" y1="0.00" y2="240.00" stroke="#000000" stroke-width="1.00"/><line x1="9.28" x2="9.28" y1="240.00" y2="244.50" stroke="#000000" stroke-width="1.00"/><path d="M9.28 250.34Q8.29 250.34 7.79 251.32Q7.29 252.29 7.29 254.25Q7.29 256.20 7.79 257.17Q8.29 258.15 9.28 258.15Q10.28 258.15 10.77 257.17Q11.27 256.20 11.27 254.25Q11.27 252.29 10.77 251.32Q10.28 250.34 9.28 250.34ZM9.28 249.33Q10.87 249.33 11.71 250.59Q12.55 251.85 12.55 254.25Q12.55 256.64 11.71 257.90Q10.87 259.16 9.28 259.16Q7.69 259.16 6.84 257.90Q6.00 256.64 6.00 254.25Q6.00 251.85 6.84 250.59Q7.69 249.33 9.28 249.33Z" fill="#000"/><line x1="83.89" x2="83.89" y1="240.00" y2="244.50" stroke="#000000" stroke-width="1.00"/><path d="M82.25 257.90H86.72V258.98H80.70V257.90Q81.43 257.14 82.69 255.87Q83.95 254.60 84.28 254.23Q84.89 253.54 85.14 253.06Q85.38 252.58 85.38 252.12Q85.38 251.36 84.85 250.88Q84.32 250.41 83.47 250.41Q82.87 250.41 82.20 250.62Q81.53 250.83 80.77 251.25V249.96Q81.54 249.65 82.21 249.49Q82.89 249.33 83.45 249.33Q84.92 249.33 85.80 250.06Q86.67 250.80 86.67 252.03Q86.67 252.62 86.45 253.14Q86.23 253.66 85.66 254.38Q85.50 254.56 84.65 255.44Q83.80 256.32 82.25 257.90Z" fill="#000"/><line x1="158.49" x2="158.49" y1="240.00" y2="244.50" stroke="#000000" stroke-width="1.00"/><path d="M159.27 250.62 156.03 255.68H159.27ZM158.93 249.50H160.55V255.68H161.90V256.74H160.55V258.98H159.27V256.74H154.99V255.50Z" fill="#000"/><line x1="233.10" x2="233.10" y1="240.00" y2="244.50" stroke="#000000" stroke-width="1.00"/><path d="M233.25 253.73Q232.39 253.73 231.89 254.32Q231.38 254.91 231.38 255.94Q231.38 256.96 231.89 257.55Q232.39 258.15 233.25 258.15Q234.12 258.15 234.62 257.55Q235.13 256.96 235.13 255.94Q235.13 254.91 234.62 254.32Q234.12 253.73 233.25 253.73ZM235.80 249.71V250.88Q235.32 250.65 234.82 250.53Q234.33 250.41 233.85 250.41Q232.58 250.41 231.91 251.26Q231.24 252.12 231.15 253.85Q231.52 253.30 232.09 253.01Q232.65 252.71 233.33 252.71Q234.76 252.71 235.59 253.58Q236.42 254.44 236.42 255.94Q236.42 257.40 235.55 258.28Q234.69 259.16 233.25 259.16Q231.61 259.16 230.74 257.90Q229.87 256.64 229.87 254.25Q229.87 252.00 230.94 250.66Q232.00 249.33 233.80 249.33Q234.28 249.33 234.77 249.42Q235.27 249.52 235.80 249.71Z" fill="#000"/><line x1="307.70" x2="307.70" y1="240.00" y2="244.50" stroke="#000000" stroke-width="1.00"/><path d="M307.70 254.48Q306.79 254.48 306.26 254.97Q305.74 255.45 305.74 256.31Q305.74 257.17 306.26 257.66Q306.79 258.15 307.70 258.15Q308.61 258.15 309.14 257.65Q309.67 257.16 309.67 256.31Q309.67 255.45 309.14 254.97Q308.62 254.48 307.70 254.48ZM306.42 253.93Q305.59 253.73 305.13 253.16Q304.67 252.60 304.67 251.79Q304.67 250.65 305.48 249.99Q306.29 249.33 307.70 249.33Q309.12 249.33 309.92 249.99Q310.73 250.65 310.73 251.79Q310.73 252.60 310.27 253.16Q309.81 253.73 308.99 253.93Q309.92 254.15 310.43 254.77Q310.95 255.40 310.95 256.31Q310.95 257.69 310.11 258.42Q309.27 259.16 307.70 259.16Q306.13 259.16 305.29 258.42Q304.45 257.69 304.45 256.31Q304.45 255.40 304.97 254.77Q305.49 254.15 306.42 253.93ZM305.95 251.91Q305.95 252.64 306.41 253.05Q306.87 253.47 307.70 253.47Q308.53 253.47 308.99 253.05Q309.46 252.64 309.46 251.91Q309.46 251.17 308.99 250.76Q308.53 250.34 307.70 250.34Q306.87 250.34 306.41 250.76Q305.95 251.17 305.95 251.91Z" fill="#000"/><line x1="382.31" x2="382.31" y1="240.00" y2="244.50" stroke="#000000" stroke-width="1.00"/><path d="M375.65 257.90H377.75V250.67L375.47 251.12V249.96L377.73 249.50H379.01V257.90H381.11V258.98H375.65ZM386.44 250.34Q385.45 250.34 384.95 251.32Q384.45 252.29 384.45 254.25Q384.45 256.20 384.95 257.17Q385.45 258.15 386.44 258.15Q387.44 258.15 387.94 257.17Q388.43 256.20 388.43 254.25Q388.43 252.29 387.94 251.32Q387.44 250.34 386.44 250.34ZM386.44 249.33Q388.03 249.33 388.88 250.59Q389.72 251.85 389.72 254.25Q389.72 256.64 388.88 257.90Q388.03 259.16 386.44 259.16Q384.85 259.16 384.01 257.90Q383.17 256.64 383.17 254.25Q383.17 251.85 384.01 250.59Q384.85 249.33 386.44 249.33Z" fill="#000"/><line x1="0.00" x2="-4.50" y1="218.76" y2="218.76" stroke="#000000" stroke-width="1.00"/><path d="M-15.28 222.42H-10.80V223.50H-16.82V222.42Q-16.09 221.66 -14.83 220.39Q-13.57 219.12 -13.25 218.75Q-12.63 218.06 -12.39 217.58Q-12.14 217.10 -12.14 216.64Q-12.14 215.88 -12.67 215.41Q-13.20 214.93 -14.05 214.93Q-14.65 214.93 -15.32 215.14Q-15.99 215.35 -16.76 215.77V214.48Q-15.98 214.17 -15.31 214.01Q-14.64 213.85 -14.08 213.85Q-12.60 213.85 -11.73 214.59Q-10.85 215.32 -10.85 216.55Q-10.85 217.14 -11.07 217.66Q-11.29 218.19 -11.87 218.90Q-12.03 219.08 -12.88 219.96Q-13.73 220.84 -15.28 222.42Z" fill="#000"/><line x1="0.00" x2="-4.50" y1="165.53" y2="165.53" stroke="#000000" stroke-width="1.00"/><path d="M-12.86 161.91 -16.10 166.97H-12.86ZM-13.19 160.79H-11.58V166.97H-10.23V168.04H-11.58V170.27H-12.86V168.04H-17.14V166.80Z" fill="#000"/><line x1="0.00" x2="-4.50" y1="112.30" y2="112.30" stroke="#000000" stroke-width="1.00"/><path d="M-13.48 111.79Q-14.34 111.79 -14.85 112.38Q-15.35 112.97 -15.35 114.00Q-15.35 115.02 -14.85 115.62Q-14.34 116.21 -13.48 116.21Q-12.62 116.21 -12.11 115.62Q-11.61 115.02 -11.61 114.00Q-11.61 112.97 -12.11 112.38Q-12.62 111.79 -13.48 111.79ZM-10.93 107.77V108.94Q-11.42 108.71 -11.91 108.59Q-12.40 108.47 -12.88 108.47Q-14.15 108.47 -14.82 109.33Q-15.49 110.19 -15.59 111.92Q-15.21 111.37 -14.65 111.07Q-14.08 110.78 -13.40 110.78Q-11.98 110.78 -11.15 111.64Q-10.32 112.51 -10.32 114.00Q-10.32 115.46 -11.18 116.34Q-12.05 117.23 -13.48 117.23Q-15.12 117.23 -15.99 115.97Q-16.86 114.71 -16.86 112.31Q-16.86 110.07 -15.80 108.73Q-14.73 107.39 -12.93 107.39Q-12.45 107.39 -11.96 107.49Q-11.47 107.58 -10.93 107.77Z" fill="#000"/><line x1="0.00" x2="-4.50" y1="59.07" y2="59.07" stroke="#000000" stroke-width="1.00"/><path d="M-13.64 59.31Q-14.55 59.31 -15.08 59.80Q-15.60 60.29 -15.60 61.15Q-15.60 62.00 -15.08 62.49Q-14.55 62.98 -13.64 62.98Q-12.72 62.98 -12.20 62.49Q-11.67 62.00 -11.67 61.15Q-11.67 60.29 -12.19 59.80Q-12.72 59.31 -13.64 59.31ZM-14.92 58.77Q-15.75 58.56 -16.21 58.00Q-16.67 57.43 -16.67 56.62Q-16.67 55.49 -15.86 54.82Q-15.05 54.16 -13.64 54.16Q-12.22 54.16 -11.42 54.82Q-10.61 55.49 -10.61 56.62Q-10.61 57.43 -11.07 58.00Q-11.53 58.56 -12.35 58.77Q-11.42 58.98 -10.91 59.61Q-10.39 60.24 -10.39 61.15Q-10.39 62.52 -11.23 63.26Q-12.07 64.00 -13.64 64.00Q-15.21 64.00 -16.05 63.26Q-16.89 62.52 -16.89 61.15Q-16.89 60.24 -16.37 59.61Q-15.85 58.98 -14.92 58.77ZM-15.39 56.74Q-15.39 57.48 -14.93 57.89Q-14.47 58.30 -13.64 58.30Q-12.81 58.30 -12.35 57.89Q-11.88 57.48 -11.88 56.74Q-11.88 56.01 -12.35 55.59Q-12.81 55.18 -13.64 55.18Q-14.47 55.18 -14.93 55.59Q-15.39 56.01 -15.39 56.74Z" fill="#000"/><line x1="0.00" x2="-4.50" y1="5.85" y2="5.85" stroke="#000000" stroke-width="1.00"/><path d="M-24.43 9.51H-22.33V2.28L-24.61 2.73V1.56L-22.35 1.11H-21.07V9.51H-18.97V10.58H-24.43ZM-13.64 1.95Q-14.63 1.95 -15.13 2.93Q-15.63 3.90 -15.63 5.86Q-15.63 7.80 -15.13 8.78Q-14.63 9.75 -13.64 9.75Q-12.64 9.75 -12.14 8.78Q-11.65 7.80 -11.65 5.86Q-11.65 3.90 -12.14 2.93Q-12.64 1.95 -13.64 1.95ZM-13.64 0.94Q-12.05 0.94 -11.20 2.20Q-10.36 3.46 -10.36 5.86Q-10.36 8.25 -11.20 9.51Q-12.05 10.77 -13.64 10.77Q-15.23 10.77 -16.07 9.51Q-16.91 8.25 -16.91 5.86Q-16.91 3.46 -16.07 2.20Q-15.23 0.94 -13.64 0.94Z" fill="#000"/><path d="M203.54 267.08 200.77 270.81 203.68 274.74H202.20L199.97 271.73L197.74 274.74H196.26L199.23 270.74L196.51 267.08H198.00L200.03 269.81L202.06 267.08Z" fill="#000"/><g transform="rotate(-90.00 -35.04 120.00)"><path d="M-34.68 120.71Q-35.21 122.08 -35.72 122.50Q-36.22 122.91 -37.07 122.91H-38.08V121.86H-37.34Q-36.82 121.86 -36.53 121.61Q-36.25 121.37 -35.90 120.45L-35.67 119.88L-38.77 112.34H-37.43L-35.04 118.33L-32.65 112.34H-31.32Z" fill="#000"/></g><path d="M129.83 -25.19V-23.84Q129.22 -24.18 128.61 -24.35Q128.00 -24.52 127.37 -24.52Q125.97 -24.52 125.20 -23.63Q124.43 -22.74 124.43 -21.14Q124.43 -19.54 125.20 -18.65Q125.97 -17.77 127.37 -17.77Q128.00 -17.77 128.61 -17.93Q129.22 -18.10 129.83 -18.44V-17.11Q129.23 -16.83 128.59 -16.69Q127.94 -16.55 127.21 -16.55Q125.24 -16.55 124.07 -17.79Q122.91 -19.03 122.91 -21.14Q122.91 -23.28 124.09 -24.51Q125.26 -25.73 127.31 -25.73Q127.97 -25.73 128.61 -25.60Q129.24 -25.46 129.83 -25.19ZM135.72 -24.52Q134.57 -24.52 133.89 -23.61Q133.22 -22.71 133.22 -21.14Q133.22 -19.57 133.89 -18.67Q134.56 -17.77 135.72 -17.77Q136.87 -17.77 137.54 -18.67Q138.21 -19.58 138.21 -21.14Q138.21 -22.70 137.54 -23.61Q136.87 -24.52 135.72 -24.52ZM135.72 -25.73Q137.60 -25.73 138.67 -24.52Q139.74 -23.30 139.74 -21.14Q139.74 -18.99 138.67 -17.77Q137.60 -16.55 135.72 -16.55Q133.84 -16.55 132.77 -17.77Q131.71 -18.99 131.71 -21.14Q131.71 -23.30 132.77 -24.52Q133.84 -25.73 135.72 -25.73ZM142.12 -28.93H143.56V-16.77H142.12ZM149.96 -24.52Q148.80 -24.52 148.13 -23.61Q147.46 -22.71 147.46 -21.14Q147.46 -19.57 148.12 -18.67Q148.79 -17.77 149.96 -17.77Q151.11 -17.77 151.78 -18.67Q152.45 -19.58 152.45 -21.14Q152.45 -22.70 151.78 -23.61Q151.11 -24.52 149.96 -24.52ZM149.96 -25.73Q151.83 -25.73 152.90 -24.52Q153.97 -23.30 153.97 -21.14Q153.97 -18.99 152.90 -17.77Q151.83 -16.55 149.96 -16.55Q148.07 -16.55 147.01 -17.77Q145.94 -18.99 145.94 -21.14Q145.94 -23.30 147.01 -24.52Q148.07 -25.73 149.96 -25.73ZM161.43 -24.18Q161.18 -24.32 160.90 -24.39Q160.61 -24.45 160.27 -24.45Q159.05 -24.45 158.40 -23.66Q157.75 -22.87 157.75 -21.38V-16.77H156.30V-25.52H157.75V-24.16Q158.20 -24.96 158.93 -25.35Q159.65 -25.73 160.69 -25.73Q160.84 -25.73 161.02 -25.71Q161.20 -25.70 161.42 -25.66ZM173.87 -26.80V-22.45H178.22V-21.12H173.87V-16.77H172.56V-21.12H168.21V-22.45H172.56V-26.80ZM192.09 -25.27V-23.91Q191.48 -24.22 190.82 -24.38Q190.17 -24.53 189.46 -24.53Q188.39 -24.53 187.86 -24.20Q187.32 -23.88 187.32 -23.22Q187.32 -22.72 187.71 -22.43Q188.09 -22.15 189.25 -21.89L189.74 -21.78Q191.27 -21.45 191.91 -20.86Q192.56 -20.26 192.56 -19.19Q192.56 -17.97 191.59 -17.26Q190.63 -16.55 188.94 -16.55Q188.24 -16.55 187.48 -16.68Q186.71 -16.82 185.87 -17.09V-18.58Q186.67 -18.16 187.44 -17.96Q188.21 -17.75 188.97 -17.75Q189.99 -17.75 190.54 -18.10Q191.08 -18.45 191.08 -19.08Q191.08 -19.66 190.69 -19.98Q190.29 -20.29 188.96 -20.58L188.46 -20.70Q187.12 -20.98 186.53 -21.56Q185.93 -22.14 185.93 -23.16Q185.93 -24.39 186.81 -25.06Q187.68 -25.73 189.29 -25.73Q190.09 -25.73 190.79 -25.62Q191.50 -25.50 192.09 -25.27ZM194.85 -25.52H196.29V-16.77H194.85ZM194.85 -28.93H196.29V-27.11H194.85ZM198.67 -25.52H205.50V-24.21L200.09 -17.92H205.50V-16.77H198.47V-18.09L203.88 -24.38H198.67ZM215.18 -21.51V-20.80H208.57Q208.66 -19.32 209.46 -18.54Q210.26 -17.77 211.69 -17.77Q212.52 -17.77 213.30 -17.97Q214.07 -18.17 214.84 -18.58V-17.22Q214.07 -16.89 213.25 -16.72Q212.44 -16.55 211.61 -16.55Q209.51 -16.55 208.29 -17.77Q207.07 -18.98 207.07 -21.06Q207.07 -23.21 208.23 -24.47Q209.39 -25.73 211.36 -25.73Q213.12 -25.73 214.15 -24.60Q215.18 -23.46 215.18 -21.51ZM213.74 -21.93Q213.72 -23.11 213.08 -23.81Q212.43 -24.52 211.37 -24.52Q210.17 -24.52 209.45 -23.84Q208.72 -23.16 208.61 -21.92ZM228.47 -26.80V-22.45H232.82V-21.12H228.47V-16.77H227.16V-21.12H222.81V-22.45H227.16V-26.80ZM246.69 -25.27V-23.91Q246.08 -24.22 245.43 -24.38Q244.77 -24.53 244.07 -24.53Q243.00 -24.53 242.46 -24.20Q241.93 -23.88 241.93 -23.22Q241.93 -22.72 242.31 -22.43Q242.69 -22.15 243.85 -21.89L244.34 -21.78Q245.87 -21.45 246.52 -20.86Q247.16 -20.26 247.16 -19.19Q247.16 -17.97 246.20 -17.26Q245.23 -16.55 243.54 -16.55Q242.84 -16.55 242.08 -16.68Q241.32 -16.82 240.47 -17.09V-18.58Q241.27 -18.16 242.04 -17.96Q242.82 -17.75 243.57 -17.75Q244.59 -17.75 245.14 -18.10Q245.68 -18.45 245.68 -19.08Q245.68 -19.66 245.29 -19.98Q244.89 -20.29 243.56 -20.58L243.06 -20.70Q241.72 -20.98 241.13 -21.56Q240.54 -22.14 240.54 -23.16Q240.54 -24.39 241.41 -25.06Q242.29 -25.73 243.89 -25.73Q244.69 -25.73 245.39 -25.62Q246.10 -25.50 246.69 -25.27ZM250.87 -28.01V-25.52H253.83V-24.41H250.87V-19.66Q250.87 -18.59 251.16 -18.28Q251.46 -17.98 252.36 -17.98H253.83V-16.77H252.36Q250.69 -16.77 250.06 -17.39Q249.43 -18.02 249.43 -19.66V-24.41H248.37V-25.52H249.43V-28.01ZM259.36 -15.96Q258.75 -14.40 258.18 -13.92Q257.60 -13.45 256.63 -13.45H255.48V-14.65H256.32Q256.92 -14.65 257.25 -14.93Q257.57 -15.21 257.97 -16.26L258.23 -16.91L254.69 -25.52H256.21L258.95 -18.68L261.68 -25.52H263.21ZM265.19 -28.93H266.63V-16.77H265.19ZM277.12 -21.51V-20.80H270.51Q270.61 -19.32 271.41 -18.54Q272.21 -17.77 273.64 -17.77Q274.46 -17.77 275.24 -17.97Q276.02 -18.17 276.79 -18.58V-17.22Q276.01 -16.89 275.20 -16.72Q274.39 -16.55 273.55 -16.55Q271.46 -16.55 270.23 -17.77Q269.01 -18.98 269.01 -21.06Q269.01 -23.21 270.17 -24.47Q271.33 -25.73 273.30 -25.73Q275.07 -25.73 276.09 -24.60Q277.12 -23.46 277.12 -21.51ZM275.68 -21.93Q275.67 -23.11 275.02 -23.81Q274.38 -24.52 273.32 -24.52Q272.11 -24.52 271.39 -23.84Q270.67 -23.16 270.56 -21.92Z" fill="#000"/><g transform="translate(413.00,31.00)"><circle cx="23.50" cy="17.50" r="4.62" fill="#1f77b4" opacity="0.85"/><path d="M46.46 17.93Q45.04 17.93 44.49 18.25Q43.95 18.57 43.95 19.35Q43.95 19.98 44.36 20.34Q44.77 20.71 45.47 20.71Q46.44 20.71 47.03 20.02Q47.62 19.33 47.62 18.19V17.93ZM48.79 17.44V21.50H47.62V20.42Q47.22 21.07 46.62 21.38Q46.02 21.68 45.16 21.68Q44.07 21.68 43.43 21.07Q42.78 20.46 42.78 19.43Q42.78 18.23 43.58 17.62Q44.39 17.01 45.98 17.01H47.62V16.90Q47.62 16.09 47.09 15.65Q46.56 15.21 45.60 15.21Q44.99 15.21 44.41 15.36Q43.83 15.50 43.30 15.79V14.71Q43.94 14.47 44.55 14.34Q45.15 14.22 45.72 14.22Q47.26 14.22 48.02 15.02Q48.79 15.82 48.79 17.44ZM51.19 11.62H52.36V21.50H51.19ZM55.93 20.43V24.20H54.76V14.39H55.93V15.47Q56.30 14.83 56.86 14.53Q57.42 14.22 58.21 14.22Q59.50 14.22 60.31 15.25Q61.12 16.28 61.12 17.95Q61.12 19.63 60.31 20.66Q59.50 21.68 58.21 21.68Q57.42 21.68 56.86 21.38Q56.30 21.07 55.93 20.43ZM59.91 17.95Q59.91 16.66 59.38 15.93Q58.85 15.20 57.92 15.20Q56.99 15.20 56.46 15.93Q55.93 16.66 55.93 17.95Q55.93 19.24 56.46 19.97Q56.99 20.71 57.92 20.71Q58.85 20.71 59.38 19.97Q59.91 19.24 59.91 17.95ZM68.96 17.21V21.50H67.80V17.25Q67.80 16.24 67.40 15.74Q67.01 15.23 66.22 15.23Q65.28 15.23 64.73 15.84Q64.19 16.44 64.19 17.48V21.50H63.01V11.62H64.19V15.50Q64.60 14.85 65.17 14.54Q65.74 14.22 66.48 14.22Q67.71 14.22 68.34 14.98Q68.96 15.74 68.96 17.21ZM74.53 17.93Q73.11 17.93 72.56 18.25Q72.02 18.57 72.02 19.35Q72.02 19.98 72.43 20.34Q72.84 20.71 73.54 20.71Q74.51 20.71 75.10 20.02Q75.69 19.33 75.69 18.19V17.93ZM76.85 17.44V21.50H75.69V20.42Q75.29 21.07 74.69 21.38Q74.09 21.68 73.23 21.68Q72.14 21.68 71.49 21.07Q70.85 20.46 70.85 19.43Q70.85 18.23 71.65 17.62Q72.46 17.01 74.05 17.01H75.69V16.90Q75.69 16.09 75.16 15.65Q74.63 15.21 73.67 15.21Q73.06 15.21 72.48 15.36Q71.90 15.50 71.37 15.79V14.71Q72.01 14.47 72.61 14.34Q73.22 14.22 73.79 14.22Q75.33 14.22 76.09 15.02Q76.85 15.82 76.85 17.44Z" fill="#000"/><rect x="18.02" y="31.02" width="10.97" height="10.97" fill="#ff7f0e" opacity="0.85"/><path d="M48.33 36.95Q48.33 35.66 47.80 34.93Q47.27 34.20 46.34 34.20Q45.42 34.20 44.89 34.93Q44.35 35.66 44.35 36.95Q44.35 38.24 44.89 38.97Q45.42 39.71 46.34 39.71Q47.27 39.71 47.80 38.97Q48.33 38.24 48.33 36.95ZM44.35 34.47Q44.72 33.83 45.28 33.53Q45.85 33.22 46.63 33.22Q47.92 33.22 48.73 34.25Q49.54 35.28 49.54 36.95Q49.54 38.63 48.73 39.66Q47.92 40.68 46.63 40.68Q45.85 40.68 45.28 40.38Q44.72 40.07 44.35 39.43V40.50H43.18V30.62H44.35ZM57.56 36.65V37.22H52.19Q52.26 38.43 52.91 39.06Q53.57 39.69 54.73 39.69Q55.40 39.69 56.03 39.53Q56.66 39.36 57.29 39.03V40.14Q56.66 40.40 56.00 40.54Q55.34 40.68 54.66 40.68Q52.96 40.68 51.96 39.69Q50.97 38.70 50.97 37.02Q50.97 35.27 51.91 34.24Q52.85 33.22 54.45 33.22Q55.89 33.22 56.72 34.14Q57.56 35.07 57.56 36.65ZM56.39 36.31Q56.38 35.35 55.85 34.78Q55.33 34.21 54.47 34.21Q53.49 34.21 52.90 34.76Q52.31 35.31 52.23 36.32ZM60.63 31.37V33.39H63.04V34.30H60.63V38.16Q60.63 39.03 60.87 39.27Q61.11 39.52 61.84 39.52H63.04V40.50H61.84Q60.48 40.50 59.97 40.00Q59.46 39.49 59.46 38.16V34.30H58.60V33.39H59.46V31.37ZM67.80 36.93Q66.39 36.93 65.84 37.25Q65.30 37.57 65.30 38.35Q65.30 38.98 65.71 39.34Q66.11 39.71 66.82 39.71Q67.79 39.71 68.38 39.02Q68.96 38.33 68.96 37.19V36.93ZM70.13 36.44V40.50H68.96V39.42Q68.56 40.07 67.97 40.38Q67.37 40.68 66.51 40.68Q65.42 40.68 64.77 40.07Q64.13 39.46 64.13 38.43Q64.13 37.23 64.93 36.62Q65.73 36.01 67.33 36.01H68.96V35.90Q68.96 35.09 68.43 34.65Q67.90 34.21 66.95 34.21Q66.34 34.21 65.76 34.36Q65.18 34.50 64.65 34.79V33.71Q65.29 33.47 65.89 33.34Q66.50 33.22 67.07 33.22Q68.61 33.22 69.37 34.02Q70.13 34.82 70.13 36.44Z" fill="#000"/><path d="M23.50,51.36L27.64,59.64L19.36,59.64Z" fill="#2ca02c" opacity="0.85"/><path d="M47.90 55.86Q47.90 54.59 47.38 53.90Q46.86 53.20 45.91 53.20Q44.97 53.20 44.45 53.90Q43.92 54.59 43.92 55.86Q43.92 57.13 44.45 57.82Q44.97 58.52 45.91 58.52Q46.86 58.52 47.38 57.82Q47.90 57.13 47.90 55.86ZM49.07 58.62Q49.07 60.43 48.27 61.32Q47.46 62.20 45.80 62.20Q45.18 62.20 44.63 62.11Q44.09 62.02 43.57 61.83V60.69Q44.09 60.97 44.59 61.11Q45.09 61.24 45.61 61.24Q46.76 61.24 47.33 60.64Q47.90 60.04 47.90 58.83V58.25Q47.54 58.88 46.98 59.19Q46.41 59.50 45.62 59.50Q44.32 59.50 43.52 58.50Q42.72 57.51 42.72 55.86Q42.72 54.21 43.52 53.22Q44.32 52.22 45.62 52.22Q46.41 52.22 46.98 52.53Q47.54 52.84 47.90 53.47V52.39H49.07ZM54.71 55.93Q53.29 55.93 52.75 56.25Q52.20 56.57 52.20 57.35Q52.20 57.98 52.61 58.34Q53.02 58.71 53.72 58.71Q54.70 58.71 55.28 58.02Q55.87 57.33 55.87 56.19V55.93ZM57.04 55.44V59.50H55.87V58.42Q55.47 59.07 54.87 59.38Q54.28 59.68 53.41 59.68Q52.32 59.68 51.68 59.07Q51.03 58.46 51.03 57.43Q51.03 56.23 51.84 55.62Q52.64 55.01 54.23 55.01H55.87V54.90Q55.87 54.09 55.34 53.65Q54.81 53.21 53.85 53.21Q53.24 53.21 52.66 53.36Q52.09 53.50 51.55 53.79V52.71Q52.19 52.47 52.80 52.34Q53.40 52.22 53.97 52.22Q55.51 52.22 56.28 53.02Q57.04 53.82 57.04 55.44ZM64.98 53.76Q65.42 52.97 66.03 52.59Q66.64 52.22 67.46 52.22Q68.57 52.22 69.17 53.00Q69.78 53.77 69.78 55.21V59.50H68.60V55.25Q68.60 54.23 68.24 53.73Q67.88 53.23 67.14 53.23Q66.23 53.23 65.70 53.84Q65.18 54.44 65.18 55.48V59.50H64.00V55.25Q64.00 54.22 63.64 53.73Q63.28 53.23 62.52 53.23Q61.63 53.23 61.10 53.84Q60.57 54.45 60.57 55.48V59.50H59.40V52.39H60.57V53.50Q60.97 52.84 61.53 52.53Q62.09 52.22 62.86 52.22Q63.63 52.22 64.18 52.61Q64.72 53.01 64.98 53.76ZM77.64 53.76Q78.08 52.97 78.69 52.59Q79.30 52.22 80.12 52.22Q81.23 52.22 81.84 53.00Q82.44 53.77 82.44 55.21V59.50H81.27V55.25Q81.27 54.23 80.90 53.73Q80.54 53.23 79.80 53.23Q78.89 53.23 78.37 53.84Q77.84 54.44 77.84 55.48V59.50H76.66V55.25Q76.66 54.22 76.30 53.73Q75.94 53.23 75.19 53.23Q74.29 53.23 73.76 53.84Q73.24 54.45 73.24 55.48V59.50H72.06V52.39H73.24V53.50Q73.64 52.84 74.20 52.53Q74.75 52.22 75.52 52.22Q76.30 52.22 76.84 52.61Q77.38 53.01 77.64 53.76ZM88.00 55.93Q86.59 55.93 86.04 56.25Q85.49 56.57 85.49 57.35Q85.49 57.98 85.90 58.34Q86.31 58.71 87.02 58.71Q87.99 58.71 88.58 58.02Q89.16 57.33 89.16 56.19V55.93ZM90.33 55.44V59.50H89.16V58.42Q88.76 59.07 88.17 59.38Q87.57 59.68 86.71 59.68Q85.61 59.68 84.97 59.07Q84.33 58.46 84.33 57.43Q84.33 56.23 85.13 55.62Q85.93 55.01 87.53 55.01H89.16V54.90Q89.16 54.09 88.63 53.65Q88.10 53.21 87.14 53.21Q86.54 53.21 85.96 53.36Q85.38 53.50 84.85 53.79V52.71Q85.49 52.47 86.09 52.34Q86.69 52.22 87.27 52.22Q88.81 52.22 89.57 53.02Q90.33 53.82 90.33 55.44Z" fill="#000"/><path d="M18.28 83.81Q18.75 82.97 19.41 82.56Q20.06 82.16 20.95 82.16Q22.15 82.16 22.80 83.00Q23.45 83.83 23.45 85.38V90.00H22.18V85.42Q22.18 84.32 21.79 83.79Q21.40 83.25 20.60 83.25Q19.63 83.25 19.06 83.90Q18.49 84.55 18.49 85.67V90.00H17.23V85.42Q17.23 84.31 16.84 83.78Q16.45 83.25 15.63 83.25Q14.67 83.25 14.10 83.91Q13.54 84.56 13.54 85.67V90.00H12.27V82.34H13.54V83.53Q13.97 82.83 14.57 82.49Q15.17 82.16 16.00 82.16Q16.83 82.16 17.42 82.58Q18.00 83.01 18.28 83.81ZM29.44 86.15Q27.91 86.15 27.32 86.50Q26.74 86.85 26.74 87.69Q26.74 88.36 27.18 88.75Q27.62 89.15 28.38 89.15Q29.42 89.15 30.06 88.40Q30.69 87.66 30.69 86.43V86.15ZM31.95 85.63V90.00H30.69V88.84Q30.26 89.54 29.61 89.87Q28.97 90.20 28.04 90.20Q26.87 90.20 26.17 89.54Q25.48 88.88 25.48 87.77Q25.48 86.48 26.34 85.82Q27.21 85.17 28.92 85.17H30.69V85.04Q30.69 84.18 30.12 83.70Q29.55 83.23 28.51 83.23Q27.86 83.23 27.24 83.38Q26.61 83.54 26.04 83.85V82.69Q26.73 82.43 27.38 82.29Q28.03 82.16 28.64 82.16Q30.30 82.16 31.12 83.02Q31.95 83.88 31.95 85.63ZM39.42 82.57V83.76Q38.88 83.49 38.31 83.35Q37.74 83.21 37.12 83.21Q36.18 83.21 35.72 83.50Q35.25 83.79 35.25 84.36Q35.25 84.80 35.58 85.05Q35.92 85.30 36.93 85.52L37.36 85.62Q38.70 85.91 39.26 86.43Q39.83 86.95 39.83 87.89Q39.83 88.95 38.98 89.58Q38.14 90.20 36.66 90.20Q36.05 90.20 35.38 90.08Q34.71 89.96 33.98 89.72V88.42Q34.67 88.78 35.35 88.96Q36.03 89.15 36.69 89.15Q37.58 89.15 38.06 88.84Q38.54 88.54 38.54 87.98Q38.54 87.47 38.19 87.20Q37.84 86.92 36.68 86.67L36.24 86.57Q35.07 86.32 34.55 85.81Q34.03 85.30 34.03 84.42Q34.03 83.33 34.80 82.75Q35.56 82.16 36.97 82.16Q37.67 82.16 38.28 82.26Q38.90 82.36 39.42 82.57ZM46.71 82.57V83.76Q46.18 83.49 45.60 83.35Q45.03 83.21 44.41 83.21Q43.48 83.21 43.01 83.50Q42.54 83.79 42.54 84.36Q42.54 84.80 42.88 85.05Q43.21 85.30 44.22 85.52L44.65 85.62Q45.99 85.91 46.56 86.43Q47.12 86.95 47.12 87.89Q47.12 88.95 46.28 89.58Q45.43 90.20 43.96 90.20Q43.34 90.20 42.67 90.08Q42.01 89.96 41.27 89.72V88.42Q41.97 88.78 42.64 88.96Q43.32 89.15 43.98 89.15Q44.87 89.15 45.35 88.84Q45.83 88.54 45.83 87.98Q45.83 87.47 45.48 87.20Q45.14 86.92 43.97 86.67L43.53 86.57Q42.36 86.32 41.84 85.81Q41.32 85.30 41.32 84.42Q41.32 83.33 42.09 82.75Q42.86 82.16 44.26 82.16Q44.96 82.16 45.58 82.26Q46.19 82.36 46.71 82.57Z" fill="#000"/><circle cx="23.50" cy="103.50" r="2.46" fill="#1f77b4" opacity="0.85"/><path d="M43.61 106.42H45.71V99.19L43.43 99.65V98.48L45.69 98.02H46.98V106.42H49.07V107.50H43.61ZM54.40 98.87Q53.41 98.87 52.91 99.84Q52.42 100.82 52.42 102.77Q52.42 104.72 52.91 105.69Q53.41 106.67 54.40 106.67Q55.40 106.67 55.90 105.69Q56.40 104.72 56.40 102.77Q56.40 100.82 55.90 99.84Q55.40 98.87 54.40 98.87ZM54.40 97.85Q56.00 97.85 56.84 99.11Q57.68 100.37 57.68 102.77Q57.68 105.16 56.84 106.42Q56.00 107.68 54.40 107.68Q52.81 107.68 51.97 106.42Q51.13 105.16 51.13 102.77Q51.13 100.37 51.97 99.11Q52.81 97.85 54.40 97.85Z" fill="#000"/><circle cx="23.50" cy="122.50" r="3.66" fill="#1f77b4" opacity="0.85"/><path d="M44.49 125.42H48.97V126.50H42.95V125.42Q43.68 124.67 44.94 123.39Q46.20 122.12 46.53 121.75Q47.14 121.06 47.39 120.58Q47.63 120.10 47.63 119.64Q47.63 118.88 47.10 118.41Q46.57 117.93 45.72 117.93Q45.12 117.93 44.45 118.14Q43.78 118.35 43.02 118.77V117.48Q43.79 117.17 44.46 117.01Q45.14 116.85 45.69 116.85Q47.17 116.85 48.04 117.59Q48.92 118.32 48.92 119.56Q48.92 120.14 48.70 120.66Q48.48 121.19 47.90 121.90Q47.74 122.08 46.89 122.96Q46.04 123.84 44.49 125.42ZM54.40 117.87Q53.41 117.87 52.91 118.84Q52.42 119.82 52.42 121.77Q52.42 123.72 52.91 124.69Q53.41 125.67 54.40 125.67Q55.40 125.67 55.90 124.69Q56.40 123.72 56.40 121.77Q56.40 119.82 55.90 118.84Q55.40 117.87 54.40 117.87ZM54.40 116.85Q56.00 116.85 56.84 118.11Q57.68 119.37 57.68 121.77Q57.68 124.16 56.84 125.42Q56.00 126.68 54.40 126.68Q52.81 126.68 51.97 125.42Q51.13 124.16 51.13 121.77Q51.13 119.37 51.97 118.11Q52.81 116.85 54.40 116.85Z" fill="#000"/><circle cx="23.50" cy="141.50" r="4.85" fill="#1f77b4" opacity="0.85"/><path d="M47.27 140.39Q48.20 140.59 48.71 141.21Q49.23 141.83 49.23 142.75Q49.23 144.15 48.27 144.92Q47.30 145.68 45.52 145.68Q44.93 145.68 44.29 145.57Q43.66 145.45 42.99 145.21V143.98Q43.52 144.29 44.16 144.45Q44.79 144.60 45.48 144.60Q46.69 144.60 47.32 144.13Q47.95 143.65 47.95 142.75Q47.95 141.91 47.37 141.43Q46.78 140.96 45.73 140.96H44.63V139.91H45.78Q46.73 139.91 47.23 139.53Q47.73 139.15 47.73 138.44Q47.73 137.71 47.21 137.32Q46.70 136.93 45.73 136.93Q45.21 136.93 44.60 137.04Q44.00 137.16 43.28 137.40V136.26Q44.01 136.05 44.64 135.95Q45.28 135.85 45.85 135.85Q47.31 135.85 48.16 136.51Q49.01 137.18 49.01 138.31Q49.01 139.10 48.56 139.64Q48.11 140.18 47.27 140.39ZM54.40 136.87Q53.41 136.87 52.91 137.84Q52.42 138.82 52.42 140.77Q52.42 142.72 52.91 143.69Q53.41 144.67 54.40 144.67Q55.40 144.67 55.90 143.69Q56.40 142.72 56.40 140.77Q56.40 138.82 55.90 137.84Q55.40 136.87 54.40 136.87ZM54.40 135.85Q56.00 135.85 56.84 137.11Q57.68 138.37 57.68 140.77Q57.68 143.16 56.84 144.42Q56.00 145.68 54.40 145.68Q52.81 145.68 51.97 144.42Q51.13 143.16 51.13 140.77Q51.13 138.37 51.97 137.11Q52.81 135.85 54.40 135.85Z" fill="#000"/><circle cx="23.50" cy="160.50" r="6.05" fill="#1f77b4" opacity="0.85"/><path d="M46.91 156.14 43.68 161.20H46.91ZM46.58 155.02H48.19V161.20H49.54V162.27H48.19V164.50H46.91V162.27H42.63V161.03ZM54.40 155.87Q53.41 155.87 52.91 156.84Q52.42 157.82 52.42 159.77Q52.42 161.72 52.91 162.69Q53.41 163.67 54.40 163.67Q55.40 163.67 55.90 162.69Q56.40 161.72 56.40 159.77Q56.40 157.82 55.90 156.84Q55.40 155.87 54.40 155.87ZM54.40 154.85Q56.00 154.85 56.84 156.11Q57.68 157.37 57.68 159.77Q57.68 162.16 56.84 163.42Q56.00 164.68 54.40 164.68Q52.81 164.68 51.97 163.42Q51.13 162.16 51.13 159.77Q51.13 157.37 51.97 156.11Q52.81 154.85 54.40 154.85Z" fill="#000"/></g></g></svg>