<svg xmlns="http://www.w3.org/2000/svg" width="487" height="283" viewBox="0 0 487 283" font-family="DejaVu Sans, Bitstream Vera Sans, Verdana, Arial, sans-serif" font-size="11" style="background:#fff" data-plotlet-version="0.5.0" data-plotlet-schema="2" data-plotlet-kind="figure"><g transform="translate(63,33)" data-plotlet-kind="panel" data-plotlet-title="text bbox" data-plotlet-xlabel="t" data-plotlet-ylabel="y" data-plotlet-xscale="linear" data-plotlet-yscale="linear" data-plotlet-xlim="-0.595,12.495" data-plotlet-ylim="-0.93876158752,1.03873268536" data-plotlet-panel-bbox="0,0,487,283" data-plotlet-data-area="63,33,420,200"><svg x="0" y="0" width="420" height="200" overflow="hidden"><g class="plotlet-artist" data-plotlet-type="line" data-plotlet-index="0" data-plotlet-color="#1f77b4" data-plotlet-n="120" data-plotlet-x-min="0.0" data-plotlet-x-max="11.9" data-plotlet-y-min="-0.848875484207417" data-plotlet-y-max="0.9488465820497222"><path d="M19.09,105.06L22.30,75.46L25.51,49.08L28.72,28.17L31.93,14.49L35.13,9.09L38.34,12.30L41.55,23.65L44.76,41.99L47.97,65.55L51.18,92.14L54.39,119.35L57.59,144.75L60.80,166.14L64.01,181.69L67.22,190.15L70.43,190.91L73.64,184.05L76.84,170.34L80.05,151.11L83.26,128.19L86.47,103.68L89.68,79.77L92.89,58.57L96.10,41.91L99.30,31.17L102.51,27.19L105.72,30.17L108.93,39.73L112.14,54.88L115.35,74.18L118.56,95.82L121.76,117.86L124.97,138.32L128.18,155.44L131.39,167.75L134.60,174.27L137.81,174.53L141.02,168.64L144.22,157.23L147.43,141.43L150.64,122.72L153.85,102.82L157.06,83.51L160.27,66.49L163.48,53.22L166.68,44.80L169.89,41.89L173.10,44.62L176.31,52.65L179.52,65.16L182.73,80.96L185.94,98.58L189.14,116.42L192.35,132.90L195.56,146.59L198.77,156.33L201.98,161.34L205.19,161.27L208.40,156.22L211.60,146.74L214.81,133.76L218.02,118.49L221.23,102.34L224.44,86.75L227.65,73.08L230.86,62.52L234.06,55.94L237.27,53.83L240.48,56.30L243.69,63.04L246.90,73.36L250.11,86.29L253.32,100.62L256.52,115.06L259.73,128.33L262.94,139.28L266.15,146.98L269.36,150.81L272.57,150.52L275.78,146.21L278.98,138.34L282.19,127.68L285.40,115.23L288.61,102.12L291.82,89.53L295.03,78.57L298.24,70.17L301.44,65.02L304.65,63.52L307.86,65.73L311.07,71.37L314.28,79.89L317.49,90.46L320.70,102.12L323.90,113.81L327.11,124.49L330.32,133.24L333.53,139.31L336.74,142.24L339.95,141.82L343.16,138.15L346.36,131.62L349.57,122.87L352.78,112.71L355.99,102.08L359.20,91.93L362.41,83.13L365.61,76.45L368.82,72.44L372.03,71.39L375.24,73.35L378.45,78.07L381.66,85.09L384.87,93.74L388.07,103.21L391.28,112.67L394.49,121.26L397.70,128.25L400.91,133.04" fill="none" stroke="#1f77b4" stroke-width="2.0"/></g></svg><g class="plotlet-artist" data-plotlet-type="text" data-plotlet-index="1" data-plotlet-color="#222222" data-plotlet-n="1" data-plotlet-x-min="2.0" data-plotlet-x-max="2.0" data-plotlet-y-min="0.5" data-plotlet-y-max="0.5"><path d="M85.4358602105615 53.502021522119634V56.982490272119634H84.3518758355615V47.923896522119634H85.4358602105615V48.919990272119634Q85.7757039605615 48.334052772119634 86.2942586480615 48.049873084619634Q86.8128133355615 47.765693397119634 87.5335164605615 47.765693397119634Q88.7288289605615 47.765693397119634 89.4758992730615 48.714912147119634Q90.2229695855615 49.664130897119634 90.2229695855615 51.211005897119634Q90.2229695855615 52.757880897119634 89.4758992730615 53.707099647119634Q88.7288289605615 54.656318397119634 87.5335164605615 54.656318397119634Q86.8128133355615 54.656318397119634 86.2942586480615 54.372138709619634Q85.7757039605615 54.087959022119634 85.4358602105615 53.502021522119634ZM89.1038289605615 51.211005897119634Q89.1038289605615 50.021552772119634 88.6145711480615 49.344794959619634Q88.1253133355615 48.668037147119634 87.2698445855615 48.668037147119634Q86.4143758355615 48.668037147119634 85.9251180230615 49.344794959619634Q85.4358602105615 50.021552772119634 85.4358602105615 51.211005897119634Q85.4358602105615 52.400459022119634 85.9251180230615 53.077216834619634Q86.4143758355615 53.753974647119634 87.2698445855615 53.753974647119634Q88.1253133355615 53.753974647119634 88.6145711480615 53.077216834619634Q89.1038289605615 52.400459022119634 89.1038289605615 51.211005897119634ZM92.0100789605615 45.369209022119634H93.0882039605615V54.486396522119634H92.0100789605615ZM98.3264852105615 51.187568397119634Q97.0198445855615 51.187568397119634 96.5159383355615 51.486396522119634Q96.0120320855615 51.785224647119634 96.0120320855615 52.505927772119634Q96.0120320855615 53.080146522119634 96.3899617730615 53.417060584619634Q96.7678914605615 53.753974647119634 97.4182820855615 53.753974647119634Q98.3147664605615 53.753974647119634 98.8567586480615 53.118232459619634Q99.3987508355615 52.482490272119634 99.3987508355615 51.427802772119634V51.187568397119634ZM100.4768758355615 50.742255897119634V54.486396522119634H99.3987508355615V53.490302772119634Q99.0296102105615 54.087959022119634 98.4788289605615 54.372138709619634Q97.9280477105615 54.656318397119634 97.1311727105615 54.656318397119634Q96.1233602105615 54.656318397119634 95.5286336480615 54.090888709619634Q94.9339070855615 53.525459022119634 94.9339070855615 52.576240272119634Q94.9339070855615 51.468818397119634 95.6751180230615 50.906318397119634Q96.4163289605615 50.343818397119634 97.8870320855615 50.343818397119634H99.3987508355615V50.238349647119634Q99.3987508355615 49.494209022119634 98.9094930230615 49.086982459619634Q98.4202352105615 48.679755897119634 97.5354695855615 48.679755897119634Q96.9729695855615 48.679755897119634 96.4397664605615 48.814521522119634Q95.9065633355615 48.949287147119634 95.4143758355615 49.218818397119634V48.222724647119634Q96.0061727105615 47.994209022119634 96.5628133355615 47.879951209619634Q97.1194539605615 47.765693397119634 97.6467977105615 47.765693397119634Q99.0706258355615 47.765693397119634 99.7737508355615 48.503974647119634Q100.4768758355615 49.242255897119634 100.4768758355615 50.742255897119634ZM102.6975789605615 47.923896522119634H103.7757039605615V54.486396522119634H102.6975789605615ZM102.6975789605615 45.369209022119634H103.7757039605615V46.734443397119634H102.6975789605615ZM111.4866414605615 50.525459022119634V54.486396522119634H110.4085164605615V50.560615272119634Q110.4085164605615 49.628974647119634 110.0452352105615 49.166084022119634Q109.6819539605615 48.703193397119634 108.9553914605615 48.703193397119634Q108.0823445855615 48.703193397119634 107.5784383355615 49.259834022119634Q107.0745320855615 49.816474647119634 107.0745320855615 50.777412147119634V54.486396522119634H105.9905477105615V47.923896522119634H107.0745320855615V48.943427772119634Q107.4612508355615 48.351630897119634 107.9856648980615 48.058662147119634Q108.5100789605615 47.765693397119634 109.1956258355615 47.765693397119634Q110.3264852105615 47.765693397119634 110.9065633355615 48.465888709619634Q111.4866414605615 49.166084022119634 111.4866414605615 50.525459022119634Z" fill="#222222"/></g><g class="plotlet-artist" data-plotlet-type="text" data-plotlet-index="2" data-plotlet-color="#222222" data-plotlet-n="1" data-plotlet-x-min="4.0" data-plotlet-x-max="4.0" data-plotlet-y-min="0.5" data-plotlet-y-max="0.5"><rect x="143.43" y="41.13" width="59.60" height="20.00" fill="#ffffff" opacity="0.85"/><path d="M151.10698320521388 48.679755897119634Q150.23979570521388 48.679755897119634 149.73588945521388 49.356513709619634Q149.23198320521388 50.033271522119634 149.23198320521388 51.211005897119634Q149.23198320521388 52.388740272119634 149.73295976771388 53.065498084619634Q150.23393633021388 53.742255897119634 151.10698320521388 53.742255897119634Q151.96831133021388 53.742255897119634 152.47221758021388 53.062568397119634Q152.97612383021388 52.382880897119634 152.97612383021388 51.211005897119634Q152.97612383021388 50.044990272119634 152.47221758021388 49.362373084619634Q151.96831133021388 48.679755897119634 151.10698320521388 48.679755897119634ZM151.10698320521388 47.765693397119634Q152.51323320521388 47.765693397119634 153.31596758021388 48.679755897119634Q154.11870195521388 49.593818397119634 154.11870195521388 51.211005897119634Q154.11870195521388 52.822334022119634 153.31596758021388 53.739326209619634Q152.51323320521388 54.656318397119634 151.10698320521388 54.656318397119634Q149.69487383021388 54.656318397119634 148.89506914271388 53.739326209619634Q148.09526445521388 52.822334022119634 148.09526445521388 51.211005897119634Q148.09526445521388 49.593818397119634 148.89506914271388 48.679755897119634Q149.69487383021388 47.765693397119634 151.10698320521388 47.765693397119634ZM161.36088945521388 50.525459022119634V54.486396522119634H160.28276445521388V50.560615272119634Q160.28276445521388 49.628974647119634 159.91948320521388 49.166084022119634Q159.55620195521388 48.703193397119634 158.82963945521388 48.703193397119634Q157.95659258021388 48.703193397119634 157.45268633021388 49.259834022119634Q156.94878008021388 49.816474647119634 156.94878008021388 50.777412147119634V54.486396522119634H155.86479570521388V47.923896522119634H156.94878008021388V48.943427772119634Q157.33549883021388 48.351630897119634 157.85991289271388 48.058662147119634Q158.38432695521388 47.765693397119634 159.06987383021388 47.765693397119634Q160.20073320521388 47.765693397119634 160.78081133021388 48.465888709619634Q161.36088945521388 49.166084022119634 161.36088945521388 50.525459022119634ZM166.69878008021388 47.923896522119634H167.77690508021388L169.12456133021388 53.044990272119634L170.46635820521388 47.923896522119634H171.73784258021388L173.08549883021388 53.044990272119634L174.42729570521388 47.923896522119634H175.50542070521388L173.78862383021388 54.486396522119634H172.51713945521388L171.10503008021388 49.107490272119634L169.68706133021388 54.486396522119634H168.41557695521388ZM182.59526445521388 50.525459022119634V54.486396522119634H181.51713945521388V50.560615272119634Q181.51713945521388 49.628974647119634 181.15385820521388 49.166084022119634Q180.79057695521388 48.703193397119634 180.06401445521388 48.703193397119634Q179.19096758021388 48.703193397119634 178.68706133021388 49.259834022119634Q178.18315508021388 49.816474647119634 178.18315508021388 50.777412147119634V54.486396522119634H177.09917070521388V45.369209022119634H178.18315508021388V48.943427772119634Q178.56987383021388 48.351630897119634 179.09428789271388 48.058662147119634Q179.61870195521388 47.765693397119634 180.30424883021388 47.765693397119634Q181.43510820521388 47.765693397119634 182.01518633021388 48.465888709619634Q182.59526445521388 49.166084022119634 182.59526445521388 50.525459022119634ZM184.74565508021388 47.923896522119634H185.82378008021388V54.486396522119634H184.74565508021388ZM184.74565508021388 45.369209022119634H185.82378008021388V46.734443397119634H184.74565508021388ZM189.14604570521388 46.060615272119634V47.923896522119634H191.36674883021388V48.761787147119634H189.14604570521388V52.324287147119634Q189.14604570521388 53.127021522119634 189.36577226771388 53.355537147119634Q189.58549883021388 53.584052772119634 190.25932695521388 53.584052772119634H191.36674883021388V54.486396522119634H190.25932695521388Q189.01128008021388 54.486396522119634 188.53667070521388 54.020576209619634Q188.06206133021388 53.554755897119634 188.06206133021388 52.324287147119634V48.761787147119634H187.27104570521388V47.923896522119634H188.06206133021388V46.060615272119634ZM198.39799883021388 50.935615272119634V51.462959022119634H193.44096758021388Q193.51128008021388 52.576240272119634 194.11186601771388 53.159248084619634Q194.71245195521388 53.742255897119634 195.78471758021388 53.742255897119634Q196.40581133021388 53.742255897119634 196.98881914271388 53.589912147119634Q197.57182695521388 53.437568397119634 198.14604570521388 53.132880897119634V54.152412147119634Q197.56596758021388 54.398505897119634 196.95659258021388 54.527412147119634Q196.34721758021388 54.656318397119634 195.72026445521388 54.656318397119634Q194.14995195521388 54.656318397119634 193.23295976771388 53.742255897119634Q192.31596758021388 52.828193397119634 192.31596758021388 51.269599647119634Q192.31596758021388 49.658271522119634 193.18608476771388 48.711982459619634Q194.05620195521388 47.765693397119634 195.53276445521388 47.765693397119634Q196.85698320521388 47.765693397119634 197.62749101771388 48.618232459619634Q198.39799883021388 49.470771522119634 198.39799883021388 50.935615272119634ZM197.31987383021388 50.619209022119634Q197.30815508021388 49.734443397119634 196.82475664271388 49.207099647119634Q196.34135820521388 48.679755897119634 195.54448320521388 48.679755897119634Q194.64213945521388 48.679755897119634 194.10014726771388 49.189521522119634Q193.55815508021388 49.699287147119634 193.47612383021388 50.625068397119634Z" fill="#222222"/></g><g class="plotlet-artist" data-plotlet-type="text" data-plotlet-index="3" data-plotlet-color="#222222" data-plotlet-n="1" data-plotlet-x-min="6.0" data-plotlet-x-max="6.0" data-plotlet-y-min="0.5" data-plotlet-y-max="0.5"><rect x="207.60" y="41.13" width="43.35" height="20.00" fill="#ffe" stroke="#888" stroke-width="0.8" opacity="0.95"/><path d="M213.8015436998663 46.060615272119634V47.923896522119634H216.0222468248663V48.761787147119634H213.8015436998663V52.324287147119634Q213.8015436998663 53.127021522119634 214.0212702623663 53.355537147119634Q214.2409968248663 53.584052772119634 214.9148249498663 53.584052772119634H216.0222468248663V54.486396522119634H214.9148249498663Q213.6667780748663 54.486396522119634 213.1921686998663 54.020576209619634Q212.7175593248663 53.554755897119634 212.7175593248663 52.324287147119634V48.761787147119634H211.9265436998663V47.923896522119634H212.7175593248663V46.060615272119634ZM217.4402155748663 47.923896522119634H218.5183405748663V54.486396522119634H217.4402155748663ZM217.4402155748663 45.369209022119634H218.5183405748663V46.734443397119634H217.4402155748663ZM226.2292780748663 50.525459022119634V54.486396522119634H225.1511530748663V50.560615272119634Q225.1511530748663 49.628974647119634 224.7878718248663 49.166084022119634Q224.4245905748663 48.703193397119634 223.6980280748663 48.703193397119634Q222.8249811998663 48.703193397119634 222.3210749498663 49.259834022119634Q221.8171686998663 49.816474647119634 221.8171686998663 50.777412147119634V54.486396522119634H220.7331843248663V47.923896522119634H221.8171686998663V48.943427772119634Q222.2038874498663 48.351630897119634 222.7283015123663 48.058662147119634Q223.2527155748663 47.765693397119634 223.9382624498663 47.765693397119634Q225.0691218248663 47.765693397119634 225.6491999498663 48.465888709619634Q226.2292780748663 49.166084022119634 226.2292780748663 50.525459022119634ZM229.4460749498663 46.060615272119634V47.923896522119634H231.6667780748663V48.761787147119634H229.4460749498663V52.324287147119634Q229.4460749498663 53.127021522119634 229.6658015123663 53.355537147119634Q229.8855280748663 53.584052772119634 230.5593561998663 53.584052772119634H231.6667780748663V54.486396522119634H230.5593561998663Q229.3113093248663 54.486396522119634 228.8366999498663 54.020576209619634Q228.3620905748663 53.554755897119634 228.3620905748663 52.324287147119634V48.761787147119634H227.5710749498663V47.923896522119634H228.3620905748663V46.060615272119634ZM238.6980280748663 50.935615272119634V51.462959022119634H233.7409968248663Q233.8113093248663 52.576240272119634 234.4118952623663 53.159248084619634Q235.0124811998663 53.742255897119634 236.0847468248663 53.742255897119634Q236.7058405748663 53.742255897119634 237.2888483873663 53.589912147119634Q237.8718561998663 53.437568397119634 238.4460749498663 53.132880897119634V54.152412147119634Q237.8659968248663 54.398505897119634 237.2566218248663 54.527412147119634Q236.6472468248663 54.656318397119634 236.0202936998663 54.656318397119634Q234.4499811998663 54.656318397119634 233.5329890123663 53.742255897119634Q232.6159968248663 52.828193397119634 232.6159968248663 51.269599647119634Q232.6159968248663 49.658271522119634 233.4861140123663 48.711982459619634Q234.3562311998663 47.765693397119634 235.8327936998663 47.765693397119634Q237.1570124498663 47.765693397119634 237.9275202623663 48.618232459619634Q238.6980280748663 49.470771522119634 238.6980280748663 50.935615272119634ZM237.6199030748663 50.619209022119634Q237.6081843248663 49.734443397119634 237.1247858873663 49.207099647119634Q236.6413874498663 48.679755897119634 235.8445124498663 48.679755897119634Q234.9421686998663 48.679755897119634 234.4001765123663 49.189521522119634Q233.8581843248663 49.699287147119634 233.7761530748663 50.625068397119634ZM244.7859186998663 48.919990272119634V45.369209022119634H245.8640436998663V54.486396522119634H244.7859186998663V53.502021522119634Q244.4460749498663 54.087959022119634 243.9275202623663 54.372138709619634Q243.4089655748663 54.656318397119634 242.6824030748663 54.656318397119634Q241.4929499498663 54.656318397119634 240.7458796373663 53.707099647119634Q239.9988093248663 52.757880897119634 239.9988093248663 51.211005897119634Q239.9988093248663 49.664130897119634 240.7458796373663 48.714912147119634Q241.4929499498663 47.765693397119634 242.6824030748663 47.765693397119634Q243.4089655748663 47.765693397119634 243.9275202623663 48.049873084619634Q244.4460749498663 48.334052772119634 244.7859186998663 48.919990272119634ZM241.1120905748663 51.211005897119634Q241.1120905748663 52.400459022119634 241.6013483873663 53.077216834619634Q242.0906061998663 53.753974647119634 242.9460749498663 53.753974647119634Q243.8015436998663 53.753974647119634 244.2937311998663 53.077216834619634Q244.7859186998663 52.400459022119634 244.7859186998663 51.211005897119634Q244.7859186998663 50.021552772119634 244.2937311998663 49.344794959619634Q243.8015436998663 48.668037147119634 242.9460749498663 48.668037147119634Q242.0906061998663 48.668037147119634 241.6013483873663 49.344794959619634Q241.1120905748663 50.021552772119634 241.1120905748663 51.211005897119634Z" fill="#222222"/></g><g class="plotlet-artist" data-plotlet-type="annotate" data-plotlet-index="4" data-plotlet-color="#222222" data-plotlet-x="0.30000000000000004" data-plotlet-y="0.7601761007563471" data-plotlet-tx="0.6" data-plotlet-ty="0.85" data-plotlet-text="peak"><line x1="38.34" x2="35.48" y1="19.09" y2="21.79" stroke="#222222" stroke-width="1.2"/><path d="M28.72,28.17 L32.61,18.75 L38.35,24.83Z" fill="#222222"/><rect x="35.34" y="5.95" width="37.74" height="19.00" fill="#fff" stroke="#555" stroke-width="0.8" opacity="0.85"/><path d="M40.697226458054814 18.021657665091794V21.792165477591794H39.522910051804814V11.978688915091794H40.697226458054814V13.057790477591794Q41.065390520554814 12.423024852591794 41.627158098679814 12.115163524466794Q42.188925676804814 11.807302196341794 42.969687395554814 11.807302196341794Q44.264609270554814 11.807302196341794 45.073935442429814 12.835622508841794Q45.883261614304814 13.863942821341794 45.883261614304814 15.539724071341794Q45.883261614304814 17.215505321341794 45.073935442429814 18.243825633841794Q44.264609270554814 19.272145946341794 42.969687395554814 19.272145946341794Q42.188925676804814 19.272145946341794 41.627158098679814 18.964284618216794Q41.065390520554814 18.656423290091794 40.697226458054814 18.021657665091794ZM44.670859270554814 15.539724071341794Q44.670859270554814 14.251149852591794 44.140829973679814 13.517995555716794Q43.610800676804814 12.784841258841794 42.684042864304814 12.784841258841794Q41.757285051804814 12.784841258841794 41.227255754929814 13.517995555716794Q40.697226458054814 14.251149852591794 40.697226458054814 15.539724071341794Q40.697226458054814 16.828298290091794 41.227255754929814 17.561452586966794Q41.757285051804814 18.294606883841794 42.684042864304814 18.294606883841794Q43.610800676804814 18.294606883841794 44.140829973679814 17.561452586966794Q44.670859270554814 16.828298290091794 44.670859270554814 15.539724071341794ZM53.900351458054814 15.241384227591794V15.812673290091794H48.530234270554814Q48.606406145554814 17.018727977591794 49.257040911179814 17.650319774466794Q49.907675676804814 18.281911571341794 51.069296770554814 18.281911571341794Q51.742148333054814 18.281911571341794 52.373740129929814 18.116872508841794Q53.005331926804814 17.951833446341794 53.627402239304814 17.621755321341794V18.726247508841794Q52.998984270554814 18.992849071341794 52.338828020554814 19.132497508841794Q51.678671770554814 19.272145946341794 50.999472551804814 19.272145946341794Q49.298300676804814 19.272145946341794 48.304892473679814 18.281911571341794Q47.311484270554814 17.291677196341794 47.311484270554814 15.603200633841794Q47.311484270554814 13.857595165091794 48.254111223679814 12.832448680716794Q49.196738176804814 11.807302196341794 50.796347551804814 11.807302196341794Q52.230917864304814 11.807302196341794 53.065634661179814 12.730886180716794Q53.900351458054814 13.654470165091794 53.900351458054814 15.241384227591794ZM52.732382708054814 14.898610790091794Q52.719687395554814 13.940114696341794 52.196005754929814 13.368825633841794Q51.672324114304814 12.797536571341794 50.809042864304814 12.797536571341794Q49.831503801804814 12.797536571341794 49.244345598679814 13.349782665091794Q48.657187395554814 13.902028758841794 48.568320208054814 14.904958446341794ZM59.048300676804814 15.514333446341794Q57.632773333054814 15.514333446341794 57.086874895554814 15.838063915091794Q56.540976458054814 16.161794383841794 56.540976458054814 16.942556102591794Q56.540976458054814 17.564626415091794 56.950400286179814 17.929616649466794Q57.359824114304814 18.294606883841794 58.064413958054814 18.294606883841794Q59.035605364304814 18.294606883841794 59.622763567429814 17.605886180716794Q60.209921770554814 16.917165477591794 60.209921770554814 15.774587352591794V15.514333446341794ZM61.377890520554814 15.031911571341794V19.088063915091794H60.209921770554814V18.008962352591794Q59.810019426804814 18.656423290091794 59.213339739304814 18.964284618216794Q58.616660051804814 19.272145946341794 57.753378801804814 19.272145946341794Q56.661581926804814 19.272145946341794 56.017294817429814 18.659597118216794Q55.373007708054814 18.047048290091794 55.373007708054814 17.018727977591794Q55.373007708054814 15.819020946341794 56.175986223679814 15.209645946341794Q56.978964739304814 14.600270946341794 58.572226458054814 14.600270946341794H60.209921770554814V14.486013133841794Q60.209921770554814 13.679860790091794 59.679892473679814 13.238698680716794Q59.149863176804814 12.797536571341794 58.191367083054814 12.797536571341794Q57.581992083054814 12.797536571341794 57.004355364304814 12.943532665091794Q56.426718645554814 13.089528758841794 55.893515520554814 13.381520946341794V12.302419383841794Q56.534628801804814 12.054860790091794 57.137656145554814 11.931081493216794Q57.740683489304814 11.807302196341794 58.311972551804814 11.807302196341794Q59.854453020554814 11.807302196341794 60.616171770554814 12.607106883841794Q61.377890520554814 13.406911571341794 61.377890520554814 15.031911571341794ZM63.739218645554814 9.211110790091794H64.91353505180481V15.044606883841794L68.39839833305481 11.978688915091794H69.89009755180481L66.11958973930481 15.304860790091794L70.04878895805481 19.088063915091794H68.52535145805481L64.91353505180481 15.615895946341794V19.088063915091794H63.739218645554814Z" fill="#222222"/></g><line x1="0.00" x2="420.00" y1="0.00" y2="0.00" stroke="#000000" stroke-width="1.0"/><line x1="0.00" x2="420.00" y1="200.00" y2="200.00" stroke="#000000" stroke-width="1.0"/><line x1="0.00" x2="0.00" y1="0.00" y2="200.00" stroke="#000000" stroke-width="1.0"/><line x1="420.00" x2="420.00" y1="0.00" y2="200.00" stroke="#000000" stroke-width="1.0"/><line x1="19.09" x2="19.09" y1="200.00" y2="204.50" stroke="#000000" stroke-width="1.0"/><path d="M19.08773526278409 210.34423828125Q18.09750088778409 210.34423828125 17.59920987215909 211.318603515625Q17.10091885653409 212.29296875 17.10091885653409 214.248046875Q17.10091885653409 216.19677734375 17.59920987215909 217.171142578125Q18.09750088778409 218.1455078125 19.08773526278409 218.1455078125Q20.08431729403409 218.1455078125 20.58260830965909 217.171142578125Q21.08089932528409 216.19677734375 21.08089932528409 214.248046875Q21.08089932528409 212.29296875 20.58260830965909 211.318603515625Q20.08431729403409 210.34423828125 19.08773526278409 210.34423828125ZM19.08773526278409 209.32861328125Q20.68099698153409 209.32861328125 21.52206143465909 210.588623046875Q22.36312588778409 211.8486328125 22.36312588778409 214.248046875Q22.36312588778409 216.64111328125 21.52206143465909 217.901123046875Q20.68099698153409 219.1611328125 19.08773526278409 219.1611328125Q17.49447354403409 219.1611328125 16.65340909090909 217.901123046875Q15.81234463778409 216.64111328125 15.81234463778409 214.248046875Q15.81234463778409 211.8486328125 16.65340909090909 210.588623046875Q17.49447354403409 209.32861328125 19.08773526278409 209.32861328125Z" fill="#000"/><line x1="83.26" x2="83.26" y1="200.00" y2="204.50" stroke="#000000" stroke-width="1.0"/><path d="M81.6211629449365 217.89794921875H86.0962606011865V218.97705078125H80.0786824761865V217.89794921875Q80.8086629449365 217.142578125 82.0686727105615 215.869873046875Q83.3286824761865 214.59716796875 83.6524129449365 214.22900390625Q84.2681356011865 213.537109375 84.5125203668115 213.057861328125Q84.7569051324365 212.57861328125 84.7569051324365 212.115234375Q84.7569051324365 211.35986328125 84.2268758355615 210.8837890625Q83.6968465386865 210.40771484375 82.8462606011865 210.40771484375Q82.2432332574365 210.40771484375 81.5735555230615 210.6171875Q80.9038777886865 210.82666015625 80.1421590386865 211.251953125V209.95703125Q80.9165731011865 209.64599609375 81.5894246636865 209.4873046875Q82.2622762261865 209.32861328125 82.8208699761865 209.32861328125Q84.2935262261865 209.32861328125 85.1695027886865 210.06494140625Q86.0454793511865 210.80126953125 86.0454793511865 212.03271484375Q86.0454793511865 212.61669921875 85.8264852105615 213.140380859375Q85.6074910699365 213.6640625 85.0298543511865 214.375Q84.8711629449365 214.55908203125 84.0205770074365 215.438232421875Q83.1699910699365 216.3173828125 81.6211629449365 217.89794921875Z" fill="#000"/><line x1="147.43" x2="147.43" y1="200.00" y2="204.50" stroke="#000000" stroke-width="1.0"/><path d="M148.21074297083888 210.6171875 144.97343828333888 215.67626953125H148.21074297083888ZM147.87431718958888 209.5H149.48662187708888V215.67626953125H150.83867265833888V216.74267578125H149.48662187708888V218.97705078125H148.21074297083888V216.74267578125H143.93242265833888V215.5048828125Z" fill="#000"/><line x1="211.60" x2="211.60" y1="200.00" y2="204.50" stroke="#000000" stroke-width="1.0"/><path d="M211.7597956529913 213.7275390625Q210.8965144029913 213.7275390625 210.3918757311163 214.31787109375Q209.8872370592413 214.908203125 209.8872370592413 215.9365234375Q209.8872370592413 216.95849609375 210.3918757311163 217.552001953125Q210.8965144029913 218.1455078125 211.7597956529913 218.1455078125Q212.6230769029913 218.1455078125 213.1277155748663 217.552001953125Q213.6323542467413 216.95849609375 213.6323542467413 215.9365234375Q213.6323542467413 214.908203125 213.1277155748663 214.31787109375Q212.6230769029913 213.7275390625 211.7597956529913 213.7275390625ZM214.3052058092413 209.70947265625V210.87744140625Q213.8227839342413 210.64892578125 213.3308405748663 210.5283203125Q212.8388972154913 210.40771484375 212.3564753404913 210.40771484375Q211.0869440904913 210.40771484375 210.4172663561163 211.2646484375Q209.7475886217413 212.12158203125 209.6523737779913 213.8544921875Q210.0268854967413 213.30224609375 210.5918269029913 213.007080078125Q211.1567683092413 212.7119140625 211.8359675279913 212.7119140625Q213.2641901842413 212.7119140625 214.0925593248663 213.578369140625Q214.9209284654913 214.44482421875 214.9209284654913 215.9365234375Q214.9209284654913 217.396484375 214.0576472154913 218.27880859375Q213.1943659654913 219.1611328125 211.7597956529913 219.1611328125Q210.1157526842413 219.1611328125 209.2461237779913 217.901123046875Q208.3764948717413 216.64111328125 208.3764948717413 214.248046875Q208.3764948717413 212.0009765625 209.4429011217413 210.664794921875Q210.5093073717413 209.32861328125 212.3056940904913 209.32861328125Q212.7881159654913 209.32861328125 213.2800593248663 209.423828125Q213.7720026842413 209.51904296875 214.3052058092413 209.70947265625Z" fill="#000"/><line x1="275.78" x2="275.78" y1="200.00" y2="204.50" stroke="#000000" stroke-width="1.0"/><path d="M275.7722272413937 214.4765625Q274.8581647413937 214.4765625 274.3344831007687 214.96533203125Q273.8108014601437 215.4541015625 273.8108014601437 216.31103515625Q273.8108014601437 217.16796875 274.3344831007687 217.65673828125Q274.8581647413937 218.1455078125 275.7722272413937 218.1455078125Q276.6862897413937 218.1455078125 277.2131452101437 217.653564453125Q277.7400006788937 217.16162109375 277.7400006788937 216.31103515625Q277.7400006788937 215.4541015625 277.2163190382687 214.96533203125Q276.6926373976437 214.4765625 275.7722272413937 214.4765625ZM274.4900006788937 213.9306640625Q273.6648053663937 213.7275390625 273.2046002882687 213.16259765625Q272.7443952101437 212.59765625 272.7443952101437 211.78515625Q272.7443952101437 210.64892578125 273.5537213820187 209.98876953125Q274.3630475538937 209.32861328125 275.7722272413937 209.32861328125Q277.1877545851437 209.32861328125 277.9939069288937 209.98876953125Q278.8000592726437 210.64892578125 278.8000592726437 211.78515625Q278.8000592726437 212.59765625 278.3398541945187 213.16259765625Q277.8796491163937 213.7275390625 277.0608014601437 213.9306640625Q277.9875592726437 214.146484375 278.5048932570187 214.77490234375Q279.0222272413937 215.4033203125 279.0222272413937 216.31103515625Q279.0222272413937 217.6884765625 278.1811627882687 218.4248046875Q277.3400983351437 219.1611328125 275.7722272413937 219.1611328125Q274.2043561476437 219.1611328125 273.3632916945187 218.4248046875Q272.5222272413937 217.6884765625 272.5222272413937 216.31103515625Q272.5222272413937 215.4033203125 273.0427350538937 214.77490234375Q273.5632428663937 214.146484375 274.4900006788937 213.9306640625ZM274.0202741163937 211.90576171875Q274.0202741163937 212.64208984375 274.4804791945187 213.0546875Q274.9406842726437 213.46728515625 275.7722272413937 213.46728515625Q276.5974225538937 213.46728515625 277.0639752882687 213.0546875Q277.5305280226437 212.64208984375 277.5305280226437 211.90576171875Q277.5305280226437 211.16943359375 277.0639752882687 210.7568359375Q276.5974225538937 210.34423828125 275.7722272413937 210.34423828125Q274.9406842726437 210.34423828125 274.4804791945187 210.7568359375Q274.0202741163937 211.16943359375 274.0202741163937 211.90576171875Z" fill="#000"/><line x1="339.95" x2="339.95" y1="200.00" y2="204.50" stroke="#000000" stroke-width="1.0"/><path d="M333.2878326579211 217.89794921875H335.3825592204211V210.66796875L333.1037506266711 211.125V209.95703125L335.3698639079211 209.5H336.6520904704211V217.89794921875H338.7468170329211V218.97705078125H333.2878326579211ZM344.0788482829211 210.34423828125Q343.0886139079211 210.34423828125 342.5903228922961 211.318603515625Q342.0920318766711 212.29296875 342.0920318766711 214.248046875Q342.0920318766711 216.19677734375 342.5903228922961 217.171142578125Q343.0886139079211 218.1455078125 344.0788482829211 218.1455078125Q345.0754303141711 218.1455078125 345.5737213297961 217.171142578125Q346.0720123454211 216.19677734375 346.0720123454211 214.248046875Q346.0720123454211 212.29296875 345.5737213297961 211.318603515625Q345.0754303141711 210.34423828125 344.0788482829211 210.34423828125ZM344.0788482829211 209.32861328125Q345.6721100016711 209.32861328125 346.5131744547961 210.588623046875Q347.3542389079211 211.8486328125 347.3542389079211 214.248046875Q347.3542389079211 216.64111328125 346.5131744547961 217.901123046875Q345.6721100016711 219.1611328125 344.0788482829211 219.1611328125Q342.4855865641711 219.1611328125 341.6445221110461 217.901123046875Q340.8034576579211 216.64111328125 340.8034576579211 214.248046875Q340.8034576579211 211.8486328125 341.6445221110461 210.588623046875Q342.4855865641711 209.32861328125 344.0788482829211 209.32861328125Z" fill="#000"/><line x1="404.12" x2="404.12" y1="200.00" y2="204.50" stroke="#000000" stroke-width="1.0"/><path d="M397.45895565257354 217.89794921875H399.55368221507354V210.66796875L397.27487362132354 211.125V209.95703125L399.54098690257354 209.5H400.82321346507354V217.89794921875H402.91794002757354V218.97705078125H397.45895565257354ZM406.61227596507354 217.89794921875H411.08737362132354V218.97705078125H405.06979549632354V217.89794921875Q405.79977596507354 217.142578125 407.05978573069854 215.869873046875Q408.31979549632354 214.59716796875 408.64352596507354 214.22900390625Q409.25924862132354 213.537109375 409.50363338694854 213.057861328125Q409.74801815257354 212.57861328125 409.74801815257354 212.115234375Q409.74801815257354 211.35986328125 409.21798885569854 210.8837890625Q408.68795955882354 210.40771484375 407.83737362132354 210.40771484375Q407.23434627757354 210.40771484375 406.56466854319854 210.6171875Q405.89499080882354 210.82666015625 405.13327205882354 211.251953125V209.95703125Q405.90768612132354 209.64599609375 406.58053768382354 209.4873046875Q407.25338924632354 209.32861328125 407.81198299632354 209.32861328125Q409.28463924632354 209.32861328125 410.16061580882354 210.06494140625Q411.03659237132354 210.80126953125 411.03659237132354 212.03271484375Q411.03659237132354 212.61669921875 410.81759823069854 213.140380859375Q410.59860409007354 213.6640625 410.02096737132354 214.375Q409.86227596507354 214.55908203125 409.01169002757354 215.438232421875Q408.16110409007354 216.3173828125 406.61227596507354 217.89794921875Z" fill="#000"/><line x1="0.00" x2="-4.50" y1="155.62" y2="155.62" stroke="#000000" stroke-width="1.0"/><path d="M-34.23046875 156.28147210693146H-30.80908203125V157.32248773193146H-34.23046875ZM-26.0419921875 151.73020257568146Q-27.0322265625 151.73020257568146 -27.530517578125 152.70456781005646Q-28.02880859375 153.67893304443146 -28.02880859375 155.63401116943146Q-28.02880859375 157.58274163818146 -27.530517578125 158.55710687255646Q-27.0322265625 159.53147210693146 -26.0419921875 159.53147210693146Q-25.04541015625 159.53147210693146 -24.547119140625 158.55710687255646Q-24.048828125 157.58274163818146 -24.048828125 155.63401116943146Q-24.048828125 153.67893304443146 -24.547119140625 152.70456781005646Q-25.04541015625 151.73020257568146 -26.0419921875 151.73020257568146ZM-26.0419921875 150.71457757568146Q-24.44873046875 150.71457757568146 -23.607666015625 151.97458734130646Q-22.7666015625 153.23459710693146 -22.7666015625 155.63401116943146Q-22.7666015625 158.02707757568146 -23.607666015625 159.28708734130646Q-24.44873046875 160.54709710693146 -26.0419921875 160.54709710693146Q-27.63525390625 160.54709710693146 -28.476318359375 159.28708734130646Q-29.3173828125 158.02707757568146 -29.3173828125 155.63401116943146Q-29.3173828125 153.23459710693146 -28.476318359375 151.97458734130646Q-27.63525390625 150.71457757568146 -26.0419921875 150.71457757568146ZM-20.51318359375 158.75071038818146H-19.173828125V160.36301507568146H-20.51318359375ZM-16.3681640625 150.88596429443146H-11.33447265625V151.96506585693146H-15.19384765625V154.28830804443146Q-14.91455078125 154.19309320068146 -14.63525390625 154.14548577880646Q-14.35595703125 154.09787835693146 -14.07666015625 154.09787835693146Q-12.48974609375 154.09787835693146 -11.56298828125 154.96750726318146Q-10.63623046875 155.83713616943146 -10.63623046875 157.32248773193146Q-10.63623046875 158.85227288818146 -11.58837890625 159.69968499755646Q-12.54052734375 160.54709710693146 -14.2734375 160.54709710693146Q-14.8701171875 160.54709710693146 -15.489013671875 160.44553460693146Q-16.10791015625 160.34397210693146 -16.76806640625 160.14084710693146V158.85227288818146Q-16.19677734375 159.16330804443146 -15.58740234375 159.31565179443146Q-14.97802734375 159.46799554443146 -14.298828125 159.46799554443146Q-13.20068359375 159.46799554443146 -12.5595703125 158.89035882568146Q-11.91845703125 158.31272210693146 -11.91845703125 157.32248773193146Q-11.91845703125 156.33225335693146 -12.5595703125 155.75461663818146Q-13.20068359375 155.17697991943146 -14.298828125 155.17697991943146Q-14.81298828125 155.17697991943146 -15.323974609375 155.29123773193146Q-15.8349609375 155.40549554443146 -16.3681640625 155.64670648193146Z" fill="#000"/><line x1="0.00" x2="-4.50" y1="105.06" y2="105.06" stroke="#000000" stroke-width="1.0"/><path d="M-13.638671875 101.16115599421306Q-14.62890625 101.16115599421306 -15.127197265625 102.13552122858806Q-15.62548828125 103.10988646296306 -15.62548828125 105.06496458796306Q-15.62548828125 107.01369505671306 -15.127197265625 107.98806029108806Q-14.62890625 108.96242552546306 -13.638671875 108.96242552546306Q-12.64208984375 108.96242552546306 -12.143798828125 107.98806029108806Q-11.6455078125 107.01369505671306 -11.6455078125 105.06496458796306Q-11.6455078125 103.10988646296306 -12.143798828125 102.13552122858806Q-12.64208984375 101.16115599421306 -13.638671875 101.16115599421306ZM-13.638671875 100.14553099421306Q-12.04541015625 100.14553099421306 -11.204345703125 101.40554075983806Q-10.36328125 102.66555052546306 -10.36328125 105.06496458796306Q-10.36328125 107.45803099421306 -11.204345703125 108.71804075983806Q-12.04541015625 109.97805052546306 -13.638671875 109.97805052546306Q-15.23193359375 109.97805052546306 -16.072998046875 108.71804075983806Q-16.9140625 107.45803099421306 -16.9140625 105.06496458796306Q-16.9140625 102.66555052546306 -16.072998046875 101.40554075983806Q-15.23193359375 100.14553099421306 -13.638671875 100.14553099421306Z" fill="#000"/><line x1="0.00" x2="-4.50" y1="54.49" y2="54.49" stroke="#000000" stroke-width="1.0"/><path d="M-26.0419921875 50.592109412744634Q-27.0322265625 50.592109412744634 -27.530517578125 51.566474647119634Q-28.02880859375 52.540839881494634 -28.02880859375 54.495918006494634Q-28.02880859375 56.444648475244634 -27.530517578125 57.419013709619634Q-27.0322265625 58.393378943994634 -26.0419921875 58.393378943994634Q-25.04541015625 58.393378943994634 -24.547119140625 57.419013709619634Q-24.048828125 56.444648475244634 -24.048828125 54.495918006494634Q-24.048828125 52.540839881494634 -24.547119140625 51.566474647119634Q-25.04541015625 50.592109412744634 -26.0419921875 50.592109412744634ZM-26.0419921875 49.576484412744634Q-24.44873046875 49.576484412744634 -23.607666015625 50.836494178369634Q-22.7666015625 52.096503943994634 -22.7666015625 54.495918006494634Q-22.7666015625 56.888984412744634 -23.607666015625 58.148994178369634Q-24.44873046875 59.409003943994634 -26.0419921875 59.409003943994634Q-27.63525390625 59.409003943994634 -28.476318359375 58.148994178369634Q-29.3173828125 56.888984412744634 -29.3173828125 54.495918006494634Q-29.3173828125 52.096503943994634 -28.476318359375 50.836494178369634Q-27.63525390625 49.576484412744634 -26.0419921875 49.576484412744634ZM-20.51318359375 57.612617225244634H-19.173828125V59.224921912744634H-20.51318359375ZM-16.3681640625 49.747871131494634H-11.33447265625V50.826972693994634H-15.19384765625V53.150214881494634Q-14.91455078125 53.055000037744634 -14.63525390625 53.007392615869634Q-14.35595703125 52.959785193994634 -14.07666015625 52.959785193994634Q-12.48974609375 52.959785193994634 -11.56298828125 53.829414100244634Q-10.63623046875 54.699043006494634 -10.63623046875 56.184394568994634Q-10.63623046875 57.714179725244634 -11.58837890625 58.561591834619634Q-12.54052734375 59.409003943994634 -14.2734375 59.409003943994634Q-14.8701171875 59.409003943994634 -15.489013671875 59.307441443994634Q-16.10791015625 59.205878943994634 -16.76806640625 59.002753943994634V57.714179725244634Q-16.19677734375 58.025214881494634 -15.58740234375 58.177558631494634Q-14.97802734375 58.329902381494634 -14.298828125 58.329902381494634Q-13.20068359375 58.329902381494634 -12.5595703125 57.752265662744634Q-11.91845703125 57.174628943994634 -11.91845703125 56.184394568994634Q-11.91845703125 55.194160193994634 -12.5595703125 54.616523475244634Q-13.20068359375 54.038886756494634 -14.298828125 54.038886756494634Q-14.81298828125 54.038886756494634 -15.323974609375 54.153144568994634Q-15.8349609375 54.267402381494634 -16.3681640625 54.508613318994634Z" fill="#000"/><line x1="0.00" x2="-4.50" y1="3.92" y2="3.92" stroke="#000000" stroke-width="1.0"/><path d="M-16.15869140625 7.576773768776235H-14.06396484375V0.3467933000262349L-16.3427734375 0.8038245500262349V-0.3641441999737651L-14.07666015625 -0.8211754499737651H-12.79443359375V7.576773768776235H-10.69970703125V8.655875331276235H-16.15869140625Z" fill="#000"/><path d="M209.81884765625 228.8681640625V231.0419921875H212.40966796875V232.01953125H209.81884765625V236.17578125Q209.81884765625 237.1123046875 210.0751953125 237.37890625Q210.33154296875 237.6455078125 211.11767578125 237.6455078125H212.40966796875V238.6982421875H211.11767578125Q209.66162109375 238.6982421875 209.10791015625 238.15478515625Q208.55419921875 237.611328125 208.55419921875 236.17578125V232.01953125H207.63134765625V231.0419921875H208.55419921875V228.8681640625Z" fill="#000"/><g transform="rotate(-90.00 -48.00 100.00)"><path d="M-47.6376953125 100.7109375Q-48.1708984375 102.078125 -48.6767578125 102.4951171875Q-49.1826171875 102.912109375 -50.0302734375 102.912109375H-51.03515625V101.859375H-50.296875Q-49.77734375 101.859375 -49.490234375 101.61328125Q-49.203125 101.3671875 -48.8544921875 100.451171875L-48.62890625 99.876953125L-51.7255859375 92.34375H-50.392578125L-48.0 98.33203125L-45.607421875 92.34375H-44.2744140625Z" fill="#000"/></g><path d="M174.671875 -24.234375V-21.75H177.6328125V-20.6328125H174.671875V-15.8828125Q174.671875 -14.8125 174.96484375 -14.5078125Q175.2578125 -14.203125 176.15625 -14.203125H177.6328125V-13.0H176.15625Q174.4921875 -13.0 173.859375 -13.62109375Q173.2265625 -14.2421875 173.2265625 -15.8828125V-20.6328125H172.171875V-21.75H173.2265625V-24.234375ZM187.0078125 -17.734375V-17.03125H180.3984375Q180.4921875 -15.546875 181.29296875 -14.76953125Q182.09375 -13.9921875 183.5234375 -13.9921875Q184.3515625 -13.9921875 185.12890625 -14.1953125Q185.90625 -14.3984375 186.671875 -14.8046875V-13.4453125Q185.8984375 -13.1171875 185.0859375 -12.9453125Q184.2734375 -12.7734375 183.4375 -12.7734375Q181.34375 -12.7734375 180.12109375 -13.9921875Q178.8984375 -15.2109375 178.8984375 -17.2890625Q178.8984375 -19.4375 180.05859375 -20.69921875Q181.21875 -21.9609375 183.1875 -21.9609375Q184.953125 -21.9609375 185.98046875 -20.82421875Q187.0078125 -19.6875 187.0078125 -17.734375ZM185.5703125 -18.15625Q185.5546875 -19.3359375 184.91015625 -20.0390625Q184.265625 -20.7421875 183.203125 -20.7421875Q182.0 -20.7421875 181.27734375 -20.0625Q180.5546875 -19.3828125 180.4453125 -18.1484375ZM196.640625 -21.75 193.4765625 -17.4921875 196.8046875 -13.0H195.109375L192.5625 -16.4375L190.015625 -13.0H188.3203125L191.71875 -17.578125L188.609375 -21.75H190.3046875L192.625 -18.6328125L194.9453125 -21.75ZM200.2578125 -24.234375V-21.75H203.21875V-20.6328125H200.2578125V-15.8828125Q200.2578125 -14.8125 200.55078125 -14.5078125Q200.84375 -14.203125 201.7421875 -14.203125H203.21875V-13.0H201.7421875Q200.078125 -13.0 199.4453125 -13.62109375Q198.8125 -14.2421875 198.8125 -15.8828125V-20.6328125H197.7578125V-21.75H198.8125V-24.234375ZM216.4765625 -17.3671875Q216.4765625 -18.953125 215.82421875 -19.85546875Q215.171875 -20.7578125 214.03125 -20.7578125Q212.890625 -20.7578125 212.23828125 -19.85546875Q211.5859375 -18.953125 211.5859375 -17.3671875Q211.5859375 -15.78125 212.23828125 -14.87890625Q212.890625 -13.9765625 214.03125 -13.9765625Q215.171875 -13.9765625 215.82421875 -14.87890625Q216.4765625 -15.78125 216.4765625 -17.3671875ZM211.5859375 -20.421875Q212.0390625 -21.203125 212.73046875 -21.58203125Q213.421875 -21.9609375 214.3828125 -21.9609375Q215.9765625 -21.9609375 216.97265625 -20.6953125Q217.96875 -19.4296875 217.96875 -17.3671875Q217.96875 -15.3046875 216.97265625 -14.0390625Q215.9765625 -12.7734375 214.3828125 -12.7734375Q213.421875 -12.7734375 212.73046875 -13.15234375Q212.0390625 -13.53125 211.5859375 -14.3125V-13.0H210.140625V-25.15625H211.5859375ZM226.6328125 -17.3671875Q226.6328125 -18.953125 225.98046875 -19.85546875Q225.328125 -20.7578125 224.1875 -20.7578125Q223.046875 -20.7578125 222.39453125 -19.85546875Q221.7421875 -18.953125 221.7421875 -17.3671875Q221.7421875 -15.78125 222.39453125 -14.87890625Q223.046875 -13.9765625 224.1875 -13.9765625Q225.328125 -13.9765625 225.98046875 -14.87890625Q226.6328125 -15.78125 226.6328125 -17.3671875ZM221.7421875 -20.421875Q222.1953125 -21.203125 222.88671875 -21.58203125Q223.578125 -21.9609375 224.5390625 -21.9609375Q226.1328125 -21.9609375 227.12890625 -20.6953125Q228.125 -19.4296875 228.125 -17.3671875Q228.125 -15.3046875 227.12890625 -14.0390625Q226.1328125 -12.7734375 224.5390625 -12.7734375Q223.578125 -12.7734375 222.88671875 -13.15234375Q222.1953125 -13.53125 221.7421875 -14.3125V-13.0H220.296875V-25.15625H221.7421875ZM233.8984375 -20.7421875Q232.7421875 -20.7421875 232.0703125 -19.83984375Q231.3984375 -18.9375 231.3984375 -17.3671875Q231.3984375 -15.796875 232.06640625 -14.89453125Q232.734375 -13.9921875 233.8984375 -13.9921875Q235.046875 -13.9921875 235.71875 -14.8984375Q236.390625 -15.8046875 236.390625 -17.3671875Q236.390625 -18.921875 235.71875 -19.83203125Q235.046875 -20.7421875 233.8984375 -20.7421875ZM233.8984375 -21.9609375Q235.7734375 -21.9609375 236.84375 -20.7421875Q237.9140625 -19.5234375 237.9140625 -17.3671875Q237.9140625 -15.21875 236.84375 -13.99609375Q235.7734375 -12.7734375 233.8984375 -12.7734375Q232.015625 -12.7734375 230.94921875 -13.99609375Q229.8828125 -15.21875 229.8828125 -17.3671875Q229.8828125 -19.5234375 230.94921875 -20.7421875Q232.015625 -21.9609375 233.8984375 -21.9609375ZM247.5703125 -21.75 244.40625 -17.4921875 247.734375 -13.0H246.0390625L243.4921875 -16.4375L240.9453125 -13.0H239.25L242.6484375 -17.578125L239.5390625 -21.75H241.234375L243.5546875 -18.6328125L245.875 -21.75Z" fill="#000"/></g></svg>