<svg xmlns="http://www.w3.org/2000/svg" width="403" height="263" viewBox="0 0 403 263" font-family="DejaVu Sans, Bitstream Vera Sans, Verdana, Arial, sans-serif" font-size="11" style="background:#fff" data-plotlet-version="0.5.0" data-plotlet-schema="2" data-plotlet-kind="figure"><g transform="translate(79,33)" data-plotlet-kind="panel" data-plotlet-title="revenue" data-plotlet-xlabel="month" data-plotlet-ylabel="revenue" data-plotlet-xscale="linear" data-plotlet-yscale="linear" data-plotlet-xlim="-0.35,7.35" data-plotlet-ylim="-61240,1312440" data-plotlet-panel-bbox="0,0,403,263" data-plotlet-data-area="79,33,320,180"><svg x="0" y="0" width="320" height="180" overflow="hidden"><g class="plotlet-artist" data-plotlet-type="line" data-plotlet-index="0" data-plotlet-color="#1f77b4" data-plotlet-n="8" data-plotlet-x-min="0" data-plotlet-x-max="7" data-plotlet-y-min="1200" data-plotlet-y-max="1250000"><path d="M14.55,171.82L56.10,171.39L97.66,170.89L139.22,169.62L180.78,166.08L222.34,159.92L263.90,118.25L305.45,8.18" fill="none" stroke="#1f77b4" stroke-width="2.00"/></g></svg><line x1="0.00" x2="320.00" y1="0.00" y2="0.00" stroke="#000000" stroke-width="1.00"/><line x1="0.00" x2="320.00" y1="180.00" y2="180.00" stroke="#000000" stroke-width="1.00"/><line x1="0.00" x2="0.00" y1="0.00" y2="180.00" stroke="#000000" stroke-width="1.00"/><line x1="320.00" x2="320.00" y1="0.00" y2="180.00" stroke="#000000" stroke-width="1.00"/><line x1="14.55" x2="14.55" y1="180.00" y2="184.50" stroke="#000000" stroke-width="1.00"/><path d="M14.54 190.34Q13.55 190.34 13.05 191.32Q12.56 192.29 12.56 194.25Q12.56 196.20 13.05 197.17Q13.55 198.15 14.54 198.15Q15.54 198.15 16.04 197.17Q16.54 196.20 16.54 194.25Q16.54 192.29 16.04 191.32Q15.54 190.34 14.54 190.34ZM14.54 189.33Q16.14 189.33 16.98 190.59Q17.82 191.85 17.82 194.25Q17.82 196.64 16.98 197.90Q16.14 199.16 14.54 199.16Q12.95 199.16 12.11 197.90Q11.27 196.64 11.27 194.25Q11.27 191.85 12.11 190.59Q12.95 189.33 14.54 189.33Z" fill="#000"/><line x1="97.66" x2="97.66" y1="180.00" y2="184.50" stroke="#000000" stroke-width="1.00"/><path d="M96.02 197.90H100.50V198.98H94.48V197.90Q95.21 197.14 96.47 195.87Q97.73 194.60 98.05 194.23Q98.67 193.54 98.91 193.06Q99.16 192.58 99.16 192.12Q99.16 191.36 98.63 190.88Q98.10 190.41 97.25 190.41Q96.64 190.41 95.97 190.62Q95.30 190.83 94.54 191.25V189.96Q95.32 189.65 95.99 189.49Q96.66 189.33 97.22 189.33Q98.69 189.33 99.57 190.06Q100.45 190.80 100.45 192.03Q100.45 192.62 100.23 193.14Q100.01 193.66 99.43 194.38Q99.27 194.56 98.42 195.44Q97.57 196.32 96.02 197.90Z" fill="#000"/><line x1="180.78" x2="180.78" y1="180.00" y2="184.50" stroke="#000000" stroke-width="1.00"/><path d="M181.56 190.62 178.32 195.68H181.56ZM181.22 189.50H182.83V195.68H184.18V196.74H182.83V198.98H181.56V196.74H177.28V195.50Z" fill="#000"/><line x1="263.90" x2="263.90" y1="180.00" y2="184.50" stroke="#000000" stroke-width="1.00"/><path d="M264.05 193.73Q263.19 193.73 262.68 194.32Q262.18 194.91 262.18 195.94Q262.18 196.96 262.68 197.55Q263.19 198.15 264.05 198.15Q264.91 198.15 265.42 197.55Q265.92 196.96 265.92 195.94Q265.92 194.91 265.42 194.32Q264.91 193.73 264.05 193.73ZM266.60 189.71V190.88Q266.11 190.65 265.62 190.53Q265.13 190.41 264.65 190.41Q263.38 190.41 262.71 191.26Q262.04 192.12 261.94 193.85Q262.32 193.30 262.88 193.01Q263.45 192.71 264.13 192.71Q265.56 192.71 266.38 193.58Q267.21 194.44 267.21 195.94Q267.21 197.40 266.35 198.28Q265.49 199.16 264.05 199.16Q262.41 199.16 261.54 197.90Q260.67 196.64 260.67 194.25Q260.67 192.00 261.73 190.66Q262.80 189.33 264.60 189.33Q265.08 189.33 265.57 189.42Q266.06 189.52 266.60 189.71Z" fill="#000"/><line x1="0.00" x2="-4.50" y1="171.98" y2="171.98" stroke="#000000" stroke-width="1.00"/><path d="M-21.65 178.62H-22.28L-22.29 176.71Q-22.96 176.70 -23.62 176.56Q-24.29 176.42 -24.96 176.13V174.99Q-24.32 175.39 -23.65 175.60Q-22.99 175.81 -22.28 175.81V172.92Q-23.69 172.69 -24.32 172.14Q-24.96 171.60 -24.96 170.65Q-24.96 169.61 -24.27 169.01Q-23.58 168.42 -22.28 168.33V166.84H-21.65V168.31Q-21.06 168.34 -20.51 168.43Q-19.95 168.53 -19.43 168.70V169.81Q-19.95 169.55 -20.51 169.40Q-21.07 169.26 -21.65 169.23V171.94Q-20.21 172.16 -19.53 172.73Q-18.85 173.31 -18.85 174.30Q-18.85 175.37 -19.57 175.99Q-20.29 176.61 -21.65 176.70ZM-22.28 171.83V169.22Q-23.02 169.31 -23.41 169.64Q-23.79 169.98 -23.79 170.54Q-23.79 171.08 -23.44 171.39Q-23.08 171.69 -22.28 171.83ZM-21.65 173.05V175.79Q-20.84 175.69 -20.43 175.34Q-20.02 174.99 -20.02 174.42Q-20.02 173.86 -20.41 173.53Q-20.81 173.20 -21.65 173.05ZM-13.64 168.08Q-14.63 168.08 -15.13 169.06Q-15.63 170.03 -15.63 171.98Q-15.63 173.93 -15.13 174.91Q-14.63 175.88 -13.64 175.88Q-12.64 175.88 -12.14 174.91Q-11.65 173.93 -11.65 171.98Q-11.65 170.03 -12.14 169.06Q-12.64 168.08 -13.64 168.08ZM-13.64 167.07Q-12.05 167.07 -11.20 168.33Q-10.36 169.59 -10.36 171.98Q-10.36 174.38 -11.20 175.64Q-12.05 176.90 -13.64 176.90Q-15.23 176.90 -16.07 175.64Q-16.91 174.38 -16.91 171.98Q-16.91 169.59 -16.07 168.33Q-15.23 167.07 -13.64 167.07Z" fill="#000"/><line x1="0.00" x2="-4.50" y1="106.46" y2="106.46" stroke="#000000" stroke-width="1.00"/><path d="M-46.72 113.11H-47.35L-47.36 111.20Q-48.02 111.18 -48.69 111.04Q-49.36 110.90 -50.03 110.61V109.47Q-49.38 109.88 -48.72 110.08Q-48.06 110.29 -47.35 110.30V107.40Q-48.75 107.17 -49.39 106.63Q-50.03 106.08 -50.03 105.13Q-50.03 104.09 -49.34 103.50Q-48.65 102.90 -47.35 102.81V101.32H-46.72V102.79Q-46.13 102.82 -45.57 102.92Q-45.02 103.01 -44.49 103.19V104.30Q-45.02 104.03 -45.58 103.88Q-46.13 103.74 -46.72 103.71V106.42Q-45.28 106.65 -44.60 107.22Q-43.92 107.79 -43.92 108.78Q-43.92 109.85 -44.64 110.47Q-45.36 111.09 -46.72 111.18ZM-47.35 106.31V103.71Q-48.09 103.79 -48.47 104.13Q-48.86 104.46 -48.86 105.02Q-48.86 105.57 -48.50 105.87Q-48.14 106.18 -47.35 106.31ZM-46.72 107.53V110.28Q-45.91 110.17 -45.50 109.82Q-45.09 109.47 -45.09 108.90Q-45.09 108.34 -45.48 108.01Q-45.87 107.68 -46.72 107.53ZM-41.44 101.72H-36.40V102.80H-40.26V105.12Q-39.98 105.03 -39.70 104.98Q-39.42 104.93 -39.14 104.93Q-37.56 104.93 -36.63 105.80Q-35.70 106.67 -35.70 108.16Q-35.70 109.69 -36.66 110.53Q-37.61 111.38 -39.34 111.38Q-39.94 111.38 -40.56 111.28Q-41.17 111.18 -41.83 110.97V109.69Q-41.26 110.00 -40.65 110.15Q-40.04 110.30 -39.37 110.30Q-38.27 110.30 -37.63 109.72Q-36.99 109.15 -36.99 108.16Q-36.99 107.17 -37.63 106.59Q-38.27 106.01 -39.37 106.01Q-39.88 106.01 -40.39 106.12Q-40.90 106.24 -41.44 106.48ZM-30.43 102.56Q-31.42 102.56 -31.92 103.54Q-32.42 104.51 -32.42 106.47Q-32.42 108.42 -31.92 109.39Q-31.42 110.36 -30.43 110.36Q-29.44 110.36 -28.94 109.39Q-28.44 108.42 -28.44 106.47Q-28.44 104.51 -28.94 103.54Q-29.44 102.56 -30.43 102.56ZM-30.43 101.55Q-28.84 101.55 -28.00 102.81Q-27.16 104.07 -27.16 106.47Q-27.16 108.86 -28.00 110.12Q-28.84 111.38 -30.43 111.38Q-32.03 111.38 -32.87 110.12Q-33.71 108.86 -33.71 106.47Q-33.71 104.07 -32.87 102.81Q-32.03 101.55 -30.43 101.55ZM-22.16 102.56Q-23.15 102.56 -23.65 103.54Q-24.15 104.51 -24.15 106.47Q-24.15 108.42 -23.65 109.39Q-23.15 110.36 -22.16 110.36Q-21.17 110.36 -20.67 109.39Q-20.17 108.42 -20.17 106.47Q-20.17 104.51 -20.67 103.54Q-21.17 102.56 -22.16 102.56ZM-22.16 101.55Q-20.57 101.55 -19.73 102.81Q-18.89 104.07 -18.89 106.47Q-18.89 108.86 -19.73 110.12Q-20.57 111.38 -22.16 111.38Q-23.76 111.38 -24.60 110.12Q-25.44 108.86 -25.44 106.47Q-25.44 104.07 -24.60 102.81Q-23.76 101.55 -22.16 101.55ZM-16.75 101.72H-15.47V105.72L-11.21 101.72H-9.56L-14.27 106.14L-9.23 111.20H-10.92L-15.47 106.63V111.20H-16.75Z" fill="#000"/><line x1="0.00" x2="-4.50" y1="40.94" y2="40.94" stroke="#000000" stroke-width="1.00"/><path d="M-45.27 47.59H-45.90L-45.91 45.68Q-46.58 45.67 -47.24 45.52Q-47.91 45.38 -48.58 45.10V43.95Q-47.94 44.36 -47.27 44.57Q-46.61 44.77 -45.90 44.78V41.88Q-47.31 41.65 -47.94 41.11Q-48.58 40.56 -48.58 39.61Q-48.58 38.58 -47.89 37.98Q-47.20 37.38 -45.90 37.29V35.80H-45.27V37.27Q-44.68 37.30 -44.13 37.40Q-43.57 37.50 -43.05 37.67V38.78Q-43.57 38.51 -44.13 38.37Q-44.69 38.22 -45.27 38.20V40.91Q-43.83 41.13 -43.15 41.70Q-42.47 42.27 -42.47 43.26Q-42.47 44.33 -43.19 44.95Q-43.91 45.57 -45.27 45.67ZM-45.90 40.79V38.19Q-46.64 38.27 -47.03 38.61Q-47.41 38.94 -47.41 39.50Q-47.41 40.05 -47.06 40.35Q-46.70 40.66 -45.90 40.79ZM-45.27 42.01V44.76Q-44.46 44.65 -44.05 44.30Q-43.64 43.95 -43.64 43.38Q-43.64 42.82 -44.03 42.49Q-44.42 42.16 -45.27 42.01ZM-39.78 44.60H-37.68V37.37L-39.96 37.83V36.66L-37.70 36.20H-36.41V44.60H-34.32V45.68H-39.78ZM-31.73 44.07H-30.39V45.68H-31.73ZM-24.85 37.05Q-25.85 37.05 -26.34 38.02Q-26.84 38.99 -26.84 40.95Q-26.84 42.90 -26.34 43.87Q-25.85 44.85 -24.85 44.85Q-23.86 44.85 -23.36 43.87Q-22.86 42.90 -22.86 40.95Q-22.86 38.99 -23.36 38.02Q-23.86 37.05 -24.85 37.05ZM-24.85 36.03Q-23.26 36.03 -22.42 37.29Q-21.58 38.55 -21.58 40.95Q-21.58 43.34 -22.42 44.60Q-23.26 45.86 -24.85 45.86Q-26.45 45.86 -27.29 44.60Q-28.13 43.34 -28.13 40.95Q-28.13 38.55 -27.29 37.29Q-26.45 36.03 -24.85 36.03ZM-19.44 36.20H-17.53L-15.11 42.65L-12.68 36.20H-10.77V45.68H-12.02V37.36L-14.46 43.86H-15.75L-18.20 37.36V45.68H-19.44Z" fill="#000"/><path d="M144.56 212.51Q145.03 211.66 145.69 211.26Q146.35 210.86 147.23 210.86Q148.43 210.86 149.08 211.69Q149.73 212.53 149.73 214.08V218.70H148.46V214.12Q148.46 213.02 148.07 212.48Q147.69 211.95 146.89 211.95Q145.91 211.95 145.34 212.60Q144.77 213.25 144.77 214.37V218.70H143.51V214.12Q143.51 213.01 143.12 212.48Q142.73 211.95 141.92 211.95Q140.95 211.95 140.38 212.60Q139.82 213.26 139.82 214.37V218.70H138.55V211.04H139.82V212.23Q140.25 211.53 140.85 211.19Q141.45 210.86 142.28 210.86Q143.11 210.86 143.70 211.28Q144.28 211.71 144.56 212.51ZM155.20 211.92Q154.19 211.92 153.60 212.71Q153.02 213.50 153.02 214.88Q153.02 216.25 153.60 217.04Q154.19 217.83 155.20 217.83Q156.21 217.83 156.80 217.04Q157.39 216.24 157.39 214.88Q157.39 213.52 156.80 212.72Q156.21 211.92 155.20 211.92ZM155.20 210.86Q156.85 210.86 157.78 211.92Q158.72 212.99 158.72 214.88Q158.72 216.76 157.78 217.83Q156.85 218.90 155.20 218.90Q153.56 218.90 152.62 217.83Q151.69 216.76 151.69 214.88Q151.69 212.99 152.62 211.92Q153.56 210.86 155.20 210.86ZM167.17 214.08V218.70H165.91V214.12Q165.91 213.03 165.49 212.49Q165.06 211.95 164.21 211.95Q163.20 211.95 162.61 212.60Q162.02 213.25 162.02 214.37V218.70H160.76V211.04H162.02V212.23Q162.47 211.54 163.08 211.20Q163.69 210.86 164.49 210.86Q165.81 210.86 166.49 211.67Q167.17 212.49 167.17 214.08ZM170.92 208.87V211.04H173.51V212.02H170.92V216.18Q170.92 217.11 171.18 217.38Q171.43 217.65 172.22 217.65H173.51V218.70H172.22Q170.76 218.70 170.21 218.15Q169.66 217.61 169.66 216.18V212.02H168.73V211.04H169.66V208.87ZM181.53 214.08V218.70H180.27V214.12Q180.27 213.03 179.85 212.49Q179.42 211.95 178.58 211.95Q177.56 211.95 176.97 212.60Q176.38 213.25 176.38 214.37V218.70H175.12V208.06H176.38V212.23Q176.83 211.54 177.45 211.20Q178.06 210.86 178.86 210.86Q180.18 210.86 180.85 211.67Q181.53 212.49 181.53 214.08Z" fill="#000"/><g transform="rotate(-90.00 -64.00 90.00)"><path d="M-87.06 83.52Q-87.27 83.40 -87.52 83.34Q-87.77 83.28 -88.07 83.28Q-89.14 83.28 -89.71 83.97Q-90.28 84.67 -90.28 85.97V90.00H-91.54V82.34H-90.28V83.53Q-89.88 82.84 -89.25 82.50Q-88.61 82.16 -87.70 82.16Q-87.57 82.16 -87.41 82.18Q-87.26 82.19 -87.06 82.23ZM-79.19 85.86V86.47H-84.97Q-84.89 87.77 -84.19 88.45Q-83.49 89.13 -82.24 89.13Q-81.51 89.13 -80.83 88.95Q-80.15 88.78 -79.48 88.42V89.61Q-80.16 89.90 -80.87 90.05Q-81.58 90.20 -82.31 90.20Q-84.15 90.20 -85.22 89.13Q-86.29 88.07 -86.29 86.25Q-86.29 84.37 -85.27 83.26Q-84.25 82.16 -82.53 82.16Q-80.99 82.16 -80.09 83.15Q-79.19 84.15 -79.19 85.86ZM-80.45 85.49Q-80.46 84.46 -81.02 83.84Q-81.59 83.23 -82.52 83.23Q-83.57 83.23 -84.20 83.82Q-84.84 84.42 -84.93 85.50ZM-78.03 82.34H-76.69L-74.30 88.77L-71.91 82.34H-70.58L-73.45 90.00H-75.16ZM-62.29 85.86V86.47H-68.07Q-67.99 87.77 -67.29 88.45Q-66.59 89.13 -65.34 89.13Q-64.62 89.13 -63.94 88.95Q-63.25 88.78 -62.58 88.42V89.61Q-63.26 89.90 -63.97 90.05Q-64.68 90.20 -65.42 90.20Q-67.25 90.20 -68.32 89.13Q-69.39 88.07 -69.39 86.25Q-69.39 84.37 -68.37 83.26Q-67.36 82.16 -65.63 82.16Q-64.09 82.16 -63.19 83.15Q-62.29 84.15 -62.29 85.86ZM-63.55 85.49Q-63.56 84.46 -64.13 83.84Q-64.69 83.23 -65.62 83.23Q-66.67 83.23 -67.31 83.82Q-67.94 84.42 -68.03 85.50ZM-53.86 85.38V90.00H-55.12V85.42Q-55.12 84.33 -55.54 83.79Q-55.97 83.25 -56.82 83.25Q-57.83 83.25 -58.42 83.90Q-59.01 84.55 -59.01 85.67V90.00H-60.27V82.34H-59.01V83.53Q-58.56 82.84 -57.95 82.50Q-57.33 82.16 -56.54 82.16Q-55.22 82.16 -54.54 82.98Q-53.86 83.79 -53.86 85.38ZM-51.48 86.98V82.34H-50.23V86.93Q-50.23 88.02 -49.80 88.56Q-49.38 89.10 -48.53 89.10Q-47.51 89.10 -46.92 88.46Q-46.33 87.81 -46.33 86.68V82.34H-45.07V90.00H-46.33V88.82Q-46.79 89.52 -47.39 89.86Q-48.00 90.20 -48.80 90.20Q-50.12 90.20 -50.80 89.38Q-51.48 88.56 -51.48 86.98ZM-48.32 82.16ZM-35.93 85.86V86.47H-41.71Q-41.63 87.77 -40.93 88.45Q-40.23 89.13 -38.98 89.13Q-38.26 89.13 -37.58 88.95Q-36.90 88.78 -36.23 88.42V89.61Q-36.90 89.90 -37.61 90.05Q-38.32 90.20 -39.06 90.20Q-40.89 90.20 -41.96 89.13Q-43.03 88.07 -43.03 86.25Q-43.03 84.37 -42.01 83.26Q-41.00 82.16 -39.27 82.16Q-37.73 82.16 -36.83 83.15Q-35.93 84.15 -35.93 85.86ZM-37.19 85.49Q-37.20 84.46 -37.77 83.84Q-38.33 83.23 -39.26 83.23Q-40.31 83.23 -40.95 83.82Q-41.58 84.42 -41.67 85.50Z" fill="#000"/></g><path d="M133.65 -20.41Q133.41 -20.55 133.12 -20.61Q132.84 -20.68 132.49 -20.68Q131.27 -20.68 130.62 -19.89Q129.97 -19.09 129.97 -17.61V-13.00H128.52V-21.75H129.97V-20.39Q130.42 -21.19 131.15 -21.57Q131.88 -21.96 132.91 -21.96Q133.06 -21.96 133.24 -21.94Q133.42 -21.92 133.64 -21.88ZM142.64 -17.73V-17.03H136.03Q136.12 -15.55 136.93 -14.77Q137.73 -13.99 139.16 -13.99Q139.98 -13.99 140.76 -14.20Q141.54 -14.40 142.30 -14.80V-13.45Q141.53 -13.12 140.72 -12.95Q139.91 -12.77 139.07 -12.77Q136.98 -12.77 135.75 -13.99Q134.53 -15.21 134.53 -17.29Q134.53 -19.44 135.69 -20.70Q136.85 -21.96 138.82 -21.96Q140.59 -21.96 141.61 -20.82Q142.64 -19.69 142.64 -17.73ZM141.20 -18.16Q141.19 -19.34 140.54 -20.04Q139.90 -20.74 138.84 -20.74Q137.63 -20.74 136.91 -20.06Q136.19 -19.38 136.08 -18.15ZM143.97 -21.75H145.49L148.23 -14.41L150.96 -21.75H152.48L149.20 -13.00H147.25ZM161.95 -17.73V-17.03H155.34Q155.44 -15.55 156.24 -14.77Q157.04 -13.99 158.47 -13.99Q159.30 -13.99 160.07 -14.20Q160.85 -14.40 161.62 -14.80V-13.45Q160.84 -13.12 160.03 -12.95Q159.22 -12.77 158.38 -12.77Q156.29 -12.77 155.07 -13.99Q153.84 -15.21 153.84 -17.29Q153.84 -19.44 155.00 -20.70Q156.16 -21.96 158.13 -21.96Q159.90 -21.96 160.93 -20.82Q161.95 -19.69 161.95 -17.73ZM160.52 -18.16Q160.50 -19.34 159.86 -20.04Q159.21 -20.74 158.15 -20.74Q156.95 -20.74 156.22 -20.06Q155.50 -19.38 155.39 -18.15ZM171.59 -18.28V-13.00H170.15V-18.23Q170.15 -19.48 169.66 -20.09Q169.18 -20.71 168.21 -20.71Q167.05 -20.71 166.38 -19.97Q165.70 -19.23 165.70 -17.95V-13.00H164.26V-21.75H165.70V-20.39Q166.22 -21.18 166.92 -21.57Q167.62 -21.96 168.53 -21.96Q170.04 -21.96 170.81 -21.03Q171.59 -20.09 171.59 -18.28ZM174.30 -16.45V-21.75H175.74V-16.51Q175.74 -15.27 176.23 -14.64Q176.71 -14.02 177.68 -14.02Q178.84 -14.02 179.52 -14.77Q180.20 -15.51 180.20 -16.79V-21.75H181.63V-13.00H180.20V-14.34Q179.67 -13.55 178.98 -13.16Q178.29 -12.77 177.38 -12.77Q175.87 -12.77 175.09 -13.71Q174.30 -14.65 174.30 -16.45ZM177.92 -21.96ZM192.08 -17.73V-17.03H185.47Q185.56 -15.55 186.36 -14.77Q187.16 -13.99 188.59 -13.99Q189.42 -13.99 190.20 -14.20Q190.98 -14.40 191.74 -14.80V-13.45Q190.97 -13.12 190.16 -12.95Q189.34 -12.77 188.51 -12.77Q186.41 -12.77 185.19 -13.99Q183.97 -15.21 183.97 -17.29Q183.97 -19.44 185.13 -20.70Q186.29 -21.96 188.26 -21.96Q190.02 -21.96 191.05 -20.82Q192.08 -19.69 192.08 -17.73ZM190.64 -18.16Q190.62 -19.34 189.98 -20.04Q189.34 -20.74 188.27 -20.74Q187.07 -20.74 186.35 -20.06Q185.62 -19.38 185.52 -18.15Z" fill="#000"/></g></svg>