<svg xmlns="http://www.w3.org/2000/svg" width="382" height="259" viewBox="0 0 382 259" font-family="DejaVu Sans, Bitstream Vera Sans, Verdana, Arial, sans-serif" font-size="11" data-plotlet-version="0.6.0" data-plotlet-schema="2" data-plotlet-kind="layout"><rect width="382" height="259" fill="#fff"/><g transform="translate(4,4)"><g transform="translate(54.00,29.00)" data-plotlet-kind="panel" data-plotlet-title="italic labels" data-plotlet-ylabel="rate" data-plotlet-xscale="category" data-plotlet-yscale="linear" data-plotlet-ylim="0,0.441" data-plotlet-panel-bbox="4,4,374,251" data-plotlet-data-area="54,29,320,200"><metadata data-plotlet-payload="xcategories"><![CDATA[["alpha","beta","gamma","delta","epsilon"]]]></metadata><svg x="0" y="0" width="320" height="200" overflow="hidden"><g class="plotlet-artist" data-plotlet-type="bar" data-plotlet-index="0" data-plotlet-color="#5599aa" data-plotlet-n="5" data-plotlet-y-min="0.18" data-plotlet-y-max="0.42"><rect x="12.31" y="9.52" width="49.23" height="190.48" fill="#5599aa"/><rect x="73.85" y="41.27" width="49.23" height="158.73" fill="#5599aa"/><rect x="135.38" y="73.02" width="49.23" height="126.98" fill="#5599aa"/><rect x="196.92" y="104.76" width="49.23" height="95.24" fill="#5599aa"/><rect x="258.46" y="118.37" width="49.23" height="81.63" fill="#5599aa"/></g></svg><line x1="0.00" x2="320.00" y1="0.00" y2="0.00" stroke="#000000" stroke-width="1.00"/><line x1="0.00" x2="320.00" y1="200.00" y2="200.00" stroke="#000000" stroke-width="1.00"/><line x1="0.00" x2="0.00" y1="0.00" y2="200.00" stroke="#000000" stroke-width="1.00"/><line x1="320.00" x2="320.00" y1="0.00" y2="200.00" stroke="#000000" stroke-width="1.00"/><line x1="36.92" x2="36.92" y1="200.00" y2="204.50" stroke="#000000" stroke-width="1.00"/><path d="M25.89 214.92 25.09 218.98H23.93L24.14 217.90Q23.63 218.53 22.97 218.85Q22.31 219.16 21.51 219.16Q20.60 219.16 20.02 218.61Q19.44 218.05 19.44 217.18Q19.44 215.94 20.43 215.21Q21.43 214.49 23.17 214.49H24.80L24.86 214.18Q24.87 214.13 24.88 214.07Q24.88 214.01 24.88 213.88Q24.88 213.31 24.42 213.00Q23.96 212.69 23.13 212.69Q22.56 212.69 21.96 212.83Q21.36 212.98 20.73 213.27L20.93 212.19Q21.59 211.94 22.22 211.82Q22.85 211.70 23.44 211.70Q24.70 211.70 25.36 212.24Q26.01 212.79 26.01 213.83Q26.01 214.04 25.98 214.32Q25.95 214.60 25.89 214.92ZM24.62 215.40H23.46Q22.02 215.40 21.33 215.79Q20.64 216.17 20.64 216.98Q20.64 217.54 21.00 217.85Q21.35 218.17 21.97 218.17Q22.92 218.17 23.63 217.49Q24.35 216.81 24.57 215.66ZM29.25 209.10H30.42L28.50 218.98H27.33ZM36.93 214.60Q36.93 213.66 36.53 213.17Q36.12 212.67 35.36 212.67Q34.84 212.67 34.36 212.94Q33.89 213.21 33.52 213.71Q33.16 214.22 32.95 214.93Q32.73 215.64 32.73 216.34Q32.73 217.23 33.14 217.70Q33.54 218.18 34.29 218.18Q34.84 218.18 35.32 217.92Q35.79 217.66 36.13 217.17Q36.49 216.65 36.71 215.94Q36.93 215.24 36.93 214.60ZM33.31 212.95Q33.78 212.33 34.42 212.01Q35.06 211.70 35.84 211.70Q36.93 211.70 37.54 212.41Q38.14 213.12 38.14 214.41Q38.14 215.47 37.76 216.42Q37.39 217.38 36.69 218.13Q36.22 218.63 35.62 218.90Q35.03 219.16 34.38 219.16Q33.63 219.16 33.11 218.85Q32.60 218.53 32.34 217.91L31.61 221.68H30.45L32.36 211.87H33.52ZM45.98 214.69 45.15 218.98H43.97L44.80 214.73Q44.86 214.43 44.89 214.20Q44.92 213.98 44.92 213.84Q44.92 213.31 44.59 213.01Q44.25 212.71 43.65 212.71Q42.71 212.71 42.02 213.35Q41.33 213.98 41.13 215.04L40.36 218.98H39.19L41.12 209.10H42.28L41.53 212.98Q41.97 212.39 42.66 212.04Q43.36 211.70 44.12 211.70Q45.06 211.70 45.57 212.20Q46.09 212.71 46.09 213.63Q46.09 213.86 46.06 214.12Q46.04 214.38 45.98 214.69ZM53.96 214.92 53.16 218.98H52.00L52.21 217.90Q51.70 218.53 51.04 218.85Q50.38 219.16 49.58 219.16Q48.67 219.16 48.09 218.61Q47.51 218.05 47.51 217.18Q47.51 215.94 48.50 215.21Q49.49 214.49 51.24 214.49H52.87L52.93 214.18Q52.94 214.13 52.95 214.07Q52.95 214.01 52.95 213.88Q52.95 213.31 52.49 213.00Q52.03 212.69 51.20 212.69Q50.63 212.69 50.03 212.83Q49.43 212.98 48.80 213.27L49.00 212.19Q49.66 211.94 50.29 211.82Q50.92 211.70 51.51 211.70Q52.77 211.70 53.43 212.24Q54.08 212.79 54.08 213.83Q54.08 214.04 54.05 214.32Q54.02 214.60 53.96 214.92ZM52.69 215.40H51.53Q50.09 215.40 49.40 215.79Q48.71 216.17 48.71 216.98Q48.71 217.54 49.07 217.85Q49.42 218.17 50.04 218.17Q50.99 218.17 51.70 217.49Q52.41 216.81 52.64 215.66Z" fill="#000"/><line x1="98.46" x2="98.46" y1="200.00" y2="204.50" stroke="#000000" stroke-width="1.00"/><path d="M90.24 214.64Q90.24 213.71 89.82 213.19Q89.40 212.67 88.65 212.67Q88.11 212.67 87.64 212.94Q87.17 213.20 86.82 213.70Q86.45 214.23 86.24 214.92Q86.03 215.62 86.03 216.31Q86.03 217.19 86.44 217.69Q86.86 218.18 87.59 218.18Q88.14 218.18 88.61 217.93Q89.08 217.67 89.44 217.17Q89.80 216.65 90.02 215.96Q90.24 215.26 90.24 214.64ZM86.61 212.95Q87.04 212.36 87.69 212.03Q88.34 211.70 89.05 211.70Q90.15 211.70 90.79 212.43Q91.43 213.17 91.43 214.43Q91.43 215.45 91.06 216.42Q90.68 217.38 89.98 218.13Q89.52 218.63 88.93 218.89Q88.33 219.16 87.68 219.16Q86.98 219.16 86.48 218.84Q85.97 218.53 85.65 217.90L85.44 218.98H84.27L86.20 209.10H87.37ZM98.31 214.79Q98.33 214.69 98.34 214.58Q98.35 214.47 98.35 214.36Q98.35 213.59 97.89 213.14Q97.44 212.69 96.66 212.69Q95.79 212.69 95.12 213.24Q94.46 213.78 94.11 214.79ZM99.32 215.70H93.89Q93.85 215.94 93.84 216.08Q93.83 216.22 93.83 216.32Q93.83 217.21 94.37 217.69Q94.91 218.17 95.90 218.17Q96.67 218.17 97.34 218.00Q98.02 217.83 98.61 217.50L98.39 218.65Q97.76 218.91 97.09 219.03Q96.42 219.16 95.73 219.16Q94.25 219.16 93.45 218.45Q92.65 217.75 92.65 216.44Q92.65 215.33 93.05 214.38Q93.45 213.42 94.21 212.67Q94.71 212.20 95.39 211.95Q96.07 211.70 96.84 211.70Q98.05 211.70 98.76 212.42Q99.48 213.14 99.48 214.36Q99.48 214.65 99.44 214.99Q99.40 215.32 99.32 215.70ZM105.55 211.87 105.37 212.78H103.04L102.29 216.63Q102.25 216.85 102.23 217.00Q102.21 217.14 102.21 217.23Q102.21 217.63 102.46 217.82Q102.70 218.00 103.24 218.00H104.42L104.23 218.98H103.11Q102.07 218.98 101.56 218.57Q101.05 218.16 101.05 217.34Q101.05 217.19 101.06 217.02Q101.08 216.84 101.12 216.63L101.88 212.78H100.89L101.07 211.87H102.04L102.44 209.85H103.60L103.22 211.87ZM112.13 214.92 111.34 218.98H110.17L110.39 217.90Q109.87 218.53 109.22 218.85Q108.56 219.16 107.75 219.16Q106.85 219.16 106.27 218.61Q105.69 218.05 105.69 217.18Q105.69 215.94 106.68 215.21Q107.67 214.49 109.42 214.49H111.04L111.11 214.18Q111.12 214.13 111.13 214.07Q111.13 214.01 111.13 213.88Q111.13 213.31 110.67 213.00Q110.21 212.69 109.38 212.69Q108.81 212.69 108.21 212.83Q107.61 212.98 106.97 213.27L107.18 212.19Q107.84 211.94 108.47 211.82Q109.10 211.70 109.69 211.70Q110.95 211.70 111.60 212.24Q112.26 212.79 112.26 213.83Q112.26 214.04 112.23 214.32Q112.20 214.60 112.13 214.92ZM110.87 215.40H109.70Q108.27 215.40 107.58 215.79Q106.89 216.17 106.89 216.98Q106.89 217.54 107.24 217.85Q107.60 218.17 108.22 218.17Q109.17 218.17 109.88 217.49Q110.59 216.81 110.82 215.66Z" fill="#000"/><line x1="160.00" x2="160.00" y1="200.00" y2="204.50" stroke="#000000" stroke-width="1.00"/><path d="M142.99 211.87 141.78 218.09Q141.43 219.90 140.45 220.79Q139.46 221.68 137.79 221.68Q137.17 221.68 136.65 221.59Q136.12 221.50 135.66 221.31L135.88 220.17Q136.31 220.45 136.79 220.58Q137.28 220.72 137.82 220.72Q138.93 220.72 139.65 220.11Q140.36 219.50 140.59 218.37L140.69 217.83Q140.20 218.39 139.55 218.69Q138.91 218.98 138.16 218.98Q137.08 218.98 136.46 218.26Q135.84 217.55 135.84 216.30Q135.84 215.31 136.22 214.37Q136.59 213.43 137.27 212.70Q137.72 212.22 138.32 211.96Q138.92 211.70 139.57 211.70Q140.29 211.70 140.82 212.03Q141.36 212.36 141.62 212.97L141.82 211.87ZM141.24 214.48Q141.24 213.61 140.83 213.14Q140.42 212.67 139.67 212.67Q139.21 212.67 138.79 212.86Q138.37 213.04 138.08 213.37Q137.59 213.92 137.32 214.66Q137.05 215.40 137.05 216.18Q137.05 217.06 137.46 217.53Q137.87 218.00 138.64 218.00Q139.75 218.00 140.49 216.99Q141.24 215.99 141.24 214.48ZM150.48 214.92 149.69 218.98H148.52L148.73 217.90Q148.22 218.53 147.56 218.85Q146.90 219.16 146.10 219.16Q145.19 219.16 144.61 218.61Q144.03 218.05 144.03 217.18Q144.03 215.94 145.02 215.21Q146.02 214.49 147.76 214.49H149.39L149.45 214.18Q149.46 214.13 149.47 214.07Q149.48 214.01 149.48 213.88Q149.48 213.31 149.02 213.00Q148.56 212.69 147.72 212.69Q147.15 212.69 146.55 212.83Q145.95 212.98 145.32 213.27L145.52 212.19Q146.18 211.94 146.81 211.82Q147.44 211.70 148.03 211.70Q149.29 211.70 149.95 212.24Q150.61 212.79 150.61 213.83Q150.61 214.04 150.57 214.32Q150.54 214.60 150.48 214.92ZM149.22 215.40H148.05Q146.61 215.40 145.92 215.79Q145.24 216.17 145.24 216.98Q145.24 217.54 145.59 217.85Q145.94 218.17 146.56 218.17Q147.51 218.17 148.23 217.49Q148.94 216.81 149.16 215.66ZM163.14 214.69 162.30 218.98H161.14L161.96 214.72Q162.01 214.45 162.03 214.25Q162.06 214.06 162.06 213.92Q162.06 213.35 161.74 213.03Q161.42 212.71 160.85 212.71Q160.00 212.71 159.33 213.35Q158.67 213.99 158.47 215.01L157.69 218.98H156.52L157.35 214.72Q157.40 214.49 157.43 214.29Q157.45 214.09 157.45 213.93Q157.45 213.35 157.14 213.03Q156.82 212.71 156.26 212.71Q155.40 212.71 154.73 213.35Q154.06 213.99 153.87 215.01L153.09 218.98H151.92L153.31 211.87H154.48L154.26 212.97Q154.73 212.35 155.37 212.02Q156.01 211.70 156.74 211.70Q157.51 211.70 158.01 212.10Q158.51 212.51 158.61 213.23Q159.14 212.48 159.84 212.09Q160.55 211.70 161.33 211.70Q162.24 211.70 162.74 212.22Q163.24 212.75 163.24 213.71Q163.24 213.92 163.21 214.18Q163.19 214.43 163.14 214.69ZM175.80 214.69 174.97 218.98H173.80L174.62 214.72Q174.67 214.45 174.69 214.25Q174.72 214.06 174.72 213.92Q174.72 213.35 174.40 213.03Q174.09 212.71 173.51 212.71Q172.66 212.71 172.00 213.35Q171.33 213.99 171.13 215.01L170.35 218.98H169.19L170.02 214.72Q170.07 214.49 170.09 214.29Q170.12 214.09 170.12 213.93Q170.12 213.35 169.80 213.03Q169.48 212.71 168.92 212.71Q168.06 212.71 167.40 213.35Q166.73 213.99 166.53 215.01L165.75 218.98H164.58L165.97 211.87H167.14L166.92 212.97Q167.40 212.35 168.03 212.02Q168.67 211.70 169.40 211.70Q170.18 211.70 170.67 212.10Q171.17 212.51 171.27 213.23Q171.81 212.48 172.51 212.09Q173.21 211.70 173.99 211.70Q174.90 211.70 175.40 212.22Q175.90 212.75 175.90 213.71Q175.90 213.92 175.88 214.18Q175.85 214.43 175.80 214.69ZM183.77 214.92 182.98 218.98H181.81L182.03 217.90Q181.51 218.53 180.86 218.85Q180.20 219.16 179.39 219.16Q178.48 219.16 177.90 218.61Q177.32 218.05 177.32 217.18Q177.32 215.94 178.32 215.21Q179.31 214.49 181.06 214.49H182.68L182.74 214.18Q182.76 214.13 182.76 214.07Q182.77 214.01 182.77 213.88Q182.77 213.31 182.31 213.00Q181.85 212.69 181.02 212.69Q180.45 212.69 179.85 212.83Q179.25 212.98 178.61 213.27L178.81 212.19Q179.47 211.94 180.11 211.82Q180.74 211.70 181.33 211.70Q182.58 211.70 183.24 212.24Q183.90 212.79 183.90 213.83Q183.90 214.04 183.87 214.32Q183.84 214.60 183.77 214.92ZM182.51 215.40H181.34Q179.91 215.40 179.22 215.79Q178.53 216.17 178.53 216.98Q178.53 217.54 178.88 217.85Q179.23 218.17 179.86 218.17Q180.81 218.17 181.52 217.49Q182.23 216.81 182.46 215.66Z" fill="#000"/><line x1="221.54" x2="221.54" y1="200.00" y2="204.50" stroke="#000000" stroke-width="1.00"/><path d="M210.51 217.91Q210.04 218.53 209.40 218.84Q208.76 219.16 207.98 219.16Q206.91 219.16 206.29 218.43Q205.67 217.71 205.67 216.44Q205.67 215.39 206.05 214.44Q206.42 213.48 207.13 212.72Q207.60 212.22 208.19 211.96Q208.78 211.70 209.43 211.70Q210.12 211.70 210.64 212.03Q211.16 212.36 211.45 212.97L212.21 209.10H213.38L211.46 218.98H210.29ZM206.88 216.23Q206.88 217.16 207.30 217.67Q207.72 218.18 208.45 218.18Q209.00 218.18 209.47 217.92Q209.93 217.66 210.29 217.14Q210.66 216.61 210.88 215.91Q211.09 215.21 211.09 214.53Q211.09 213.65 210.68 213.16Q210.26 212.66 209.53 212.66Q208.98 212.66 208.50 212.92Q208.03 213.18 207.69 213.67Q207.32 214.20 207.10 214.90Q206.88 215.59 206.88 216.23ZM219.58 214.79Q219.60 214.69 219.61 214.58Q219.62 214.47 219.62 214.36Q219.62 213.59 219.16 213.14Q218.71 212.69 217.93 212.69Q217.06 212.69 216.39 213.24Q215.73 213.78 215.38 214.79ZM220.60 215.70H215.16Q215.12 215.94 215.11 216.08Q215.10 216.22 215.10 216.32Q215.10 217.21 215.64 217.69Q216.18 218.17 217.17 218.17Q217.94 218.17 218.62 218.00Q219.29 217.83 219.88 217.50L219.66 218.65Q219.03 218.91 218.36 219.03Q217.69 219.16 217.00 219.16Q215.52 219.16 214.72 218.45Q213.92 217.75 213.92 216.44Q213.92 215.33 214.32 214.38Q214.72 213.42 215.49 212.67Q215.98 212.20 216.66 211.95Q217.35 211.70 218.11 211.70Q219.32 211.70 220.03 212.42Q220.75 213.14 220.75 214.36Q220.75 214.65 220.71 214.99Q220.67 215.32 220.60 215.70ZM223.71 209.10H224.87L222.95 218.98H221.78ZM230.43 211.87 230.26 212.78H227.93L227.17 216.63Q227.13 216.85 227.11 217.00Q227.10 217.14 227.10 217.23Q227.10 217.63 227.34 217.82Q227.58 218.00 228.12 218.00H229.30L229.11 218.98H227.99Q226.95 218.98 226.44 218.57Q225.93 218.16 225.93 217.34Q225.93 217.19 225.95 217.02Q225.97 216.84 226.00 216.63L226.76 212.78H225.77L225.95 211.87H226.92L227.32 209.85H228.49L228.10 211.87ZM237.02 214.92 236.22 218.98H235.06L235.27 217.90Q234.76 218.53 234.10 218.85Q233.44 219.16 232.64 219.16Q231.73 219.16 231.15 218.61Q230.57 218.05 230.57 217.18Q230.57 215.94 231.56 215.21Q232.55 214.49 234.30 214.49H235.93L235.99 214.18Q236.00 214.13 236.01 214.07Q236.01 214.01 236.01 213.88Q236.01 213.31 235.55 213.00Q235.09 212.69 234.26 212.69Q233.69 212.69 233.09 212.83Q232.49 212.98 231.86 213.27L232.06 212.19Q232.72 211.94 233.35 211.82Q233.98 211.70 234.57 211.70Q235.83 211.70 236.49 212.24Q237.14 212.79 237.14 213.83Q237.14 214.04 237.11 214.32Q237.08 214.60 237.02 214.92ZM235.75 215.40H234.59Q233.15 215.40 232.46 215.79Q231.77 216.17 231.77 216.98Q231.77 217.54 232.13 217.85Q232.48 218.17 233.10 218.17Q234.05 218.17 234.76 217.49Q235.47 216.81 235.70 215.66Z" fill="#000"/><line x1="283.08" x2="283.08" y1="200.00" y2="204.50" stroke="#000000" stroke-width="1.00"/><path d="M266.11 214.79Q266.13 214.69 266.14 214.58Q266.15 214.47 266.15 214.36Q266.15 213.59 265.69 213.14Q265.24 212.69 264.46 212.69Q263.59 212.69 262.92 213.24Q262.26 213.78 261.91 214.79ZM267.13 215.70H261.69Q261.65 215.94 261.64 216.08Q261.63 216.22 261.63 216.32Q261.63 217.21 262.17 217.69Q262.71 218.17 263.70 218.17Q264.47 218.17 265.14 218.00Q265.82 217.83 266.41 217.50L266.19 218.65Q265.56 218.91 264.89 219.03Q264.22 219.16 263.53 219.16Q262.05 219.16 261.25 218.45Q260.45 217.75 260.45 216.44Q260.45 215.33 260.85 214.38Q261.25 213.42 262.02 212.67Q262.51 212.20 263.19 211.95Q263.88 211.70 264.64 211.70Q265.85 211.70 266.56 212.42Q267.28 213.14 267.28 214.36Q267.28 214.65 267.24 214.99Q267.20 215.32 267.13 215.70ZM274.30 214.60Q274.30 213.66 273.90 213.17Q273.49 212.67 272.73 212.67Q272.21 212.67 271.74 212.94Q271.26 213.21 270.90 213.71Q270.53 214.22 270.32 214.93Q270.10 215.64 270.10 216.34Q270.10 217.23 270.51 217.70Q270.91 218.18 271.66 218.18Q272.22 218.18 272.69 217.92Q273.16 217.66 273.50 217.17Q273.86 216.65 274.08 215.94Q274.30 215.24 274.30 214.60ZM270.69 212.95Q271.16 212.33 271.79 212.01Q272.43 211.70 273.21 211.70Q274.30 211.70 274.91 212.41Q275.51 213.12 275.51 214.41Q275.51 215.47 275.14 216.42Q274.76 217.38 274.06 218.13Q273.59 218.63 273.00 218.90Q272.41 219.16 271.75 219.16Q271.00 219.16 270.48 218.85Q269.97 218.53 269.72 217.91L268.99 221.68H267.82L269.73 211.87H270.90ZM282.61 212.08 282.39 213.18Q281.92 212.93 281.41 212.80Q280.89 212.67 280.35 212.67Q279.43 212.67 278.90 212.99Q278.37 213.30 278.37 213.84Q278.37 214.47 279.60 214.81Q279.69 214.83 279.74 214.84L280.11 214.96Q281.28 215.28 281.67 215.64Q282.06 215.99 282.06 216.61Q282.06 217.74 281.16 218.45Q280.26 219.16 278.81 219.16Q278.25 219.16 277.62 219.05Q277.00 218.95 276.25 218.72L276.48 217.51Q277.12 217.84 277.74 218.01Q278.37 218.18 278.94 218.18Q279.80 218.18 280.33 217.82Q280.87 217.45 280.87 216.88Q280.87 216.27 279.46 215.90L279.34 215.87L278.94 215.77Q278.05 215.53 277.64 215.15Q277.22 214.76 277.22 214.17Q277.22 213.03 278.08 212.36Q278.93 211.70 280.40 211.70Q280.98 211.70 281.52 211.79Q282.07 211.89 282.61 212.08ZM285.26 209.10H286.43L286.14 210.58H284.97ZM284.73 211.87H285.90L284.51 218.98H283.34ZM288.87 209.10H290.04L288.12 218.98H286.95ZM293.40 219.16Q292.15 219.16 291.43 218.39Q290.70 217.62 290.70 216.29Q290.70 215.51 290.95 214.71Q291.20 213.91 291.60 213.36Q292.23 212.51 293.00 212.10Q293.78 211.70 294.76 211.70Q295.97 211.70 296.71 212.45Q297.46 213.21 297.46 214.43Q297.46 215.27 297.21 216.11Q296.97 216.95 296.57 217.50Q295.94 218.35 295.17 218.75Q294.39 219.16 293.40 219.16ZM291.91 216.25Q291.91 217.21 292.32 217.69Q292.72 218.17 293.54 218.17Q294.71 218.17 295.48 217.15Q296.25 216.12 296.25 214.55Q296.25 213.63 295.84 213.16Q295.43 212.69 294.63 212.69Q293.97 212.69 293.46 212.99Q292.94 213.30 292.53 213.93Q292.24 214.40 292.07 215.00Q291.91 215.61 291.91 216.25ZM305.30 214.69 304.47 218.98H303.29L304.13 214.73Q304.18 214.43 304.21 214.20Q304.25 213.98 304.25 213.84Q304.25 213.31 303.91 213.01Q303.57 212.71 302.97 212.71Q302.03 212.71 301.35 213.34Q300.67 213.96 300.46 215.04L299.68 218.98H298.51L299.89 211.87H301.06L300.82 212.98Q301.31 212.37 302.00 212.03Q302.68 211.70 303.44 211.70Q304.38 211.70 304.90 212.20Q305.41 212.71 305.41 213.63Q305.41 213.86 305.39 214.12Q305.36 214.38 305.30 214.69Z" fill="#000"/><line x1="0.00" x2="-4.50" y1="200.00" y2="200.00" stroke="#000000" stroke-width="1.00"/><path d="M-13.64 196.11Q-14.63 196.11 -15.13 197.08Q-15.63 198.05 -15.63 200.01Q-15.63 201.96 -15.13 202.93Q-14.63 203.91 -13.64 203.91Q-12.64 203.91 -12.14 202.93Q-11.65 201.96 -11.65 200.01Q-11.65 198.05 -12.14 197.08Q-12.64 196.11 -13.64 196.11ZM-13.64 195.09Q-12.05 195.09 -11.20 196.35Q-10.36 197.61 -10.36 200.01Q-10.36 202.40 -11.20 203.66Q-12.05 204.92 -13.64 204.92Q-15.23 204.92 -16.07 203.66Q-16.91 202.40 -16.91 200.01Q-16.91 197.61 -16.07 196.35Q-15.23 195.09 -13.64 195.09Z" fill="#000"/><line x1="0.00" x2="-4.50" y1="154.65" y2="154.65" stroke="#000000" stroke-width="1.00"/><path d="M-26.04 150.75Q-27.03 150.75 -27.53 151.73Q-28.03 152.70 -28.03 154.66Q-28.03 156.61 -27.53 157.58Q-27.03 158.56 -26.04 158.56Q-25.05 158.56 -24.55 157.58Q-24.05 156.61 -24.05 154.66Q-24.05 152.70 -24.55 151.73Q-25.05 150.75 -26.04 150.75ZM-26.04 149.74Q-24.45 149.74 -23.61 151.00Q-22.77 152.26 -22.77 154.66Q-22.77 157.05 -23.61 158.31Q-24.45 159.57 -26.04 159.57Q-27.64 159.57 -28.48 158.31Q-29.32 157.05 -29.32 154.66Q-29.32 152.26 -28.48 151.00Q-27.64 149.74 -26.04 149.74ZM-20.51 157.77H-19.17V159.39H-20.51ZM-16.16 158.31H-14.06V151.08L-16.34 151.54V150.37L-14.08 149.91H-12.79V158.31H-10.70V159.39H-16.16Z" fill="#000"/><line x1="0.00" x2="-4.50" y1="109.30" y2="109.30" stroke="#000000" stroke-width="1.00"/><path d="M-26.04 105.40Q-27.03 105.40 -27.53 106.38Q-28.03 107.35 -28.03 109.31Q-28.03 111.26 -27.53 112.23Q-27.03 113.20 -26.04 113.20Q-25.05 113.20 -24.55 112.23Q-24.05 111.26 -24.05 109.31Q-24.05 107.35 -24.55 106.38Q-25.05 105.40 -26.04 105.40ZM-26.04 104.39Q-24.45 104.39 -23.61 105.65Q-22.77 106.91 -22.77 109.31Q-22.77 111.70 -23.61 112.96Q-24.45 114.22 -26.04 114.22Q-27.64 114.22 -28.48 112.96Q-29.32 111.70 -29.32 109.31Q-29.32 106.91 -28.48 105.65Q-27.64 104.39 -26.04 104.39ZM-20.51 112.42H-19.17V114.04H-20.51ZM-15.28 112.96H-10.80V114.04H-16.82V112.96Q-16.09 112.20 -14.83 110.93Q-13.57 109.66 -13.25 109.29Q-12.63 108.60 -12.39 108.12Q-12.14 107.64 -12.14 107.17Q-12.14 106.42 -12.67 105.94Q-13.20 105.47 -14.05 105.47Q-14.65 105.47 -15.32 105.68Q-15.99 105.89 -16.76 106.31V105.02Q-15.98 104.70 -15.31 104.55Q-14.64 104.39 -14.08 104.39Q-12.60 104.39 -11.73 105.12Q-10.85 105.86 -10.85 107.09Q-10.85 107.68 -11.07 108.20Q-11.29 108.72 -11.87 109.43Q-12.03 109.62 -12.88 110.50Q-13.73 111.38 -15.28 112.96Z" fill="#000"/><line x1="0.00" x2="-4.50" y1="63.95" y2="63.95" stroke="#000000" stroke-width="1.00"/><path d="M-26.04 60.05Q-27.03 60.05 -27.53 61.03Q-28.03 62.00 -28.03 63.96Q-28.03 65.90 -27.53 66.88Q-27.03 67.85 -26.04 67.85Q-25.05 67.85 -24.55 66.88Q-24.05 65.90 -24.05 63.96Q-24.05 62.00 -24.55 61.03Q-25.05 60.05 -26.04 60.05ZM-26.04 59.04Q-24.45 59.04 -23.61 60.30Q-22.77 61.56 -22.77 63.96Q-22.77 66.35 -23.61 67.61Q-24.45 68.87 -26.04 68.87Q-27.64 68.87 -28.48 67.61Q-29.32 66.35 -29.32 63.96Q-29.32 61.56 -28.48 60.30Q-27.64 59.04 -26.04 59.04ZM-20.51 67.07H-19.17V68.68H-20.51ZM-12.50 63.57Q-11.58 63.77 -11.06 64.39Q-10.54 65.02 -10.54 65.93Q-10.54 67.33 -11.51 68.10Q-12.47 68.87 -14.25 68.87Q-14.84 68.87 -15.48 68.75Q-16.11 68.63 -16.78 68.40V67.16Q-16.25 67.47 -15.61 67.63Q-14.98 67.79 -14.29 67.79Q-13.08 67.79 -12.45 67.31Q-11.82 66.84 -11.82 65.93Q-11.82 65.09 -12.40 64.62Q-12.99 64.15 -14.04 64.15H-15.14V63.09H-13.99Q-13.04 63.09 -12.54 62.71Q-12.04 62.34 -12.04 61.63Q-12.04 60.90 -12.56 60.51Q-13.07 60.11 -14.04 60.11Q-14.57 60.11 -15.17 60.23Q-15.77 60.34 -16.50 60.58V59.44Q-15.77 59.24 -15.13 59.14Q-14.49 59.04 -13.92 59.04Q-12.46 59.04 -11.61 59.70Q-10.76 60.36 -10.76 61.49Q-10.76 62.28 -11.21 62.82Q-11.66 63.36 -12.50 63.57Z" fill="#000"/><line x1="0.00" x2="-4.50" y1="18.59" y2="18.59" stroke="#000000" stroke-width="1.00"/><path d="M-26.04 14.70Q-27.03 14.70 -27.53 15.67Q-28.03 16.65 -28.03 18.60Q-28.03 20.55 -27.53 21.53Q-27.03 22.50 -26.04 22.50Q-25.05 22.50 -24.55 21.53Q-24.05 20.55 -24.05 18.60Q-24.05 16.65 -24.55 15.67Q-25.05 14.70 -26.04 14.70ZM-26.04 13.68Q-24.45 13.68 -23.61 14.94Q-22.77 16.20 -22.77 18.60Q-22.77 21.00 -23.61 22.26Q-24.45 23.52 -26.04 23.52Q-27.64 23.52 -28.48 22.26Q-29.32 21.00 -29.32 18.60Q-29.32 16.20 -28.48 14.94Q-27.64 13.68 -26.04 13.68ZM-20.51 21.72H-19.17V23.33H-20.51ZM-12.86 14.97 -16.10 20.03H-12.86ZM-13.19 13.86H-11.58V20.03H-10.23V21.10H-11.58V23.33H-12.86V21.10H-17.14V19.86Z" fill="#000"/><g transform="rotate(-90.00 -39.17 100.00)"><path d="M-47.64 93.52Q-47.85 93.40 -48.10 93.34Q-48.35 93.28 -48.65 93.28Q-49.72 93.28 -50.29 93.97Q-50.86 94.67 -50.86 95.97V100.00H-52.12V92.34H-50.86V93.53Q-50.46 92.84 -49.82 92.50Q-49.19 92.16 -48.28 92.16Q-48.15 92.16 -47.99 92.18Q-47.84 92.19 -47.64 92.23ZM-42.84 96.15Q-44.36 96.15 -44.95 96.50Q-45.54 96.85 -45.54 97.69Q-45.54 98.36 -45.10 98.75Q-44.66 99.15 -43.90 99.15Q-42.85 99.15 -42.22 98.40Q-41.59 97.66 -41.59 96.43V96.15ZM-40.33 95.63V100.00H-41.59V98.84Q-42.02 99.54 -42.66 99.87Q-43.30 100.20 -44.23 100.20Q-45.41 100.20 -46.10 99.54Q-46.80 98.88 -46.80 97.77Q-46.80 96.48 -45.93 95.82Q-45.07 95.17 -43.35 95.17H-41.59V95.04Q-41.59 94.18 -42.16 93.70Q-42.73 93.23 -43.76 93.23Q-44.42 93.23 -45.04 93.38Q-45.66 93.54 -46.24 93.85V92.69Q-45.55 92.43 -44.90 92.29Q-44.25 92.16 -43.63 92.16Q-41.97 92.16 -41.15 93.02Q-40.33 93.88 -40.33 95.63ZM-36.49 90.17V92.34H-33.90V93.32H-36.49V97.48Q-36.49 98.41 -36.24 98.68Q-35.98 98.95 -35.20 98.95H-33.90V100.00H-35.20Q-36.65 100.00 -37.21 99.46Q-37.76 98.91 -37.76 97.48V93.32H-38.68V92.34H-37.76V90.17ZM-25.70 95.86V96.47H-31.48Q-31.40 97.77 -30.70 98.45Q-30.00 99.13 -28.75 99.13Q-28.02 99.13 -27.34 98.95Q-26.66 98.78 -25.99 98.42V99.61Q-26.67 99.90 -27.38 100.05Q-28.09 100.20 -28.82 100.20Q-30.66 100.20 -31.73 99.13Q-32.80 98.07 -32.80 96.25Q-32.80 94.37 -31.78 93.26Q-30.77 92.16 -29.04 92.16Q-27.50 92.16 -26.60 93.15Q-25.70 94.15 -25.70 95.86ZM-26.96 95.49Q-26.97 94.46 -27.54 93.84Q-28.10 93.23 -29.03 93.23Q-30.08 93.23 -30.71 93.82Q-31.35 94.42 -31.44 95.50Z" fill="#000"/></g><path d="M116.34 -25.52H117.78V-16.77H116.34ZM116.34 -28.93H117.78V-27.11H116.34ZM122.21 -28.01V-25.52H125.17V-24.41H122.21V-19.66Q122.21 -18.59 122.50 -18.28Q122.80 -17.98 123.70 -17.98H125.17V-16.77H123.70Q122.03 -16.77 121.40 -17.39Q120.77 -18.02 120.77 -19.66V-24.41H119.71V-25.52H120.77V-28.01ZM131.04 -21.17Q129.30 -21.17 128.62 -20.77Q127.95 -20.38 127.95 -19.41Q127.95 -18.65 128.46 -18.20Q128.96 -17.75 129.83 -17.75Q131.02 -17.75 131.75 -18.60Q132.47 -19.45 132.47 -20.85V-21.17ZM133.91 -21.77V-16.77H132.47V-18.10Q131.98 -17.30 131.24 -16.93Q130.51 -16.55 129.45 -16.55Q128.10 -16.55 127.31 -17.30Q126.52 -18.05 126.52 -19.32Q126.52 -20.80 127.50 -21.55Q128.49 -22.30 130.45 -22.30H132.47V-22.44Q132.47 -23.43 131.82 -23.97Q131.16 -24.52 129.98 -24.52Q129.23 -24.52 128.52 -24.34Q127.81 -24.16 127.16 -23.80V-25.12Q127.95 -25.43 128.69 -25.58Q129.43 -25.73 130.13 -25.73Q132.03 -25.73 132.97 -24.75Q133.91 -23.77 133.91 -21.77ZM136.87 -28.93H138.30V-16.77H136.87ZM141.31 -25.52H142.75V-16.77H141.31ZM141.31 -28.93H142.75V-27.11H141.31ZM152.05 -25.19V-23.84Q151.45 -24.18 150.83 -24.35Q150.22 -24.52 149.59 -24.52Q148.20 -24.52 147.42 -23.63Q146.65 -22.74 146.65 -21.14Q146.65 -19.54 147.42 -18.65Q148.20 -17.77 149.59 -17.77Q150.22 -17.77 150.83 -17.93Q151.45 -18.10 152.05 -18.44V-17.11Q151.45 -16.83 150.81 -16.69Q150.16 -16.55 149.44 -16.55Q147.46 -16.55 146.30 -17.79Q145.13 -19.03 145.13 -21.14Q145.13 -23.28 146.31 -24.51Q147.48 -25.73 149.53 -25.73Q150.20 -25.73 150.83 -25.60Q151.46 -25.46 152.05 -25.19ZM159.64 -28.93H161.08V-16.77H159.64ZM168.06 -21.17Q166.32 -21.17 165.65 -20.77Q164.98 -20.38 164.98 -19.41Q164.98 -18.65 165.48 -18.20Q165.98 -17.75 166.85 -17.75Q168.05 -17.75 168.77 -18.60Q169.49 -19.45 169.49 -20.85V-21.17ZM170.93 -21.77V-16.77H169.49V-18.10Q169.00 -17.30 168.27 -16.93Q167.53 -16.55 166.47 -16.55Q165.12 -16.55 164.33 -17.30Q163.54 -18.05 163.54 -19.32Q163.54 -20.80 164.53 -21.55Q165.52 -22.30 167.48 -22.30H169.49V-22.44Q169.49 -23.43 168.84 -23.97Q168.19 -24.52 167.01 -24.52Q166.26 -24.52 165.55 -24.34Q164.84 -24.16 164.18 -23.80V-25.12Q164.97 -25.43 165.71 -25.58Q166.45 -25.73 167.16 -25.73Q169.05 -25.73 169.99 -24.75Q170.93 -23.77 170.93 -21.77ZM180.17 -21.14Q180.17 -22.73 179.52 -23.63Q178.87 -24.53 177.73 -24.53Q176.59 -24.53 175.93 -23.63Q175.28 -22.73 175.28 -21.14Q175.28 -19.55 175.93 -18.65Q176.59 -17.75 177.73 -17.75Q178.87 -17.75 179.52 -18.65Q180.17 -19.55 180.17 -21.14ZM175.28 -24.20Q175.73 -24.98 176.43 -25.36Q177.12 -25.73 178.08 -25.73Q179.67 -25.73 180.67 -24.47Q181.66 -23.20 181.66 -21.14Q181.66 -19.08 180.67 -17.81Q179.67 -16.55 178.08 -16.55Q177.12 -16.55 176.43 -16.93Q175.73 -17.30 175.28 -18.09V-16.77H173.84V-28.93H175.28ZM191.53 -21.51V-20.80H184.92Q185.02 -19.32 185.82 -18.54Q186.62 -17.77 188.05 -17.77Q188.88 -17.77 189.65 -17.97Q190.43 -18.17 191.20 -18.58V-17.22Q190.42 -16.89 189.61 -16.72Q188.80 -16.55 187.96 -16.55Q185.87 -16.55 184.64 -17.77Q183.42 -18.98 183.42 -21.06Q183.42 -23.21 184.58 -24.47Q185.74 -25.73 187.71 -25.73Q189.48 -25.73 190.50 -24.60Q191.53 -23.46 191.53 -21.51ZM190.09 -21.93Q190.08 -23.11 189.43 -23.81Q188.79 -24.52 187.73 -24.52Q186.52 -24.52 185.80 -23.84Q185.08 -23.16 184.97 -21.92ZM193.89 -28.93H195.33V-16.77H193.89ZM203.91 -25.27V-23.91Q203.30 -24.22 202.65 -24.38Q201.99 -24.53 201.29 -24.53Q200.22 -24.53 199.68 -24.20Q199.15 -23.88 199.15 -23.22Q199.15 -22.72 199.53 -22.43Q199.91 -22.15 201.07 -21.89L201.56 -21.78Q203.09 -21.45 203.74 -20.86Q204.38 -20.26 204.38 -19.19Q204.38 -17.97 203.42 -17.26Q202.45 -16.55 200.77 -16.55Q200.06 -16.55 199.30 -16.68Q198.54 -16.82 197.70 -17.09V-18.58Q198.49 -18.16 199.27 -17.96Q200.04 -17.75 200.80 -17.75Q201.81 -17.75 202.36 -18.10Q202.91 -18.45 202.91 -19.08Q202.91 -19.66 202.51 -19.98Q202.12 -20.29 200.78 -20.58L200.28 -20.70Q198.95 -20.98 198.35 -21.56Q197.76 -22.14 197.76 -23.16Q197.76 -24.39 198.63 -25.06Q199.51 -25.73 201.12 -25.73Q201.91 -25.73 202.62 -25.62Q203.32 -25.50 203.91 -25.27Z" fill="#000"/></g></g></svg>