<svg xmlns="http://www.w3.org/2000/svg" width="535" height="271" viewBox="0 0 535 271" font-family="DejaVu Sans, Bitstream Vera Sans, Verdana, Arial, sans-serif" font-size="11" style="background:#fff" data-plotlet-version="0.5.0" data-plotlet-schema="2" data-plotlet-kind="layout"><g transform="translate(115.00,33.00)" data-plotlet-kind="panel" data-plotlet-title="top" data-plotlet-xscale="linear" data-plotlet-yscale="linear" data-plotlet-xlim="-0.4,8.4" data-plotlet-ylim="0.85,4.15" data-plotlet-panel-bbox="98,0,341,61" data-plotlet-data-area="17,33,320,24"><svg x="0" y="0" width="320.0" height="24.0" overflow="hidden"><g class="plotlet-artist" data-plotlet-type="line" data-plotlet-index="0" data-plotlet-label="counts" data-plotlet-color="#1f77b4" data-plotlet-n="8" data-plotlet-x-min="0" data-plotlet-x-max="7" data-plotlet-y-min="1" data-plotlet-y-max="4"><path d="M14.55,8.36L50.91,22.91L87.27,15.64L123.64,1.09L160.00,22.91L196.36,15.64L232.73,8.36L269.09,22.91" fill="none" stroke="#1f77b4" stroke-width="2.00"/></g></svg><line x1="0.00" x2="320.00" y1="0.00" y2="0.00" stroke="#000000" stroke-width="1.00"/><line x1="0.00" x2="320.00" y1="24.00" y2="24.00" stroke="#000000" stroke-width="1.00"/><line x1="0.00" x2="0.00" y1="0.00" y2="24.00" stroke="#000000" stroke-width="1.00"/><line x1="320.00" x2="320.00" y1="0.00" y2="24.00" stroke="#000000" stroke-width="1.00"/><path d="M-15.2763671875 19.29578746448864H-10.80126953125V20.37488902698864H-16.81884765625V19.29578746448864Q-16.0888671875 18.54041637073864 -14.828857421875 17.26771129261364Q-13.56884765625 15.99500621448864 -13.2451171875 15.62684215198864Q-12.62939453125 14.93494762073864 -12.385009765625 14.45569957386364Q-12.140625 13.97645152698864 -12.140625 13.51307262073864Q-12.140625 12.75770152698864 -12.670654296875 12.28162730823864Q-13.20068359375 11.80555308948864 -14.05126953125 11.80555308948864Q-14.654296875 11.80555308948864 -15.323974609375 12.01502574573864Q-15.99365234375 12.22449840198864 -16.75537109375 12.64979137073864V11.35486949573864Q-15.98095703125 11.04383433948864 -15.30810546875 10.88514293323864Q-14.63525390625 10.72645152698864 -14.07666015625 10.72645152698864Q-12.60400390625 10.72645152698864 -11.72802734375 11.46277965198864Q-10.85205078125 12.19910777698864 -10.85205078125 13.43055308948864Q-10.85205078125 14.01453746448864 -11.071044921875 14.53821910511364Q-11.2900390625 15.06190074573864 -11.86767578125 15.77283824573864Q-12.0263671875 15.95692027698864 -12.876953125 16.83607066761364Q-13.7275390625 17.71522105823864 -15.2763671875 19.29578746448864Z" fill="#000"/><path d="M-12.85791015625 -2.5304287997159065 -16.09521484375 2.5286532315340935H-12.85791015625ZM-13.1943359375 -3.6476162997159065H-11.58203125V2.5286532315340935H-10.22998046875V3.5950594815340935H-11.58203125V5.8294344815340935H-12.85791015625V3.5950594815340935H-17.13623046875V2.3572665127840935Z" fill="#000"/><path d="M149.8203125 -24.234375V-21.75H152.78125V-20.6328125H149.8203125V-15.8828125Q149.8203125 -14.8125 150.11328125 -14.5078125Q150.40625 -14.203125 151.3046875 -14.203125H152.78125V-13.0H151.3046875Q149.640625 -13.0 149.0078125 -13.62109375Q148.375 -14.2421875 148.375 -15.8828125V-20.6328125H147.3203125V-21.75H148.375V-24.234375ZM158.0625 -20.7421875Q156.90625 -20.7421875 156.234375 -19.83984375Q155.5625 -18.9375 155.5625 -17.3671875Q155.5625 -15.796875 156.23046875 -14.89453125Q156.8984375 -13.9921875 158.0625 -13.9921875Q159.2109375 -13.9921875 159.8828125 -14.8984375Q160.5546875 -15.8046875 160.5546875 -17.3671875Q160.5546875 -18.921875 159.8828125 -19.83203125Q159.2109375 -20.7421875 158.0625 -20.7421875ZM158.0625 -21.9609375Q159.9375 -21.9609375 161.0078125 -20.7421875Q162.078125 -19.5234375 162.078125 -17.3671875Q162.078125 -15.21875 161.0078125 -13.99609375Q159.9375 -12.7734375 158.0625 -12.7734375Q156.1796875 -12.7734375 155.11328125 -13.99609375Q154.046875 -15.21875 154.046875 -17.3671875Q154.046875 -19.5234375 155.11328125 -20.7421875Q156.1796875 -21.9609375 158.0625 -21.9609375ZM165.8515625 -14.3125V-9.671875H164.40625V-21.75H165.8515625V-20.421875Q166.3046875 -21.203125 166.99609375 -21.58203125Q167.6875 -21.9609375 168.6484375 -21.9609375Q170.2421875 -21.9609375 171.23828125 -20.6953125Q172.234375 -19.4296875 172.234375 -17.3671875Q172.234375 -15.3046875 171.23828125 -14.0390625Q170.2421875 -12.7734375 168.6484375 -12.7734375Q167.6875 -12.7734375 166.99609375 -13.15234375Q166.3046875 -13.53125 165.8515625 -14.3125ZM170.7421875 -17.3671875Q170.7421875 -18.953125 170.08984375 -19.85546875Q169.4375 -20.7578125 168.296875 -20.7578125Q167.15625 -20.7578125 166.50390625 -19.85546875Q165.8515625 -18.953125 165.8515625 -17.3671875Q165.8515625 -15.78125 166.50390625 -14.87890625Q167.15625 -13.9765625 168.296875 -13.9765625Q169.4375 -13.9765625 170.08984375 -14.87890625Q170.7421875 -15.78125 170.7421875 -17.3671875Z" fill="#000"/></g><g transform="translate(34.00,65.00)" data-plotlet-kind="panel" data-plotlet-title="tree" data-plotlet-xscale="linear" data-plotlet-yscale="linear" data-plotlet-xlim="-0.1,2.1" data-plotlet-ylim="-0.3,6.3" data-plotlet-panel-bbox="0,61,98,210" data-plotlet-data-area="34,4,60,180"><svg x="0" y="0" width="60.0" height="180.0" overflow="hidden"><g class="plotlet-artist" data-plotlet-type="line" data-plotlet-index="0" data-plotlet-color="#1f77b4" data-plotlet-n="3" data-plotlet-x-min="0" data-plotlet-x-max="2" data-plotlet-y-min="2" data-plotlet-y-max="4"><path d="M2.73,117.27L30.00,90.00L57.27,62.73" fill="none" stroke="#1f77b4" stroke-width="2.00"/></g></svg><line x1="0.00" x2="60.00" y1="0.00" y2="0.00" stroke="#000000" stroke-width="1.00"/><line x1="0.00" x2="60.00" y1="180.00" y2="180.00" stroke="#000000" stroke-width="1.00"/><line x1="0.00" x2="0.00" y1="0.00" y2="180.00" stroke="#000000" stroke-width="1.00"/><line x1="60.00" x2="60.00" y1="0.00" y2="180.00" stroke="#000000" stroke-width="1.00"/><line x1="2.73" x2="2.73" y1="180.00" y2="184.50" stroke="#000000" stroke-width="1.00"/><path d="M2.724098899147727 190.34423828125Q1.733864524147727 190.34423828125 1.235573508522727 191.318603515625Q0.7372824928977271 192.29296875 0.7372824928977271 194.248046875Q0.7372824928977271 196.19677734375 1.235573508522727 197.171142578125Q1.733864524147727 198.1455078125 2.724098899147727 198.1455078125Q3.720680930397727 198.1455078125 4.218971946022727 197.171142578125Q4.717262961647727 196.19677734375 4.717262961647727 194.248046875Q4.717262961647727 192.29296875 4.218971946022727 191.318603515625Q3.720680930397727 190.34423828125 2.724098899147727 190.34423828125ZM2.724098899147727 189.32861328125Q4.317360617897727 189.32861328125 5.158425071022727 190.588623046875Q5.999489524147727 191.8486328125 5.999489524147727 194.248046875Q5.999489524147727 196.64111328125 5.158425071022727 197.901123046875Q4.317360617897727 199.1611328125 2.724098899147727 199.1611328125Q1.130837180397727 199.1611328125 0.28977272727272707 197.901123046875Q-0.5512917258522729 196.64111328125 -0.5512917258522729 194.248046875Q-0.5512917258522729 191.8486328125 0.28977272727272707 190.588623046875Q1.130837180397727 189.32861328125 2.724098899147727 189.32861328125Z" fill="#000"/><line x1="30.00" x2="30.00" y1="180.00" y2="184.50" stroke="#000000" stroke-width="1.00"/><path d="M27.476806640624996 197.89794921875H29.571533203124996V190.66796875L27.292724609374996 191.125V189.95703125L29.558837890624996 189.5H30.841064453124996V197.89794921875H32.935791015625V198.97705078125H27.476806640624996Z" fill="#000"/><line x1="57.27" x2="57.27" y1="180.00" y2="184.50" stroke="#000000" stroke-width="1.00"/><path d="M55.631858132102266 197.89794921875H60.106955788352266V198.97705078125H54.089377663352266V197.89794921875Q54.819358132102266 197.142578125 56.079367897727266 195.869873046875Q57.339377663352266 194.59716796875 57.663108132102266 194.22900390625Q58.278830788352266 193.537109375 58.523215553977266 193.057861328125Q58.767600319602266 192.57861328125 58.767600319602266 192.115234375Q58.767600319602266 191.35986328125 58.237571022727266 190.8837890625Q57.707541725852266 190.40771484375 56.856955788352266 190.40771484375Q56.253928444602266 190.40771484375 55.584250710227266 190.6171875Q54.914572975852266 190.82666015625 54.152854225852266 191.251953125V189.95703125Q54.927268288352266 189.64599609375 55.600119850852266 189.4873046875Q56.272971413352266 189.32861328125 56.831565163352266 189.32861328125Q58.304221413352266 189.32861328125 59.180197975852266 190.06494140625Q60.056174538352266 190.80126953125 60.056174538352266 192.03271484375Q60.056174538352266 192.61669921875 59.837180397727266 193.140380859375Q59.618186257102266 193.6640625 59.040549538352266 194.375Q58.881858132102266 194.55908203125 58.031272194602266 195.438232421875Q57.180686257102266 196.3173828125 55.631858132102266 197.89794921875Z" fill="#000"/><line x1="0.00" x2="-4.50" y1="171.82" y2="171.82" stroke="#000000" stroke-width="1.00"/><path d="M-13.638671875 167.9238947088068Q-14.62890625 167.9238947088068 -15.127197265625 168.8982599431818Q-15.62548828125 169.8726251775568 -15.62548828125 171.8277033025568Q-15.62548828125 173.7764337713068 -15.127197265625 174.7507990056818Q-14.62890625 175.7251642400568 -13.638671875 175.7251642400568Q-12.64208984375 175.7251642400568 -12.143798828125 174.7507990056818Q-11.6455078125 173.7764337713068 -11.6455078125 171.8277033025568Q-11.6455078125 169.8726251775568 -12.143798828125 168.8982599431818Q-12.64208984375 167.9238947088068 -13.638671875 167.9238947088068ZM-13.638671875 166.9082697088068Q-12.04541015625 166.9082697088068 -11.204345703125 168.1682794744318Q-10.36328125 169.4282892400568 -10.36328125 171.8277033025568Q-10.36328125 174.2207697088068 -11.204345703125 175.4807794744318Q-12.04541015625 176.7407892400568 -13.638671875 176.7407892400568Q-15.23193359375 176.7407892400568 -16.072998046875 175.4807794744318Q-16.9140625 174.2207697088068 -16.9140625 171.8277033025568Q-16.9140625 169.4282892400568 -16.072998046875 168.1682794744318Q-15.23193359375 166.9082697088068 -13.638671875 166.9082697088068Z" fill="#000"/><line x1="0.00" x2="-4.50" y1="117.27" y2="117.27" stroke="#000000" stroke-width="1.00"/><path d="M-15.2763671875 120.93215110085228H-10.80126953125V122.01125266335228H-16.81884765625V120.93215110085228Q-16.0888671875 120.17678000710228 -14.828857421875 118.90407492897728Q-13.56884765625 117.63136985085228 -13.2451171875 117.26320578835228Q-12.62939453125 116.57131125710228 -12.385009765625 116.09206321022728Q-12.140625 115.61281516335228 -12.140625 115.14943625710228Q-12.140625 114.39406516335228 -12.670654296875 113.91799094460228Q-13.20068359375 113.44191672585228 -14.05126953125 113.44191672585228Q-14.654296875 113.44191672585228 -15.323974609375 113.65138938210228Q-15.99365234375 113.86086203835228 -16.75537109375 114.28615500710228V112.99123313210228Q-15.98095703125 112.68019797585228 -15.30810546875 112.52150656960228Q-14.63525390625 112.36281516335228 -14.07666015625 112.36281516335228Q-12.60400390625 112.36281516335228 -11.72802734375 113.09914328835228Q-10.85205078125 113.83547141335228 -10.85205078125 115.06691672585228Q-10.85205078125 115.65090110085228 -11.071044921875 116.17458274147728Q-11.2900390625 116.69826438210228 -11.86767578125 117.40920188210228Q-12.0263671875 117.59328391335228 -12.876953125 118.47243430397728Q-13.7275390625 119.35158469460228 -15.2763671875 120.93215110085228Z" fill="#000"/><line x1="0.00" x2="-4.50" y1="62.73" y2="62.73" stroke="#000000" stroke-width="1.00"/><path d="M-12.85791015625 59.10593483664772 -16.09521484375 64.16501686789772H-12.85791015625ZM-13.1943359375 57.98874733664772H-11.58203125V64.16501686789772H-10.22998046875V65.23142311789772H-11.58203125V67.46579811789772H-12.85791015625V65.23142311789772H-17.13623046875V63.99363014914772Z" fill="#000"/><line x1="0.00" x2="-4.50" y1="8.18" y2="8.18" stroke="#000000" stroke-width="1.00"/><path d="M-13.47998046875 7.670831853693159Q-14.34326171875 7.670831853693159 -14.847900390625 8.261163884943159Q-15.3525390625 8.851495916193159 -15.3525390625 9.879816228693159Q-15.3525390625 10.901788884943159 -14.847900390625 11.495294744318159Q-14.34326171875 12.088800603693159 -13.47998046875 12.088800603693159Q-12.61669921875 12.088800603693159 -12.112060546875 11.495294744318159Q-11.607421875 10.901788884943159 -11.607421875 9.879816228693159Q-11.607421875 8.851495916193159 -12.112060546875 8.261163884943159Q-12.61669921875 7.670831853693159 -13.47998046875 7.670831853693159ZM-10.9345703125 3.6527654474431586V4.820734197443159Q-11.4169921875 4.592218572443159 -11.908935546875 4.471613103693159Q-12.40087890625 4.351007634943159 -12.88330078125 4.351007634943159Q-14.15283203125 4.351007634943159 -14.822509765625 5.207941228693159Q-15.4921875 6.064874822443159 -15.58740234375 7.797784978693159Q-15.212890625 7.245538884943159 -14.64794921875 6.950372869318159Q-14.0830078125 6.655206853693159 -13.40380859375 6.655206853693159Q-11.9755859375 6.655206853693159 -11.147216796875 7.521661931818159Q-10.31884765625 8.388117009943159 -10.31884765625 9.879816228693159Q-10.31884765625 11.339777166193159 -11.18212890625 12.222101384943159Q-12.04541015625 13.104425603693159 -13.47998046875 13.104425603693159Q-15.1240234375 13.104425603693159 -15.99365234375 11.844415838068159Q-16.86328125 10.584406072443159 -16.86328125 8.191339666193159Q-16.86328125 5.944269353693159 -15.796875 4.608087713068159Q-14.73046875 3.2719060724431586 -12.93408203125 3.2719060724431586Q-12.45166015625 3.2719060724431586 -11.959716796875 3.3671209161931586Q-11.4677734375 3.4623357599431586 -10.9345703125 3.6527654474431586Z" fill="#000"/></g><g transform="translate(115.00,65.00)" data-plotlet-kind="panel" data-plotlet-title="main" data-plotlet-xscale="linear" data-plotlet-yscale="linear" data-plotlet-xlim="-0.4,8.4" data-plotlet-ylim="-0.3,6.3" data-plotlet-panel-bbox="98,61,341,210" data-plotlet-data-area="17,4,320,180"><svg x="0" y="0" width="320.0" height="180.0" overflow="hidden"><g class="plotlet-artist" data-plotlet-type="imshow" data-plotlet-index="0" data-plotlet-rows="6" data-plotlet-cols="8" data-plotlet-vmin="0" data-plotlet-vmax="1" data-plotlet-cmap="viridis" data-plotlet-data-encoding="rects"><rect x="14.55" y="8.18" width="36.36" height="27.27" fill="rgb(40,124,142)"/><rect x="50.91" y="8.18" width="36.36" height="27.27" fill="rgb(33,145,140)"/><rect x="87.27" y="8.18" width="36.36" height="27.27" fill="rgb(32,164,134)"/><rect x="123.64" y="8.18" width="36.36" height="27.27" fill="rgb(53,183,121)"/><rect x="160.00" y="8.18" width="36.36" height="27.27" fill="rgb(92,200,99)"/><rect x="196.36" y="8.18" width="36.36" height="27.27" fill="rgb(144,215,67)"/><rect x="232.73" y="8.18" width="36.36" height="27.27" fill="rgb(200,224,32)"/><rect x="269.09" y="8.18" width="36.36" height="27.27" fill="rgb(253,231,37)"/><rect x="14.55" y="35.45" width="36.36" height="27.27" fill="rgb(49,104,142)"/><rect x="50.91" y="35.45" width="36.36" height="27.27" fill="rgb(40,124,142)"/><rect x="87.27" y="35.45" width="36.36" height="27.27" fill="rgb(33,145,140)"/><rect x="123.64" y="35.45" width="36.36" height="27.27" fill="rgb(32,164,134)"/><rect x="160.00" y="35.45" width="36.36" height="27.27" fill="rgb(53,183,121)"/><rect x="196.36" y="35.45" width="36.36" height="27.27" fill="rgb(92,200,99)"/><rect x="232.73" y="35.45" width="36.36" height="27.27" fill="rgb(144,215,67)"/><rect x="269.09" y="35.45" width="36.36" height="27.27" fill="rgb(200,224,32)"/><rect x="14.55" y="62.73" width="36.36" height="27.27" fill="rgb(59,82,139)"/><rect x="50.91" y="62.73" width="36.36" height="27.27" fill="rgb(49,104,142)"/><rect x="87.27" y="62.73" width="36.36" height="27.27" fill="rgb(40,124,142)"/><rect x="123.64" y="62.73" width="36.36" height="27.27" fill="rgb(33,145,140)"/><rect x="160.00" y="62.73" width="36.36" height="27.27" fill="rgb(32,164,134)"/><rect x="196.36" y="62.73" width="36.36" height="27.27" fill="rgb(53,183,121)"/><rect x="232.73" y="62.73" width="36.36" height="27.27" fill="rgb(92,200,99)"/><rect x="269.09" y="62.73" width="36.36" height="27.27" fill="rgb(144,215,67)"/><rect x="14.55" y="90.00" width="36.36" height="27.27" fill="rgb(68,58,131)"/><rect x="50.91" y="90.00" width="36.36" height="27.27" fill="rgb(59,82,139)"/><rect x="87.27" y="90.00" width="36.36" height="27.27" fill="rgb(49,104,142)"/><rect x="123.64" y="90.00" width="36.36" height="27.27" fill="rgb(40,124,142)"/><rect x="160.00" y="90.00" width="36.36" height="27.27" fill="rgb(33,145,140)"/><rect x="196.36" y="90.00" width="36.36" height="27.27" fill="rgb(32,164,134)"/><rect x="232.73" y="90.00" width="36.36" height="27.27" fill="rgb(53,183,121)"/><rect x="269.09" y="90.00" width="36.36" height="27.27" fill="rgb(92,200,99)"/><rect x="14.55" y="117.27" width="36.36" height="27.27" fill="rgb(72,31,112)"/><rect x="50.91" y="117.27" width="36.36" height="27.27" fill="rgb(68,58,131)"/><rect x="87.27" y="117.27" width="36.36" height="27.27" fill="rgb(59,82,139)"/><rect x="123.64" y="117.27" width="36.36" height="27.27" fill="rgb(49,104,142)"/><rect x="160.00" y="117.27" width="36.36" height="27.27" fill="rgb(40,124,142)"/><rect x="196.36" y="117.27" width="36.36" height="27.27" fill="rgb(33,145,140)"/><rect x="232.73" y="117.27" width="36.36" height="27.27" fill="rgb(32,164,134)"/><rect x="269.09" y="117.27" width="36.36" height="27.27" fill="rgb(53,183,121)"/><rect x="14.55" y="144.55" width="36.36" height="27.27" fill="rgb(68,1,84)"/><rect x="50.91" y="144.55" width="36.36" height="27.27" fill="rgb(72,31,112)"/><rect x="87.27" y="144.55" width="36.36" height="27.27" fill="rgb(68,58,131)"/><rect x="123.64" y="144.55" width="36.36" height="27.27" fill="rgb(59,82,139)"/><rect x="160.00" y="144.55" width="36.36" height="27.27" fill="rgb(49,104,142)"/><rect x="196.36" y="144.55" width="36.36" height="27.27" fill="rgb(40,124,142)"/><rect x="232.73" y="144.55" width="36.36" height="27.27" fill="rgb(33,145,140)"/><rect x="269.09" y="144.55" width="36.36" height="27.27" fill="rgb(32,164,134)"/></g></svg><line x1="0.00" x2="320.00" y1="0.00" y2="0.00" stroke="#000000" stroke-width="1.00"/><line x1="0.00" x2="320.00" y1="180.00" y2="180.00" stroke="#000000" stroke-width="1.00"/><line x1="0.00" x2="0.00" y1="0.00" y2="180.00" stroke="#000000" stroke-width="1.00"/><line x1="320.00" x2="320.00" y1="0.00" y2="180.00" stroke="#000000" stroke-width="1.00"/><line x1="14.55" x2="14.55" y1="180.00" y2="184.50" stroke="#000000" stroke-width="1.00"/><path d="M14.542280717329545 190.34423828125Q13.552046342329545 190.34423828125 13.053755326704545 191.318603515625Q12.555464311079545 192.29296875 12.555464311079545 194.248046875Q12.555464311079545 196.19677734375 13.053755326704545 197.171142578125Q13.552046342329545 198.1455078125 14.542280717329545 198.1455078125Q15.538862748579545 198.1455078125 16.037153764204547 197.171142578125Q16.535444779829547 196.19677734375 16.535444779829547 194.248046875Q16.535444779829547 192.29296875 16.037153764204547 191.318603515625Q15.538862748579545 190.34423828125 14.542280717329545 190.34423828125ZM14.542280717329545 189.32861328125Q16.135542436079547 189.32861328125 16.976606889204547 190.588623046875Q17.817671342329547 191.8486328125 17.817671342329547 194.248046875Q17.817671342329547 196.64111328125 16.976606889204547 197.901123046875Q16.135542436079547 199.1611328125 14.542280717329545 199.1611328125Q12.949018998579545 199.1611328125 12.107954545454545 197.901123046875Q11.266890092329545 196.64111328125 11.266890092329545 194.248046875Q11.266890092329545 191.8486328125 12.107954545454545 190.588623046875Q12.949018998579545 189.32861328125 14.542280717329545 189.32861328125Z" fill="#000"/><line x1="87.27" x2="87.27" y1="180.00" y2="184.50" stroke="#000000" stroke-width="1.00"/><path d="M85.63185813210227 197.89794921875H90.10695578835227V198.97705078125H84.08937766335227V197.89794921875Q84.81935813210227 197.142578125 86.07936789772727 195.869873046875Q87.33937766335227 194.59716796875 87.66310813210227 194.22900390625Q88.27883078835227 193.537109375 88.52321555397727 193.057861328125Q88.76760031960227 192.57861328125 88.76760031960227 192.115234375Q88.76760031960227 191.35986328125 88.23757102272727 190.8837890625Q87.70754172585227 190.40771484375 86.85695578835227 190.40771484375Q86.25392844460227 190.40771484375 85.58425071022727 190.6171875Q84.91457297585227 190.82666015625 84.15285422585227 191.251953125V189.95703125Q84.92726828835227 189.64599609375 85.60011985085227 189.4873046875Q86.27297141335227 189.32861328125 86.83156516335227 189.32861328125Q88.30422141335227 189.32861328125 89.18019797585227 190.06494140625Q90.05617453835227 190.80126953125 90.05617453835227 192.03271484375Q90.05617453835227 192.61669921875 89.83718039772727 193.140380859375Q89.61818625710227 193.6640625 89.04054953835227 194.375Q88.88185813210227 194.55908203125 88.03127219460227 195.438232421875Q87.18068625710227 196.3173828125 85.63185813210227 197.89794921875Z" fill="#000"/><line x1="160.00" x2="160.00" y1="180.00" y2="184.50" stroke="#000000" stroke-width="1.00"/><path d="M160.777587890625 190.6171875 157.540283203125 195.67626953125H160.777587890625ZM160.441162109375 189.5H162.053466796875V195.67626953125H163.405517578125V196.74267578125H162.053466796875V198.97705078125H160.777587890625V196.74267578125H156.499267578125V195.5048828125Z" fill="#000"/><line x1="232.73" x2="232.73" y1="180.00" y2="184.50" stroke="#000000" stroke-width="1.00"/><path d="M232.88279030539772 193.7275390625Q232.01950905539772 193.7275390625 231.51487038352272 194.31787109375Q231.01023171164772 194.908203125 231.01023171164772 195.9365234375Q231.01023171164772 196.95849609375 231.51487038352272 197.552001953125Q232.01950905539772 198.1455078125 232.88279030539772 198.1455078125Q233.74607155539772 198.1455078125 234.25071022727272 197.552001953125Q234.75534889914772 196.95849609375 234.75534889914772 195.9365234375Q234.75534889914772 194.908203125 234.25071022727272 194.31787109375Q233.74607155539772 193.7275390625 232.88279030539772 193.7275390625ZM235.42820046164772 189.70947265625V190.87744140625Q234.94577858664772 190.64892578125 234.45383522727272 190.5283203125Q233.96189186789772 190.40771484375 233.47946999289772 190.40771484375Q232.20993874289772 190.40771484375 231.54026100852272 191.2646484375Q230.87058327414772 192.12158203125 230.77536843039772 193.8544921875Q231.14988014914772 193.30224609375 231.71482155539772 193.007080078125Q232.27976296164772 192.7119140625 232.95896218039772 192.7119140625Q234.38718483664772 192.7119140625 235.21555397727272 193.578369140625Q236.04392311789772 194.44482421875 236.04392311789772 195.9365234375Q236.04392311789772 197.396484375 235.18064186789772 198.27880859375Q234.31736061789772 199.1611328125 232.88279030539772 199.1611328125Q231.23874733664772 199.1611328125 230.36911843039772 197.901123046875Q229.49948952414772 196.64111328125 229.49948952414772 194.248046875Q229.49948952414772 192.0009765625 230.56589577414772 190.664794921875Q231.63230202414772 189.32861328125 233.42868874289772 189.32861328125Q233.91111061789772 189.32861328125 234.40305397727272 189.423828125Q234.89499733664772 189.51904296875 235.42820046164772 189.70947265625Z" fill="#000"/><line x1="305.45" x2="305.45" y1="180.00" y2="184.50" stroke="#000000" stroke-width="1.00"/><path d="M305.45137162642044 194.4765625Q304.53730912642044 194.4765625 304.01362748579544 194.96533203125Q303.48994584517044 195.4541015625 303.48994584517044 196.31103515625Q303.48994584517044 197.16796875 304.01362748579544 197.65673828125Q304.53730912642044 198.1455078125 305.45137162642044 198.1455078125Q306.36543412642044 198.1455078125 306.89228959517044 197.653564453125Q307.41914506392044 197.16162109375 307.41914506392044 196.31103515625Q307.41914506392044 195.4541015625 306.89546342329544 194.96533203125Q306.37178178267044 194.4765625 305.45137162642044 194.4765625ZM304.16914506392044 193.9306640625Q303.34394975142044 193.7275390625 302.88374467329544 193.16259765625Q302.42353959517044 192.59765625 302.42353959517044 191.78515625Q302.42353959517044 190.64892578125 303.23286576704544 189.98876953125Q304.04219193892044 189.32861328125 305.45137162642044 189.32861328125Q306.86689897017044 189.32861328125 307.67305131392044 189.98876953125Q308.47920365767044 190.64892578125 308.47920365767044 191.78515625Q308.47920365767044 192.59765625 308.01899857954544 193.16259765625Q307.55879350142044 193.7275390625 306.73994584517044 193.9306640625Q307.66670365767044 194.146484375 308.18403764204544 194.77490234375Q308.70137162642044 195.4033203125 308.70137162642044 196.31103515625Q308.70137162642044 197.6884765625 307.86030717329544 198.4248046875Q307.01924272017044 199.1611328125 305.45137162642044 199.1611328125Q303.88350053267044 199.1611328125 303.04243607954544 198.4248046875Q302.20137162642044 197.6884765625 302.20137162642044 196.31103515625Q302.20137162642044 195.4033203125 302.72187943892044 194.77490234375Q303.24238725142044 194.146484375 304.16914506392044 193.9306640625ZM303.69941850142044 191.90576171875Q303.69941850142044 192.64208984375 304.15962357954544 193.0546875Q304.61982865767044 193.46728515625 305.45137162642044 193.46728515625Q306.27656693892044 193.46728515625 306.74311967329544 193.0546875Q307.20967240767044 192.64208984375 307.20967240767044 191.90576171875Q307.20967240767044 191.16943359375 306.74311967329544 190.7568359375Q306.27656693892044 190.34423828125 305.45137162642044 190.34423828125Q304.61982865767044 190.34423828125 304.15962357954544 190.7568359375Q303.69941850142044 191.16943359375 303.69941850142044 191.90576171875Z" fill="#000"/></g><g transform="translate(439.00,61.00)" data-plotlet-kind="legend" data-plotlet-legend-bbox="439,61,96,210"><g transform="translate(0,29.50)"><path d="M13.5634765625 12.169921875V14.34375H16.154296875V15.3212890625H13.5634765625V19.4775390625Q13.5634765625 20.4140625 13.81982421875 20.6806640625Q14.076171875 20.947265625 14.8623046875 20.947265625H16.154296875V22.0H14.8623046875Q13.40625 22.0 12.8525390625 21.45654296875Q12.298828125 20.9130859375 12.298828125 19.4775390625V15.3212890625H11.3759765625V14.34375H12.298828125V12.169921875ZM20.775390625 15.2255859375Q19.763671875 15.2255859375 19.17578125 16.01513671875Q18.587890625 16.8046875 18.587890625 18.1787109375Q18.587890625 19.552734375 19.17236328125 20.34228515625Q19.7568359375 21.1318359375 20.775390625 21.1318359375Q21.7802734375 21.1318359375 22.3681640625 20.3388671875Q22.9560546875 19.5458984375 22.9560546875 18.1787109375Q22.9560546875 16.818359375 22.3681640625 16.02197265625Q21.7802734375 15.2255859375 20.775390625 15.2255859375ZM20.775390625 14.1591796875Q22.416015625 14.1591796875 23.3525390625 15.2255859375Q24.2890625 16.2919921875 24.2890625 18.1787109375Q24.2890625 20.05859375 23.3525390625 21.12841796875Q22.416015625 22.1982421875 20.775390625 22.1982421875Q19.1279296875 22.1982421875 18.19482421875 21.12841796875Q17.26171875 20.05859375 17.26171875 18.1787109375Q17.26171875 16.2919921875 18.19482421875 15.2255859375Q19.1279296875 14.1591796875 20.775390625 14.1591796875ZM27.5908203125 20.8515625V24.912109375H26.326171875V14.34375H27.5908203125V15.505859375Q27.9873046875 14.822265625 28.59228515625 14.49072265625Q29.197265625 14.1591796875 30.0380859375 14.1591796875Q31.4326171875 14.1591796875 32.30419921875 15.2666015625Q33.17578125 16.3740234375 33.17578125 18.1787109375Q33.17578125 19.9833984375 32.30419921875 21.0908203125Q31.4326171875 22.1982421875 30.0380859375 22.1982421875Q29.197265625 22.1982421875 28.59228515625 21.86669921875Q27.9873046875 21.53515625 27.5908203125 20.8515625ZM31.8701171875 18.1787109375Q31.8701171875 16.791015625 31.29931640625 16.00146484375Q30.728515625 15.2119140625 29.73046875 15.2119140625Q28.732421875 15.2119140625 28.16162109375 16.00146484375Q27.5908203125 16.791015625 27.5908203125 18.1787109375Q27.5908203125 19.56640625 28.16162109375 20.35595703125Q28.732421875 21.1455078125 29.73046875 21.1455078125Q30.728515625 21.1455078125 31.29931640625 20.35595703125Q31.8701171875 19.56640625 31.8701171875 18.1787109375Z" fill="#000"/><line x1="11.00" x2="36.00" y1="35.50" y2="35.50" stroke="#1f77b4" stroke-width="2.00"/><path d="M48.34130859375 32.66357421875V33.75537109375Q47.84619140625 33.482421875 47.347900390625 33.345947265625Q46.849609375 33.20947265625 46.341796875 33.20947265625Q45.20556640625 33.20947265625 44.5771484375 33.929931640625Q43.94873046875 34.650390625 43.94873046875 35.95166015625Q43.94873046875 37.2529296875 44.5771484375 37.973388671875Q45.20556640625 38.69384765625 46.341796875 38.69384765625Q46.849609375 38.69384765625 47.347900390625 38.557373046875Q47.84619140625 38.4208984375 48.34130859375 38.14794921875V39.22705078125Q47.8525390625 39.45556640625 47.328857421875 39.56982421875Q46.80517578125 39.68408203125 46.21484375 39.68408203125Q44.60888671875 39.68408203125 43.6630859375 38.6748046875Q42.71728515625 37.66552734375 42.71728515625 35.95166015625Q42.71728515625 34.21240234375 43.672607421875 33.2158203125Q44.6279296875 32.21923828125 46.291015625 32.21923828125Q46.83056640625 32.21923828125 47.3447265625 32.330322265625Q47.85888671875 32.44140625 48.34130859375 32.66357421875ZM53.12744140625 33.20947265625Q52.18798828125 33.20947265625 51.64208984375 33.942626953125Q51.09619140625 34.67578125 51.09619140625 35.95166015625Q51.09619140625 37.2275390625 51.638916015625 37.960693359375Q52.181640625 38.69384765625 53.12744140625 38.69384765625Q54.060546875 38.69384765625 54.6064453125 37.95751953125Q55.15234375 37.22119140625 55.15234375 35.95166015625Q55.15234375 34.6884765625 54.6064453125 33.948974609375Q54.060546875 33.20947265625 53.12744140625 33.20947265625ZM53.12744140625 32.21923828125Q54.65087890625 32.21923828125 55.5205078125 33.20947265625Q56.39013671875 34.19970703125 56.39013671875 35.95166015625Q56.39013671875 37.697265625 55.5205078125 38.690673828125Q54.65087890625 39.68408203125 53.12744140625 39.68408203125Q51.59765625 39.68408203125 50.731201171875 38.690673828125Q49.86474609375 37.697265625 49.86474609375 35.95166015625Q49.86474609375 34.19970703125 50.731201171875 33.20947265625Q51.59765625 32.21923828125 53.12744140625 32.21923828125ZM58.20556640625 36.6943359375V32.390625H59.37353515625V36.64990234375Q59.37353515625 37.6591796875 59.76708984375 38.163818359375Q60.16064453125 38.66845703125 60.94775390625 38.66845703125Q61.8935546875 38.66845703125 62.442626953125 38.0654296875Q62.99169921875 37.46240234375 62.99169921875 36.42138671875V32.390625H64.15966796875V39.5H62.99169921875V38.408203125Q62.56640625 39.0556640625 62.004638671875 39.369873046875Q61.44287109375 39.68408203125 60.7001953125 39.68408203125Q59.47509765625 39.68408203125 58.84033203125 38.92236328125Q58.20556640625 38.16064453125 58.20556640625 36.6943359375ZM61.14453125 32.21923828125ZM72.47509765625 35.208984375V39.5H71.30712890625V35.2470703125Q71.30712890625 34.23779296875 70.91357421875 33.736328125Q70.52001953125 33.23486328125 69.73291015625 33.23486328125Q68.787109375 33.23486328125 68.2412109375 33.837890625Q67.6953125 34.44091796875 67.6953125 35.48193359375V39.5H66.52099609375V32.390625H67.6953125V33.4951171875Q68.1142578125 32.85400390625 68.682373046875 32.53662109375Q69.25048828125 32.21923828125 69.9931640625 32.21923828125Q71.21826171875 32.21923828125 71.8466796875 32.977783203125Q72.47509765625 33.736328125 72.47509765625 35.208984375ZM75.9599609375 30.3720703125V32.390625H78.36572265625V33.29833984375H75.9599609375V37.15771484375Q75.9599609375 38.02734375 76.197998046875 38.27490234375Q76.43603515625 38.5224609375 77.166015625 38.5224609375H78.36572265625V39.5H77.166015625Q75.81396484375 39.5 75.2998046875 38.995361328125Q74.78564453125 38.49072265625 74.78564453125 37.15771484375V33.29833984375H73.9287109375V32.390625H74.78564453125V30.3720703125ZM84.43408203125 32.60009765625V33.70458984375Q83.93896484375 33.45068359375 83.40576171875 33.32373046875Q82.87255859375 33.19677734375 82.30126953125 33.19677734375Q81.431640625 33.19677734375 80.996826171875 33.46337890625Q80.56201171875 33.72998046875 80.56201171875 34.26318359375Q80.56201171875 34.66943359375 80.873046875 34.901123046875Q81.18408203125 35.1328125 82.12353515625 35.34228515625L82.5234375 35.43115234375Q83.767578125 35.69775390625 84.291259765625 36.183349609375Q84.81494140625 36.6689453125 84.81494140625 37.53857421875Q84.81494140625 38.52880859375 84.031005859375 39.1064453125Q83.2470703125 39.68408203125 81.8759765625 39.68408203125Q81.3046875 39.68408203125 80.685791015625 39.572998046875Q80.06689453125 39.4619140625 79.38134765625 39.23974609375V38.03369140625Q80.02880859375 38.3701171875 80.6572265625 38.538330078125Q81.28564453125 38.70654296875 81.9013671875 38.70654296875Q82.7265625 38.70654296875 83.1708984375 38.424072265625Q83.615234375 38.1416015625 83.615234375 37.62744140625Q83.615234375 37.1513671875 83.294677734375 36.8974609375Q82.97412109375 36.6435546875 81.888671875 36.40869140625L81.482421875 36.3134765625Q80.39697265625 36.0849609375 79.91455078125 35.612060546875Q79.43212890625 35.13916015625 79.43212890625 34.31396484375Q79.43212890625 33.31103515625 80.14306640625 32.76513671875Q80.85400390625 32.21923828125 82.16162109375 32.21923828125Q82.80908203125 32.21923828125 83.38037109375 32.314453125Q83.95166015625 32.40966796875 84.43408203125 32.60009765625Z" fill="#000"/><path d="M11.38720703125 61.890625H12.625L14.8466796875 67.857421875L17.068359375 61.890625H18.30615234375L15.64013671875 69.0H14.05322265625ZM23.1494140625 65.42626953125Q21.73388671875 65.42626953125 21.18798828125 65.75Q20.64208984375 66.07373046875 20.64208984375 66.8544921875Q20.64208984375 67.4765625 21.051513671875 67.841552734375Q21.4609375 68.20654296875 22.16552734375 68.20654296875Q23.13671875 68.20654296875 23.723876953125 67.517822265625Q24.31103515625 66.8291015625 24.31103515625 65.6865234375V65.42626953125ZM25.47900390625 64.94384765625V69.0H24.31103515625V67.9208984375Q23.9111328125 68.568359375 23.314453125 68.876220703125Q22.7177734375 69.18408203125 21.8544921875 69.18408203125Q20.7626953125 69.18408203125 20.118408203125 68.571533203125Q19.47412109375 67.958984375 19.47412109375 66.9306640625Q19.47412109375 65.73095703125 20.277099609375 65.12158203125Q21.080078125 64.51220703125 22.67333984375 64.51220703125H24.31103515625V64.39794921875Q24.31103515625 63.591796875 23.781005859375 63.150634765625Q23.2509765625 62.70947265625 22.29248046875 62.70947265625Q21.68310546875 62.70947265625 21.10546875 62.85546875Q20.52783203125 63.00146484375 19.99462890625 63.29345703125V62.21435546875Q20.6357421875 61.966796875 21.23876953125 61.843017578125Q21.841796875 61.71923828125 22.4130859375 61.71923828125Q23.95556640625 61.71923828125 24.71728515625 62.51904296875Q25.47900390625 63.31884765625 25.47900390625 64.94384765625ZM27.884765625 59.123046875H29.052734375V69.0H27.884765625ZM31.3759765625 66.1943359375V61.890625H32.5439453125V66.14990234375Q32.5439453125 67.1591796875 32.9375 67.663818359375Q33.3310546875 68.16845703125 34.1181640625 68.16845703125Q35.06396484375 68.16845703125 35.613037109375 67.5654296875Q36.162109375 66.96240234375 36.162109375 65.92138671875V61.890625H37.330078125V69.0H36.162109375V67.908203125Q35.73681640625 68.5556640625 35.175048828125 68.869873046875Q34.61328125 69.18408203125 33.87060546875 69.18408203125Q32.6455078125 69.18408203125 32.0107421875 68.42236328125Q31.3759765625 67.66064453125 31.3759765625 66.1943359375ZM34.31494140625 61.71923828125ZM45.81689453125 65.1533203125V65.724609375H40.44677734375Q40.52294921875 66.9306640625 41.173583984375 67.562255859375Q41.82421875 68.19384765625 42.98583984375 68.19384765625Q43.65869140625 68.19384765625 44.290283203125 68.02880859375Q44.921875 67.86376953125 45.5439453125 67.53369140625V68.63818359375Q44.91552734375 68.90478515625 44.25537109375 69.04443359375Q43.59521484375 69.18408203125 42.916015625 69.18408203125Q41.21484375 69.18408203125 40.221435546875 68.19384765625Q39.22802734375 67.20361328125 39.22802734375 65.51513671875Q39.22802734375 63.76953125 40.170654296875 62.744384765625Q41.11328125 61.71923828125 42.712890625 61.71923828125Q44.1474609375 61.71923828125 44.982177734375 62.642822265625Q45.81689453125 63.56640625 45.81689453125 65.1533203125ZM44.64892578125 64.810546875Q44.63623046875 63.85205078125 44.112548828125 63.28076171875Q43.5888671875 62.70947265625 42.7255859375 62.70947265625Q41.748046875 62.70947265625 41.160888671875 63.26171875Q40.57373046875 63.81396484375 40.48486328125 64.81689453125Z" fill="#000"/><rect x="11.00" y="73.00" width="19.00" height="3.12" fill="rgb(253,231,37)"/><rect x="11.00" y="75.12" width="19.00" height="3.12" fill="rgb(234,229,26)"/><rect x="11.00" y="77.24" width="19.00" height="3.12" fill="rgb(213,226,26)"/><rect x="11.00" y="79.36" width="19.00" height="3.12" fill="rgb(192,223,37)"/><rect x="11.00" y="81.48" width="19.00" height="3.12" fill="rgb(170,220,50)"/><rect x="11.00" y="83.61" width="19.00" height="3.12" fill="rgb(149,216,64)"/><rect x="11.00" y="85.73" width="19.00" height="3.12" fill="rgb(129,211,77)"/><rect x="11.00" y="87.85" width="19.00" height="3.12" fill="rgb(110,206,88)"/><rect x="11.00" y="89.97" width="19.00" height="3.12" fill="rgb(92,200,99)"/><rect x="11.00" y="92.09" width="19.00" height="3.12" fill="rgb(76,194,108)"/><rect x="11.00" y="94.21" width="19.00" height="3.12" fill="rgb(61,188,116)"/><rect x="11.00" y="96.33" width="19.00" height="3.12" fill="rgb(49,181,123)"/><rect x="11.00" y="98.45" width="19.00" height="3.12" fill="rgb(39,173,129)"/><rect x="11.00" y="100.58" width="19.00" height="3.12" fill="rgb(33,166,133)"/><rect x="11.00" y="102.70" width="19.00" height="3.12" fill="rgb(31,159,136)"/><rect x="11.00" y="104.82" width="19.00" height="3.12" fill="rgb(31,151,139)"/><rect x="11.00" y="106.94" width="19.00" height="3.12" fill="rgb(33,145,140)"/><rect x="11.00" y="109.06" width="19.00" height="3.12" fill="rgb(35,137,142)"/><rect x="11.00" y="111.18" width="19.00" height="3.12" fill="rgb(38,130,142)"/><rect x="11.00" y="113.30" width="19.00" height="3.12" fill="rgb(41,122,142)"/><rect x="11.00" y="115.42" width="19.00" height="3.12" fill="rgb(44,114,142)"/><rect x="11.00" y="117.55" width="19.00" height="3.12" fill="rgb(47,107,142)"/><rect x="11.00" y="119.67" width="19.00" height="3.12" fill="rgb(51,99,141)"/><rect x="11.00" y="121.79" width="19.00" height="3.12" fill="rgb(55,91,141)"/><rect x="11.00" y="123.91" width="19.00" height="3.12" fill="rgb(59,82,139)"/><rect x="11.00" y="126.03" width="19.00" height="3.12" fill="rgb(62,73,137)"/><rect x="11.00" y="128.15" width="19.00" height="3.12" fill="rgb(66,64,134)"/><rect x="11.00" y="130.27" width="19.00" height="3.12" fill="rgb(69,55,129)"/><rect x="11.00" y="132.39" width="19.00" height="3.12" fill="rgb(71,45,123)"/><rect x="11.00" y="134.52" width="19.00" height="3.12" fill="rgb(72,35,116)"/><rect x="11.00" y="136.64" width="19.00" height="3.12" fill="rgb(72,24,106)"/><rect x="11.00" y="138.76" width="19.00" height="3.12" fill="rgb(71,13,96)"/><rect x="11.00" y="140.88" width="19.00" height="2.12" fill="rgb(68,1,84)"/><rect x="11.00" y="73.00" width="19.00" height="70.00" fill="none" stroke="#000000" stroke-width="1.00"/><line x1="30.00" x2="34.50" y1="143.00" y2="143.00" stroke="#000000" stroke-width="1.00"/><path d="M43.63232421875 134.3671875Q42.64208984375 134.3671875 42.143798828125 135.341552734375Q41.6455078125 136.31591796875 41.6455078125 138.27099609375Q41.6455078125 140.2197265625 42.143798828125 141.194091796875Q42.64208984375 142.16845703125 43.63232421875 142.16845703125Q44.62890625 142.16845703125 45.127197265625 141.194091796875Q45.62548828125 140.2197265625 45.62548828125 138.27099609375Q45.62548828125 136.31591796875 45.127197265625 135.341552734375Q44.62890625 134.3671875 43.63232421875 134.3671875ZM43.63232421875 133.3515625Q45.2255859375 133.3515625 46.066650390625 134.611572265625Q46.90771484375 135.87158203125 46.90771484375 138.27099609375Q46.90771484375 140.6640625 46.066650390625 141.924072265625Q45.2255859375 143.18408203125 43.63232421875 143.18408203125Q42.0390625 143.18408203125 41.197998046875 141.924072265625Q40.35693359375 140.6640625 40.35693359375 138.27099609375Q40.35693359375 135.87158203125 41.197998046875 134.611572265625Q42.0390625 133.3515625 43.63232421875 133.3515625Z" fill="#000"/><line x1="30.00" x2="34.50" y1="108.00" y2="108.00" stroke="#000000" stroke-width="1.00"/><path d="M43.63232421875 103.3671875Q42.64208984375 103.3671875 42.143798828125 104.341552734375Q41.6455078125 105.31591796875 41.6455078125 107.27099609375Q41.6455078125 109.2197265625 42.143798828125 110.194091796875Q42.64208984375 111.16845703125 43.63232421875 111.16845703125Q44.62890625 111.16845703125 45.127197265625 110.194091796875Q45.62548828125 109.2197265625 45.62548828125 107.27099609375Q45.62548828125 105.31591796875 45.127197265625 104.341552734375Q44.62890625 103.3671875 43.63232421875 103.3671875ZM43.63232421875 102.3515625Q45.2255859375 102.3515625 46.066650390625 103.611572265625Q46.90771484375 104.87158203125 46.90771484375 107.27099609375Q46.90771484375 109.6640625 46.066650390625 110.924072265625Q45.2255859375 112.18408203125 43.63232421875 112.18408203125Q42.0390625 112.18408203125 41.197998046875 110.924072265625Q40.35693359375 109.6640625 40.35693359375 107.27099609375Q40.35693359375 104.87158203125 41.197998046875 103.611572265625Q42.0390625 102.3515625 43.63232421875 102.3515625ZM49.1611328125 110.3876953125H50.50048828125V112.0H49.1611328125ZM53.30615234375 102.52294921875H58.33984375V103.60205078125H54.48046875V105.92529296875Q54.759765625 105.830078125 55.0390625 105.782470703125Q55.318359375 105.73486328125 55.59765625 105.73486328125Q57.1845703125 105.73486328125 58.111328125 106.6044921875Q59.0380859375 107.47412109375 59.0380859375 108.95947265625Q59.0380859375 110.4892578125 58.0859375 111.336669921875Q57.1337890625 112.18408203125 55.40087890625 112.18408203125Q54.80419921875 112.18408203125 54.185302734375 112.08251953125Q53.56640625 111.98095703125 52.90625 111.77783203125V110.4892578125Q53.4775390625 110.80029296875 54.0869140625 110.95263671875Q54.6962890625 111.10498046875 55.37548828125 111.10498046875Q56.4736328125 111.10498046875 57.11474609375 110.52734375Q57.755859375 109.94970703125 57.755859375 108.95947265625Q57.755859375 107.96923828125 57.11474609375 107.3916015625Q56.4736328125 106.81396484375 55.37548828125 106.81396484375Q54.861328125 106.81396484375 54.350341796875 106.92822265625Q53.83935546875 107.04248046875 53.30615234375 107.28369140625Z" fill="#000"/><line x1="30.00" x2="34.50" y1="73.00" y2="73.00" stroke="#000000" stroke-width="1.00"/><path d="M41.1123046875 79.9208984375H43.20703125V72.69091796875L40.92822265625 73.14794921875V71.97998046875L43.1943359375 71.52294921875H44.4765625V79.9208984375H46.5712890625V81.0H41.1123046875Z" fill="#000"/></g></g></svg>