<svg xmlns="http://www.w3.org/2000/svg" width="491" height="189" viewBox="0 0 491 189" font-family="DejaVu Sans, Bitstream Vera Sans, Verdana, Arial, sans-serif" font-size="11" style="background:#fff" data-plotlet-version="0.4.5" data-plotlet-schema="2" data-plotlet-kind="layout"><g transform="translate(22.00,27.00)" data-plotlet-kind="panel" data-plotlet-title="alpha" data-plotlet-xscale="linear" data-plotlet-yscale="linear" data-plotlet-xlim="-0.315,6.615" data-plotlet-ylim="-1.09989810059,1.09954844607" data-plotlet-panel-bbox="0,0,209,189" data-plotlet-data-area="22,27,180,140"><svg x="0" y="0" width="180.0" height="140" overflow="hidden"><g class="plotlet-artist" data-plotlet-type="line" data-plotlet-index="0" data-plotlet-label="sin" data-plotlet-color="#1f77b4" data-plotlet-n="64" data-plotlet-x-min="0.0" data-plotlet-x-max="6.300000000000001" data-plotlet-y-min="-0.9999232575641008" data-plotlet-y-max="0.9995736030415051"><path d="M8.18,69.99L10.78,63.63L13.38,57.34L15.97,51.18L18.57,45.20L21.17,39.47L23.77,34.05L26.36,28.98L28.96,24.33L31.56,20.13L34.16,16.43L36.75,13.26L39.35,10.66L41.95,8.66L44.55,7.26L47.14,6.50L49.74,6.36L52.34,6.87L54.94,8.00L57.53,9.75L60.13,12.11L62.73,15.04L65.32,18.53L67.92,22.52L70.52,26.99L73.12,31.89L75.71,37.18L78.31,42.79L80.91,48.67L83.51,54.76L86.10,61.01L88.70,67.34L91.30,73.70L93.90,80.03L96.49,86.25L99.09,92.32L101.69,98.16L104.29,103.71L106.88,108.94L109.48,113.77L112.08,118.16L114.68,122.07L117.27,125.47L119.87,128.31L122.47,130.56L125.06,132.21L127.66,133.24L130.26,133.64L132.86,133.40L135.45,132.52L138.05,131.03L140.65,128.92L143.25,126.22L145.84,122.96L148.44,119.18L151.04,114.90L153.64,110.17L156.23,105.04L158.83,99.56L161.43,93.79L164.03,87.77L166.62,81.58L169.22,75.28L171.82,68.92" fill="none" stroke="#1f77b4" stroke-width="1.5"/></g></svg><line x1="0" y1="0" x2="180.0" y2="0" stroke="#000000" stroke-width="0.8"/><line x1="0" y1="140" x2="180.0" y2="140" stroke="#000000" stroke-width="0.8"/><line x1="0" y1="0" x2="0" y2="140" stroke="#000000" stroke-width="0.8"/><line x1="180.0" y1="0" x2="180.0" y2="140" stroke="#000000" stroke-width="0.8"/><line x1="8.18" x2="8.18" y1="140" y2="143.5" stroke="#000000" stroke-width="0.8"/><path d="M8.179132634943182 148.21435546875Q7.341242009943182 148.21435546875 6.919611150568182 149.038818359375Q6.497980291193182 149.86328125 6.497980291193182 151.517578125Q6.497980291193182 153.16650390625 6.919611150568182 153.990966796875Q7.341242009943182 154.8154296875 8.179132634943182 154.8154296875Q9.022394353693182 154.8154296875 9.444025213068182 153.990966796875Q9.865656072443182 153.16650390625 9.865656072443182 151.517578125Q9.865656072443182 149.86328125 9.444025213068182 149.038818359375Q9.022394353693182 148.21435546875 8.179132634943182 148.21435546875ZM8.179132634943182 147.35498046875Q9.527277166193182 147.35498046875 10.238947088068182 148.421142578125Q10.950617009943182 149.4873046875 10.950617009943182 151.517578125Q10.950617009943182 153.54248046875 10.238947088068182 154.608642578125Q9.527277166193182 155.6748046875 8.179132634943182 155.6748046875Q6.830988103693182 155.6748046875 6.119318181818182 154.608642578125Q5.407648259943182 153.54248046875 5.407648259943182 151.517578125Q5.407648259943182 149.4873046875 6.119318181818182 148.421142578125Q6.830988103693182 147.35498046875 8.179132634943182 147.35498046875Z" fill="#000"/><line x1="138.05" x2="138.05" y1="140" y2="143.5" stroke="#000000" stroke-width="0.8"/><path d="M135.73969219257302 147.5H139.99896953632302V148.4130859375H136.73334453632302V150.37890625Q136.96967266132302 150.29833984375 137.20600078632302 150.258056640625Q137.44232891132302 150.2177734375 137.67865703632302 150.2177734375Q139.02143047382302 150.2177734375 139.80561016132302 150.95361328125Q140.58978984882302 151.689453125 140.58978984882302 152.9462890625Q140.58978984882302 154.24072265625 139.78412578632302 154.957763671875Q138.97846172382302 155.6748046875 137.51215313007302 155.6748046875Q137.00727031757302 155.6748046875 136.48358867694802 155.5888671875Q135.95990703632302 155.5029296875 135.40131328632302 155.3310546875V154.24072265625Q135.88471172382302 154.50390625 136.40033672382302 154.6328125Q136.91596172382302 154.76171875 137.49066875507302 154.76171875Q138.41986797382302 154.76171875 138.96234844257302 154.27294921875Q139.50482891132302 153.7841796875 139.50482891132302 152.9462890625Q139.50482891132302 152.1083984375 138.96234844257302 151.61962890625Q138.41986797382302 151.130859375 137.49066875507302 151.130859375Q137.05561016132302 151.130859375 136.62323711444802 151.2275390625Q136.19086406757302 151.32421875 135.73969219257302 151.5283203125Z" fill="#000"/><line x1="0" x2="-3.5" y1="133.64" y2="133.64" stroke="#000000" stroke-width="0.8"/><path d="M-17.9306640625 134.19715667792318H-15.03564453125V135.07801605292318H-17.9306640625ZM-13.13427734375 136.73768402167318H-11.36181640625V130.62000824042318L-13.2900390625 131.00672699042318V130.01844574042318L-11.37255859375 129.63172699042318H-10.28759765625V136.73768402167318H-8.51513671875V137.65076995917318H-13.13427734375Z" fill="#000"/><line x1="0" x2="-3.5" y1="69.99" y2="69.99" stroke="#000000" stroke-width="0.8"/><path d="M-11.001953125 66.69370581369098Q-11.83984375 66.69370581369098 -12.261474609375 67.51816870431598Q-12.68310546875 68.34263159494098 -12.68310546875 69.99692846994098Q-12.68310546875 71.64585425119098 -12.261474609375 72.47031714181598Q-11.83984375 73.29478003244098 -11.001953125 73.29478003244098Q-10.15869140625 73.29478003244098 -9.737060546875 72.47031714181598Q-9.3154296875 71.64585425119098 -9.3154296875 69.99692846994098Q-9.3154296875 68.34263159494098 -9.737060546875 67.51816870431598Q-10.15869140625 66.69370581369098 -11.001953125 66.69370581369098ZM-11.001953125 65.83433081369098Q-9.65380859375 65.83433081369098 -8.942138671875 66.90049292306598Q-8.23046875 67.96665503244098 -8.23046875 69.99692846994098Q-8.23046875 72.02183081369098 -8.942138671875 73.08799292306598Q-9.65380859375 74.15415503244098 -11.001953125 74.15415503244098Q-12.35009765625 74.15415503244098 -13.061767578125 73.08799292306598Q-13.7734375 72.02183081369098 -13.7734375 69.99692846994098Q-13.7734375 67.96665503244098 -13.061767578125 66.90049292306598Q-12.35009765625 65.83433081369098 -11.001953125 65.83433081369098Z" fill="#000"/><line x1="0" x2="-3.5" y1="6.34" y2="6.34" stroke="#000000" stroke-width="0.8"/><path d="M-13.13427734375 9.432930730708733H-11.36181640625V3.3152549494587333L-13.2900390625 3.7019736994587333V2.7136924494587333L-11.37255859375 2.3269736994587333H-10.28759765625V9.432930730708733H-8.51513671875V10.346016668208733H-13.13427734375Z" fill="#000"/><path d="M76.438232421875 -13.57373046875Q75.022705078125 -13.57373046875 74.476806640625 -13.25Q73.930908203125 -12.92626953125 73.930908203125 -12.1455078125Q73.930908203125 -11.5234375 74.34033203125 -11.158447265625Q74.749755859375 -10.79345703125 75.454345703125 -10.79345703125Q76.425537109375 -10.79345703125 77.0126953125 -11.482177734375Q77.599853515625 -12.1708984375 77.599853515625 -13.3134765625V-13.57373046875ZM78.767822265625 -14.05615234375V-10.0H77.599853515625V-11.0791015625Q77.199951171875 -10.431640625 76.603271484375 -10.123779296875Q76.006591796875 -9.81591796875 75.143310546875 -9.81591796875Q74.051513671875 -9.81591796875 73.4072265625 -10.428466796875Q72.762939453125 -11.041015625 72.762939453125 -12.0693359375Q72.762939453125 -13.26904296875 73.56591796875 -13.87841796875Q74.368896484375 -14.48779296875 75.962158203125 -14.48779296875H77.599853515625V-14.60205078125Q77.599853515625 -15.408203125 77.06982421875 -15.849365234375Q76.539794921875 -16.29052734375 75.581298828125 -16.29052734375Q74.971923828125 -16.29052734375 74.394287109375 -16.14453125Q73.816650390625 -15.99853515625 73.283447265625 -15.70654296875V-16.78564453125Q73.924560546875 -17.033203125 74.527587890625 -17.156982421875Q75.130615234375 -17.28076171875 75.701904296875 -17.28076171875Q77.244384765625 -17.28076171875 78.006103515625 -16.48095703125Q78.767822265625 -15.68115234375 78.767822265625 -14.05615234375ZM81.173583984375 -19.876953125H82.341552734375V-10.0H81.173583984375ZM85.915283203125 -11.06640625V-7.2958984375H84.740966796875V-17.109375H85.915283203125V-16.0302734375Q86.283447265625 -16.6650390625 86.84521484375 -16.972900390625Q87.406982421875 -17.28076171875 88.187744140625 -17.28076171875Q89.482666015625 -17.28076171875 90.2919921875 -16.25244140625Q91.101318359375 -15.22412109375 91.101318359375 -13.54833984375Q91.101318359375 -11.87255859375 90.2919921875 -10.84423828125Q89.482666015625 -9.81591796875 88.187744140625 -9.81591796875Q87.406982421875 -9.81591796875 86.84521484375 -10.123779296875Q86.283447265625 -10.431640625 85.915283203125 -11.06640625ZM89.888916015625 -13.54833984375Q89.888916015625 -14.8369140625 89.35888671875 -15.570068359375Q88.828857421875 -16.30322265625 87.902099609375 -16.30322265625Q86.975341796875 -16.30322265625 86.4453125 -15.570068359375Q85.915283203125 -14.8369140625 85.915283203125 -13.54833984375Q85.915283203125 -12.259765625 86.4453125 -11.526611328125Q86.975341796875 -10.79345703125 87.902099609375 -10.79345703125Q88.828857421875 -10.79345703125 89.35888671875 -11.526611328125Q89.888916015625 -12.259765625 89.888916015625 -13.54833984375ZM98.947021484375 -14.291015625V-10.0H97.779052734375V-14.2529296875Q97.779052734375 -15.26220703125 97.385498046875 -15.763671875Q96.991943359375 -16.26513671875 96.204833984375 -16.26513671875Q95.259033203125 -16.26513671875 94.713134765625 -15.662109375Q94.167236328125 -15.05908203125 94.167236328125 -14.01806640625V-10.0H92.992919921875V-19.876953125H94.167236328125V-16.0048828125Q94.586181640625 -16.64599609375 95.154296875 -16.96337890625Q95.722412109375 -17.28076171875 96.465087890625 -17.28076171875Q97.690185546875 -17.28076171875 98.318603515625 -16.522216796875Q98.947021484375 -15.763671875 98.947021484375 -14.291015625ZM104.507568359375 -13.57373046875Q103.092041015625 -13.57373046875 102.546142578125 -13.25Q102.000244140625 -12.92626953125 102.000244140625 -12.1455078125Q102.000244140625 -11.5234375 102.40966796875 -11.158447265625Q102.819091796875 -10.79345703125 103.523681640625 -10.79345703125Q104.494873046875 -10.79345703125 105.08203125 -11.482177734375Q105.669189453125 -12.1708984375 105.669189453125 -13.3134765625V-13.57373046875ZM106.837158203125 -14.05615234375V-10.0H105.669189453125V-11.0791015625Q105.269287109375 -10.431640625 104.672607421875 -10.123779296875Q104.075927734375 -9.81591796875 103.212646484375 -9.81591796875Q102.120849609375 -9.81591796875 101.4765625 -10.428466796875Q100.832275390625 -11.041015625 100.832275390625 -12.0693359375Q100.832275390625 -13.26904296875 101.63525390625 -13.87841796875Q102.438232421875 -14.48779296875 104.031494140625 -14.48779296875H105.669189453125V-14.60205078125Q105.669189453125 -15.408203125 105.13916015625 -15.849365234375Q104.609130859375 -16.29052734375 103.650634765625 -16.29052734375Q103.041259765625 -16.29052734375 102.463623046875 -16.14453125Q101.885986328125 -15.99853515625 101.352783203125 -15.70654296875V-16.78564453125Q101.993896484375 -17.033203125 102.596923828125 -17.156982421875Q103.199951171875 -17.28076171875 103.771240234375 -17.28076171875Q105.313720703125 -17.28076171875 106.075439453125 -16.48095703125Q106.837158203125 -15.68115234375 106.837158203125 -14.05615234375Z" fill="#000"/></g><g transform="translate(231.00,27.00)" data-plotlet-kind="panel" data-plotlet-title="beta" data-plotlet-xscale="linear" data-plotlet-yscale="linear" data-plotlet-xlim="-0.315,6.615" data-plotlet-ylim="-1.09909190779,1.09995675751" data-plotlet-panel-bbox="209,0,209,189" data-plotlet-data-area="22,27,180,140"><svg x="0" y="0" width="180.0" height="140" overflow="hidden"><g class="plotlet-artist" data-plotlet-type="line" data-plotlet-index="0" data-plotlet-label="cos" data-plotlet-color="#1f77b4" data-plotlet-n="64" data-plotlet-x-min="0.0" data-plotlet-x-max="6.300000000000001" data-plotlet-y-min="-0.9991351502732795" data-plotlet-y-max="1.0"><path d="M8.18,6.36L10.78,6.68L13.38,7.63L15.97,9.21L18.57,11.39L21.17,14.16L23.77,17.48L26.36,21.33L28.96,25.67L31.56,30.45L34.16,35.63L36.75,41.15L39.35,46.96L41.95,53.00L44.55,59.21L47.14,65.52L49.74,71.89L52.34,78.23L54.94,84.49L57.53,90.61L60.13,96.52L62.73,102.17L65.32,107.49L67.92,112.45L70.52,116.97L73.12,121.03L75.71,124.58L78.31,127.58L80.91,130.01L83.51,131.84L86.10,133.05L88.70,133.64L91.30,133.58L93.90,132.89L96.49,131.58L99.09,129.65L101.69,127.12L104.29,124.02L106.88,120.38L109.48,116.24L112.08,111.64L114.68,106.62L117.27,101.24L119.87,95.54L122.47,89.59L125.06,83.45L127.66,77.17L130.26,70.82L132.86,64.46L135.45,58.15L138.05,51.97L140.65,45.96L143.25,40.20L145.84,34.73L148.44,29.62L151.04,24.91L153.64,20.65L156.23,16.89L158.83,13.65L161.43,10.98L164.03,8.90L166.62,7.43L169.22,6.58L171.82,6.37" fill="none" stroke="#1f77b4" stroke-width="1.5"/></g></svg><line x1="0" y1="0" x2="180.0" y2="0" stroke="#000000" stroke-width="0.8"/><line x1="0" y1="140" x2="180.0" y2="140" stroke="#000000" stroke-width="0.8"/><line x1="0" y1="0" x2="0" y2="140" stroke="#000000" stroke-width="0.8"/><line x1="180.0" y1="0" x2="180.0" y2="140" stroke="#000000" stroke-width="0.8"/><line x1="8.18" x2="8.18" y1="140" y2="143.5" stroke="#000000" stroke-width="0.8"/><path d="M8.179132634943182 148.21435546875Q7.341242009943182 148.21435546875 6.919611150568182 149.038818359375Q6.497980291193182 149.86328125 6.497980291193182 151.517578125Q6.497980291193182 153.16650390625 6.919611150568182 153.990966796875Q7.341242009943182 154.8154296875 8.179132634943182 154.8154296875Q9.022394353693182 154.8154296875 9.444025213068182 153.990966796875Q9.865656072443182 153.16650390625 9.865656072443182 151.517578125Q9.865656072443182 149.86328125 9.444025213068182 149.038818359375Q9.022394353693182 148.21435546875 8.179132634943182 148.21435546875ZM8.179132634943182 147.35498046875Q9.527277166193182 147.35498046875 10.238947088068182 148.421142578125Q10.950617009943182 149.4873046875 10.950617009943182 151.517578125Q10.950617009943182 153.54248046875 10.238947088068182 154.608642578125Q9.527277166193182 155.6748046875 8.179132634943182 155.6748046875Q6.830988103693182 155.6748046875 6.119318181818182 154.608642578125Q5.407648259943182 153.54248046875 5.407648259943182 151.517578125Q5.407648259943182 149.4873046875 6.119318181818182 148.421142578125Q6.830988103693182 147.35498046875 8.179132634943182 147.35498046875Z" fill="#000"/><line x1="138.05" x2="138.05" y1="140" y2="143.5" stroke="#000000" stroke-width="0.8"/><path d="M135.73969219257302 147.5H139.99896953632302V148.4130859375H136.73334453632302V150.37890625Q136.96967266132302 150.29833984375 137.20600078632302 150.258056640625Q137.44232891132302 150.2177734375 137.67865703632302 150.2177734375Q139.02143047382302 150.2177734375 139.80561016132302 150.95361328125Q140.58978984882302 151.689453125 140.58978984882302 152.9462890625Q140.58978984882302 154.24072265625 139.78412578632302 154.957763671875Q138.97846172382302 155.6748046875 137.51215313007302 155.6748046875Q137.00727031757302 155.6748046875 136.48358867694802 155.5888671875Q135.95990703632302 155.5029296875 135.40131328632302 155.3310546875V154.24072265625Q135.88471172382302 154.50390625 136.40033672382302 154.6328125Q136.91596172382302 154.76171875 137.49066875507302 154.76171875Q138.41986797382302 154.76171875 138.96234844257302 154.27294921875Q139.50482891132302 153.7841796875 139.50482891132302 152.9462890625Q139.50482891132302 152.1083984375 138.96234844257302 151.61962890625Q138.41986797382302 151.130859375 137.49066875507302 151.130859375Q137.05561016132302 151.130859375 136.62323711444802 151.2275390625Q136.19086406757302 151.32421875 135.73969219257302 151.5283203125Z" fill="#000"/><line x1="0" x2="-3.5" y1="133.69" y2="133.69" stroke="#000000" stroke-width="0.8"/><path d="M-17.9306640625 134.24733154037267H-15.03564453125V135.12819091537267H-17.9306640625ZM-13.13427734375 136.78785888412267H-11.36181640625V130.67018310287267L-13.2900390625 131.05690185287267V130.06862060287267L-11.37255859375 129.68190185287267H-10.28759765625V136.78785888412267H-8.51513671875V137.70094482162267H-13.13427734375Z" fill="#000"/><line x1="0" x2="-3.5" y1="70.03" y2="70.03" stroke="#000000" stroke-width="0.8"/><path d="M-11.001953125 66.73236383481701Q-11.83984375 66.73236383481701 -12.261474609375 67.55682672544201Q-12.68310546875 68.38128961606701 -12.68310546875 70.03558649106701Q-12.68310546875 71.68451227231701 -12.261474609375 72.50897516294201Q-11.83984375 73.33343805356701 -11.001953125 73.33343805356701Q-10.15869140625 73.33343805356701 -9.737060546875 72.50897516294201Q-9.3154296875 71.68451227231701 -9.3154296875 70.03558649106701Q-9.3154296875 68.38128961606701 -9.737060546875 67.55682672544201Q-10.15869140625 66.73236383481701 -11.001953125 66.73236383481701ZM-11.001953125 65.87298883481701Q-9.65380859375 65.87298883481701 -8.942138671875 66.93915094419201Q-8.23046875 68.00531305356701 -8.23046875 70.03558649106701Q-8.23046875 72.06048883481701 -8.942138671875 73.12665094419201Q-9.65380859375 74.19281305356701 -11.001953125 74.19281305356701Q-12.35009765625 74.19281305356701 -13.061767578125 73.12665094419201Q-13.7734375 72.06048883481701 -13.7734375 70.03558649106701Q-13.7734375 68.00531305356701 -13.061767578125 66.93915094419201Q-12.35009765625 65.87298883481701 -11.001953125 65.87298883481701Z" fill="#000"/><line x1="0" x2="-3.5" y1="6.36" y2="6.36" stroke="#000000" stroke-width="0.8"/><path d="M-13.13427734375 9.460071910511374H-11.36181640625V3.342396129261374L-13.2900390625 3.729114879261374V2.740833629261374L-11.37255859375 2.354114879261374H-10.28759765625V9.460071910511374H-8.51513671875V10.373157848011374H-13.13427734375Z" fill="#000"/><path d="M81.671875 -13.54833984375Q81.671875 -14.8369140625 81.141845703125 -15.570068359375Q80.61181640625 -16.30322265625 79.68505859375 -16.30322265625Q78.75830078125 -16.30322265625 78.228271484375 -15.570068359375Q77.6982421875 -14.8369140625 77.6982421875 -13.54833984375Q77.6982421875 -12.259765625 78.228271484375 -11.526611328125Q78.75830078125 -10.79345703125 79.68505859375 -10.79345703125Q80.61181640625 -10.79345703125 81.141845703125 -11.526611328125Q81.671875 -12.259765625 81.671875 -13.54833984375ZM77.6982421875 -16.0302734375Q78.06640625 -16.6650390625 78.628173828125 -16.972900390625Q79.18994140625 -17.28076171875 79.970703125 -17.28076171875Q81.265625 -17.28076171875 82.074951171875 -16.25244140625Q82.88427734375 -15.22412109375 82.88427734375 -13.54833984375Q82.88427734375 -11.87255859375 82.074951171875 -10.84423828125Q81.265625 -9.81591796875 79.970703125 -9.81591796875Q79.18994140625 -9.81591796875 78.628173828125 -10.123779296875Q78.06640625 -10.431640625 77.6982421875 -11.06640625V-10.0H76.52392578125V-19.876953125H77.6982421875ZM90.9013671875 -13.8466796875V-13.275390625H85.53125Q85.607421875 -12.0693359375 86.258056640625 -11.437744140625Q86.90869140625 -10.80615234375 88.0703125 -10.80615234375Q88.7431640625 -10.80615234375 89.374755859375 -10.97119140625Q90.00634765625 -11.13623046875 90.62841796875 -11.46630859375V-10.36181640625Q90.0 -10.09521484375 89.33984375 -9.95556640625Q88.6796875 -9.81591796875 88.00048828125 -9.81591796875Q86.29931640625 -9.81591796875 85.305908203125 -10.80615234375Q84.3125 -11.79638671875 84.3125 -13.48486328125Q84.3125 -15.23046875 85.255126953125 -16.255615234375Q86.19775390625 -17.28076171875 87.79736328125 -17.28076171875Q89.23193359375 -17.28076171875 90.066650390625 -16.357177734375Q90.9013671875 -15.43359375 90.9013671875 -13.8466796875ZM89.7333984375 -14.189453125Q89.720703125 -15.14794921875 89.197021484375 -15.71923828125Q88.67333984375 -16.29052734375 87.81005859375 -16.29052734375Q86.83251953125 -16.29052734375 86.245361328125 -15.73828125Q85.658203125 -15.18603515625 85.5693359375 -14.18310546875ZM93.9736328125 -19.1279296875V-17.109375H96.37939453125V-16.20166015625H93.9736328125V-12.34228515625Q93.9736328125 -11.47265625 94.211669921875 -11.22509765625Q94.44970703125 -10.9775390625 95.1796875 -10.9775390625H96.37939453125V-10.0H95.1796875Q93.82763671875 -10.0 93.3134765625 -10.504638671875Q92.79931640625 -11.00927734375 92.79931640625 -12.34228515625V-16.20166015625H91.9423828125V-17.109375H92.79931640625V-19.1279296875ZM101.146484375 -13.57373046875Q99.73095703125 -13.57373046875 99.18505859375 -13.25Q98.63916015625 -12.92626953125 98.63916015625 -12.1455078125Q98.63916015625 -11.5234375 99.048583984375 -11.158447265625Q99.4580078125 -10.79345703125 100.16259765625 -10.79345703125Q101.1337890625 -10.79345703125 101.720947265625 -11.482177734375Q102.30810546875 -12.1708984375 102.30810546875 -13.3134765625V-13.57373046875ZM103.47607421875 -14.05615234375V-10.0H102.30810546875V-11.0791015625Q101.908203125 -10.431640625 101.3115234375 -10.123779296875Q100.71484375 -9.81591796875 99.8515625 -9.81591796875Q98.759765625 -9.81591796875 98.115478515625 -10.428466796875Q97.47119140625 -11.041015625 97.47119140625 -12.0693359375Q97.47119140625 -13.26904296875 98.274169921875 -13.87841796875Q99.0771484375 -14.48779296875 100.67041015625 -14.48779296875H102.30810546875V-14.60205078125Q102.30810546875 -15.408203125 101.778076171875 -15.849365234375Q101.248046875 -16.29052734375 100.28955078125 -16.29052734375Q99.68017578125 -16.29052734375 99.1025390625 -16.14453125Q98.52490234375 -15.99853515625 97.99169921875 -15.70654296875V-16.78564453125Q98.6328125 -17.033203125 99.23583984375 -17.156982421875Q99.8388671875 -17.28076171875 100.41015625 -17.28076171875Q101.95263671875 -17.28076171875 102.71435546875 -16.48095703125Q103.47607421875 -15.68115234375 103.47607421875 -14.05615234375Z" fill="#000"/></g><g transform="translate(428.00,0.00)"><path d="M12.11328125 14.701171875Q10.806640625 14.701171875 10.302734375 15.0Q9.798828125 15.298828125 9.798828125 16.01953125Q9.798828125 16.59375 10.1767578125 16.9306640625Q10.5546875 17.267578125 11.205078125 17.267578125Q12.1015625 17.267578125 12.6435546875 16.6318359375Q13.185546875 15.99609375 13.185546875 14.94140625V14.701171875ZM14.263671875 14.255859375V18.0H13.185546875V17.00390625Q12.81640625 17.6015625 12.265625 17.8857421875Q11.71484375 18.169921875 10.91796875 18.169921875Q9.91015625 18.169921875 9.3154296875 17.6044921875Q8.720703125 17.0390625 8.720703125 16.08984375Q8.720703125 14.982421875 9.4619140625 14.419921875Q10.203125 13.857421875 11.673828125 13.857421875H13.185546875V13.751953125Q13.185546875 13.0078125 12.6962890625 12.6005859375Q12.20703125 12.193359375 11.322265625 12.193359375Q10.759765625 12.193359375 10.2265625 12.328125Q9.693359375 12.462890625 9.201171875 12.732421875V11.736328125Q9.79296875 11.5078125 10.349609375 11.3935546875Q10.90625 11.279296875 11.43359375 11.279296875Q12.857421875 11.279296875 13.560546875 12.017578125Q14.263671875 12.755859375 14.263671875 14.255859375ZM16.484375 8.8828125H17.5625V18.0H16.484375ZM20.861328125 17.015625V20.49609375H19.77734375V11.4375H20.861328125V12.43359375Q21.201171875 11.84765625 21.7197265625 11.5634765625Q22.23828125 11.279296875 22.958984375 11.279296875Q24.154296875 11.279296875 24.9013671875 12.228515625Q25.6484375 13.177734375 25.6484375 14.724609375Q25.6484375 16.271484375 24.9013671875 17.220703125Q24.154296875 18.169921875 22.958984375 18.169921875Q22.23828125 18.169921875 21.7197265625 17.8857421875Q21.201171875 17.6015625 20.861328125 17.015625ZM24.529296875 14.724609375Q24.529296875 13.53515625 24.0400390625 12.8583984375Q23.55078125 12.181640625 22.6953125 12.181640625Q21.83984375 12.181640625 21.3505859375 12.8583984375Q20.861328125 13.53515625 20.861328125 14.724609375Q20.861328125 15.9140625 21.3505859375 16.5908203125Q21.83984375 17.267578125 22.6953125 17.267578125Q23.55078125 17.267578125 24.0400390625 16.5908203125Q24.529296875 15.9140625 24.529296875 14.724609375ZM32.890625 14.0390625V18.0H31.8125V14.07421875Q31.8125 13.142578125 31.44921875 12.6796875Q31.0859375 12.216796875 30.359375 12.216796875Q29.486328125 12.216796875 28.982421875 12.7734375Q28.478515625 13.330078125 28.478515625 14.291015625V18.0H27.39453125V8.8828125H28.478515625V12.45703125Q28.865234375 11.865234375 29.3896484375 11.572265625Q29.9140625 11.279296875 30.599609375 11.279296875Q31.73046875 11.279296875 32.310546875 11.9794921875Q32.890625 12.6796875 32.890625 14.0390625ZM38.0234375 14.701171875Q36.716796875 14.701171875 36.212890625 15.0Q35.708984375 15.298828125 35.708984375 16.01953125Q35.708984375 16.59375 36.0869140625 16.9306640625Q36.46484375 17.267578125 37.115234375 17.267578125Q38.01171875 17.267578125 38.5537109375 16.6318359375Q39.095703125 15.99609375 39.095703125 14.94140625V14.701171875ZM40.173828125 14.255859375V18.0H39.095703125V17.00390625Q38.7265625 17.6015625 38.17578125 17.8857421875Q37.625 18.169921875 36.828125 18.169921875Q35.8203125 18.169921875 35.2255859375 17.6044921875Q34.630859375 17.0390625 34.630859375 16.08984375Q34.630859375 14.982421875 35.3720703125 14.419921875Q36.11328125 13.857421875 37.583984375 13.857421875H39.095703125V13.751953125Q39.095703125 13.0078125 38.6064453125 12.6005859375Q38.1171875 12.193359375 37.232421875 12.193359375Q36.669921875 12.193359375 36.13671875 12.328125Q35.603515625 12.462890625 35.111328125 12.732421875V11.736328125Q35.703125 11.5078125 36.259765625 11.3935546875Q36.81640625 11.279296875 37.34375 11.279296875Q38.767578125 11.279296875 39.470703125 12.017578125Q40.173828125 12.755859375 40.173828125 14.255859375Z" fill="#000"/><line x1="8.00" x2="30.00" y1="30.00" y2="30.00" stroke="#1f77b4" stroke-width="1.5"/><path d="M40.87158203125 28.16162109375V29.09619140625Q40.45263671875 28.88134765625 40.00146484375 28.77392578125Q39.55029296875 28.66650390625 39.06689453125 28.66650390625Q38.3310546875 28.66650390625 37.963134765625 28.89208984375Q37.59521484375 29.11767578125 37.59521484375 29.56884765625Q37.59521484375 29.91259765625 37.8583984375 30.108642578125Q38.12158203125 30.3046875 38.91650390625 30.48193359375L39.2548828125 30.55712890625Q40.3076171875 30.78271484375 40.750732421875 31.193603515625Q41.19384765625 31.6044921875 41.19384765625 32.34033203125Q41.19384765625 33.17822265625 40.530517578125 33.6669921875Q39.8671875 34.15576171875 38.70703125 34.15576171875Q38.2236328125 34.15576171875 37.699951171875 34.061767578125Q37.17626953125 33.9677734375 36.59619140625 33.77978515625V32.75927734375Q37.14404296875 33.0439453125 37.67578125 33.186279296875Q38.20751953125 33.32861328125 38.728515625 33.32861328125Q39.4267578125 33.32861328125 39.802734375 33.089599609375Q40.1787109375 32.8505859375 40.1787109375 32.41552734375Q40.1787109375 32.0126953125 39.907470703125 31.7978515625Q39.63623046875 31.5830078125 38.7177734375 31.38427734375L38.3740234375 31.3037109375Q37.45556640625 31.1103515625 37.04736328125 30.710205078125Q36.63916015625 30.31005859375 36.63916015625 29.61181640625Q36.63916015625 28.76318359375 37.24072265625 28.30126953125Q37.84228515625 27.83935546875 38.94873046875 27.83935546875Q39.49658203125 27.83935546875 39.97998046875 27.919921875Q40.46337890625 28.00048828125 40.87158203125 28.16162109375ZM42.767578125 27.984375H43.755859375V34.0H42.767578125ZM42.767578125 25.642578125H43.755859375V26.89404296875H42.767578125ZM50.82421875 30.369140625V34.0H49.8359375V30.4013671875Q49.8359375 29.54736328125 49.5029296875 29.123046875Q49.169921875 28.69873046875 48.50390625 28.69873046875Q47.70361328125 28.69873046875 47.24169921875 29.208984375Q46.77978515625 29.71923828125 46.77978515625 30.60009765625V34.0H45.7861328125V27.984375H46.77978515625V28.9189453125Q47.13427734375 28.37646484375 47.614990234375 28.10791015625Q48.095703125 27.83935546875 48.72412109375 27.83935546875Q49.7607421875 27.83935546875 50.29248046875 28.481201171875Q50.82421875 29.123046875 50.82421875 30.369140625Z" fill="#000"/><path d="M13.841796875 54.724609375Q13.841796875 53.53515625 13.3525390625 52.8583984375Q12.86328125 52.181640625 12.0078125 52.181640625Q11.15234375 52.181640625 10.6630859375 52.8583984375Q10.173828125 53.53515625 10.173828125 54.724609375Q10.173828125 55.9140625 10.6630859375 56.5908203125Q11.15234375 57.267578125 12.0078125 57.267578125Q12.86328125 57.267578125 13.3525390625 56.5908203125Q13.841796875 55.9140625 13.841796875 54.724609375ZM10.173828125 52.43359375Q10.513671875 51.84765625 11.0322265625 51.5634765625Q11.55078125 51.279296875 12.271484375 51.279296875Q13.466796875 51.279296875 14.2138671875 52.228515625Q14.9609375 53.177734375 14.9609375 54.724609375Q14.9609375 56.271484375 14.2138671875 57.220703125Q13.466796875 58.169921875 12.271484375 58.169921875Q11.55078125 58.169921875 11.0322265625 57.8857421875Q10.513671875 57.6015625 10.173828125 57.015625V58.0H9.08984375V48.8828125H10.173828125ZM22.361328125 54.44921875V54.9765625H17.404296875Q17.474609375 56.08984375 18.0751953125 56.6728515625Q18.67578125 57.255859375 19.748046875 57.255859375Q20.369140625 57.255859375 20.9521484375 57.103515625Q21.53515625 56.951171875 22.109375 56.646484375V57.666015625Q21.529296875 57.912109375 20.919921875 58.041015625Q20.310546875 58.169921875 19.68359375 58.169921875Q18.11328125 58.169921875 17.1962890625 57.255859375Q16.279296875 56.341796875 16.279296875 54.783203125Q16.279296875 53.171875 17.1494140625 52.2255859375Q18.01953125 51.279296875 19.49609375 51.279296875Q20.8203125 51.279296875 21.5908203125 52.1318359375Q22.361328125 52.984375 22.361328125 54.44921875ZM21.283203125 54.1328125Q21.271484375 53.248046875 20.7880859375 52.720703125Q20.3046875 52.193359375 19.5078125 52.193359375Q18.60546875 52.193359375 18.0634765625 52.703125Q17.521484375 53.212890625 17.439453125 54.138671875ZM25.197265625 49.57421875V51.4375H27.41796875V52.275390625H25.197265625V55.837890625Q25.197265625 56.640625 25.4169921875 56.869140625Q25.63671875 57.09765625 26.310546875 57.09765625H27.41796875V58.0H26.310546875Q25.0625 58.0 24.587890625 57.5341796875Q24.11328125 57.068359375 24.11328125 55.837890625V52.275390625H23.322265625V51.4375H24.11328125V49.57421875ZM31.818359375 54.701171875Q30.51171875 54.701171875 30.0078125 55.0Q29.50390625 55.298828125 29.50390625 56.01953125Q29.50390625 56.59375 29.8818359375 56.9306640625Q30.259765625 57.267578125 30.91015625 57.267578125Q31.806640625 57.267578125 32.3486328125 56.6318359375Q32.890625 55.99609375 32.890625 54.94140625V54.701171875ZM33.96875 54.255859375V58.0H32.890625V57.00390625Q32.521484375 57.6015625 31.970703125 57.8857421875Q31.419921875 58.169921875 30.623046875 58.169921875Q29.615234375 58.169921875 29.0205078125 57.6044921875Q28.42578125 57.0390625 28.42578125 56.08984375Q28.42578125 54.982421875 29.1669921875 54.419921875Q29.908203125 53.857421875 31.37890625 53.857421875H32.890625V53.751953125Q32.890625 53.0078125 32.4013671875 52.6005859375Q31.912109375 52.193359375 31.02734375 52.193359375Q30.46484375 52.193359375 29.931640625 52.328125Q29.3984375 52.462890625 28.90625 52.732421875V51.736328125Q29.498046875 51.5078125 30.0546875 51.3935546875Q30.611328125 51.279296875 31.138671875 51.279296875Q32.5625 51.279296875 33.265625 52.017578125Q33.96875 52.755859375 33.96875 54.255859375Z" fill="#000"/><line x1="8.00" x2="30.00" y1="70.00" y2="70.00" stroke="#1f77b4" stroke-width="1.5"/><path d="M41.36572265625 68.21533203125V69.13916015625Q40.94677734375 68.908203125 40.525146484375 68.792724609375Q40.103515625 68.67724609375 39.673828125 68.67724609375Q38.71240234375 68.67724609375 38.1806640625 69.286865234375Q37.64892578125 69.896484375 37.64892578125 70.99755859375Q37.64892578125 72.0986328125 38.1806640625 72.708251953125Q38.71240234375 73.31787109375 39.673828125 73.31787109375Q40.103515625 73.31787109375 40.525146484375 73.202392578125Q40.94677734375 73.0869140625 41.36572265625 72.85595703125V73.76904296875Q40.9521484375 73.96240234375 40.509033203125 74.05908203125Q40.06591796875 74.15576171875 39.56640625 74.15576171875Q38.20751953125 74.15576171875 37.4072265625 73.3017578125Q36.60693359375 72.44775390625 36.60693359375 70.99755859375Q36.60693359375 69.52587890625 37.415283203125 68.6826171875Q38.2236328125 67.83935546875 39.630859375 67.83935546875Q40.08740234375 67.83935546875 40.5224609375 67.933349609375Q40.95751953125 68.02734375 41.36572265625 68.21533203125ZM45.41552734375 68.67724609375Q44.62060546875 68.67724609375 44.15869140625 69.297607421875Q43.69677734375 69.91796875 43.69677734375 70.99755859375Q43.69677734375 72.0771484375 44.156005859375 72.697509765625Q44.615234375 73.31787109375 45.41552734375 73.31787109375Q46.205078125 73.31787109375 46.6669921875 72.69482421875Q47.12890625 72.07177734375 47.12890625 70.99755859375Q47.12890625 69.9287109375 46.6669921875 69.302978515625Q46.205078125 68.67724609375 45.41552734375 68.67724609375ZM45.41552734375 67.83935546875Q46.70458984375 67.83935546875 47.4404296875 68.67724609375Q48.17626953125 69.51513671875 48.17626953125 70.99755859375Q48.17626953125 72.474609375 47.4404296875 73.315185546875Q46.70458984375 74.15576171875 45.41552734375 74.15576171875Q44.12109375 74.15576171875 43.387939453125 73.315185546875Q42.65478515625 72.474609375 42.65478515625 70.99755859375Q42.65478515625 69.51513671875 43.387939453125 68.67724609375Q44.12109375 67.83935546875 45.41552734375 67.83935546875ZM53.6494140625 68.16162109375V69.09619140625Q53.23046875 68.88134765625 52.779296875 68.77392578125Q52.328125 68.66650390625 51.8447265625 68.66650390625Q51.10888671875 68.66650390625 50.740966796875 68.89208984375Q50.373046875 69.11767578125 50.373046875 69.56884765625Q50.373046875 69.91259765625 50.63623046875 70.108642578125Q50.8994140625 70.3046875 51.6943359375 70.48193359375L52.03271484375 70.55712890625Q53.08544921875 70.78271484375 53.528564453125 71.193603515625Q53.9716796875 71.6044921875 53.9716796875 72.34033203125Q53.9716796875 73.17822265625 53.308349609375 73.6669921875Q52.64501953125 74.15576171875 51.48486328125 74.15576171875Q51.00146484375 74.15576171875 50.477783203125 74.061767578125Q49.9541015625 73.9677734375 49.3740234375 73.77978515625V72.75927734375Q49.921875 73.0439453125 50.45361328125 73.186279296875Q50.9853515625 73.32861328125 51.50634765625 73.32861328125Q52.20458984375 73.32861328125 52.58056640625 73.089599609375Q52.95654296875 72.8505859375 52.95654296875 72.41552734375Q52.95654296875 72.0126953125 52.685302734375 71.7978515625Q52.4140625 71.5830078125 51.49560546875 71.38427734375L51.15185546875 71.3037109375Q50.2333984375 71.1103515625 49.8251953125 70.710205078125Q49.4169921875 70.31005859375 49.4169921875 69.61181640625Q49.4169921875 68.76318359375 50.0185546875 68.30126953125Q50.6201171875 67.83935546875 51.7265625 67.83935546875Q52.2744140625 67.83935546875 52.7578125 67.919921875Q53.2412109375 68.00048828125 53.6494140625 68.16162109375Z" fill="#000"/></g></svg>