<svg xmlns="http://www.w3.org/2000/svg" width="374" height="403" viewBox="0 0 374 403" font-family="DejaVu Sans, Bitstream Vera Sans, Verdana, Arial, sans-serif" font-size="11" data-plotlet-version="0.6.0" data-plotlet-schema="2" data-plotlet-kind="layout"><rect width="374" height="403" fill="#fff"/><g transform="translate(4,4)"><g transform="translate(46.00,29.00)" data-plotlet-kind="panel" data-plotlet-title="aspect(&#x27;equal&#x27;) — circles stay circular" data-plotlet-xlabel="x" data-plotlet-ylabel="y" data-plotlet-xscale="linear" data-plotlet-yscale="linear" data-plotlet-xlim="-3.3,3.3" data-plotlet-ylim="-3.3,3.3" data-plotlet-panel-bbox="4,4,366,395" data-plotlet-data-area="46,29,320,320"><svg x="0" y="0" width="320" height="320" overflow="hidden"><g class="plotlet-artist" data-plotlet-type="scatter" data-plotlet-index="0" data-plotlet-color="#1f77b4" data-plotlet-n="72" data-plotlet-x-min="-3" data-plotlet-x-max="3" data-plotlet-y-min="-3" data-plotlet-y-max="3" data-plotlet-marker="o"><circle cx="305.45" cy="160.00" r="2.00" fill="#1f77b4" opacity="0.85"/><circle cx="304.90" cy="147.32" r="2.00" fill="#1f77b4" opacity="0.85"/><circle cx="303.24" cy="134.74" r="2.00" fill="#1f77b4" opacity="0.85"/><circle cx="300.50" cy="122.35" r="2.00" fill="#1f77b4" opacity="0.85"/><circle cx="296.68" cy="110.25" r="2.00" fill="#1f77b4" opacity="0.85"/><circle cx="291.83" cy="98.53" r="2.00" fill="#1f77b4" opacity="0.85"/><circle cx="285.97" cy="87.27" r="2.00" fill="#1f77b4" opacity="0.85"/><circle cx="279.15" cy="76.57" r="2.00" fill="#1f77b4" opacity="0.85"/><circle cx="271.42" cy="66.50" r="2.00" fill="#1f77b4" opacity="0.85"/><circle cx="262.85" cy="57.15" r="2.00" fill="#1f77b4" opacity="0.85"/><circle cx="253.50" cy="48.58" r="2.00" fill="#1f77b4" opacity="0.85"/><circle cx="243.43" cy="40.85" r="2.00" fill="#1f77b4" opacity="0.85"/><circle cx="232.73" cy="34.03" r="2.00" fill="#1f77b4" opacity="0.85"/><circle cx="221.47" cy="28.17" r="2.00" fill="#1f77b4" opacity="0.85"/><circle cx="209.75" cy="23.32" r="2.00" fill="#1f77b4" opacity="0.85"/><circle cx="197.65" cy="19.50" r="2.00" fill="#1f77b4" opacity="0.85"/><circle cx="185.26" cy="16.76" r="2.00" fill="#1f77b4" opacity="0.85"/><circle cx="172.68" cy="15.10" r="2.00" fill="#1f77b4" opacity="0.85"/><circle cx="160.00" cy="14.55" r="2.00" fill="#1f77b4" opacity="0.85"/><circle cx="147.32" cy="15.10" r="2.00" fill="#1f77b4" opacity="0.85"/><circle cx="134.74" cy="16.76" r="2.00" fill="#1f77b4" opacity="0.85"/><circle cx="122.35" cy="19.50" r="2.00" fill="#1f77b4" opacity="0.85"/><circle cx="110.25" cy="23.32" r="2.00" fill="#1f77b4" opacity="0.85"/><circle cx="98.53" cy="28.17" r="2.00" fill="#1f77b4" opacity="0.85"/><circle cx="87.27" cy="34.03" r="2.00" fill="#1f77b4" opacity="0.85"/><circle cx="76.57" cy="40.85" r="2.00" fill="#1f77b4" opacity="0.85"/><circle cx="66.50" cy="48.58" r="2.00" fill="#1f77b4" opacity="0.85"/><circle cx="57.15" cy="57.15" r="2.00" fill="#1f77b4" opacity="0.85"/><circle cx="48.58" cy="66.50" r="2.00" fill="#1f77b4" opacity="0.85"/><circle cx="40.85" cy="76.57" r="2.00" fill="#1f77b4" opacity="0.85"/><circle cx="34.03" cy="87.27" r="2.00" fill="#1f77b4" opacity="0.85"/><circle cx="28.17" cy="98.53" r="2.00" fill="#1f77b4" opacity="0.85"/><circle cx="23.32" cy="110.25" r="2.00" fill="#1f77b4" opacity="0.85"/><circle cx="19.50" cy="122.35" r="2.00" fill="#1f77b4" opacity="0.85"/><circle cx="16.76" cy="134.74" r="2.00" fill="#1f77b4" opacity="0.85"/><circle cx="15.10" cy="147.32" r="2.00" fill="#1f77b4" opacity="0.85"/><circle cx="14.55" cy="160.00" r="2.00" fill="#1f77b4" opacity="0.85"/><circle cx="15.10" cy="172.68" r="2.00" fill="#1f77b4" opacity="0.85"/><circle cx="16.76" cy="185.26" r="2.00" fill="#1f77b4" opacity="0.85"/><circle cx="19.50" cy="197.65" r="2.00" fill="#1f77b4" opacity="0.85"/><circle cx="23.32" cy="209.75" r="2.00" fill="#1f77b4" opacity="0.85"/><circle cx="28.17" cy="221.47" r="2.00" fill="#1f77b4" opacity="0.85"/><circle cx="34.03" cy="232.73" r="2.00" fill="#1f77b4" opacity="0.85"/><circle cx="40.85" cy="243.43" r="2.00" fill="#1f77b4" opacity="0.85"/><circle cx="48.58" cy="253.50" r="2.00" fill="#1f77b4" opacity="0.85"/><circle cx="57.15" cy="262.85" r="2.00" fill="#1f77b4" opacity="0.85"/><circle cx="66.50" cy="271.42" r="2.00" fill="#1f77b4" opacity="0.85"/><circle cx="76.57" cy="279.15" r="2.00" fill="#1f77b4" opacity="0.85"/><circle cx="87.27" cy="285.97" r="2.00" fill="#1f77b4" opacity="0.85"/><circle cx="98.53" cy="291.83" r="2.00" fill="#1f77b4" opacity="0.85"/><circle cx="110.25" cy="296.68" r="2.00" fill="#1f77b4" opacity="0.85"/><circle cx="122.35" cy="300.50" r="2.00" fill="#1f77b4" opacity="0.85"/><circle cx="134.74" cy="303.24" r="2.00" fill="#1f77b4" opacity="0.85"/><circle cx="147.32" cy="304.90" r="2.00" fill="#1f77b4" opacity="0.85"/><circle cx="160.00" cy="305.45" r="2.00" fill="#1f77b4" opacity="0.85"/><circle cx="172.68" cy="304.90" r="2.00" fill="#1f77b4" opacity="0.85"/><circle cx="185.26" cy="303.24" r="2.00" fill="#1f77b4" opacity="0.85"/><circle cx="197.65" cy="300.50" r="2.00" fill="#1f77b4" opacity="0.85"/><circle cx="209.75" cy="296.68" r="2.00" fill="#1f77b4" opacity="0.85"/><circle cx="221.47" cy="291.83" r="2.00" fill="#1f77b4" opacity="0.85"/><circle cx="232.73" cy="285.97" r="2.00" fill="#1f77b4" opacity="0.85"/><circle cx="243.43" cy="279.15" r="2.00" fill="#1f77b4" opacity="0.85"/><circle cx="253.50" cy="271.42" r="2.00" fill="#1f77b4" opacity="0.85"/><circle cx="262.85" cy="262.85" r="2.00" fill="#1f77b4" opacity="0.85"/><circle cx="271.42" cy="253.50" r="2.00" fill="#1f77b4" opacity="0.85"/><circle cx="279.15" cy="243.43" r="2.00" fill="#1f77b4" opacity="0.85"/><circle cx="285.97" cy="232.73" r="2.00" fill="#1f77b4" opacity="0.85"/><circle cx="291.83" cy="221.47" r="2.00" fill="#1f77b4" opacity="0.85"/><circle cx="296.68" cy="209.75" r="2.00" fill="#1f77b4" opacity="0.85"/><circle cx="300.50" cy="197.65" r="2.00" fill="#1f77b4" opacity="0.85"/><circle cx="303.24" cy="185.26" r="2.00" fill="#1f77b4" opacity="0.85"/><circle cx="304.90" cy="172.68" r="2.00" fill="#1f77b4" opacity="0.85"/></g></svg><line x1="0.00" x2="320.00" y1="0.00" y2="0.00" stroke="#000000" stroke-width="1.00"/><line x1="0.00" x2="320.00" y1="320.00" y2="320.00" stroke="#000000" stroke-width="1.00"/><line x1="0.00" x2="0.00" y1="0.00" y2="320.00" stroke="#000000" stroke-width="1.00"/><line x1="320.00" x2="320.00" y1="0.00" y2="320.00" stroke="#000000" stroke-width="1.00"/><line x1="63.03" x2="63.03" y1="320.00" y2="324.50" stroke="#000000" stroke-width="1.00"/><path d="M57.18 334.90H60.61V335.94H57.18ZM63.73 337.90H68.21V338.98H62.19V337.90Q62.92 337.14 64.18 335.87Q65.44 334.60 65.77 334.23Q66.38 333.54 66.63 333.06Q66.87 332.58 66.87 332.12Q66.87 331.36 66.34 330.88Q65.81 330.41 64.96 330.41Q64.36 330.41 63.69 330.62Q63.02 330.83 62.26 331.25V329.96Q63.03 329.65 63.70 329.49Q64.38 329.33 64.93 329.33Q66.41 329.33 67.28 330.06Q68.16 330.80 68.16 332.03Q68.16 332.62 67.94 333.14Q67.72 333.66 67.14 334.38Q66.98 334.56 66.13 335.44Q65.28 336.32 63.73 337.90Z" fill="#000"/><line x1="160.00" x2="160.00" y1="320.00" y2="324.50" stroke="#000000" stroke-width="1.00"/><path d="M160.00 330.34Q159.01 330.34 158.51 331.32Q158.01 332.29 158.01 334.25Q158.01 336.20 158.51 337.17Q159.01 338.15 160.00 338.15Q160.99 338.15 161.49 337.17Q161.99 336.20 161.99 334.25Q161.99 332.29 161.49 331.32Q160.99 330.34 160.00 330.34ZM160.00 329.33Q161.59 329.33 162.43 330.59Q163.27 331.85 163.27 334.25Q163.27 336.64 162.43 337.90Q161.59 339.16 160.00 339.16Q158.40 339.16 157.56 337.90Q156.72 336.64 156.72 334.25Q156.72 331.85 157.56 330.59Q158.40 329.33 160.00 329.33Z" fill="#000"/><line x1="256.97" x2="256.97" y1="320.00" y2="324.50" stroke="#000000" stroke-width="1.00"/><path d="M255.33 337.90H259.80V338.98H253.79V337.90Q254.52 337.14 255.78 335.87Q257.04 334.60 257.36 334.23Q257.98 333.54 258.22 333.06Q258.46 332.58 258.46 332.12Q258.46 331.36 257.93 330.88Q257.40 330.41 256.55 330.41Q255.95 330.41 255.28 330.62Q254.61 330.83 253.85 331.25V329.96Q254.62 329.65 255.30 329.49Q255.97 329.33 256.53 329.33Q258.00 329.33 258.88 330.06Q259.75 330.80 259.75 332.03Q259.75 332.62 259.53 333.14Q259.32 333.66 258.74 334.38Q258.58 334.56 257.73 335.44Q256.88 336.32 255.33 337.90Z" fill="#000"/><line x1="0.00" x2="-4.50" y1="305.45" y2="305.45" stroke="#000000" stroke-width="1.00"/><path d="M-21.83 306.11H-18.41V307.15H-21.83ZM-12.50 305.08Q-11.58 305.28 -11.06 305.90Q-10.54 306.52 -10.54 307.44Q-10.54 308.84 -11.51 309.61Q-12.47 310.38 -14.25 310.38Q-14.84 310.38 -15.48 310.26Q-16.11 310.14 -16.78 309.91V308.67Q-16.25 308.98 -15.61 309.14Q-14.98 309.30 -14.29 309.30Q-13.08 309.30 -12.45 308.82Q-11.82 308.35 -11.82 307.44Q-11.82 306.60 -12.40 306.13Q-12.99 305.65 -14.04 305.65H-15.14V304.60H-13.99Q-13.04 304.60 -12.54 304.22Q-12.04 303.85 -12.04 303.13Q-12.04 302.40 -12.56 302.01Q-13.07 301.62 -14.04 301.62Q-14.57 301.62 -15.17 301.74Q-15.77 301.85 -16.50 302.09V300.95Q-15.77 300.75 -15.13 300.65Q-14.49 300.54 -13.92 300.54Q-12.46 300.54 -11.61 301.21Q-10.76 301.87 -10.76 303.00Q-10.76 303.79 -11.21 304.33Q-11.66 304.87 -12.50 305.08Z" fill="#000"/><line x1="0.00" x2="-4.50" y1="256.97" y2="256.97" stroke="#000000" stroke-width="1.00"/><path d="M-21.83 257.63H-18.41V258.67H-21.83ZM-15.28 260.63H-10.80V261.71H-16.82V260.63Q-16.09 259.87 -14.83 258.60Q-13.57 257.33 -13.25 256.96Q-12.63 256.27 -12.39 255.79Q-12.14 255.31 -12.14 254.85Q-12.14 254.09 -12.67 253.61Q-13.20 253.14 -14.05 253.14Q-14.65 253.14 -15.32 253.35Q-15.99 253.56 -16.76 253.98V252.69Q-15.98 252.38 -15.31 252.22Q-14.64 252.06 -14.08 252.06Q-12.60 252.06 -11.73 252.80Q-10.85 253.53 -10.85 254.76Q-10.85 255.35 -11.07 255.87Q-11.29 256.40 -11.87 257.11Q-12.03 257.29 -12.88 258.17Q-13.73 259.05 -15.28 260.63Z" fill="#000"/><line x1="0.00" x2="-4.50" y1="208.48" y2="208.48" stroke="#000000" stroke-width="1.00"/><path d="M-21.83 209.14H-18.41V210.18H-21.83ZM-16.16 212.14H-14.06V204.91L-16.34 205.37V204.20L-14.08 203.75H-12.79V212.14H-10.70V213.22H-16.16Z" fill="#000"/><line x1="0.00" x2="-4.50" y1="160.00" y2="160.00" stroke="#000000" stroke-width="1.00"/><path d="M-13.64 156.11Q-14.63 156.11 -15.13 157.08Q-15.63 158.05 -15.63 160.01Q-15.63 161.96 -15.13 162.93Q-14.63 163.91 -13.64 163.91Q-12.64 163.91 -12.14 162.93Q-11.65 161.96 -11.65 160.01Q-11.65 158.05 -12.14 157.08Q-12.64 156.11 -13.64 156.11ZM-13.64 155.09Q-12.05 155.09 -11.20 156.35Q-10.36 157.61 -10.36 160.01Q-10.36 162.40 -11.20 163.66Q-12.05 164.92 -13.64 164.92Q-15.23 164.92 -16.07 163.66Q-16.91 162.40 -16.91 160.01Q-16.91 157.61 -16.07 156.35Q-15.23 155.09 -13.64 155.09Z" fill="#000"/><line x1="0.00" x2="-4.50" y1="111.52" y2="111.52" stroke="#000000" stroke-width="1.00"/><path d="M-16.16 115.17H-14.06V107.94L-16.34 108.40V107.23L-14.08 106.78H-12.79V115.17H-10.70V116.25H-16.16Z" fill="#000"/><line x1="0.00" x2="-4.50" y1="63.03" y2="63.03" stroke="#000000" stroke-width="1.00"/><path d="M-15.28 66.69H-10.80V67.77H-16.82V66.69Q-16.09 65.93 -14.83 64.66Q-13.57 63.39 -13.25 63.02Q-12.63 62.33 -12.39 61.85Q-12.14 61.37 -12.14 60.91Q-12.14 60.15 -12.67 59.68Q-13.20 59.20 -14.05 59.20Q-14.65 59.20 -15.32 59.41Q-15.99 59.62 -16.76 60.04V58.75Q-15.98 58.44 -15.31 58.28Q-14.64 58.12 -14.08 58.12Q-12.60 58.12 -11.73 58.86Q-10.85 59.59 -10.85 60.82Q-10.85 61.41 -11.07 61.93Q-11.29 62.46 -11.87 63.17Q-12.03 63.35 -12.88 64.23Q-13.73 65.11 -15.28 66.69Z" fill="#000"/><line x1="0.00" x2="-4.50" y1="14.55" y2="14.55" stroke="#000000" stroke-width="1.00"/><path d="M-12.50 14.17Q-11.58 14.37 -11.06 14.99Q-10.54 15.62 -10.54 16.53Q-10.54 17.93 -11.51 18.70Q-12.47 19.47 -14.25 19.47Q-14.84 19.47 -15.48 19.35Q-16.11 19.23 -16.78 19.00V17.76Q-16.25 18.07 -15.61 18.23Q-14.98 18.39 -14.29 18.39Q-13.08 18.39 -12.45 17.91Q-11.82 17.44 -11.82 16.53Q-11.82 15.69 -12.40 15.22Q-12.99 14.75 -14.04 14.75H-15.14V13.69H-13.99Q-13.04 13.69 -12.54 13.31Q-12.04 12.94 -12.04 12.23Q-12.04 11.50 -12.56 11.11Q-13.07 10.71 -14.04 10.71Q-14.57 10.71 -15.17 10.83Q-15.77 10.94 -16.50 11.18V10.04Q-15.77 9.84 -15.13 9.74Q-14.49 9.64 -13.92 9.64Q-12.46 9.64 -11.61 10.30Q-10.76 10.96 -10.76 12.09Q-10.76 12.88 -11.21 13.42Q-11.66 13.96 -12.50 14.17Z" fill="#000"/><path d="M163.54 347.08 160.77 350.81 163.68 354.74H162.20L159.97 351.73L157.74 354.74H156.26L159.23 350.74L156.51 347.08H158.00L160.03 349.81L162.06 347.08Z" fill="#000"/><g transform="rotate(-90.00 -31.46 160.00)"><path d="M-31.10 160.71Q-31.63 162.08 -32.14 162.50Q-32.64 162.91 -33.49 162.91H-34.50V161.86H-33.76Q-33.24 161.86 -32.95 161.61Q-32.67 161.37 -32.32 160.45L-32.09 159.88L-35.19 152.34H-33.85L-31.46 158.33L-29.07 152.34H-27.74Z" fill="#000"/></g><path d="M15.52 -21.17Q13.77 -21.17 13.10 -20.77Q12.43 -20.38 12.43 -19.41Q12.43 -18.65 12.93 -18.20Q13.44 -17.75 14.30 -17.75Q15.50 -17.75 16.22 -18.60Q16.95 -19.45 16.95 -20.85V-21.17ZM18.38 -21.77V-16.77H16.95V-18.10Q16.45 -17.30 15.72 -16.93Q14.98 -16.55 13.92 -16.55Q12.58 -16.55 11.79 -17.30Q10.99 -18.05 10.99 -19.32Q10.99 -20.80 11.98 -21.55Q12.97 -22.30 14.93 -22.30H16.95V-22.44Q16.95 -23.43 16.29 -23.97Q15.64 -24.52 14.46 -24.52Q13.71 -24.52 13.00 -24.34Q12.29 -24.16 11.63 -23.80V-25.12Q12.42 -25.43 13.16 -25.58Q13.91 -25.73 14.61 -25.73Q16.51 -25.73 17.45 -24.75Q18.38 -23.77 18.38 -21.77ZM26.92 -25.27V-23.91Q26.31 -24.22 25.66 -24.38Q25.00 -24.53 24.30 -24.53Q23.23 -24.53 22.69 -24.20Q22.16 -23.88 22.16 -23.22Q22.16 -22.72 22.54 -22.43Q22.92 -22.15 24.08 -21.89L24.57 -21.78Q26.10 -21.45 26.75 -20.86Q27.39 -20.26 27.39 -19.19Q27.39 -17.97 26.43 -17.26Q25.46 -16.55 23.77 -16.55Q23.07 -16.55 22.31 -16.68Q21.55 -16.82 20.70 -17.09V-18.58Q21.50 -18.16 22.27 -17.96Q23.05 -17.75 23.80 -17.75Q24.82 -17.75 25.37 -18.10Q25.91 -18.45 25.91 -19.08Q25.91 -19.66 25.52 -19.98Q25.12 -20.29 23.79 -20.58L23.29 -20.70Q21.95 -20.98 21.36 -21.56Q20.77 -22.14 20.77 -23.16Q20.77 -24.39 21.64 -25.06Q22.52 -25.73 24.12 -25.73Q24.92 -25.73 25.62 -25.62Q26.33 -25.50 26.92 -25.27ZM31.07 -18.09V-13.45H29.62V-25.52H31.07V-24.20Q31.52 -24.98 32.21 -25.36Q32.91 -25.73 33.87 -25.73Q35.46 -25.73 36.46 -24.47Q37.45 -23.20 37.45 -21.14Q37.45 -19.08 36.46 -17.81Q35.46 -16.55 33.87 -16.55Q32.91 -16.55 32.21 -16.93Q31.52 -17.30 31.07 -18.09ZM35.96 -21.14Q35.96 -22.73 35.31 -23.63Q34.66 -24.53 33.52 -24.53Q32.38 -24.53 31.72 -23.63Q31.07 -22.73 31.07 -21.14Q31.07 -19.55 31.72 -18.65Q32.38 -17.75 33.52 -17.75Q34.66 -17.75 35.31 -18.65Q35.96 -19.55 35.96 -21.14ZM47.32 -21.51V-20.80H40.71Q40.80 -19.32 41.61 -18.54Q42.41 -17.77 43.84 -17.77Q44.66 -17.77 45.44 -17.97Q46.22 -18.17 46.98 -18.58V-17.22Q46.21 -16.89 45.40 -16.72Q44.59 -16.55 43.75 -16.55Q41.66 -16.55 40.43 -17.77Q39.21 -18.98 39.21 -21.06Q39.21 -23.21 40.37 -24.47Q41.53 -25.73 43.50 -25.73Q45.27 -25.73 46.29 -24.60Q47.32 -23.46 47.32 -21.51ZM45.88 -21.93Q45.87 -23.11 45.22 -23.81Q44.58 -24.52 43.52 -24.52Q42.31 -24.52 41.59 -23.84Q40.87 -23.16 40.76 -21.92ZM55.98 -25.19V-23.84Q55.37 -24.18 54.75 -24.35Q54.14 -24.52 53.52 -24.52Q52.12 -24.52 51.34 -23.63Q50.57 -22.74 50.57 -21.14Q50.57 -19.54 51.34 -18.65Q52.12 -17.77 53.52 -17.77Q54.14 -17.77 54.75 -17.93Q55.37 -18.10 55.98 -18.44V-17.11Q55.38 -16.83 54.73 -16.69Q54.09 -16.55 53.36 -16.55Q51.38 -16.55 50.22 -17.79Q49.05 -19.03 49.05 -21.14Q49.05 -23.28 50.23 -24.51Q51.41 -25.73 53.45 -25.73Q54.12 -25.73 54.75 -25.60Q55.38 -25.46 55.98 -25.19ZM59.90 -28.01V-25.52H62.86V-24.41H59.90V-19.66Q59.90 -18.59 60.19 -18.28Q60.48 -17.98 61.38 -17.98H62.86V-16.77H61.38Q59.72 -16.77 59.09 -17.39Q58.45 -18.02 58.45 -19.66V-24.41H57.40V-25.52H58.45V-28.01ZM68.20 -28.91Q67.16 -27.12 66.65 -25.36Q66.14 -23.60 66.14 -21.80Q66.14 -19.99 66.65 -18.22Q67.16 -16.45 68.20 -14.66H66.95Q65.78 -16.50 65.20 -18.27Q64.62 -20.05 64.62 -21.80Q64.62 -23.54 65.20 -25.30Q65.77 -27.07 66.95 -28.91ZM72.35 -28.44V-24.10H71.02V-28.44ZM82.88 -21.51V-20.80H76.27Q76.36 -19.32 77.16 -18.54Q77.96 -17.77 79.39 -17.77Q80.22 -17.77 81.00 -17.97Q81.77 -18.17 82.54 -18.58V-17.22Q81.77 -16.89 80.95 -16.72Q80.14 -16.55 79.30 -16.55Q77.21 -16.55 75.99 -17.77Q74.77 -18.98 74.77 -21.06Q74.77 -23.21 75.93 -24.47Q77.09 -25.73 79.05 -25.73Q80.82 -25.73 81.85 -24.60Q82.88 -23.46 82.88 -21.51ZM81.44 -21.93Q81.42 -23.11 80.78 -23.81Q80.13 -24.52 79.07 -24.52Q77.87 -24.52 77.14 -23.84Q76.42 -23.16 76.31 -21.92ZM86.09 -21.14Q86.09 -19.55 86.75 -18.65Q87.40 -17.75 88.54 -17.75Q89.68 -17.75 90.34 -18.65Q90.99 -19.55 90.99 -21.14Q90.99 -22.73 90.34 -23.63Q89.68 -24.53 88.54 -24.53Q87.40 -24.53 86.75 -23.63Q86.09 -22.73 86.09 -21.14ZM90.99 -18.09Q90.54 -17.30 89.85 -16.93Q89.16 -16.55 88.19 -16.55Q86.60 -16.55 85.61 -17.81Q84.61 -19.08 84.61 -21.14Q84.61 -23.20 85.61 -24.47Q86.60 -25.73 88.19 -25.73Q89.16 -25.73 89.85 -25.36Q90.54 -24.98 90.99 -24.20V-25.52H92.43V-13.45H90.99ZM95.24 -20.23V-25.52H96.68V-20.28Q96.68 -19.04 97.16 -18.42Q97.65 -17.80 98.62 -17.80Q99.78 -17.80 100.46 -18.54Q101.13 -19.28 101.13 -20.56V-25.52H102.57V-16.77H101.13V-18.12Q100.61 -17.32 99.92 -16.93Q99.23 -16.55 98.31 -16.55Q96.80 -16.55 96.02 -17.48Q95.24 -18.42 95.24 -20.23ZM98.86 -25.73ZM109.51 -21.17Q107.77 -21.17 107.09 -20.77Q106.42 -20.38 106.42 -19.41Q106.42 -18.65 106.93 -18.20Q107.43 -17.75 108.30 -17.75Q109.49 -17.75 110.21 -18.60Q110.94 -19.45 110.94 -20.85V-21.17ZM112.38 -21.77V-16.77H110.94V-18.10Q110.45 -17.30 109.71 -16.93Q108.98 -16.55 107.91 -16.55Q106.57 -16.55 105.78 -17.30Q104.98 -18.05 104.98 -19.32Q104.98 -20.80 105.97 -21.55Q106.96 -22.30 108.92 -22.30H110.94V-22.44Q110.94 -23.43 110.29 -23.97Q109.63 -24.52 108.45 -24.52Q107.70 -24.52 106.99 -24.34Q106.28 -24.16 105.62 -23.80V-25.12Q106.41 -25.43 107.16 -25.58Q107.90 -25.73 108.60 -25.73Q110.50 -25.73 111.44 -24.75Q112.38 -23.77 112.38 -21.77ZM115.34 -28.93H116.77V-16.77H115.34ZM121.14 -28.44V-24.10H119.81V-28.44ZM123.95 -28.91H125.20Q126.38 -27.07 126.96 -25.30Q127.54 -23.54 127.54 -21.80Q127.54 -20.05 126.96 -18.27Q126.38 -16.50 125.20 -14.66H123.95Q124.99 -16.45 125.50 -18.22Q126.02 -19.99 126.02 -21.80Q126.02 -23.60 125.50 -25.36Q124.99 -27.12 123.95 -28.91ZM134.78 -21.72H149.22V-20.59H134.78ZM162.89 -25.19V-23.84Q162.28 -24.18 161.67 -24.35Q161.05 -24.52 160.43 -24.52Q159.03 -24.52 158.26 -23.63Q157.48 -22.74 157.48 -21.14Q157.48 -19.54 158.26 -18.65Q159.03 -17.77 160.43 -17.77Q161.05 -17.77 161.67 -17.93Q162.28 -18.10 162.89 -18.44V-17.11Q162.29 -16.83 161.64 -16.69Q161.00 -16.55 160.27 -16.55Q158.30 -16.55 157.13 -17.79Q155.97 -19.03 155.97 -21.14Q155.97 -23.28 157.14 -24.51Q158.32 -25.73 160.37 -25.73Q161.03 -25.73 161.66 -25.60Q162.30 -25.46 162.89 -25.19ZM165.39 -25.52H166.83V-16.77H165.39ZM165.39 -28.93H166.83V-27.11H165.39ZM174.91 -24.18Q174.66 -24.32 174.38 -24.39Q174.09 -24.45 173.75 -24.45Q172.53 -24.45 171.88 -23.66Q171.23 -22.87 171.23 -21.38V-16.77H169.78V-25.52H171.23V-24.16Q171.68 -24.96 172.41 -25.35Q173.13 -25.73 174.17 -25.73Q174.32 -25.73 174.50 -25.71Q174.68 -25.70 174.90 -25.66ZM182.71 -25.19V-23.84Q182.10 -24.18 181.49 -24.35Q180.88 -24.52 180.25 -24.52Q178.85 -24.52 178.08 -23.63Q177.30 -22.74 177.30 -21.14Q177.30 -19.54 178.08 -18.65Q178.85 -17.77 180.25 -17.77Q180.88 -17.77 181.49 -17.93Q182.10 -18.10 182.71 -18.44V-17.11Q182.11 -16.83 181.46 -16.69Q180.82 -16.55 180.09 -16.55Q178.12 -16.55 176.95 -17.79Q175.79 -19.03 175.79 -21.14Q175.79 -23.28 176.96 -24.51Q178.14 -25.73 180.19 -25.73Q180.85 -25.73 181.48 -25.60Q182.12 -25.46 182.71 -25.19ZM185.21 -28.93H186.65V-16.77H185.21ZM197.14 -21.51V-20.80H190.53Q190.62 -19.32 191.43 -18.54Q192.23 -17.77 193.66 -17.77Q194.48 -17.77 195.26 -17.97Q196.04 -18.17 196.80 -18.58V-17.22Q196.03 -16.89 195.22 -16.72Q194.41 -16.55 193.57 -16.55Q191.48 -16.55 190.25 -17.77Q189.03 -18.98 189.03 -21.06Q189.03 -23.21 190.19 -24.47Q191.35 -25.73 193.32 -25.73Q195.09 -25.73 196.11 -24.60Q197.14 -23.46 197.14 -21.51ZM195.70 -21.93Q195.69 -23.11 195.04 -23.81Q194.40 -24.52 193.34 -24.52Q192.13 -24.52 191.41 -23.84Q190.69 -23.16 190.58 -21.92ZM205.08 -25.27V-23.91Q204.47 -24.22 203.81 -24.38Q203.16 -24.53 202.45 -24.53Q201.38 -24.53 200.85 -24.20Q200.31 -23.88 200.31 -23.22Q200.31 -22.72 200.70 -22.43Q201.08 -22.15 202.23 -21.89L202.73 -21.78Q204.26 -21.45 204.90 -20.86Q205.55 -20.26 205.55 -19.19Q205.55 -17.97 204.58 -17.26Q203.62 -16.55 201.93 -16.55Q201.23 -16.55 200.46 -16.68Q199.70 -16.82 198.86 -17.09V-18.58Q199.66 -18.16 200.43 -17.96Q201.20 -17.75 201.96 -17.75Q202.98 -17.75 203.52 -18.10Q204.07 -18.45 204.07 -19.08Q204.07 -19.66 203.68 -19.98Q203.28 -20.29 201.95 -20.58L201.45 -20.70Q200.11 -20.98 199.52 -21.56Q198.92 -22.14 198.92 -23.16Q198.92 -24.39 199.80 -25.06Q200.67 -25.73 202.28 -25.73Q203.08 -25.73 203.78 -25.62Q204.48 -25.50 205.08 -25.27ZM218.50 -25.27V-23.91Q217.89 -24.22 217.23 -24.38Q216.58 -24.53 215.88 -24.53Q214.80 -24.53 214.27 -24.20Q213.73 -23.88 213.73 -23.22Q213.73 -22.72 214.12 -22.43Q214.50 -22.15 215.66 -21.89L216.15 -21.78Q217.68 -21.45 218.32 -20.86Q218.97 -20.26 218.97 -19.19Q218.97 -17.97 218.00 -17.26Q217.04 -16.55 215.35 -16.55Q214.65 -16.55 213.89 -16.68Q213.12 -16.82 212.28 -17.09V-18.58Q213.08 -18.16 213.85 -17.96Q214.62 -17.75 215.38 -17.75Q216.40 -17.75 216.95 -18.10Q217.49 -18.45 217.49 -19.08Q217.49 -19.66 217.10 -19.98Q216.70 -20.29 215.37 -20.58L214.87 -20.70Q213.53 -20.98 212.94 -21.56Q212.34 -22.14 212.34 -23.16Q212.34 -24.39 213.22 -25.06Q214.09 -25.73 215.70 -25.73Q216.50 -25.73 217.20 -25.62Q217.91 -25.50 218.50 -25.27ZM222.68 -28.01V-25.52H225.64V-24.41H222.68V-19.66Q222.68 -18.59 222.97 -18.28Q223.27 -17.98 224.16 -17.98H225.64V-16.77H224.16Q222.50 -16.77 221.87 -17.39Q221.23 -18.02 221.23 -19.66V-24.41H220.18V-25.52H221.23V-28.01ZM231.51 -21.17Q229.77 -21.17 229.09 -20.77Q228.42 -20.38 228.42 -19.41Q228.42 -18.65 228.93 -18.20Q229.43 -17.75 230.30 -17.75Q231.49 -17.75 232.21 -18.60Q232.94 -19.45 232.94 -20.85V-21.17ZM234.38 -21.77V-16.77H232.94V-18.10Q232.45 -17.30 231.71 -16.93Q230.98 -16.55 229.91 -16.55Q228.57 -16.55 227.78 -17.30Q226.98 -18.05 226.98 -19.32Q226.98 -20.80 227.97 -21.55Q228.96 -22.30 230.92 -22.30H232.94V-22.44Q232.94 -23.43 232.29 -23.97Q231.63 -24.52 230.45 -24.52Q229.70 -24.52 228.99 -24.34Q228.28 -24.16 227.62 -23.80V-25.12Q228.41 -25.43 229.16 -25.58Q229.90 -25.73 230.60 -25.73Q232.50 -25.73 233.44 -24.75Q234.38 -23.77 234.38 -21.77ZM240.98 -15.96Q240.37 -14.40 239.79 -13.92Q239.21 -13.45 238.24 -13.45H237.09V-14.65H237.94Q238.53 -14.65 238.86 -14.93Q239.19 -15.21 239.59 -16.26L239.84 -16.91L236.30 -25.52H237.83L240.56 -18.68L243.30 -25.52H244.82ZM258.19 -25.19V-23.84Q257.58 -24.18 256.96 -24.35Q256.35 -24.52 255.73 -24.52Q254.33 -24.52 253.55 -23.63Q252.78 -22.74 252.78 -21.14Q252.78 -19.54 253.55 -18.65Q254.33 -17.77 255.73 -17.77Q256.35 -17.77 256.96 -17.93Q257.58 -18.10 258.19 -18.44V-17.11Q257.59 -16.83 256.94 -16.69Q256.30 -16.55 255.57 -16.55Q253.59 -16.55 252.43 -17.79Q251.27 -19.03 251.27 -21.14Q251.27 -23.28 252.44 -24.51Q253.62 -25.73 255.66 -25.73Q256.33 -25.73 256.96 -25.60Q257.59 -25.46 258.19 -25.19ZM260.69 -25.52H262.12V-16.77H260.69ZM260.69 -28.93H262.12V-27.11H260.69ZM270.20 -24.18Q269.96 -24.32 269.68 -24.39Q269.39 -24.45 269.05 -24.45Q267.83 -24.45 267.18 -23.66Q266.52 -22.87 266.52 -21.38V-16.77H265.08V-25.52H266.52V-24.16Q266.98 -24.96 267.70 -25.35Q268.43 -25.73 269.47 -25.73Q269.62 -25.73 269.80 -25.71Q269.98 -25.70 270.20 -25.66ZM278.01 -25.19V-23.84Q277.40 -24.18 276.79 -24.35Q276.17 -24.52 275.55 -24.52Q274.15 -24.52 273.38 -23.63Q272.60 -22.74 272.60 -21.14Q272.60 -19.54 273.38 -18.65Q274.15 -17.77 275.55 -17.77Q276.17 -17.77 276.79 -17.93Q277.40 -18.10 278.01 -18.44V-17.11Q277.41 -16.83 276.76 -16.69Q276.12 -16.55 275.39 -16.55Q273.41 -16.55 272.25 -17.79Q271.09 -19.03 271.09 -21.14Q271.09 -23.28 272.26 -24.51Q273.44 -25.73 275.48 -25.73Q276.15 -25.73 276.78 -25.60Q277.41 -25.46 278.01 -25.19ZM280.36 -20.23V-25.52H281.80V-20.28Q281.80 -19.04 282.28 -18.42Q282.77 -17.80 283.73 -17.80Q284.90 -17.80 285.57 -18.54Q286.25 -19.28 286.25 -20.56V-25.52H287.69V-16.77H286.25V-18.12Q285.73 -17.32 285.04 -16.93Q284.34 -16.55 283.43 -16.55Q281.92 -16.55 281.14 -17.48Q280.36 -18.42 280.36 -20.23ZM283.98 -25.73ZM290.65 -28.93H292.09V-16.77H290.65ZM299.07 -21.17Q297.33 -21.17 296.66 -20.77Q295.98 -20.38 295.98 -19.41Q295.98 -18.65 296.49 -18.20Q296.99 -17.75 297.86 -17.75Q299.05 -17.75 299.78 -18.60Q300.50 -19.45 300.50 -20.85V-21.17ZM301.94 -21.77V-16.77H300.50V-18.10Q300.01 -17.30 299.27 -16.93Q298.54 -16.55 297.48 -16.55Q296.13 -16.55 295.34 -17.30Q294.55 -18.05 294.55 -19.32Q294.55 -20.80 295.54 -21.55Q296.52 -22.30 298.48 -22.30H300.50V-22.44Q300.50 -23.43 299.85 -23.97Q299.20 -24.52 298.02 -24.52Q297.27 -24.52 296.55 -24.34Q295.84 -24.16 295.19 -23.80V-25.12Q295.98 -25.43 296.72 -25.58Q297.46 -25.73 298.16 -25.73Q300.06 -25.73 301.00 -24.75Q301.94 -23.77 301.94 -21.77ZM309.97 -24.18Q309.73 -24.32 309.44 -24.39Q309.16 -24.45 308.81 -24.45Q307.59 -24.45 306.94 -23.66Q306.29 -22.87 306.29 -21.38V-16.77H304.84V-25.52H306.29V-24.16Q306.74 -24.96 307.47 -25.35Q308.20 -25.73 309.23 -25.73Q309.38 -25.73 309.56 -25.71Q309.74 -25.70 309.96 -25.66Z" fill="#000"/></g></g></svg>