<svg xmlns="http://www.w3.org/2000/svg" width="600" height="400" viewBox="0 0 600 400" font-family="DejaVu Sans, Bitstream Vera Sans, Verdana, Arial, sans-serif" font-size="11" style="background:#fff" data-plotlet-version="0.4.0" data-plotlet-schema="2" data-plotlet-kind="figure"><g transform="translate(58,30)" data-plotlet-kind="panel" data-plotlet-title="back to classic" data-plotlet-xscale="linear" data-plotlet-yscale="linear" data-plotlet-xlim="1.0,3.0" data-plotlet-ylim="1.0,3.0" data-plotlet-panel-bbox="0,0,600,400" data-plotlet-data-area="58,30,524,322"><g class="plotlet-artist" data-plotlet-type="line" data-plotlet-index="0" data-plotlet-color="#1f77b4" data-plotlet-n="3" data-plotlet-x-min="1" data-plotlet-x-max="3" data-plotlet-y-min="1" data-plotlet-y-max="3"><path d="M0.00,322.00L262.00,161.00L524.00,0.00" fill="none" stroke="#1f77b4" stroke-width="1.5"/></g><line x1="0" y1="0" x2="524" y2="0" stroke="#000000" stroke-width="0.8"/><line x1="0" y1="322" x2="524" y2="322" stroke="#000000" stroke-width="0.8"/><line x1="0" y1="0" x2="0" y2="322" stroke="#000000" stroke-width="0.8"/><line x1="524" y1="0" x2="524" y2="322" stroke="#000000" stroke-width="0.8"/><line x1="0.00" x2="0.00" y1="322" y2="325.5" stroke="#000000" stroke-width="0.8"/><path d="M-2.135009765625 336.5869140625H-0.362548828125V330.46923828125L-2.290771484375 330.85595703125V329.86767578125L-0.373291015625 329.48095703125H0.711669921875V336.5869140625H2.484130859375V337.5H-2.135009765625Z" fill="#000"/><line x1="52.40" x2="52.40" y1="322" y2="325.5" stroke="#000000" stroke-width="0.8"/><path d="M45.01743164062499 336.5869140625H46.78989257812499V330.46923828125L44.86166992187499 330.85595703125V329.86767578125L46.77915039062499 329.48095703125H47.86411132812499V336.5869140625H49.63657226562499V337.5H45.01743164062499ZM51.82797851562499 336.1357421875H52.96127929687499V337.5H51.82797851562499ZM56.25913085937499 336.5869140625H60.04575195312499V337.5H54.95395507812499V336.5869140625Q55.57163085937499 335.94775390625 56.63779296874999 334.870849609375Q57.70395507812499 333.7939453125 57.97788085937499 333.482421875Q58.49887695312499 332.89697265625 58.70566406249999 332.491455078125Q58.91245117187499 332.0859375 58.91245117187499 331.69384765625Q58.91245117187499 331.0546875 58.46396484374999 330.65185546875Q58.01547851562499 330.2490234375 57.29575195312499 330.2490234375Q56.78549804687499 330.2490234375 56.21884765624999 330.42626953125Q55.65219726562499 330.603515625 55.00766601562499 330.96337890625V329.86767578125Q55.66293945312499 329.6044921875 56.23227539062499 329.47021484375Q56.80161132812499 329.3359375 57.27426757812499 329.3359375Q58.52036132812499 329.3359375 59.26157226562499 329.958984375Q60.00278320312499 330.58203125 60.00278320312499 331.6240234375Q60.00278320312499 332.1181640625 59.81748046874999 332.561279296875Q59.63217773437499 333.00439453125 59.14340820312499 333.60595703125Q59.00913085937499 333.76171875 58.28940429687499 334.505615234375Q57.56967773437499 335.24951171875 56.25913085937499 336.5869140625Z" fill="#000"/><line x1="104.80" x2="104.80" y1="322" y2="325.5" stroke="#000000" stroke-width="0.8"/><path d="M97.41743164062498 336.5869140625H99.18989257812498V330.46923828125L97.26166992187498 330.85595703125V329.86767578125L99.17915039062498 329.48095703125H100.26411132812498V336.5869140625H102.03657226562498V337.5H97.41743164062498ZM104.22797851562498 336.1357421875H105.36127929687498V337.5H104.22797851562498ZM110.70551757812498 330.42626953125 107.96625976562498 334.70703125H110.70551757812498ZM110.42084960937498 329.48095703125H111.78510742187498V334.70703125H112.92915039062498V335.609375H111.78510742187498V337.5H110.70551757812498V335.609375H107.08540039062498V334.56201171875Z" fill="#000"/><line x1="157.20" x2="157.20" y1="322" y2="325.5" stroke="#000000" stroke-width="0.8"/><path d="M149.81743164062502 336.5869140625H151.58989257812502V330.46923828125L149.66166992187502 330.85595703125V329.86767578125L151.57915039062502 329.48095703125H152.66411132812502V336.5869140625H154.43657226562502V337.5H149.81743164062502ZM156.62797851562502 336.1357421875H157.76127929687502V337.5H156.62797851562502ZM162.57915039062502 333.05810546875Q161.84868164062502 333.05810546875 161.42167968750002 333.5576171875Q160.99467773437502 334.05712890625 160.99467773437502 334.92724609375Q160.99467773437502 335.7919921875 161.42167968750002 336.294189453125Q161.84868164062502 336.79638671875 162.57915039062502 336.79638671875Q163.30961914062502 336.79638671875 163.73662109375002 336.294189453125Q164.16362304687502 335.7919921875 164.16362304687502 334.92724609375Q164.16362304687502 334.05712890625 163.73662109375002 333.5576171875Q163.30961914062502 333.05810546875 162.57915039062502 333.05810546875ZM164.73295898437502 329.658203125V330.646484375Q164.32475585937502 330.453125 163.90849609375002 330.35107421875Q163.49223632812502 330.2490234375 163.08403320312502 330.2490234375Q162.00981445312502 330.2490234375 161.44316406250002 330.97412109375Q160.87651367187502 331.69921875 160.79594726562502 333.16552734375Q161.11284179687502 332.6982421875 161.59086914062502 332.448486328125Q162.06889648437502 332.19873046875 162.64360351562502 332.19873046875Q163.85209960937502 332.19873046875 164.55302734375002 332.931884765625Q165.25395507812502 333.6650390625 165.25395507812502 334.92724609375Q165.25395507812502 336.16259765625 164.52348632812502 336.9091796875Q163.79301757812502 337.65576171875 162.57915039062502 337.65576171875Q161.18803710937502 337.65576171875 160.45219726562502 336.589599609375Q159.71635742187502 335.5234375 159.71635742187502 333.49853515625Q159.71635742187502 331.59716796875 160.61870117187502 330.466552734375Q161.52104492187502 329.3359375 163.04106445312502 329.3359375Q163.44926757812502 329.3359375 163.86552734375002 329.41650390625Q164.28178710937502 329.4970703125 164.73295898437502 329.658203125Z" fill="#000"/><line x1="209.60" x2="209.60" y1="322" y2="325.5" stroke="#000000" stroke-width="0.8"/><path d="M202.21743164062502 336.5869140625H203.98989257812502V330.46923828125L202.06166992187502 330.85595703125V329.86767578125L203.97915039062502 329.48095703125H205.06411132812502V336.5869140625H206.83657226562502V337.5H202.21743164062502ZM209.02797851562502 336.1357421875H210.16127929687502V337.5H209.02797851562502ZM214.84487304687502 333.69189453125Q214.07143554687502 333.69189453125 213.62832031250002 334.10546875Q213.18520507812502 334.51904296875 213.18520507812502 335.244140625Q213.18520507812502 335.96923828125 213.62832031250002 336.3828125Q214.07143554687502 336.79638671875 214.84487304687502 336.79638671875Q215.61831054687502 336.79638671875 216.06411132812502 336.380126953125Q216.50991210937502 335.9638671875 216.50991210937502 335.244140625Q216.50991210937502 334.51904296875 216.06679687500002 334.10546875Q215.62368164062502 333.69189453125 214.84487304687502 333.69189453125ZM213.75991210937502 333.22998046875Q213.06166992187502 333.05810546875 212.67226562500002 332.580078125Q212.28286132812502 332.10205078125 212.28286132812502 331.41455078125Q212.28286132812502 330.453125 212.96767578125002 329.89453125Q213.65249023437502 329.3359375 214.84487304687502 329.3359375Q216.04262695312502 329.3359375 216.72475585937502 329.89453125Q217.40688476562502 330.453125 217.40688476562502 331.41455078125Q217.40688476562502 332.10205078125 217.01748046875002 332.580078125Q216.62807617187502 333.05810546875 215.93520507812502 333.22998046875Q216.71938476562502 333.41259765625 217.15712890625002 333.9443359375Q217.59487304687502 334.47607421875 217.59487304687502 335.244140625Q217.59487304687502 336.40966796875 216.88320312500002 337.03271484375Q216.17153320312502 337.65576171875 214.84487304687502 337.65576171875Q213.51821289062502 337.65576171875 212.80654296875002 337.03271484375Q212.09487304687502 336.40966796875 212.09487304687502 335.244140625Q212.09487304687502 334.47607421875 212.53530273437502 333.9443359375Q212.97573242187502 333.41259765625 213.75991210937502 333.22998046875ZM213.36245117187502 331.5166015625Q213.36245117187502 332.1396484375 213.75185546875002 332.48876953125Q214.14125976562502 332.837890625 214.84487304687502 332.837890625Q215.54311523437502 332.837890625 215.93789062500002 332.48876953125Q216.33266601562502 332.1396484375 216.33266601562502 331.5166015625Q216.33266601562502 330.8935546875 215.93789062500002 330.54443359375Q215.54311523437502 330.1953125 214.84487304687502 330.1953125Q214.14125976562502 330.1953125 213.75185546875002 330.54443359375Q213.36245117187502 330.8935546875 213.36245117187502 331.5166015625Z" fill="#000"/><line x1="262.00" x2="262.00" y1="322" y2="325.5" stroke="#000000" stroke-width="0.8"/><path d="M260.611572265625 336.5869140625H264.398193359375V337.5H259.306396484375V336.5869140625Q259.924072265625 335.94775390625 260.990234375 334.870849609375Q262.056396484375 333.7939453125 262.330322265625 333.482421875Q262.851318359375 332.89697265625 263.05810546875 332.491455078125Q263.264892578125 332.0859375 263.264892578125 331.69384765625Q263.264892578125 331.0546875 262.81640625 330.65185546875Q262.367919921875 330.2490234375 261.648193359375 330.2490234375Q261.137939453125 330.2490234375 260.5712890625 330.42626953125Q260.004638671875 330.603515625 259.360107421875 330.96337890625V329.86767578125Q260.015380859375 329.6044921875 260.584716796875 329.47021484375Q261.154052734375 329.3359375 261.626708984375 329.3359375Q262.872802734375 329.3359375 263.614013671875 329.958984375Q264.355224609375 330.58203125 264.355224609375 331.6240234375Q264.355224609375 332.1181640625 264.169921875 332.561279296875Q263.984619140625 333.00439453125 263.495849609375 333.60595703125Q263.361572265625 333.76171875 262.641845703125 334.505615234375Q261.922119140625 335.24951171875 260.611572265625 336.5869140625Z" fill="#000"/><line x1="314.40" x2="314.40" y1="322" y2="325.5" stroke="#000000" stroke-width="0.8"/><path d="M307.76401367187503 336.5869140625H311.55063476562503V337.5H306.45883789062503V336.5869140625Q307.07651367187503 335.94775390625 308.14267578125003 334.870849609375Q309.20883789062503 333.7939453125 309.48276367187503 333.482421875Q310.00375976562503 332.89697265625 310.21054687500003 332.491455078125Q310.41733398437503 332.0859375 310.41733398437503 331.69384765625Q310.41733398437503 331.0546875 309.96884765625003 330.65185546875Q309.52036132812503 330.2490234375 308.80063476562503 330.2490234375Q308.29038085937503 330.2490234375 307.72373046875003 330.42626953125Q307.15708007812503 330.603515625 306.51254882812503 330.96337890625V329.86767578125Q307.16782226562503 329.6044921875 307.73715820312503 329.47021484375Q308.30649414062503 329.3359375 308.77915039062503 329.3359375Q310.02524414062503 329.3359375 310.76645507812503 329.958984375Q311.50766601562503 330.58203125 311.50766601562503 331.6240234375Q311.50766601562503 332.1181640625 311.32236328125003 332.561279296875Q311.13706054687503 333.00439453125 310.64829101562503 333.60595703125Q310.51401367187503 333.76171875 309.79428710937503 334.505615234375Q309.07456054687503 335.24951171875 307.76401367187503 336.5869140625ZM313.82797851562503 336.1357421875H314.96127929687503V337.5H313.82797851562503ZM318.25913085937503 336.5869140625H322.04575195312503V337.5H316.95395507812503V336.5869140625Q317.57163085937503 335.94775390625 318.63779296875003 334.870849609375Q319.70395507812503 333.7939453125 319.97788085937503 333.482421875Q320.49887695312503 332.89697265625 320.70566406250003 332.491455078125Q320.91245117187503 332.0859375 320.91245117187503 331.69384765625Q320.91245117187503 331.0546875 320.46396484375003 330.65185546875Q320.01547851562503 330.2490234375 319.29575195312503 330.2490234375Q318.78549804687503 330.2490234375 318.21884765625003 330.42626953125Q317.65219726562503 330.603515625 317.00766601562503 330.96337890625V329.86767578125Q317.66293945312503 329.6044921875 318.23227539062503 329.47021484375Q318.80161132812503 329.3359375 319.27426757812503 329.3359375Q320.52036132812503 329.3359375 321.26157226562503 329.958984375Q322.00278320312503 330.58203125 322.00278320312503 331.6240234375Q322.00278320312503 332.1181640625 321.81748046875003 332.561279296875Q321.63217773437503 333.00439453125 321.14340820312503 333.60595703125Q321.00913085937503 333.76171875 320.28940429687503 334.505615234375Q319.56967773437503 335.24951171875 318.25913085937503 336.5869140625Z" fill="#000"/><line x1="366.80" x2="366.80" y1="322" y2="325.5" stroke="#000000" stroke-width="0.8"/><path d="M360.16401367187495 336.5869140625H363.95063476562495V337.5H358.85883789062495V336.5869140625Q359.47651367187495 335.94775390625 360.54267578124995 334.870849609375Q361.60883789062495 333.7939453125 361.88276367187495 333.482421875Q362.40375976562495 332.89697265625 362.61054687499995 332.491455078125Q362.81733398437495 332.0859375 362.81733398437495 331.69384765625Q362.81733398437495 331.0546875 362.36884765624995 330.65185546875Q361.92036132812495 330.2490234375 361.20063476562495 330.2490234375Q360.69038085937495 330.2490234375 360.12373046874995 330.42626953125Q359.55708007812495 330.603515625 358.91254882812495 330.96337890625V329.86767578125Q359.56782226562495 329.6044921875 360.13715820312495 329.47021484375Q360.70649414062495 329.3359375 361.17915039062495 329.3359375Q362.42524414062495 329.3359375 363.16645507812495 329.958984375Q363.90766601562495 330.58203125 363.90766601562495 331.6240234375Q363.90766601562495 332.1181640625 363.72236328124995 332.561279296875Q363.53706054687495 333.00439453125 363.04829101562495 333.60595703125Q362.91401367187495 333.76171875 362.19428710937495 334.505615234375Q361.47456054687495 335.24951171875 360.16401367187495 336.5869140625ZM366.22797851562495 336.1357421875H367.36127929687495V337.5H366.22797851562495ZM372.70551757812495 330.42626953125 369.96625976562495 334.70703125H372.70551757812495ZM372.42084960937495 329.48095703125H373.78510742187495V334.70703125H374.92915039062495V335.609375H373.78510742187495V337.5H372.70551757812495V335.609375H369.08540039062495V334.56201171875Z" fill="#000"/><line x1="419.20" x2="419.20" y1="322" y2="325.5" stroke="#000000" stroke-width="0.8"/><path d="M412.56401367187505 336.5869140625H416.35063476562505V337.5H411.25883789062505V336.5869140625Q411.87651367187505 335.94775390625 412.94267578125005 334.870849609375Q414.00883789062505 333.7939453125 414.28276367187505 333.482421875Q414.80375976562505 332.89697265625 415.01054687500005 332.491455078125Q415.21733398437505 332.0859375 415.21733398437505 331.69384765625Q415.21733398437505 331.0546875 414.76884765625005 330.65185546875Q414.32036132812505 330.2490234375 413.60063476562505 330.2490234375Q413.09038085937505 330.2490234375 412.52373046875005 330.42626953125Q411.95708007812505 330.603515625 411.31254882812505 330.96337890625V329.86767578125Q411.96782226562505 329.6044921875 412.53715820312505 329.47021484375Q413.10649414062505 329.3359375 413.57915039062505 329.3359375Q414.82524414062505 329.3359375 415.56645507812505 329.958984375Q416.30766601562505 330.58203125 416.30766601562505 331.6240234375Q416.30766601562505 332.1181640625 416.12236328125005 332.561279296875Q415.93706054687505 333.00439453125 415.44829101562505 333.60595703125Q415.31401367187505 333.76171875 414.59428710937505 334.505615234375Q413.87456054687505 335.24951171875 412.56401367187505 336.5869140625ZM418.62797851562505 336.1357421875H419.76127929687505V337.5H418.62797851562505ZM424.57915039062505 333.05810546875Q423.84868164062505 333.05810546875 423.42167968750005 333.5576171875Q422.99467773437505 334.05712890625 422.99467773437505 334.92724609375Q422.99467773437505 335.7919921875 423.42167968750005 336.294189453125Q423.84868164062505 336.79638671875 424.57915039062505 336.79638671875Q425.30961914062505 336.79638671875 425.73662109375005 336.294189453125Q426.16362304687505 335.7919921875 426.16362304687505 334.92724609375Q426.16362304687505 334.05712890625 425.73662109375005 333.5576171875Q425.30961914062505 333.05810546875 424.57915039062505 333.05810546875ZM426.73295898437505 329.658203125V330.646484375Q426.32475585937505 330.453125 425.90849609375005 330.35107421875Q425.49223632812505 330.2490234375 425.08403320312505 330.2490234375Q424.00981445312505 330.2490234375 423.44316406250005 330.97412109375Q422.87651367187505 331.69921875 422.79594726562505 333.16552734375Q423.11284179687505 332.6982421875 423.59086914062505 332.448486328125Q424.06889648437505 332.19873046875 424.64360351562505 332.19873046875Q425.85209960937505 332.19873046875 426.55302734375005 332.931884765625Q427.25395507812505 333.6650390625 427.25395507812505 334.92724609375Q427.25395507812505 336.16259765625 426.52348632812505 336.9091796875Q425.79301757812505 337.65576171875 424.57915039062505 337.65576171875Q423.18803710937505 337.65576171875 422.45219726562505 336.589599609375Q421.71635742187505 335.5234375 421.71635742187505 333.49853515625Q421.71635742187505 331.59716796875 422.61870117187505 330.466552734375Q423.52104492187505 329.3359375 425.04106445312505 329.3359375Q425.44926757812505 329.3359375 425.86552734375005 329.41650390625Q426.28178710937505 329.4970703125 426.73295898437505 329.658203125Z" fill="#000"/><line x1="471.60" x2="471.60" y1="322" y2="325.5" stroke="#000000" stroke-width="0.8"/><path d="M464.96401367187497 336.5869140625H468.75063476562497V337.5H463.65883789062497V336.5869140625Q464.27651367187497 335.94775390625 465.34267578124997 334.870849609375Q466.40883789062497 333.7939453125 466.68276367187497 333.482421875Q467.20375976562497 332.89697265625 467.41054687499997 332.491455078125Q467.61733398437497 332.0859375 467.61733398437497 331.69384765625Q467.61733398437497 331.0546875 467.16884765624997 330.65185546875Q466.72036132812497 330.2490234375 466.00063476562497 330.2490234375Q465.49038085937497 330.2490234375 464.92373046874997 330.42626953125Q464.35708007812497 330.603515625 463.71254882812497 330.96337890625V329.86767578125Q464.36782226562497 329.6044921875 464.93715820312497 329.47021484375Q465.50649414062497 329.3359375 465.97915039062497 329.3359375Q467.22524414062497 329.3359375 467.96645507812497 329.958984375Q468.70766601562497 330.58203125 468.70766601562497 331.6240234375Q468.70766601562497 332.1181640625 468.52236328124997 332.561279296875Q468.33706054687497 333.00439453125 467.84829101562497 333.60595703125Q467.71401367187497 333.76171875 466.99428710937497 334.505615234375Q466.27456054687497 335.24951171875 464.96401367187497 336.5869140625ZM471.02797851562497 336.1357421875H472.16127929687497V337.5H471.02797851562497ZM476.84487304687497 333.69189453125Q476.07143554687497 333.69189453125 475.62832031249997 334.10546875Q475.18520507812497 334.51904296875 475.18520507812497 335.244140625Q475.18520507812497 335.96923828125 475.62832031249997 336.3828125Q476.07143554687497 336.79638671875 476.84487304687497 336.79638671875Q477.61831054687497 336.79638671875 478.06411132812497 336.380126953125Q478.50991210937497 335.9638671875 478.50991210937497 335.244140625Q478.50991210937497 334.51904296875 478.06679687499997 334.10546875Q477.62368164062497 333.69189453125 476.84487304687497 333.69189453125ZM475.75991210937497 333.22998046875Q475.06166992187497 333.05810546875 474.67226562499997 332.580078125Q474.28286132812497 332.10205078125 474.28286132812497 331.41455078125Q474.28286132812497 330.453125 474.96767578124997 329.89453125Q475.65249023437497 329.3359375 476.84487304687497 329.3359375Q478.04262695312497 329.3359375 478.72475585937497 329.89453125Q479.40688476562497 330.453125 479.40688476562497 331.41455078125Q479.40688476562497 332.10205078125 479.01748046874997 332.580078125Q478.62807617187497 333.05810546875 477.93520507812497 333.22998046875Q478.71938476562497 333.41259765625 479.15712890624997 333.9443359375Q479.59487304687497 334.47607421875 479.59487304687497 335.244140625Q479.59487304687497 336.40966796875 478.88320312499997 337.03271484375Q478.17153320312497 337.65576171875 476.84487304687497 337.65576171875Q475.51821289062497 337.65576171875 474.80654296874997 337.03271484375Q474.09487304687497 336.40966796875 474.09487304687497 335.244140625Q474.09487304687497 334.47607421875 474.53530273437497 333.9443359375Q474.97573242187497 333.41259765625 475.75991210937497 333.22998046875ZM475.36245117187497 331.5166015625Q475.36245117187497 332.1396484375 475.75185546874997 332.48876953125Q476.14125976562497 332.837890625 476.84487304687497 332.837890625Q477.54311523437497 332.837890625 477.93789062499997 332.48876953125Q478.33266601562497 332.1396484375 478.33266601562497 331.5166015625Q478.33266601562497 330.8935546875 477.93789062499997 330.54443359375Q477.54311523437497 330.1953125 476.84487304687497 330.1953125Q476.14125976562497 330.1953125 475.75185546874997 330.54443359375Q475.36245117187497 330.8935546875 475.36245117187497 331.5166015625Z" fill="#000"/><line x1="524.00" x2="524.00" y1="322" y2="325.5" stroke="#000000" stroke-width="0.8"/><path d="M524.964111328125 333.17626953125Q525.742919921875 333.3427734375 526.1806640625 333.869140625Q526.618408203125 334.3955078125 526.618408203125 335.1689453125Q526.618408203125 336.35595703125 525.802001953125 337.005859375Q524.985595703125 337.65576171875 523.481689453125 337.65576171875Q522.976806640625 337.65576171875 522.4423828125 337.556396484375Q521.907958984375 337.45703125 521.338623046875 337.25830078125V336.2109375Q521.789794921875 336.47412109375 522.326904296875 336.6083984375Q522.864013671875 336.74267578125 523.449462890625 336.74267578125Q524.469970703125 336.74267578125 525.00439453125 336.33984375Q525.538818359375 335.93701171875 525.538818359375 335.1689453125Q525.538818359375 334.4599609375 525.0419921875 334.059814453125Q524.545166015625 333.65966796875 523.658935546875 333.65966796875H522.724365234375V332.76806640625H523.701904296875Q524.502197265625 332.76806640625 524.926513671875 332.448486328125Q525.350830078125 332.12890625 525.350830078125 331.52734375Q525.350830078125 330.90966796875 524.9130859375 330.579345703125Q524.475341796875 330.2490234375 523.658935546875 330.2490234375Q523.213134765625 330.2490234375 522.702880859375 330.345703125Q522.192626953125 330.4423828125 521.580322265625 330.646484375V329.6796875Q522.197998046875 329.5078125 522.73779296875 329.421875Q523.277587890625 329.3359375 523.755615234375 329.3359375Q524.990966796875 329.3359375 525.710693359375 329.897216796875Q526.430419921875 330.45849609375 526.430419921875 331.41455078125Q526.430419921875 332.08056640625 526.049072265625 332.539794921875Q525.667724609375 332.9990234375 524.964111328125 333.17626953125Z" fill="#000"/><line x1="0" x2="-3.5" y1="322.00" y2="322.00" stroke="#000000" stroke-width="0.8"/><path d="M-13.13427734375 325.0869140625H-11.36181640625V318.96923828125L-13.2900390625 319.35595703125V318.36767578125L-11.37255859375 317.98095703125H-10.28759765625V325.0869140625H-8.51513671875V326.0H-13.13427734375Z" fill="#000"/><line x1="0" x2="-3.5" y1="289.80" y2="289.80" stroke="#000000" stroke-width="0.8"/><path d="M-23.62939453125 292.8869140625H-21.85693359375V286.76923828125L-23.78515625 287.15595703125V286.16767578125L-21.86767578125 285.78095703125H-20.78271484375V292.8869140625H-19.01025390625V293.8H-23.62939453125ZM-16.81884765625 292.4357421875H-15.685546875V293.8H-16.81884765625ZM-12.3876953125 292.8869140625H-8.60107421875V293.8H-13.69287109375V292.8869140625Q-13.0751953125 292.24775390625 -12.009033203125 291.170849609375Q-10.94287109375 290.0939453125 -10.6689453125 289.782421875Q-10.14794921875 289.19697265625 -9.941162109375 288.791455078125Q-9.734375 288.3859375 -9.734375 287.99384765625Q-9.734375 287.3546875 -10.182861328125 286.95185546875Q-10.63134765625 286.5490234375 -11.35107421875 286.5490234375Q-11.861328125 286.5490234375 -12.427978515625 286.72626953125Q-12.99462890625 286.903515625 -13.63916015625 287.26337890625V286.16767578125Q-12.98388671875 285.9044921875 -12.41455078125 285.77021484375Q-11.84521484375 285.6359375 -11.37255859375 285.6359375Q-10.12646484375 285.6359375 -9.38525390625 286.258984375Q-8.64404296875 286.88203125 -8.64404296875 287.9240234375Q-8.64404296875 288.4181640625 -8.829345703125 288.861279296875Q-9.0146484375 289.30439453125 -9.50341796875 289.90595703125Q-9.6376953125 290.06171875 -10.357421875 290.805615234375Q-11.0771484375 291.54951171875 -12.3876953125 292.8869140625Z" fill="#000"/><line x1="0" x2="-3.5" y1="257.60" y2="257.60" stroke="#000000" stroke-width="0.8"/><path d="M-23.62939453125 260.6869140625H-21.85693359375V254.56923828125002L-23.78515625 254.95595703125002V253.96767578125002L-21.86767578125 253.58095703125002H-20.78271484375V260.6869140625H-19.01025390625V261.6H-23.62939453125ZM-16.81884765625 260.2357421875H-15.685546875V261.6H-16.81884765625ZM-10.34130859375 254.52626953125002 -13.08056640625 258.80703125H-10.34130859375ZM-10.6259765625 253.58095703125002H-9.26171875V258.80703125H-8.11767578125V259.709375H-9.26171875V261.6H-10.34130859375V259.709375H-13.96142578125V258.66201171875Z" fill="#000"/><line x1="0" x2="-3.5" y1="225.40" y2="225.40" stroke="#000000" stroke-width="0.8"/><path d="M-23.62939453125 228.48691406249998H-21.85693359375V222.36923828124998L-23.78515625 222.75595703124998V221.76767578124998L-21.86767578125 221.38095703124998H-20.78271484375V228.48691406249998H-19.01025390625V229.39999999999998H-23.62939453125ZM-16.81884765625 228.03574218749998H-15.685546875V229.39999999999998H-16.81884765625ZM-10.86767578125 224.95810546874998Q-11.59814453125 224.95810546874998 -12.025146484375 225.45761718749998Q-12.4521484375 225.95712890624998 -12.4521484375 226.82724609374998Q-12.4521484375 227.69199218749998 -12.025146484375 228.19418945312498Q-11.59814453125 228.69638671874998 -10.86767578125 228.69638671874998Q-10.13720703125 228.69638671874998 -9.710205078125 228.19418945312498Q-9.283203125 227.69199218749998 -9.283203125 226.82724609374998Q-9.283203125 225.95712890624998 -9.710205078125 225.45761718749998Q-10.13720703125 224.95810546874998 -10.86767578125 224.95810546874998ZM-8.7138671875 221.55820312499998V222.54648437499998Q-9.1220703125 222.35312499999998 -9.538330078125 222.25107421874998Q-9.95458984375 222.14902343749998 -10.36279296875 222.14902343749998Q-11.43701171875 222.14902343749998 -12.003662109375 222.87412109374998Q-12.5703125 223.59921874999998 -12.65087890625 225.06552734374998Q-12.333984375 224.59824218749998 -11.85595703125 224.34848632812498Q-11.3779296875 224.09873046874998 -10.80322265625 224.09873046874998Q-9.5947265625 224.09873046874998 -8.893798828125 224.83188476562498Q-8.19287109375 225.56503906249998 -8.19287109375 226.82724609374998Q-8.19287109375 228.06259765624998 -8.92333984375 228.80917968749998Q-9.65380859375 229.55576171874998 -10.86767578125 229.55576171874998Q-12.2587890625 229.55576171874998 -12.99462890625 228.48959960937498Q-13.73046875 227.42343749999998 -13.73046875 225.39853515624998Q-13.73046875 223.49716796874998 -12.828125 222.36655273437498Q-11.92578125 221.23593749999998 -10.40576171875 221.23593749999998Q-9.99755859375 221.23593749999998 -9.581298828125 221.31650390624998Q-9.1650390625 221.39707031249998 -8.7138671875 221.55820312499998Z" fill="#000"/><line x1="0" x2="-3.5" y1="193.20" y2="193.20" stroke="#000000" stroke-width="0.8"/><path d="M-23.62939453125 196.2869140625H-21.85693359375V190.16923828125L-23.78515625 190.55595703125V189.56767578125L-21.86767578125 189.18095703125H-20.78271484375V196.2869140625H-19.01025390625V197.2H-23.62939453125ZM-16.81884765625 195.8357421875H-15.685546875V197.2H-16.81884765625ZM-11.001953125 193.39189453125Q-11.775390625 193.39189453125 -12.218505859375 193.80546875Q-12.66162109375 194.21904296875 -12.66162109375 194.944140625Q-12.66162109375 195.66923828125 -12.218505859375 196.0828125Q-11.775390625 196.49638671875 -11.001953125 196.49638671875Q-10.228515625 196.49638671875 -9.78271484375 196.080126953125Q-9.3369140625 195.6638671875 -9.3369140625 194.944140625Q-9.3369140625 194.21904296875 -9.780029296875 193.80546875Q-10.22314453125 193.39189453125 -11.001953125 193.39189453125ZM-12.0869140625 192.92998046875Q-12.78515625 192.75810546875 -13.174560546875 192.280078125Q-13.56396484375 191.80205078125 -13.56396484375 191.11455078125Q-13.56396484375 190.153125 -12.879150390625 189.59453125Q-12.1943359375 189.0359375 -11.001953125 189.0359375Q-9.80419921875 189.0359375 -9.1220703125 189.59453125Q-8.43994140625 190.153125 -8.43994140625 191.11455078125Q-8.43994140625 191.80205078125 -8.829345703125 192.280078125Q-9.21875 192.75810546875 -9.91162109375 192.92998046875Q-9.12744140625 193.11259765625 -8.689697265625 193.6443359375Q-8.251953125 194.17607421875 -8.251953125 194.944140625Q-8.251953125 196.10966796875 -8.963623046875 196.73271484375Q-9.67529296875 197.35576171875 -11.001953125 197.35576171875Q-12.32861328125 197.35576171875 -13.040283203125 196.73271484375Q-13.751953125 196.10966796875 -13.751953125 194.944140625Q-13.751953125 194.17607421875 -13.3115234375 193.6443359375Q-12.87109375 193.11259765625 -12.0869140625 192.92998046875ZM-12.484375 191.2166015625Q-12.484375 191.8396484375 -12.094970703125 192.18876953125Q-11.70556640625 192.537890625 -11.001953125 192.537890625Q-10.3037109375 192.537890625 -9.908935546875 192.18876953125Q-9.51416015625 191.8396484375 -9.51416015625 191.2166015625Q-9.51416015625 190.5935546875 -9.908935546875 190.24443359375Q-10.3037109375 189.8953125 -11.001953125 189.8953125Q-11.70556640625 189.8953125 -12.094970703125 190.24443359375Q-12.484375 190.5935546875 -12.484375 191.2166015625Z" fill="#000"/><line x1="0" x2="-3.5" y1="161.00" y2="161.00" stroke="#000000" stroke-width="0.8"/><path d="M-12.3876953125 164.0869140625H-8.60107421875V165.0H-13.69287109375V164.0869140625Q-13.0751953125 163.44775390625 -12.009033203125 162.370849609375Q-10.94287109375 161.2939453125 -10.6689453125 160.982421875Q-10.14794921875 160.39697265625 -9.941162109375 159.991455078125Q-9.734375 159.5859375 -9.734375 159.19384765625Q-9.734375 158.5546875 -10.182861328125 158.15185546875Q-10.63134765625 157.7490234375 -11.35107421875 157.7490234375Q-11.861328125 157.7490234375 -12.427978515625 157.92626953125Q-12.99462890625 158.103515625 -13.63916015625 158.46337890625V157.36767578125Q-12.98388671875 157.1044921875 -12.41455078125 156.97021484375Q-11.84521484375 156.8359375 -11.37255859375 156.8359375Q-10.12646484375 156.8359375 -9.38525390625 157.458984375Q-8.64404296875 158.08203125 -8.64404296875 159.1240234375Q-8.64404296875 159.6181640625 -8.829345703125 160.061279296875Q-9.0146484375 160.50439453125 -9.50341796875 161.10595703125Q-9.6376953125 161.26171875 -10.357421875 162.005615234375Q-11.0771484375 162.74951171875 -12.3876953125 164.0869140625Z" fill="#000"/><line x1="0" x2="-3.5" y1="128.80" y2="128.80" stroke="#000000" stroke-width="0.8"/><path d="M-22.8828125 131.88691406249998H-19.09619140625V132.79999999999998H-24.18798828125V131.88691406249998Q-23.5703125 131.24775390624998 -22.504150390625 130.17084960937498Q-21.43798828125 129.09394531249998 -21.1640625 128.78242187499998Q-20.64306640625 128.19697265624998 -20.436279296875 127.79145507812498Q-20.2294921875 127.38593749999998 -20.2294921875 126.99384765624998Q-20.2294921875 126.35468749999998 -20.677978515625 125.95185546874998Q-21.12646484375 125.54902343749998 -21.84619140625 125.54902343749998Q-22.3564453125 125.54902343749998 -22.923095703125 125.72626953124998Q-23.48974609375 125.90351562499998 -24.13427734375 126.26337890624998V125.16767578124998Q-23.47900390625 124.90449218749998 -22.90966796875 124.77021484374998Q-22.34033203125 124.63593749999998 -21.86767578125 124.63593749999998Q-20.62158203125 124.63593749999998 -19.88037109375 125.25898437499998Q-19.13916015625 125.88203124999998 -19.13916015625 126.92402343749998Q-19.13916015625 127.41816406249998 -19.324462890625 127.86127929687498Q-19.509765625 128.30439453124998 -19.99853515625 128.90595703124998Q-20.1328125 129.06171874999998 -20.8525390625 129.80561523437498Q-21.572265625 130.54951171874998 -22.8828125 131.88691406249998ZM-16.81884765625 131.43574218749998H-15.685546875V132.79999999999998H-16.81884765625ZM-12.3876953125 131.88691406249998H-8.60107421875V132.79999999999998H-13.69287109375V131.88691406249998Q-13.0751953125 131.24775390624998 -12.009033203125 130.17084960937498Q-10.94287109375 129.09394531249998 -10.6689453125 128.78242187499998Q-10.14794921875 128.19697265624998 -9.941162109375 127.79145507812498Q-9.734375 127.38593749999998 -9.734375 126.99384765624998Q-9.734375 126.35468749999998 -10.182861328125 125.95185546874998Q-10.63134765625 125.54902343749998 -11.35107421875 125.54902343749998Q-11.861328125 125.54902343749998 -12.427978515625 125.72626953124998Q-12.99462890625 125.90351562499998 -13.63916015625 126.26337890624998V125.16767578124998Q-12.98388671875 124.90449218749998 -12.41455078125 124.77021484374998Q-11.84521484375 124.63593749999998 -11.37255859375 124.63593749999998Q-10.12646484375 124.63593749999998 -9.38525390625 125.25898437499998Q-8.64404296875 125.88203124999998 -8.64404296875 126.92402343749998Q-8.64404296875 127.41816406249998 -8.829345703125 127.86127929687498Q-9.0146484375 128.30439453124998 -9.50341796875 128.90595703124998Q-9.6376953125 129.06171874999998 -10.357421875 129.80561523437498Q-11.0771484375 130.54951171874998 -12.3876953125 131.88691406249998Z" fill="#000"/><line x1="0" x2="-3.5" y1="96.60" y2="96.60" stroke="#000000" stroke-width="0.8"/><path d="M-22.8828125 99.68691406250002H-19.09619140625V100.60000000000002H-24.18798828125V99.68691406250002Q-23.5703125 99.04775390625002 -22.504150390625 97.97084960937502Q-21.43798828125 96.89394531250002 -21.1640625 96.58242187500002Q-20.64306640625 95.99697265625002 -20.436279296875 95.59145507812502Q-20.2294921875 95.18593750000002 -20.2294921875 94.79384765625002Q-20.2294921875 94.15468750000002 -20.677978515625 93.75185546875002Q-21.12646484375 93.34902343750002 -21.84619140625 93.34902343750002Q-22.3564453125 93.34902343750002 -22.923095703125 93.52626953125002Q-23.48974609375 93.70351562500002 -24.13427734375 94.06337890625002V92.96767578125002Q-23.47900390625 92.70449218750002 -22.90966796875 92.57021484375002Q-22.34033203125 92.43593750000002 -21.86767578125 92.43593750000002Q-20.62158203125 92.43593750000002 -19.88037109375 93.05898437500002Q-19.13916015625 93.68203125000002 -19.13916015625 94.72402343750002Q-19.13916015625 95.21816406250002 -19.324462890625 95.66127929687502Q-19.509765625 96.10439453125002 -19.99853515625 96.70595703125002Q-20.1328125 96.86171875000002 -20.8525390625 97.60561523437502Q-21.572265625 98.34951171875002 -22.8828125 99.68691406250002ZM-16.81884765625 99.23574218750002H-15.685546875V100.60000000000002H-16.81884765625ZM-10.34130859375 93.52626953125002 -13.08056640625 97.80703125000002H-10.34130859375ZM-10.6259765625 92.58095703125002H-9.26171875V97.80703125000002H-8.11767578125V98.70937500000002H-9.26171875V100.60000000000002H-10.34130859375V98.70937500000002H-13.96142578125V97.66201171875002Z" fill="#000"/><line x1="0" x2="-3.5" y1="64.40" y2="64.40" stroke="#000000" stroke-width="0.8"/><path d="M-22.8828125 67.48691406249998H-19.09619140625V68.39999999999998H-24.18798828125V67.48691406249998Q-23.5703125 66.84775390624998 -22.504150390625 65.77084960937498Q-21.43798828125 64.69394531249998 -21.1640625 64.38242187499998Q-20.64306640625 63.79697265624998 -20.436279296875 63.39145507812498Q-20.2294921875 62.98593749999998 -20.2294921875 62.59384765624998Q-20.2294921875 61.95468749999998 -20.677978515625 61.55185546874998Q-21.12646484375 61.14902343749998 -21.84619140625 61.14902343749998Q-22.3564453125 61.14902343749998 -22.923095703125 61.32626953124998Q-23.48974609375 61.50351562499998 -24.13427734375 61.86337890624998V60.76767578124998Q-23.47900390625 60.50449218749998 -22.90966796875 60.37021484374998Q-22.34033203125 60.23593749999998 -21.86767578125 60.23593749999998Q-20.62158203125 60.23593749999998 -19.88037109375 60.85898437499998Q-19.13916015625 61.48203124999998 -19.13916015625 62.52402343749998Q-19.13916015625 63.01816406249998 -19.324462890625 63.46127929687498Q-19.509765625 63.90439453124998 -19.99853515625 64.50595703124998Q-20.1328125 64.66171874999998 -20.8525390625 65.40561523437498Q-21.572265625 66.14951171874998 -22.8828125 67.48691406249998ZM-16.81884765625 67.03574218749998H-15.685546875V68.39999999999998H-16.81884765625ZM-10.86767578125 63.95810546874998Q-11.59814453125 63.95810546874998 -12.025146484375 64.45761718749998Q-12.4521484375 64.95712890624998 -12.4521484375 65.82724609374998Q-12.4521484375 66.69199218749998 -12.025146484375 67.19418945312498Q-11.59814453125 67.69638671874998 -10.86767578125 67.69638671874998Q-10.13720703125 67.69638671874998 -9.710205078125 67.19418945312498Q-9.283203125 66.69199218749998 -9.283203125 65.82724609374998Q-9.283203125 64.95712890624998 -9.710205078125 64.45761718749998Q-10.13720703125 63.95810546874998 -10.86767578125 63.95810546874998ZM-8.7138671875 60.55820312499998V61.54648437499998Q-9.1220703125 61.35312499999998 -9.538330078125 61.25107421874998Q-9.95458984375 61.14902343749998 -10.36279296875 61.14902343749998Q-11.43701171875 61.14902343749998 -12.003662109375 61.87412109374998Q-12.5703125 62.59921874999998 -12.65087890625 64.06552734374998Q-12.333984375 63.59824218749998 -11.85595703125 63.34848632812498Q-11.3779296875 63.09873046874998 -10.80322265625 63.09873046874998Q-9.5947265625 63.09873046874998 -8.893798828125 63.83188476562498Q-8.19287109375 64.56503906249998 -8.19287109375 65.82724609374998Q-8.19287109375 67.06259765624998 -8.92333984375 67.80917968749998Q-9.65380859375 68.55576171874998 -10.86767578125 68.55576171874998Q-12.2587890625 68.55576171874998 -12.99462890625 67.48959960937498Q-13.73046875 66.42343749999998 -13.73046875 64.39853515624998Q-13.73046875 62.49716796874998 -12.828125 61.36655273437498Q-11.92578125 60.23593749999998 -10.40576171875 60.23593749999998Q-9.99755859375 60.23593749999998 -9.581298828125 60.31650390624998Q-9.1650390625 60.39707031249998 -8.7138671875 60.55820312499998Z" fill="#000"/><line x1="0" x2="-3.5" y1="32.20" y2="32.20" stroke="#000000" stroke-width="0.8"/><path d="M-22.8828125 35.286914062500045H-19.09619140625V36.200000000000045H-24.18798828125V35.286914062500045Q-23.5703125 34.647753906250045 -22.504150390625 33.570849609375045Q-21.43798828125 32.493945312500045 -21.1640625 32.182421875000045Q-20.64306640625 31.596972656250045 -20.436279296875 31.191455078125045Q-20.2294921875 30.785937500000045 -20.2294921875 30.393847656250045Q-20.2294921875 29.754687500000045 -20.677978515625 29.351855468750045Q-21.12646484375 28.949023437500045 -21.84619140625 28.949023437500045Q-22.3564453125 28.949023437500045 -22.923095703125 29.126269531250045Q-23.48974609375 29.303515625000045 -24.13427734375 29.663378906250045V28.567675781250045Q-23.47900390625 28.304492187500045 -22.90966796875 28.170214843750045Q-22.34033203125 28.035937500000045 -21.86767578125 28.035937500000045Q-20.62158203125 28.035937500000045 -19.88037109375 28.658984375000045Q-19.13916015625 29.282031250000045 -19.13916015625 30.324023437500045Q-19.13916015625 30.818164062500045 -19.324462890625 31.261279296875045Q-19.509765625 31.704394531250045 -19.99853515625 32.305957031250045Q-20.1328125 32.461718750000045 -20.8525390625 33.205615234375045Q-21.572265625 33.949511718750045 -22.8828125 35.286914062500045ZM-16.81884765625 34.835742187500045H-15.685546875V36.200000000000045H-16.81884765625ZM-11.001953125 32.391894531250045Q-11.775390625 32.391894531250045 -12.218505859375 32.805468750000045Q-12.66162109375 33.219042968750045 -12.66162109375 33.944140625000045Q-12.66162109375 34.669238281250045 -12.218505859375 35.082812500000045Q-11.775390625 35.496386718750045 -11.001953125 35.496386718750045Q-10.228515625 35.496386718750045 -9.78271484375 35.080126953125045Q-9.3369140625 34.663867187500045 -9.3369140625 33.944140625000045Q-9.3369140625 33.219042968750045 -9.780029296875 32.805468750000045Q-10.22314453125 32.391894531250045 -11.001953125 32.391894531250045ZM-12.0869140625 31.929980468750045Q-12.78515625 31.758105468750045 -13.174560546875 31.280078125000045Q-13.56396484375 30.802050781250045 -13.56396484375 30.114550781250045Q-13.56396484375 29.153125000000045 -12.879150390625 28.594531250000045Q-12.1943359375 28.035937500000045 -11.001953125 28.035937500000045Q-9.80419921875 28.035937500000045 -9.1220703125 28.594531250000045Q-8.43994140625 29.153125000000045 -8.43994140625 30.114550781250045Q-8.43994140625 30.802050781250045 -8.829345703125 31.280078125000045Q-9.21875 31.758105468750045 -9.91162109375 31.929980468750045Q-9.12744140625 32.112597656250045 -8.689697265625 32.644335937500045Q-8.251953125 33.176074218750045 -8.251953125 33.944140625000045Q-8.251953125 35.109667968750045 -8.963623046875 35.732714843750045Q-9.67529296875 36.355761718750045 -11.001953125 36.355761718750045Q-12.32861328125 36.355761718750045 -13.040283203125 35.732714843750045Q-13.751953125 35.109667968750045 -13.751953125 33.944140625000045Q-13.751953125 33.176074218750045 -13.3115234375 32.644335937500045Q-12.87109375 32.112597656250045 -12.0869140625 31.929980468750045ZM-12.484375 30.216601562500045Q-12.484375 30.839648437500045 -12.094970703125 31.188769531250045Q-11.70556640625 31.537890625000045 -11.001953125 31.537890625000045Q-10.3037109375 31.537890625000045 -9.908935546875 31.188769531250045Q-9.51416015625 30.839648437500045 -9.51416015625 30.216601562500045Q-9.51416015625 29.593554687500045 -9.908935546875 29.244433593750045Q-10.3037109375 28.895312500000045 -11.001953125 28.895312500000045Q-11.70556640625 28.895312500000045 -12.094970703125 29.244433593750045Q-12.484375 29.593554687500045 -12.484375 30.216601562500045Z" fill="#000"/><line x1="0" x2="-3.5" y1="0.00" y2="0.00" stroke="#000000" stroke-width="0.8"/><path d="M-10.03515625 -0.32373046875Q-9.25634765625 -0.1572265625 -8.818603515625 0.369140625Q-8.380859375 0.8955078125 -8.380859375 1.6689453125Q-8.380859375 2.85595703125 -9.197265625 3.505859375Q-10.013671875 4.15576171875 -11.517578125 4.15576171875Q-12.0224609375 4.15576171875 -12.556884765625 4.056396484375Q-13.09130859375 3.95703125 -13.66064453125 3.75830078125V2.7109375Q-13.20947265625 2.97412109375 -12.67236328125 3.1083984375Q-12.13525390625 3.24267578125 -11.5498046875 3.24267578125Q-10.529296875 3.24267578125 -9.994873046875 2.83984375Q-9.46044921875 2.43701171875 -9.46044921875 1.6689453125Q-9.46044921875 0.9599609375 -9.957275390625 0.559814453125Q-10.4541015625 0.15966796875 -11.34033203125 0.15966796875H-12.27490234375V-0.73193359375H-11.29736328125Q-10.4970703125 -0.73193359375 -10.07275390625 -1.051513671875Q-9.6484375 -1.37109375 -9.6484375 -1.97265625Q-9.6484375 -2.59033203125 -10.086181640625 -2.920654296875Q-10.52392578125 -3.2509765625 -11.34033203125 -3.2509765625Q-11.7861328125 -3.2509765625 -12.29638671875 -3.154296875Q-12.806640625 -3.0576171875 -13.4189453125 -2.853515625V-3.8203125Q-12.80126953125 -3.9921875 -12.261474609375 -4.078125Q-11.7216796875 -4.1640625 -11.24365234375 -4.1640625Q-10.00830078125 -4.1640625 -9.28857421875 -3.602783203125Q-8.56884765625 -3.04150390625 -8.56884765625 -2.08544921875Q-8.56884765625 -1.41943359375 -8.9501953125 -0.960205078125Q-9.33154296875 -0.5009765625 -10.03515625 -0.32373046875Z" fill="#000"/><path d="M220.70849609375 -13.54833984375Q220.70849609375 -14.8369140625 220.178466796875 -15.570068359375Q219.6484375 -16.30322265625 218.7216796875 -16.30322265625Q217.794921875 -16.30322265625 217.264892578125 -15.570068359375Q216.73486328125 -14.8369140625 216.73486328125 -13.54833984375Q216.73486328125 -12.259765625 217.264892578125 -11.526611328125Q217.794921875 -10.79345703125 218.7216796875 -10.79345703125Q219.6484375 -10.79345703125 220.178466796875 -11.526611328125Q220.70849609375 -12.259765625 220.70849609375 -13.54833984375ZM216.73486328125 -16.0302734375Q217.10302734375 -16.6650390625 217.664794921875 -16.972900390625Q218.2265625 -17.28076171875 219.00732421875 -17.28076171875Q220.30224609375 -17.28076171875 221.111572265625 -16.25244140625Q221.9208984375 -15.22412109375 221.9208984375 -13.54833984375Q221.9208984375 -11.87255859375 221.111572265625 -10.84423828125Q220.30224609375 -9.81591796875 219.00732421875 -9.81591796875Q218.2265625 -9.81591796875 217.664794921875 -10.123779296875Q217.10302734375 -10.431640625 216.73486328125 -11.06640625V-10.0H215.560546875V-19.876953125H216.73486328125ZM227.087890625 -13.57373046875Q225.67236328125 -13.57373046875 225.12646484375 -13.25Q224.58056640625 -12.92626953125 224.58056640625 -12.1455078125Q224.58056640625 -11.5234375 224.989990234375 -11.158447265625Q225.3994140625 -10.79345703125 226.10400390625 -10.79345703125Q227.0751953125 -10.79345703125 227.662353515625 -11.482177734375Q228.24951171875 -12.1708984375 228.24951171875 -13.3134765625V-13.57373046875ZM229.41748046875 -14.05615234375V-10.0H228.24951171875V-11.0791015625Q227.849609375 -10.431640625 227.2529296875 -10.123779296875Q226.65625 -9.81591796875 225.79296875 -9.81591796875Q224.701171875 -9.81591796875 224.056884765625 -10.428466796875Q223.41259765625 -11.041015625 223.41259765625 -12.0693359375Q223.41259765625 -13.26904296875 224.215576171875 -13.87841796875Q225.0185546875 -14.48779296875 226.61181640625 -14.48779296875H228.24951171875V-14.60205078125Q228.24951171875 -15.408203125 227.719482421875 -15.849365234375Q227.189453125 -16.29052734375 226.23095703125 -16.29052734375Q225.62158203125 -16.29052734375 225.0439453125 -16.14453125Q224.46630859375 -15.99853515625 223.93310546875 -15.70654296875V-16.78564453125Q224.57421875 -17.033203125 225.17724609375 -17.156982421875Q225.7802734375 -17.28076171875 226.3515625 -17.28076171875Q227.89404296875 -17.28076171875 228.65576171875 -16.48095703125Q229.41748046875 -15.68115234375 229.41748046875 -14.05615234375ZM236.939453125 -16.83642578125V-15.74462890625Q236.4443359375 -16.017578125 235.946044921875 -16.154052734375Q235.44775390625 -16.29052734375 234.93994140625 -16.29052734375Q233.8037109375 -16.29052734375 233.17529296875 -15.570068359375Q232.546875 -14.849609375 232.546875 -13.54833984375Q232.546875 -12.2470703125 233.17529296875 -11.526611328125Q233.8037109375 -10.80615234375 234.93994140625 -10.80615234375Q235.44775390625 -10.80615234375 235.946044921875 -10.942626953125Q236.4443359375 -11.0791015625 236.939453125 -11.35205078125V-10.27294921875Q236.45068359375 -10.04443359375 235.927001953125 -9.93017578125Q235.4033203125 -9.81591796875 234.81298828125 -9.81591796875Q233.20703125 -9.81591796875 232.26123046875 -10.8251953125Q231.3154296875 -11.83447265625 231.3154296875 -13.54833984375Q231.3154296875 -15.28759765625 232.270751953125 -16.2841796875Q233.22607421875 -17.28076171875 234.88916015625 -17.28076171875Q235.4287109375 -17.28076171875 235.94287109375 -17.169677734375Q236.45703125 -17.05859375 236.939453125 -16.83642578125ZM238.92626953125 -19.876953125H240.1005859375V-14.04345703125L243.58544921875 -17.109375H245.0771484375L241.306640625 -13.783203125L245.23583984375 -10.0H243.71240234375L240.1005859375 -13.47216796875V-10.0H238.92626953125ZM251.78662109375 -19.1279296875V-17.109375H254.1923828125V-16.20166015625H251.78662109375V-12.34228515625Q251.78662109375 -11.47265625 252.024658203125 -11.22509765625Q252.2626953125 -10.9775390625 252.99267578125 -10.9775390625H254.1923828125V-10.0H252.99267578125Q251.640625 -10.0 251.12646484375 -10.504638671875Q250.6123046875 -11.00927734375 250.6123046875 -12.34228515625V-16.20166015625H249.75537109375V-17.109375H250.6123046875V-19.1279296875ZM258.4833984375 -16.29052734375Q257.5439453125 -16.29052734375 256.998046875 -15.557373046875Q256.4521484375 -14.82421875 256.4521484375 -13.54833984375Q256.4521484375 -12.2724609375 256.994873046875 -11.539306640625Q257.53759765625 -10.80615234375 258.4833984375 -10.80615234375Q259.41650390625 -10.80615234375 259.96240234375 -11.54248046875Q260.50830078125 -12.27880859375 260.50830078125 -13.54833984375Q260.50830078125 -14.8115234375 259.96240234375 -15.551025390625Q259.41650390625 -16.29052734375 258.4833984375 -16.29052734375ZM258.4833984375 -17.28076171875Q260.0068359375 -17.28076171875 260.87646484375 -16.29052734375Q261.74609375 -15.30029296875 261.74609375 -13.54833984375Q261.74609375 -11.802734375 260.87646484375 -10.809326171875Q260.0068359375 -9.81591796875 258.4833984375 -9.81591796875Q256.95361328125 -9.81591796875 256.087158203125 -10.809326171875Q255.220703125 -11.802734375 255.220703125 -13.54833984375Q255.220703125 -15.30029296875 256.087158203125 -16.29052734375Q256.95361328125 -17.28076171875 258.4833984375 -17.28076171875ZM272.9306640625 -16.83642578125V-15.74462890625Q272.435546875 -16.017578125 271.937255859375 -16.154052734375Q271.43896484375 -16.29052734375 270.93115234375 -16.29052734375Q269.794921875 -16.29052734375 269.16650390625 -15.570068359375Q268.5380859375 -14.849609375 268.5380859375 -13.54833984375Q268.5380859375 -12.2470703125 269.16650390625 -11.526611328125Q269.794921875 -10.80615234375 270.93115234375 -10.80615234375Q271.43896484375 -10.80615234375 271.937255859375 -10.942626953125Q272.435546875 -11.0791015625 272.9306640625 -11.35205078125V-10.27294921875Q272.44189453125 -10.04443359375 271.918212890625 -9.93017578125Q271.39453125 -9.81591796875 270.80419921875 -9.81591796875Q269.1982421875 -9.81591796875 268.25244140625 -10.8251953125Q267.306640625 -11.83447265625 267.306640625 -13.54833984375Q267.306640625 -15.28759765625 268.261962890625 -16.2841796875Q269.21728515625 -17.28076171875 270.88037109375 -17.28076171875Q271.419921875 -17.28076171875 271.93408203125 -17.169677734375Q272.4482421875 -17.05859375 272.9306640625 -16.83642578125ZM274.9619140625 -19.876953125H276.1298828125V-10.0H274.9619140625ZM281.8046875 -13.57373046875Q280.38916015625 -13.57373046875 279.84326171875 -13.25Q279.29736328125 -12.92626953125 279.29736328125 -12.1455078125Q279.29736328125 -11.5234375 279.706787109375 -11.158447265625Q280.1162109375 -10.79345703125 280.82080078125 -10.79345703125Q281.7919921875 -10.79345703125 282.379150390625 -11.482177734375Q282.96630859375 -12.1708984375 282.96630859375 -13.3134765625V-13.57373046875ZM284.13427734375 -14.05615234375V-10.0H282.96630859375V-11.0791015625Q282.56640625 -10.431640625 281.9697265625 -10.123779296875Q281.373046875 -9.81591796875 280.509765625 -9.81591796875Q279.41796875 -9.81591796875 278.773681640625 -10.428466796875Q278.12939453125 -11.041015625 278.12939453125 -12.0693359375Q278.12939453125 -13.26904296875 278.932373046875 -13.87841796875Q279.7353515625 -14.48779296875 281.32861328125 -14.48779296875H282.96630859375V-14.60205078125Q282.96630859375 -15.408203125 282.436279296875 -15.849365234375Q281.90625 -16.29052734375 280.94775390625 -16.29052734375Q280.33837890625 -16.29052734375 279.7607421875 -16.14453125Q279.18310546875 -15.99853515625 278.64990234375 -15.70654296875V-16.78564453125Q279.291015625 -17.033203125 279.89404296875 -17.156982421875Q280.4970703125 -17.28076171875 281.068359375 -17.28076171875Q282.61083984375 -17.28076171875 283.37255859375 -16.48095703125Q284.13427734375 -15.68115234375 284.13427734375 -14.05615234375ZM291.072265625 -16.89990234375V-15.79541015625Q290.5771484375 -16.04931640625 290.0439453125 -16.17626953125Q289.5107421875 -16.30322265625 288.939453125 -16.30322265625Q288.06982421875 -16.30322265625 287.635009765625 -16.03662109375Q287.2001953125 -15.77001953125 287.2001953125 -15.23681640625Q287.2001953125 -14.83056640625 287.51123046875 -14.598876953125Q287.822265625 -14.3671875 288.76171875 -14.15771484375L289.16162109375 -14.06884765625Q290.40576171875 -13.80224609375 290.929443359375 -13.316650390625Q291.453125 -12.8310546875 291.453125 -11.96142578125Q291.453125 -10.97119140625 290.669189453125 -10.3935546875Q289.88525390625 -9.81591796875 288.51416015625 -9.81591796875Q287.94287109375 -9.81591796875 287.323974609375 -9.927001953125Q286.705078125 -10.0380859375 286.01953125 -10.26025390625V-11.46630859375Q286.6669921875 -11.1298828125 287.29541015625 -10.961669921875Q287.923828125 -10.79345703125 288.53955078125 -10.79345703125Q289.36474609375 -10.79345703125 289.80908203125 -11.075927734375Q290.25341796875 -11.3583984375 290.25341796875 -11.87255859375Q290.25341796875 -12.3486328125 289.932861328125 -12.6025390625Q289.6123046875 -12.8564453125 288.52685546875 -13.09130859375L288.12060546875 -13.1865234375Q287.03515625 -13.4150390625 286.552734375 -13.887939453125Q286.0703125 -14.36083984375 286.0703125 -15.18603515625Q286.0703125 -16.18896484375 286.78125 -16.73486328125Q287.4921875 -17.28076171875 288.7998046875 -17.28076171875Q289.447265625 -17.28076171875 290.0185546875 -17.185546875Q290.58984375 -17.09033203125 291.072265625 -16.89990234375ZM297.84521484375 -16.89990234375V-15.79541015625Q297.35009765625 -16.04931640625 296.81689453125 -16.17626953125Q296.28369140625 -16.30322265625 295.71240234375 -16.30322265625Q294.8427734375 -16.30322265625 294.407958984375 -16.03662109375Q293.97314453125 -15.77001953125 293.97314453125 -15.23681640625Q293.97314453125 -14.83056640625 294.2841796875 -14.598876953125Q294.59521484375 -14.3671875 295.53466796875 -14.15771484375L295.9345703125 -14.06884765625Q297.1787109375 -13.80224609375 297.702392578125 -13.316650390625Q298.22607421875 -12.8310546875 298.22607421875 -11.96142578125Q298.22607421875 -10.97119140625 297.442138671875 -10.3935546875Q296.658203125 -9.81591796875 295.287109375 -9.81591796875Q294.7158203125 -9.81591796875 294.096923828125 -9.927001953125Q293.47802734375 -10.0380859375 292.79248046875 -10.26025390625V-11.46630859375Q293.43994140625 -11.1298828125 294.068359375 -10.961669921875Q294.69677734375 -10.79345703125 295.3125 -10.79345703125Q296.1376953125 -10.79345703125 296.58203125 -11.075927734375Q297.0263671875 -11.3583984375 297.0263671875 -11.87255859375Q297.0263671875 -12.3486328125 296.705810546875 -12.6025390625Q296.38525390625 -12.8564453125 295.2998046875 -13.09130859375L294.8935546875 -13.1865234375Q293.80810546875 -13.4150390625 293.32568359375 -13.887939453125Q292.84326171875 -14.36083984375 292.84326171875 -15.18603515625Q292.84326171875 -16.18896484375 293.55419921875 -16.73486328125Q294.26513671875 -17.28076171875 295.57275390625 -17.28076171875Q296.22021484375 -17.28076171875 296.79150390625 -17.185546875Q297.36279296875 -17.09033203125 297.84521484375 -16.89990234375ZM300.0859375 -17.109375H301.25390625V-10.0H300.0859375ZM300.0859375 -19.876953125H301.25390625V-18.39794921875H300.0859375ZM308.81396484375 -16.83642578125V-15.74462890625Q308.31884765625 -16.017578125 307.820556640625 -16.154052734375Q307.322265625 -16.29052734375 306.814453125 -16.29052734375Q305.67822265625 -16.29052734375 305.0498046875 -15.570068359375Q304.42138671875 -14.849609375 304.42138671875 -13.54833984375Q304.42138671875 -12.2470703125 305.0498046875 -11.526611328125Q305.67822265625 -10.80615234375 306.814453125 -10.80615234375Q307.322265625 -10.80615234375 307.820556640625 -10.942626953125Q308.31884765625 -11.0791015625 308.81396484375 -11.35205078125V-10.27294921875Q308.3251953125 -10.04443359375 307.801513671875 -9.93017578125Q307.27783203125 -9.81591796875 306.6875 -9.81591796875Q305.08154296875 -9.81591796875 304.1357421875 -10.8251953125Q303.18994140625 -11.83447265625 303.18994140625 -13.54833984375Q303.18994140625 -15.28759765625 304.145263671875 -16.2841796875Q305.1005859375 -17.28076171875 306.763671875 -17.28076171875Q307.30322265625 -17.28076171875 307.8173828125 -17.169677734375Q308.33154296875 -17.05859375 308.81396484375 -16.83642578125Z" fill="#000"/></g></svg>